<?xml version="1.0" encoding="utf-8"?>
<!-- Generator: Adobe Illustrator 21.0.0, SVG Export Plug-In . SVG Version: 6.00 Build 0)  -->
<svg version="1.1" id="Capa_1" xmlns="http://www.w3.org/2000/svg" xmlns:xlink="http://www.w3.org/1999/xlink" x="0px" y="0px"
	 viewBox="0 0 1319 1952" style="enable-background:new 0 0 1319 1952;" xml:space="preserve">
<style type="text/css">
	.st0{fill:none;stroke:#FFF8CC;stroke-width:46;stroke-linecap:round;stroke-linejoin:round;stroke-miterlimit:10;}
	.st1{fill:none;stroke:#643527;stroke-width:18;stroke-linecap:round;stroke-linejoin:round;stroke-miterlimit:10;}
	.st2{fill:#FFB8EB;}
	.st3{fill:none;stroke:#663A27;stroke-width:9;stroke-linecap:round;stroke-linejoin:round;stroke-miterlimit:10;}
	.st4{fill:#FFE594;}
	.st5{fill:#FFCCF5;}
</style>
<g>
	<g>
		<path class="st0" d="M1070.5,772.8c-4.8-4.3-11.2-6.4-19.3-6.4c-5.3,0-10.4,0.9-15.2,2.8c-10.1,9.9-18.9,31-26.5,63.3
			c-0.7-1.2-3.3-9-7.7-23.4c-3.4-11-7-18.5-10.8-22.6c-4.6-8.4-12.3-12.6-22.9-12.6c-5,0-9.6,1.1-13.9,3.3H954
			c-8.7,4.5-13.1,12.7-13.1,24.7c0,0.8,0.1,1.6,0.1,2.4c-0.5-1.3-1.1-2.5-1.7-3.7c-5.5-9.9-13.2-17.9-23-23.8
			c-9.9-5.9-20.4-8.9-31.8-8.9c-9.8,0-18.9,1.9-27.4,5.8c-8.5,3.9-15,8.9-19.4,15c-9.1,12.5-15,26.2-17.7,40.9
			c-0.9,5-1.8,9.9-2.4,14.6c-0.4-6.9-0.9-13.9-1.5-21.1v0.3c-1-12.2-2-20.2-2.8-24.2c-4.1-18.5-14.5-27.8-31.1-27.8
			c-9.4,0-16.7,3.2-21.9,9.5c-4.5,5.5-6.7,12.4-6.7,20.8c0,7,1,18.1,3.1,33.2c1.2,8.6,2.7,18.5,4.4,29.8
			c-3.4-14.6-7.1-27.2-11.1-37.8c-9.6-26.4-19.4-42.3-29.3-47.6c-3.8-1.2-7.5-1.8-11.3-1.8c-7,0-13.4,2.1-19,6.2
			c-9.8,7.2-16,16.4-18.8,27.6c-0.8,3.4-1.6,7.6-2.2,12.5c-0.1-8.2-0.4-15.8-1-22.6l-0.3,0.3c-3.4-9.3-8.2-16.6-14.4-22.1
			c-6.2-5.5-12.9-8.3-20.3-8.5c-7.9-0.2-14.9,4.7-21.1,14.7c-1.9,5.1-3.5,12.6-4.9,22.4c-0.5,3.4-1.6,12.5-3.3,27.3
			c-0.7,18.2-0.9,33.2-0.8,45c-1,7.9-3.8,14.2-8.2,19c-2.4,2.1-6.4,2.7-12.1,2.1c-4.6-2.9-7.5-5.8-8.5-8.7c-0.7-3.9-1-8.5-1-13.6
			c0-5.3,1.5-17.2,4.6-35.8c3.1-18.5,4.6-30.6,4.6-36.3c0-4.6-0.3-9-0.8-13.1c-2.6-5.3-6.6-9.6-12-13c-5.4-3.3-10.8-4.8-16.3-4.2
			c-6.3,0.7-12.6,3.5-18.9,8.5c-6.3,5-10.3,10.6-12.2,17c-4.2,14.4-6.9,31.4-8.2,50.8c-2.4-10.1-5.7-21.3-9.9-33.9
			c-4.5-13-13.2-24.1-26.1-33.2c-12.9-9.1-26.3-13.6-40-13.6c-3.1,0-6,0.3-8.7,0.8c-30.5,5.7-50.5,30.9-59.9,75.6
			c-2.1,9.8-3.1,20.4-3.1,31.9c0,3.3,0.1,6.6,0.4,9.8c-1.2-2.6-2.7-5.1-4.4-7.5c-6.6-9.3-15.5-14.9-26.6-17
			c8.9-4.8,14.7-8.5,17.5-11.1c6.2-5.8,9.9-13.4,11.3-22.6c-0.5-15.8-5.4-28.8-14.7-39c-9.3-10.2-23.3-17.1-42.2-20.7
			c-3.6-0.7-8.9-1-15.9-1c-24.2,0-42.3,5.1-54.3,15.4c-2.7,5.7-4.1,37.4-4.1,95.2c0,48.7,1.3,74.7,3.9,77.9
			c10.6,10.1,28,15.2,52.2,15.2c8.2,0,16.2-0.7,23.9-2.1c17.5-6.3,29.6-12.1,36.3-17.2c12.5-9.6,19.6-23.6,21.3-42
			c3.2,11.1,8.1,21.3,14.8,30.4c15.1,20.6,36.3,30.9,63.5,30.9c14.7,0,27.7-4,39-12.1c11.2-8.1,19.1-19,23.5-32.9l-0.3-0.3h-0.3
			c1.8-5.9,3.2-11.7,4.4-17.2c0.9,5.6,2,10.5,3.4,14.9c5,15.4,13.6,27.4,26,35.8c12.9,8.9,28.8,13.4,47.8,13.4
			c6.7,0,13.5-0.5,20.6-1.5c7.5-2.2,14.8-6.9,21.7-14c6.9-7.1,12-15,15.3-23.8c7.5-20.1,12.8-41.3,15.8-63.5
			c-0.2,7.7-0.2,16.1-0.2,25c0,22.3,1.7,38.8,5.1,49.5c5.1,16,14.8,24.6,29.1,26c4.5,0.5,9.1-0.6,14-3.5c4.9-2.8,8.3-6.2,10.2-10.2
			c4.1-8.4,6.2-19.8,6.2-34.1c0-12.9-1.5-26-4.6-39.2c17.7,50.2,30.8,77.8,39.4,82.6c6.9,1.7,12.4,2.6,16.7,2.6
			c3.6,0,6.8-0.5,9.5-1.5c14.3-5.3,22.9-25.6,25.8-60.9c4.5,20.8,14.2,37.8,29.3,51.1c10.3,9.1,23.6,13.6,39.9,13.6
			c12.2,0,23.6-2.5,34.2-7.5c19-8.9,28.6-25.9,28.6-50.9c0-0.7-0.1-1.9-0.3-3.6c0-1.5,0-2.7,0-3.6v-0.3c0-11.7-4.9-18.9-14.7-21.9
			c-2.9-1.2-5.7-1.8-8.5-1.8c-3.6,0-10.2,4.3-19.9,12.9c-9.7,8.6-16.5,12.9-20.4,13.1c-3.8-1.5-5.8-4.7-6.2-9.5
			c-0.3-4.8-0.5-9.7-0.5-14.7c0-0.9,0.9-19.5,2.6-55.8l2.6-4.6c2.2-0.2,3.5,1.1,3.9,3.9c0.5,3.6,0.9,5.7,1,6.2
			c9.3,12,19.9,17.4,31.9,16.2c7.5-0.9,13.7-5.2,18.5-13.1c3.2-5.3,4.9-11,5.1-17.2c5.7,20.1,18.5,47.3,38.4,81.5
			c0.2,3.1,0.2,7.7,0,13.9c0,4.6,0,9.6,0,14.9c0,11.1,1.2,20.2,3.6,27c5.3,10.8,14.8,16.2,28.6,16.2c1.2,0,3.2-0.2,5.9-0.5
			c10.5-3.6,17.9-10.5,22.4-20.6c3.6-8.4,5.6-18.9,5.9-31.6c0.2-14.4,0.3-25.3,0.3-32.7c10.1-18.7,17.3-32.8,21.6-42.4
			c7.2-16.5,11.6-31.8,13.1-46C1084.2,788.7,1079.6,778.8,1070.5,772.8z"/>
		<path class="st1" d="M1070.5,772.8c-4.8-4.3-11.2-6.4-19.3-6.4c-5.3,0-10.4,0.9-15.2,2.8c-10.1,9.9-18.9,31-26.5,63.3
			c-0.7-1.2-3.3-9-7.7-23.4c-3.4-11-7-18.5-10.8-22.6c-4.6-8.4-12.3-12.6-22.9-12.6c-5,0-9.6,1.1-13.9,3.3H954
			c-8.7,4.5-13.1,12.7-13.1,24.7c0,0.8,0.1,1.6,0.1,2.4c-0.5-1.3-1.1-2.5-1.7-3.7c-5.5-9.9-13.2-17.9-23-23.8
			c-9.9-5.9-20.4-8.9-31.8-8.9c-9.8,0-18.9,1.9-27.4,5.8c-8.5,3.9-15,8.9-19.4,15c-9.1,12.5-15,26.2-17.7,40.9
			c-0.9,5-1.8,9.9-2.4,14.6c-0.4-6.9-0.9-13.9-1.5-21.1v0.3c-1-12.2-2-20.2-2.8-24.2c-4.1-18.5-14.5-27.8-31.1-27.8
			c-9.4,0-16.7,3.2-21.9,9.5c-4.5,5.5-6.7,12.4-6.7,20.8c0,7,1,18.1,3.1,33.2c1.2,8.6,2.7,18.5,4.4,29.8
			c-3.4-14.6-7.1-27.2-11.1-37.8c-9.6-26.4-19.4-42.3-29.3-47.6c-3.8-1.2-7.5-1.8-11.3-1.8c-7,0-13.4,2.1-19,6.2
			c-9.8,7.2-16,16.4-18.8,27.6c-0.8,3.4-1.6,7.6-2.2,12.5c-0.1-8.2-0.4-15.8-1-22.6l-0.3,0.3c-3.4-9.3-8.2-16.6-14.4-22.1
			c-6.2-5.5-12.9-8.3-20.3-8.5c-7.9-0.2-14.9,4.7-21.1,14.7c-1.9,5.1-3.5,12.6-4.9,22.4c-0.5,3.4-1.6,12.5-3.3,27.3
			c-0.7,18.2-0.9,33.2-0.8,45c-1,7.9-3.8,14.2-8.2,19c-2.4,2.1-6.4,2.7-12.1,2.1c-4.6-2.9-7.5-5.8-8.5-8.7c-0.7-3.9-1-8.5-1-13.6
			c0-5.3,1.5-17.2,4.6-35.8c3.1-18.5,4.6-30.6,4.6-36.3c0-4.6-0.3-9-0.8-13.1c-2.6-5.3-6.6-9.6-12-13c-5.4-3.3-10.8-4.8-16.3-4.2
			c-6.3,0.7-12.6,3.5-18.9,8.5c-6.3,5-10.3,10.6-12.2,17c-4.2,14.4-6.9,31.4-8.2,50.8c-2.4-10.1-5.7-21.3-9.9-33.9
			c-4.5-13-13.2-24.1-26.1-33.2c-12.9-9.1-26.3-13.6-40-13.6c-3.1,0-6,0.3-8.7,0.8c-30.5,5.7-50.5,30.9-59.9,75.6
			c-2.1,9.8-3.1,20.4-3.1,31.9c0,3.3,0.1,6.6,0.4,9.8c-1.2-2.6-2.7-5.1-4.4-7.5c-6.6-9.3-15.5-14.9-26.6-17
			c8.9-4.8,14.7-8.5,17.5-11.1c6.2-5.8,9.9-13.4,11.3-22.6c-0.5-15.8-5.4-28.8-14.7-39c-9.3-10.2-23.3-17.1-42.2-20.7
			c-3.6-0.7-8.9-1-15.9-1c-24.2,0-42.3,5.1-54.3,15.4c-2.7,5.7-4.1,37.4-4.1,95.2c0,48.7,1.3,74.7,3.9,77.9
			c10.6,10.1,28,15.2,52.2,15.2c8.2,0,16.2-0.7,23.9-2.1c17.5-6.3,29.6-12.1,36.3-17.2c12.5-9.6,19.6-23.6,21.3-42
			c3.2,11.1,8.1,21.3,14.8,30.4c15.1,20.6,36.3,30.9,63.5,30.9c14.7,0,27.7-4,39-12.1c11.2-8.1,19.1-19,23.5-32.9l-0.3-0.3h-0.3
			c1.8-5.9,3.2-11.7,4.4-17.2c0.9,5.6,2,10.5,3.4,14.9c5,15.4,13.6,27.4,26,35.8c12.9,8.9,28.8,13.4,47.8,13.4
			c6.7,0,13.5-0.5,20.6-1.5c7.5-2.2,14.8-6.9,21.7-14c6.9-7.1,12-15,15.3-23.8c7.5-20.1,12.8-41.3,15.8-63.5
			c-0.2,7.7-0.2,16.1-0.2,25c0,22.3,1.7,38.8,5.1,49.5c5.1,16,14.8,24.6,29.1,26c4.5,0.5,9.1-0.6,14-3.5c4.9-2.8,8.3-6.2,10.2-10.2
			c4.1-8.4,6.2-19.8,6.2-34.1c0-12.9-1.5-26-4.6-39.2c17.7,50.2,30.8,77.8,39.4,82.6c6.9,1.7,12.4,2.6,16.7,2.6
			c3.6,0,6.8-0.5,9.5-1.5c14.3-5.3,22.9-25.6,25.8-60.9c4.5,20.8,14.2,37.8,29.3,51.1c10.3,9.1,23.6,13.6,39.9,13.6
			c12.2,0,23.6-2.5,34.2-7.5c19-8.9,28.6-25.9,28.6-50.9c0-0.7-0.1-1.9-0.3-3.6c0-1.5,0-2.7,0-3.6v-0.3c0-11.7-4.9-18.9-14.7-21.9
			c-2.9-1.2-5.7-1.8-8.5-1.8c-3.6,0-10.2,4.3-19.9,12.9c-9.7,8.6-16.5,12.9-20.4,13.1c-3.8-1.5-5.8-4.7-6.2-9.5
			c-0.3-4.8-0.5-9.7-0.5-14.7c0-0.9,0.9-19.5,2.6-55.8l2.6-4.6c2.2-0.2,3.5,1.1,3.9,3.9c0.5,3.6,0.9,5.7,1,6.2
			c9.3,12,19.9,17.4,31.9,16.2c7.5-0.9,13.7-5.2,18.5-13.1c3.2-5.3,4.9-11,5.1-17.2c5.7,20.1,18.5,47.3,38.4,81.5
			c0.2,3.1,0.2,7.7,0,13.9c0,4.6,0,9.6,0,14.9c0,11.1,1.2,20.2,3.6,27c5.3,10.8,14.8,16.2,28.6,16.2c1.2,0,3.2-0.2,5.9-0.5
			c10.5-3.6,17.9-10.5,22.4-20.6c3.6-8.4,5.6-18.9,5.9-31.6c0.2-14.4,0.3-25.3,0.3-32.7c10.1-18.7,17.3-32.8,21.6-42.4
			c7.2-16.5,11.6-31.8,13.1-46C1084.2,788.7,1079.6,778.8,1070.5,772.8z"/>
		<path class="st2" d="M1072,772.8c-4.8-4.3-11.2-6.4-19.3-6.4c-5.3,0-10.4,0.9-15.2,2.8c-10.1,9.9-18.9,31-26.5,63.3
			c-0.7-1.2-3.3-9-7.7-23.4c-3.4-11-7-18.5-10.8-22.6c-4.6-8.4-12.3-12.6-22.9-12.6c-5,0-9.6,1.1-13.9,3.3h-0.3
			c-8.7,4.5-13.1,12.7-13.1,24.7c0,0.8,0.1,1.6,0.1,2.4c-0.5-1.3-1.1-2.5-1.7-3.7c-5.5-9.9-13.2-17.9-23-23.8
			c-9.9-5.9-20.4-8.9-31.8-8.9c-9.8,0-18.9,1.9-27.4,5.8c-8.5,3.9-15,8.9-19.4,15c-9.1,12.5-15,26.2-17.7,40.9
			c-0.9,5-1.8,9.9-2.4,14.6c-0.4-6.9-0.9-13.9-1.5-21.1v0.3c-1-12.2-2-20.2-2.8-24.2c-4.1-18.5-14.5-27.8-31.1-27.8
			c-9.4,0-16.7,3.2-21.9,9.5c-4.5,5.5-6.7,12.4-6.7,20.8c0,7,1,18.1,3.1,33.2c1.2,8.6,2.7,18.5,4.4,29.8
			c-3.4-14.6-7.1-27.2-11.1-37.8c-9.6-26.4-19.4-42.3-29.3-47.6c-3.8-1.2-7.5-1.8-11.3-1.8c-7,0-13.4,2.1-19,6.2
			c-9.8,7.2-16,16.4-18.8,27.6c-0.8,3.4-1.6,7.6-2.2,12.5c-0.1-8.2-0.4-15.8-1-22.6l-0.3,0.3c-3.4-9.3-8.2-16.6-14.4-22.1
			c-6.2-5.5-12.9-8.3-20.3-8.5c-7.9-0.2-14.9,4.7-21.1,14.7c-1.9,5.1-3.5,12.6-4.9,22.4c-0.5,3.4-1.6,12.5-3.3,27.3
			c-0.7,18.2-0.9,33.2-0.8,45c-1,7.9-3.8,14.2-8.2,19c-2.4,2.1-6.4,2.7-12.1,2.1c-4.6-2.9-7.5-5.8-8.5-8.7c-0.7-3.9-1-8.5-1-13.6
			c0-5.3,1.5-17.2,4.6-35.8c3.1-18.5,4.6-30.6,4.6-36.3c0-4.6-0.3-9-0.8-13.1c-2.6-5.3-6.6-9.6-12-13c-5.4-3.3-10.8-4.8-16.3-4.2
			c-6.3,0.7-12.6,3.5-18.9,8.5c-6.3,5-10.3,10.6-12.2,17c-4.2,14.4-6.9,31.4-8.2,50.8c-2.4-10.1-5.7-21.3-9.9-33.9
			c-4.5-13-13.2-24.1-26.1-33.2c-12.9-9.1-26.3-13.6-40-13.6c-3.1,0-6,0.3-8.7,0.8c-30.5,5.7-50.5,30.9-59.9,75.6
			c-2.1,9.8-3.1,20.4-3.1,31.9c0,3.3,0.1,6.6,0.4,9.8c-1.2-2.6-2.7-5.1-4.4-7.5c-6.6-9.3-15.5-14.9-26.6-17
			c8.9-4.8,14.7-8.5,17.5-11.1c6.2-5.8,9.9-13.4,11.3-22.6c-0.5-15.8-5.4-28.8-14.7-39c-9.3-10.2-23.3-17.1-42.2-20.7
			c-3.6-0.7-8.9-1-15.9-1c-24.2,0-42.3,5.1-54.3,15.4c-2.7,5.7-4.1,37.4-4.1,95.2c0,48.7,1.3,74.7,3.9,77.9
			c10.6,10.1,28,15.2,52.2,15.2c8.2,0,16.2-0.7,23.9-2.1c17.5-6.3,29.6-12.1,36.3-17.2c12.5-9.6,19.6-23.6,21.3-42
			c3.2,11.1,8.1,21.3,14.8,30.4c15.1,20.6,36.3,30.9,63.5,30.9c14.7,0,27.7-4,39-12.1c11.2-8.1,19.1-19,23.5-32.9L513,930h-0.3
			c1.8-5.9,3.2-11.7,4.4-17.2c0.9,5.6,2,10.5,3.4,14.9c5,15.4,13.6,27.4,26,35.8c12.9,8.9,28.8,13.4,47.8,13.4
			c6.7,0,13.5-0.5,20.6-1.5c7.5-2.2,14.8-6.9,21.7-14c6.9-7.1,12-15,15.3-23.8c7.5-20.1,12.8-41.3,15.8-63.5
			c-0.2,7.7-0.2,16.1-0.2,25c0,22.3,1.7,38.8,5.1,49.5c5.1,16,14.8,24.6,29.1,26c4.5,0.5,9.1-0.6,14-3.5c4.9-2.8,8.3-6.2,10.2-10.2
			c4.1-8.4,6.2-19.8,6.2-34.1c0-12.9-1.5-26-4.6-39.2c17.7,50.2,30.8,77.8,39.4,82.6c6.9,1.7,12.4,2.6,16.7,2.6
			c3.6,0,6.8-0.5,9.5-1.5c14.3-5.3,22.9-25.6,25.8-60.9c4.5,20.8,14.2,37.8,29.3,51.1c10.3,9.1,23.6,13.6,39.9,13.6
			c12.2,0,23.6-2.5,34.2-7.5c19-8.9,28.6-25.9,28.6-50.9c0-0.7-0.1-1.9-0.3-3.6c0-1.5,0-2.7,0-3.6v-0.3c0-11.7-4.9-18.9-14.7-21.9
			c-2.9-1.2-5.7-1.8-8.5-1.8c-3.6,0-10.2,4.3-19.9,12.9c-9.7,8.6-16.5,12.9-20.4,13.1c-3.8-1.5-5.8-4.7-6.2-9.5
			c-0.3-4.8-0.5-9.7-0.5-14.7c0-0.9,0.9-19.5,2.6-55.8l2.6-4.6c2.2-0.2,3.5,1.1,3.9,3.9c0.5,3.6,0.9,5.7,1,6.2
			c9.3,12,19.9,17.4,31.9,16.2c7.5-0.9,13.7-5.2,18.5-13.1c3.2-5.3,4.9-11,5.1-17.2c5.7,20.1,18.5,47.3,38.4,81.5
			c0.2,3.1,0.2,7.7,0,13.9c0,4.6,0,9.6,0,14.9c0,11.1,1.2,20.2,3.6,27c5.3,10.8,14.8,16.2,28.6,16.2c1.2,0,3.2-0.2,5.9-0.5
			c10.5-3.6,17.9-10.5,22.4-20.6c3.6-8.4,5.6-18.9,5.9-31.6c0.2-14.4,0.3-25.3,0.3-32.7c10.1-18.7,17.3-32.8,21.6-42.4
			c7.2-16.5,11.6-31.8,13.1-46C1085.7,788.7,1081.1,778.8,1072,772.8z M302.2,912v-0.3c-1.9,4.6-3.4,7.7-4.6,9.3
			c-2.7,3.3-6.7,5.2-11.8,5.9c-0.3-4.3-0.5-6.9-0.5-8c0-1.5,0.5-5.9,1.5-13.1c0.7-6,0.9-10.1,0.8-12.3c2.7-2.2,5.6-3.3,8.5-3.3
			c5.3,0,8,3.9,8,11.8C304,904.7,303.4,908,302.2,912z M299.9,848.7l-11.3,7.2c1-12.5,0.9-23.8-0.3-34c1-2.1,2.1-3.2,3.3-3.3
			c0.3-0.3,1.6-0.5,3.9-0.5c6.7,0,10.5,2.2,11.3,6.7l0.3-0.3c0.3,1.7,0.5,3,0.5,3.9C307.6,833,305.1,839.8,299.9,848.7z
			 M449.2,911.2v0.3c-11,1.7-16.5-7.8-16.5-28.6c0-11.1,1.5-21.3,4.6-30.6c3.1-9.3,6.5-13.4,10.3-12.3c2.2,0.3,4.3,4.9,6.2,13.8
			c1.9,8.8,2.8,18.5,2.8,28.9C456.6,900.8,454.2,910.4,449.2,911.2z"/>
		<g>
			<g>
				<path class="st3" d="M300.7,911.7v0.3c1.2-3.9,1.8-7.3,1.8-10c0-7.9-2.7-11.8-8-11.8c-2.9,0-5.7,1.1-8.5,3.3
					c0.2,2.2-0.1,6.3-0.8,12.3c-1,7.2-1.5,11.6-1.5,13.1c0,1,0.2,3.7,0.5,8c5.1-0.7,9.1-2.7,11.8-5.9
					C297.3,919.4,298.8,916.4,300.7,911.7z"/>
				<path class="st3" d="M305.6,824.5l-0.3,0.3c-0.9-4.5-4.6-6.7-11.3-6.7c-2.2,0-3.5,0.2-3.9,0.5c-1.2,0.2-2.3,1.3-3.3,3.3
					c1.2,10.1,1.3,21.4,0.3,34l11.3-7.2c5.1-8.9,7.7-15.7,7.7-20.3C306.1,827.5,305.9,826.2,305.6,824.5z"/>
				<path class="st3" d="M447.7,911.5v-0.3c5-0.9,7.5-10.4,7.5-28.6c0-10.5-0.9-20.1-2.8-28.9c-1.9-8.8-3.9-13.4-6.2-13.8
					c-3.8-1-7.2,3.1-10.3,12.3c-3.1,9.3-4.6,19.5-4.6,30.6C431.2,903.7,436.7,913.2,447.7,911.5z"/>
			</g>
		</g>
	</g>
	<g>
		<g>
			<path class="st0" d="M697.7,1024c-2.8-0.3-6.5-0.2-11,0c-5.9,0.4-12,1.2-18.2,2.5c-6.2,1.3-9.8,2.4-10.6,3.3
				c-0.7,0.7-0.7,9.9-0.1,27.6c1.2,21.3,0.3,35.1-2.7,41.4c-2.3,5.2-5.9,8-10.8,8.3c-5.8,0.4-9.8-2.3-12.2-8c-2.4-5.7-4-15.4-4.8-29
				c-0.4-6.5-0.6-12.7-0.6-18.6c0-6-0.2-11-0.4-15.2c-0.2-3.5-0.5-5.4-0.9-5.7c-1.9-1.6-10.8-1.9-26.9-0.9c-6.6,0.4-10.9,1-12.8,1.9
				c-2,1-3.2,6.2-3.8,15.6c-0.4-0.9-0.9-1.8-1.5-2.9c-4.3-7.6-10.1-13.2-17.4-16.8c-7.2-3.6-16.5-5.7-27.7-6.3
				c-11.3-0.6-26.7-0.3-46.5,1l-15.4,1l-2.4,3c-2,2.2-3,6-3.2,11.2c-0.4,4.9-0.1,15.4,0.9,31.5c1.2,19.6,1.8,37.7,1.6,54.3
				c-0.1,10,0.1,17.9,0.4,23.6c0.2,3,0.8,4.9,1.9,5.9c2.4,2,12.1,2.8,29.1,2.6l8.9,0c2.6-0.2,4.4-1.1,5.4-2.7
				c1.1-2.2,1.8-6.4,2.1-12.8l0.3-7.9c0.1-3.5,0.2-5.4,0.2-5.5l0.3-3.2l11-0.7c7.5-0.5,13.7-1.6,18.4-3.5
				c16.9-6.2,28.3-17.2,34.2-32.9l0.8,12.6c0.6,9.3,1.8,16.8,3.5,22.6c2.3,5.8,4.1,9.7,5.5,11.7c3.5,5,8.4,8.9,14.9,11.5
				c6.5,2.7,13.4,3.8,20.7,3.3c2.8-0.2,5.4-0.5,7.8-1c3.4-0.9,7.9-2.7,13.3-5.3c5.4-2.6,8.6-4.6,9.6-5.9c1.5-2,3-1.4,4.6,1.8
				c0.8,1.7,1.6,2.9,2.5,3.7c0.8,0.7,2.1,1.3,3.9,1.7c1.6,0.4,3.3,0.7,5,0.9c1.8,0.2,4.1,0.1,7.1-0.1c8.6,0.2,14.4,0.1,17.3,0
				c7.2-0.5,11.2-2,12.1-4.7c1.2-3.4,0.4-27.4-2.4-72.1c-1.5-24.3-3.3-37.7-5.4-40.4C702.4,1025,700.5,1024.2,697.7,1024z
				 M533,1080.3c-2.6,3.1-6,5.1-10.1,6l-3.6,0.8c-1.7,0.1-2.8-0.6-3.3-2.2c-0.5-2.1-0.9-5.9-1.2-11.5c-0.5-8.4-0.4-13,0.4-14
				c0.7-0.7,2-1.2,4.1-1.3c4.9-0.3,8.9,0.4,12,2.1c2,1.1,3.3,2.2,4,3.4c0.7,1.2,1.1,3.3,1.3,6.2
				C536.8,1073.8,535.6,1077.3,533,1080.3z"/>
			<path class="st0" d="M849.1,1073.3c-1.2-8.1-4.4-15.7-9.5-22.7c-2.6-3.1-6.1-6.6-10.7-10.2c-4.5-3.7-8.3-6.1-11.3-7.2
				c-8.3-3.4-17.4-4.3-27.5-2.8c-5.7,0.8-11.3,2.5-16.8,4.9l-8.8,3.4c-0.7,0.1-1.3-1.3-1.7-4.3c-0.5-3.6-2.1-5.7-4.6-6.2
				c-1.8-0.3-8.5,0.3-20.2,1.7l-7.8,1.2c-6.6,1-10.7,1.8-12.4,2.4c-1.5,0.9-2.4,2.2-2.9,3.9c-0.3,1.6,3.1,26.3,10.2,74.1
				c5.3,35.3,8.3,55.4,9.3,60.4c1.5,7.6,2.6,11.8,3.5,12.7c0.8,0.8,2.5,1.1,4.9,1.1c2.1-0.1,7.8-0.7,17-1.7l19.5-2.6l2.5-2.8l2.5-3
				l-2.8-20.8c-1.7-13.5-2.1-20.4-1.2-20.5l0.3,0c12,1.9,20.8,2.5,26.5,1.6c6.4-1,11.9-3,16.5-6c4.6-3.1,9.3-7.9,14.2-14.4
				C847.6,1102.1,851.3,1088.1,849.1,1073.3z M802.1,1090.7c-3.1,4.1-7.3,6.5-12.7,7.3c-2.6,0.4-4.9,0.4-7,0
				c-2.1-0.4-3.5-1.3-4.3-2.8c-0.7-1-1.9-4.5-3.7-10.6l-2.5-9.4l4.2-5.4c2.6-3,5-5.2,7.2-6.6c1.5-0.8,3.2-1.3,5.1-1.6
				c3.6-0.5,6.6-0.2,8.9,1.1c4.4,2.5,7.2,7.1,8.1,13.6C806.4,1081.8,805.2,1086.6,802.1,1090.7z"/>
		</g>
		<g>
			<path class="st1" d="M697.7,1024c-2.8-0.3-6.5-0.2-11,0c-5.9,0.4-12,1.2-18.2,2.5c-6.2,1.3-9.8,2.4-10.6,3.3
				c-0.7,0.7-0.7,9.9-0.1,27.6c1.2,21.3,0.3,35.1-2.7,41.4c-2.3,5.2-5.9,8-10.8,8.3c-5.8,0.4-9.8-2.3-12.2-8c-2.4-5.7-4-15.4-4.8-29
				c-0.4-6.5-0.6-12.7-0.6-18.6c0-6-0.2-11-0.4-15.2c-0.2-3.5-0.5-5.4-0.9-5.7c-1.9-1.6-10.8-1.9-26.9-0.9c-6.6,0.4-10.9,1-12.8,1.9
				c-2,1-3.2,6.2-3.8,15.6c-0.4-0.9-0.9-1.8-1.5-2.9c-4.3-7.6-10.1-13.2-17.4-16.8c-7.2-3.6-16.5-5.7-27.7-6.3
				c-11.3-0.6-26.7-0.3-46.5,1l-15.4,1l-2.4,3c-2,2.2-3,6-3.2,11.2c-0.4,4.9-0.1,15.4,0.9,31.5c1.2,19.6,1.8,37.7,1.6,54.3
				c-0.1,10,0.1,17.9,0.4,23.6c0.2,3,0.8,4.9,1.9,5.9c2.4,2,12.1,2.8,29.1,2.6l8.9,0c2.6-0.2,4.4-1.1,5.4-2.7
				c1.1-2.2,1.8-6.4,2.1-12.8l0.3-7.9c0.1-3.5,0.2-5.4,0.2-5.5l0.3-3.2l11-0.7c7.5-0.5,13.7-1.6,18.4-3.5
				c16.9-6.2,28.3-17.2,34.2-32.9l0.8,12.6c0.6,9.3,1.8,16.8,3.5,22.6c2.3,5.8,4.1,9.7,5.5,11.7c3.5,5,8.4,8.9,14.9,11.5
				c6.5,2.7,13.4,3.8,20.7,3.3c2.8-0.2,5.4-0.5,7.8-1c3.4-0.9,7.9-2.7,13.3-5.3c5.4-2.6,8.6-4.6,9.6-5.9c1.5-2,3-1.4,4.6,1.8
				c0.8,1.7,1.6,2.9,2.5,3.7c0.8,0.7,2.1,1.3,3.9,1.7c1.6,0.4,3.3,0.7,5,0.9c1.8,0.2,4.1,0.1,7.1-0.1c8.6,0.2,14.4,0.1,17.3,0
				c7.2-0.5,11.2-2,12.1-4.7c1.2-3.4,0.4-27.4-2.4-72.1c-1.5-24.3-3.3-37.7-5.4-40.4C702.4,1025,700.5,1024.2,697.7,1024z
				 M533,1080.3c-2.6,3.1-6,5.1-10.1,6l-3.6,0.8c-1.7,0.1-2.8-0.6-3.3-2.2c-0.5-2.1-0.9-5.9-1.2-11.5c-0.5-8.4-0.4-13,0.4-14
				c0.7-0.7,2-1.2,4.1-1.3c4.9-0.3,8.9,0.4,12,2.1c2,1.1,3.3,2.2,4,3.4c0.7,1.2,1.1,3.3,1.3,6.2
				C536.8,1073.8,535.6,1077.3,533,1080.3z"/>
			<path class="st1" d="M849.1,1073.3c-1.2-8.1-4.4-15.7-9.5-22.7c-2.6-3.1-6.1-6.6-10.7-10.2c-4.5-3.7-8.3-6.1-11.3-7.2
				c-8.3-3.4-17.4-4.3-27.5-2.8c-5.7,0.8-11.3,2.5-16.8,4.9l-8.8,3.4c-0.7,0.1-1.3-1.3-1.7-4.3c-0.5-3.6-2.1-5.7-4.6-6.2
				c-1.8-0.3-8.5,0.3-20.2,1.7l-7.8,1.2c-6.6,1-10.7,1.8-12.4,2.4c-1.5,0.9-2.4,2.2-2.9,3.9c-0.3,1.6,3.1,26.3,10.2,74.1
				c5.3,35.3,8.3,55.4,9.3,60.4c1.5,7.6,2.6,11.8,3.5,12.7c0.8,0.8,2.5,1.1,4.9,1.1c2.1-0.1,7.8-0.7,17-1.7l19.5-2.6l2.5-2.8l2.5-3
				l-2.8-20.8c-1.7-13.5-2.1-20.4-1.2-20.5l0.3,0c12,1.9,20.8,2.5,26.5,1.6c6.4-1,11.9-3,16.5-6c4.6-3.1,9.3-7.9,14.2-14.4
				C847.6,1102.1,851.3,1088.1,849.1,1073.3z M802.1,1090.7c-3.1,4.1-7.3,6.5-12.7,7.3c-2.6,0.4-4.9,0.4-7,0
				c-2.1-0.4-3.5-1.3-4.3-2.8c-0.7-1-1.9-4.5-3.7-10.6l-2.5-9.4l4.2-5.4c2.6-3,5-5.2,7.2-6.6c1.5-0.8,3.2-1.3,5.1-1.6
				c3.6-0.5,6.6-0.2,8.9,1.1c4.4,2.5,7.2,7.1,8.1,13.6C806.4,1081.8,805.2,1086.6,802.1,1090.7z"/>
		</g>
		<g>
			<path class="st4" d="M474.9,1022.8l15.4-1c19.7-1.2,35.2-1.6,46.5-1c11.3,0.6,20.5,2.7,27.7,6.3c7.2,3.6,13,9.2,17.4,16.8
				c2,3.7,3.2,6.4,3.7,8.1c0.5,1.6,0.8,5.2,1.2,10.6c0.5,7.7,0.2,13.4-0.8,17.1c-5.1,19.1-17.2,32.1-36.2,39.1
				c-4.8,1.9-10.9,3.1-18.4,3.5l-11,0.7l-0.3,3.2c0,0.2,0,2-0.2,5.5l-0.3,7.9c-0.3,6.3-1,10.6-2.1,12.7c-0.9,1.6-2.7,2.5-5.4,2.7
				l-8.9,0c-17,0.2-26.7-0.7-29.1-2.6c-1.1-1-1.8-3-1.9-5.9c-0.4-5.8-0.5-13.6-0.4-23.6c0.2-16.7-0.3-34.8-1.6-54.3
				c-1-16.1-1.3-26.6-0.9-31.5c0.2-5.3,1.3-9,3.2-11.2L474.9,1022.8z M520.8,1058.1c-2.1,0.1-3.5,0.6-4.1,1.3c-0.8,0.9-1,5.6-0.4,14
				c0.4,5.6,0.8,9.4,1.2,11.5c0.4,1.5,1.5,2.3,3.3,2.2l3.6-0.8c4.1-1,7.5-3,10.1-6c2.6-3.1,3.8-6.5,3.6-10.3c-0.2-3-0.6-5-1.3-6.2
				c-0.7-1.2-2-2.3-4-3.4C529.7,1058.5,525.7,1057.8,520.8,1058.1z"/>
			<path class="st4" d="M600,1029.4c16.1-1,25-0.7,26.9,0.9c0.4,0.3,0.7,2.2,0.9,5.7c0.3,4.2,0.4,9.3,0.4,15.2
				c0,6,0.2,12.2,0.6,18.6c0.9,13.6,2.5,23.3,4.8,29c2.4,5.7,6.4,8.4,12.2,8c4.9-0.3,8.5-3.1,10.8-8.3c2.9-6.3,3.8-20.1,2.7-41.4
				c-0.6-17.7-0.6-26.9,0.1-27.6c0.8-0.9,4.3-2,10.6-3.3c6.2-1.3,12.3-2.1,18.2-2.5c4.5-0.3,8.2-0.3,11,0c2.8,0.3,4.7,1.1,5.7,2.4
				c2.1,2.7,3.9,16.1,5.4,40.4c2.8,44.7,3.6,68.7,2.4,72.1c-0.9,2.7-4.9,4.3-12.1,4.7c-3,0.2-8.8,0.2-17.3,0c-3,0.2-5.3,0.2-7.1,0.1
				c-1.8-0.2-3.4-0.4-5-0.9c-1.8-0.4-3.1-1-3.9-1.7c-0.8-0.7-1.7-2-2.5-3.7c-1.6-3.2-3.1-3.8-4.6-1.8c-1,1.3-4.2,3.2-9.6,5.9
				c-5.4,2.6-9.9,4.4-13.3,5.3c-2.4,0.5-5,0.8-7.8,1c-7.3,0.5-14.2-0.6-20.7-3.3c-6.5-2.7-11.5-6.5-14.9-11.5
				c-1.4-2-3.2-5.9-5.5-11.7c-1.8-5.8-2.9-13.4-3.5-22.6l-0.8-13.4c-1.8-33.9-0.7-51.8,3.2-53.8
				C589.1,1030.5,593.3,1029.9,600,1029.4z"/>
			<path class="st4" d="M728.2,1030.1l7.8-1.2c11.6-1.5,18.3-2.1,20.2-1.8c2.6,0.5,4.1,2.5,4.7,6.2c0.5,2.9,1,4.4,1.7,4.2l8.7-3.5
				c5.5-2.5,11-4.1,16.7-5c10-1.6,19.2-0.7,27.5,2.6c3,1.1,6.8,3.5,11.3,7.1c4.6,3.6,8.1,7,10.8,10.1c5.2,7,8.4,14.5,9.7,22.6
				c2.3,14.9-1.3,28.9-10.9,42.1c-4.8,6.6-9.5,11.5-14,14.6c-4.6,3.1-10,5.2-16.4,6.2c-5.7,0.9-14.5,0.4-26.5-1.4l-0.3,0
				c-0.9,0.1-0.4,7,1.4,20.5l3,20.8l-2.4,3l-2.5,2.8l-19.5,2.8c-9.2,1.1-14.9,1.7-17,1.9c-2.5,0-4.1-0.3-5-1.1
				c-0.9-0.9-2.1-5.2-3.6-12.7c-1-5-4.2-25.1-9.8-60.3c-7.5-47.7-11.1-72.3-10.9-74c0.4-1.7,1.4-3,2.8-3.9
				C717.5,1031.9,721.6,1031.1,728.2,1030.1z M786.6,1060.2c-1.9,0.3-3.6,0.8-5.1,1.6c-2.3,1.4-4.6,3.7-7.2,6.7l-4.2,5.4l2.5,9.4
				c1.8,6.1,3.1,9.6,3.8,10.6c0.8,1.5,2.2,2.4,4.3,2.8c2.1,0.4,4.4,0.4,7,0c5.4-0.8,9.6-3.3,12.6-7.4c3.1-4.1,4.2-8.9,3.3-14.5
				c-1-6.6-3.8-11.1-8.2-13.6C793.2,1059.9,790.2,1059.6,786.6,1060.2z"/>
		</g>
	</g>
	<g>
		<g>
			<path class="st5" d="M411.9,937c-14.4-26.1-20.2-56.6-15.8-86.1c0.6-4-1-8-5.2-9.2c-3.5-1-8.6,1.2-9.2,5.2
				c-5,33.7,0.9,67.8,17.3,97.7C403.6,953.1,416.5,945.5,411.9,937L411.9,937z"/>
		</g>
	</g>
	<g>
		<g>
			<path class="st5" d="M287,944.6c-5.8,1.9-11.7,3.2-17.8,3.4c-1.5,0-4.1,0.5-5.4-0.5c-1.3-1-2-4.5-2.4-5.8
				c-3.5-11.4-4.6-23.6-2.8-35.4c0.6-4-1-8-5.2-9.2c-3.5-1-8.6,1.2-9.2,5.2c-2.4,16.4-1.7,34.1,5,49.4c7.1,16.2,28.3,11.8,41.8,7.3
				C300.1,956.1,296.2,941.6,287,944.6L287,944.6z"/>
		</g>
	</g>
	<g>
		<g>
			<path class="st5" d="M250.8,884c9.7,0,9.7-15,0-15C241.2,869,241.2,884,250.8,884L250.8,884z"/>
		</g>
	</g>
	<g>
		<g>
			<path class="st5" d="M555.4,788.5c-17.7,3.4-23.8,21.6-26,37.2c-2.7,19-4.3,38.1-4.8,57.3c-0.3,9.7,14.7,9.6,15,0
				c0.5-16,1.6-31.9,3.6-47.7c1.4-11.3,2.3-29.6,16.2-32.3C568.9,801.1,564.9,786.7,555.4,788.5L555.4,788.5z"/>
		</g>
	</g>
	<g>
		<g>
			<path class="st5" d="M536.9,923.3c5.8,0,5.8-9,0-9C531.1,914.3,531.1,923.3,536.9,923.3L536.9,923.3z"/>
		</g>
	</g>
	<g>
		<g>
			<path class="st5" d="M694.8,824c0.2-7.7,5.9-13.6,13.3-15.1c9.5-1.9,5.5-16.4-4-14.5c-13.9,2.8-23.9,15.5-24.3,29.5
				C679.6,833.6,694.6,833.6,694.8,824L694.8,824z"/>
		</g>
	</g>
	<g>
		<g>
			<path class="st5" d="M835.7,916.9c6.7,27.3,32.4,52.6,62.2,45.3c9.4-2.3,5.4-16.8-4-14.5c-21.8,5.4-39.1-15.8-43.8-34.8
				C847.8,903.6,833.4,907.5,835.7,916.9L835.7,916.9z"/>
		</g>
	</g>
	<g>
		<g>
			<path class="st5" d="M1034.3,903.3c1.2-8.4,3.4-16.7,6.8-24.4c1.6-3.7,1.1-8-2.7-10.3c-3.2-1.9-8.6-1-10.3,2.7
				c-4,9-6.9,18.2-8.3,28c-0.6,4,1,8,5.2,9.2C1028.6,909.5,1033.7,907.3,1034.3,903.3L1034.3,903.3z"/>
		</g>
	</g>
	<g>
		<g>
			<path class="st5" d="M1021.5,936.5c7.7,0,7.7-12,0-12C1013.7,924.5,1013.7,936.5,1021.5,936.5L1021.5,936.5z"/>
		</g>
	</g>
</g>
</svg>
