<?xml version="1.0" encoding="utf-8"?>
<!-- Generator: Adobe Illustrator 21.0.0, SVG Export Plug-In . SVG Version: 6.00 Build 0)  -->
<svg version="1.1" id="Capa_1" xmlns="http://www.w3.org/2000/svg" xmlns:xlink="http://www.w3.org/1999/xlink" x="0px" y="0px"
	 viewBox="0 0 1319 1952" style="enable-background:new 0 0 1319 1952;" xml:space="preserve">
<style type="text/css">
	.st0{fill:#BCF7B7;stroke:#FFF8CC;stroke-width:5;stroke-miterlimit:10;}
	.st1{fill:#643527;stroke:#FFF8CC;stroke-width:5;stroke-miterlimit:10;}
</style>
<g>
	<path class="st0" d="M853.2,110.8H465.8c-38,0-68.8,30.8-68.8,68.8v63.3c0,38,30.8,68.8,68.8,68.8h387.5c38,0,68.8-30.8,68.8-68.8
		v-63.3C922.1,141.6,891.3,110.8,853.2,110.8z"/>
	<g>
		<g>
			<path class="st1" d="M529.8,180.9c4.6,0,9.3,0.7,14,2.1c2.1,0.6,3.5,1.3,4.3,1.9c0.8,0.6,1.2,1.5,1.2,2.5c0,0.8-0.6,2.7-1.7,5.7
				c-1.1,3-2.1,5.4-3.1,7.1c-0.3,0.7-0.8,1.1-1.5,1.1c-0.4,0-1.3-0.3-2.7-0.9c-2.8-1.2-5.5-1.8-8.3-1.8h-0.6l-0.5,0.1
				c-2.1,0.3-4.1,1.2-6.2,2.7c-2,1.5-3.5,3.2-4.5,5.2c-0.8,1.7-1.2,3.6-1.2,5.7c0,3.6,1,6.5,3.1,8.7c2,2.1,5.4,3.2,10,3.2
				c2.8,0,5.4-0.5,7.7-1.6c0.9-0.5,1.9-0.8,3-0.8c0.8,0,1.4,0.2,1.8,0.6c0.6,0.6,1.4,2.2,2.6,4.8c1.2,2.5,1.8,4.2,2,5.1
				c0.1,0.1,0.1,0.5,0.1,1c0,1.2-0.6,2.2-1.7,2.9c-1.1,0.9-3.4,1.8-6.8,2.9c-4.8,1.6-8.9,2.5-12.4,2.5h-1.9c-4.3-0.2-7.7-0.9-10.4-2
				c-2.6-1.1-5.3-3.1-8-5.8c-6-5.9-9-13.6-9-23.1c0-2.4,0.1-4.1,0.4-5.2c0.7-3.6,2.3-7.2,4.7-10.6c2.4-3.4,5.4-6.3,8.9-8.7
				c3.5-2.4,7.1-4,10.9-4.8C526.1,181.1,528,180.9,529.8,180.9z"/>
			<path class="st1" d="M554.9,189c0.6-0.4,2.2-0.6,4.6-0.6c2.5,0,4.9,0.2,7.1,0.5c2.3,0.4,3.6,0.8,4,1.4c0.5,0.6,0.8,1.1,0.8,1.5
				c0,0.1,0.1,0.1,0.2,0.1c0.4,0,1.4-0.4,3-1.2c3-1.5,5.7-2.3,8.2-2.3c2.5,0,5.1,0.7,7.7,2.1c2.6,1.4,4,2.9,4,4.5
				c0,0.9-0.6,2.6-1.8,5.2c-1.2,2.6-2.3,4.6-3.2,6c-0.7,1.1-1.5,1.6-2.3,1.6c-0.3,0-1.1-0.2-2.4-0.5c-1.3-0.4-2.5-0.6-3.6-0.6
				c-2.4,0-4.4,1-5.9,2.9c-2.6,3.3-3.9,10.4-3.9,21.5v1.5c0,1.6-0.1,2.7-0.3,3.3c-0.2,0.6-0.6,1.1-1.3,1.3c-0.7,0.2-1.8,0.3-3.4,0.3
				l-1.8-0.1h-2.4c-5-0.1-7.9-0.5-8.6-1c-0.9-0.6-1.3-1.2-1.4-1.8c-0.2-0.8-0.3-3.5-0.3-8c0-6.9,0.2-14.4,0.5-22.5
				c0.3-8.1,0.7-12.6,1-13.4C553.9,189.9,554.4,189.3,554.9,189z"/>
			<path class="st1" d="M623.3,185.5h1.4c2.9,0.1,5.3,0.6,7,1.5s3.8,2.5,6.3,5c3.9,3.9,6.3,8,7.4,12.4c0.4,1.8,0.5,3.3,0.5,4.5
				c0,4.4-0.7,6.8-2.1,7.4H626c-5.7,0-8.5,0-8.5,0.1c0,0.9,0.8,1.8,2.5,2.7c1.6,1,3.6,1.7,5.8,2.2c1.2,0.2,2.3,0.3,3.3,0.3
				c1.6,0,3.8-0.4,6.5-1.3c2.1-0.6,3.4-0.9,4-0.9c0.7,0,1.3,0.2,1.7,0.6c0.5,0.7,1.3,2,2.3,4c1,1.9,1.5,3.3,1.5,4.1
				c0,1.6-1.3,3.1-4,4.6c-2.6,1.6-5.3,2.7-8.1,3.3c-2.8,0.6-6.2,1-10,1c-4.7,0-8.4-0.4-10.9-1.3c-2.6-0.9-5.3-2.7-8.3-5.6
				c-2.9-2.9-4.9-5.7-6-8.4c-1.1-2.7-1.6-5.9-1.6-9.6c0-4,0.6-7.7,1.8-10.9c1.2-3.3,3.4-6.3,6.7-9.1c3.4-3,7.8-5.1,13.1-6.3
				C619.5,185.7,621.4,185.5,623.3,185.5z M623,200.1c-1.6,0-3,0.5-4.1,1.4c-1.2,0.9-1.8,2.1-1.9,3.5l-0.1,1.3l5.3,0.3l4.4,0.2h0.5
				c0.3,0,0.5,0,0.5-0.1h0.2h0.2c0.3-0.1,0.4-0.5,0.4-1.3c0-0.9-0.2-1.8-0.6-2.7C626.9,201,625.3,200.1,623,200.1z"/>
			<path class="st1" d="M689.6,175c4.4,0,7.1,0.1,8,0.3c1,0.2,1.9,0.7,2.6,1.5l1,1.1L701,206c-0.1,17-0.3,26.5-0.8,28.5
				c-0.3,0.8-0.8,1.4-1.6,1.7l-0.4,0.2c-0.9,0.4-2.9,0.5-6,0.5h-2.4c-4.1-0.1-6.6-0.3-7.4-0.5c-1.2-0.4-2.1-1-2.6-2
				c0-0.1-0.2-0.4-0.5-0.9c-0.3-0.2-0.5-0.3-0.5-0.2l-3.1,1.3c-1.8,0.8-4.3,1.2-7.5,1.2c-2.9,0-5-0.1-6.2-0.3
				c-1.2-0.2-2.7-0.8-4.4-1.6c-5.4-2.6-8.7-6.8-9.7-12.3c-0.4-2.4-0.5-4.3-0.5-5.8c0-5,1.1-9.5,3.2-13.5c2.1-4,4.8-7.1,8.2-9.3
				c3.3-2.2,6.7-3.3,10.2-3.3c3.4,0,6.6,1,9.7,3c0.7,0.5,1.1,0.7,1.3,0.5c0.1-0.1,0.3-2.5,0.6-7.3c0.4-4.8,0.6-7.5,0.9-8.3
				c0.4-1.2,1.4-2,3-2.4C685.5,175.1,687.2,175,689.6,175z M677.7,206.7c-0.9-0.6-2-1-3.2-1c-1.1,0-2.4,0.4-3.9,1.2
				c-2.4,1.6-3.6,3.7-3.6,6.4c0,1.8,0.6,3.5,1.9,5.1c1.3,1.6,3,2.4,5.3,2.4c1,0,2.1-0.2,3.3-0.6l1.6-0.5v-12L677.7,206.7z"/>
			<path class="st1" d="M715,195.4h2.9h1.2c1,0,1.8,0.1,2.5,0.3c0.6,0.2,0.9,0.5,1.1,0.8c0.2,0.3,0.3,0.9,0.4,1.7
				c0.1,1.9,0.2,8.5,0.2,19.9c0,11.9-0.1,18.1-0.4,18.3c-0.6,0.6-2.8,0.9-6.8,0.9h-3.9l-2.9-0.1c-1.7,0-2.7,0-3-0.1
				c-0.7-0.1-1.3-0.3-1.7-0.8l-0.9-0.9l-0.1-14.5v-4.5c0-12.5,0.4-19.2,1.3-20.2c0.4-0.4,2.6-0.7,6.9-0.8
				C713.2,195.5,714.2,195.5,715,195.4z M713.5,175.6c2.4,0,4.4,0.8,6.1,2.5c1.7,1.6,2.6,3.5,2.6,5.5v1.4c-0.1,2.1-1,3.7-2.5,4.9
				c-1.5,1.2-3.5,1.8-6,1.8h-0.6c-2.5-0.1-4.5-0.9-6.1-2.2c-1.5-1.3-2.3-3-2.3-5.1c0-1.1,0.2-2.1,0.5-3c0.4-0.9,1-1.9,2-3
				C709.1,176.5,711.2,175.6,713.5,175.6z"/>
			<path class="st1" d="M741.2,175c0,0,2,0,5.9,0c4,0,6.5,0.1,7.5,0.2c1.2,0.3,1.9,0.6,2.2,0.8c0.3,0.3,0.4,0.8,0.4,1.7l-0.2,5.7
				l-0.2,3.4l-0.1,1.3l5.2,0.1c1,0,1.7,0,2.1,0.1c1.8,0,3,0.1,3.5,0.4c0.6,0.3,0.9,1,1.1,2.3c0.1,1.2,0.2,3.7,0.2,7.5v1.8
				c0,2-0.1,3.4-0.3,4.1c-0.2,0.7-0.6,1.2-1.2,1.4c-0.6,0.2-1.8,0.3-3.5,0.3H757l-0.3,2.3c-0.1,1.7-0.2,2.8-0.2,3.2
				c0,7.4,1.9,11.2,5.7,11.2c0.8,0,1.8-0.4,3.1-1.1c1.3-0.8,2.1-1.3,2.4-1.7c0.2-0.3,0.5-0.4,0.8-0.4c0.6,0,1.5,0.5,2.5,1.5
				c1.1,1.1,2.2,2.5,3.3,4.1c1,1.6,1.6,2.7,1.6,3.3c0,0.9-1,2.1-3,3.6c-2,1.6-4.3,3-6.9,4.2c-3.4,1.6-7.2,2.4-11.2,2.4
				c-2.5,0-4.7-0.4-6.5-1.3s-3.8-2.4-5.8-4.5c-2.4-2.4-4.2-5-5.3-7.8c-1.1-2.8-1.6-7-1.6-12.7v-2.5v-1.5c-0.1-0.2-0.1-0.6-0.1-1.1
				c0-0.4-0.1-0.6-0.2-0.8l-0.4-0.4c-0.1-0.2-0.6-0.3-1.5-0.3l-1.3-0.1h-1.7c-1.5-0.1-2.5-0.2-2.9-0.3c-0.4-0.1-0.8-0.4-1.2-1
				c-0.3-0.5-0.4-1.4-0.4-2.8c0-1.9,0-3.3,0.1-4c0.1-2.1,0.2-3.5,0.2-4.1c0.1-0.9,0.1-1.7,0.2-2.4c0-0.6,0.1-1.1,0.2-1.3l0.4-1.5
				l4.4-0.2c2.1-0.1,3.4-0.2,3.9-0.3c0.4-0.1,0.6-0.4,0.6-0.6c0.1-1.6,0.2-3.8,0.5-6.5c0.2-2.8,0.5-4.3,0.7-4.5
				c0.4-0.4,1.2-0.8,2.5-1C740.6,175.1,741.2,175,741.2,175z"/>
			<path class="st1" d="M797.9,186.5h1.9c2.1,0,4.4,0.3,7,0.8c2.6,0.5,5,1.1,7.1,1.8c2.1,0.6,3.4,1.1,3.8,1.3
				c0.7,0.5,1.1,1.3,1.1,2.4c0,1.1-0.3,2.8-1,5c-0.6,2.2-1.2,3.8-1.6,4.8c-0.4,0.8-0.9,1.2-1.6,1.2c-0.7,0-1.8-0.4-3.3-1.1
				c-3.1-1.3-5.7-1.9-7.6-1.9c-0.6,0-1.1,0.1-1.7,0.3c-0.6,0.2-0.9,0.5-0.9,0.9c0,0.4,0.3,0.8,0.8,1.2c0.7,0.6,3.1,1.1,7.1,1.7
				c3.3,0.4,5.9,1.2,7.8,2.3c1.9,1.1,3.5,2.8,4.7,5.2c1.1,1.9,1.6,4.2,1.6,6.9c0,3.1-0.8,6-2.4,8.9c-1.6,2.8-3.8,5.1-6.6,6.8
				c-3.1,1.8-6.9,2.7-11.6,2.7c-4.6,0-9.1-0.8-13.5-2.5c-4.4-1.7-7.9-3.9-10.5-6.6c-1.1-1.2-1.6-2.1-1.6-2.7c0-0.6,0.6-1.6,1.9-3.2
				c1.3-1.5,2.7-3,4.1-4.5c1.5-1.4,2.3-2.1,2.6-2.1c0.2,0,1.1,0.6,2.7,1.8c3.1,2.4,6.4,3.6,9.8,3.9h1.4c1.1,0,2-0.2,2.6-0.7
				c0.6-0.5,0.9-1.1,0.9-1.8c0-0.9-0.6-1.7-1.8-2.4c-1.2-0.7-3.3-1.2-6.2-1.7c-7.5-1.2-12.4-4.1-14.6-8.7c-0.7-1.4-1.1-2.9-1.1-4.6
				c0-2,0.6-4.1,1.7-6.2c1.1-2.1,2.7-4,4.7-5.5c2-1.6,4.1-2.6,6.5-3.2C793.5,186.6,795.5,186.5,797.9,186.5z"/>
		</g>
	</g>
</g>
<g>
	<path class="st0" d="M900.2,979.3H418.8c-47.2,0-85.5,38.3-85.5,85.5v78.6c0,47.2,38.3,85.5,85.5,85.5h481.4
		c47.2,0,85.5-38.3,85.5-85.5v-78.6C985.7,1017.6,947.4,979.3,900.2,979.3z"/>
	<g>
		<g>
			<path class="st1" d="M412.3,1068.4c13.6,0,27.2,0.3,40.7,0.8c5.6,0.1,8.9,0.6,9.9,1.5c0.9,0.6,1.3,1.8,1.3,3.5v2.8
				c-0.2,6.8-0.8,10.7-2,11.9l-1.3,1.3l-8.9-0.4l-9.1-0.3l0.1,19.6v9.5c0,6.9-0.3,11.3-0.8,13.1c-0.5,1.6-1.4,3.1-2.5,4.5l-1.5,1.5
				l-6.9-0.4c-6.8-0.4-10.5-1-11.3-1.7c-0.3-0.4-0.5-7.9-0.7-22.7c-0.1-14.7-0.3-22.1-0.5-22.4c-0.2-0.3-2.8-0.6-7.7-0.9
				c-5.5-0.4-9.1-0.9-10.8-1.7c-1.5-0.7-2.3-2.4-2.3-5.2l0.1-1.3v-1.3c0.2-3.8,0.6-6.5,1.1-7.9c0.6-1.5,1.7-2.6,3.4-3.3
				C403.3,1068.5,406.6,1068.4,412.3,1068.4z"/>
			<path class="st1" d="M471.7,1075.9c0.8-0.5,2.7-0.8,5.7-0.8c3.1,0,6.1,0.2,8.9,0.7c2.8,0.4,4.5,1,5,1.7c0.6,0.7,0.9,1.3,0.9,1.9
				c0,0.1,0.1,0.1,0.3,0.1c0.5,0,1.8-0.5,3.7-1.5c3.7-1.9,7.1-2.8,10.1-2.8c3.1,0,6.3,0.9,9.6,2.7c3.3,1.8,4.9,3.6,4.9,5.6
				c0,1.1-0.8,3.2-2.3,6.5c-1.5,3.2-2.8,5.7-4,7.4c-0.9,1.3-1.8,2-2.8,2c-0.4,0-1.3-0.2-2.9-0.7c-1.6-0.5-3.1-0.8-4.5-0.8
				c-3,0-5.5,1.2-7.3,3.6c-3.2,4.1-4.8,13-4.8,26.7v1.9c0,2-0.1,3.3-0.3,4.1c-0.2,0.8-0.8,1.3-1.6,1.6c-0.8,0.3-2.2,0.4-4.2,0.4
				l-2.3-0.1h-2.9c-6.2-0.2-9.8-0.6-10.7-1.2c-1.1-0.7-1.6-1.5-1.7-2.3c-0.3-1-0.4-4.3-0.4-10c0-8.6,0.2-18,0.6-28
				c0.4-10,0.8-15.6,1.3-16.7C470.4,1077,471,1076.3,471.7,1075.9z"/>
			<path class="st1" d="M528.5,1075.6c3.7-1,6.9-1.5,9.5-1.5c1.9,0,3.4,0.3,4.5,1c1.1,0.7,2.2,1.9,3.3,3.8c1.2,2.7,3.2,7.8,5.9,15.5
				c2.1,6,3.3,8.9,3.5,8.9c0.4,0,2.7-4.4,7.1-13.2c4-7.8,6.5-12.3,7.6-13.3c1.1-1.2,3.1-1.9,6-1.9c4.4,0,8.7,1,13.1,3.1
				c1.4,0.6,2.1,1.6,2.1,2.8c0,1.7-2.5,7.7-7.6,18c-7.2,14.5-15,28.5-23.5,42c-2.8,4.4-5.1,7.8-6.9,10.3c-1.9,2.5-4.1,5-6.7,7.5
				c-5.2,5.2-11.8,7.7-19.7,7.7c-2.1,0-4.7-0.3-7.8-0.9c-3.1-0.6-5.6-1.4-7.7-2.5c-2.3-1.1-3.5-2.2-3.5-3.3c0-1,0.6-2.6,1.8-4.9
				s2.6-4.5,4.1-6.5c1.5-2,2.6-3.1,3.3-3.3h0.5c0.9,0,1.8,0.2,2.8,0.5c1.2,0.4,2.5,0.7,4.1,0.7c5.1,0,9.5-3.2,13.3-9.6
				c1.2-2,1.7-3.5,1.7-4.5c0-1.7-1.8-6.6-5.5-14.7c-3.4-7.5-6.4-15-9.1-22.6c-2.7-7.6-4.1-12.3-4.1-14.2c0-1,0.4-1.7,1.1-2.3
				C522.5,1077.5,524.7,1076.6,528.5,1075.6z"/>
			<path class="st1" d="M650.7,1067.4c3.4,0,6.9,0.1,10.5,0.3c3.6,0.2,6,0.6,6.9,1c0.9,0.4,1.8,1.6,2.8,3.9
				c1.1,2.4,2.9,7.2,5.6,14.5c3.6,9.1,6.5,16.4,8.9,21.9c5.8,13.7,8.7,21.6,8.7,23.7c0,0.9-0.5,1.7-1.6,2.4c-2,1.3-6,2-12.3,2
				c-0.4,0-0.8,0-1.1-0.1h-0.9c-1.9-0.2-3.2-0.7-4.1-1.5c-0.8-0.8-1.6-2.5-2.3-4.9l-1.1-3.5l-3.1-0.3c-3.2-0.4-7.7-0.5-13.6-0.5
				c-2.9,0-4.7,0-5.3,0.1l-4.3,0.4l-1.3,3.7c-0.8,2.2-1.5,3.6-2,4.3c-0.5,0.6-1.6,1.1-3.1,1.3c-1.6,0.3-4.1,0.4-7.5,0.4
				c-3.4,0-5.7-0.2-7-0.5c-1.3-0.4-1.9-1.2-1.9-2.7c0-1.8,1.3-6.3,3.9-13.5c3.2-9.2,6.1-17.8,8.8-26c5.2-15.8,9.1-24.4,11.9-25.9
				C647.4,1067.6,648.8,1067.4,650.7,1067.4z M657.5,1090.8c-0.3,0-1.3,2.4-3.1,7.1c-1.8,4.7-2.7,7.5-2.7,8.3s2.4,1.2,7.1,1.2
				c1.6,0,2.8-0.1,3.6-0.3c0.8-0.2,1.2-0.6,1.2-1.3c0-1.4-1.2-4.8-3.6-10.3C658.4,1092.4,657.6,1090.8,657.5,1090.8z"/>
			<path class="st1" d="M718.7,1078.4c4.8,0,7.8,0.3,9.1,0.9c1.3,0.7,2.7,1.5,4,2.4l2,1.2c0.3,0.1,0.5-0.1,0.8-0.5
				c0.6-1.2,1.2-2,1.7-2.4c0.5-0.4,1.1-0.7,1.9-0.9s2.3-0.2,4.4-0.3h2.4c5.9,0,9.8,0.6,11.9,1.7c1.2,0.7,2,2.4,2.3,4.9
				c0.3,2.5,0.4,9.7,0.4,21.7c0,13.9-0.2,23.2-0.7,27.9c-0.5,4.3-2,8.8-4.4,13.6c-4.4,9.2-11.2,14.7-20.1,16.7
				c-2.8,0.6-6.8,0.9-11.7,0.9c-4.4,0-7.9-0.3-10.5-0.9c-2.5-0.6-5.2-1.6-8.1-3c-2.4-1.2-4.1-2.3-5.2-3.3c-0.9-0.9-1.3-1.8-1.3-2.7
				c0-0.6,0-1,0.1-1.2c0.3-1.8,1.4-4.5,3.3-8.1c1.9-3.6,3.2-5.4,3.9-5.4c0.6,0,2.4,0.6,5.2,1.7c3.9,1.7,7.5,2.5,10.7,2.5
				s5.8-1.1,7.8-3.3c2-2.2,3.4-5.3,4.1-9.3l0.3-1.9l-2.4,1.2c-4.2,2-8.8,2.9-13.7,2.9c-10.5,0-18-5-22.4-15.1
				c-2.2-4.8-3.3-10-3.3-15.6c0-9.6,3.3-16.8,10-21.5c3-2.1,6.6-3.7,10.7-4.7C713,1078.6,715.3,1078.4,718.7,1078.4z M729.5,1099.9
				c-3.5,0-6.2,0.8-8.1,2.5c-1.9,1.6-2.9,3.8-2.9,6.3c0,1.2,0.3,2.2,0.8,3.2c1.6,3.2,4.3,4.8,8.1,4.8c1.5,0,3-0.3,4.4-0.8l1.3-0.4
				v-5.2c0-6-0.5-9.3-1.5-10C731.2,1100,730.5,1099.9,729.5,1099.9z"/>
			<path class="st1" d="M809.1,1076.8c5,0,8.8,0.3,11.6,0.9c2,0.4,3.4,1.2,4.3,2.1c0.9,1,1.6,2.5,2.1,4.5c0.3,1.2,0.4,5.1,0.4,11.9
				c0,15.2-0.3,25.6-0.9,31.1c-0.3,2.9-0.7,4.9-1.2,6c-0.5,1.1-1.6,1.8-3.1,2.1c-1.6,0.4-4.5,0.6-8.9,0.8c-1.2,0.1-3.1,0.1-5.7,0.1
				c-2,0-3.2-0.2-3.9-0.6c-0.6-0.4-1.2-1.3-1.9-2.7c-0.6-1.4-1.1-2.1-1.5-2.1c-0.4,0-1.7,0.6-4.1,1.7c-3.7,1.8-7.3,2.7-10.7,2.7
				c-3.6,0-7.3-1.3-11.2-4c-3.9-2.7-7.2-6.1-9.8-10.4c-2.6-4.3-3.9-8.6-3.9-13.1c0-2,0.2-3.5,0.5-4.7l0.4-2l0.3-1.5
				c0.3-2,1.8-5.2,4.7-9.6c4.4-6.8,9.9-10.9,16.7-12.5c1.3-0.3,2.7-0.4,4.1-0.4c5,0,9.1,1.2,12.4,3.7c0.9,0.6,1.6,0.9,2,0.9
				c0.4,0,0.7-0.3,0.7-0.9c0-0.4,0.4-1.1,1.1-2.1c0.8-0.9,1.4-1.5,2.1-1.8C806,1076.9,807.1,1076.8,809.1,1076.8z M794.9,1096.8
				c-2.1,0-4,0.6-5.7,1.9c-1.7,1.2-2.8,2.9-3.5,5.1c-0.3,0.8-0.4,1.6-0.4,2.5c0,2.3,0.9,4.2,2.8,5.5c1.9,1.4,4.4,2.1,7.6,2.1
				c1.7,0,2.8-0.1,3.4-0.3c0.6-0.2,1-0.6,1.1-1.2c0.2-0.6,0.4-2,0.7-4c0.4-2.4,0.5-4.8,0.5-7.1c0-1.3-0.1-2.2-0.3-2.5
				c-0.2-0.3-0.8-0.7-1.9-1.1C798.1,1097.1,796.6,1096.8,794.9,1096.8z"/>
			<path class="st1" d="M843.7,1083.9h3.6h1.5c1.2,0,2.3,0.1,3.1,0.4c0.7,0.3,1.2,0.6,1.4,0.9c0.2,0.4,0.4,1.1,0.5,2.1
				c0.2,2.3,0.3,10.5,0.3,24.7c0,14.8-0.2,22.4-0.5,22.8c-0.7,0.7-3.5,1.1-8.4,1.1h-4.8l-3.6-0.1c-2.1,0-3.4,0-3.7-0.1
				c-0.9-0.1-1.6-0.4-2.1-0.9l-1.1-1.1l-0.1-18v-5.6c0-15.6,0.5-23.9,1.6-25.1c0.4-0.5,3.3-0.8,8.5-0.9
				C841.4,1084,842.8,1084,843.7,1083.9z M841.9,1059.2c2.9,0,5.5,1,7.6,3.1c2.1,2,3.2,4.3,3.2,6.8v1.7c-0.2,2.6-1.2,4.6-3.1,6.1
				c-1.9,1.5-4.4,2.2-7.5,2.2h-0.8c-3.1-0.2-5.6-1.1-7.5-2.7c-1.9-1.6-2.9-3.8-2.9-6.3c0-1.3,0.2-2.6,0.7-3.7
				c0.4-1.1,1.3-2.3,2.5-3.7C836.4,1060.4,838.9,1059.2,841.9,1059.2z"/>
			<path class="st1" d="M901.5,1074.4c6.1,0,10.9,1.7,14.4,5.1c3.5,3.4,6,7.6,7.5,12.8c0.7,2.4,1.1,9.5,1.2,21.3v8.4
				c0,6.1-0.3,9.5-0.8,10c-0.4,0.5-1.1,0.8-2.1,0.9c-1.1,0.2-4.3,0.3-9.6,0.4l-10.9,0.3l-0.5-1.2c-0.1-0.4-0.4-4.7-0.8-12.9
				c-0.1-6.7-0.4-11.8-0.9-15.3c-0.5-2.6-1.6-4.7-3.1-6.4c-0.8-0.8-1.9-1.2-3.2-1.2c-6.5,0-9.7,6.1-9.7,18.3c0,3.5,0,5.8,0.1,7.1
				c0.1,1.7,0.1,4.4,0.1,8.1c0,2.3-0.1,3.6-0.4,3.9s-2.8,0.5-7.5,0.7c-4.8,0.2-8.9,0.3-12.5,0.3c-1.4,0-2.4-0.1-2.9-0.3
				c-0.5-0.2-0.8-0.6-1-1.2c-0.2-0.6-0.3-1.7-0.4-3.3c-0.1-1.1-0.1-5.1-0.1-12.1l-0.1-12v-13.2l-0.1-9.6c0-2.5,0.2-4.2,0.5-5.3
				c0.3-1,1-1.7,1.9-2c1-0.3,2.6-0.5,4.9-0.5h6.7c4.9,0,7.9,0.2,8.9,0.7c0.9,0.4,1.3,1.8,1.3,4.3c0,2.1,0.1,3.2,0.4,3.2
				s1.3-0.8,3.1-2.5c3.1-2.8,6.4-4.8,9.7-5.7C897.4,1074.7,899.4,1074.4,901.5,1074.4z"/>
		</g>
	</g>
</g>
<g>
	<path class="st0" d="M900.2,1254.9H418.8c-47.2,0-85.5,38.3-85.5,85.5v78.6c0,47.2,38.3,85.5,85.5,85.5h481.4
		c47.2,0,85.5-38.3,85.5-85.5v-78.6C985.7,1293.1,947.4,1254.9,900.2,1254.9z"/>
	<g>
		<g>
			<path class="st1" d="M531.5,1344.3c5.3,0,8.5,0.2,9.6,0.7c1.5,0.6,7,7,16.5,19.1c2.8,3.6,4.3,5.3,4.5,5.3c0.4,0,1.9-1.9,4.7-5.7
				c8.7-11.6,13.6-17.7,14.8-18.1c1.3-0.4,3.6-0.7,6.9-0.7c2.6,0,5.1,0.1,7.5,0.4l0.8,0.1c2.4,0.3,3.8,0.8,4.1,1.7
				c0.7,1.2,1.1,5.6,1.2,13.1v2c0.1,2.1,0.1,7.8,0.1,17.1c0,16.2-0.2,26-0.7,29.3c-0.4,2.1-1.1,3.4-2,3.7c-1,0.6-3.5,1-7.5,1.1h-1.9
				l-1.9,0.1c-5,0-8.2-0.5-9.7-1.6l-1.2-0.8l0.1-14c0-2,0-3.7,0.1-4.9v-3.7c0-3.5-0.2-5.2-0.5-5.2c-0.4,0-2.5,3-6.5,9.1
				c-3.6,5.7-5.9,8.8-6.8,9.3c-0.6,0.4-1.5,0.7-2.7,0.7c-1.5,0-2.6-0.3-3.3-0.9c-0.7-0.6-1.8-2.2-3.3-5c-1.1-2-2.6-4.5-4.6-7.4
				c-2-2.9-3.2-4.3-3.5-4.3c-0.2,0-0.4,4.4-0.5,13.2l-0.1,13.2l-1.6,1.2c-0.9,0.8-1.8,1.2-2.7,1.2l-2.8-0.3
				c-0.6-0.1-2.5-0.2-5.6-0.4c-3.9-0.2-6.8-0.4-8.7-0.5c-0.5-0.1-1.4-0.2-2.6-0.2c-1.2,0-1.9-0.4-2.1-1.1c-0.2-0.7-0.3-2-0.3-4v1.3
				l0.3-13.9c0.1-9.8,0.2-20,0.4-30.5c0.2-10.6,0.4-16.2,0.5-16.8c0.4-1.1,1-1.8,1.6-2.1C523,1344.5,526.1,1344.3,531.5,1344.3z"/>
			<path class="st1" d="M638.8,1347.8h1.7c3.6,0.2,6.5,0.8,8.7,1.9c2.1,1.1,4.8,3.2,7.9,6.3c4.8,4.8,7.9,10,9.2,15.5
				c0.4,2.2,0.7,4.1,0.7,5.6c0,5.4-0.9,8.5-2.7,9.2h-22.1c-7,0-10.5,0-10.5,0.1c0,1.1,1,2.2,3.1,3.4c2,1.2,4.4,2.1,7.2,2.7
				c1.5,0.3,2.9,0.4,4.1,0.4c2,0,4.8-0.5,8.1-1.6c2.6-0.7,4.2-1.1,4.9-1.1c0.9,0,1.6,0.3,2.1,0.8c0.6,0.9,1.6,2.5,2.8,4.9
				c1.2,2.4,1.9,4.1,1.9,5.1c0,2-1.6,3.9-4.9,5.7c-3.2,2-6.6,3.3-10.1,4.1c-3.5,0.8-7.7,1.2-12.5,1.2c-5.9,0-10.4-0.5-13.6-1.6
				s-6.6-3.4-10.3-6.9c-3.6-3.6-6.1-7-7.5-10.4c-1.3-3.4-2-7.3-2-11.9c0-5,0.7-9.5,2.2-13.6c1.5-4.1,4.2-7.9,8.3-11.3
				c4.3-3.7,9.7-6.4,16.3-7.9C634.1,1348,636.4,1347.8,638.8,1347.8z M638.4,1365.9c-2,0-3.7,0.6-5.1,1.7c-1.5,1.2-2.2,2.6-2.3,4.4
				l-0.1,1.6l6.5,0.4l5.5,0.3h0.7c0.4,0,0.6,0,0.7-0.1h0.3h0.3c0.4-0.1,0.5-0.6,0.5-1.6c0-1.2-0.3-2.3-0.8-3.3
				C643.3,1367,641.3,1365.9,638.4,1365.9z"/>
			<path class="st1" d="M712.8,1350.6c6.1,0,10.9,1.7,14.4,5.1c3.5,3.4,6,7.6,7.5,12.8c0.7,2.4,1.1,9.5,1.2,21.3v8.4
				c0,6.1-0.3,9.5-0.8,10c-0.4,0.5-1.1,0.8-2.1,0.9c-1.1,0.2-4.3,0.3-9.6,0.4l-10.9,0.3l-0.5-1.2c-0.1-0.4-0.4-4.7-0.8-12.9
				c-0.1-6.7-0.4-11.8-0.9-15.3c-0.5-2.6-1.6-4.7-3.1-6.4c-0.8-0.8-1.9-1.2-3.2-1.2c-6.5,0-9.7,6.1-9.7,18.3c0,3.5,0,5.8,0.1,7.1
				c0.1,1.7,0.1,4.4,0.1,8.1c0,2.3-0.1,3.6-0.4,3.9s-2.8,0.5-7.5,0.7c-4.8,0.2-8.9,0.3-12.5,0.3c-1.4,0-2.4-0.1-2.9-0.3
				c-0.5-0.2-0.8-0.6-1-1.2c-0.2-0.6-0.3-1.7-0.4-3.3c-0.1-1.1-0.1-5.1-0.1-12.1l-0.1-12v-13.2l-0.1-9.6c0-2.5,0.2-4.2,0.5-5.3
				c0.3-1,1-1.7,1.9-2c1-0.3,2.6-0.5,4.9-0.5h6.7c4.9,0,7.9,0.2,8.9,0.7c0.9,0.4,1.3,1.8,1.3,4.3c0,2.1,0.1,3.2,0.4,3.2
				s1.3-0.8,3.1-2.5c3.1-2.8,6.4-4.8,9.7-5.7C708.8,1350.8,710.8,1350.6,712.8,1350.6z"/>
			<path class="st1" d="M748.7,1351.4c8.2,0,12.7,0.4,13.6,1.3c0.2,0.2,0.3,1.2,0.3,2.9c0,2.1-0.1,4.7-0.3,7.7
				c-0.2,3-0.3,6.2-0.3,9.5c0,6.9,0.5,11.9,1.5,14.9c1,3,3,4.5,5.9,4.5c2.5,0,4.4-1.3,5.7-3.9c1.7-3.1,2.6-10.1,2.7-20.9
				c0.3-9,0.6-13.6,0.9-14c0.4-0.4,2.3-0.9,5.5-1.3c3.2-0.4,6.3-0.7,9.3-0.7c2.3,0,4.2,0.1,5.6,0.3c1.4,0.2,2.4,0.7,2.8,1.4
				c1,1.4,1.5,8.3,1.5,20.7c0,22.8-0.4,35-1.1,36.7c-0.5,1.3-2.6,2-6.3,2c-1.5,0-4.4-0.2-8.8-0.5c-1.5,0-2.7-0.1-3.6-0.2
				c-0.9-0.1-1.7-0.3-2.5-0.6c-0.9-0.3-1.5-0.6-1.9-1s-0.8-1-1.1-1.9c-0.7-1.7-1.5-2-2.3-1.1c-0.5,0.6-2.2,1.5-5.1,2.7
				c-2.8,1.2-5.2,1.9-6.9,2.3c-1.2,0.2-2.6,0.3-4,0.3c-3.7,0-7.2-0.8-10.4-2.3c-3.2-1.6-5.6-3.7-7.2-6.3c-0.6-1.1-1.4-3.1-2.4-6.1
				c-0.7-3-1.1-6.9-1.1-11.6v-6.8c0.2-17.2,1.3-26.3,3.3-27.2C743.1,1351.5,745.3,1351.4,748.7,1351.4z"/>
		</g>
	</g>
</g>
<g>
	<path class="st0" d="M900.2,1583.6H418.8c-47.2,0-85.5,38.3-85.5,85.5v78.6c0,47.2,38.3,85.5,85.5,85.5h481.4
		c47.2,0,85.5-38.3,85.5-85.5v-78.6C985.7,1621.9,947.4,1583.6,900.2,1583.6z"/>
	<g>
		<g>
			<path class="st1" d="M453.6,1670.2c5.8,0,11.6,0.9,17.3,2.7c2.6,0.8,4.4,1.6,5.3,2.4c1,0.8,1.5,1.8,1.5,3.1c0,1-0.7,3.4-2.1,7.1
				c-1.4,3.8-2.6,6.7-3.8,8.9c-0.4,0.9-1,1.3-1.9,1.3c-0.5,0-1.6-0.4-3.3-1.1c-3.5-1.5-6.9-2.3-10.3-2.3h-0.8l-0.7,0.1
				c-2.6,0.4-5.1,1.5-7.7,3.3c-2.5,1.9-4.4,4-5.5,6.4c-1,2.1-1.5,4.5-1.5,7.1c0,4.5,1.3,8.1,3.8,10.8c2.5,2.7,6.7,4,12.5,4
				c3.5,0,6.7-0.7,9.6-2c1.2-0.6,2.4-0.9,3.7-0.9c1,0,1.7,0.3,2.3,0.8c0.7,0.8,1.8,2.8,3.3,5.9c1.5,3.2,2.3,5.3,2.5,6.3
				c0.1,0.2,0.1,0.6,0.1,1.2c0,1.5-0.7,2.7-2.1,3.6c-1.4,1.1-4.2,2.3-8.4,3.6c-6,2-11.1,3.1-15.5,3.1h-2.4
				c-5.3-0.3-9.6-1.1-12.9-2.5c-3.2-1.4-6.6-3.8-9.9-7.3c-7.5-7.4-11.2-16.9-11.2-28.7c0-2.9,0.2-5.1,0.5-6.4
				c0.9-4.5,2.8-8.9,5.9-13.1c3-4.2,6.7-7.8,11-10.9c4.3-3,8.8-5,13.5-6C449,1670.4,451.4,1670.2,453.6,1670.2z"/>
			<path class="st1" d="M511.1,1678.6c3,0,6,0.2,8.8,0.7c6.7,1.2,12.4,3.9,17.1,7.9c4.7,4,7.6,8.7,8.7,14c0.3,1.2,0.4,2.7,0.4,4.5
				c0,5.4-0.8,10.2-2.5,14.3c-1.6,4.1-4.3,8-8.1,11.7c-3.5,3.4-7,5.7-10.7,7c-3.6,1.3-7.4,1.9-11.3,1.9c-6.8,0-13.1-1.6-18.7-4.9
				c-5.6-3.3-10-7.4-13.1-12.3c-3.2-4.9-4.7-9.6-4.7-14c0-1.4,0.2-3.6,0.7-6.4c2.9-14.3,11.1-22.3,24.5-23.9
				C505.3,1678.8,508.3,1678.6,511.1,1678.6z M512.1,1699.8c-1.2,0-2.3,0.3-3.2,0.9c-3.2,2-4.8,4.8-4.8,8.4c0,1.3,0.4,2.8,1.1,4.5
				c1.6,3.3,4.1,4.9,7.6,4.9c1.9,0,3.5-0.6,4.8-1.8c1.3-1.2,2.1-2.7,2.4-4.6c0.1-0.3,0.1-0.8,0.1-1.6c0-2.1-0.5-4.2-1.5-6.1
				c-1-2-2.2-3.3-3.6-4C514,1700,513,1699.8,512.1,1699.8z"/>
			<path class="st1" d="M592,1678.7c6.1,0,10.9,1.7,14.4,5.1c3.5,3.4,6,7.6,7.5,12.8c0.7,2.4,1.1,9.5,1.2,21.3v8.4
				c0,6.1-0.3,9.5-0.8,10c-0.4,0.5-1.1,0.8-2.1,0.9c-1.1,0.2-4.3,0.3-9.6,0.4l-10.9,0.3l-0.5-1.2c-0.1-0.4-0.4-4.7-0.8-12.9
				c-0.1-6.7-0.4-11.8-0.9-15.3c-0.5-2.6-1.6-4.7-3.1-6.4c-0.8-0.8-1.9-1.2-3.2-1.2c-6.5,0-9.7,6.1-9.7,18.3c0,3.5,0,5.8,0.1,7.1
				c0.1,1.7,0.1,4.4,0.1,8.1c0,2.3-0.1,3.6-0.4,3.9c-0.3,0.3-2.8,0.5-7.5,0.7c-4.8,0.2-8.9,0.3-12.5,0.3c-1.4,0-2.4-0.1-2.9-0.3
				c-0.5-0.2-0.8-0.6-1-1.2c-0.2-0.6-0.3-1.7-0.4-3.3c-0.1-1.1-0.1-5.1-0.1-12.1l-0.1-12V1697l-0.1-9.6c0-2.5,0.2-4.2,0.5-5.3
				c0.3-1,1-1.7,1.9-2c1-0.3,2.6-0.5,4.9-0.5h6.7c4.9,0,7.9,0.2,8.9,0.7c0.9,0.4,1.3,1.8,1.3,4.3c0,2.1,0.1,3.2,0.4,3.2
				c0.3,0,1.3-0.8,3.1-2.5c3.1-2.8,6.4-4.8,9.7-5.7C587.9,1679,589.9,1678.7,592,1678.7z"/>
			<path class="st1" d="M636.1,1662.8c0,0,2.4,0,7.3,0c5,0,8.1,0.1,9.3,0.3c1.5,0.4,2.4,0.7,2.7,1c0.3,0.3,0.5,1,0.5,2.1l-0.3,7.1
				l-0.3,4.3l-0.1,1.6l6.4,0.1c1.2,0,2.1,0,2.7,0.1c2.2,0,3.7,0.2,4.4,0.5c0.7,0.4,1.2,1.3,1.3,2.8c0.2,1.5,0.3,4.6,0.3,9.3v2.3
				c0,2.5-0.1,4.2-0.3,5.1c-0.2,0.9-0.7,1.5-1.5,1.7c-0.8,0.3-2.2,0.4-4.3,0.4h-8.5l-0.4,2.8c-0.2,2.1-0.3,3.5-0.3,4
				c0,9.2,2.4,13.9,7.1,13.9c1,0,2.3-0.5,3.9-1.4c1.6-0.9,2.6-1.6,2.9-2.1c0.3-0.4,0.6-0.5,0.9-0.5c0.8,0,1.8,0.6,3.1,1.9
				c1.4,1.4,2.8,3.1,4.1,5.1c1.3,2,1.9,3.4,1.9,4.1c0,1.1-1.2,2.6-3.7,4.5c-2.4,2-5.3,3.7-8.6,5.2c-4.3,2-8.9,2.9-13.9,2.9
				c-3.1,0-5.8-0.5-8.1-1.6s-4.7-2.9-7.3-5.6c-3-3-5.2-6.3-6.5-9.7c-1.3-3.5-2-8.7-2-15.7v-3.1v-1.9c-0.1-0.3-0.1-0.7-0.1-1.3
				c0-0.4-0.1-0.8-0.3-0.9l-0.5-0.5c-0.1-0.3-0.7-0.4-1.9-0.4l-1.6-0.1h-2.1c-1.9-0.2-3.1-0.3-3.6-0.4c-0.5-0.1-1-0.5-1.5-1.2
				c-0.4-0.6-0.5-1.8-0.5-3.5c0-2.4,0-4,0.1-4.9c0.2-2.7,0.3-4.4,0.3-5.1c0.1-1.2,0.2-2.1,0.2-2.9c0-0.8,0.1-1.3,0.2-1.6l0.5-1.9
				l5.5-0.3c2.7-0.1,4.3-0.2,4.8-0.4c0.4-0.2,0.7-0.4,0.8-0.8c0.1-2,0.3-4.7,0.6-8.1c0.3-3.5,0.6-5.3,0.9-5.6
				c0.4-0.5,1.5-0.9,3.1-1.2C635.3,1662.9,636.1,1662.8,636.1,1662.8z"/>
			<path class="st1" d="M695.2,1688.2h3.6h1.5c1.2,0,2.3,0.1,3.1,0.4c0.7,0.3,1.2,0.6,1.4,0.9c0.2,0.4,0.4,1.1,0.5,2.1
				c0.2,2.3,0.3,10.5,0.3,24.7c0,14.8-0.2,22.4-0.5,22.8c-0.7,0.7-3.5,1.1-8.4,1.1h-4.8l-3.6-0.1c-2.1,0-3.4,0-3.7-0.1
				c-0.9-0.1-1.6-0.4-2.1-0.9l-1.1-1.1l-0.1-18v-5.6c0-15.6,0.5-23.9,1.6-25.1c0.4-0.5,3.3-0.8,8.5-0.9
				C692.8,1688.3,694.2,1688.3,695.2,1688.2z M693.3,1663.5c2.9,0,5.5,1,7.6,3.1c2.1,2,3.2,4.3,3.2,6.8v1.7
				c-0.2,2.6-1.2,4.6-3.1,6.1c-1.9,1.5-4.4,2.2-7.5,2.2h-0.8c-3.1-0.2-5.6-1.1-7.5-2.7c-1.9-1.6-2.9-3.8-2.9-6.3
				c0-1.3,0.2-2.6,0.7-3.7c0.4-1.1,1.3-2.3,2.5-3.7C687.8,1664.7,690.4,1663.5,693.3,1663.5z"/>
			<path class="st1" d="M752.9,1678.7c6.1,0,10.9,1.7,14.4,5.1c3.5,3.4,6,7.6,7.5,12.8c0.7,2.4,1.1,9.5,1.2,21.3v8.4
				c0,6.1-0.3,9.5-0.8,10c-0.4,0.5-1.1,0.8-2.1,0.9c-1.1,0.2-4.3,0.3-9.6,0.4l-10.9,0.3l-0.5-1.2c-0.1-0.4-0.4-4.7-0.8-12.9
				c-0.1-6.7-0.4-11.8-0.9-15.3c-0.5-2.6-1.6-4.7-3.1-6.4c-0.8-0.8-1.9-1.2-3.2-1.2c-6.5,0-9.7,6.1-9.7,18.3c0,3.5,0,5.8,0.1,7.1
				c0.1,1.7,0.1,4.4,0.1,8.1c0,2.3-0.1,3.6-0.4,3.9c-0.3,0.3-2.8,0.5-7.5,0.7c-4.8,0.2-8.9,0.3-12.5,0.3c-1.4,0-2.4-0.1-2.9-0.3
				c-0.5-0.2-0.8-0.6-1-1.2c-0.2-0.6-0.3-1.7-0.4-3.3c-0.1-1.1-0.1-5.1-0.1-12.1l-0.1-12V1697l-0.1-9.6c0-2.5,0.2-4.2,0.5-5.3
				c0.3-1,1-1.7,1.9-2c1-0.3,2.6-0.5,4.9-0.5h6.7c4.9,0,7.9,0.2,8.9,0.7c0.9,0.4,1.3,1.8,1.3,4.3c0,2.1,0.1,3.2,0.4,3.2
				c0.3,0,1.3-0.8,3.1-2.5c3.1-2.8,6.4-4.8,9.7-5.7C748.8,1679,750.8,1678.7,752.9,1678.7z"/>
			<path class="st1" d="M788.7,1679.5c8.2,0,12.7,0.4,13.6,1.3c0.2,0.2,0.3,1.2,0.3,2.9c0,2.1-0.1,4.7-0.3,7.7
				c-0.2,3-0.3,6.2-0.3,9.5c0,6.9,0.5,11.9,1.5,14.9c1,3,3,4.5,5.9,4.5c2.5,0,4.4-1.3,5.7-3.9c1.7-3.1,2.6-10.1,2.7-20.9
				c0.3-9,0.6-13.6,0.9-14c0.4-0.4,2.3-0.9,5.5-1.3c3.2-0.4,6.3-0.7,9.3-0.7c2.3,0,4.2,0.1,5.6,0.3c1.4,0.2,2.4,0.7,2.8,1.4
				c1,1.4,1.5,8.3,1.5,20.7c0,22.8-0.4,35-1.1,36.7c-0.5,1.3-2.6,2-6.3,2c-1.5,0-4.4-0.2-8.8-0.5c-1.5,0-2.7-0.1-3.6-0.2
				c-0.9-0.1-1.7-0.3-2.5-0.6c-0.9-0.3-1.5-0.6-1.9-1c-0.4-0.4-0.8-1-1.1-1.9c-0.7-1.7-1.5-2-2.3-1.1c-0.5,0.6-2.2,1.5-5.1,2.7
				c-2.8,1.2-5.2,1.9-6.9,2.3c-1.2,0.2-2.6,0.3-4,0.3c-3.7,0-7.2-0.8-10.4-2.3c-3.2-1.6-5.6-3.7-7.2-6.3c-0.6-1.1-1.4-3.1-2.4-6.1
				c-0.7-3-1.1-6.9-1.1-11.6v-6.8c0.2-17.2,1.3-26.3,3.3-27.2C783.2,1679.7,785.4,1679.5,788.7,1679.5z"/>
			<path class="st1" d="M879.3,1675.9h1.7c3.6,0.2,6.5,0.8,8.7,1.9s4.8,3.2,7.9,6.3c4.8,4.8,7.9,10,9.2,15.5
				c0.4,2.2,0.7,4.1,0.7,5.6c0,5.4-0.9,8.5-2.7,9.2h-22.1c-7,0-10.5,0-10.5,0.1c0,1.1,1,2.2,3.1,3.4c2,1.2,4.4,2.1,7.2,2.7
				c1.5,0.3,2.9,0.4,4.1,0.4c2,0,4.8-0.5,8.1-1.6c2.6-0.7,4.2-1.1,4.9-1.1c0.9,0,1.6,0.3,2.1,0.8c0.6,0.9,1.6,2.5,2.8,4.9
				c1.2,2.4,1.9,4.1,1.9,5.1c0,2-1.6,3.9-4.9,5.7c-3.2,2-6.6,3.3-10.1,4.1c-3.5,0.8-7.7,1.2-12.5,1.2c-5.9,0-10.4-0.5-13.6-1.6
				c-3.2-1.1-6.6-3.4-10.3-6.9c-3.6-3.6-6.1-7-7.5-10.4c-1.3-3.4-2-7.3-2-11.9c0-5,0.7-9.5,2.2-13.6c1.5-4.1,4.2-7.9,8.3-11.3
				c4.3-3.7,9.7-6.4,16.3-7.9C874.6,1676.1,876.9,1675.9,879.3,1675.9z M878.9,1694c-2,0-3.7,0.6-5.1,1.7c-1.5,1.2-2.2,2.6-2.3,4.4
				l-0.1,1.6l6.5,0.4l5.5,0.3h0.7c0.4,0,0.6,0,0.7-0.1h0.3h0.3c0.4-0.1,0.5-0.6,0.5-1.6c0-1.2-0.3-2.3-0.8-3.3
				C883.7,1695.2,881.7,1694,878.9,1694z"/>
		</g>
	</g>
</g>
<g>
	<path class="st0" d="M900.2,374.9H418.8c-47.2,0-85.5,38.3-85.5,85.5V539c0,47.2,38.3,85.5,85.5,85.5h481.4
		c47.2,0,85.5-38.3,85.5-85.5v-78.6C985.7,413.2,947.4,374.9,900.2,374.9z"/>
	<g>
		<g>
			<path class="st1" d="M399.6,462.5h3.1c3.2,0.1,5.5,0.2,7,0.5c1.5,0.2,2.6,0.7,3.5,1.4c0.9,0.7,2,2,3.3,3.7l16.8,22.4
				c0.4,0.5,0.6,0.7,0.8,0.5c0.2-0.2,0.4-3,0.8-8.5c0.1-0.7,0.1-1.7,0.1-3.1c0.4-5.9,0.8-9.8,1.2-11.9c0.4-2.1,1.1-3.5,2.1-4.2
				c1.1-0.7,2.9-1.1,5.6-1.1l6.5,0.1c3.7,0,6.1,0.2,7.2,0.5c1.2,0.4,1.9,1.2,2.1,2.5c0.4,2.3,0.6,10.6,0.7,24.9c0,2.8,0,5.1,0.1,7.1
				v6.3c0,9.6-0.3,16.1-0.8,19.6c-0.4,2.3-0.8,3.9-1.4,4.9c-0.6,0.9-1.4,1.5-2.4,1.8c-1,0.3-2.9,0.6-5.7,0.9
				c-3.8,0.4-6.9,0.7-9.2,0.7c-1.8,0-2.9-0.1-3.4-0.3c-0.5-0.2-1.1-0.7-1.8-1.5c-1.2-1.2-3.2-3.9-5.7-7.9c-8.9-13.3-13.6-20-14-20.1
				c-0.2,0-0.4,2.1-0.5,6.3c-0.4,12.8-1.1,19.6-1.9,20.4c-0.9,0.9-3.5,1.3-7.7,1.3c-0.6,0-1.2,0-1.7-0.1h-2
				c-0.9-0.1-2.6-0.2-5.2-0.3c-2.6-0.1-4-0.6-4.3-1.3c-0.3-0.8-0.6-2.2-0.7-4.5c-0.3-3.1-0.4-12.5-0.4-28.1
				c0-14.8,0.1-24.1,0.3-27.9c0.1-2.7,0.8-4.3,2.1-4.8C395,462.6,396.9,462.5,399.6,462.5z"/>
			<path class="st1" d="M496.9,467.2h1.7c3.6,0.2,6.5,0.8,8.7,1.9c2.1,1.1,4.8,3.2,7.9,6.3c4.8,4.8,7.9,10,9.2,15.5
				c0.4,2.2,0.7,4.1,0.7,5.6c0,5.4-0.9,8.5-2.7,9.2h-22.1c-7,0-10.5,0-10.5,0.1c0,1.1,1,2.2,3.1,3.4c2,1.2,4.4,2.1,7.2,2.7
				c1.5,0.3,2.9,0.4,4.1,0.4c2,0,4.8-0.5,8.1-1.6c2.6-0.7,4.2-1.1,4.9-1.1c0.9,0,1.6,0.3,2.1,0.8c0.6,0.9,1.6,2.5,2.8,4.9
				c1.2,2.4,1.9,4.1,1.9,5.1c0,2-1.6,3.9-4.9,5.7c-3.2,2-6.6,3.3-10.1,4.1c-3.5,0.8-7.7,1.2-12.5,1.2c-5.9,0-10.4-0.5-13.6-1.6
				s-6.6-3.4-10.3-6.9c-3.6-3.6-6.1-7-7.5-10.4c-1.3-3.4-2-7.3-2-11.9c0-5,0.7-9.5,2.2-13.6c1.5-4.1,4.2-7.9,8.3-11.3
				c4.3-3.7,9.7-6.4,16.3-7.9C492.2,467.4,494.5,467.2,496.9,467.2z M496.5,485.3c-2,0-3.7,0.6-5.1,1.7c-1.5,1.2-2.2,2.6-2.3,4.4
				l-0.1,1.6l6.5,0.4l5.5,0.3h0.7c0.4,0,0.6,0,0.7-0.1h0.3h0.3c0.4-0.1,0.5-0.6,0.5-1.6c0-1.2-0.3-2.3-0.8-3.3
				C501.4,486.4,499.4,485.3,496.5,485.3z"/>
			<path class="st1" d="M579.4,471.9c1,0,2.7,0.5,5.2,1.5c2.5,1,4.7,2.2,6.7,3.6c2,1.4,3,2.6,3,3.8c0,1.8-3.2,6.3-9.5,13.6l-7.6,8.7
				l2.1,2.4c4.7,5.2,8.9,10.7,12.7,16.4c1.5,2.3,2.3,4.3,2.3,5.9c0,2.1-1.1,3.2-3.2,3.2l-10.9,0.3H577c-2.8,0-4.7-0.1-5.7-0.2
				c-1.1-0.1-1.9-0.5-2.6-1c-0.7-0.5-1.6-1.6-2.7-3.1c-1.3-1.7-2.6-3.6-3.7-5.7c-0.9-2-1.5-2.9-1.7-2.9c-0.3,0-1.4,1.2-3.5,3.6
				c-3.8,4.4-6.6,7.2-8.3,8.1c-0.9,0.5-2.2,0.8-4,0.8c-1.5,0-3.8-0.3-6.9-1c-3.1-0.7-5.8-1.5-8.1-2.5c-2.4-1-3.5-2-3.5-3
				c0-0.8,3.4-4.6,10.1-11.5c6.9-7.1,10.4-11.1,10.4-11.9c0-0.7-1.1-3-3.3-6.8c-4.4-7.3-6.6-12.3-6.8-15.1v-2.5l2.5-0.8
				c4.8-1.6,10-2.4,15.5-2.5l3.5-0.1l2.1,2.4c1.2,1.2,2.7,3.2,4.3,5.9c1.5,2.4,2.3,3.6,2.4,3.6l0.7-0.7c0.1-0.1,0.7-0.8,1.7-2.3
				l2.1-2.7c2.7-3.3,4.6-5.5,5.7-6.7C577.9,472.1,578.6,471.9,579.4,471.9z"/>
			<path class="st1" d="M615.7,454.1c0,0,2.4,0,7.3,0c5,0,8.1,0.1,9.3,0.3c1.5,0.4,2.4,0.7,2.7,1c0.3,0.3,0.5,1,0.5,2.1l-0.3,7.1
				l-0.3,4.3l-0.1,1.6l6.4,0.1c1.2,0,2.1,0,2.7,0.1c2.2,0,3.7,0.2,4.4,0.5c0.7,0.4,1.2,1.3,1.3,2.8c0.2,1.5,0.3,4.6,0.3,9.3v2.3
				c0,2.5-0.1,4.2-0.3,5.1c-0.2,0.9-0.7,1.5-1.5,1.7c-0.8,0.3-2.2,0.4-4.3,0.4h-8.5l-0.4,2.8c-0.2,2.1-0.3,3.5-0.3,4
				c0,9.2,2.4,13.9,7.1,13.9c1,0,2.3-0.5,3.9-1.4s2.6-1.6,2.9-2.1c0.3-0.4,0.6-0.5,0.9-0.5c0.8,0,1.8,0.6,3.1,1.9
				c1.4,1.4,2.8,3.1,4.1,5.1c1.3,2,1.9,3.4,1.9,4.1c0,1.1-1.2,2.6-3.7,4.5c-2.4,2-5.3,3.7-8.6,5.2c-4.3,2-8.9,2.9-13.9,2.9
				c-3.1,0-5.8-0.5-8.1-1.6s-4.7-2.9-7.3-5.6c-3-3-5.2-6.3-6.5-9.7c-1.3-3.5-2-8.7-2-15.7v-3.1v-1.9c-0.1-0.3-0.1-0.7-0.1-1.3
				c0-0.4-0.1-0.8-0.3-0.9l-0.5-0.5c-0.1-0.3-0.7-0.4-1.9-0.4l-1.6-0.1H602c-1.9-0.2-3.1-0.3-3.6-0.4c-0.5-0.1-1-0.5-1.5-1.2
				c-0.4-0.6-0.5-1.8-0.5-3.5c0-2.4,0-4,0.1-4.9c0.2-2.7,0.3-4.4,0.3-5.1c0.1-1.2,0.2-2.1,0.2-2.9c0-0.8,0.1-1.3,0.2-1.6l0.5-1.9
				l5.5-0.3c2.7-0.1,4.3-0.2,4.8-0.4c0.4-0.2,0.7-0.4,0.8-0.8c0.1-2,0.3-4.7,0.6-8.1c0.3-3.5,0.6-5.3,0.9-5.6
				c0.4-0.5,1.5-0.9,3.1-1.2C614.9,454.2,615.7,454.1,615.7,454.1z"/>
			<path class="st1" d="M696.5,458.8h3.2c6.8,0.1,10.6,1,11.2,2.8c0.3,1.6,0.4,12.8,0.5,33.5v17.3c0,7.6-0.1,12.6-0.3,15.1
				c-0.1,2-0.6,3.1-1.5,3.3c-1.2,0.3-4.1,0.4-8.8,0.5c-0.9,0.1-2.5,0.1-4.9,0.1c-2.5,0-4.2-0.2-5.1-0.6c-0.9-0.4-1.5-1-1.6-1.7
				c-0.1-0.8-0.2-2.3-0.2-4.6l0.1-2.9v-3.5c0-1.2,0-2.4,0.1-3.3v-3.5c0-4.4-0.1-8.2-0.4-11.2c-0.6-7.5-0.9-14.8-0.9-21.9
				c0-4.9,0.2-9.2,0.7-12.9c0.5-3.7,1.4-5.8,2.6-6.3C692.2,458.9,693.9,458.8,696.5,458.8z"/>
			<path class="st1" d="M747.7,467.2h1.7c3.6,0.2,6.5,0.8,8.7,1.9c2.1,1.1,4.8,3.2,7.9,6.3c4.8,4.8,7.9,10,9.2,15.5
				c0.4,2.2,0.7,4.1,0.7,5.6c0,5.4-0.9,8.5-2.7,9.2H751c-7,0-10.5,0-10.5,0.1c0,1.1,1,2.2,3.1,3.4c2,1.2,4.4,2.1,7.2,2.7
				c1.5,0.3,2.9,0.4,4.1,0.4c2,0,4.8-0.5,8.1-1.6c2.6-0.7,4.2-1.1,4.9-1.1c0.9,0,1.6,0.3,2.1,0.8c0.6,0.9,1.6,2.5,2.8,4.9
				c1.2,2.4,1.9,4.1,1.9,5.1c0,2-1.6,3.9-4.9,5.7c-3.2,2-6.6,3.3-10.1,4.1c-3.5,0.8-7.7,1.2-12.5,1.2c-5.9,0-10.4-0.5-13.6-1.6
				s-6.6-3.4-10.3-6.9c-3.6-3.6-6.1-7-7.5-10.4c-1.3-3.4-2-7.3-2-11.9c0-5,0.7-9.5,2.2-13.6c1.5-4.1,4.2-7.9,8.3-11.3
				c4.3-3.7,9.7-6.4,16.3-7.9C743,467.4,745.3,467.2,747.7,467.2z M747.3,485.3c-2,0-3.7,0.6-5.1,1.7c-1.5,1.2-2.2,2.6-2.3,4.4
				l-0.1,1.6l6.5,0.4l5.5,0.3h0.7c0.4,0,0.6,0,0.7-0.1h0.3h0.3c0.4-0.1,0.5-0.6,0.5-1.6c0-1.2-0.3-2.3-0.8-3.3
				C752.1,486.4,750.1,485.3,747.3,485.3z"/>
			<path class="st1" d="M827.4,471.3c1.1,0,3.5,0.6,7.2,1.7c3.7,1.1,6.2,2,7.5,2.7c1.2,0.8,1.9,1.9,1.9,3.3c0,1.4-1,4.3-2.9,8.5
				l-1.7,4c-1.9,4.1-3.1,6.9-3.6,8.4c-2.1,5.2-4.9,11.4-8.3,18.4c-3.4,7-5.4,10.9-6.1,11.7c-0.7,0.6-1.4,1-2,1.2
				c-0.7,0.2-2.4,0.3-4.9,0.4h-2c-8.1,0-13.2-0.8-15.2-2.3c-0.7-0.5-2.7-4.6-5.9-12.1c-3.2-7.5-6.3-15.1-9.1-22.8
				c-2.8-7.7-4.2-12.7-4.2-15c0-1.3,1.1-2.6,3.2-3.7c2.1-1.1,4.6-2,7.4-2.7c2.8-0.7,5-1.1,6.6-1.1c0.8,0,1.5,0.1,2,0.3
				c1.2,0.4,2.2,1.6,3.2,3.9c0.7,1.7,2.4,6.8,5.1,15.5c2.1,7,3.3,10.6,3.5,10.8l0.4-0.5c0.6-0.8,1.3-2,2-3.7
				c1.2-2.8,3.8-7.7,7.7-14.8c3.9-7.1,6.1-10.9,6.7-11.5C826.1,471.6,826.7,471.3,827.4,471.3z"/>
			<path class="st1" d="M877.7,467.2h1.7c3.6,0.2,6.5,0.8,8.7,1.9c2.1,1.1,4.8,3.2,7.9,6.3c4.8,4.8,7.9,10,9.2,15.5
				c0.4,2.2,0.7,4.1,0.7,5.6c0,5.4-0.9,8.5-2.7,9.2H881c-7,0-10.5,0-10.5,0.1c0,1.1,1,2.2,3.1,3.4c2,1.2,4.4,2.1,7.2,2.7
				c1.5,0.3,2.9,0.4,4.1,0.4c2,0,4.8-0.5,8.1-1.6c2.6-0.7,4.2-1.1,4.9-1.1c0.9,0,1.6,0.3,2.1,0.8c0.6,0.9,1.6,2.5,2.8,4.9
				c1.2,2.4,1.9,4.1,1.9,5.1c0,2-1.6,3.9-4.9,5.7c-3.2,2-6.6,3.3-10.1,4.1c-3.5,0.8-7.7,1.2-12.5,1.2c-5.9,0-10.4-0.5-13.6-1.6
				s-6.6-3.4-10.3-6.9c-3.6-3.6-6.1-7-7.5-10.4c-1.3-3.4-2-7.3-2-11.9c0-5,0.7-9.5,2.2-13.6c1.5-4.1,4.2-7.9,8.3-11.3
				c4.3-3.7,9.7-6.4,16.3-7.9C873,467.4,875.3,467.2,877.7,467.2z M877.3,485.3c-2,0-3.7,0.6-5.1,1.7c-1.5,1.2-2.2,2.6-2.3,4.4
				l-0.1,1.6l6.5,0.4l5.5,0.3h0.7c0.4,0,0.6,0,0.7-0.1h0.3h0.3c0.4-0.1,0.5-0.6,0.5-1.6c0-1.2-0.3-2.3-0.8-3.3
				C882.1,486.4,880.1,485.3,877.3,485.3z"/>
			<path class="st1" d="M916.3,458.8h3.2c6.8,0.1,10.6,1,11.2,2.8c0.3,1.6,0.4,12.8,0.5,33.5v17.3c0,7.6-0.1,12.6-0.3,15.1
				c-0.1,2-0.6,3.1-1.5,3.3c-1.2,0.3-4.1,0.4-8.8,0.5c-0.9,0.1-2.5,0.1-4.9,0.1c-2.5,0-4.2-0.2-5.1-0.6c-0.9-0.4-1.5-1-1.6-1.7
				c-0.1-0.8-0.2-2.3-0.2-4.6l0.1-2.9v-3.5c0-1.2,0-2.4,0.1-3.3v-3.5c0-4.4-0.1-8.2-0.4-11.2c-0.6-7.5-0.9-14.8-0.9-21.9
				c0-4.9,0.2-9.2,0.7-12.9c0.5-3.7,1.4-5.8,2.6-6.3C912,458.9,913.7,458.8,916.3,458.8z"/>
		</g>
	</g>
</g>
<g>
	<g>
		<path class="st0" d="M900.2,650H418.8c-47.2,0-85.5,38.3-85.5,85.5v78.6c0,47.2,38.3,85.5,85.5,85.5h481.4
			c47.2,0,85.5-38.3,85.5-85.5v-78.6C985.7,688.3,947.4,650,900.2,650z"/>
	</g>
	<g>
		<g>
			<path class="st1" d="M531.5,739.5c5.3,0,8.5,0.2,9.6,0.7c1.5,0.6,7,7,16.5,19.1c2.8,3.6,4.3,5.3,4.5,5.3c0.4,0,1.9-1.9,4.7-5.7
				c8.7-11.6,13.6-17.7,14.8-18.1c1.3-0.4,3.6-0.7,6.9-0.7c2.6,0,5.1,0.1,7.5,0.4l0.8,0.1c2.4,0.3,3.8,0.8,4.1,1.7
				c0.7,1.2,1.1,5.6,1.2,13.1v2c0.1,2.1,0.1,7.8,0.1,17.1c0,16.2-0.2,26-0.7,29.3c-0.4,2.1-1.1,3.4-2,3.7c-1,0.6-3.5,1-7.5,1.1h-1.9
				l-1.9,0.1c-5,0-8.2-0.5-9.7-1.6l-1.2-0.8l0.1-14c0-2,0-3.7,0.1-4.9v-3.7c0-3.5-0.2-5.2-0.5-5.2c-0.4,0-2.5,3-6.5,9.1
				c-3.6,5.7-5.9,8.8-6.8,9.3c-0.6,0.4-1.5,0.7-2.7,0.7c-1.5,0-2.6-0.3-3.3-0.9c-0.7-0.6-1.8-2.2-3.3-5c-1.1-2-2.6-4.5-4.6-7.4
				c-2-2.9-3.2-4.3-3.5-4.3c-0.2,0-0.4,4.4-0.5,13.2l-0.1,13.2l-1.6,1.2c-0.9,0.8-1.8,1.2-2.7,1.2l-2.8-0.3
				c-0.6-0.1-2.5-0.2-5.6-0.4c-3.9-0.2-6.8-0.4-8.7-0.5c-0.5-0.1-1.4-0.2-2.6-0.2c-1.2,0-1.9-0.4-2.1-1.1c-0.2-0.7-0.3-2-0.3-4v1.3
				l0.3-13.9c0.1-9.8,0.2-20,0.4-30.5c0.2-10.6,0.4-16.2,0.5-16.8c0.4-1.1,1-1.8,1.6-2.1C523,739.7,526.1,739.5,531.5,739.5z"/>
			<path class="st1" d="M638.8,742.9h1.7c3.6,0.2,6.5,0.8,8.7,1.9c2.1,1.1,4.8,3.2,7.9,6.3c4.8,4.8,7.9,10,9.2,15.5
				c0.4,2.2,0.7,4.1,0.7,5.6c0,5.4-0.9,8.5-2.7,9.2h-22.1c-7,0-10.5,0-10.5,0.1c0,1.1,1,2.2,3.1,3.4c2,1.2,4.4,2.1,7.2,2.7
				c1.5,0.3,2.9,0.4,4.1,0.4c2,0,4.8-0.5,8.1-1.6c2.6-0.7,4.2-1.1,4.9-1.1c0.9,0,1.6,0.3,2.1,0.8c0.6,0.9,1.6,2.5,2.8,4.9
				c1.2,2.4,1.9,4.1,1.9,5.1c0,2-1.6,3.9-4.9,5.7c-3.2,2-6.6,3.3-10.1,4.1c-3.5,0.8-7.7,1.2-12.5,1.2c-5.9,0-10.4-0.5-13.6-1.6
				s-6.6-3.4-10.3-6.9c-3.6-3.6-6.1-7-7.5-10.4c-1.3-3.4-2-7.3-2-11.9c0-5,0.7-9.5,2.2-13.6c1.5-4.1,4.2-7.9,8.3-11.3
				c4.3-3.7,9.7-6.4,16.3-7.9C634.1,743.2,636.4,742.9,638.8,742.9z M638.4,761.1c-2,0-3.7,0.6-5.1,1.7c-1.5,1.2-2.2,2.6-2.3,4.4
				l-0.1,1.6l6.5,0.4l5.5,0.3h0.7c0.4,0,0.6,0,0.7-0.1h0.3h0.3c0.4-0.1,0.5-0.6,0.5-1.6c0-1.2-0.3-2.3-0.8-3.3
				C643.3,762.2,641.3,761.1,638.4,761.1z"/>
			<path class="st1" d="M712.8,745.7c6.1,0,10.9,1.7,14.4,5.1c3.5,3.4,6,7.6,7.5,12.8c0.7,2.4,1.1,9.5,1.2,21.3v8.4
				c0,6.1-0.3,9.5-0.8,10c-0.4,0.5-1.1,0.8-2.1,0.9c-1.1,0.2-4.3,0.3-9.6,0.4l-10.9,0.3l-0.5-1.2c-0.1-0.4-0.4-4.7-0.8-12.9
				c-0.1-6.7-0.4-11.8-0.9-15.3c-0.5-2.6-1.6-4.7-3.1-6.4c-0.8-0.8-1.9-1.2-3.2-1.2c-6.5,0-9.7,6.1-9.7,18.3c0,3.5,0,5.8,0.1,7.1
				c0.1,1.7,0.1,4.4,0.1,8.1c0,2.3-0.1,3.6-0.4,3.9s-2.8,0.5-7.5,0.7c-4.8,0.2-8.9,0.3-12.5,0.3c-1.4,0-2.4-0.1-2.9-0.3
				c-0.5-0.2-0.8-0.6-1-1.2c-0.2-0.6-0.3-1.7-0.4-3.3c-0.1-1.1-0.1-5.1-0.1-12.1l-0.1-12V764l-0.1-9.6c0-2.5,0.2-4.2,0.5-5.3
				c0.3-1,1-1.7,1.9-2c1-0.3,2.6-0.5,4.9-0.5h6.7c4.9,0,7.9,0.2,8.9,0.7c0.9,0.4,1.3,1.8,1.3,4.3c0,2.1,0.1,3.2,0.4,3.2
				s1.3-0.8,3.1-2.5c3.1-2.8,6.4-4.8,9.7-5.7C708.8,746,710.8,745.7,712.8,745.7z"/>
			<path class="st1" d="M748.7,746.5c8.2,0,12.7,0.4,13.6,1.3c0.2,0.2,0.3,1.2,0.3,2.9c0,2.1-0.1,4.7-0.3,7.7
				c-0.2,3-0.3,6.2-0.3,9.5c0,6.9,0.5,11.9,1.5,14.9c1,3,3,4.5,5.9,4.5c2.5,0,4.4-1.3,5.7-3.9c1.7-3.1,2.6-10.1,2.7-20.9
				c0.3-9,0.6-13.6,0.9-14c0.4-0.4,2.3-0.9,5.5-1.3c3.2-0.4,6.3-0.7,9.3-0.7c2.3,0,4.2,0.1,5.6,0.3c1.4,0.2,2.4,0.7,2.8,1.4
				c1,1.4,1.5,8.3,1.5,20.7c0,22.8-0.4,35-1.1,36.7c-0.5,1.3-2.6,2-6.3,2c-1.5,0-4.4-0.2-8.8-0.5c-1.5,0-2.7-0.1-3.6-0.2
				c-0.9-0.1-1.7-0.3-2.5-0.6c-0.9-0.3-1.5-0.6-1.9-1s-0.8-1-1.1-1.9c-0.7-1.7-1.5-2-2.3-1.1c-0.5,0.6-2.2,1.5-5.1,2.7
				c-2.8,1.2-5.2,1.9-6.9,2.3c-1.2,0.2-2.6,0.3-4,0.3c-3.7,0-7.2-0.8-10.4-2.3c-3.2-1.6-5.6-3.7-7.2-6.3c-0.6-1.1-1.4-3.1-2.4-6.1
				c-0.7-3-1.1-6.9-1.1-11.6v-6.8c0.2-17.2,1.3-26.3,3.3-27.2C743.1,746.7,745.3,746.5,748.7,746.5z"/>
		</g>
	</g>
</g>
</svg>
