<svg width="400" height="141" xmlns="http://www.w3.org/2000/svg">
 <style type="text/css">.st0{fill:#BCF7B7;stroke:#FFF8CC;stroke-width:5;stroke-miterlimit:10;}
	.st1{fill:#643527;stroke:#FFF8CC;stroke-width:5;stroke-miterlimit:10;}</style>

 <g>
  <title>background</title>
  <rect fill="none" id="canvas_background" height="143" width="402" y="-1" x="-1"/>
 </g>
 <g>
  <title>Layer 1</title>
  <g stroke="null" id="svg_1">
   <path stroke="null" id="svg_2" d="m348.257687,3.8l-291.490638,0c-28.592267,0 -51.767052,20.374913 -51.767052,45.512794l0,41.874416c0,25.13788 23.174785,45.512794 51.767052,45.512794l291.565881,0c28.592267,0 51.767052,-20.374913 51.767052,-45.512794l0,-41.874416c0,-25.13788 -23.174785,-45.512794 -51.842295,-45.512794z" class="st0"/>
   <g stroke="null" id="svg_3">
    <g stroke="null" id="svg_4">
     <path stroke="null" id="svg_5" d="m104.922446,50.172774c3.461169,0 6.997581,0.463066 10.533993,1.389199c1.580099,0.396914 2.633498,0.85998 3.235441,1.256894c0.601942,0.396914 0.902914,0.992285 0.902914,1.653808c0,0.529219 -0.451457,1.786113 -1.279128,3.770682c-0.827671,1.984569 -1.580099,3.572225 -2.332527,4.696814c-0.225728,0.463066 -0.601942,0.727675 -1.128642,0.727675c-0.300971,0 -0.978157,-0.198457 -2.031556,-0.595371c-2.106799,-0.793828 -4.138354,-1.190742 -6.245153,-1.190742l-0.451457,0l-0.376214,0.066152c-1.580099,0.198457 -3.084955,0.793828 -4.665054,1.786113c-1.504856,0.992285 -2.633498,2.116874 -3.385926,3.43992c-0.601942,1.124589 -0.902914,2.381483 -0.902914,3.770682c0,2.381483 0.752428,4.299901 2.332527,5.755252c1.504856,1.389199 4.063112,2.116874 7.524281,2.116874c2.106799,0 4.063112,-0.330762 5.793696,-1.058437c0.677185,-0.330762 1.429613,-0.529219 2.257284,-0.529219c0.601942,0 1.053399,0.132305 1.354371,0.396914c0.451457,0.396914 1.053399,1.455351 1.956313,3.175311c0.902914,1.653808 1.354371,2.778397 1.504856,3.373768c0.075243,0.066152 0.075243,0.330762 0.075243,0.661523c0,0.793828 -0.451457,1.455351 -1.279128,1.918417c-0.827671,0.595371 -2.558255,1.190742 -5.116511,1.918417c-3.611655,1.058437 -6.69661,1.653808 -9.330108,1.653808l-1.429613,0c-3.235441,-0.132305 -5.793696,-0.595371 -7.825252,-1.323046c-1.956313,-0.727675 -3.987869,-2.050722 -6.019425,-3.836834c-4.514568,-3.902987 -6.771853,-8.996715 -6.771853,-15.281185c0,-1.587656 0.075243,-2.712245 0.300971,-3.43992c0.5267,-2.381483 1.730585,-4.762967 3.536412,-7.012146c1.805827,-2.249179 4.063112,-4.167596 6.69661,-5.755252c2.633498,-1.587656 5.342239,-2.646093 8.201466,-3.175311c1.580099,-0.198457 3.009712,-0.330762 4.364083,-0.330762z" class="st1"/>
     <path stroke="null" id="svg_6" d="m123.808391,55.531111c0.451457,-0.264609 1.655342,-0.396914 3.461169,-0.396914c1.88107,0 3.686898,0.132305 5.342239,0.330762c1.730585,0.264609 2.708741,0.529219 3.009712,0.926132c0.376214,0.396914 0.601942,0.727675 0.601942,0.992285c0,0.066152 0.075243,0.066152 0.150486,0.066152c0.300971,0 1.053399,-0.264609 2.257284,-0.793828c2.257284,-0.992285 4.28884,-1.521503 6.16991,-1.521503c1.88107,0 3.837383,0.463066 5.793696,1.389199c1.956313,0.926132 3.009712,1.918417 3.009712,2.976854c0,0.595371 -0.451457,1.71996 -1.354371,3.43992c-0.902914,1.71996 -1.730585,3.043007 -2.40777,3.969139c-0.5267,0.727675 -1.128642,1.058437 -1.730585,1.058437c-0.225728,0 -0.827671,-0.132305 -1.805827,-0.330762c-0.978157,-0.264609 -1.88107,-0.396914 -2.708741,-0.396914c-1.805827,0 -3.310684,0.661523 -4.439326,1.918417c-1.956313,2.183026 -2.93447,6.879841 -2.93447,14.222748l0,0.992285c0,1.058437 -0.075243,1.786113 -0.225728,2.183026c-0.150486,0.396914 -0.451457,0.727675 -0.978157,0.85998c-0.5267,0.132305 -1.354371,0.198457 -2.558255,0.198457l-1.354371,-0.066152l-1.805827,0c-3.76214,-0.066152 -5.944182,-0.330762 -6.470881,-0.661523c-0.677185,-0.396914 -0.978157,-0.793828 -1.053399,-1.190742c-0.150486,-0.529219 -0.225728,-2.315331 -0.225728,-5.292185c0,-4.56451 0.150486,-9.525934 0.376214,-14.884271c0.225728,-5.358338 0.5267,-8.335192 0.752428,-8.86441c0.376214,-0.529219 0.752428,-0.926132 1.128642,-1.124589z" class="st1"/>
     <path stroke="null" id="svg_7" d="m175.274472,53.21578l1.053399,0c2.182041,0.066152 3.987869,0.396914 5.266997,0.992285s2.859227,1.653808 4.740297,3.307616c2.93447,2.57994 4.740297,5.292185 5.567968,8.202887c0.300971,1.190742 0.376214,2.183026 0.376214,2.976854c0,2.910702 -0.5267,4.498358 -1.580099,4.895271l-13.39322,0c-4.28884,0 -6.395639,0 -6.395639,0.066152c0,0.595371 0.601942,1.190742 1.88107,1.786113c1.203885,0.661523 2.708741,1.124589 4.364083,1.455351c0.902914,0.132305 1.730585,0.198457 2.483013,0.198457c1.203885,0 2.859227,-0.264609 4.890783,-0.85998c1.580099,-0.396914 2.558255,-0.595371 3.009712,-0.595371c0.5267,0 0.978157,0.132305 1.279128,0.396914c0.376214,0.463066 0.978157,1.323046 1.730585,2.646093c0.752428,1.256894 1.128642,2.183026 1.128642,2.712245c0,1.058437 -0.978157,2.050722 -3.009712,3.043007c-1.956313,1.058437 -3.987869,1.786113 -6.094667,2.183026c-2.106799,0.396914 -4.665054,0.661523 -7.524281,0.661523c-3.536412,0 -6.320396,-0.264609 -8.201466,-0.85998c-1.956313,-0.595371 -3.987869,-1.786113 -6.245153,-3.70453c-2.182041,-1.918417 -3.686898,-3.770682 -4.514568,-5.556795c-0.827671,-1.786113 -1.203885,-3.902987 -1.203885,-6.350622c0,-2.646093 0.451457,-5.093728 1.354371,-7.210602c0.902914,-2.183026 2.558255,-4.167596 5.041268,-6.019861c2.558255,-1.984569 5.868939,-3.373768 9.856808,-4.167596c1.279128,-0.066152 2.708741,-0.198457 4.138354,-0.198457zm-0.225728,9.658238c-1.203885,0 -2.257284,0.330762 -3.084955,0.926132c-0.902914,0.595371 -1.354371,1.389199 -1.429613,2.315331l-0.075243,0.85998l3.987869,0.198457l3.310684,0.132305l0.376214,0c0.225728,0 0.376214,0 0.376214,-0.066152l0.150486,0l0.150486,0c0.225728,-0.066152 0.300971,-0.330762 0.300971,-0.85998c0,-0.595371 -0.150486,-1.190742 -0.451457,-1.786113c-0.677185,-1.124589 -1.88107,-1.71996 -3.611655,-1.71996z" class="st1"/>
     <path stroke="null" id="svg_8" d="m225.160453,46.269787c3.310684,0 5.342239,0.066152 6.019425,0.198457c0.752428,0.132305 1.429613,0.463066 1.956313,0.992285l0.752428,0.727675l-0.150486,18.588801c-0.075243,11.245894 -0.225728,17.530364 -0.601942,18.85341c-0.225728,0.529219 -0.601942,0.926132 -1.203885,1.124589l-0.300971,0.132305c-0.677185,0.264609 -2.182041,0.330762 -4.514568,0.330762l-1.805827,0c-3.084955,-0.066152 -4.966025,-0.198457 -5.567968,-0.330762c-0.902914,-0.264609 -1.580099,-0.661523 -1.956313,-1.323046c0,-0.066152 -0.150486,-0.264609 -0.376214,-0.595371c-0.225728,-0.132305 -0.376214,-0.198457 -0.376214,-0.132305l-2.332527,0.85998c-1.354371,0.529219 -3.235441,0.793828 -5.643211,0.793828c-2.182041,0 -3.76214,-0.066152 -4.665054,-0.198457c-0.902914,-0.132305 -2.031556,-0.529219 -3.310684,-1.058437c-4.063112,-1.71996 -6.546124,-4.498358 -7.298552,-8.136735c-0.300971,-1.587656 -0.376214,-2.84455 -0.376214,-3.836834c0,-3.307616 0.827671,-6.28447 2.40777,-8.930563c1.580099,-2.646093 3.611655,-4.696814 6.16991,-6.152165c2.483013,-1.455351 5.041268,-2.183026 7.674766,-2.183026c2.558255,0 4.966025,0.661523 7.298552,1.984569c0.5267,0.330762 0.827671,0.463066 0.978157,0.330762c0.075243,-0.066152 0.225728,-1.653808 0.451457,-4.829119c0.300971,-3.175311 0.451457,-4.961424 0.677185,-5.490642c0.300971,-0.793828 1.053399,-1.323046 2.257284,-1.587656c0.752428,-0.066152 2.031556,-0.132305 3.837383,-0.132305zm-8.953894,20.970284c-0.677185,-0.396914 -1.504856,-0.661523 -2.40777,-0.661523c-0.827671,0 -1.805827,0.264609 -2.93447,0.793828c-1.805827,1.058437 -2.708741,2.447636 -2.708741,4.233748c0,1.190742 0.451457,2.315331 1.429613,3.373768c0.978157,1.058437 2.257284,1.587656 3.987869,1.587656c0.752428,0 1.580099,-0.132305 2.483013,-0.396914l1.203885,-0.330762l0,-7.938278l-1.053399,-0.661523z" class="st1"/>
     <path stroke="null" id="svg_9" d="m244.272127,59.76486l2.182041,0l0.902914,0c0.752428,0 1.354371,0.066152 1.88107,0.198457c0.451457,0.132305 0.677185,0.330762 0.827671,0.529219c0.150486,0.198457 0.225728,0.595371 0.300971,1.124589c0.075243,1.256894 0.150486,5.622947 0.150486,13.164311c0,7.872126 -0.075243,11.973569 -0.300971,12.105874c-0.451457,0.396914 -2.106799,0.595371 -5.116511,0.595371l-2.93447,0l-2.182041,-0.066152c-1.279128,0 -2.031556,0 -2.257284,-0.066152c-0.5267,-0.066152 -0.978157,-0.198457 -1.279128,-0.529219l-0.677185,-0.595371l-0.075243,-9.592086l0,-2.976854c0,-8.26904 0.300971,-12.701245 0.978157,-13.362768c0.300971,-0.264609 1.956313,-0.463066 5.191754,-0.529219c1.053399,0.066152 1.805827,0.066152 2.40777,0zm-1.128642,-13.098159c1.805827,0 3.310684,0.529219 4.589811,1.653808c1.279128,1.058437 1.956313,2.315331 1.956313,3.638377l0,0.926132c-0.075243,1.389199 -0.752428,2.447636 -1.88107,3.241463c-1.128642,0.793828 -2.633498,1.190742 -4.514568,1.190742l-0.451457,0c-1.88107,-0.066152 -3.385926,-0.595371 -4.589811,-1.455351c-1.128642,-0.85998 -1.730585,-1.984569 -1.730585,-3.373768c0,-0.727675 0.150486,-1.389199 0.376214,-1.984569c0.300971,-0.595371 0.752428,-1.256894 1.504856,-1.984569c1.429613,-1.256894 3.009712,-1.852265 4.740297,-1.852265z" class="st1"/>
     <path stroke="null" id="svg_10" d="m263.985742,46.269787c0,0 1.504856,0 4.439326,0c3.009712,0 4.890783,0.066152 5.643211,0.132305c0.902914,0.198457 1.429613,0.396914 1.655342,0.529219c0.225728,0.198457 0.300971,0.529219 0.300971,1.124589l-0.150486,3.770682l-0.150486,2.249179l-0.075243,0.85998l3.912626,0.066152c0.752428,0 1.279128,0 1.580099,0.066152c1.354371,0 2.257284,0.066152 2.633498,0.264609c0.451457,0.198457 0.677185,0.661523 0.827671,1.521503c0.075243,0.793828 0.150486,2.447636 0.150486,4.961424l0,1.190742c0,1.323046 -0.075243,2.249179 -0.225728,2.712245c-0.150486,0.463066 -0.451457,0.793828 -0.902914,0.926132c-0.451457,0.132305 -1.354371,0.198457 -2.633498,0.198457l-5.116511,0l-0.225728,1.521503c-0.075243,1.124589 -0.150486,1.852265 -0.150486,2.116874c0,4.895271 1.429613,7.409059 4.28884,7.409059c0.601942,0 1.354371,-0.264609 2.332527,-0.727675c0.978157,-0.529219 1.580099,-0.85998 1.805827,-1.124589c0.150486,-0.198457 0.376214,-0.264609 0.601942,-0.264609c0.451457,0 1.128642,0.330762 1.88107,0.992285c0.827671,0.727675 1.655342,1.653808 2.483013,2.712245c0.752428,1.058437 1.203885,1.786113 1.203885,2.183026c0,0.595371 -0.752428,1.389199 -2.257284,2.381483c-1.504856,1.058437 -3.235441,1.984569 -5.191754,2.778397c-2.558255,1.058437 -5.417482,1.587656 -8.427195,1.587656c-1.88107,0 -3.536412,-0.264609 -4.890783,-0.85998s-2.859227,-1.587656 -4.364083,-2.976854c-1.805827,-1.587656 -3.160198,-3.307616 -3.987869,-5.159881c-0.827671,-1.852265 -1.203885,-4.630662 -1.203885,-8.401344l0,-1.653808l0,-0.992285c-0.075243,-0.132305 -0.075243,-0.396914 -0.075243,-0.727675c0,-0.264609 -0.075243,-0.396914 -0.150486,-0.529219l-0.300971,-0.264609c-0.075243,-0.132305 -0.451457,-0.198457 -1.128642,-0.198457l-0.978157,-0.066152l-1.279128,0c-1.128642,-0.066152 -1.88107,-0.132305 -2.182041,-0.198457c-0.300971,-0.066152 -0.601942,-0.264609 -0.902914,-0.661523c-0.225728,-0.330762 -0.300971,-0.926132 -0.300971,-1.852265c0,-1.256894 0,-2.183026 0.075243,-2.646093c0.075243,-1.389199 0.150486,-2.315331 0.150486,-2.712245c0.075243,-0.595371 0.075243,-1.124589 0.150486,-1.587656c0,-0.396914 0.075243,-0.727675 0.150486,-0.85998l0.300971,-0.992285l3.310684,-0.132305c1.580099,-0.066152 2.558255,-0.132305 2.93447,-0.198457c0.300971,-0.066152 0.451457,-0.264609 0.451457,-0.396914c0.075243,-1.058437 0.150486,-2.513788 0.376214,-4.299901c0.150486,-1.852265 0.376214,-2.84455 0.5267,-2.976854c0.300971,-0.264609 0.902914,-0.529219 1.88107,-0.661523c0.752428,-0.066152 1.203885,-0.132305 1.203885,-0.132305z" class="st1"/>
     <path stroke="null" id="svg_11" d="m306.648414,53.877303l1.429613,0c1.580099,0 3.310684,0.198457 5.266997,0.529219c1.956313,0.330762 3.76214,0.727675 5.342239,1.190742c1.580099,0.396914 2.558255,0.727675 2.859227,0.85998c0.5267,0.330762 0.827671,0.85998 0.827671,1.587656c0,0.727675 -0.225728,1.852265 -0.752428,3.307616c-0.451457,1.455351 -0.902914,2.513788 -1.203885,3.175311c-0.300971,0.529219 -0.677185,0.793828 -1.203885,0.793828c-0.5267,0 -1.354371,-0.264609 -2.483013,-0.727675c-2.332527,-0.85998 -4.28884,-1.256894 -5.718453,-1.256894c-0.451457,0 -0.827671,0.066152 -1.279128,0.198457c-0.451457,0.132305 -0.677185,0.330762 -0.677185,0.595371c0,0.264609 0.225728,0.529219 0.601942,0.793828c0.5267,0.396914 2.332527,0.727675 5.342239,1.124589c2.483013,0.264609 4.439326,0.793828 5.868939,1.521503c1.429613,0.727675 2.633498,1.852265 3.536412,3.43992c0.827671,1.256894 1.203885,2.778397 1.203885,4.56451c0,2.050722 -0.601942,3.969139 -1.805827,5.887556c-1.203885,1.852265 -2.859227,3.373768 -4.966025,4.498358c-2.332527,1.190742 -5.191754,1.786113 -8.728166,1.786113c-3.461169,0 -6.847096,-0.529219 -10.157779,-1.653808c-3.310684,-1.124589 -5.944182,-2.57994 -7.900495,-4.366053c-0.827671,-0.793828 -1.203885,-1.389199 -1.203885,-1.786113c0,-0.396914 0.451457,-1.058437 1.429613,-2.116874c0.978157,-0.992285 2.031556,-1.984569 3.084955,-2.976854c1.128642,-0.926132 1.730585,-1.389199 1.956313,-1.389199c0.150486,0 0.827671,0.396914 2.031556,1.190742c2.332527,1.587656 4.81554,2.381483 7.373795,2.57994l1.053399,0c0.827671,0 1.504856,-0.132305 1.956313,-0.463066c0.451457,-0.330762 0.677185,-0.727675 0.677185,-1.190742c0,-0.595371 -0.451457,-1.124589 -1.354371,-1.587656c-0.902914,-0.463066 -2.483013,-0.793828 -4.665054,-1.124589c-5.643211,-0.793828 -9.330108,-2.712245 -10.98545,-5.755252c-0.5267,-0.926132 -0.827671,-1.918417 -0.827671,-3.043007c0,-1.323046 0.451457,-2.712245 1.279128,-4.101444c0.827671,-1.389199 2.031556,-2.646093 3.536412,-3.638377c1.504856,-1.058437 3.084955,-1.71996 4.890783,-2.116874c1.053399,-0.264609 2.558255,-0.330762 4.364083,-0.330762z" class="st1"/>
    </g>
   </g>
  </g>
 </g>
</svg>