<?xml version="1.0" encoding="utf-8"?>
<!-- Generator: Adobe Illustrator 21.0.0, SVG Export Plug-In . SVG Version: 6.00 Build 0)  -->
<svg version="1.1" id="Capa_1" xmlns="http://www.w3.org/2000/svg" xmlns:xlink="http://www.w3.org/1999/xlink" x="0px" y="0px"
	 viewBox="0 0 1319 1952" style="enable-background:new 0 0 1319 1952;" xml:space="preserve">
<style type="text/css">
	.st0{clip-path:url(#SVGID_2_);}
	.st1{fill:#D0D2F7;stroke:#643527;stroke-width:5;stroke-miterlimit:10;}
	.st2{fill:#FFEBDF;stroke:#643527;stroke-miterlimit:10;}
	.st3{fill:#FFFFFF;stroke:#643527;stroke-miterlimit:10;}
	.st4{fill:#9DB1CC;}
	.st5{fill:#DDA0B0;}
	.st6{fill:#056D6D;stroke:#643627;stroke-miterlimit:10;}
	.st7{fill:none;stroke:#044747;stroke-width:6;stroke-miterlimit:10;}
	.st8{fill:none;stroke:#F46C6C;stroke-width:8;stroke-linecap:round;stroke-linejoin:round;stroke-miterlimit:10;}
	.st9{fill:#FFEBDF;stroke:#643627;stroke-width:5;stroke-miterlimit:10;}
	.st10{fill:#04757B;stroke:#643527;stroke-width:5;stroke-miterlimit:10;}
	.st11{fill:#DADCDB;}
	.st12{fill:#FF726E;}
	.st13{fill:none;stroke:#643627;stroke-width:5;stroke-miterlimit:10;}
	.st14{fill:#F7CC43;}
	.st15{fill:#BECDEC;}
	.st16{fill:#FF726E;stroke:#643627;stroke-width:5;stroke-miterlimit:10;}
	.st17{fill:none;stroke:#049BA2;stroke-width:8;stroke-miterlimit:10;}
	.st18{fill:#D69583;stroke:#643527;stroke-width:5;stroke-miterlimit:10;}
	.st19{fill:#DF90AD;stroke:#643527;stroke-width:5;stroke-miterlimit:10;}
	.st20{fill:#FFC6CE;stroke:#643527;stroke-width:5;stroke-miterlimit:10;}
	.st21{fill:#DF90AD;stroke:#643527;stroke-miterlimit:10;}
	.st22{fill:none;stroke:#643527;stroke-width:5;stroke-miterlimit:10;}
	.st23{fill:#595975;stroke:#643527;stroke-miterlimit:10;}
	.st24{fill:#434351;stroke:#643527;stroke-miterlimit:10;}
	.st25{fill:#71A888;stroke:#643527;stroke-miterlimit:10;}
	.st26{fill:#E1F78F;stroke:#643527;stroke-width:5;stroke-miterlimit:10;}
	.st27{fill:#867691;stroke:#643527;stroke-width:5;stroke-miterlimit:10;}
	.st28{fill:#FFFFFF;stroke:#643527;stroke-width:5;stroke-miterlimit:10;}
	.st29{fill:#CBABB6;stroke:#643527;stroke-width:5;stroke-miterlimit:10;}
	.st30{fill:#F9DFD0;stroke:#643527;stroke-width:5;stroke-miterlimit:10;}
	.st31{fill:none;stroke:#643527;stroke-miterlimit:10;}
	.st32{fill:#71A888;stroke:#643527;stroke-width:5;stroke-miterlimit:10;}
	.st33{fill:#595975;stroke:#643527;stroke-width:5;stroke-miterlimit:10;}
	.st34{fill:#708A81;stroke:#643527;stroke-width:5;stroke-miterlimit:10;}
	.st35{fill:#FFC25E;}
	.st36{fill:#643527;}
	.st37{fill:#FFE7A8;}
	.st38{fill:url(#SVGID_3_);}
	.st39{fill:#FFD1AE;}
	.st40{fill:#FEDC72;stroke:#643527;stroke-width:5;stroke-linecap:round;stroke-linejoin:round;stroke-miterlimit:10;}
	.st41{fill:none;stroke:#643527;stroke-width:5;stroke-linecap:round;stroke-linejoin:round;stroke-miterlimit:10;}
	.st42{fill:#FEDC72;stroke:#643527;stroke-width:5;stroke-miterlimit:10;}
	.st43{fill:#FEDC72;}
	.st44{fill:#FFE7A8;stroke:#643527;stroke-width:5;stroke-miterlimit:10;}
	.st45{fill:#FEBDC5;}
	.st46{fill:#F4C551;}
	.st47{fill:#643527;stroke:#FFF8CC;stroke-width:3;stroke-miterlimit:10;}
</style>
<g>
	<g>
		<defs>
			<polygon id="SVGID_1_" points="1172.3,1.8 1025.6,1.8 878.9,1.8 732.3,1.8 585.6,1.8 438.9,1.8 292.2,1.8 292.2,3.2 146.7,3.2 
				0,3.2 0,1950.2 146.7,1950.2 293.4,1950.2 293.4,1948.8 438.9,1948.8 585.6,1948.8 732.3,1948.8 878.9,1948.8 1025.6,1948.8 
				1172.3,1948.8 1319,1948.8 1319,1.8 			"/>
		</defs>
		<clipPath id="SVGID_2_">
			<use xlink:href="#SVGID_1_"  style="overflow:visible;"/>
		</clipPath>
		<g class="st0">
			<path class="st1" d="M1808.2,1859.2c-31.5-71.2-69.6-137.5-87.8-213.6c-18.2-77.8-13.2-157.3-18.2-236.8
				c-11.6-198.7-1.7-384.2,39.7-583c87.8-420.7,245.1-775.1,352.8-1180.8c61.3-225.2,96.1-445.5,107.7-674.1
				c4.2-80.3,5.4-160.4,5.5-240.4h-441.7h-483.1H800H316.9h-483.1h-483.1h-483.1h-483.1h-483.1v3228.6h483.1h483.1h483.1h483.1
				h483.1H800h483.1h483.1H1909C1876.2,1924.8,1842.7,1891.4,1808.2,1859.2z"/>
			<g>
				<path class="st2" d="M-561.7,338.4c0.7-49.8,0.4-99.7,0.2-149.6h-11.9h-267.2h-11c-0.6,17.5-2.4,337.9-1.4,355.1
					c1.9,32.8-0.3,65.9,0.8,98.8c0.2,5.2-0.1,9.2-0.9,12.4h12.9l265.9-302.7h13.6C-561.4,348.8-561.7,344.2-561.7,338.4z"/>
				<path class="st3" d="M-689.2,30.1C-704,5-735.6-1.2-761.7,17.6c-9,6.5-14.2,7-24.1,1.7c-20.5-11.1-39.4-6.4-53.4,12.8
					c-12.8,17.5-11,39.3,6.7,54.5c7.2,6.2,10.9,11.9,10.9,19.8h15.1h67.5c0.2-1.8,0.4-3.7,0.3-5.8c0-1,0.1-1.8,0.4-2.5
					c-0.3,0.7-0.4,1.6-0.4,2.5c0,2.2-0.1,4.1-0.3,5.8h16.9c3.4-2.3,8.8-3,12.2-5C-682,84.4-673.6,56.3-689.2,30.1z M-736.9,96.3
					c1.1-1,2.6-1.7,4.3-2.1C-734.3,94.6-735.8,95.2-736.9,96.3z"/>
				<path class="st3" d="M-704.2-377.9c-5.9-7.3-5.6-11.7-0.4-19.5c21-31.6,20.5-65.4-0.2-91.1c-21.6-26.8-60.4-37.7-93.9-26
					c-9,3.2-15.6,10.8-24.3-3.7c-19.5-32.5-52.6-44.7-89-36.6c-34.5,7.7-56.5,33.4-61.7,73.5c0.4,9.7-0.4,17.6-16.3,20.2
					c-35.2,5.7-57.7,34.4-58.6,69.2c-1,37.7,23.1,73.1,57.2,79.8c16.5,3.2,21.2,7,18.7,25.3c-5.8,42.3,20.8,76.4,63.8,87.3
					c47,11.9,84.1-3.3,101.4-43.3c5-11.7,8.3-17.2,23.1-14c32.8,7.2,62.8,0.4,82.4-29.6C-682.2-316.8-680.3-348.2-704.2-377.9z"/>
				<path class="st3" d="M-876.5-81.6c-5.9-22.6-20.7-39.7-44-38.6c-22.5,1.1-27.3-7.8-31.8-26.7c-6.7-28.1-32.5-44.7-60.6-43.6
					c-39.4,1.6-59.7,20.2-64.1,60.6c-1.3,12.1-4.9,19-16.8,24.7c-27.9,13.6-41.2,51.8-31.2,83c10.2,31.7,41.9,52,74.5,47.7
					c9.9-1.3,19-8.4,24.4,9.6c10.2,33.6,38.7,45,75.2,34.3c32.7-9.5,51-37.5,42.4-69.8c-4.2-15.6-6.4-23.6,12.2-31.6
					C-876.9-40.3-871-60.4-876.5-81.6z"/>
				<path class="st2" d="M-709,90.7c-46.5,0-93,0.8-139.4-0.4c-17.6-0.5-23.5,6.6-23.5,28.9c-0.2,73.1-0.8,73.2,58,73.3
					c81.7,0.1,163.5-0.7,245.2,0.5c20.4,0.3,28.5-8.2,27.9-33.6c-0.3-13.5-0.9-27,0.8-41.1c2.1-16.2-5.1-28.7-22.7-28.2
					c-48.7,1.4-97.5,0.5-146.2,0.5C-709,90.6-709,90.7-709,90.7z"/>
				<polygon class="st4" points="-739.9,399.6 -657.1,399.6 -652.3,323.9 -739.9,323.9 				"/>
				<rect x="-825.7" y="413" class="st5" width="159.8" height="94.2"/>
				<polygon class="st2" points="135.4,216.9 615.9,246.2 662.2,584.3 400.5,584.1 				"/>
				<polygon class="st6" points="135.4,216.9 615.9,246.2 664.1,533.9 573.6,548.2 				"/>
				<line class="st7" x1="377" y1="346.5" x2="619.7" y2="340.6"/>
				<line class="st7" x1="406.6" y1="445.1" x2="649.3" y2="439.1"/>
				<polyline class="st8" points="612.4,244.8 662.8,534.1 624.5,540.2 				"/>
				<path class="st9" d="M645.6,741.4c-104.3-116-527.8-513.4-667.1-632.4c-55-47-134.1-80.8-191-34.7
					c-31.6,26.4-402.1,357-663.7,642.6l38.4,742.4c0,22.2,22.1,40.4,49,40.4H559.4c27,0,49-18.2,49-40.4L645.6,741.4z"/>
				<path class="st10" d="M894.5,719.1c-2.7,0-5.4-0.2-8.2-0.8l-249.2-47.1c-9.5-1.8-18.1-6.6-24.5-13.8
					c-4.6-5.2-466.7-521-646.6-650.1c-73.5-52.7-104.9-46.9-161.9-2.8c-32.4,25.2-407.4,407.1-651.5,657.6
					c-6.4,6.5-14.6,10.9-23.6,12.5l-245.1,43.7c-23.8,4.2-46.5-11.6-50.7-35.4c-4.2-23.8,11.6-46.5,35.4-50.7l231.3-41.3
					C-804,492.4-294.3-29.8-249.4-64.6c47.7-36.9,87.6-53.3,129.4-53.4c0.1,0,0.2,0,0.2,0c42.2,0,84.4,16.8,136.8,54.3
					C191.7,61.7,597.3,509.6,667.9,588.1l234.7,44.3c23.7,4.5,39.3,27.4,34.9,51.1C933.5,704.5,915.1,719.1,894.5,719.1z"/>
				<path class="st2" d="M-870.6,649.9c1.2-1.3,2.5-2.7,3.7-4.1C-868.2,647.2-869.5,648.5-870.6,649.9z"/>
				<path class="st11" d="M570.7,632.7L-53.6,15.9C-87.9,1.4-122.2-5.4-155-4.6l-674.7,666.6c-14.9,0-28.2,5.5-37.2,14.2
					c-1.2,1.4-2.5,2.7-3.7,4.1c-5.1,6.4-3.5,21.1-3.5,29.3l5.8,112c261.7-285.6,624.2-690.6,655.8-717c56.9-46.1,136-12.3,191,34.7
					c139.3,119,554.8,587,659.1,703.1l6-122.3C626.7,700.9,604.5,670.4,570.7,632.7z"/>
				<path class="st12" d="M239.6,1492.8c26.9-447.5-11.8-692.2-129.1-817.2C54,615.3-19,584.7-106.3,584.6h-0.5
					c-88.3,0-165.9,35.3-224.4,102c-87.2,99.4-134,270.6-139.3,508.7c-3,135.7,8.5,253.6,13.5,297.6H239.6z"/>
				<path class="st13" d="M-369.9,1499.5c0,0-111-829.8,263.4-829.2c244.5,0.4,291.6,316.2,259.7,829.2"/>
				<ellipse class="st14" cx="-274.8" cy="1089.4" rx="41.2" ry="61.3"/>
				<rect x="-670.1" y="1208.6" class="st4" width="145.5" height="113.2"/>
				<rect x="-704.6" y="1346" class="st15" width="180" height="113.2"/>
				<rect x="324.8" y="1365" class="st4" width="159.8" height="94.2"/>
				<rect x="427.4" y="1319.6" class="st4" width="45.4" height="21.9"/>
				<rect x="-672.6" y="1168.2" class="st4" width="45.4" height="21.9"/>
				<rect x="324.8" y="1028.6" class="st5" width="159.8" height="94.2"/>
				<rect x="427.4" y="983.2" class="st5" width="45.4" height="21.9"/>
				<rect x="272.6" y="855.4" class="st4" width="45.4" height="21.9"/>
				<path class="st16" d="M-541.4,381.1c-58.4,59.7-118.9,121.7-177.2,181.6H490.3c-49.9-53-110.1-116.6-172.8-181.6H-541.4z"/>
				<path class="st16" d="M945.2,675.3c-1.9-21.3-20.7-37-42-35.1l-242.5,21.8c-19.3-20.8-57.8-62.3-107.2-114.9
					c-37.7-40.1-81.7-86.8-128.6-135.8C279,258.6,106.2,82.8,16.1,9.1c-91.7-74.9-167.7-75.6-262.3-2.5
					c-27.4,21.2-229,226.2-403.3,404.7c-46.2,47.3-90.4,92.7-129,132.3c-51.3,52.7-92.6,95.2-115.1,118.4l-243.1-21.9
					c-21.3-1.9-40.1,13.8-42,35.1c-1.9,21.3,13.8,40.1,35.1,42l261.5,23.5c1.2,0.1,2.3,0.2,3.5,0.2c10.4,0,20.5-4.2,27.8-11.8
					c41.2-42.5,86-88.7,132.3-136.2c58.3-59.9,118.8-122,177.2-181.6C-370.6,236.7-218.8,83.2-198.9,67.9
					c65.6-50.7,102.8-50.4,166.1,1.2c76.5,62.4,218.6,205.4,350.4,342.3c62.6,65,122.9,128.6,172.8,181.6
					c73.9,78.6,124.9,133.9,126.5,135.5c8.1,8.8,19.9,13.4,31.9,12.3l261.5-23.5C931.5,715.4,947.2,696.6,945.2,675.3z"/>
				<ellipse class="st17" cx="-110.9" cy="196" rx="72.3" ry="100.9"/>
				<polygon class="st4" points="519.7,1323.9 602.4,1323.9 607.3,1229.7 519.7,1229.7 				"/>
				<polygon class="st15" points="519.7,1438.3 596.5,1438.3 601.4,1344.1 519.7,1344.1 				"/>
				<polygon class="st5" points="-742.9,1346 -826.6,1346 -820.7,1459.2 -742.9,1459.2 				"/>
				<polygon class="st15" points="-766.4,988.2 -845.1,988.2 -840.2,1082.4 -766.4,1082.4 				"/>
				<rect x="-618.8" y="852" class="st5" width="45.4" height="21.9"/>
				<rect x="-672.6" y="791.5" class="st4" width="45.4" height="21.9"/>
				<polygon class="st15" points="-775.2,226.3 -838.6,226.3 -837,320.5 -775.2,320.5 				"/>
			</g>
			<g>
				<path class="st18" d="M905.2,884.5c-0.1,2.8-0.1,5.6,0,8.4c-0.1,0.1-0.3,0.2-0.4,0.3L905.2,884.5z"/>
				<path class="st18" d="M907.3,891.3c0.1,5.8-0.1,11.7-0.5,17.6c-0.8-5.4-1.3-10.7-1.5-16C905.9,892.4,906.6,891.9,907.3,891.3z"
					/>
				<path class="st18" d="M904.8,893.3c0.1-0.1,0.3-0.2,0.4-0.3c0.2,5.2,0.8,10.6,1.5,16c-0.7,9.6-2.1,19.1-4,28.4L904.8,893.3z"/>
				<path class="st18" d="M473.6,966c6.6,13.5,33.7,11.5,49.2,14.8c37.3,8.1,72.4,19.3,90.3,54c25,48.5,38.1,117.3,92.5,140.5
					c11.5,4.9,41.8,5.4,49.5,17.1c5.7,8.6-1.1,24.1-1.6,35.4c-2.4,49,15.6,67.8,62.5,65.4c42.8-2.2,49.2,2.1,69.6,47.5
					c15.1,33.7,1.5,59.7-8.7,93.4c-6.2,20.5-20.8,41.4-19.3,62.5c4,54.8,249.1,77.8,280.2,58.7c11.8-7.3,28.5-30.7,4-35.6
					c9.5-37.2-96.6-140.6-123.6-169.2c-22.7-24.1-95.4-43.3-100.8-74.8c-6.7-38.6,32.5-69.1-5-106.5c-25-24.9-79.4-6.7-83.5-46.6
					c-3.6-35.1,12.3-71.1,38.1-92.7c21.2-17.7,39.3-29.4,44.2-57.2c3.8-21.3-1.5-43.1-4.5-64c-0.7,9.6-2.1,19.1-4,28.4l2-44
					c-27.7,22.4-22,29.5-30.3,61.5c-6.2,24-42.9,73.3-66.8,77.3c1.2-23.8-2.8-54.1,6.3-76.1c10.5-25.6,47.5-42.7,36.3-74.2
					c-23.9,6.9-61.8,48-75.1,68.9c-15.7,24.6-31.1,80.9-22.1,110.7c5.7,18.9,35.6,42.8,15,61.7c-24.4-22.9-26-25.8-61.8-33.4
					c-18.1-3.8-34.5-7.9-46.2-22.6c-15.3-19.2-14.2-47.5-32.5-65.4C583,957.9,531.2,965.4,473.6,966z M810.8,1183.4
					c9.2-11.1,37.3,0.3,50.8,7c24.5,12.1,19.8,26.6,17.5,51.1c0.7,4.8,1.2,9.6,1.2,14.4c-15.6,0.2-58.2,0.7-68.6-9
					C805.5,1241,805.8,1189.5,810.8,1183.4z"/>
				<path class="st18" d="M877.6,1213.2l0.4,20.6C877.2,1227,876.6,1220.2,877.6,1213.2z"/>
				<path class="st18" d="M878,1233.8c0.3,2.6,0.7,5.1,1.1,7.7c-0.3,3-0.5,6.2-0.7,9.6L878,1233.8z"/>
			</g>
			<path class="st19" d="M598.1,218.3c-19.4-1.4-46.1,4-61.4,16.5c1.5-5.1-0.5-11.4,0.5-16.3c-9.5-0.7-19.3,3.2-27.2,8.2
				c0.2-18.9,4.3-42.5-21.4-41.2c-8.8,0.4-11.5,12.2-19.3,11.7c-11.3-0.7-19.6-16.8-32.8-19c0.9,5.2-2.3,12.4-1.4,17.6
				c-12.3-6.2-28.6-11.9-35.8,3.2c-11.8-10.9-40.6-37-59.3-27.1c-13.5,7.2-6,28.8-15.6,35.7c-5.7,4.1-40.1-4.2-50.4-3.7
				c-7.7,0.4-12.6,9.2-25.3,3.7c0.4-0.4-3.2,7.9-2.9,7.2c-3.4-4.3-7.6-4.8-10.4-7.3c-2.7,8.6-4,17.8-3.8,26.9
				c-29.8-5.8-17.6,8.8-28.4,25.5c-9.8,15.2-40.7,34.3-60.1,40.8c-24,8.1-62.2,1.1-81.2,26.6c-7.1,9.6-12.4,28.2,0.7,33.3
				c-7.9,0-14,4.8-20.8,8.6c2.3,1.2,7.2,8.2,10,9.7c-15.5,7.5-9.5,18.9-15.8,30.2c-6.4,11.5-39.4,44.1-8.1,50.6
				c-33.7,20-66.2,82.6-41.4,123.3c-30.2-1.5-74.8,58.2-29.8,64.7C-54.8,658.3-68,668-65.3,685.9c-9.4-0.2-22.6,0.1-28.6,8.5
				c-12.9,18.1,4.9,18,15.1,27.2c3.9,3.5,13.3,10.5,15.9,12.6c2.6,2.2,6.6,13.6,12.9,18.4c8.1,6.3,21,9,31.1,9.7
				c-1.3,4.1,1.3,12.7-0.5,17.5c22.5,8.3,20.6,11,28.8,31.8c10.8,27.3,18.6,24.8,41.1,39.8c30.3,20.2,42.7,36.4,85.6,38.4
				c10.6,0.5,58.6-3.5,63.8,0.2c7.1,5,7.2,23.8,12.4,31.3c7.7,11.3,19.1,0.4,24.6,23.4c15.6,0.7,29-14.5,41.6-19.7
				c-19.5,32.3,26.5,47,52.7,44.4c17.8-1.8,26.5-11.4,43.9-11.4c17.7,0,33.7,13.5,52.3,3.1c4.4,12.1,10,36.2,24.9,38.8
				c15.4,2.7,33.7-21.4,51.5-22.7c18.9-1.4,17.2,9.7,31.9,11.6c21.5,2.7,22.7-13.8,35-22.5c5.4-3.8-1.5-10.6,8.1-11.2
				c10.4-0.7,14,13.4,20,18.8c10.9,9.9,17.7,21.2,34.8,14.1c10,27.5,41.2,3.7,54.2-10.2c-7.2,24.5,77,25.4,48.5-30.7
				c21.4,6.8,51.7,40.6,48-10c16.8,34.7,37.9,9.7,53-3c1.1,2.7,2.4,4.8,3.4,7c2.5-5.5,9.6-9.3,12.4-13.9
				c36.6,46.4,52.4,16,66.4-19.9c0.9-2.3-4.2-7.6-2.1-12.3c9-19.7,42.5-22.2,56.1-40.5c44-59-45-85.6-90.4-93.5
				c16.9-31,32.1-91.6-18.1-102.9c42.2-42.8,59.2-88.4-14.4-123.5c5-13.7,45.1-93-6.3-56.3c-0.7-6.9-4-14.8-2.7-22.4
				c-4.7,3.6-12.1,5-16.8,10.3c-2.6-15.2-17-57.6-40.1-41.8c9-22.5,23.5-59.7-14.4-59.8c-1.3-18.9-14.9-32.6-34.1-26.7
				c1.9-16.3-15.6-25.7-27.3-12.4c8.1-43.2-29.2-95.7-62.8-46.6c-2-9-7.6-17.3-14.9-21.3c-1.3,1.8-2.6,3.5-3.9,5.3
				c-3.7-10.9-8.2-22-14.3-31.7c-3.6,0.8-6.1,3.1-7.4,6.8c-1.7-3.2-6.7-16.5-8.7-20.8"/>
			<path class="st18" d="M859.9,934.6c29.9,50.3,89.5,91.8,104.6,149.9l-0.1-1.9c21.8,35.3-2.3,99.3,1.2,140.5
				c3.8,45.4,35.9,60.9,61.2,92.7c17.2,21.7,12.2,55.5,14,82.3c2.1,30.7,13.3,62.1,36.9,84.3c26.8,25.1,65.4,24.1,100.1,30.5
				c23,4.2,47.1,9.8,60.4-12.5c10.8-18.1,2.5-36.5-8.8-50.6c-25-31.4-52.1-63.9-78.7-95.2c-44.1-51.8,3.8-63.1,32.7-103.6
				c29.5-41.2,4.9-75.9-26.8-108.2c-22-22.4-63.8-37.3-50.8-73.9c11.5-32.3,46.5-37.2,75.8-37c51.8,0.2,89.7-9.8,124.7-50.3
				c41.1-47.6,10-49.3-30.4-24.6c-33,20.2-51.8,44.2-92.9,27.2c5-10,3.1-21.6-6.4-28.8c-16-12.2-13.6-1.3-20.6,7.9
				c-8.3,10.9-9.1,20.7-20.7,29.1c-18.1,13.1-44.5,12.5-61.4,27.3c-10.2,8.9-15.7,40.7-25.7,41.4c-9.1,0.6-18.3-21.6-22.6-28.6
				c-25-40.9,6-101.2-53.6-126.1c-13.6,15.9,2,69,6.1,86.4c-38.7,8-65.7-81.6-90.8-101.1C835.3,851.1,837,896,859.9,934.6z
				 M1057.2,1144.8c19.2,11.1,56.1,32,63.7,53.2c3.6,10.1-0.5,56.5-13.4,61.3c-14.4,5.4-59.8-59.9-62.1-77.2
				C1044,1170.5,1052,1125.8,1057.2,1144.8z"/>
			<path class="st20" d="M1672.2,455.8c2.6-6,17.7-16.7,22-24.7c10-18.6,11.4-26.8,0.8-45.5c-18.2-32.1-24.5-23.9-21.3-58.3
				c1.7-18.4-0.9-47.2-9.7-62.3c-2.5-4.4-12.1-0.5-15-6.7c-4.6-9.7,3.9-24,1.9-36c-4.2-25-15.7-26.1-36.6-13.9
				c-5.5-27-31.7-46.1-46.7-68.1c-15.7-23-24.8-43.5-47.7-60.6c-11.7-8.7-27.6-13.4-39-22.1c-13.7-10.4-43.8-31.1-52.3-46.1
				c15.8-7.4,14.2-26.1,4.6-36.2c-11.9-12.7-33.5-8.8-49.2-11.8c-25.7-4.8-28.9-12.2-52.1-28c-33.2-22.7-59.8-26.1-97.4-29.3
				c3.9-36-1.2-55.8-39-25.3c-19,15.4-34.4,23.6-59.7,25.9c-19.2,1.7-35.7-5.6-52.4,8.1c-34.4-55.9-133.8-53-189.5-32.9
				c-26.8,9.7-50.4,26.1-75.1,39.3c-25.6,13.7-45.7,0.8-70.8,8.1c-0.8,16,11.7,25.5,10.6,41.5C757-7.9,734.5,9,718.2,18.9
				c-22.9,13.9-53.8,18.8-68.7,43.5c-11.5,19-3.1,24.3-20.7,32.8c-17,8.2-44.2-1.3-48.4,23c-2.1,12.3,8.7,15.7,3.2,30.8
				c-5,13.9-25.8,31.5-34,43.8c-9.6,14.7-17.7,30.6-26.7,45.6c-16.5,27.4-34.7,56.9-52.9,82.9c-16.6,23.6-31.5,24.2-61.4,26.2
				c-17.5,1.2-58.9-11.4-70.6,2c-10.8,12.4,4.6,33.5,2.3,47.3c-4.7,28.3-13.6,27.9-5.2,60.7c3.1,12.3,5.4,40,16.5,48.1
				c6.8,4.9,19.3-1.7,27.2,4.5c10,7.9,5.7,7.3,8.4,19.2c3,13.4-2,27.5,3.8,42.9c7.3,19.5,21.4,36.3,36.2,50.6
				c-15.2-1.9-31,2.1-44.2,9.6c3.3,30.6,47,75.4,76.3,82c-45.9,14.6,5.8,51.3,31.8,49.8c-1.4,2.4-2.9,4.9-4.4,7.3
				c8.8,12.4,25.5,15.6,39.5,19c-34.5,65.4,46.6,96.1,93.8,98.1c-27.6,50.5,70.2,38.1,95.8,30.5c-2.3,33.8,49.6,73,79.7,58.7
				c13.3-6.3,17.8-21.7,28.8-29.9c8.8-6.5,20.9,0.3,26.6-15.9c14.4,13,34.4,10.8,45.9-3.6c0.6-1,1.3-2,2.1-2.9c-0.7,1-1.4,2-2.1,2.9
				c-4.1,6.4-5.7,14-3.3,22.1c22.1,8.3,64.7,8.9,81.1-11.6c-24.6,47.2,88.5,17.3,102.9,1.3c-22.9,25.6,10.3,42.6,35.8,30l1-21.8
				c5.5,6.9,24.2,5.1,28.3,12.8c4,7.5-6.1,19.8-7.1,28.1c16.8,3.3,32.8-3,49.5,0.5c6.1,42.4,77.5-5,91.7-8.2
				c20.7-4.8,7.7,3.3,24.4,11.2c22.2,10.6,42.2,3.1,61.2-10.8c9.4,21.3,29,37.8,53.7,23.1c19.2-11.4,4.1-19.2,15.9-29.3
				c12.9-11.2,31.9,11.3,36.9-14.9c2.3-11.7-14.8-28.6-12.7-44.2c20-4.1,57.1-0.8,74.2-11c21.3-12.6,18.6-28.4,46.3-38.3
				c74.3-26.6,91.8-59.6,85.9-130.2c-12.1-4-1-49.5,1.3-61.5c6.6-34.4,31.6-71.3,28.8-116.1c-1.9-30.4-12.1-52.1-20.7-79.6
				C1663.3,453.1,1663.8,474.9,1672.2,455.8z"/>
			<path class="st20" d="M1126.1,959.9c-3.8,4.6-8.3,8-13.1,10.4l-0.8,18.4C1118.7,979.8,1123.3,970.2,1126.1,959.9z"/>
			<path class="st20" d="M896.5,928.5c0.7-0.9,1.4-1.9,2.1-2.9C897.9,926.5,897.2,927.5,896.5,928.5z"/>
			<path class="st20" d="M793.2,705.9c18,18.3-10,17.7-15.8,27.5c-7.3,12.1,8.9,24.8-11.2,30c14,11.1,19.6,24,25,40.8
				c-3.2,2-6.5,2.6-10.2,3.2c0.4,23.3-34.4,10.8-37.8,2.8c-6.3,19.1-22.3,5.5-35.1,6.3c-15.7,1-45.8,18.9-42-17.5"/>
			<path class="st21" d="M745.8,513.9c50.7-21.1,46.3,72.2,7.2,27.9c-7.1,13.9-26.7,15.7-37.1,5.1c30.7,28.1-53.1,38.1-59.9,2.9"/>
			<path class="st21" d="M666.4,302c27.6,34.2,110.9,19.3,52,0.2c13.1-0.5,30.4,6.4,36.6-6.9c-15.6-11.1-36.1-9.9-52.7-18.4"/>
			<path class="st19" d="M255.7,416.7c-0.6,17.2-43.1,27.2-65,23.4c-3-24.1,20.7-53.9,42.6-59.1"/>
			<path class="st19" d="M393.8,730.4c2.2,29.7-36.9,64.2-41.1,22.8c-1.3,5.8-7,11.2-8.7,15.4c-15.3-25-52.1,13.3-76.3-2.4
				c-2-1.3-1.8-10.8-4.4-13.7c-6.3-7.2-18.2-10.5-24.8-18.9c-17.4-21.9-14.9-47.4,2.4-68.7c-24.3-10-14.5-44.9,8.3-48.1"/>
			<path class="st19" d="M139.9,725.9c7,4.4,11.2,9.6,9.6,18.7c-7-0.6-13.9,3.7-21,2.6c7.2,15.1,4.1,33.8,2.5,50.1
				c-3.7-4-9.8-6.5-12.4-15.3c2.2,24.2-31.3,36.6-32.8,11.3c-15.8,5.7-56.5,1.8-44-23.7"/>
			<path class="st22" d="M1168.8,1158c-7,27.7,6.6,57.2,36.3,49.1c31.3-8.5,62.9-47,76.5-74.7c11.4-23.3,3.4-36.3-11.4-44.9
				c-1.8,0.9-3.5,1.9-5.3,2.7C1233.9,1105.5,1178.2,1120.9,1168.8,1158z"/>
			<path class="st18" d="M1241.9,960.1c-16.9-8.5-33-17.2-47.1-26.7c-27.1-18.3-49.3-39.5-36.5-73.9c7.6-20.4,23.7-37.9,28.5-57.8
				c5-20.6-2.2-33.2-20.1-44.6c-22.9,22-20.6,57.9-41.5,80.4c-10.4,11.2-22.8,16-31.9,28.9c-8.7,12.2-7.6,14.2-24.9,15
				c-49.6,2.5-48.2-34.8-76.1-63.9c-31.7-33.1-52.3-64.7-102-61.6c-13.4,25.2,37.3,71.9,50,90c14.4,20.6,19.5,43.6,30.2,65.6
				c12.4,25.6,34,49,57.1,65.2c32.7,23,67.4,36.6,103.8,52.5c2.5-2,5-3.9,7.5-5.7C1171.9,999.2,1206.4,978.8,1241.9,960.1z"/>
			<path class="st18" d="M1511.1,800.1"/>
			<path class="st18" d="M1270.2,1082.4c14.8,8.6,22.8,26.7,11.4,50c-13.6,27.7-45.2,66.2-76.5,74.7c-29.7,8.1-43.3-21.4-36.3-49.1
				c8-31.5,45.5-45.5,72.1-57.1c33-14.4,55.1-43,86.8-61.8c27.5-16.3,51.2-31.5,76.8-51.2c50.3-38.8,103.3-68.8,150.1-111.6
				c23.6-21.6,44.7-48.2,72.1-64.8c-33.9,3.4-53.6,0.8-85.4-6.7c-7.6-1.8-19.4-4.4-30.4-4.5c-48.3,38.7-97.3,75.9-153.6,103.1
				c-39.1,19-77.9,37-115.6,56.9c-35.4,18.7-70,39-103.1,63.4c-2.5,1.8-5,3.7-7.5,5.7c-74.2,57.7-147.6,162.1-58.4,239.6
				c25.2,21.9,43.4,27.8,23.3,60.6c-14.7,23.9-38.7,51.4-57.9,72.7c-27.5,30.5-67,50.5-90.6,84.3c-34,48.5,42.8,70.4,83.6,66.8
				c26.7-2.4,50.9-14.2,75.9-21.5c14.9-4.3,43.3-23,54.3-13.5c12-9.9,15.2-26.2,22.5-38.4c13-21.7,23.2-42.9,35.2-65
				c13.6-25,32.5-50.8,41-77.9c9.3-29.6,2.1-27.8,31-47.1c64.1-42.7,135.2-112.3,109.6-198.8c-7.8-26.4-26.3-52.2-46.5-69.4"/>
			<path class="st23" d="M-1861.5,923.8c-7.7,6.4-15.2,13.1-22.6,19.9c29.3-19.6,39.7-30.7,61.9-44.3
				C-1835.7,905.8-1848.7,913.1-1861.5,923.8z"/>
			<path class="st24" d="M-1298.8,1163.8c-11.6-34.6-18.9-68.3-30.9-100.1c-0.3,0.7-0.7,1.2-1.2,1.6
				c-42.1,22.7-94.4,23.2-136.3,47.6c-15.7,9.2-21.3,19.1-39.5,14.1c-10.6-2.9-13.4-14.7-27.2-16.9c-8-1.3-15.4,3.9-23.1,4.8
				c-24.9,2.9-53.9,6.4-79,3c-20.3-2.7-23.4-7.8-39.9-20.7c-17.6-13.8-9.7-7-30.3-8.9c-23.5-2.2-42.2-5.9-35.4-35.3
				c-54.9-6,14-54.1,15.2-59.8c5-22.5-77.1-50.3-97-51.5c-22.6-1.4-19,12.6-34.3,20.3c-17.2,8.7-49.3,85-70.4,85.5
				c-27.2,0.6-94.2,106.1-97.6,65.5c-0.1-1.4,0-3,0.4-4.7c-32.4,51.4-48,104.2-40.7,173.1c3.1,29.5,17.2,54.3,15.2,84.7
				c-2.2,34.2,13.2,98.7,29.5,104.6c26.5,9.5,54.4,22.2,81.7,29.2c52,13.3,112.6,16.3,165.9,13.3c81.7-4.7,162.8,10.4,244.4,7.4
				c73-2.7,120.7-27.9,178.6-68.8c31.6-22.3,34-19.2,35.6-59.5c2.2-54.9,7.3-107.7,18.9-161.6
				C-1289.3,1198.4-1289,1193-1298.8,1163.8z"/>
			<path class="st25" d="M-2025.7,1112.9c3.4,40.7,70.4-64.9,97.6-65.5c21.1-0.5,53.3-76.8,70.4-85.5c15.3-7.7,11.7-21.7,34.3-20.3
				c19.9,1.2,102,28.9,97,51.5c-1.3,5.8-70.1,53.8-15.2,59.8c-6.8,29.4,11.9,33.2,35.4,35.3c20.5,1.9,12.7-4.9,30.3,8.9
				c16.5,12.9,19.6,17.9,39.9,20.7c25,3.4,54.1-0.2,79-3c7.7-0.9,15.1-6,23.1-4.8c13.9,2.2,16.7,14,27.2,16.9
				c18.2,5,23.8-4.9,39.5-14.1c41.9-24.4,94.2-24.9,136.3-47.6c0.6-0.3,1-0.8,1.2-1.6c-8.4-22.2-19-43.4-34.9-63.4
				c-47.4-59.4-102-123.4-162-171c-68.7-54.4-178,12.9-246.2,47.7c-17.4,8.9-33.7,15-49.4,22.4c-22.2,13.6-32.6,24.7-61.9,44.3
				c-35.9,33.4-68.8,71.9-100,109c-15.8,18.7-29.6,37-41.2,55.5C-2025.7,1109.9-2025.9,1111.5-2025.7,1112.9z"/>
			<path class="st25" d="M-1390.5,1081.4c57.9,17.6,22.6,37.7,22.6,37.7s-65.4,62.9-37.7,65.4s20.1,37.7,47.8,32.7
				c27.7-5,113.2-15.1,113.2-15.1s35.2-25.2,50.3-22.6c15.1,2.5,30.2-7.5,40.2,15.1c10.1,22.6,60.4,37.7,80.5,40.2
				c20.1,2.5,22.6-30.1,45.2-25.2c-36.3-67.4-158.4-156-158.4-156l-57.9-40.2l-186.2,32.7c0,0-15.4,11.5-38.6,28.9
				c-0.4,0.3-0.9,0.6-1.3,1C-1452.7,1072.8-1424.2,1071.1-1390.5,1081.4z"/>
			<path class="st23" d="M-1025.7,1214.7c-0.8-1.7-1.7-3.4-2.6-5c-22.6-4.9-25.1,27.7-45.2,25.2c-20.1-2.5-70.4-17.6-80.5-40.2
				c-10.1-22.6-25.2-12.6-40.2-15.1c-15.1-2.5-50.3,22.6-50.3,22.6s-85.5,10.1-113.2,15.1c-27.7,5-20.1-30.2-47.8-32.7
				s37.7-65.4,37.7-65.4s35.2-20.1-22.6-37.7c-33.7-10.2-62.2-8.6-80.2-5.4c-63.3,47.2-182.4,135.5-211.6,153.8
				c-40.2,25.2-40.2,276.7-40.2,276.7c17.6,80.5,540.9,37.7,540.9,37.7s244-22.6,242.8-85.5S-993,1282.6-1025.7,1214.7z"/>
			<path class="st26" d="M1808.2,1859.2c-31.5-71.2-69.6-137.5-87.8-213.6c-18.2-77.8-13.2-157.3-18.2-236.8
				c-1.3-22.2-2.3-44.2-3-66.1c-76.7-13.2-257.1,75.8-257.1,75.8l-241.5,42.8c0,0-45.3,78-40.2,57.9c5-20.1-5-32.7,0-47.8
				c5-15.1-42.8-17.6-42.8-17.6l-30.2,55.3c0,0-133.3,20.1-143.4,0c-10.1-20.1,52.8-67.9,52.8-67.9s-75.5-83-103.1-55.3
				c-27.7,27.7,30.2,90.6,30.2,90.6h-67.9h-83v-35.2h-78l-75.5,42.8c0,0-52.8,37.7-223.9,22.6c-171.1-15.1-40.2-12.6-55.3-30.2
				c-15.1-17.6-45.3,0-45.3-22.6c0-22.6-669.2,5-669.2,5h-623.9l-30.2,47.8l-125.8-22.6l-42.8-5l-105.7,27.7l-115.7-15.1l-37.7-32.7
				c0,0-45.3-27.7-73-25.2c-27.7,2.5,0,45.3,0,45.3l-52.8-20.1v47.8h-143.4c0,0-7.5-105.7-45.3-95.6c-37.7,10.1-37.7,50.3-37.7,50.3
				h-296.8v496.8H1908C1875.6,1924.2,1842.3,1891.1,1808.2,1859.2z"/>
			<path class="st27" d="M1808.2,1859.2c-24.6-55.7-53.3-108.4-73.4-165.3h-3838.5v264.1H1908
				C1875.6,1924.2,1842.3,1891.1,1808.2,1859.2z"/>
			<path class="st20" d="M814.2,801c7.1,2.7,14,5.1,21,7.1c-0.2-0.7-0.4-1.4-0.6-2.2C841.6,805.7,828.1,802.4,814.2,801z"/>
			<path class="st20" d="M1995.7-25.3c-16-15.6-36.8-25.7-58.8-24.9c9.3-11.5,13-69.3,9.4-85.9c-18.4-86.5-57.9-41.6-104.7-65.1
				c12.1-92.5-55.5-181-144.3-214.9c-123.9-47.3-242.3-79.9-376.3-80.9c-71.4-0.6-141.2-22.4-211.5-0.1
				c-46.5,14.8-98.5,60.6-144.5,65.8c-28,3.2-51.2-19.2-79.4-7.3c-45.3,19.1-31.9,57.7,4.5,77.9c-10.7,10.2-27.4,12.6-40.4,19.4
				c-48.7,25.5-53.5,24.5-80.4,75.7c-28.8,54.8-35.3,102.2-100.4,96.2c2.5,6,1.5,18.9,4,24.8c-20.3,6.9-57.5-3.6-70,19.6
				c-15.2,28.4,23.2,42.5,45.2,49.2c-23.7,18.9-55.7,38-55.9,70c-35.4-26.6-76.9-2.8-70,41.1c-31.4,2.9-79.6,18.8-107.1,35.4
				c-51.8,31.3-28.7,27.2,12.1,71.9c-26.9,26.7-77.2,45.2-105.7,73.7c18.1,8.3,38.8,9,58.5,12.1c-33.7,59.7-55.6,126.2-38.5,194.8
				c9.6,38.4,38.4,66.6-29.9,71.7c1.2,30.7,37.8,36.8,63.6,43.3c-10.2-0.5-19.1,5.4-28.4,7.3c12.7,89.7,97.5,32.7,139.2,50
				c23,9.5,45.9,63.3,71.6,80c35,22.7,73.1,24.1,110.5,46.1c-14.3,22.5-48.6,24.8-49.4,53.5c36.7,11,80.1,3.8,119.5,6.8
				c-32.1,57.8,112.1,87.8,96.7,26.3c-6.9-2-13.9-4.4-21-7.1c13.9,1.4,27.4,4.7,20.4,4.9c0.2,0.7,0.4,1.5,0.6,2.2
				c28.6,8.2,56.4,9.9,88,3.2c3.9-0.8,41.8-15.8,47.7-15.4c18.6,1.4,28.7,25.5,50.8,29.3c18.4,3.2,39.3-6.5,56.7-4
				c24.8,3.6,35.5,25.4,64.6,25.4c33.2,0,100.3-24.2,105.6-60.5c23.1,15.6,67.4,48.7,90.3,26.7c-9.1,7.8,47.4,9.8,71.5,7.1
				c18.8-2,30.8-6.3,48.8-6.2c53.5,0.4,109.1,12.5,163.6,13.1c44.8,0.5,83.1,10,116.6,10.7c0.8-4,1.6-8,2.5-12
				C1805.3,522.3,1904.8,253.3,1995.7-25.3z"/>
			<polygon class="st3" points="-2101.2,1878.8 -1469.4,1878.8 -1478.6,1855.5 -2101.2,1855.5 			"/>
			<polygon class="st3" points="-271.1,1855.5 -983,1855.5 -996.8,1878.8 -261.9,1878.8 			"/>
			<polygon class="st28" points="886.1,1855.5 174.2,1855.5 160.4,1878.8 895.3,1878.8 			"/>
			<rect x="-2103.7" y="1622.2" class="st29" width="3775.9" height="71.7"/>
			<rect x="-2103.7" y="1585.7" class="st30" width="3775.9" height="35.2"/>
			<path class="st28" d="M1806.6,1855.5h-424.9l-13.8,23.3h461.1c-6.9-6.6-13.8-13.1-20.7-19.6
				C1807.7,1858,1807.1,1856.8,1806.6,1855.5z"/>
			<line class="st31" x1="-1805.6" y1="1621" x2="-1805.6" y2="1692.7"/>
			<line class="st31" x1="-1025.7" y1="1621" x2="-1025.7" y2="1692.7"/>
			<line class="st31" x1="-296.2" y1="1621" x2="-296.2" y2="1692.7"/>
			<line class="st31" x1="433.3" y1="1621" x2="433.3" y2="1692.7"/>
			<line class="st22" x1="1162.9" y1="1621" x2="1162.9" y2="1692.7"/>
			<path class="st29" d="M1715.7,1622.2h-43.4v71.7h62.6c-5.6-15.8-10.5-31.8-14.4-48.4C1718.6,1637.8,1717,1630,1715.7,1622.2z"/>
			<path class="st30" d="M1672.3,1585.7v35.2h43.2c-2.1-11.7-3.7-23.4-5-35.2H1672.3z"/>
			<line class="st22" x1="1970.4" y1="1621" x2="1970.4" y2="1692.7"/>
			<path class="st22" d="M1546.5,1442.4c-1.6,9-8.9,19.3-12.9,29.8c14.5,1.7,29.3-3.4,42.8-0.9c0.2,4.2,0.4,8.4,0.6,12.7
				c3.6,1.1,6,0.1,9.8-1.4"/>
			<g>
				<path class="st32" d="M1239.5,1314.7c-22.4,8.5-8.8,18.2-8.8,18.2s25.3,30.3,14.6,31.6s-7.8,18.2-18.5,15.8
					c-10.7-2.4-43.8-7.3-43.8-7.3s-13.6-12.1-19.5-10.9s-11.7-3.6-15.6,7.3c-3.9,10.9-23.4,18.2-31.2,19.4
					c-7.8,1.2-8.8-14.5-17.5-12.1c14.1-32.5,61.3-75.3,61.3-75.3l22.4-19.4l72.1,15.8c0,0,6,5.6,15,13.9c0.2,0.2,0.3,0.3,0.5,0.5
					C1263.6,1310.6,1252.5,1309.8,1239.5,1314.7z"/>
				<path class="st33" d="M1098.3,1379.1c0.3-0.8,0.6-1.6,1-2.4c8.7-2.4,9.7,13.4,17.5,12.1c7.8-1.2,27.3-8.5,31.2-19.4
					c3.9-10.9,9.7-6.1,15.6-7.3s19.5,10.9,19.5,10.9s33.1,4.9,43.8,7.3c10.7,2.4,7.8-14.6,18.5-15.8s-14.6-31.6-14.6-31.6
					s-13.6-9.7,8.8-18.2c13-4.9,24.1-4.1,31-2.6c24.5,22.8,70.6,65.4,81.9,74.2c12,9.4,14.8,84.1,15.4,117.5c0.2,9.8-7.1,16-7.1,16
					c-3,16.9-23.5,20.7-55.5,19.9c-32-0.9-68.2-6.4-88-8.1c-5.8-0.5-58.6,6.5-58.6,6.5s-76.2-29.2-75.7-59.6
					C1083.5,1448.2,1085.6,1411.8,1098.3,1379.1z"/>
			</g>
			<path class="st31" d="M1086.1-270.8c-17.3,33.9-154.3,90.5-181.8,52.5C875.8-257.9,943-325.9,968.8-350
				c-47.4,5-78.7-0.1-97.7-27.7"/>
			<path class="st31" d="M910-84.6c-70.6,89,25,96.8,80.9,36.8c3.1,39.4,64.2,14.7,80.1-6.7"/>
			<path class="st31" d="M1362.8-255.7c-8,22.5-21.7,43.6-19.4,69.7c29.7,2.7,41.5-27.4,45.4-54.4c28,26,153.6,114.7,145.8,10.3
				c33,28,87.3,67.5,99.9-5.4"/>
			<path class="st31" d="M1403.1,31.1c29.6,36.7,109.8,120.1,158.6,73.8c37.1-35.2-11.1-65.4-22.5-104.1
				c59.3,43.1,138,24.3,60.1-50.2"/>
			<path class="st22" d="M1403.1,509.1c8.7,13.6,37.8,53.9,60,20.3c46.1,52.2,109.8,47.6,107.1-29.9c52.2,54.1,138.6-19,151.1-77.1
				c8.5-39.5,13.7-35.1-21.7-48.7c-21.6-8.3-63.9,0-85.2,4.6"/>
			<path class="st22" d="M1237.1,398.4c-29.3,24.7-41.9-12-41.4-38.7c-6.8,15-44.4,48-63.2,33.2c-38-30,46.4-85.9,64.4-95.1"/>
			<path class="st22" d="M663.5,217.2c-23.7,11.3-51.2,29.4-44.5,59.6c23.6,7.4,47.9,0.4,68.9,5.3c24.1,5.7,34.8,42.7,71.2,5.5"/>
			<path class="st22" d="M744,458.7c-56.4,43.6,52.6,85.6,94.6,50.8c-1.7,52.4,72.1,106.3,105.3,50.1
				c33.8,72.1,86.4,18.4,107.1-30.5"/>
			<path class="st22" d="M718.8,599.6c0.7-0.5-10.3,4.1-19.3,4.3c-9.6-47.9-69.7,21.2-97.4-19.1c5.1-9.2,11.4-10.5,21.1-15.4"/>
			<g>
				<path class="st22" d="M999.4,1549.5c-3.4,5.2-11.8,1.5-15.3-3.6s-6.3-12-12.4-13.2c-5.3-1.1-13.5,1.2-14.3-4.2
					c-0.3-2,1.1-3.9,1.6-5.9c2-7.4-7-12.5-13.9-15.7s-14.1-12.2-8.4-17.4c1.5-1.3,3.5-2,4.9-3.4c5.3-5.9-6-17-0.3-22.5
					c1.8-1.7,4.5-1.9,6.7-3.1c8.6-4.5,3.6-17.5,5.2-27.1c1.8-10.8,15.2-17.8,25-13.1"/>
				<path class="st34" d="M907.8,1194.6c1.7,0,5.9,0,7.6,0c5.1,5.8,11.3,10.5,15.2,17.7c12.7-5.5,41.8-4.1,45.2,11.7
					c18,1.5,106.9,18.9,92.1,49.3c52.7-35.5,33.8,50.1,79.7,55.5c0.8,10.9,4.7,19.5,8.8,29.8c3.9-0.8,9.1,0.9,13.2-0.3
					c6.8,51.8-2.7,37.7-38.8,54.1c14,11.7,28.3,30.8,24.7,49.9c-2.8,0-5.7,0.3-8.5,0.9c46.6,50.2-46.9,68.3-78.6,73.4
					c8.4,8.6,4.4,9.1,6.1,18.9c-72.4,17.3-151.8-0.8-216.9-11.4c-8.5,23.4-35.3,2.1-40.9-13.4c-4.8,9.7-13.2,17.1-23.1,12.4
					c4.4,23.3-26.4-0.1-35.5-2.7c-42.4-12.1-51.3,15.8-55.4-35.2c-10.6,0.1-22,0.5-32.1-0.8c-1-18.4,0.1-33-5.3-44.9
					c-2.3-5.2-9.7-5.2-12.9-14.1c-0.6-1.8,6.4-15.8,7.4-17.8c-46.1-20.5-2.4-30.2,18.1-48.6c-5.8-16.6-4.2-33,16.9-28
					c-26.1-36.4,31.7-35.9,41.2-48.1c5-6.4-3.8-17.2,5.7-24.5c4.8-3.8,23.8-0.4,29.5-0.1c20.3,1.1,37,8.2,37.9-20.3
					c5.9,2.1,14.3,0.8,20.4,4.9c-1.6-7,1.4-15.5,0.4-22.5c4.9,1.6,11.7-0.3,17.1,2.1c-3.5-26.5,18.3-42.8,33.1-15
					C870.9,1195.1,885.2,1197,907.8,1194.6z"/>
				<path class="st22" d="M887.6,1267.8c-11.7,0-23.5-0.2-35,0.3c-0.9,13.1,12.9,16.1,23.8,15.9c-7.8,11.9-21.1,19.4-31.3,29
					c8.8,0.4,18,0.3,26.7,0.6c-10.7,13.4-34.3,36-9.1,40.1c14.6,2.4,25.8-9,34.3-19.4c12.4,10.5,62.3,32.3,69,11.7"/>
				<path class="st22" d="M1059.4,1401.7c-5.5-5.9-13.6-7.3-22.4-4.7c-0.1,8.9,5.2,14.3,14.1,17.5c-24.4,13.6,4.8,9.8,9.7,14.8
					c10.3,10.5,14.5,34.4,34,17.9"/>
				<path class="st22" d="M872.4,1464.9c-17.2,0-76.7,2.3-52.5-28.5c17.9,17.4-21.9,31.2-37.5,27.6c-1.6-11.3-3.4-24.5,4.5-32.5
					c-12.9-3-33.7-10.6-20.6-24.7"/>
			</g>
		</g>
		<g class="st0">
			<g>
				<path class="st35" d="M1114.8,1484.6c-20.7,1.5-332.7-80.4-316.2-82.9c10-56.8,306.3-178.9,389-65.7"/>
				<path class="st36" d="M1115,1486.6c1.1-0.1,1.9-1.1,1.9-2.2c-0.1-1.1-1.1-2-2.2-1.9c-8.4,0.6-74.7-14.7-161.2-37.2
					c-79.2-20.6-142.8-38.9-152.7-43.8c5.7-27.5,87.2-76.7,184.9-99.3c43.2-10,83.4-13,116.2-8.7c38.3,5,66.6,19.7,84.1,43.7
					c0.7,0.9,2,1.1,2.9,0.4c0.9-0.7,1.1-2,0.4-2.9c-18.2-24.9-47.4-40.1-86.9-45.3c-33.3-4.4-74-1.4-117.7,8.8
					c-44.1,10.2-90.2,27.6-126.7,47.6c-35.5,19.5-57.6,39.2-61.2,54.4c-0.8,0.6-0.9,1.5-0.9,2c0.2,1.9,0.4,3.7,48.5,17.6
					c27.4,7.9,64.4,18,104.2,28.4C1023.8,1467.9,1104.4,1487.4,1115,1486.6C1115,1486.6,1115,1486.6,1115,1486.6z"/>
			</g>
			<g>
				<path class="st37" d="M906.8,1710.5c0,0,12.5-2.8,32.6-8.6c0,0,238.5-200.2,240-203.3c8.6-17.1,16.5-34.8,21.9-53.3
					c2.5-8.6,4.3-17.4,6.6-26.1c1.1-4.4,2.2-8.9,2.8-13.4c0.8,2.6,6.7,33.9,5.3,19.4c2,19.9,1.9,42.4-1.1,67.8
					c-18.1,153.9-308,218.7-308,218.7s-72.2,8.7-71.2-5C839,1718.7,906.8,1710.5,906.8,1710.5z"/>
				
					<linearGradient id="SVGID_3_" gradientUnits="userSpaceOnUse" x1="20409.6914" y1="640.4669" x2="20815.6094" y2="640.4669" gradientTransform="matrix(-0.9956 9.381036e-02 9.381036e-02 0.9956 21487.1113 -1010.084)">
					<stop  offset="0" style="stop-color:#FFFFFF"/>
					<stop  offset="1" style="stop-color:#000000"/>
				</linearGradient>
				<path class="st38" d="M836.8,1710.1c-1-1-1.5-2.1-1.4-3.4l0.2-2.4l0.6,2.3c3.1,11.4,69.1,3.7,70.6,3.5c0.6-0.1,13.1-3,32.4-8.6
					c5.1-4.3,237.3-199.2,239.9-203.1c10.5-20.8,17.2-37.2,21.9-53.2c1.6-5.3,2.9-10.8,4.1-16.1c0.8-3.3,1.6-6.6,2.4-9.9
					c1-3.9,2.1-8.6,2.8-13.4l0.3-1.9l0.5,1.8c0.2,0.7,0.8,3.7,1.6,7.3c0.9,4.2,2.2,10.6,3,13.8c0-0.4-0.1-1-0.1-1.6l0.8-0.1
					c2.1,21.2,1.7,44-1.1,67.9c-4.1,35.2-23,68.6-55.9,99.4c-26.3,24.6-61.7,47.4-105.1,68c-73.9,35.1-146.6,51.5-147.4,51.7
					c-0.6,0.1-4,0.5-9.1,1C880.5,1714.7,844.2,1717.2,836.8,1710.1z M1211.9,1413.3c-0.4-2-0.8-3.9-1.1-5.2c-0.7,4.1-1.6,8-2.5,11.4
					c-0.8,3.3-1.7,6.7-2.4,9.9c-1.3,5.3-2.6,10.8-4.1,16.2c-4.7,16-11.5,32.5-22,53.3c-1.5,3.1-230.4,195.2-240.2,203.4l-0.2,0.1
					c-19.8,5.8-32.5,8.6-32.6,8.6l0,0c-2.6,0.3-58.9,7-69.8-1.7c0.1,0.1,0.2,0.2,0.3,0.3c9.4,8.9,69,1.9,69.5,1.8
					c0.7-0.2,73.3-16.6,147.2-51.6c68.1-32.3,151.2-87.4,160.6-166.8c2.6-22.2,3.1-43.5,1.5-63.5
					C1215.5,1429.4,1215,1428,1211.9,1413.3z"/>
			</g>
			<path class="st35" d="M931.9,1228c0,0,87.5-27.9,118,0.6c29,27.2,93.8,38.9,100,40l-6.2,18.8c0,0,0.2,0.1,0.4,0.2l-0.3,0.9
				c0,0,60.7,33.8,71.8,132c0.1,1.2,0.3,2.4,0.4,3.6c0,0,0,0.1,0,0.1c1.4,14.6-4.5-16.8-5.3-19.4c-0.6,4.5-1.7,9-2.8,13.4
				c-2.2,8.7-5.1,17.2-6.6,26.1c-19.5,115.7-262,256.5-262,256.5c-20,5.8-32.6,8.6-32.6,8.6s-67.8,8.1-71.1-3.8
				c0.1-1.9,1.6-4.1,4.8-6.9c-3.2,2.8-4.7,5-4.8,6.9c-0.6-2.1,0.8-4.7,4.7-8.1l-5.6,4.2c0,0-25.5,8.1-19.4-6.6l-4.1-6.3l9-20.2
				l-89.3,18.2c-20.7,3-36.2,3.5-34.6-2.1l0.6-1.2c-0.3,0.4-0.5,0.8-0.6,1.2l-0.2,0.4c0,0-18.7,6.1-18.9-3.5l-0.3,0
				c0,0-9.1,0.9-10.5-11c-0.9-12.4,6.3-37.6,37.4-88.2C767.8,1478.7,931.9,1228,931.9,1228z"/>
			<path class="st35" d="M1064.1,1244.4c-78.6-51.8,9.1-133.8,9.1-133.8s172.9-75.5,200.2,73s-102.4,131.7-102.4,131.7
				S1142.7,1296.2,1064.1,1244.4z"/>
			<path class="st37" d="M1212.7,1102c0,0-12.5-3.4-13.1,3.9c-0.5,7.3,28,15.5,37.1,47.3c9,31.8,3.3,86.7,3.3,86.7
				s-27.9,63-65.9,70.2c-1.6,0.3-4.9-0.4-4.4,0.9c0.1,0.3,3.3,4.3,4.9,4.4c14.8,1.2,92.4,3.5,102.6-75.8c2-15.4,1.4-33.9-2.7-56.2
				c-8.1-44-36.2-69.9-62.7-81.7L1212.7,1102z"/>
			<path class="st36" d="M817.5,1698.1c0.9-0.1,1.6-0.7,1.8-1.7c0.2-1.1-0.5-2.2-1.6-2.4c-4.3-0.8-4.6-2.6-4.7-3.1
				c-0.6-2.9,1.9-12.7,37.4-40.7c19.8-15.7,40.4-29.5,40.6-29.6c0.9-0.6,1.2-1.9,0.6-2.9c-0.6-0.9-1.9-1.2-2.9-0.6
				c-0.2,0.1-20.9,14-40.9,29.8c-41.3,32.7-39.4,41.8-38.8,44.8c0.5,2.3,2.2,5.2,8,6.4C817.1,1698.1,817.3,1698.1,817.5,1698.1z"/>
			<path class="st36" d="M718.2,1692.8c0.3,0,0.6-0.1,1-0.1c10.9-1.1,25.7-3.4,43.8-7c30.9-6.1,61.5-13.7,61.8-13.7
				c1.1-0.3,1.8-1.4,1.5-2.5c-0.3-1.1-1.4-1.8-2.5-1.5c-0.3,0.1-30.8,7.6-61.6,13.7c-59.2,11.6-63.6,6.8-63.9,6.2l0,0
				c0,0,0-1.3,4-4.6c0.9-0.7,1-2,0.3-2.9c-0.7-0.9-2-1-2.9-0.3c-3,2.4-6.8,6.1-5.1,9.6C696,1692.1,699.8,1694.5,718.2,1692.8z"/>
			<path class="st36" d="M688,1691.2c4.3-0.4,8.2-1.6,9-1.9c1.1-0.4,1.7-1.5,1.3-2.6c-0.4-1.1-1.5-1.7-2.6-1.3
				c-5.2,1.7-13.5,2.9-15.6,0.3c-1.3-1.7-0.3-5.6,2.7-10.9c0.6-1,0.2-2.2-0.7-2.8c-1-0.6-2.2-0.3-2.8,0.7c-4.2,7.2-5,12.3-2.4,15.5
				C679.2,1691.2,683.8,1691.6,688,1691.2z"/>
			<path class="st35" d="M696.4,1685.8c0.1-0.4,0.3-0.8,0.6-1.2L696.4,1685.8z"/>
			<path class="st37" d="M884.3,1619.7c-30.8,19.2-58.5,44.7-61.2,48.1c-38.6,7.8-65.4,14.3-65.4,14.3l77.3-67.8
				C844.1,1615.6,858.9,1619,884.3,1619.7z"/>
			<path class="st36" d="M1196.2,1317.3c7.5-0.7,16.1-2.2,25-5c23.2-7.4,52.2-26,58.2-72.3c2.1-16.5,1.2-35.6-2.7-56.8
				c-8-43.5-30.3-71.8-66.2-84.1c-30.1-10.3-64.4-8.1-93.9-4.6c-18.9,2.3-39.3,12.1-56,27.1c-17.1,15.3-28.4,33.8-31.9,52.2
				c-5.2,27.8,8.3,51.9,38.2,68c31.3,16.8,58,22,79.4,15.4c19.7-6.1,27.2-20,27.5-20.6c0.5-1,0.1-2.3-0.9-2.8
				c-1-0.5-2.3-0.1-2.8,0.9c-0.1,0.1-7.1,13.1-25.2,18.6c-20.2,6.2-45.8,1.1-76.1-15.1c-36.1-19.4-39.6-45.2-36.1-63.6
				c6.8-35.9,46.2-71.3,84.3-75.9c29-3.5,62.7-5.7,92,4.4c34.9,12,55.7,38.5,63.5,81c3.8,20.8,4.7,39.5,2.6,55.5
				c-4.6,35.4-23.1,58.6-55.2,68.9c-24.1,7.7-47.3,4.9-47.5,4.8c-1.1-0.1-2.2,0.7-2.3,1.8c-0.1,1.1,0.7,2.2,1.8,2.3
				C1172.6,1317.3,1182.5,1318.5,1196.2,1317.3z"/>
			<path class="st36" d="M898.5,1714.7c5.2-0.5,8.6-0.9,8.7-0.9c0.1,0,0.1,0,0.2,0c0.5-0.1,53.2-12,114.2-37
				c35.9-14.7,67.6-31,94.3-48.5c32.7-21.4,57.9-44.5,74.9-68.9c15.7,10.7,26.2,14.3,32.1,10.9c3.1-1.8,4-5,4.2-7l5.6-1.4
				c3.1,0.7,5.1-0.4,6.4-1.4c5.5-4.6,4.3-17.8,4.2-19.3c0-0.1,0-0.1,0-0.2c-0.1-0.6-11.7-60.3-25-115.2
				c-5.1-53-24.6-87.7-40.2-107.5c-14.1-18-27.3-27.1-31.7-29.8l6.1-18.4c0.2-0.6,0.1-1.2-0.2-1.7c-0.3-0.5-0.8-0.9-1.4-1
				c-0.7-0.1-69.7-11.8-99.4-39.5c-31-29-116.4-2.2-120-1.1c-0.5,0.1-0.8,0.4-1.1,0.8c-1.6,2.5-164.9,251.9-228.1,354.7
				c-31.8,51.6-43.6,84.6-35.3,98c3.8,6.1,10.2,5.5,10.4,5.5c1.1-0.1,2-1.1,1.9-2.2c-0.1-1.1-1.1-2-2.2-1.9c-0.2,0-4.2,0.3-6.6-3.6
				c-4.1-6.8-5.1-28,35.3-93.6c61.6-100.2,218.4-339.9,227.6-353.9c8.3-2.5,87.4-25.7,115.3,0.4c27.8,26,86.4,37.9,99.1,40.2
				l-5.8,17.7c-0.3,0.9,0.1,2,1,2.4c0.2,0.1,15.6,8.9,32.1,29.8c15.2,19.3,34.3,53.3,39.2,105.3c0,0.1,0,0.2,0,0.3
				c13,53.8,24.4,112.3,24.9,115c0.5,4.8,0.1,13.3-2.7,15.7c-0.5,0.4-1.4,0.9-3.1,0.4c-0.3-0.1-0.7-0.1-1,0l-7.6,1.8
				c-1,0.2-1.7,1.2-1.6,2.2c0,0,0.2,3.5-2.2,4.9c-2.1,1.2-9.1,2.4-29.4-11.9c-0.5-0.3-1-0.4-1.6-0.3c-0.5,0.1-1,0.4-1.3,0.9
				c-38,55.6-112.6,94.6-168.5,117.6c-59.4,24.4-110.9,36.2-113.5,36.8c-1.4,0.2-17.2,2-33.3,2.5c-30.4,1-34.7-3.3-35.3-4.6
				c-0.6-1.3,0.9-3.5,4-6.2c0.9-0.7,1-2,0.2-2.9c-0.7-0.9-2-1-2.9-0.2c-1.8,1.5-7.2,6.2-5.1,11c1.6,3.6,7.3,8.2,39.3,7.1
				C882.8,1716,892.1,1715.3,898.5,1714.7z"/>
			<g>
				<path class="st35" d="M998.9,1270.4c0,0-54-62.3-169.8-55.6l-50.3-77.3c0,0-77.1-28.5-63.9,130.1l-17.5,5.1l2.9,19
					c0,0-126.3,98.5-39.5,213S898.7,1618,898.7,1618s134.8-25.5,147.8-36l16.8-17.2l-15.6-30.5c0,0,19.1-50.4,19.9-108.9l14.1-3.4
					l-10.9-15.4c0,0,54.5-81.3,43.3-130.7C1114.1,1276,1135.8,1266.6,998.9,1270.4z"/>
				<path class="st36" d="M898.7,1620c-0.4,0-38.6,0.2-86.9-13.8c-28.4-8.2-54.7-19.5-78.2-33.8c-29.4-17.8-54.4-40.2-74.4-66.5
					c-20.1-26.5-30.5-54.3-30.9-82.8c-0.3-22.8,5.7-45.9,17.9-68.9c18.7-35.1,46.4-59,51.9-63.5l-2.7-17.9c-0.2-1,0.5-2,1.5-2.3
					l15.9-4.6c-5.2-64.7,3.9-106.4,27-124c18.5-14.1,38.9-6.8,39.7-6.5c0.4,0.2,0.8,0.4,1,0.8l49.6,76.3
					c59.7-3.2,102.6,12.1,128.2,25.6c24.9,13.1,38.4,26.8,41.4,30.1c115.6-3.2,116.9,2.8,117.6,5.7c0.3,1.2-0.2,2.1-0.9,2.8
					c4.2,20.8-1.8,49-17.9,83.8c-10.5,22.7-22.1,41.2-25.2,45.9l10.1,14.2c0.4,0.6,0.5,1.3,0.2,1.9c-0.2,0.6-0.8,1.1-1.4,1.3
					l-12.5,3c-1,53.4-17.2,100.2-19.7,107.1l15.2,29.7c0.4,0.8,0.3,1.7-0.4,2.4l-16.8,17.2c-0.1,0.1-0.1,0.1-0.2,0.2
					c-13.2,10.7-143.2,35.4-148.7,36.4c-0.1,0-0.1,0-0.2,0C898.8,1620,898.8,1620,898.7,1620z M1060.8,1564.4l-14.9-29.1
					c-0.3-0.5-0.3-1.1-0.1-1.7c0.2-0.5,19-50.7,19.7-108.2c0-0.9,0.7-1.8,1.6-2l11.1-2.7l-9.1-12.9c-0.5-0.7-0.5-1.6,0-2.3
					c0.5-0.8,53.9-81.2,43-129.1c-0.1-0.6,0-1.1,0.3-1.6c-4.7-1.7-25.3-4.8-113.5-2.3c-0.6,0-1.2-0.2-1.6-0.7
					c-0.1-0.2-13.7-15.6-41.1-30c-25.3-13.3-67.8-28.4-127.1-24.9c-0.7,0-1.4-0.3-1.8-0.9l-49.9-76.7c-3.4-1-20.2-5.3-35.2,6.1
					c-15.2,11.6-32,42.2-25.3,122.1c0.1,1-0.5,1.9-1.5,2.1l-15.7,4.6l2.6,17.2c0.1,0.7-0.2,1.5-0.8,1.9
					c-0.3,0.2-31.5,24.8-51.8,62.9c-27.1,50.9-22.8,100.4,12.7,147.2c44.5,58.7,106.3,86.1,150.3,98.8
					c46.1,13.3,82.8,13.6,85.7,13.6c37.4-7.1,135.9-27.1,146.6-35.5L1060.8,1564.4z M998.9,1270.4L998.9,1270.4L998.9,1270.4z"/>
			</g>
			<path class="st36" d="M933.3,1517c5.1-0.5,8.9-5,8.6-10.1c-0.4-5.2-4.9-9.1-10.1-8.8l-57.6,4.2c-5.2,0.4-9.1,4.9-8.8,10.1
				c0.4,5.2,4.9,9.1,10.1,8.8l57.6-4.2C933.2,1517,933.2,1517,933.3,1517z"/>
			<path class="st36" d="M717.6,1443.3c1-0.1,1.9-0.3,2.8-0.7c4.8-2.1,7.1-7.6,5-12.4l-16.1-37.7c-2.1-4.8-7.6-7.1-12.4-5
				c-4.8,2.1-7.1,7.6-5,12.4l16.1,37.7C709.6,1441.5,713.6,1443.7,717.6,1443.3z"/>
			
				<ellipse transform="matrix(0.9956 -9.381036e-02 9.381036e-02 0.9956 -133.059 90.7198)" class="st37" cx="898.4" cy="1460.6" rx="23.5" ry="18.6"/>
			<path class="st37" d="M902.7,1615.5c0,0,42.7-2.2,54-29.3c13.6-32.3-49.8-41.2-49.8-41.2s-19.3,0.6-72.8-16.1
				c-53.5-16.7-113.5-43.6-113.5-43.6s-37.4-37.5-49.8-54c-9-11.8-21.8-20.4-27.1-18.7c-4.4,1.5-12,1.8-9.3,30.6
				c0,0,19.2,75.5,92.5,123C803.5,1615.6,902.7,1615.5,902.7,1615.5z"/>
			
				<ellipse transform="matrix(0.9812 -0.1929 0.1929 0.9812 -252.1325 170.8115)" class="st37" cx="751.3" cy="1380.4" rx="18.6" ry="21.2"/>
			<path class="st37" d="M1018.4,1362.2c3,4.3,5.4,10.8,11.6,10.5c3.3-0.1,2.8,34.9,6,34.5c54.6-7,89.9-135.9,53.9-120.8
				c-32.7,6.3-61.7,27.6-79.9,40.3c4.6,2.3,10.6,2.8,15.6,1.3c1.8,1.7-0.3,4.2-2.6,5.3c-2.3,1.2-5.3,2.1-5.9,4.2
				c-0.9,2.7,2.7,5,4.9,7.3C1027,1350.2,1025.5,1359,1018.4,1362.2z"/>
			<g>
				
					<ellipse transform="matrix(0.4668 -0.8843 0.8843 0.4668 -939.1246 1480.5559)" class="st37" cx="758.3" cy="1519.1" rx="52.9" ry="66.2"/>
				<path class="st36" d="M732.6,1567.8c-16-8.5-28.5-21.4-35.1-36.5c-6.6-15.3-6.5-30.9,0.4-43.9c6.9-13.1,19.7-22,36-25.1
					c16.2-3.1,33.9-0.1,50,8.3c33.3,17.6,48.8,53.7,34.7,80.5c-6.9,13.1-19.7,22-36,25.1c-2.1,0.4-4.2,0.7-6.3,0.9
					C761.9,1578.3,746.6,1575.1,732.6,1567.8z M734.8,1466.2c-15.1,2.9-26.9,11.1-33.2,23l0,0c-6.3,11.9-6.4,26.3-0.3,40.4
					c6.2,14.2,18,26.5,33.2,34.5c15.2,8,32,10.8,47.3,7.9c15.1-2.9,26.9-11.1,33.2-23c13.1-24.8-1.7-58.4-32.9-74.9
					c-13.3-7-27.8-10-41.4-8.8C738.7,1465.6,736.7,1465.8,734.8,1466.2z"/>
			</g>
			<path class="st36" d="M774.7,1533.7l4.8-8.4c3.9-6.9-1.2-15.9-8.1-19.8l-30.9-16.3c-6.9-3.9-14.6-3.6-18.5,3.3l-4.8,8.4
				C712,1527,763.7,1548.2,774.7,1533.7z"/>
			<path class="st36" d="M827.4,1706.8c4.6-0.4,9-1.7,10.4-2.2c1.1-0.3,1.7-1.5,1.3-2.6c-0.3-1.1-1.5-1.7-2.6-1.3
				c-5.7,1.8-15.1,3.3-17.2,0.8c-1.1-1.3,0-4.2,0.8-5.8c0.5-1,0.1-2.3-0.9-2.8c-1-0.5-2.3-0.1-2.8,0.9c-2.2,4.5-2.3,8-0.3,10.3
				C818.5,1706.8,823,1707.2,827.4,1706.8z"/>
			<g>
				
					<ellipse transform="matrix(1.260483e-02 -0.9999 0.9999 1.260483e-02 -652.1789 2454.665)" class="st39" cx="916.8" cy="1557.6" rx="14.8" ry="34.6"/>
				
					<ellipse transform="matrix(0.8153 -0.579 0.579 0.8153 -703.1893 648.6898)" class="st39" cx="665.2" cy="1426.6" rx="14.8" ry="34.6"/>
			</g>
			<g>
				<path class="st35" d="M1187.5,1335.9c29.1,36,53.6,205.5,53.6,205.5s2.1,21.3-8.5,18.4l-7.6,1.8c0,0,3.3,37.4-88.6-51.5
					c-2-1.9-12-11.2-21.7-25.6"/>
				<path class="st36" d="M1219.1,1571.4c1.2-0.1,2.3-0.4,3.3-0.9c3.6-1.7,4.5-5.2,4.7-7.3l5.6-1.4c3.1,0.7,5.1-0.4,6.4-1.4
					c5.5-4.6,4.3-17.8,4.2-19.3c0,0,0-0.1,0-0.1c-1-6.9-24.9-170.4-54.1-206.5c-0.7-0.9-2-1-2.9-0.3c-0.9,0.7-1,2-0.3,2.9
					c28.2,35,52.7,200.8,53.2,204.4c0.5,4.8,0.1,13.3-2.7,15.7c-0.5,0.4-1.4,0.9-3.1,0.4c-0.3-0.1-0.7-0.1-1,0l-7.6,1.8
					c-1,0.2-1.7,1.2-1.6,2.2c0,0.1,0.3,3.7-2.5,5c-4.5,2.1-21.7,0.7-82.6-58.2l-0.4-0.4c-8-7.6-15-16-21.1-24.9
					c-0.6-0.9-1.9-1.2-2.9-0.5c-0.9,0.6-1.2,1.9-0.5,2.9c6.2,9.1,13.5,17.7,21.6,25.5l0.4,0.4
					C1177.5,1552.6,1205.7,1572.7,1219.1,1571.4z"/>
			</g>
		</g>
		<g class="st0">
			<g>
				<g>
					<path class="st40" d="M120.6,1341c2.8-1.2,4.9-1.7,4.9-1.7S118.9,1334.6,120.6,1341z"/>
					<path class="st40" d="M120.6,1341c-5.3,2.2-13.2,6.7-16,14.3c-1.8-1.1-3.6-2.1-5.5-2.9c-7.4-14.9-24-34.3-56.5-15.2
						c-24.7,14.5-35.5,23.1-39.4,28c-10.5,3.8-22,10.5-34.2,21.4c-56.8,50.7-53.9,71.9-53.9,71.9s-9.7,21.5-23.5,22.3
						c0,0,16.3,10.7,33.2-1.5c0,0-15.3,15.6-3.4,44c11.9,28.3,25,53.3,25,53.3s15.8,13.1-2.4,25.9c-1.5,1-3.2,2.1-5.1,3.1
						c-20.3,10.6,26.3,9.4,34.5-22.2c5.6,14.9,17,29.1,40.2,30.4l0,0c0,0,54,41.9,79.9-1.5c56.7-8.3,73.2-74,73.2-74
						s13.8-23.2,3.4-31.6c-2.8-6.1-11.6-16.6-37.6-11.6c-6.4,1.2-11.9,2.1-16.8,2.5c0.5-0.5,1-1,1.4-1.5c0,0,60-68,24.6-119.2
						C127,1355.6,121.7,1345.5,120.6,1341z"/>
				</g>
				<path class="st40" d="M171.2,1510.7c0,0-3-22.5-38.9-15.6s-45.5,1.5-42.9-8.2s-12.9,35.7,13.4,34.7"/>
				<path class="st40" d="M117.1,1496.1c0,0,60-68,24.6-119.2c-35.3-51.2-16.2-37.6-16.2-37.6s-26.5,6.8-21.3,26.9
					c0,0-12.9-57.6-61.7-29c-20.2,11.8-31,19.7-36.5,24.9"/>
				<path class="st41" d="M67,1375.9c0,0-41.4-40-98.1,10.7c-56.8,50.7-53.9,71.9-53.9,71.9s-9.7,21.5-23.5,22.3
					c0,0,16.3,10.7,33.2-1.5c0,0-15.3,15.6-3.4,44c11.9,28.3,25,53.3,25,53.3s15.8,13.1-2.4,25.9c-1.5,1-3.2,2.1-5.1,3.1
					c-26.1,13.7,58.8,7.8,29.5-57.6c0,0-5.9,74.8,60.2,65"/>
				<path class="st40" d="M13.5,1613.8c0,0,68.6,53.2,88.2-22.4"/>
			</g>
			<g>
				<path class="st42" d="M606,1749.7c14.6-4.7-15.2-31-48.7-52.2c-46.6-29.6-75.4-2.2-75.4-2.2s-18.8,68.1,7.3,78"/>
				<path class="st42" d="M604.8,1748.6c10.2,26.9-80,25.1-80,25.1s-11.9-1.3-31.2-4.5"/>
			</g>
			<path class="st40" d="M514.5,1832.6c-5.6-10.1-14.7-39.9-26.8-50.6c21.4-51.8,77.7-191,77.7-191l-227.7-98.9l-193.7,74
				c0,0-33.4,22.6-60.5,50.7l0.3-0.9l-0.6,1.1c-1.2,1.2-1.4,2.7-1.4,2.7l-59.5,114c0,0-12.9,16.4-2.7,19.5l-0.7,0.1
				c0,0-16.3,34.3,105.5,9.4c2.6-0.5,15.7-2.9,31.2-9.6c16.2,12,102.8,149.8,247.8,75.8l81.6,37.3c0,0,31.6-6.4,23.5-17.5
				C508.7,1848.6,522.8,1847.5,514.5,1832.6z"/>
			<g>
				<g>
					<path class="st43" d="M697.2,1586.6c0,0-22-10.4-20.5-44.5c0.7-16-2.4-41.8-5.8-64.5c14.6,18.1,31.4,14.8,40.5,10.9
						c-6.8-4.6-12.1-31-12.1-31s8.8-21.6,5.1-42.6c-1.5-8.5-8.5-18.1-16.4-26.5c1.7-1.5,4.4-9.7-35.4-54
						c-46.9-52.1-118.6-16.2-118.6-16.2s-119.7-40.4-146.7-17.5c0,0-76.7-47-119.3-2.6s-72.1,30.9-72.1,30.9s2.2,18.8,13.9,21.7
						c0,0-21.9,23.2-15.5,41.8c6.4,18.6-19.2,7.4-19.2,7.4s0.3,31.1,28.8,17.1l-8.5,6.4c12,13.7,24.9,20.1,37.6,21.5l-8.4,3.9
						c0,0-33.7,43.1-35.7,78.1s-34.2,21.3-34.2,21.3s22.7,29.6,36.7,21.8c14-7.8-3,5-3,5s-22.1,5.6-6,32.7
						c12.1,20.3,20.5,22.6,24,22.4c1.8,4.8,4.8,9.7,9.5,13.7c0,0,16.2,10,41.3,25c20,6.3,40.6,6.9,54.8-8.1l-0.5-1.4
						c-10-12.6-8.9-25.7-8.9-25.7l8.9,25.7c8,10,23,19.7,51.1,22.2c-12.8-21.1,10.9-46.6,10.9-46.6l-10.8,46.6c0,0-0.1,0-0.1,0
						c7.7,12.7,28.5,23.8,75.4,26.9c-11-18.2-9.1-41.2-9.1-41.2l11,41.3c-0.6,0-1.3-0.1-1.9-0.1c6,9.9,15.8,18.3,31.9,20.8
						c0,0,11.2-24.7,47.6-8.5c14,2.4,55.6,4,134.8-36C752.2,1634.1,697.2,1586.6,697.2,1586.6z"/>
				</g>
			</g>
			
				<ellipse transform="matrix(1.398545e-02 -0.9999 0.9999 1.398545e-02 -1124.2799 2053.6211)" class="st44" cx="479.1" cy="1596.9" rx="53.9" ry="67.4"/>
			<path class="st36" d="M457.4,1601.9l-0.2-9.8c-0.2-8.1,8.8-13.7,16.9-13.8l35.6,0.5c8.1-0.2,14.8,3.9,14.9,12l0.2,9.8
				C516.7,1626.5,460.2,1620.2,457.4,1601.9z"/>
			<g>
				
					<ellipse transform="matrix(0.4681 -0.8837 0.8837 0.4681 -1203.6595 1108.1223)" class="st45" cx="318.6" cy="1553.9" rx="15.1" ry="35.3"/>
				
					<ellipse transform="matrix(0.8989 -0.4382 0.4382 0.8989 -621.921 423.8868)" class="st45" cx="607.5" cy="1559.6" rx="35.3" ry="15.1"/>
			</g>
			<path class="st36" d="M423.6,1505c0,0-59-0.3-72.2,5.1c-13.2,5.5-15.6,10.2-15.6,10.2s-2.1,8.3,25.8,5.4
				c27.9-2.9,56.1-2.2,56.1-2.2s13.7,1.7,14.9-7.4S423.6,1505,423.6,1505z"/>
			<path class="st46" d="M614.6,1465.9c-3.5,8.8-12.4,12.5-21.6,10.9c-1.4-0.2-31.7-12.2-33.1-12.8c-2.3-0.9-4.7-1-6.5-2.5
				c-6.2-5.5-8.7-14.3-5.5-22.3c3.3-8.3,11.3-11.9,19.9-11.1c1.9,0.2,4.4-0.6,6.3,0.2c2.4,1,33,15.1,34.8,16.8
				C615,1450.6,617.7,1458.1,614.6,1465.9z"/>
			<path class="st36" d="M552.2,1517.2c0,0,35.8,9.8,43.1,15.9s7.4,12,7.4,12s-0.9,5.6-18.7-1.7c-17.8-7.3-36.9-12.4-36.9-12.4
				s-9.7-1.6-7.9-7.6C541,1517.4,552.2,1517.2,552.2,1517.2z"/>
			<path class="st46" d="M432.3,1426c3.2,9-2.6,18.1-12.5,23.6c-1.5,0.8-39.3,14.3-41,14.9c-2.8,1-5.2,2.8-8,2.9
				c-10,0.6-18.8-4-21.7-12.1c-3-8.4,2-16.8,10.8-22.6c2-1.3,3.8-3.6,6.2-4.4c3-1.1,42.7-13.2,45.7-13.3
				C421.3,1414.7,429.5,1418.1,432.3,1426z"/>
			<path class="st40" d="M104,1655.1c0,0-49.8,40.6,5.3,72.4c55,31.7,16.6,45.1,16.6,45.1s73,2.5,60.3-43.6"/>
			<path class="st40" d="M171.3,1763.7c0,0,43.9,59,77.4-1.1"/>
			<path class="st40" d="M244.1,1740.7c-3.9,8.7-7.5,17.5-10.8,26.5c-1.5,4-2.9,8-3.5,12.2c-2.8,18.4,10.2,35.6,24.5,47.5
				c0.8,0.6,1.6,1.3,2.6,1.3c1.8,0.1,3-2.1,2.8-4c-0.2-1.8-1.4-3.4-2.2-5c-2.9-5.8-1.2-13.5,3.7-17.7c3.4-2.8,7.8-4,11.9-5.4
				c15.9-5.3,31.7-17.4,33-34.2"/>
			<path class="st43" d="M572.8,1716.6c3.5,7.6,8.3,16.1,16.5,17.5c2.3,0.4,4.8,0.3,6.6,1.8c-3.5,5.8-10,9.5-16.8,9.7
				c-2.1,0.1-4.3-0.1-6,1.1c-1.9,1.4-2.2,4.1-2.6,6.5c-2.2,12.2-13.1,21.5-24.9,24.9c-11.9,3.5-24.6,2.1-36.8-0.5
				C508.8,1777.7,517.7,1704.3,572.8,1716.6"/>
			<path class="st40" d="M431,1798.7c2.1,2.2,5.3,2.6,8.2,3c18,2.1,37.5,3.9,52.8-5.8c15.4-9.9,22-28.7,27.2-46.3"/>
			<path class="st40" d="M433.9,1777c6,11,1.4,25.6-7.9,34.1c-9.3,8.5-22,12.1-34.4,14c-11.1,1.7-22.3,2.3-33.5,1.7"/>
			<g>
				<path class="st40" d="M63.6,1578.5"/>
				<path class="st43" d="M134.6,1538.3c-17,17.8-12.1,36.2-38.8,32.6s-30.5-18.1-30.5-18.1s-8.5,23.7,13.6,35.9l-15.3-10.1
					c0.3,6-1.6,16.6,2.8,23c-9.2,3.6-18.6,12.1-21,31.8c-4.8,40.7,37.9,66.2,37.9,66.2l98.1-103.6l6.8-83.7
					C188.3,1512.1,151.6,1520.5,134.6,1538.3z"/>
			</g>
			<path class="st40" d="M276.2,1808.1c10.9,15.5,31.8,20.1,50.7,21.4c5.6,0.4,11.3,0.6,16.9-0.1c22.9-2.8,42.9-22,46.4-44.9"/>
			<path class="st40" d="M188.3,1512.1c0,0-36.7,8.4-53.6,26.2s-12.1,36.2-38.8,32.6s-30.5-18.1-30.5-18.1s-8.5,23.7,13.6,35.9"/>
			<path class="st40" d="M350,1769.6c2,8.5-5.7,16.1-13.2,20.7c-21.2,12.9-47.2,17.5-71.6,12.9"/>
			<path class="st40" d="M62.2,1574.4c4.9,3-5,27.8,11.4,31.8"/>
			<path class="st40" d="M85.7,1599.5c0,0-35.4-6.9-40.2,33.8s37.9,66.2,37.9,66.2"/>
			<path class="st41" d="M203.8,1417.2c-28.4,14-28.8-17.1-28.8-17.1s25.6,11.2,19.2-7.4c-6.4-18.6,15.5-41.8,15.5-41.8
				c-11.7-2.9-13.9-21.7-13.9-21.7s29.5,13.6,72.1-30.9s119.3,2.6,119.3,2.6c27-22.9,146.7,17.5,146.7,17.5s71.7-35.9,118.6,16.2
				c46.9,52.1,34.8,54.3,34.8,54.3"/>
			<path class="st41" d="M326.2,1388.6c0,0-74.1,99.6-130.9,34.9"/>
			<path class="st41" d="M663.2,1366.3c0,0,37.5,27.7,41.2,48.7s-5.1,42.6-5.1,42.6s9.2,45.8,18.8,27.3c0,0-36.2,26.8-58.4-26.7"/>
			<path class="st41" d="M224.5,1448.9c0,0-33.7,43.1-35.7,78.1s-34.2,21.3-34.2,21.3s22.7,29.6,36.7,21.8c14-7.8-3,5-3,5
				s-22.1,5.6-6,32.7c16.1,27.1,25.8,22.1,25.8,22.1"/>
			<path class="st41" d="M512,1719.5c0,0,40.2,15.9,140.2-34.7c100-50.6,45-98.1,45-98.1s-22-10.4-20.5-44.5
				c0.7-16-2.4-41.8-5.8-64.5"/>
			<path class="st43" d="M711.3,1488.6"/>
			<path class="st43" d="M311.4,1659.4l-8.9-25.7C302.5,1633.7,301.4,1646.8,311.4,1659.4z"/>
			<path class="st43" d="M373.5,1635c0,0-23.7,25.5-10.9,46.6c0,0,0.1,0,0.1,0L373.5,1635z"/>
			<path class="st43" d="M428.9,1667.3c0,0-1.9,23,9.1,41.2c0.6,0,1.2,0.1,1.9,0.1L428.9,1667.3z"/>
			<path class="st41" d="M302.5,1633.7c0,0-3.6,42.2,60.1,47.9"/>
			<path class="st41" d="M373.5,1635c0,0-61.3,65.9,66.4,73.7"/>
			<path class="st41" d="M428.9,1667.3c0,0-4.6,55,41,62c0,0,15.2-16.5,45.1-8.1"/>
			<path class="st41" d="M206.4,1630.2c0,0,69.1,69.3,105.6,30.6"/>
			<path class="st40" d="M508.8,1777.7c12.1,2.5,24.9,3.9,36.8,0.5c11.9-3.5,22.7-12.8,24.9-24.9c0.4-2.4,0.7-5.1,2.6-6.5
				c1.7-1.2,3.9-1,6-1.1c6.7-0.2,13.3-4,16.8-9.7c-1.7-1.5-4.3-1.4-6.6-1.8c-8.2-1.5-12.9-10-16.5-17.5"/>
		</g>
	</g>
	<g>
		<g>
			<path class="st47" d="M193.9,316.8c7.5,0,12.9,1.4,16.2,4.2c0.5,0.4,0.8,0.8,0.9,1c0.1,0.2,0.1,0.6,0,1.1
				c-0.1,0.7-0.6,2.1-1.7,4.3c-1.1,2.2-1.8,3.6-2.3,4.1l-0.8,0.4c-0.2,0-0.8-0.2-1.6-0.6c-3.4-1.5-6.3-2.2-8.7-2.2
				c-2,0-3.8,0.6-5.6,1.7c-1.8,1.1-3.1,2.6-4,4.4c-0.6,1.3-0.9,2.5-0.9,3.4c0,0.9,0,1.5,0.1,1.8c0.1,2.1,0.5,3.6,1.1,4.7
				c1.9,3,5.2,4.5,9.9,4.5c1.7,0,3.6-0.3,5.7-0.9c0.7-0.2,1-0.6,1-1.4c0-0.6-0.1-1-0.3-1.3c-0.3-0.1-1.4-0.3-3.3-0.5
				c-2-0.1-3.3-0.4-4-0.9c-0.6-0.5-1-1.4-1-2.9c0-1,0-1.6,0.1-1.9c0.3-2.2,0.8-3.4,1.7-3.8c0.7-0.2,3.7-0.3,9.1-0.3
				c5.3,0,8.3,0.1,8.9,0.3c0.3,0.1,0.6,0.4,1.1,1c0.2,0.3,0.4,2.7,0.8,7c0.3,4.3,0.5,7.5,0.5,9.4c0,0.7,0,1.1-0.1,1.2
				c-0.2,1-1.3,2.1-3.2,3.2c-1.9,1.1-4.3,2.1-7.1,3c-2.8,0.8-5.6,1.3-8.4,1.4h-1.7c-5,0-9.5-1-13.5-3.1c-4-2-7.3-5-9.9-8.8
				c-1.2-1.7-1.9-3.2-2.3-4.5s-0.5-3-0.5-5.2c0-6.7,1.8-12.1,5.5-16.1c3.7-4,8.6-6.5,14.7-7.6C191,316.9,192.3,316.8,193.9,316.8z"
				/>
			<path class="st47" d="M239.1,323.3c1.9,0,3.7,0.1,5.5,0.4c4.2,0.8,7.8,2.4,10.7,4.9c3,2.5,4.8,5.4,5.4,8.8
				c0.2,0.7,0.3,1.7,0.3,2.8c0,3.4-0.5,6.4-1.5,9c-1,2.6-2.7,5-5.1,7.3c-2.2,2.1-4.4,3.6-6.7,4.4c-2.3,0.8-4.7,1.2-7.1,1.2
				c-4.3,0-8.2-1-11.7-3.1c-3.5-2.1-6.3-4.6-8.3-7.7c-2-3.1-3-6-3-8.8c0-0.9,0.1-2.2,0.4-4c1.8-9,7-14,15.4-15
				C235.4,323.5,237.3,323.3,239.1,323.3z M239.7,336.7c-0.8,0-1.5,0.2-2,0.6c-2,1.2-3,3-3,5.3c0,0.8,0.2,1.8,0.7,2.8
				c1,2.1,2.6,3.1,4.8,3.1c1.2,0,2.2-0.4,3-1.1c0.8-0.8,1.3-1.7,1.5-2.9c0.1-0.2,0.1-0.5,0.1-1c0-1.3-0.3-2.6-0.9-3.9
				c-0.6-1.2-1.4-2.1-2.3-2.5C240.9,336.8,240.3,336.7,239.7,336.7z"/>
			<path class="st47" d="M267.7,316.4h2c4.3,0.1,6.6,0.6,7,1.8c0.2,1,0.3,8,0.3,21v10.9c0,4.8-0.1,7.9-0.2,9.5
				c-0.1,1.2-0.4,1.9-0.9,2.1c-0.7,0.2-2.6,0.3-5.5,0.3c-0.6,0.1-1.6,0.1-3.1,0.1c-1.6,0-2.6-0.1-3.2-0.4c-0.6-0.3-0.9-0.6-1-1.1
				c-0.1-0.5-0.1-1.4-0.1-2.9l0.1-1.8v-2.2c0-0.8,0-1.5,0.1-2.1v-2.2c0-2.8-0.1-5.1-0.3-7c-0.4-4.7-0.6-9.3-0.6-13.7
				c0-3.1,0.2-5.8,0.5-8.1c0.3-2.3,0.9-3.7,1.6-3.9C265,316.4,266.1,316.4,267.7,316.4z"/>
			<path class="st47" d="M311.8,313.5c3.5,0,5.6,0.1,6.3,0.3c0.8,0.2,1.5,0.6,2,1.2l0.8,0.8l-0.2,22c-0.1,13.3-0.3,20.7-0.6,22.3
				c-0.2,0.6-0.6,1.1-1.3,1.3l-0.3,0.2c-0.7,0.3-2.3,0.4-4.7,0.4H312c-3.2-0.1-5.2-0.3-5.8-0.4c-1-0.3-1.6-0.8-2-1.6
				c0-0.1-0.1-0.3-0.4-0.7c-0.2-0.2-0.4-0.2-0.4-0.2l-2.4,1c-1.4,0.6-3.4,0.9-5.9,0.9c-2.3,0-3.9-0.1-4.9-0.3
				c-1-0.2-2.1-0.6-3.4-1.3c-4.2-2.1-6.8-5.3-7.5-9.6c-0.3-1.8-0.4-3.4-0.4-4.5c0-3.9,0.8-7.4,2.5-10.6c1.6-3.1,3.8-5.6,6.4-7.3
				c2.6-1.7,5.3-2.6,8-2.6c2.6,0,5.1,0.8,7.5,2.3c0.6,0.4,0.9,0.5,1,0.4c0.1-0.1,0.2-2,0.5-5.7c0.3-3.7,0.5-5.9,0.7-6.5
				c0.3-1,1.1-1.6,2.3-1.8C308.6,313.5,310,313.5,311.8,313.5z M302.5,338.2c-0.7-0.5-1.6-0.8-2.5-0.8c-0.9,0-1.9,0.3-3,0.9
				c-1.9,1.2-2.8,2.9-2.8,5c0,1.4,0.5,2.7,1.5,4c1,1.3,2.4,1.9,4.1,1.9c0.8,0,1.6-0.2,2.6-0.5l1.3-0.4v-9.4L302.5,338.2z"/>
			<path class="st47" d="M331.7,329.4h2.3h0.9c0.8,0,1.4,0.1,1.9,0.3c0.4,0.2,0.7,0.4,0.9,0.6c0.1,0.2,0.2,0.7,0.3,1.3
				c0.1,1.5,0.2,6.6,0.2,15.5c0,9.3-0.1,14.1-0.3,14.3c-0.4,0.4-2.2,0.7-5.3,0.7h-3l-2.3-0.1c-1.3,0-2.1,0-2.3-0.1
				c-0.6-0.1-1-0.3-1.3-0.6l-0.7-0.7l-0.1-11.3v-3.5c0-9.8,0.3-15,1-15.8c0.3-0.3,2.1-0.5,5.4-0.6
				C330.2,329.5,331.1,329.4,331.7,329.4z M330.5,313.9c1.8,0,3.4,0.6,4.8,1.9c1.3,1.3,2,2.7,2,4.3v1.1c-0.1,1.6-0.8,2.9-1.9,3.8
				s-2.7,1.4-4.7,1.4h-0.5c-2-0.1-3.5-0.7-4.7-1.7c-1.2-1-1.8-2.4-1.8-4c0-0.8,0.1-1.6,0.4-2.3c0.3-0.7,0.8-1.5,1.6-2.3
				C327,314.6,328.7,313.9,330.5,313.9z"/>
			<path class="st47" d="M361.3,321.7h1.1c2.3,0.1,4.1,0.5,5.4,1.2s3,2,4.9,3.9c3,3,4.9,6.3,5.8,9.7c0.3,1.4,0.4,2.6,0.4,3.5
				c0,3.4-0.6,5.3-1.7,5.8h-13.9c-4.4,0-6.6,0-6.6,0.1c0,0.7,0.6,1.4,1.9,2.1c1.3,0.8,2.8,1.3,4.5,1.7c0.9,0.2,1.8,0.3,2.6,0.3
				c1.3,0,3-0.3,5.1-1c1.6-0.4,2.7-0.7,3.1-0.7c0.6,0,1,0.2,1.3,0.5c0.4,0.6,1,1.6,1.8,3.1c0.8,1.5,1.2,2.6,1.2,3.2
				c0,1.2-1,2.4-3.1,3.6c-2,1.2-4.1,2.1-6.3,2.6c-2.2,0.5-4.8,0.8-7.8,0.8c-3.7,0-6.5-0.3-8.5-1s-4.2-2.1-6.5-4.4
				c-2.3-2.2-3.9-4.4-4.7-6.5c-0.8-2.1-1.3-4.6-1.3-7.5c0-3.1,0.5-6,1.4-8.6c0.9-2.6,2.7-4.9,5.2-7.1c2.7-2.3,6.1-4,10.2-4.9
				C358.4,321.8,359.8,321.7,361.3,321.7z M361.1,333.1c-1.2,0-2.3,0.4-3.2,1.1c-0.9,0.7-1.4,1.6-1.5,2.8l-0.1,1l4.1,0.3l3.4,0.2
				h0.4c0.2,0,0.4,0,0.4-0.1h0.2h0.2c0.2-0.1,0.3-0.4,0.3-1c0-0.7-0.2-1.4-0.5-2.1C364.1,333.8,362.9,333.1,361.1,333.1z"/>
			<path class="st47" d="M427.6,324.9c3.1,0,5.6,0.2,7.3,0.6c1.2,0.3,2.1,0.7,2.7,1.3c0.6,0.6,1,1.6,1.3,2.9
				c0.2,0.7,0.3,3.2,0.3,7.5c0,9.6-0.2,16.1-0.6,19.5c-0.2,1.8-0.4,3.1-0.8,3.8c-0.3,0.7-1,1.1-2,1.3c-1,0.2-2.8,0.4-5.6,0.5
				c-0.7,0.1-1.9,0.1-3.6,0.1c-1.2,0-2-0.1-2.4-0.4c-0.4-0.3-0.8-0.8-1.2-1.7c-0.4-0.9-0.7-1.3-0.9-1.3c-0.2,0-1.1,0.4-2.6,1.1
				c-2.3,1.1-4.6,1.7-6.7,1.7c-2.2,0-4.6-0.8-7-2.5s-4.5-3.9-6.2-6.5c-1.6-2.7-2.5-5.4-2.5-8.2c0-1.2,0.1-2.2,0.3-2.9l0.3-1.3
				l0.2-0.9c0.2-1.3,1.1-3.3,2.9-6c2.7-4.2,6.2-6.9,10.5-7.9c0.8-0.2,1.7-0.3,2.6-0.3c3.1,0,5.7,0.8,7.8,2.3c0.6,0.4,1,0.6,1.3,0.6
				s0.4-0.2,0.4-0.6c0-0.3,0.2-0.7,0.7-1.3c0.5-0.6,0.9-1,1.3-1.1C425.6,325,426.3,324.9,427.6,324.9z M418.7,337.5
				c-1.3,0-2.5,0.4-3.6,1.2c-1.1,0.8-1.8,1.8-2.2,3.2c-0.2,0.5-0.3,1-0.3,1.6c0,1.5,0.6,2.6,1.8,3.5c1.2,0.9,2.8,1.3,4.8,1.3
				c1.1,0,1.8-0.1,2.1-0.2c0.4-0.1,0.6-0.4,0.7-0.8c0.1-0.4,0.3-1.2,0.4-2.5c0.2-1.5,0.3-3,0.3-4.4c0-0.8-0.1-1.4-0.2-1.6
				c-0.1-0.2-0.5-0.4-1.2-0.7C420.7,337.7,419.7,337.5,418.7,337.5z"/>
			<path class="st47" d="M467.6,323.4c3.9,0,6.9,1.1,9.1,3.2c2.2,2.1,3.7,4.8,4.7,8c0.4,1.5,0.7,6,0.8,13.4v5.3c0,3.9-0.2,6-0.5,6.3
				c-0.2,0.3-0.7,0.5-1.3,0.6c-0.7,0.1-2.7,0.2-6,0.3l-6.9,0.2l-0.3-0.8c-0.1-0.2-0.2-2.9-0.5-8.1c-0.1-4.2-0.3-7.4-0.6-9.6
				c-0.3-1.6-1-3-1.9-4c-0.5-0.5-1.2-0.8-2-0.8c-4.1,0-6.1,3.8-6.1,11.5c0,2.2,0,3.7,0.1,4.4c0.1,1.1,0.1,2.8,0.1,5.1
				c0,1.5-0.1,2.3-0.3,2.4c-0.2,0.2-1.7,0.3-4.7,0.4c-3,0.1-5.6,0.2-7.8,0.2c-0.9,0-1.5-0.1-1.8-0.2c-0.3-0.1-0.5-0.4-0.6-0.8
				c-0.1-0.4-0.2-1.1-0.3-2.1c-0.1-0.7-0.1-3.2-0.1-7.6l-0.1-7.5v-8.3l-0.1-6c0-1.6,0.1-2.7,0.3-3.3c0.2-0.6,0.6-1.1,1.2-1.3
				c0.6-0.2,1.6-0.3,3.1-0.3h4.2c3.1,0,4.9,0.1,5.6,0.4c0.6,0.2,0.8,1.1,0.8,2.7c0,1.3,0.1,2,0.3,2c0.2,0,0.8-0.5,1.9-1.6
				c2-1.8,4-3,6.1-3.6C465.1,323.6,466.3,323.4,467.6,323.4z"/>
			<path class="st47" d="M516.5,313.5c3.5,0,5.6,0.1,6.3,0.3c0.8,0.2,1.5,0.6,2,1.2l0.8,0.8l-0.2,22c-0.1,13.3-0.3,20.7-0.6,22.3
				c-0.2,0.6-0.6,1.1-1.3,1.3l-0.3,0.2c-0.7,0.3-2.3,0.4-4.7,0.4h-1.8c-3.2-0.1-5.2-0.3-5.8-0.4c-1-0.3-1.6-0.8-2-1.6
				c0-0.1-0.1-0.3-0.4-0.7c-0.2-0.2-0.4-0.2-0.4-0.2l-2.4,1c-1.4,0.6-3.4,0.9-5.9,0.9c-2.3,0-3.9-0.1-4.9-0.3
				c-1-0.2-2.1-0.6-3.4-1.3c-4.2-2.1-6.8-5.3-7.5-9.6c-0.3-1.8-0.4-3.4-0.4-4.5c0-3.9,0.8-7.4,2.5-10.6c1.6-3.1,3.8-5.6,6.4-7.3
				c2.6-1.7,5.3-2.6,8-2.6c2.6,0,5.1,0.8,7.5,2.3c0.6,0.4,0.9,0.5,1,0.4c0.1-0.1,0.2-2,0.5-5.7c0.3-3.7,0.5-5.9,0.7-6.5
				c0.3-1,1.1-1.6,2.3-1.8C513.3,313.5,514.7,313.5,516.5,313.5z M507.2,338.2c-0.7-0.5-1.6-0.8-2.5-0.8c-0.9,0-1.9,0.3-3,0.9
				c-1.9,1.2-2.9,2.9-2.9,5c0,1.4,0.5,2.7,1.5,4c1,1.3,2.4,1.9,4.1,1.9c0.8,0,1.6-0.2,2.6-0.5l1.3-0.4v-9.4L507.2,338.2z"/>
			<path class="st47" d="M554.6,318.6c2.7,0,4.4,0.1,4.9,0.3c0.8,0.2,1.3,0.6,1.5,1.3c0.3,1,0.5,5.4,0.5,13.2v3.6
				c0,10.7-0.2,17.4-0.5,20c-0.2,1.9-0.4,3.2-0.6,3.9c-0.2,0.7-0.5,1.1-1,1.3s-1.4,0.3-2.8,0.3l-1.8-0.1h-2.3l-2.8-0.1
				c-1.6,0-2.6,0-2.9-0.1c-0.7-0.1-1.2-0.3-1.5-0.5l-0.8-0.7l0.2-13.8c0.2-15.3,0.6-24,1.3-26.2c0.2-0.7,0.5-1.2,1-1.5
				c0.4-0.3,1.2-0.4,2.4-0.5C550.8,318.7,552.6,318.6,554.6,318.6z"/>
			<path class="st47" d="M590.8,323.4c3.9,0,6.9,1.1,9.1,3.2c2.2,2.1,3.7,4.8,4.7,8c0.4,1.5,0.7,6,0.8,13.4v5.3c0,3.9-0.2,6-0.5,6.3
				c-0.2,0.3-0.7,0.5-1.3,0.6c-0.7,0.1-2.7,0.2-6,0.3l-6.9,0.2l-0.3-0.8c-0.1-0.2-0.2-2.9-0.5-8.1c-0.1-4.2-0.3-7.4-0.6-9.6
				c-0.3-1.6-1-3-1.9-4c-0.5-0.5-1.2-0.8-2-0.8c-4.1,0-6.1,3.8-6.1,11.5c0,2.2,0,3.7,0.1,4.4c0.1,1.1,0.1,2.8,0.1,5.1
				c0,1.5-0.1,2.3-0.3,2.4s-1.7,0.3-4.7,0.4c-3,0.1-5.6,0.2-7.8,0.2c-0.9,0-1.5-0.1-1.8-0.2c-0.3-0.1-0.5-0.4-0.6-0.8
				c-0.1-0.4-0.2-1.1-0.3-2.1c-0.1-0.7-0.1-3.2-0.1-7.6l-0.1-7.5v-8.3l-0.1-6c0-1.6,0.1-2.7,0.3-3.3c0.2-0.6,0.6-1.1,1.2-1.3
				c0.6-0.2,1.6-0.3,3.1-0.3h4.2c3.1,0,4.9,0.1,5.6,0.4c0.6,0.2,0.8,1.1,0.8,2.7c0,1.3,0.1,2,0.3,2s0.8-0.5,1.9-1.6
				c2-1.8,4-3,6.1-3.6C588.3,323.6,589.6,323.4,590.8,323.4z"/>
			<path class="st47" d="M613.4,323.9c5.1,0,8,0.3,8.5,0.8c0.1,0.1,0.2,0.7,0.2,1.8c0,1.3-0.1,3-0.2,4.9c-0.1,1.9-0.2,3.9-0.2,6
				c0,4.4,0.3,7.5,1,9.3c0.6,1.9,1.9,2.8,3.7,2.8c1.6,0,2.8-0.8,3.6-2.4c1.1-2,1.6-6.3,1.7-13.2c0.2-5.6,0.4-8.6,0.6-8.8
				c0.3-0.3,1.4-0.6,3.4-0.8c2-0.3,4-0.4,5.9-0.4c1.5,0,2.6,0.1,3.5,0.2c0.9,0.1,1.5,0.4,1.8,0.9c0.6,0.9,0.9,5.2,0.9,13
				c0,14.3-0.2,22-0.7,23.1c-0.3,0.8-1.6,1.3-3.9,1.3c-1,0-2.8-0.1-5.5-0.3c-1,0-1.7,0-2.3-0.1c-0.6-0.1-1.1-0.2-1.6-0.4
				c-0.6-0.2-1-0.4-1.2-0.6c-0.3-0.3-0.5-0.7-0.7-1.2c-0.4-1.1-0.9-1.3-1.4-0.7c-0.3,0.4-1.4,1-3.2,1.7c-1.8,0.7-3.2,1.2-4.4,1.4
				c-0.8,0.1-1.6,0.2-2.5,0.2c-2.3,0-4.5-0.5-6.5-1.5c-2-1-3.5-2.3-4.5-4c-0.4-0.7-0.9-2-1.5-3.9c-0.4-1.9-0.7-4.3-0.7-7.3v-4.3
				c0.1-10.8,0.8-16.5,2.1-17.1C609.9,324,611.3,323.9,613.4,323.9z"/>
			<path class="st47" d="M683.8,329.1h0.6c0.4,0,0.7,0,1,0.1c0.3,0.1,0.6,0.1,0.8,0.1c0.3,0,0.6,0,0.9,0.1l1.7,0.2
				c3.3,0.3,5.1,0.6,5.4,0.9c0.3,0.4,0.5,7.4,0.5,21c0,3.6-0.1,6.4-0.2,8.4c-0.1,2-0.4,3.9-1,5.6c-0.5,1.8-1.4,3.4-2.6,5
				c-1.8,2.5-4.6,4.1-8.1,5c-1.4,0.3-2.8,0.5-4.3,0.5c-1.7,0-3.5-0.3-5.2-0.8c-1.7-0.6-3.2-1.2-4.3-2c-1.1-0.8-1.7-1.5-1.7-2.2
				c0-0.5,0.5-1.7,1.5-3.6c1-1.9,1.9-3.2,2.5-3.8c0.7-0.7,1.3-1.1,1.8-1.1c0.3,0,0.9,0.2,1.7,0.7c0.8,0.6,1.5,0.8,2.2,0.8
				c0.6,0,1.1-0.2,1.6-0.7s0.9-1.1,1.1-1.8c0.4-1.6,0.8-9.7,0.9-24.1c0.1-4.8,0.3-7.3,0.4-7.5C681.5,329.4,682.4,329.1,683.8,329.1z
				 M683.2,316.3c1.3-1,2.7-1.5,4.2-1.5c1.8,0,3.4,0.7,4.7,2c1.4,1.3,2.1,2.8,2.1,4.6c0,1.3-0.3,2.4-1,3.4c-0.7,1-1.7,1.7-3,2.1
				c-0.8,0.3-1.8,0.4-2.8,0.4c-2,0-3.6-0.5-5-1.6c-1.4-1-2.1-2.4-2.1-4.1c0-0.6,0.1-1.1,0.3-1.7
				C681.1,318.5,681.9,317.2,683.2,316.3z"/>
			<path class="st47" d="M703.5,323.9c5.1,0,8,0.3,8.5,0.8c0.1,0.1,0.2,0.7,0.2,1.8c0,1.3-0.1,3-0.2,4.9c-0.1,1.9-0.2,3.9-0.2,6
				c0,4.4,0.3,7.5,1,9.3c0.6,1.9,1.9,2.8,3.7,2.8c1.6,0,2.8-0.8,3.6-2.4c1.1-2,1.6-6.3,1.7-13.2c0.2-5.6,0.4-8.6,0.6-8.8
				c0.3-0.3,1.4-0.6,3.4-0.8c2-0.3,4-0.4,5.9-0.4c1.5,0,2.6,0.1,3.5,0.2c0.9,0.1,1.5,0.4,1.8,0.9c0.6,0.9,0.9,5.2,0.9,13
				c0,14.3-0.2,22-0.7,23.1c-0.3,0.8-1.6,1.3-3.9,1.3c-1,0-2.8-0.1-5.5-0.3c-1,0-1.7,0-2.3-0.1c-0.6-0.1-1.1-0.2-1.6-0.4
				c-0.6-0.2-1-0.4-1.2-0.6c-0.3-0.3-0.5-0.7-0.7-1.2c-0.4-1.1-0.9-1.3-1.4-0.7c-0.3,0.4-1.4,1-3.2,1.7c-1.8,0.7-3.2,1.2-4.4,1.4
				c-0.8,0.1-1.6,0.2-2.5,0.2c-2.3,0-4.5-0.5-6.5-1.5c-2-1-3.5-2.3-4.5-4c-0.4-0.7-0.9-2-1.5-3.9c-0.4-1.9-0.7-4.3-0.7-7.3v-4.3
				c0.1-10.8,0.8-16.5,2.1-17.1C700,324,701.4,323.9,703.5,323.9z"/>
			<path class="st47" d="M755.9,322.4h1.5c1.6,0,3.4,0.2,5.5,0.6c2,0.4,3.9,0.9,5.6,1.4c1.7,0.5,2.7,0.8,2.9,1
				c0.6,0.4,0.8,1,0.8,1.8c0,0.9-0.3,2.2-0.8,3.9c-0.5,1.7-0.9,3-1.3,3.8c-0.3,0.6-0.7,0.9-1.3,0.9c-0.6,0-1.4-0.3-2.6-0.8
				c-2.5-1-4.4-1.5-6-1.5c-0.4,0-0.9,0.1-1.3,0.3c-0.4,0.2-0.7,0.4-0.7,0.7c0,0.3,0.2,0.6,0.6,0.9c0.6,0.4,2.4,0.9,5.5,1.3
				c2.6,0.3,4.6,0.9,6.1,1.8c1.5,0.9,2.7,2.2,3.6,4.1c0.8,1.5,1.3,3.3,1.3,5.4c0,2.4-0.6,4.7-1.9,6.9c-1.3,2.2-3,4-5.2,5.3
				c-2.4,1.4-5.4,2.1-9.1,2.1c-3.6,0-7.1-0.7-10.6-2c-3.5-1.3-6.2-3-8.2-5.2c-0.8-0.9-1.3-1.6-1.3-2.1c0-0.4,0.5-1.3,1.5-2.5
				c1-1.2,2.1-2.4,3.2-3.5c1.1-1.1,1.8-1.7,2.1-1.7c0.2,0,0.9,0.5,2.1,1.4c2.5,1.8,5,2.9,7.6,3h1.1c0.9,0,1.6-0.2,2-0.5
				c0.4-0.4,0.7-0.8,0.7-1.4c0-0.7-0.5-1.4-1.4-1.9c-1-0.5-2.6-1-4.9-1.3c-5.9-1-9.7-3.2-11.4-6.8c-0.6-1.1-0.8-2.3-0.8-3.6
				c0-1.6,0.4-3.2,1.3-4.8c0.9-1.6,2.1-3.1,3.6-4.3c1.5-1.2,3.2-2.1,5.1-2.5C752.5,322.5,754,322.4,755.9,322.4z"/>
			<path class="st47" d="M789,313.5c0,0,1.5,0,4.6,0c3.1,0,5.1,0.1,5.9,0.2c1,0.2,1.5,0.4,1.7,0.6c0.2,0.2,0.3,0.6,0.3,1.3l-0.2,4.4
				l-0.2,2.7l-0.1,1l4,0.1c0.8,0,1.3,0,1.7,0.1c1.4,0,2.3,0.1,2.8,0.3c0.4,0.2,0.7,0.8,0.8,1.8c0.1,1,0.2,2.9,0.2,5.9v1.4
				c0,1.6-0.1,2.6-0.2,3.2c-0.1,0.6-0.4,0.9-0.9,1.1c-0.5,0.2-1.4,0.3-2.7,0.3h-5.4l-0.3,1.8c-0.1,1.3-0.2,2.2-0.2,2.5
				c0,5.8,1.5,8.7,4.4,8.7c0.6,0,1.4-0.3,2.4-0.9c1-0.6,1.6-1,1.8-1.3c0.2-0.2,0.4-0.3,0.6-0.3c0.5,0,1.1,0.4,1.9,1.2
				c0.9,0.9,1.7,2,2.6,3.2c0.8,1.3,1.2,2.1,1.2,2.6c0,0.7-0.8,1.6-2.3,2.9c-1.5,1.2-3.3,2.3-5.4,3.3c-2.7,1.2-5.6,1.8-8.7,1.8
				c-2,0-3.6-0.3-5.1-1c-1.4-0.7-2.9-1.8-4.6-3.5c-1.9-1.9-3.3-3.9-4.1-6.1c-0.8-2.2-1.3-5.5-1.3-9.9v-1.9v-1.2
				c-0.1-0.2-0.1-0.4-0.1-0.8c0-0.3-0.1-0.5-0.2-0.6l-0.3-0.3c-0.1-0.2-0.4-0.3-1.2-0.3l-1-0.1h-1.3c-1.2-0.1-1.9-0.2-2.3-0.3
				c-0.3-0.1-0.6-0.3-0.9-0.8c-0.2-0.4-0.3-1.1-0.3-2.2c0-1.5,0-2.5,0.1-3.1c0.1-1.7,0.2-2.7,0.2-3.2c0.1-0.7,0.1-1.3,0.1-1.8
				c0-0.5,0.1-0.8,0.1-1l0.3-1.2l3.4-0.2c1.7-0.1,2.7-0.1,3-0.3c0.3-0.1,0.4-0.3,0.5-0.5c0.1-1.2,0.2-2.9,0.4-5.1
				c0.2-2.2,0.4-3.4,0.5-3.5c0.3-0.3,0.9-0.6,1.9-0.8C788.5,313.5,789,313.5,789,313.5z"/>
			<path class="st47" d="M837.5,324.3c0.5-0.3,1.7-0.5,3.6-0.5c2,0,3.8,0.1,5.6,0.4c1.8,0.3,2.8,0.6,3.1,1.1
				c0.4,0.4,0.6,0.8,0.6,1.2c0,0.1,0.1,0.1,0.2,0.1c0.3,0,1.1-0.3,2.3-0.9c2.3-1.2,4.5-1.8,6.4-1.8c2,0,4,0.6,6,1.7
				c2.1,1.1,3.1,2.3,3.1,3.5c0,0.7-0.5,2-1.4,4.1c-1,2-1.8,3.6-2.5,4.7c-0.6,0.8-1.1,1.3-1.8,1.3c-0.2,0-0.8-0.1-1.8-0.4
				c-1-0.3-2-0.5-2.8-0.5c-1.9,0-3.4,0.8-4.6,2.3c-2,2.6-3,8.2-3,16.8v1.2c0,1.2-0.1,2.1-0.2,2.6c-0.1,0.5-0.5,0.8-1,1
				c-0.5,0.2-1.4,0.3-2.6,0.3l-1.4-0.1h-1.8c-3.9-0.1-6.1-0.4-6.7-0.8c-0.7-0.4-1-0.9-1.1-1.4c-0.2-0.6-0.3-2.7-0.3-6.3
				c0-5.4,0.1-11.3,0.4-17.6c0.3-6.3,0.5-9.8,0.8-10.5C836.6,325,837,324.6,837.5,324.3z"/>
			<path class="st47" d="M890.8,321.7h1.1c2.3,0.1,4.1,0.5,5.4,1.2c1.3,0.7,3,2,4.9,3.9c3,3,4.9,6.3,5.8,9.7
				c0.3,1.4,0.4,2.6,0.4,3.5c0,3.4-0.6,5.3-1.7,5.8h-13.9c-4.4,0-6.6,0-6.6,0.1c0,0.7,0.6,1.4,1.9,2.1c1.3,0.8,2.8,1.3,4.5,1.7
				c0.9,0.2,1.8,0.3,2.6,0.3c1.3,0,3-0.3,5.1-1c1.6-0.4,2.7-0.7,3.1-0.7c0.6,0,1,0.2,1.3,0.5c0.4,0.6,1,1.6,1.8,3.1
				c0.8,1.5,1.2,2.6,1.2,3.2c0,1.2-1,2.4-3.1,3.6c-2,1.2-4.1,2.1-6.3,2.6c-2.2,0.5-4.8,0.8-7.8,0.8c-3.7,0-6.5-0.3-8.5-1
				s-4.2-2.1-6.5-4.4c-2.3-2.2-3.9-4.4-4.7-6.5c-0.8-2.1-1.3-4.6-1.3-7.5c0-3.1,0.5-6,1.4-8.6c0.9-2.6,2.7-4.9,5.2-7.1
				c2.7-2.3,6.1-4,10.2-4.9C887.9,321.8,889.3,321.7,890.8,321.7z M890.6,333.1c-1.2,0-2.3,0.4-3.2,1.1c-0.9,0.7-1.4,1.6-1.5,2.8
				l-0.1,1l4.1,0.3l3.4,0.2h0.4c0.2,0,0.4,0,0.4-0.1h0.2h0.2c0.2-0.1,0.3-0.4,0.3-1c0-0.7-0.2-1.4-0.5-2.1
				C893.6,333.8,892.4,333.1,890.6,333.1z"/>
			<path class="st47" d="M916.3,323.9c5.1,0,8,0.3,8.5,0.8c0.1,0.1,0.2,0.7,0.2,1.8c0,1.3-0.1,3-0.2,4.9c-0.1,1.9-0.2,3.9-0.2,6
				c0,4.4,0.3,7.5,1,9.3c0.6,1.9,1.9,2.8,3.7,2.8c1.6,0,2.8-0.8,3.6-2.4c1.1-2,1.6-6.3,1.7-13.2c0.2-5.6,0.4-8.6,0.6-8.8
				c0.3-0.3,1.4-0.6,3.4-0.8c2-0.3,4-0.4,5.9-0.4c1.5,0,2.6,0.1,3.5,0.2c0.9,0.1,1.5,0.4,1.8,0.9c0.6,0.9,0.9,5.2,0.9,13
				c0,14.3-0.2,22-0.7,23.1c-0.3,0.8-1.6,1.3-3.9,1.3c-1,0-2.8-0.1-5.5-0.3c-1,0-1.7,0-2.3-0.1c-0.6-0.1-1.1-0.2-1.6-0.4
				c-0.6-0.2-1-0.4-1.2-0.6c-0.3-0.3-0.5-0.7-0.7-1.2c-0.4-1.1-0.9-1.3-1.4-0.7c-0.3,0.4-1.4,1-3.2,1.7c-1.8,0.7-3.2,1.2-4.4,1.4
				c-0.8,0.1-1.6,0.2-2.5,0.2c-2.3,0-4.5-0.5-6.5-1.5c-2-1-3.5-2.3-4.5-4c-0.4-0.7-0.9-2-1.5-3.9c-0.4-1.9-0.7-4.3-0.7-7.3v-4.3
				c0.1-10.8,0.8-16.5,2.1-17.1C912.8,324,914.2,323.9,916.3,323.9z"/>
			<path class="st47" d="M979.9,323.4c3.9,0,6.9,1.1,9.1,3.2c2.2,2.1,3.7,4.8,4.7,8c0.4,1.5,0.7,6,0.8,13.4v5.3c0,3.9-0.2,6-0.5,6.3
				c-0.2,0.3-0.7,0.5-1.3,0.6c-0.7,0.1-2.7,0.2-6,0.3l-6.9,0.2l-0.3-0.8c-0.1-0.2-0.2-2.9-0.5-8.1c-0.1-4.2-0.3-7.4-0.6-9.6
				c-0.3-1.6-1-3-1.9-4c-0.5-0.5-1.2-0.8-2-0.8c-4.1,0-6.1,3.8-6.1,11.5c0,2.2,0,3.7,0.1,4.4c0.1,1.1,0.1,2.8,0.1,5.1
				c0,1.5-0.1,2.3-0.3,2.4s-1.7,0.3-4.7,0.4c-3,0.1-5.6,0.2-7.8,0.2c-0.9,0-1.5-0.1-1.8-0.2c-0.3-0.1-0.5-0.4-0.6-0.8
				c-0.1-0.4-0.2-1.1-0.3-2.1c-0.1-0.7-0.1-3.2-0.1-7.6l-0.1-7.5v-8.3l-0.1-6c0-1.6,0.1-2.7,0.3-3.3c0.2-0.6,0.6-1.1,1.2-1.3
				c0.6-0.2,1.6-0.3,3.1-0.3h4.2c3.1,0,4.9,0.1,5.6,0.4c0.6,0.2,0.8,1.1,0.8,2.7c0,1.3,0.1,2,0.3,2s0.8-0.5,1.9-1.6
				c2-1.8,4-3,6.1-3.6C977.3,323.6,978.6,323.4,979.9,323.4z"/>
			<path class="st47" d="M1005.2,329.4h2.3h0.9c0.8,0,1.4,0.1,1.9,0.3c0.4,0.2,0.7,0.4,0.9,0.6c0.1,0.2,0.2,0.7,0.3,1.3
				c0.1,1.5,0.2,6.6,0.2,15.5c0,9.3-0.1,14.1-0.3,14.3c-0.4,0.4-2.2,0.7-5.3,0.7h-3l-2.3-0.1c-1.3,0-2.1,0-2.3-0.1
				c-0.6-0.1-1-0.3-1.3-0.6l-0.7-0.7l-0.1-11.3v-3.5c0-9.8,0.3-15,1-15.8c0.3-0.3,2.1-0.5,5.4-0.6
				C1003.7,329.5,1004.6,329.4,1005.2,329.4z M1004,313.9c1.8,0,3.4,0.6,4.8,1.9c1.3,1.3,2,2.7,2,4.3v1.1c-0.1,1.6-0.8,2.9-1.9,3.8
				c-1.2,0.9-2.7,1.4-4.7,1.4h-0.5c-2-0.1-3.5-0.7-4.7-1.7c-1.2-1-1.8-2.4-1.8-4c0-0.8,0.1-1.6,0.4-2.3c0.3-0.7,0.8-1.5,1.6-2.3
				C1000.5,314.6,1002.2,313.9,1004,313.9z"/>
			<path class="st47" d="M1025.6,313.5c0,0,1.5,0,4.6,0c3.1,0,5.1,0.1,5.9,0.2c1,0.2,1.5,0.4,1.7,0.6c0.2,0.2,0.3,0.6,0.3,1.3
				l-0.2,4.4l-0.2,2.7l-0.1,1l4,0.1c0.8,0,1.3,0,1.7,0.1c1.4,0,2.3,0.1,2.8,0.3c0.4,0.2,0.7,0.8,0.8,1.8c0.1,1,0.2,2.9,0.2,5.9v1.4
				c0,1.6-0.1,2.6-0.2,3.2c-0.1,0.6-0.4,0.9-0.9,1.1c-0.5,0.2-1.4,0.3-2.7,0.3h-5.4l-0.3,1.8c-0.1,1.3-0.2,2.2-0.2,2.5
				c0,5.8,1.5,8.7,4.4,8.7c0.6,0,1.4-0.3,2.4-0.9c1-0.6,1.6-1,1.8-1.3c0.2-0.2,0.4-0.3,0.6-0.3c0.5,0,1.1,0.4,1.9,1.2
				c0.9,0.9,1.7,2,2.6,3.2c0.8,1.3,1.2,2.1,1.2,2.6c0,0.7-0.8,1.6-2.3,2.9c-1.5,1.2-3.3,2.3-5.4,3.3c-2.7,1.2-5.6,1.8-8.7,1.8
				c-2,0-3.6-0.3-5.1-1c-1.4-0.7-2.9-1.8-4.6-3.5c-1.9-1.9-3.3-3.9-4.1-6.1c-0.8-2.2-1.3-5.5-1.3-9.9v-1.9v-1.2
				c-0.1-0.2-0.1-0.4-0.1-0.8c0-0.3-0.1-0.5-0.2-0.6l-0.3-0.3c-0.1-0.2-0.4-0.3-1.2-0.3l-1-0.1h-1.3c-1.2-0.1-1.9-0.2-2.3-0.3
				c-0.3-0.1-0.6-0.3-0.9-0.8c-0.2-0.4-0.3-1.1-0.3-2.2c0-1.5,0-2.5,0.1-3.1c0.1-1.7,0.2-2.7,0.2-3.2c0.1-0.7,0.1-1.3,0.1-1.8
				c0-0.5,0.1-0.8,0.1-1l0.3-1.2l3.4-0.2c1.7-0.1,2.7-0.1,3-0.3c0.3-0.1,0.4-0.3,0.5-0.5c0.1-1.2,0.2-2.9,0.4-5.1
				c0.2-2.2,0.4-3.4,0.5-3.5c0.3-0.3,0.9-0.6,1.9-0.8C1025.1,313.5,1025.6,313.5,1025.6,313.5z"/>
			<path class="st47" d="M1074.4,321.7h1.1c2.3,0.1,4.1,0.5,5.4,1.2c1.3,0.7,3,2,4.9,3.9c3,3,4.9,6.3,5.8,9.7
				c0.3,1.4,0.4,2.6,0.4,3.5c0,3.4-0.6,5.3-1.7,5.8h-13.9c-4.4,0-6.6,0-6.6,0.1c0,0.7,0.6,1.4,1.9,2.1c1.3,0.8,2.8,1.3,4.5,1.7
				c0.9,0.2,1.8,0.3,2.6,0.3c1.3,0,3-0.3,5.1-1c1.6-0.4,2.7-0.7,3.1-0.7c0.6,0,1,0.2,1.3,0.5c0.4,0.6,1,1.6,1.8,3.1
				c0.8,1.5,1.2,2.6,1.2,3.2c0,1.2-1,2.4-3.1,3.6c-2,1.2-4.1,2.1-6.3,2.6c-2.2,0.5-4.8,0.8-7.8,0.8c-3.7,0-6.5-0.3-8.5-1
				s-4.2-2.1-6.5-4.4c-2.3-2.2-3.9-4.4-4.7-6.5c-0.8-2.1-1.3-4.6-1.3-7.5c0-3.1,0.5-6,1.4-8.6c0.9-2.6,2.7-4.9,5.2-7.1
				c2.7-2.3,6.1-4,10.2-4.9C1071.5,321.8,1072.9,321.7,1074.4,321.7z M1074.2,333.1c-1.2,0-2.3,0.4-3.2,1.1
				c-0.9,0.7-1.4,1.6-1.5,2.8l-0.1,1l4.1,0.3l3.4,0.2h0.4c0.2,0,0.4,0,0.4-0.1h0.2h0.2c0.2-0.1,0.3-0.4,0.3-1c0-0.7-0.2-1.4-0.5-2.1
				C1077.2,333.8,1075.9,333.1,1074.2,333.1z"/>
			<path class="st47" d="M1126.2,313.5c3.5,0,5.6,0.1,6.3,0.3c0.8,0.2,1.5,0.6,2,1.2l0.8,0.8l-0.2,22c-0.1,13.3-0.3,20.7-0.6,22.3
				c-0.2,0.6-0.6,1.1-1.3,1.3l-0.3,0.2c-0.7,0.3-2.3,0.4-4.7,0.4h-1.8c-3.2-0.1-5.2-0.3-5.8-0.4c-1-0.3-1.6-0.8-2-1.6
				c0-0.1-0.1-0.3-0.4-0.7c-0.2-0.2-0.4-0.2-0.4-0.2l-2.4,1c-1.4,0.6-3.4,0.9-5.9,0.9c-2.3,0-3.9-0.1-4.9-0.3
				c-1-0.2-2.1-0.6-3.4-1.3c-4.2-2.1-6.8-5.3-7.5-9.6c-0.3-1.8-0.4-3.4-0.4-4.5c0-3.9,0.8-7.4,2.5-10.6c1.6-3.1,3.8-5.6,6.4-7.3
				c2.6-1.7,5.3-2.6,8-2.6c2.6,0,5.1,0.8,7.5,2.3c0.6,0.4,0.9,0.5,1,0.4c0.1-0.1,0.2-2,0.5-5.7c0.3-3.7,0.5-5.9,0.7-6.5
				c0.3-1,1.1-1.6,2.3-1.8C1123,313.5,1124.4,313.5,1126.2,313.5z M1116.9,338.2c-0.7-0.5-1.6-0.8-2.5-0.8c-0.9,0-1.9,0.3-3,0.9
				c-1.9,1.2-2.9,2.9-2.9,5c0,1.4,0.5,2.7,1.5,4c1,1.3,2.4,1.9,4.1,1.9c0.8,0,1.6-0.2,2.6-0.5l1.3-0.4v-9.4L1116.9,338.2z"/>
			<path class="st47" d="M248.4,388.2c0,0,1.5,0,4.6,0c3.1,0,5.1,0.1,5.9,0.2c0.9,0.2,1.5,0.4,1.7,0.6c0.2,0.2,0.3,0.6,0.3,1.3
				l-0.2,4.4l-0.2,2.7l-0.1,1l4,0.1c0.8,0,1.3,0,1.7,0.1c1.4,0,2.3,0.1,2.8,0.3c0.4,0.2,0.7,0.8,0.8,1.8s0.2,2.9,0.2,5.9v1.4
				c0,1.6-0.1,2.6-0.2,3.2c-0.1,0.6-0.4,0.9-0.9,1.1c-0.5,0.2-1.4,0.3-2.7,0.3h-5.4l-0.3,1.8c-0.1,1.3-0.2,2.2-0.2,2.5
				c0,5.8,1.5,8.7,4.4,8.7c0.6,0,1.4-0.3,2.4-0.9s1.6-1,1.8-1.3c0.2-0.2,0.4-0.3,0.6-0.3c0.5,0,1.1,0.4,1.9,1.2
				c0.9,0.9,1.7,2,2.6,3.2c0.8,1.3,1.2,2.1,1.2,2.6c0,0.7-0.8,1.6-2.3,2.9c-1.5,1.2-3.3,2.3-5.4,3.3c-2.7,1.2-5.6,1.8-8.7,1.8
				c-2,0-3.6-0.3-5.1-1c-1.4-0.7-2.9-1.8-4.6-3.5c-1.9-1.9-3.3-3.9-4.1-6.1c-0.8-2.2-1.3-5.5-1.3-9.9v-1.9v-1.2
				c-0.1-0.2-0.1-0.4-0.1-0.8c0-0.3-0.1-0.5-0.2-0.6l-0.3-0.3c-0.1-0.2-0.4-0.3-1.2-0.3l-1-0.1h-1.3c-1.2-0.1-1.9-0.2-2.3-0.3
				c-0.3-0.1-0.6-0.3-0.9-0.8c-0.2-0.4-0.3-1.1-0.3-2.2c0-1.5,0-2.5,0.1-3.1c0.1-1.7,0.2-2.7,0.2-3.2c0.1-0.7,0.1-1.3,0.1-1.8
				c0-0.5,0.1-0.8,0.1-1l0.3-1.2l3.4-0.2c1.7-0.1,2.7-0.1,3-0.3c0.3-0.1,0.4-0.3,0.5-0.5c0.1-1.2,0.2-2.9,0.4-5.1
				c0.2-2.2,0.4-3.4,0.5-3.5c0.3-0.3,0.9-0.6,1.9-0.8C247.9,388.2,248.4,388.2,248.4,388.2z"/>
			<path class="st47" d="M282,386.7c4.9,0,8,0.5,9.5,1.4c0.7,0.4,1.1,1.1,1.4,2.1c0.2,0.9,0.3,2.7,0.3,5.5c0,3.2,0.1,4.9,0.3,4.9
				l0.3-0.2c0.4-0.2,0.6-0.4,0.8-0.4l0.8-0.4c1.8-0.9,3.8-1.3,5.9-1.3c0.6,0,0.9,0,1.1,0.1c1.3,0.2,2.8,0.5,4.4,1.1
				c1.7,0.6,2.9,1.1,3.6,1.6c1.8,1.4,3.4,3.5,4.5,6.5c1.2,2.9,2,5.8,2.6,8.8c0.5,3,0.8,5.3,0.8,7.1v1.6c-0.1,0.6-0.1,1.3-0.1,2.1
				c-0.1,1.3-0.1,2.7-0.1,4.2c0,0.7-0.1,1.6-0.4,2.6c-0.3,1-0.5,1.6-0.8,1.8c-0.2,0.2-0.8,0.5-1.7,0.8c-0.9,0.3-1.7,0.4-2.4,0.4H309
				c-3.7,0-5.9-0.2-6.5-0.6l-0.8-0.5v-5.8c0-6.8-0.4-11.2-1.1-13.4c-0.3-1-0.8-1.9-1.5-2.7c-0.7-0.8-1.2-1.2-1.7-1.2
				c-0.6,0-1.3,0.3-2.1,1c-0.8,0.6-1.4,1.4-1.8,2.4c-0.4,1-0.7,1.8-0.8,2.4c-0.2,1.3-0.3,3.9-0.3,7.8c-0.1,4.5-0.3,7.4-0.5,8.6
				c-0.2,1.2-0.5,1.9-0.9,2.2c-0.4,0.3-1.2,0.4-2.4,0.4c-3.2,0-5.7-0.2-7.5-0.6c-1.6-0.4-2.6-0.8-2.9-1.2c-0.6-0.7-0.9-2-1-4.1
				c-0.1-2.1-0.3-5.8-0.4-11.1l-0.1-5.7c-0.2-12.1-0.3-19.4-0.3-21.9c0-1.8,0.1-3.2,0.4-4.2c0.3-0.9,0.8-1.5,1.4-1.8
				C279.2,386.8,280.4,386.7,282,386.7z"/>
			<path class="st47" d="M348.8,399.6c3.1,0,5.6,0.2,7.3,0.6c1.2,0.3,2.1,0.7,2.7,1.3c0.6,0.6,1,1.6,1.3,2.8
				c0.2,0.7,0.3,3.2,0.3,7.5c0,9.6-0.2,16.1-0.6,19.5c-0.2,1.8-0.4,3.1-0.8,3.8c-0.3,0.7-1,1.1-2,1.3c-1,0.2-2.8,0.4-5.6,0.5
				c-0.7,0.1-1.9,0.1-3.6,0.1c-1.2,0-2-0.1-2.4-0.4c-0.4-0.3-0.8-0.8-1.2-1.7c-0.4-0.9-0.7-1.3-0.9-1.3c-0.2,0-1.1,0.4-2.6,1.1
				c-2.3,1.1-4.6,1.7-6.7,1.7c-2.2,0-4.6-0.8-7-2.5c-2.5-1.7-4.5-3.9-6.2-6.5c-1.6-2.7-2.5-5.4-2.5-8.2c0-1.2,0.1-2.2,0.3-2.9
				l0.3-1.3l0.2-0.9c0.2-1.3,1.1-3.3,2.9-6c2.7-4.2,6.2-6.9,10.5-7.9c0.8-0.2,1.7-0.3,2.6-0.3c3.1,0,5.7,0.8,7.8,2.3
				c0.6,0.4,1,0.6,1.3,0.6c0.3,0,0.4-0.2,0.4-0.6c0-0.3,0.2-0.7,0.7-1.3c0.5-0.6,0.9-1,1.3-1.1C346.8,399.7,347.5,399.6,348.8,399.6
				z M339.9,412.2c-1.3,0-2.5,0.4-3.6,1.2c-1.1,0.8-1.8,1.8-2.2,3.2c-0.2,0.5-0.3,1-0.3,1.6c0,1.5,0.6,2.6,1.8,3.5
				c1.2,0.9,2.8,1.3,4.8,1.3c1.1,0,1.8-0.1,2.1-0.2c0.4-0.1,0.6-0.4,0.7-0.8c0.1-0.4,0.3-1.2,0.4-2.5c0.2-1.5,0.3-3,0.3-4.4
				c0-0.8-0.1-1.4-0.2-1.6c-0.1-0.2-0.5-0.4-1.2-0.7C341.9,412.4,340.9,412.2,339.9,412.2z"/>
			<path class="st47" d="M388.8,398.1c3.9,0,6.9,1.1,9.1,3.2c2.2,2.1,3.7,4.8,4.7,8c0.4,1.5,0.7,6,0.8,13.4v5.3c0,3.9-0.2,6-0.5,6.3
				c-0.2,0.3-0.7,0.5-1.3,0.6c-0.7,0.1-2.7,0.2-6,0.3l-6.9,0.2l-0.3-0.8c-0.1-0.2-0.2-2.9-0.5-8.1c-0.1-4.2-0.3-7.4-0.6-9.6
				c-0.3-1.6-1-3-1.9-4c-0.5-0.5-1.2-0.8-2-0.8c-4.1,0-6.1,3.8-6.1,11.5c0,2.2,0,3.7,0.1,4.4c0.1,1.1,0.1,2.8,0.1,5.1
				c0,1.5-0.1,2.3-0.3,2.4s-1.7,0.3-4.7,0.4c-3,0.1-5.6,0.2-7.8,0.2c-0.9,0-1.5-0.1-1.8-0.2c-0.3-0.1-0.5-0.4-0.6-0.8
				c-0.1-0.4-0.2-1.1-0.3-2.1c-0.1-0.7-0.1-3.2-0.1-7.6l-0.1-7.5v-8.3l-0.1-6c0-1.6,0.1-2.7,0.3-3.3c0.2-0.6,0.6-1.1,1.2-1.3
				c0.6-0.2,1.6-0.3,3.1-0.3h4.2c3.1,0,4.9,0.1,5.6,0.4c0.6,0.2,0.8,1.1,0.8,2.7c0,1.3,0.1,2,0.3,2s0.8-0.5,1.9-1.6
				c2-1.8,4-3,6.1-3.6C386.3,398.3,387.6,398.1,388.8,398.1z"/>
			<path class="st47" d="M411.5,392.8c0,0,1,0,2.9,0c2,0,3.4,0.1,4.4,0.3c1,0.2,1.6,0.7,1.9,1.3c0.3,0.6,0.5,2.3,0.6,5.1
				s0.2,5.4,0.2,8c0,2.5,0,3.7,0.1,3.7c0.2,0,1.3-1.5,3.5-4.4c1.6-2.2,3.7-4.7,6.2-7.6c2.5-2.9,4.1-4.5,4.7-4.8
				c0.4-0.2,0.8-0.3,1.1-0.3c0.7,0,1.9,0.6,3.8,1.8c1.8,1.2,3.4,2.4,4.5,3.7c1.2,1.3,1.8,2.4,1.8,3.2c0,0.4-0.3,1-0.8,1.8
				c-0.7,1-2.3,3-4.9,6c-2.5,3-4.5,5.2-5.9,6.7l-2.7,2.9l2.5,2.9c1.6,1.7,3.4,3.9,5.5,6.5c2.1,2.6,3.3,4.1,3.5,4.4l0.2,0.6
				c0,0.7-1.7,1.3-5.2,1.8c-3.1,0.4-4.8,0.8-5.3,0.9c-0.9,0.2-1.6,0.3-2.2,0.3c-0.8,0-1.6-0.2-2.2-0.7c-0.4-0.3-1.7-1.9-3.9-4.8
				c-2-2.7-3.1-4-3.4-4c-0.2,0-0.5,0.3-0.9,0.8c-0.5,0.7-0.8,2.2-0.8,4.5c-0.1,2.5-0.3,3.9-0.8,4.4c-0.4,0.4-1.2,0.6-2.4,0.6
				c-1.6,0-2.7,0-3.3-0.1c-2.8-0.1-4.9-0.3-6.4-0.6c-1.1-0.2-1.8-0.6-2.2-1c-0.3-0.5-0.6-1.4-0.7-2.7c-0.1-1.3-0.1-4.9-0.3-10.8
				v-3.4c0-11.2,0.3-19.1,0.8-23.9c0.1-1.1,0.4-1.8,0.8-2.1c0.4-0.4,1.2-0.6,2.5-0.7C410.7,392.9,411.5,392.8,411.5,392.8z"/>
			<path class="st47" d="M463.2,397.1h1.5c1.6,0,3.4,0.2,5.5,0.6c2,0.4,3.9,0.9,5.6,1.4c1.7,0.5,2.7,0.8,2.9,1
				c0.6,0.4,0.8,1,0.8,1.8c0,0.9-0.3,2.2-0.8,3.9c-0.5,1.7-0.9,3-1.3,3.8c-0.3,0.6-0.7,0.9-1.3,0.9s-1.4-0.3-2.6-0.8
				c-2.5-1-4.4-1.5-6-1.5c-0.4,0-0.9,0.1-1.3,0.3s-0.7,0.4-0.7,0.7c0,0.3,0.2,0.6,0.6,0.9c0.6,0.4,2.4,0.9,5.5,1.3
				c2.6,0.3,4.6,0.9,6.1,1.8c1.5,0.9,2.7,2.2,3.6,4.1c0.8,1.5,1.3,3.3,1.3,5.4c0,2.4-0.6,4.7-1.9,6.9c-1.3,2.2-3,4-5.2,5.3
				c-2.4,1.4-5.4,2.1-9.1,2.1c-3.6,0-7.1-0.7-10.6-2c-3.5-1.3-6.2-3-8.2-5.2c-0.8-0.9-1.3-1.6-1.3-2.1s0.5-1.3,1.5-2.5
				s2.1-2.4,3.2-3.5c1.1-1.1,1.8-1.7,2.1-1.7c0.2,0,0.9,0.5,2.1,1.4c2.5,1.8,5,2.8,7.6,3h1.1c0.9,0,1.6-0.2,2-0.5s0.7-0.8,0.7-1.4
				c0-0.7-0.5-1.4-1.4-1.9c-1-0.5-2.6-1-4.9-1.3c-5.9-0.9-9.7-3.2-11.4-6.8c-0.6-1.1-0.8-2.3-0.8-3.6c0-1.6,0.4-3.2,1.3-4.8
				c0.9-1.6,2.1-3.1,3.6-4.3c1.5-1.2,3.2-2.1,5.1-2.5C459.8,397.2,461.3,397.1,463.2,397.1z"/>
			<path class="st47" d="M513.9,388.2c0,0,1.5,0,4.6,0c3.1,0,5.1,0.1,5.9,0.2c1,0.2,1.5,0.4,1.7,0.6c0.2,0.2,0.3,0.6,0.3,1.3
				l-0.2,4.4l-0.2,2.7l-0.1,1l4,0.1c0.8,0,1.3,0,1.7,0.1c1.4,0,2.3,0.1,2.8,0.3c0.4,0.2,0.7,0.8,0.8,1.8c0.1,1,0.2,2.9,0.2,5.9v1.4
				c0,1.6-0.1,2.6-0.2,3.2c-0.1,0.6-0.4,0.9-0.9,1.1c-0.5,0.2-1.4,0.3-2.7,0.3h-5.4l-0.3,1.8c-0.1,1.3-0.2,2.2-0.2,2.5
				c0,5.8,1.5,8.7,4.4,8.7c0.6,0,1.4-0.3,2.4-0.9s1.6-1,1.8-1.3c0.2-0.2,0.4-0.3,0.6-0.3c0.5,0,1.1,0.4,1.9,1.2
				c0.9,0.9,1.7,2,2.6,3.2c0.8,1.3,1.2,2.1,1.2,2.6c0,0.7-0.8,1.6-2.3,2.9c-1.5,1.2-3.3,2.3-5.4,3.3c-2.7,1.2-5.6,1.8-8.7,1.8
				c-2,0-3.6-0.3-5.1-1c-1.4-0.7-2.9-1.8-4.6-3.5c-1.9-1.9-3.3-3.9-4.1-6.1c-0.8-2.2-1.3-5.5-1.3-9.9v-1.9v-1.2
				c-0.1-0.2-0.1-0.4-0.1-0.8c0-0.3-0.1-0.5-0.2-0.6l-0.3-0.3c-0.1-0.2-0.4-0.3-1.2-0.3l-1-0.1h-1.3c-1.2-0.1-1.9-0.2-2.3-0.3
				c-0.3-0.1-0.6-0.3-0.9-0.8c-0.2-0.4-0.3-1.1-0.3-2.2c0-1.5,0-2.5,0.1-3.1c0.1-1.7,0.2-2.7,0.2-3.2c0.1-0.7,0.1-1.3,0.1-1.8
				s0.1-0.8,0.1-1l0.3-1.2l3.4-0.2c1.7-0.1,2.7-0.1,3-0.3c0.3-0.1,0.4-0.3,0.5-0.5c0.1-1.2,0.2-2.9,0.4-5.1c0.2-2.2,0.4-3.4,0.5-3.5
				c0.3-0.3,0.9-0.6,1.9-0.8C513.4,388.2,513.9,388.2,513.9,388.2z"/>
			<path class="st47" d="M562.9,398.1c1.9,0,3.7,0.1,5.5,0.4c4.2,0.8,7.8,2.4,10.7,4.9c3,2.5,4.8,5.4,5.4,8.8
				c0.2,0.7,0.3,1.7,0.3,2.8c0,3.4-0.5,6.4-1.6,9c-1,2.6-2.7,5-5.1,7.3c-2.2,2.1-4.4,3.6-6.7,4.4c-2.3,0.8-4.7,1.2-7.1,1.2
				c-4.3,0-8.2-1-11.7-3.1s-6.3-4.6-8.3-7.7c-2-3.1-3-6-3-8.8c0-0.9,0.1-2.2,0.4-4c1.8-9,7-14,15.4-15
				C559.3,398.2,561.2,398.1,562.9,398.1z M563.6,411.4c-0.8,0-1.5,0.2-2,0.6c-2,1.2-3,3-3,5.3c0,0.8,0.2,1.8,0.7,2.8
				c1,2.1,2.6,3.1,4.8,3.1c1.2,0,2.2-0.4,3-1.1s1.3-1.7,1.5-2.9c0.1-0.2,0.1-0.5,0.1-1c0-1.3-0.3-2.6-0.9-3.9
				c-0.6-1.2-1.4-2.1-2.3-2.5C564.8,411.5,564.2,411.4,563.6,411.4z"/>
			<path class="st47" d="M617.2,398.8c2.3-0.6,4.3-1,6-1c1.2,0,2.1,0.2,2.8,0.6c0.7,0.4,1.4,1.2,2.1,2.4c0.8,1.7,2,4.9,3.7,9.7
				c1.3,3.7,2.1,5.6,2.2,5.6c0.2,0,1.7-2.8,4.4-8.3c2.5-4.9,4.1-7.7,4.8-8.4c0.7-0.8,1.9-1.2,3.8-1.2c2.7,0,5.5,0.6,8.2,1.9
				c0.9,0.4,1.3,1,1.3,1.8c0,1.1-1.6,4.8-4.8,11.3c-4.5,9.1-9.4,17.9-14.8,26.4c-1.7,2.7-3.2,4.9-4.4,6.5c-1.2,1.6-2.6,3.2-4.2,4.7
				c-3.3,3.2-7.4,4.9-12.4,4.9c-1.3,0-3-0.2-4.9-0.5c-1.9-0.4-3.5-0.9-4.8-1.6c-1.5-0.7-2.2-1.4-2.2-2.1c0-0.6,0.4-1.6,1.1-3.1
				c0.8-1.5,1.6-2.8,2.6-4.1c0.9-1.3,1.6-1.9,2.1-2.1h0.3c0.6,0,1.1,0.1,1.8,0.3c0.7,0.3,1.6,0.4,2.6,0.4c3.2,0,6-2,8.4-6
				c0.7-1.2,1.1-2.2,1.1-2.9c0-1.1-1.1-4.1-3.4-9.2c-2.1-4.7-4-9.4-5.7-14.2c-1.7-4.8-2.6-7.8-2.6-8.9c0-0.6,0.2-1.1,0.7-1.4
				C613.4,400.1,614.8,399.5,617.2,398.8z"/>
			<path class="st47" d="M679.1,398.1c1.9,0,3.7,0.1,5.5,0.4c4.2,0.8,7.8,2.4,10.7,4.9c3,2.5,4.8,5.4,5.4,8.8
				c0.2,0.7,0.3,1.7,0.3,2.8c0,3.4-0.5,6.4-1.6,9c-1,2.6-2.7,5-5.1,7.3c-2.2,2.1-4.4,3.6-6.7,4.4c-2.3,0.8-4.7,1.2-7.1,1.2
				c-4.3,0-8.2-1-11.7-3.1s-6.3-4.6-8.3-7.7c-2-3.1-3-6-3-8.8c0-0.9,0.1-2.2,0.4-4c1.8-9,7-14,15.4-15
				C675.5,398.2,677.4,398.1,679.1,398.1z M679.8,411.4c-0.8,0-1.5,0.2-2,0.6c-2,1.2-3,3-3,5.3c0,0.8,0.2,1.8,0.7,2.8
				c1,2.1,2.6,3.1,4.8,3.1c1.2,0,2.2-0.4,3-1.1s1.3-1.7,1.5-2.9c0.1-0.2,0.1-0.5,0.1-1c0-1.3-0.3-2.6-0.9-3.9
				c-0.6-1.2-1.4-2.1-2.3-2.5C681,411.5,680.3,411.4,679.8,411.4z"/>
			<path class="st47" d="M709,398.6c5.1,0,8,0.3,8.5,0.8c0.1,0.1,0.2,0.7,0.2,1.8c0,1.3-0.1,3-0.2,4.9c-0.1,1.9-0.2,3.9-0.2,6
				c0,4.4,0.3,7.5,1,9.3c0.6,1.9,1.9,2.8,3.7,2.8c1.6,0,2.8-0.8,3.6-2.4c1.1-2,1.6-6.3,1.7-13.2c0.2-5.6,0.4-8.6,0.6-8.8
				c0.3-0.3,1.4-0.6,3.4-0.8c2-0.3,4-0.4,5.9-0.4c1.5,0,2.6,0.1,3.5,0.2c0.9,0.1,1.5,0.4,1.8,0.9c0.6,0.9,0.9,5.2,0.9,13
				c0,14.3-0.2,22-0.7,23.1c-0.3,0.8-1.6,1.3-3.9,1.3c-1,0-2.8-0.1-5.5-0.3c-1,0-1.7,0-2.3-0.1c-0.6-0.1-1.1-0.2-1.6-0.4
				c-0.6-0.2-1-0.4-1.2-0.6c-0.3-0.3-0.5-0.7-0.7-1.2c-0.4-1.1-0.9-1.3-1.4-0.7c-0.3,0.4-1.4,1-3.2,1.7c-1.8,0.7-3.2,1.2-4.4,1.4
				c-0.8,0.1-1.6,0.2-2.5,0.2c-2.3,0-4.5-0.5-6.5-1.5c-2-1-3.5-2.3-4.5-4c-0.4-0.7-0.9-2-1.5-3.9c-0.4-1.9-0.7-4.3-0.7-7.3v-4.3
				c0.1-10.8,0.8-16.5,2.1-17.1C705.5,398.8,706.8,398.6,709,398.6z"/>
			<path class="st47" d="M750.1,429.1c1.3,0,2.3,0.3,3,0.8c1.8,1.3,2.8,3.1,2.8,5.4c0,1.2-0.3,2.4-0.8,3.4c-1.1,2.2-3,3.7-5.7,4.4
				c-1,0.3-1.7,0.4-2.1,0.4c-1.1,0-1.6-0.6-1.6-1.8c0-0.7,0.1-1.3,0.3-1.6c0.2-0.3,0.7-0.7,1.5-1.1c0.7-0.3,1.1-0.6,1.1-0.7
				c0-0.2-0.3-0.4-1-0.8c-1.7-0.8-2.5-2.2-2.5-3.9c0-2,0.9-3.4,2.8-4.3C748.7,429.3,749.4,429.1,750.1,429.1z"/>
			<path class="st47" d="M802.4,398.1c3.9,0,6.9,1.1,9.1,3.2c2.2,2.1,3.7,4.8,4.7,8c0.4,1.5,0.7,6,0.8,13.4v5.3c0,3.9-0.2,6-0.5,6.3
				c-0.2,0.3-0.7,0.5-1.3,0.6c-0.7,0.1-2.7,0.2-6,0.3l-6.9,0.2l-0.3-0.8c-0.1-0.2-0.2-2.9-0.5-8.1c-0.1-4.2-0.3-7.4-0.6-9.6
				c-0.3-1.6-1-3-1.9-4c-0.5-0.5-1.2-0.8-2-0.8c-4.1,0-6.1,3.8-6.1,11.5c0,2.2,0,3.7,0.1,4.4c0.1,1.1,0.1,2.8,0.1,5.1
				c0,1.5-0.1,2.3-0.3,2.4s-1.7,0.3-4.7,0.4s-5.6,0.2-7.8,0.2c-0.9,0-1.5-0.1-1.8-0.2c-0.3-0.1-0.5-0.4-0.6-0.8
				c-0.1-0.4-0.2-1.1-0.3-2.1c-0.1-0.7-0.1-3.2-0.1-7.6l-0.1-7.5v-8.3l-0.1-6c0-1.6,0.1-2.7,0.3-3.3c0.2-0.6,0.6-1.1,1.2-1.3
				c0.6-0.2,1.6-0.3,3.1-0.3h4.2c3.1,0,4.9,0.1,5.6,0.4c0.6,0.2,0.8,1.1,0.8,2.7c0,1.3,0.1,2,0.3,2s0.8-0.5,1.9-1.6
				c2-1.8,4-3,6.1-3.6C799.9,398.3,801.1,398.1,802.4,398.1z"/>
			<path class="st47" d="M839.6,398.1c1.9,0,3.7,0.1,5.5,0.4c4.2,0.8,7.8,2.4,10.7,4.9c3,2.5,4.8,5.4,5.4,8.8
				c0.2,0.7,0.3,1.7,0.3,2.8c0,3.4-0.5,6.4-1.6,9c-1,2.6-2.7,5-5.1,7.3c-2.2,2.1-4.4,3.6-6.7,4.4c-2.3,0.8-4.7,1.2-7.1,1.2
				c-4.3,0-8.2-1-11.7-3.1s-6.3-4.6-8.3-7.7c-2-3.1-3-6-3-8.8c0-0.9,0.1-2.2,0.4-4c1.8-9,7-14,15.4-15
				C836,398.2,837.9,398.1,839.6,398.1z M840.3,411.4c-0.8,0-1.5,0.2-2,0.6c-2,1.2-3,3-3,5.3c0,0.8,0.2,1.8,0.7,2.8
				c1,2.1,2.6,3.1,4.8,3.1c1.2,0,2.2-0.4,3-1.1s1.3-1.7,1.5-2.9c0.1-0.2,0.1-0.5,0.1-1c0-1.3-0.3-2.6-0.9-3.9
				c-0.6-1.2-1.4-2.1-2.3-2.5C841.5,411.5,840.9,411.4,840.3,411.4z"/>
			<path class="st47" d="M890.8,398.3l3.7,0.2l1.8,0.1c2.6,0.1,4.4,0.3,5.3,0.7c0.9,0.3,1.6,1.2,2,2.5c0.4,1.3,0.9,3.9,1.3,7.7
				c0.2,1.1,0.3,2.2,0.4,3.4c0.1,1.2,0.2,2.1,0.3,2.8c0.1,1.1,0.3,1.5,0.4,1.4c0.4-0.4,0.9-1.3,1.4-2.8c3.9-8.9,6.1-13.5,6.5-13.9
				c0.4-0.3,1.2-0.5,2.3-0.5c1.2,0,2.9,0.2,5.1,0.5c2.2,0.3,3.6,0.6,4.3,0.9c0.6,0.3,0.9,0.9,0.9,1.7l-0.2,1.6
				c-0.8,5-3.4,12.7-7.8,23.2l-0.8,2c-1.4,3.5-2.5,5.6-3.2,6.5c-0.7,0.9-2,1.3-3.7,1.3l-2-0.2c-0.6-0.1-1.3-0.1-2.2-0.1l-3.9-0.2
				c-1.1,0-1.8,0.1-2.2,0.2c-0.3,0.2-0.8,0.3-1.3,0.3c-1,0-1.8-0.1-2.5-0.4c-0.7-0.3-1.1-0.8-1.4-1.6c-0.3-0.8-0.8-3-1.3-6.5
				c-0.5-4-0.9-6.3-1.1-6.9l-0.3-0.9l-0.5,1.3c-0.8,2-2,4.6-3.5,8c-1.5,3.4-2.4,5.2-2.6,5.4c-0.5,0.5-1.4,0.8-2.7,0.8
				c-1.5,0-3.5-0.1-6-0.3c-2.5-0.2-4-0.4-4.5-0.7c-0.8-0.3-1.5-1.3-2.2-3.1c-0.6-1.4-1.7-4.9-3.2-10.6c-3-11.2-4.4-17.7-4.4-19.5
				c0-0.4,0.3-0.8,1-1c2.1-0.7,5.2-1,9.1-1c1.8,0,2.9,0.1,3.2,0.4c0.3,0.5,1,3.6,2.2,9.4c1.3,6,2,9,2.1,9c0.3,0,2.3-4.6,6-13.8
				c1.3-3.1,2.3-5.1,2.9-5.9L890.8,398.3z"/>
			<path class="st47" d="M962.8,400.7c3,0,4.9,0.2,5.7,0.6c0.8,0.4,1.7,1,2.5,1.5l1.3,0.8c0.2,0.1,0.3-0.1,0.5-0.3
				c0.4-0.7,0.7-1.2,1-1.5c0.3-0.3,0.7-0.5,1.2-0.5c0.5-0.1,1.4-0.2,2.8-0.2h1.5c3.7,0,6.2,0.4,7.5,1.1c0.8,0.4,1.3,1.5,1.4,3.1
				c0.2,1.6,0.3,6.1,0.3,13.7c0,8.7-0.1,14.6-0.4,17.5c-0.3,2.7-1.3,5.5-2.8,8.6c-2.8,5.8-7,9.2-12.7,10.5c-1.8,0.4-4.2,0.6-7.4,0.6
				c-2.8,0-5-0.2-6.6-0.5c-1.6-0.4-3.3-1-5.1-1.9c-1.5-0.7-2.6-1.4-3.3-2.1c-0.6-0.6-0.8-1.1-0.8-1.7c0-0.4,0-0.6,0.1-0.8
				c0.2-1.1,0.9-2.8,2.1-5.1c1.2-2.3,2-3.4,2.5-3.4c0.4,0,1.5,0.4,3.3,1.1c2.5,1.1,4.7,1.6,6.7,1.6s3.6-0.7,4.9-2.1
				c1.3-1.4,2.1-3.3,2.6-5.8l0.2-1.2l-1.5,0.8c-2.6,1.2-5.5,1.8-8.6,1.8c-6.6,0-11.3-3.2-14.1-9.5c-1.4-3-2.1-6.3-2.1-9.8
				c0-6,2.1-10.5,6.3-13.5c1.9-1.3,4.1-2.3,6.7-2.9C959.2,400.8,960.7,400.7,962.8,400.7z M969.6,414.1c-2.2,0-3.9,0.5-5.1,1.6
				c-1.2,1-1.8,2.4-1.8,4c0,0.7,0.2,1.4,0.5,2c1,2,2.7,3,5.1,3c1,0,1.9-0.2,2.8-0.5l0.8-0.3v-3.3c0-3.7-0.3-5.8-0.9-6.3
				C970.7,414.2,970.3,414.1,969.6,414.1z"/>
			<path class="st47" d="M1011,396.4h1.1c2.3,0.1,4.1,0.5,5.4,1.2c1.3,0.7,3,2,4.9,3.9c3,3,4.9,6.3,5.8,9.7c0.3,1.4,0.4,2.6,0.4,3.5
				c0,3.4-0.6,5.3-1.7,5.8h-13.9c-4.4,0-6.6,0-6.6,0.1c0,0.7,0.6,1.4,1.9,2.1c1.3,0.8,2.8,1.3,4.5,1.7c0.9,0.2,1.8,0.3,2.6,0.3
				c1.3,0,3-0.3,5.1-1c1.6-0.4,2.7-0.7,3.1-0.7c0.6,0,1,0.2,1.3,0.5c0.4,0.6,1,1.6,1.8,3.1c0.8,1.5,1.2,2.6,1.2,3.2
				c0,1.2-1,2.4-3.1,3.6c-2,1.2-4.1,2.1-6.3,2.6c-2.2,0.5-4.8,0.8-7.8,0.8c-3.7,0-6.5-0.3-8.5-1c-2-0.7-4.2-2.1-6.5-4.4
				c-2.3-2.2-3.9-4.4-4.7-6.5c-0.8-2.1-1.3-4.6-1.3-7.5c0-3.1,0.5-6,1.4-8.5c0.9-2.6,2.7-4.9,5.2-7.1c2.7-2.3,6.1-4,10.2-4.9
				C1008,396.5,1009.5,396.4,1011,396.4z M1010.7,407.8c-1.2,0-2.3,0.4-3.2,1.1c-0.9,0.7-1.4,1.6-1.5,2.8l-0.1,1l4.1,0.3l3.4,0.2
				h0.4c0.2,0,0.4,0,0.4-0.1h0.2h0.2c0.2-0.1,0.3-0.4,0.3-1c0-0.7-0.2-1.4-0.5-2.1C1013.8,408.5,1012.5,407.8,1010.7,407.8z"/>
			<path class="st47" d="M1041.6,388.2c0,0,1.5,0,4.6,0c3.1,0,5.1,0.1,5.9,0.2c1,0.2,1.5,0.4,1.7,0.6c0.2,0.2,0.3,0.6,0.3,1.3
				l-0.2,4.4l-0.2,2.7l-0.1,1l4,0.1c0.8,0,1.3,0,1.7,0.1c1.4,0,2.3,0.1,2.8,0.3c0.4,0.2,0.7,0.8,0.8,1.8c0.1,1,0.2,2.9,0.2,5.9v1.4
				c0,1.6-0.1,2.6-0.2,3.2c-0.1,0.6-0.4,0.9-0.9,1.1c-0.5,0.2-1.4,0.3-2.7,0.3h-5.4l-0.3,1.8c-0.1,1.3-0.2,2.2-0.2,2.5
				c0,5.8,1.5,8.7,4.4,8.7c0.6,0,1.4-0.3,2.4-0.9s1.6-1,1.8-1.3c0.2-0.2,0.4-0.3,0.6-0.3c0.5,0,1.1,0.4,1.9,1.2
				c0.9,0.9,1.7,2,2.6,3.2c0.8,1.3,1.2,2.1,1.2,2.6c0,0.7-0.8,1.6-2.3,2.9c-1.5,1.2-3.3,2.3-5.4,3.3c-2.7,1.2-5.6,1.8-8.7,1.8
				c-2,0-3.6-0.3-5.1-1c-1.4-0.7-2.9-1.8-4.6-3.5c-1.9-1.9-3.3-3.9-4.1-6.1c-0.8-2.2-1.3-5.5-1.3-9.9v-1.9v-1.2
				c-0.1-0.2-0.1-0.4-0.1-0.8c0-0.3-0.1-0.5-0.2-0.6l-0.3-0.3c-0.1-0.2-0.4-0.3-1.2-0.3l-1-0.1h-1.3c-1.2-0.1-1.9-0.2-2.3-0.3
				c-0.3-0.1-0.6-0.3-0.9-0.8c-0.2-0.4-0.3-1.1-0.3-2.2c0-1.5,0-2.5,0.1-3.1c0.1-1.7,0.2-2.7,0.2-3.2c0.1-0.7,0.1-1.3,0.1-1.8
				s0.1-0.8,0.1-1l0.3-1.2l3.4-0.2c1.7-0.1,2.7-0.1,3-0.3c0.3-0.1,0.4-0.3,0.5-0.5c0.1-1.2,0.2-2.9,0.4-5.1c0.2-2.2,0.4-3.4,0.5-3.5
				c0.3-0.3,0.9-0.6,1.9-0.8C1041.1,388.2,1041.6,388.2,1041.6,388.2z"/>
			<path class="st47" d="M342.1,462.9c0,0,1.5,0,4.6,0c3.1,0,5.1,0.1,5.9,0.2c0.9,0.2,1.5,0.4,1.7,0.6c0.2,0.2,0.3,0.6,0.3,1.3
				l-0.2,4.4l-0.2,2.7l-0.1,1l4,0.1c0.8,0,1.3,0,1.7,0.1c1.4,0,2.3,0.1,2.8,0.3c0.4,0.2,0.7,0.8,0.8,1.8s0.2,2.9,0.2,5.9v1.4
				c0,1.6-0.1,2.6-0.2,3.2c-0.1,0.6-0.4,0.9-0.9,1.1c-0.5,0.2-1.4,0.3-2.7,0.3h-5.4l-0.3,1.8c-0.1,1.3-0.2,2.2-0.2,2.5
				c0,5.8,1.5,8.7,4.4,8.7c0.6,0,1.4-0.3,2.4-0.9s1.6-1,1.8-1.3c0.2-0.2,0.4-0.3,0.6-0.3c0.5,0,1.1,0.4,1.9,1.2
				c0.9,0.9,1.7,2,2.6,3.2c0.8,1.3,1.2,2.1,1.2,2.6c0,0.7-0.8,1.6-2.3,2.9c-1.5,1.2-3.3,2.3-5.4,3.3c-2.7,1.2-5.6,1.8-8.7,1.8
				c-2,0-3.6-0.3-5.1-1c-1.4-0.7-2.9-1.8-4.6-3.5c-1.9-1.9-3.3-3.9-4.1-6.1c-0.8-2.2-1.3-5.5-1.3-9.9v-1.9v-1.2
				c-0.1-0.2-0.1-0.4-0.1-0.8c0-0.3-0.1-0.5-0.2-0.6l-0.3-0.3c-0.1-0.2-0.4-0.3-1.2-0.3l-1-0.1h-1.3c-1.2-0.1-1.9-0.2-2.3-0.3
				c-0.3-0.1-0.6-0.3-0.9-0.8c-0.2-0.4-0.3-1.1-0.3-2.2c0-1.5,0-2.5,0.1-3.1c0.1-1.7,0.2-2.7,0.2-3.2c0.1-0.7,0.1-1.3,0.1-1.8
				c0-0.5,0.1-0.8,0.1-1l0.3-1.2l3.4-0.2c1.7-0.1,2.7-0.1,3-0.3c0.3-0.1,0.4-0.3,0.5-0.5c0.1-1.2,0.2-2.9,0.4-5.1
				c0.2-2.2,0.4-3.4,0.5-3.5c0.3-0.3,0.9-0.6,1.9-0.8C341.6,462.9,342.1,462.9,342.1,462.9z"/>
			<path class="st47" d="M375.7,461.4c4.9,0,8,0.5,9.5,1.4c0.7,0.4,1.1,1.1,1.4,2.1c0.2,0.9,0.3,2.7,0.3,5.5c0,3.2,0.1,4.9,0.3,4.9
				l0.3-0.2c0.4-0.2,0.6-0.4,0.8-0.4l0.8-0.4c1.8-0.9,3.8-1.3,5.9-1.3c0.6,0,0.9,0,1.1,0.1c1.3,0.2,2.8,0.5,4.4,1.1
				c1.7,0.6,2.9,1.1,3.6,1.6c1.8,1.4,3.4,3.5,4.5,6.5c1.2,2.9,2,5.8,2.6,8.8c0.5,3,0.8,5.3,0.8,7.1v1.6c-0.1,0.6-0.1,1.3-0.1,2.1
				c-0.1,1.3-0.1,2.7-0.1,4.2c0,0.7-0.1,1.6-0.4,2.6c-0.3,1-0.5,1.6-0.8,1.8c-0.2,0.2-0.8,0.5-1.7,0.8c-0.9,0.3-1.7,0.4-2.4,0.4
				h-3.9c-3.7,0-5.9-0.2-6.5-0.6l-0.8-0.5v-5.8c0-6.8-0.4-11.2-1.1-13.4c-0.3-1-0.8-1.9-1.5-2.7c-0.7-0.8-1.2-1.2-1.7-1.2
				c-0.6,0-1.3,0.3-2.1,1c-0.8,0.6-1.4,1.4-1.8,2.4c-0.4,1-0.7,1.8-0.8,2.4c-0.2,1.3-0.3,3.9-0.3,7.8c-0.1,4.5-0.3,7.4-0.5,8.6
				c-0.2,1.2-0.5,1.9-0.9,2.2c-0.4,0.3-1.2,0.4-2.4,0.4c-3.2,0-5.7-0.2-7.5-0.6c-1.6-0.4-2.6-0.8-2.9-1.2c-0.6-0.7-0.9-2-1-4.1
				c-0.1-2.1-0.3-5.8-0.4-11.1l-0.1-5.7c-0.2-12.1-0.3-19.4-0.3-21.9c0-1.8,0.1-3.2,0.4-4.2c0.3-0.9,0.8-1.5,1.4-1.8
				C373,461.5,374.2,461.4,375.7,461.4z"/>
			<path class="st47" d="M433.8,471.1h1.1c2.3,0.1,4.1,0.5,5.4,1.2c1.3,0.7,3,2,4.9,3.9c3,3,4.9,6.3,5.8,9.7
				c0.3,1.4,0.4,2.6,0.4,3.5c0,3.4-0.6,5.3-1.7,5.8h-13.9c-4.4,0-6.6,0-6.6,0.1c0,0.7,0.6,1.4,1.9,2.1c1.3,0.8,2.8,1.3,4.5,1.7
				c0.9,0.2,1.8,0.3,2.6,0.3c1.3,0,3-0.3,5.1-1c1.6-0.4,2.7-0.7,3.1-0.7c0.6,0,1,0.2,1.3,0.5c0.4,0.6,1,1.6,1.8,3.1
				c0.8,1.5,1.2,2.6,1.2,3.2c0,1.2-1,2.4-3.1,3.6c-2,1.2-4.1,2.1-6.3,2.6c-2.2,0.5-4.8,0.8-7.8,0.8c-3.7,0-6.5-0.3-8.5-1
				c-2-0.7-4.2-2.1-6.5-4.4c-2.3-2.2-3.9-4.4-4.7-6.5c-0.8-2.1-1.3-4.6-1.3-7.5c0-3.1,0.5-6,1.4-8.5c0.9-2.6,2.7-4.9,5.2-7.1
				c2.7-2.3,6.1-4,10.2-4.9C430.8,471.2,432.3,471.1,433.8,471.1z M433.6,482.5c-1.2,0-2.3,0.4-3.2,1.1c-0.9,0.7-1.4,1.6-1.5,2.8
				l-0.1,1l4.1,0.3l3.4,0.2h0.4c0.2,0,0.4,0,0.4-0.1h0.2h0.2c0.2-0.1,0.3-0.4,0.3-1c0-0.7-0.2-1.4-0.5-2.1
				C436.6,483.2,435.3,482.5,433.6,482.5z"/>
			<path class="st47" d="M503,473.7c1.5,0,3.1,0.5,5,1.5c1.9,1,3.4,2.3,4.5,4c1.1,1.7,2,4.2,2.6,7.5c0.5,2.8,0.9,7.4,1.2,13.7
				c0.1,0.6,0.1,1.8,0.1,3.7c0,3.5-0.5,5.8-1.6,6.9l-0.9,0.9l-6.6-0.2l-5.1,0.1c-0.8,0-1.4-0.1-1.7-0.3c-0.3-0.2-0.5-0.7-0.6-1.3
				s-0.1-1.8-0.1-3.6c0-1.8,0-3.3-0.1-4.5c-0.2-5.8-0.4-9.6-0.8-11.4c-0.4-1.8-1.2-2.9-2.3-3.2c-0.1-0.1-0.3-0.1-0.7-0.1
				c-0.9,0-1.7,0.3-2.6,1c-0.8,0.6-1.4,1.5-1.8,2.5c-0.4,1.1-0.6,3.7-0.6,7.7c0,2.2,0.1,4.4,0.3,6.6l0.3,3.6c0,0.8-0.3,1.4-0.8,1.7
				c-0.4,0.2-1.7,0.3-3.7,0.4c-0.5,0.1-1.1,0.1-1.7,0.1l-4.8,0.2c-1.5,0-2.4-0.3-2.7-0.8c-0.3-0.8-0.9-6.2-1.9-16.2
				c-0.2-2-0.5-3.6-0.8-4.9c-0.2-0.9-0.6-1.3-1.3-1.3c-0.4,0-1,0.2-1.8,0.7c-1.3,0.8-2.2,2.1-2.6,3.9c-0.6,2-0.9,5.3-0.9,10.1
				c0,1.4,0,2.4-0.1,2.9c-0.1,2.8-0.3,4.5-0.6,5c-0.3,0.5-1.2,0.8-2.5,0.8c-1.3,0-2.5,0-3.4,0.1l-4.2,0.2c-2.2,0-3.6-0.5-4.1-1.4
				c-0.6-1.4-0.9-9.6-0.9-24.7l-0.1-6.3c0-1.6,0.2-2.6,0.6-3.2s1.1-0.9,2.2-1.1s3.1-0.2,6.1-0.2c3,0,4.9,0.2,5.7,0.5
				c0.8,0.4,1.3,1.1,1.3,2c0,0.4,0.1,0.6,0.3,0.6c0.2,0,0.8-0.3,1.8-1c2.8-1.8,5.9-2.7,9.2-2.7c4.4,0,7.6,1.3,9.8,3.9l1.1,1.3
				l1.8-1.5c2.1-1.7,4.4-2.9,7-3.7C500.6,473.8,501.7,473.7,503,473.7z"/>
			<path class="st47" d="M547.5,462.9c0,0,1.5,0,4.6,0c3.1,0,5.1,0.1,5.9,0.2c1,0.2,1.5,0.4,1.7,0.6c0.2,0.2,0.3,0.6,0.3,1.3
				l-0.2,4.4l-0.2,2.7l-0.1,1l4,0.1c0.8,0,1.3,0,1.7,0.1c1.4,0,2.3,0.1,2.8,0.3c0.4,0.2,0.7,0.8,0.8,1.8c0.1,1,0.2,2.9,0.2,5.9v1.4
				c0,1.6-0.1,2.6-0.2,3.2c-0.1,0.6-0.4,0.9-0.9,1.1c-0.5,0.2-1.4,0.3-2.7,0.3h-5.4l-0.3,1.8c-0.1,1.3-0.2,2.2-0.2,2.5
				c0,5.8,1.5,8.7,4.4,8.7c0.6,0,1.4-0.3,2.4-0.9s1.6-1,1.8-1.3c0.2-0.2,0.4-0.3,0.6-0.3c0.5,0,1.1,0.4,1.9,1.2
				c0.9,0.9,1.7,2,2.6,3.2c0.8,1.3,1.2,2.1,1.2,2.6c0,0.7-0.8,1.6-2.3,2.9c-1.5,1.2-3.3,2.3-5.4,3.3c-2.7,1.2-5.6,1.8-8.7,1.8
				c-2,0-3.6-0.3-5.1-1c-1.4-0.7-2.9-1.8-4.6-3.5c-1.9-1.9-3.3-3.9-4.1-6.1c-0.8-2.2-1.3-5.5-1.3-9.9v-1.9v-1.2
				c-0.1-0.2-0.1-0.4-0.1-0.8c0-0.3-0.1-0.5-0.2-0.6l-0.3-0.3c-0.1-0.2-0.4-0.3-1.2-0.3l-1-0.1h-1.3c-1.2-0.1-1.9-0.2-2.3-0.3
				c-0.3-0.1-0.6-0.3-0.9-0.8c-0.2-0.4-0.3-1.1-0.3-2.2c0-1.5,0-2.5,0.1-3.1c0.1-1.7,0.2-2.7,0.2-3.2c0.1-0.7,0.1-1.3,0.1-1.8
				s0.1-0.8,0.1-1l0.3-1.2l3.4-0.2c1.7-0.1,2.7-0.1,3-0.3c0.3-0.1,0.4-0.3,0.5-0.5c0.1-1.2,0.2-2.9,0.4-5.1c0.2-2.2,0.4-3.4,0.5-3.5
				c0.3-0.3,0.9-0.6,1.9-0.8C547,462.9,547.5,462.9,547.5,462.9z"/>
			<path class="st47" d="M596.5,472.8c1.9,0,3.7,0.1,5.5,0.4c4.2,0.8,7.8,2.4,10.7,4.9c3,2.5,4.8,5.4,5.4,8.8
				c0.2,0.7,0.3,1.7,0.3,2.8c0,3.4-0.5,6.4-1.6,9c-1,2.6-2.7,5-5.1,7.3c-2.2,2.1-4.4,3.6-6.7,4.4c-2.3,0.8-4.7,1.2-7.1,1.2
				c-4.3,0-8.2-1-11.7-3.1s-6.3-4.6-8.3-7.7c-2-3.1-3-6-3-8.8c0-0.9,0.1-2.2,0.4-4c1.8-9,7-14,15.4-15
				C592.9,472.9,594.8,472.8,596.5,472.8z M597.2,486.1c-0.8,0-1.5,0.2-2,0.6c-2,1.2-3,3-3,5.3c0,0.8,0.2,1.8,0.7,2.8
				c1,2.1,2.6,3.1,4.8,3.1c1.2,0,2.2-0.4,3-1.1s1.3-1.7,1.5-2.9c0.1-0.2,0.1-0.5,0.1-1c0-1.3-0.3-2.6-0.9-3.9
				c-0.6-1.2-1.4-2.1-2.3-2.5C598.4,486.2,597.7,486.1,597.2,486.1z"/>
			<path class="st47" d="M687.6,473.7c1.5,0,3.1,0.5,5,1.5c1.9,1,3.4,2.3,4.5,4c1.1,1.7,2,4.2,2.6,7.5c0.5,2.8,0.9,7.4,1.2,13.7
				c0.1,0.6,0.1,1.8,0.1,3.7c0,3.5-0.5,5.8-1.6,6.9l-0.9,0.9l-6.6-0.2l-5.1,0.1c-0.8,0-1.4-0.1-1.7-0.3c-0.3-0.2-0.5-0.7-0.6-1.3
				s-0.1-1.8-0.1-3.6c0-1.8,0-3.3-0.1-4.5c-0.2-5.8-0.4-9.6-0.8-11.4c-0.4-1.8-1.2-2.9-2.3-3.2c-0.1-0.1-0.3-0.1-0.7-0.1
				c-0.9,0-1.7,0.3-2.6,1c-0.8,0.6-1.4,1.5-1.8,2.5c-0.4,1.1-0.6,3.7-0.6,7.7c0,2.2,0.1,4.4,0.3,6.6l0.3,3.6c0,0.8-0.3,1.4-0.8,1.7
				c-0.4,0.2-1.7,0.3-3.7,0.4c-0.5,0.1-1.1,0.1-1.7,0.1l-4.8,0.2c-1.5,0-2.4-0.3-2.7-0.8c-0.3-0.8-0.9-6.2-1.9-16.2
				c-0.2-2-0.5-3.6-0.8-4.9c-0.2-0.9-0.6-1.3-1.3-1.3c-0.4,0-1,0.2-1.8,0.7c-1.3,0.8-2.2,2.1-2.6,3.9c-0.6,2-0.9,5.3-0.9,10.1
				c0,1.4,0,2.4-0.1,2.9c-0.1,2.8-0.3,4.5-0.6,5c-0.3,0.5-1.2,0.8-2.5,0.8c-1.3,0-2.5,0-3.4,0.1l-4.2,0.2c-2.2,0-3.6-0.5-4.1-1.4
				c-0.6-1.4-0.9-9.6-0.9-24.7l-0.1-6.3c0-1.6,0.2-2.6,0.6-3.2c0.4-0.6,1.1-0.9,2.2-1.1s3.1-0.2,6.1-0.2c3,0,4.9,0.2,5.7,0.5
				c0.8,0.4,1.3,1.1,1.3,2c0,0.4,0.1,0.6,0.3,0.6c0.2,0,0.8-0.3,1.8-1c2.8-1.8,5.9-2.7,9.2-2.7c4.4,0,7.6,1.3,9.8,3.9l1.1,1.3
				l1.8-1.5c2.1-1.7,4.4-2.9,7-3.7C685.2,473.8,686.3,473.7,687.6,473.7z"/>
			<path class="st47" d="M723.7,471.1h1.1c2.3,0.1,4.1,0.5,5.4,1.2c1.3,0.7,3,2,4.9,3.9c3,3,4.9,6.3,5.8,9.7
				c0.3,1.4,0.4,2.6,0.4,3.5c0,3.4-0.6,5.3-1.7,5.8h-13.9c-4.4,0-6.6,0-6.6,0.1c0,0.7,0.6,1.4,1.9,2.1c1.3,0.8,2.8,1.3,4.5,1.7
				c0.9,0.2,1.8,0.3,2.6,0.3c1.3,0,3-0.3,5.1-1c1.6-0.4,2.7-0.7,3.1-0.7c0.6,0,1,0.2,1.3,0.5c0.4,0.6,1,1.6,1.8,3.1
				c0.8,1.5,1.2,2.6,1.2,3.2c0,1.2-1,2.4-3.1,3.6c-2,1.2-4.1,2.1-6.3,2.6c-2.2,0.5-4.8,0.8-7.8,0.8c-3.7,0-6.5-0.3-8.5-1
				c-2-0.7-4.2-2.1-6.5-4.4c-2.3-2.2-3.9-4.4-4.7-6.5c-0.8-2.1-1.3-4.6-1.3-7.5c0-3.1,0.5-6,1.4-8.5c0.9-2.6,2.7-4.9,5.2-7.1
				c2.7-2.3,6.1-4,10.2-4.9C720.8,471.2,722.2,471.1,723.7,471.1z M723.5,482.5c-1.2,0-2.3,0.4-3.2,1.1c-0.9,0.7-1.4,1.6-1.5,2.8
				l-0.1,1l4.1,0.3l3.4,0.2h0.4c0.2,0,0.4,0,0.4-0.1h0.2h0.2c0.2-0.1,0.3-0.4,0.3-1c0-0.7-0.2-1.4-0.5-2.1
				C726.5,483.2,725.3,482.5,723.5,482.5z"/>
			<path class="st47" d="M763.6,471.1h1.1c2.3,0.1,4.1,0.5,5.4,1.2c1.3,0.7,3,2,4.9,3.9c3,3,4.9,6.3,5.8,9.7
				c0.3,1.4,0.4,2.6,0.4,3.5c0,3.4-0.6,5.3-1.7,5.8h-13.9c-4.4,0-6.6,0-6.6,0.1c0,0.7,0.6,1.4,1.9,2.1c1.3,0.8,2.8,1.3,4.5,1.7
				c0.9,0.2,1.8,0.3,2.6,0.3c1.3,0,3-0.3,5.1-1c1.6-0.4,2.7-0.7,3.1-0.7c0.6,0,1,0.2,1.3,0.5c0.4,0.6,1,1.6,1.8,3.1
				c0.8,1.5,1.2,2.6,1.2,3.2c0,1.2-1,2.4-3.1,3.6c-2,1.2-4.1,2.1-6.3,2.6c-2.2,0.5-4.8,0.8-7.8,0.8c-3.7,0-6.5-0.3-8.5-1
				c-2-0.7-4.2-2.1-6.5-4.4c-2.3-2.2-3.9-4.4-4.7-6.5c-0.8-2.1-1.3-4.6-1.3-7.5c0-3.1,0.5-6,1.4-8.5c0.9-2.6,2.7-4.9,5.2-7.1
				c2.7-2.3,6.1-4,10.2-4.9C760.7,471.2,762.1,471.1,763.6,471.1z M763.4,482.5c-1.2,0-2.3,0.4-3.2,1.1c-0.9,0.7-1.4,1.6-1.5,2.8
				l-0.1,1l4.1,0.3l3.4,0.2h0.4c0.2,0,0.4,0,0.4-0.1h0.2h0.2c0.2-0.1,0.3-0.4,0.3-1c0-0.7-0.2-1.4-0.5-2.1
				C766.4,483.2,765.2,482.5,763.4,482.5z"/>
			<path class="st47" d="M794.3,462.9c0,0,1.5,0,4.6,0c3.1,0,5.1,0.1,5.9,0.2c1,0.2,1.5,0.4,1.7,0.6c0.2,0.2,0.3,0.6,0.3,1.3
				l-0.2,4.4l-0.2,2.7l-0.1,1l4,0.1c0.8,0,1.3,0,1.7,0.1c1.4,0,2.3,0.1,2.8,0.3c0.4,0.2,0.7,0.8,0.8,1.8c0.1,1,0.2,2.9,0.2,5.9v1.4
				c0,1.6-0.1,2.6-0.2,3.2c-0.1,0.6-0.4,0.9-0.9,1.1c-0.5,0.2-1.4,0.3-2.7,0.3h-5.4l-0.3,1.8c-0.1,1.3-0.2,2.2-0.2,2.5
				c0,5.8,1.5,8.7,4.4,8.7c0.6,0,1.4-0.3,2.4-0.9s1.6-1,1.8-1.3c0.2-0.2,0.4-0.3,0.6-0.3c0.5,0,1.1,0.4,1.9,1.2
				c0.9,0.9,1.7,2,2.6,3.2c0.8,1.3,1.2,2.1,1.2,2.6c0,0.7-0.8,1.6-2.3,2.9c-1.5,1.2-3.3,2.3-5.4,3.3c-2.7,1.2-5.6,1.8-8.7,1.8
				c-2,0-3.6-0.3-5.1-1c-1.4-0.7-2.9-1.8-4.6-3.5c-1.9-1.9-3.3-3.9-4.1-6.1c-0.8-2.2-1.3-5.5-1.3-9.9v-1.9v-1.2
				c-0.1-0.2-0.1-0.4-0.1-0.8c0-0.3-0.1-0.5-0.2-0.6l-0.3-0.3c-0.1-0.2-0.4-0.3-1.2-0.3l-1-0.1h-1.3c-1.2-0.1-1.9-0.2-2.3-0.3
				c-0.3-0.1-0.6-0.3-0.9-0.8c-0.2-0.4-0.3-1.1-0.3-2.2c0-1.5,0-2.5,0.1-3.1c0.1-1.7,0.2-2.7,0.2-3.2c0.1-0.7,0.1-1.3,0.1-1.8
				s0.1-0.8,0.1-1l0.3-1.2l3.4-0.2c1.7-0.1,2.7-0.1,3-0.3c0.3-0.1,0.4-0.3,0.5-0.5c0.1-1.2,0.2-2.9,0.4-5.1c0.2-2.2,0.4-3.4,0.5-3.5
				c0.3-0.3,0.9-0.6,1.9-0.8C793.8,462.9,794.3,462.9,794.3,462.9z"/>
			<path class="st47" d="M847,466.2h2.3c2.9,0.1,4.6,0.2,5.2,0.3c0.8,0.2,1.3,0.6,1.7,1.2c0.3,0.6,0.4,3,0.5,7.3
				c0.1,3,0.1,4.9,0.3,5.7c0.1,0.7,0.3,1.1,0.6,1.3c0.4,0.2,2.4,0.3,6,0.3c2.4,0,3.9-0.1,4.4-0.2l1.2-0.3v-6c0-3.2,0.1-5.4,0.2-6.6
				c0.1-1.1,0.4-1.9,0.8-2.3c0.4-0.4,1.3-0.6,2.6-0.6l3.2,0.1c3.9,0,6.3,0.2,7.3,0.6c0.8,0.3,1.4,0.8,1.7,1.4c0.2,0.6,0.3,2.3,0.3,5
				c0,2.4-0.1,6.5-0.3,12.3c-0.3,15.4-0.8,23.5-1.3,24.3c-0.4,0.6-1.1,1-1.9,1.2c-0.9,0.2-2.7,0.3-5.5,0.3H876
				c-2.3,0-3.9-0.1-4.8-0.3s-1.5-0.6-1.8-1.2c-0.3-0.6-0.5-1.7-0.5-3.2l0.2-4.8c0.1-0.9,0.1-2.4,0.1-4.6c0-1.3-0.1-2-0.2-2.1
				c-0.2-0.2-2.5-0.3-6.8-0.3c-1.2,0-2.1,0-2.8-0.1c-0.7-0.1-1.2-0.1-1.6-0.1c-0.8,0-1.3,0.2-1.4,0.5c-0.2,0.3-0.3,1.2-0.3,2.7
				c0,1.2,0,2.3-0.1,3.2c-0.1,2.5-0.2,4.6-0.3,6.4c-0.2,1-0.4,1.6-0.8,1.9c-0.3,0.3-1.6,0.5-3.9,0.5h-3.1h-4.3
				c-1.5,0-2.4-0.2-2.8-0.5c-0.4-0.4-0.6-1.3-0.6-2.8l0.1-4.2c0-5.2,0-8.9,0.1-11.1c0.2-14.9,0.6-22.9,1.2-24.1
				c0.1-0.2,0.2-0.3,0.4-0.5c0.2-0.1,0.4-0.2,0.6-0.3c-0.1,0,0.2-0.1,0.8-0.2c0.1-0.1,0.2-0.1,0.3-0.1c0.1,0,0.2,0,0.3-0.1
				C843.8,466.3,844.9,466.2,847,466.2z"/>
			<path class="st47" d="M894,473.3c5.1,0,8,0.3,8.5,0.8c0.1,0.1,0.2,0.7,0.2,1.8c0,1.3-0.1,3-0.2,4.9c-0.1,1.9-0.2,3.9-0.2,6
				c0,4.4,0.3,7.5,1,9.3c0.6,1.9,1.9,2.8,3.7,2.8c1.6,0,2.8-0.8,3.6-2.4c1.1-2,1.6-6.3,1.7-13.2c0.2-5.6,0.4-8.6,0.6-8.8
				c0.3-0.3,1.4-0.6,3.4-0.8c2-0.3,4-0.4,5.9-0.4c1.5,0,2.6,0.1,3.5,0.2c0.9,0.1,1.5,0.4,1.8,0.9c0.6,0.9,0.9,5.2,0.9,13
				c0,14.3-0.2,22-0.7,23.1c-0.3,0.8-1.6,1.3-3.9,1.3c-1,0-2.8-0.1-5.5-0.3c-1,0-1.7,0-2.3-0.1c-0.6-0.1-1.1-0.2-1.6-0.4
				c-0.6-0.2-1-0.4-1.2-0.6c-0.3-0.3-0.5-0.7-0.7-1.2c-0.4-1.1-0.9-1.3-1.4-0.7c-0.3,0.4-1.4,1-3.2,1.7c-1.8,0.7-3.2,1.2-4.4,1.4
				c-0.8,0.1-1.6,0.2-2.5,0.2c-2.3,0-4.5-0.5-6.5-1.5c-2-1-3.5-2.3-4.5-4c-0.4-0.7-0.9-2-1.5-3.9c-0.4-1.9-0.7-4.3-0.7-7.3v-4.3
				c0.1-10.8,0.8-16.5,2.1-17.1C890.5,473.5,891.9,473.3,894,473.3z"/>
			<path class="st47" d="M946.6,475.4c3,0,4.9,0.2,5.7,0.6c0.8,0.4,1.7,1,2.5,1.5l1.3,0.8c0.2,0.1,0.3-0.1,0.5-0.3
				c0.4-0.7,0.7-1.2,1-1.5c0.3-0.3,0.7-0.5,1.2-0.5c0.5-0.1,1.4-0.2,2.8-0.2h1.5c3.7,0,6.2,0.4,7.5,1.1c0.8,0.4,1.3,1.5,1.4,3.1
				c0.2,1.6,0.3,6.1,0.3,13.7c0,8.7-0.1,14.6-0.4,17.5c-0.3,2.7-1.3,5.5-2.8,8.6c-2.8,5.8-7,9.2-12.7,10.5c-1.8,0.4-4.2,0.6-7.4,0.6
				c-2.8,0-5-0.2-6.6-0.5c-1.6-0.4-3.3-1-5.1-1.9c-1.5-0.7-2.6-1.4-3.3-2.1c-0.6-0.6-0.8-1.1-0.8-1.7c0-0.4,0-0.6,0.1-0.8
				c0.2-1.1,0.9-2.8,2.1-5.1c1.2-2.3,2-3.4,2.5-3.4c0.4,0,1.5,0.4,3.3,1.1c2.5,1.1,4.7,1.6,6.7,1.6s3.6-0.7,4.9-2.1
				c1.3-1.4,2.1-3.3,2.6-5.8l0.2-1.2l-1.5,0.8c-2.6,1.2-5.5,1.8-8.6,1.8c-6.6,0-11.3-3.2-14.1-9.5c-1.4-3-2.1-6.3-2.1-9.8
				c0-6,2.1-10.5,6.3-13.5c1.9-1.3,4.1-2.3,6.7-2.9C943,475.5,944.5,475.4,946.6,475.4z M953.4,488.9c-2.2,0-3.9,0.5-5.1,1.6
				c-1.2,1-1.8,2.4-1.8,4c0,0.7,0.2,1.4,0.5,2c1,2,2.7,3,5.1,3c1,0,1.9-0.2,2.8-0.5l0.8-0.3v-3.3c0-3.7-0.3-5.8-0.9-6.3
				C954.5,488.9,954,488.9,953.4,488.9z"/>
			<path class="st47" d="M982.8,499.8c1.8,0,3.3,0.7,4.4,2.1c1.2,1.4,1.8,2.9,1.8,4.5c0,1.7-0.6,3.2-1.7,4.4
				c-1.1,1.2-2.6,1.8-4.4,1.8c-1.6,0-3-0.6-4.2-1.8c-1.3-1.2-1.9-2.7-1.9-4.5c0-2.8,1.1-4.8,3.4-6
				C980.9,500,981.7,499.8,982.8,499.8z"/>
		</g>
	</g>
</g>
</svg>
