<?xml version="1.0" encoding="utf-8"?>
<!-- Generator: Adobe Illustrator 21.0.0, SVG Export Plug-In . SVG Version: 6.00 Build 0)  -->
<svg version="1.1" id="Capa_1" xmlns="http://www.w3.org/2000/svg" xmlns:xlink="http://www.w3.org/1999/xlink" x="0px" y="0px"
	 viewBox="0 0 1319 1952" style="enable-background:new 0 0 1319 1952;" xml:space="preserve">
<style type="text/css">
	.st0{fill:#D0D2F7;}
	.st1{fill:#FFEBDF;stroke:#643527;stroke-miterlimit:10;}
	.st2{fill:#FFFFFF;stroke:#643527;stroke-miterlimit:10;}
	.st3{fill:#9DB1CC;}
	.st4{fill:#DDA0B0;}
	.st5{fill:#056D6D;stroke:#643627;stroke-miterlimit:10;}
	.st6{fill:none;stroke:#044747;stroke-width:6;stroke-miterlimit:10;}
	.st7{fill:none;stroke:#F46C6C;stroke-width:8;stroke-linecap:round;stroke-linejoin:round;stroke-miterlimit:10;}
	.st8{fill:#FFEBDF;stroke:#643627;stroke-miterlimit:10;}
	.st9{fill:#04757B;stroke:#643527;stroke-miterlimit:10;}
	.st10{fill:#DADCDB;}
	.st11{fill:#FF726E;}
	.st12{fill:none;stroke:#643627;stroke-miterlimit:10;}
	.st13{fill:#F7CC43;}
	.st14{fill:#BECDEC;}
	.st15{fill:#FF726E;stroke:#643627;stroke-miterlimit:10;}
	.st16{fill:none;stroke:#049BA2;stroke-width:8;stroke-miterlimit:10;}
	.st17{fill:#D69583;stroke:#643527;stroke-miterlimit:10;}
	.st18{fill:#DF90AD;stroke:#643527;stroke-miterlimit:10;}
	.st19{fill:#FFC6CE;stroke:#643527;stroke-miterlimit:10;}
	.st20{fill:none;}
	.st21{fill:#595975;stroke:#643527;stroke-miterlimit:10;}
	.st22{fill:#434351;stroke:#643527;stroke-miterlimit:10;}
	.st23{fill:#F0F5E6;stroke:#643527;stroke-miterlimit:10;}
	.st24{fill:#E2E2BA;stroke:#643527;stroke-miterlimit:10;}
	.st25{fill:none;stroke:#9B0404;stroke-width:8;stroke-linecap:round;stroke-linejoin:round;stroke-miterlimit:10;}
	.st26{fill:#E2E2BA;stroke:#643527;stroke-width:2;stroke-miterlimit:10;}
	.st27{fill:#F0F5E6;}
	.st28{fill:#E2E2BA;}
	.st29{fill:#F0B693;stroke:#643527;stroke-miterlimit:10;}
	.st30{fill:#FFE594;stroke:#643527;stroke-miterlimit:10;}
	.st31{fill:#DCA291;stroke:#643527;stroke-miterlimit:10;}
	.st32{fill:#BC2020;stroke:#643527;stroke-linecap:round;stroke-linejoin:round;stroke-miterlimit:10;}
	.st33{fill:#71A888;stroke:#643527;stroke-miterlimit:10;}
	.st34{fill:#E1F78F;stroke:#643527;stroke-miterlimit:10;}
	.st35{fill:#867691;stroke:#643527;stroke-miterlimit:10;}
	.st36{fill:#CBABB6;stroke:#643527;stroke-miterlimit:10;}
	.st37{fill:#F9DFD0;stroke:#643527;stroke-miterlimit:10;}
	.st38{fill:none;stroke:#643527;stroke-miterlimit:10;}
	.st39{fill:#347976;stroke:#643527;stroke-miterlimit:10;}
	.st40{fill:#708A81;stroke:#643527;stroke-miterlimit:10;}
</style>
<g>
	<polygon class="st0" points="4376.9,0.5 4085.2,0.5 3793.5,0.5 3501.8,0.5 3210.1,0.5 2918.4,0.5 2626.7,0.5 2626.7,1.9 
		2337.4,1.9 2045.7,1.9 1754,1.9 1462.3,1.9 1170.6,1.9 878.9,1.9 587.3,1.9 295.6,1.9 3.9,1.9 3.9,1951.4 295.6,1951.4 
		587.3,1951.4 878.9,1951.4 1170.6,1951.4 1462.3,1951.4 1754,1951.4 2045.7,1951.4 2337.4,1951.4 2629.1,1951.4 2629.1,1949.9 
		2918.4,1949.9 3210.1,1949.9 3501.8,1949.9 3793.5,1949.9 4085.2,1949.9 4376.9,1949.9 4668.6,1949.9 4668.6,0.5 	"/>
	<g>
		<path class="st1" d="M931.8,972.8c0.4-30.1,0.2-60.2,0.1-90.3h-7.2H763.5h-6.6c-0.4,10.6-1.4,204-0.8,214.4
			c1.1,19.8-0.2,39.8,0.5,59.7c0.1,3.1-0.1,5.6-0.6,7.5h7.8l160.6-182.8h8.2C932,979.1,931.8,976.3,931.8,972.8z"/>
		<path class="st2" d="M854.9,786.6c-9-15.2-28.1-18.9-43.8-7.5c-5.4,3.9-8.6,4.2-14.5,1c-12.4-6.7-23.8-3.8-32.3,7.7
			c-7.7,10.6-6.6,23.7,4,32.9c4.3,3.8,6.6,7.2,6.6,12h9.1h40.8c0.1-1.1,0.2-2.2,0.2-3.5c0-0.6,0.1-1.1,0.3-1.5
			c-0.2,0.4-0.3,0.9-0.3,1.5c0,1.3-0.1,2.5-0.2,3.5H835c2.1-1.4,5.3-1.8,7.3-3C859.2,819.5,864.2,802.5,854.9,786.6z M826,826.6
			c0.6-0.6,1.6-1,2.6-1.3C827.6,825.6,826.7,826,826,826.6z"/>
		<path class="st2" d="M845.8,540.3c-3.6-4.4-3.4-7.1-0.2-11.8c12.7-19.1,12.4-39.5-0.1-55c-13-16.2-36.5-22.8-56.7-15.7
			c-5.4,1.9-9.4,6.5-14.6-2.2c-11.8-19.6-31.8-27-53.8-22.1c-20.8,4.6-34.1,20.2-37.2,44.4c0.3,5.9-0.3,10.6-9.8,12.2
			c-21.2,3.4-34.8,20.7-35.4,41.8c-0.6,22.8,13.9,44.2,34.5,48.2c10,1.9,12.8,4.2,11.3,15.2c-3.5,25.6,12.6,46.2,38.5,52.7
			c28.4,7.2,50.8-2,61.2-26.2c3-7,5-10.4,13.9-8.4c19.8,4.4,37.9,0.2,49.7-17.9C859.1,577.2,860.2,558.2,845.8,540.3z"/>
		<path class="st2" d="M741.7,719.2c-3.6-13.6-12.5-24-26.6-23.3c-13.6,0.7-16.5-4.7-19.2-16.1c-4.1-17-19.6-27-36.6-26.3
			c-23.8,1-36,12.2-38.7,36.6c-0.8,7.3-3,11.4-10.1,14.9c-16.9,8.2-24.9,31.3-18.8,50.1c6.1,19.1,25.3,31.4,45,28.8
			c6-0.8,11.4-5.1,14.7,5.8c6.2,20.3,23.4,27.2,45.4,20.7c19.7-5.7,30.8-22.7,25.6-42.1c-2.5-9.4-3.9-14.3,7.4-19.1
			C741.5,744.1,745,732,741.7,719.2z"/>
		<path class="st1" d="M842.9,823.2c-28.1,0-56.1,0.5-84.2-0.3c-10.6-0.3-14.2,4-14.2,17.5c-0.1,44.1-0.5,44.2,35,44.3
			c49.3,0.1,98.7-0.4,148,0.3c12.3,0.2,17.2-4.9,16.9-20.3c-0.2-8.1-0.6-16.3,0.5-24.8c1.2-9.8-3.1-17.3-13.7-17
			C901.7,823.7,872.3,823.2,842.9,823.2C842.9,823.2,842.9,823.2,842.9,823.2z"/>
		<polygon class="st3" points="824.2,1009.7 874.2,1009.7 877.1,964 824.2,964 		"/>
		<rect x="772.4" y="1017.9" class="st4" width="96.5" height="56.9"/>
		<polygon class="st1" points="1352.7,899.4 1642.9,917.1 1670.8,1121.3 1512.8,1121.1 		"/>
		<polygon class="st5" points="1352.7,899.4 1642.9,917.1 1672,1090.8 1617.3,1099.5 		"/>
		<line class="st6" x1="1498.6" y1="977.7" x2="1645.2" y2="974.1"/>
		<line class="st6" x1="1516.5" y1="1037.2" x2="1663" y2="1033.6"/>
		<polyline class="st7" points="1640.7,916.3 1671.2,1091 1648.1,1094.6 		"/>
		<path class="st8" d="M1660.8,1216.1c-63-70.1-318.7-310-402.8-381.9c-33.2-28.4-81-48.8-115.3-21c-19.1,16-242.8,215.6-400.8,388
			l23.2,448.3c0,13.4,13.3,24.4,29.6,24.4h814.1c16.3,0,29.6-11,29.6-24.4L1660.8,1216.1z"/>
		<path class="st9" d="M1811.1,1202.7c-1.6,0-3.3-0.2-4.9-0.5l-150.5-28.4c-5.7-1.1-10.9-4-14.8-8.3
			c-2.8-3.1-281.8-314.6-390.4-392.5c-44.4-31.8-63.3-28.3-97.8-1.7c-19.6,15.2-246,245.8-393.4,397.1c-3.8,4-8.8,6.6-14.3,7.6
			l-148,26.4c-14.4,2.6-28.1-7-30.6-21.4c-2.6-14.4,7-28.1,21.4-30.6l139.7-24.9c58.1-59.6,365.8-374.9,393-395.9
			c28.8-22.3,52.9-32.2,78.2-32.2c0,0,0.1,0,0.1,0c25.5,0,51,10.1,82.6,32.8c105.5,75.7,350.3,346.2,393,393.5l141.7,26.8
			c14.3,2.7,23.8,16.5,21,30.8C1834.6,1193.9,1823.5,1202.7,1811.1,1202.7z"/>
		<path class="st1" d="M745.3,1160.9c0.7-0.8,1.5-1.6,2.3-2.5C746.7,1159.2,746,1160,745.3,1160.9z"/>
		<path class="st10" d="M1615.6,1150.5l-377-372.4c-20.7-8.7-41.4-12.9-61.2-12.4L770,1168.2c-9,0-17,3.3-22.5,8.6
			c-0.8,0.8-1.5,1.6-2.3,2.5c-3.1,3.8-2.1,12.8-2.1,17.7l3.5,67.6c158-172.4,376.9-417,396-432.9c34.4-27.8,82.1-7.4,115.3,21
			c84.1,71.9,335,354.5,398,424.5l3.6-73.9C1649.4,1191.7,1636,1173.3,1615.6,1150.5z"/>
		<path class="st11" d="M1415.6,1669.8c16.3-270.2-7.1-418-77.9-493.5c-34.1-36.4-78.2-54.9-130.9-54.9h-0.3
			c-53.3,0-100.2,21.3-135.5,61.6c-52.6,60-80.9,163.4-84.1,307.2c-1.8,81.9,5.1,153.2,8.1,179.7H1415.6z"/>
		<path class="st12" d="M1047.7,1673.9c0,0-67-501,159-500.7c147.7,0.2,176.1,190.9,156.8,500.7"/>
		<ellipse class="st13" cx="1105" cy="1426.2" rx="24.9" ry="37"/>
		<rect x="866.4" y="1498.2" class="st3" width="87.9" height="68.3"/>
		<rect x="845.5" y="1581.2" class="st14" width="108.7" height="68.3"/>
		<rect x="1467.1" y="1592.7" class="st3" width="96.5" height="56.9"/>
		<rect x="1529" y="1565.2" class="st3" width="27.4" height="13.2"/>
		<rect x="864.8" y="1473.8" class="st3" width="27.4" height="13.2"/>
		<rect x="1467.1" y="1389.6" class="st4" width="96.5" height="56.9"/>
		<rect x="1529" y="1362.1" class="st4" width="27.4" height="13.2"/>
		<rect x="1435.6" y="1284.9" class="st3" width="27.4" height="13.2"/>
		<path class="st15" d="M944.1,998.6c-35.2,36-71.8,73.5-107,109.7h730c-30.1-32-66.5-70.4-104.3-109.7H944.1z"/>
		<path class="st15" d="M1841.7,1176.2c-1.2-12.8-12.5-22.3-25.4-21.2l-146.4,13.2c-11.6-12.6-34.9-37.6-64.7-69.4
			c-22.8-24.2-49.4-52.4-77.6-82c-88.1-92.2-192.4-198.4-246.9-242.8c-55.4-45.2-101.3-45.7-158.4-1.5
			C1105.7,785.3,984,909,878.7,1016.8c-27.9,28.5-54.6,56-77.9,79.9c-31,31.8-55.9,57.5-69.5,71.5l-146.8-13.2
			c-12.8-1.2-24.2,8.3-25.4,21.2c-1.2,12.8,8.3,24.2,21.2,25.4l157.9,14.2c0.7,0.1,1.4,0.1,2.1,0.1c6.3,0,12.4-2.5,16.8-7.1
			c24.8-25.6,51.9-53.5,79.9-82.3c35.2-36.2,71.8-73.7,107-109.7c103.1-105.4,194.8-198.1,206.8-207.4
			c39.6-30.6,62.1-30.4,100.3,0.7c46.2,37.7,132,124,211.6,206.7c37.8,39.3,74.2,77.7,104.3,109.7c44.6,47.5,75.4,80.8,76.4,81.8
			c4.9,5.3,12,8.1,19.3,7.4l157.9-14.2C1833.4,1200.4,1842.9,1189.1,1841.7,1176.2z"/>
		<ellipse class="st16" cx="1204" cy="886.8" rx="43.7" ry="60.9"/>
		<polygon class="st3" points="1584.8,1567.9 1634.7,1567.9 1637.7,1511 1584.8,1511 		"/>
		<polygon class="st14" points="1584.8,1636.9 1631.2,1636.9 1634.1,1580 1584.8,1580 		"/>
		<polygon class="st4" points="822.4,1581.2 771.9,1581.2 775.4,1649.5 822.4,1649.5 		"/>
		<polygon class="st14" points="808.2,1365.2 760.7,1365.2 763.6,1422 808.2,1422 		"/>
		<rect x="897.3" y="1282.9" class="st4" width="27.4" height="13.2"/>
		<rect x="864.8" y="1246.4" class="st3" width="27.4" height="13.2"/>
		<polygon class="st14" points="802.9,905.1 764.6,905.1 765.6,962 802.9,962 		"/>
	</g>
	<g>
		<path class="st17" d="M1817.5,1302.6c-0.1,1.7,0,3.4,0,5.1c-0.1,0.1-0.2,0.1-0.3,0.2L1817.5,1302.6z"/>
		<path class="st17" d="M1818.8,1306.7c0.1,3.5-0.1,7.1-0.3,10.6c-0.5-3.3-0.8-6.5-0.9-9.6C1818,1307.3,1818.4,1307,1818.8,1306.7z"
			/>
		<path class="st17" d="M1817.3,1307.9c0.1-0.1,0.2-0.1,0.3-0.2c0.1,3.2,0.5,6.4,0.9,9.6c-0.4,5.8-1.3,11.6-2.4,17.2L1817.3,1307.9z
			"/>
		<path class="st17" d="M1557,1351.8c4,8.2,20.4,6.9,29.7,9c22.5,4.9,43.7,11.7,54.5,32.6c15.1,29.3,23,70.8,55.9,84.8
			c6.9,2.9,25.3,3.3,29.9,10.3c3.4,5.2-0.6,14.6-1,21.4c-1.4,29.6,9.4,40.9,37.8,39.5c25.8-1.3,29.7,1.2,42,28.7
			c9.1,20.3,0.9,36-5.3,56.4c-3.8,12.4-12.6,25-11.6,37.7c2.4,33.1,150.4,47,169.2,35.5c7.1-4.4,17.2-18.6,2.4-21.5
			c5.7-22.5-58.4-84.9-74.6-102.2c-13.7-14.5-57.6-26.1-60.9-45.1c-4-23.3,19.6-41.7-3-64.3c-15.1-15-47.9-4-50.4-28.1
			c-2.2-21.2,7.4-42.9,23-56c12.8-10.7,23.7-17.8,26.7-34.5c2.3-12.9-0.9-26.1-2.7-38.7c-0.4,5.8-1.3,11.6-2.4,17.2l1.2-26.6
			c-16.7,13.5-13.3,17.8-18.3,37.1c-3.7,14.5-25.9,44.3-40.3,46.7c0.7-14.4-1.7-32.7,3.8-45.9c6.4-15.4,28.7-25.8,21.9-44.8
			c-14.4,4.1-37.3,29-45.4,41.6c-9.5,14.9-18.8,48.8-13.4,66.8c3.4,11.4,21.5,25.9,9.1,37.2c-14.7-13.8-15.7-15.6-37.3-20.2
			c-10.9-2.3-20.8-4.8-27.9-13.6c-9.2-11.6-8.6-28.7-19.6-39.5C1623,1346.8,1591.7,1351.4,1557,1351.8z M1760.5,1483
			c5.5-6.7,22.6,0.2,30.7,4.2c14.8,7.3,12,16.1,10.6,30.8c0.4,2.9,0.7,5.8,0.7,8.7c-9.4,0.1-35.1,0.4-41.4-5.4
			C1757.4,1517.8,1757.5,1486.7,1760.5,1483z"/>
		<path class="st17" d="M1800.9,1501l0.3,12.4C1800.6,1509.3,1800.3,1505.2,1800.9,1501z"/>
		<path class="st17" d="M1801.1,1513.4c0.2,1.5,0.4,3.1,0.6,4.6c-0.2,1.8-0.3,3.7-0.4,5.8L1801.1,1513.4z"/>
	</g>
	<path class="st18" d="M1632.1,900.3c-11.7-0.8-27.8,2.4-37,9.9c0.9-3.1-0.3-6.9,0.3-9.9c-5.7-0.4-11.7,1.9-16.4,5
		c0.1-11.4,2.6-25.6-12.9-24.9c-5.3,0.3-7,7.4-11.7,7.1c-6.8-0.4-11.8-10.2-19.8-11.4c0.6,3.1-1.4,7.5-0.8,10.6
		c-7.4-3.8-17.2-7.2-21.6,1.9c-7.1-6.6-24.5-22.3-35.8-16.3c-8.1,4.3-3.6,17.4-9.4,21.6c-3.4,2.5-24.2-2.5-30.4-2.2
		c-4.7,0.2-7.6,5.6-15.3,2.3c0.2-0.2-1.9,4.8-1.8,4.3c-2.1-2.6-4.6-2.9-6.3-4.4c-1.6,5.2-2.4,10.7-2.3,16.2
		c-18-3.5-10.6,5.3-17.1,15.4c-5.9,9.2-24.6,20.7-36.3,24.6c-14.5,4.9-37.6,0.7-49.1,16.1c-4.3,5.8-7.5,17,0.4,20.1
		c-4.8,0-8.4,2.9-12.6,5.2c1.4,0.7,4.3,5,6,5.9c-9.3,4.5-5.7,11.4-9.5,18.2c-3.9,7-23.8,26.6-4.9,30.5c-20.3,12.1-40,49.9-25,74.5
		c-18.2-0.9-45.1,35.1-18,39.1c-7.1,6.3-15,12.1-13.4,23c-5.7-0.1-13.6,0-17.3,5.1c-7.8,10.9,3,10.9,9.1,16.4
		c2.4,2.1,8.1,6.3,9.6,7.6c1.6,1.3,4,8.2,7.8,11.1c4.9,3.8,12.7,5.4,18.8,5.8c-0.8,2.5,0.8,7.7-0.3,10.5c13.6,5,12.4,6.6,17.4,19.2
		c6.5,16.5,11.3,15,24.8,24c18.3,12.2,25.8,22,51.7,23.2c6.4,0.3,35.4-2.1,38.5,0.1c4.3,3,4.4,14.3,7.5,18.9
		c4.6,6.8,11.6,0.3,14.9,14.1c9.4,0.4,17.5-8.8,25.1-11.9c-11.8,19.5,16,28.4,31.8,26.8c10.7-1.1,16-6.9,26.5-6.9
		c10.7,0,20.4,8.2,31.6,1.9c2.7,7.3,6.1,21.9,15,23.4c9.3,1.6,20.3-12.9,31.1-13.7c11.4-0.8,10.4,5.9,19.2,7
		c13,1.6,13.7-8.3,21.1-13.6c3.3-2.3-0.9-6.4,4.9-6.8c6.3-0.4,8.5,8.1,12.1,11.4c6.6,6,10.7,12.8,21,8.5c6,16.6,24.9,2.2,32.7-6.2
		c-4.4,14.8,46.5,15.3,29.3-18.5c12.9,4.1,31.2,24.5,29-6c10.1,20.9,22.9,5.9,32-1.8c0.7,1.7,1.4,2.9,2.1,4.2
		c1.5-3.3,5.8-5.6,7.5-8.4c22.1,28,31.6,9.7,40.1-12c0.5-1.4-2.5-4.6-1.3-7.4c5.4-11.9,25.6-13.4,33.9-24.4
		c26.6-35.6-27.2-51.7-54.6-56.5c10.2-18.7,19.4-55.3-10.9-62.1c25.5-25.8,35.7-53.4-8.7-74.5c3-8.3,27.2-56.2-3.8-34
		c-0.4-4.2-2.4-8.9-1.6-13.6c-2.8,2.2-7.3,3-10.1,6.2c-1.6-9.2-10.3-34.8-24.2-25.2c5.4-13.6,14.2-36.1-8.7-36.1
		c-0.8-11.4-9-19.7-20.6-16.2c1.1-9.9-9.4-15.5-16.5-7.5c4.9-26.1-17.6-57.8-37.9-28.1c-1.2-5.5-4.6-10.4-9-12.9
		c-0.8,1.1-1.6,2.1-2.4,3.2c-2.2-6.6-4.9-13.3-8.7-19.2c-2.2,0.5-3.7,1.8-4.5,4.1c-1-2-4.1-10-5.2-12.6"/>
	<path class="st17" d="M1790.2,1332.8c18,30.4,54,55.4,63.2,90.5l-0.1-1.1c13.2,21.3-1.4,60,0.7,84.8c2.3,27.4,21.7,36.8,37,56
		c10.4,13.1,7.4,33.5,8.5,49.7c1.2,18.5,8,37.5,22.3,50.9c16.2,15.2,39.5,14.6,60.4,18.4c13.9,2.5,28.4,5.9,36.5-7.5
		c6.5-11,1.5-22-5.3-30.5c-15.1-19-31.4-38.6-47.5-57.5c-26.6-31.3,2.3-38.1,19.8-62.5c17.8-24.9,3-45.8-16.2-65.3
		c-13.3-13.5-38.5-22.5-30.7-44.6c6.9-19.5,28.1-22.4,45.8-22.4c31.3,0.1,54.2-5.9,75.3-30.4c24.8-28.7,6-29.8-18.3-14.8
		c-19.9,12.2-31.2,26.7-56.1,16.4c3-6.1,1.8-13-3.9-17.4c-9.6-7.3-8.2-0.8-12.4,4.8c-5,6.6-5.5,12.5-12.5,17.6
		c-10.9,7.9-26.9,7.5-37.1,16.5c-6.2,5.4-9.5,24.6-15.5,25c-5.5,0.4-11.1-13-13.6-17.3c-15.1-24.7,3.6-61.1-32.4-76.1
		c-8.2,9.6,1.2,41.7,3.7,52.1c-23.3,4.8-39.6-49.2-54.8-61.1C1775.3,1282.4,1776.3,1309.5,1790.2,1332.8z M1909.3,1459.7
		c11.6,6.7,33.9,19.3,38.4,32.1c2.2,6.1-0.3,34.1-8.1,37c-8.7,3.3-36.1-36.2-37.5-46.6C1901.3,1475.2,1906.2,1448.2,1909.3,1459.7z"
		/>
	<path class="st19" d="M1943.6,1341.1c3.3,4.2,14.6,3.1,17.1,7.7c2.4,4.5-3.7,11.9-4.3,17c10.1,2,19.8-1.8,29.9,0.3
		c3.7,25.6,46.8-3,55.3-5c12.5-2.9,4.6,2,14.7,6.7c13.4,6.4,25.5,1.9,36.9-6.5c5.7,12.9,17.5,22.8,32.4,14
		c11.6-6.9,2.5-11.6,9.6-17.7c7.8-6.8,19.2,6.8,22.3-9c1.4-7.1-9-17.3-7.6-26.7c12.1-2.5,34.5-0.5,44.8-6.6
		c12.9-7.6,11.3-17.1,28-23.1c44.9-16,55.4-36,51.8-78.6c-7.3-2.4-0.6-29.9,0.8-37.1c4-20.8,19.1-43.1,17.4-70.1
		c-1.2-18.4-7.3-31.5-12.5-48.1c-5-16.2-4.8-3,0.3-14.6c1.6-3.6,10.7-10.1,13.3-14.9c6-11.2,6.9-16.2,0.5-27.5
		c-11-19.4-14.8-14.4-12.9-35.2c1-11.1-0.5-28.5-5.8-37.6c-1.5-2.7-7.3-0.3-9.1-4c-2.8-5.9,2.4-14.5,1.2-21.8
		c-2.5-15.1-9.5-15.7-22.1-8.4c-3.3-16.3-19.1-27.8-28.2-41.1c-9.5-13.9-15-26.2-28.8-36.6c-7-5.3-16.7-8.1-23.6-13.3
		c-8.3-6.3-26.4-18.8-31.6-27.8c9.5-4.5,8.5-15.8,2.8-21.9c-7.2-7.7-20.3-5.3-29.7-7.1c-15.5-2.9-17.5-7.4-31.4-16.9
		c-20-13.7-36.1-15.7-58.8-17.7c2.3-21.7-0.7-33.7-23.5-15.3c-11.5,9.3-20.7,14.3-36.1,15.6c-11.6,1.1-21.6-3.4-31.7,4.9
		c-20.8-33.8-80.8-32-114.4-19.9c-16.2,5.9-30.4,15.7-45.4,23.7c-15.4,8.2-27.6,0.5-42.7,4.9c-0.5,9.6,7.1,15.4,6.4,25
		c-0.9,12.8-14.5,23-24.4,29c-13.8,8.4-32.5,11.4-41.5,26.3c-6.9,11.5-1.9,14.7-12.5,19.8c-10.3,5-26.7-0.8-29.2,13.9
		c-1.3,7.4,5.2,9.5,1.9,18.6c-3,8.4-15.6,19-20.5,26.5c-5.8,8.9-10.7,18.5-16.1,27.5c-9.9,16.5-20.9,34.4-32,50
		c-10,14.2-19,14.6-37.1,15.8c-10.5,0.7-35.6-6.9-42.6,1.2c-6.5,7.5,2.8,20.2,1.4,28.6c-2.8,17.1-8.2,16.8-3.2,36.7
		c1.9,7.4,3.2,24.2,9.9,29c4.1,3,11.7-1.1,16.4,2.7c6,4.8,3.4,4.4,5,11.6c1.8,8.1-1.2,16.6,2.3,25.9c4.4,11.8,12.9,21.9,21.9,30.6
		c-9.2-1.2-18.7,1.3-26.7,5.8c2,18.5,28.4,45.5,46.1,49.5c-27.7,8.8,3.5,31,19.2,30.1c-0.9,1.5-1.8,2.9-2.7,4.4
		c5.3,7.5,15.4,9.4,23.9,11.4c-20.8,39.5,28.1,58,56.6,59.2c-16.7,30.5,42.4,23,57.8,18.4c-1.4,20.4,30,44.1,48.1,35.4
		c8-3.8,10.8-13.1,17.4-18c5.3-3.9,12.6,0.2,16.1-9.6c9.3,8.3,22.3,6.3,29-3.9c-3.4,4.1-4.9,9.5-3.3,15.1c13.4,5,39.1,5.4,49-7
		c-14.8,28.5,53.4,10.5,62.1,0.8c-16.5,18.3,14.9,29.4,29.5,11.8c-1.7,6.2-4.5,12-8.4,17.4"/>
	<path class="st19" d="M1749.9,1194.7c10.9,11-6,10.7-9.6,16.6c-4.4,7.3,5.4,15-6.8,18.1c8.5,6.7,11.8,14.5,15.1,24.6
		c-2,1.2-3.9,1.6-6.1,1.9c0.2,14-20.8,6.5-22.8,1.7c-3.8,11.5-13.5,3.3-21.2,3.8c-9.5,0.6-27.7,11.4-25.4-10.6"/>
	<path class="st18" d="M1721.3,1078.8c30.6-12.7,27.9,43.6,4.3,16.9c-4.3,8.4-16.1,9.5-22.4,3.1c18.5,17-32,23-36.2,1.8"/>
	<path class="st18" d="M1673.3,950.8c16.7,20.7,67,11.7,31.4,0.1c7.9-0.3,18.4,3.9,22.1-4.2c-9.4-6.7-21.8-6-31.8-11.1"/>
	<path class="st18" d="M1425.4,1020.1c-0.4,10.4-26,16.4-39.3,14.1c-1.8-14.5,12.5-32.5,25.7-35.7"/>
	<path class="st18" d="M1508.8,1209.5c1.3,17.9-22.3,38.7-24.8,13.8c-0.8,3.5-4.2,6.8-5.2,9.3c-9.3-15.1-31.5,8-46.1-1.4
		c-1.2-0.8-1.1-6.5-2.6-8.2c-3.8-4.3-11-6.3-15-11.4c-10.5-13.2-9-28.6,1.5-41.5c-14.7-6-8.7-27.1,5-29.1"/>
	<path class="st18" d="M1355.5,1206.8c4.2,2.7,6.7,5.8,5.8,11.3c-4.3-0.3-8.4,2.2-12.7,1.6c4.3,9.1,2.5,20.4,1.5,30.3
		c-2.3-2.4-5.9-3.9-7.5-9.3c1.3,14.6-18.9,22.1-19.8,6.8c-9.5,3.5-34.1,1.1-26.6-14.3"/>
	<path class="st20" d="M1976.7,1467.7c-4.2,16.7,4,34.5,21.9,29.6c18.9-5.1,38-28.4,46.2-45.1c6.9-14.1,2.1-21.9-6.9-27.1
		c-1.1,0.6-2.1,1.1-3.2,1.7C2016,1436,1982.4,1445.3,1976.7,1467.7z"/>
	<path class="st17" d="M2020.8,1348.2c-10.2-5.1-19.9-10.4-28.5-16.1c-16.3-11.1-29.8-23.8-22-44.6c4.6-12.3,14.3-22.9,17.2-34.9
		c3-12.5-1.3-20-12.1-27c-13.9,13.3-12.4,35-25,48.5c-6.3,6.7-13.8,9.7-19.3,17.4c-5.3,7.4-4.6,8.6-15,9.1c-30,1.5-29.1-21-46-38.6
		c-19.2-20-31.6-39.1-61.6-37.2c-8.1,15.2,22.5,43.4,30.2,54.3c8.7,12.4,11.8,26.3,18.2,39.6c7.5,15.5,20.5,29.6,34.5,39.4
		c19.7,13.9,40.7,22.1,62.7,31.7c1.5-1.2,3-2.3,4.5-3.4C1978.6,1371.8,1999.4,1359.5,2020.8,1348.2z"/>
	<path class="st17" d="M2183.4,1251.6"/>
	<path class="st17" d="M2037.9,1422c8.9,5.2,13.8,16.1,6.9,30.2c-8.2,16.7-27.3,40-46.2,45.1c-17.9,4.9-26.1-12.9-21.9-29.7
		c4.8-19,27.5-27.5,43.5-34.5c19.9-8.7,33.3-26,52.4-37.3c16.6-9.8,30.9-19,46.4-30.9c30.4-23.4,62.4-41.5,90.7-67.4
		c14.3-13,27-29.1,43.5-39.1c-20.5,2-32.4,0.5-51.6-4c-4.6-1.1-11.7-2.7-18.3-2.7c-29.2,23.4-58.8,45.8-92.8,62.3
		c-23.6,11.4-47,22.3-69.8,34.4c-21.4,11.3-42.2,23.6-62.2,38.3c-1.5,1.1-3,2.3-4.5,3.4c-44.8,34.9-89.1,97.9-35.3,144.6
		c15.2,13.2,26.2,16.8,14.1,36.6c-8.8,14.4-23.3,31-34.9,43.9c-16.6,18.4-40.4,30.5-54.7,50.9c-20.5,29.3,25.9,42.5,50.5,40.3
		c16.2-1.4,30.7-8.6,45.9-13c9-2.6,26.1-13.9,32.8-8.2c7.3-6,9.1-15.8,13.6-23.2c7.9-13.1,14-25.9,21.3-39.3
		c8.2-15.1,19.6-30.7,24.7-47c5.6-17.9,1.3-16.8,18.7-28.4c38.7-25.8,81.6-67.8,66.2-120.1c-4.7-16-15.9-31.5-28.1-41.9"/>
	<path class="st21" d="M147,1326.3c-4.6,3.9-9.2,7.9-13.6,12c17.7-11.8,24-18.5,37.4-26.7C162.6,1315.4,154.7,1319.8,147,1326.3z"/>
	<path class="st22" d="M486.7,1471.2c-7-20.9-11.4-41.2-18.7-60.5c-0.2,0.4-0.4,0.8-0.7,0.9c-25.4,13.7-57,14-82.3,28.8
		c-9.5,5.5-12.9,11.5-23.8,8.5c-6.4-1.8-8.1-8.9-16.4-10.2c-4.8-0.8-9.3,2.3-14,2.9c-15,1.7-32.6,3.9-47.7,1.8
		c-12.2-1.7-14.1-4.7-24.1-12.5c-10.6-8.3-5.9-4.2-18.3-5.4c-14.2-1.3-25.5-3.6-21.4-21.3c-33.1-3.6,8.4-32.6,9.2-36.1
		c3-13.6-46.6-30.3-58.6-31.1c-13.6-0.8-11.5,7.6-20.7,12.2c-10.4,5.2-29.8,51.3-42.5,51.6c-16.5,0.4-56.9,64.1-58.9,39.5
		c-0.1-0.8,0-1.8,0.2-2.9c-19.6,31-29,62.9-24.6,104.5c1.9,17.8,10.4,32.8,9.2,51.2c-1.3,20.6,8,59.6,17.8,63.1
		c16,5.7,32.9,13.4,49.3,17.6c31.4,8,68,9.9,100.2,8c49.3-2.8,98.3,6.3,147.6,4.5c44.1-1.6,72.9-16.9,107.9-41.5
		c19.1-13.4,20.5-11.6,21.5-35.9c1.3-33.1,4.4-65,11.4-97.6C492.5,1492.1,492.6,1488.8,486.7,1471.2z"/>
	<g>
		<polygon class="st23" points="3496.1,1026.1 3805,1044.9 3834.7,1262.3 3666.5,1262.1 		"/>
		<polygon class="st24" points="3494.6,1026.1 3802.1,1044.8 3833,1229 3775,1238.2 		"/>
		<line class="st25" x1="3653.4" y1="1109.4" x2="3809.5" y2="1105.6"/>
		<line class="st25" x1="3670.4" y1="1172.8" x2="3826.5" y2="1168.9"/>
		<polyline class="st25" points="3802.7,1044 3835.2,1230 3810.6,1233.9 		"/>
		<path class="st26" d="M3813.4,1249.8c-8.8-10.1-21.5-23.9-36.9-40.1c-11.6-12.1-24.7-25.7-38.8-40.1
			c-12.5-12.8-25.8-26.3-39.6-40.1c-13.1-13.1-26.6-26.6-40.2-40.1c-13.5-13.4-27.2-26.9-40.7-40.1c-14-13.7-27.8-27.2-41.1-40.1
			c-14.7-14.2-28.8-27.7-41.7-40.1c-16.3-15.5-30.8-29.1-42.7-40.1c-4.1-3.8-7.9-7.2-11.3-10.3c-27.6-24.7-67.3-42.5-95.9-18.3
			c-3.4,2.9-14.3,13-30.7,28.5c-11.5,10.9-25.8,24.5-42,40.1c-12.6,12.2-26.5,25.7-41.2,40.1c-12.9,12.7-26.4,26.1-40.4,40.1
			c-12.9,12.9-26.2,26.3-39.6,40.1c-12.8,13.1-25.8,26.5-38.8,40.1c-12.7,13.2-25.3,26.7-37.8,40.1c-12.4,13.4-24.7,26.8-36.7,40.1
			c-8.8,9.7-17.4,19.4-25.7,29l0.5,11.1l2,40.1l2,40.1l2,40.1l2,40.1l2,40.1l2,40.1l2,40.1l2,40.1l2,40.1l0.9,18.8
			c0,11.7,11.1,21.2,24.6,21.2h676.5c13.5,0,24.6-9.6,24.6-21.2l0.9-18.8l2-40.1l2-40.1l2-40.1l2-40.1l2-40.1l2-40.1l2-40.1l2-40.1
			l1.9-38.2C3814.5,1251.1,3814,1250.5,3813.4,1249.8z"/>
		<polygon class="st23" points="3359.6,1026.3 3050.6,1045.2 3020.8,1262.6 3189.1,1262.4 		"/>
		<polygon class="st24" points="3358.6,1026.3 3050.9,1045.1 3020,1229.3 3078,1238.5 		"/>
		<g>
			<g>
				<path class="st27" d="M3534.3,969.2c-16.3-15.5-30.8-29.1-42.7-40.1h-137.9c-11.5,10.9-25.8,24.5-42,40.1H3534.3z"/>
				<path class="st27" d="M3230.1,1049.4h387.1c-14-13.7-27.8-27.2-41.1-40.1h-305.5C3257.6,1022,3244.1,1035.4,3230.1,1049.4z"/>
				<path class="st27" d="M3151.7,1129.6h546.4c-13.1-13.1-26.6-26.6-40.2-40.1h-467.4C3177.6,1102.6,3164.7,1116,3151.7,1129.6z"/>
				<path class="st27" d="M3077.1,1209.8h699.4c-11.6-12.1-24.7-25.7-38.8-40.1h-623.9C3101.4,1183,3089.1,1196.4,3077.1,1209.8z"/>
				<path class="st27" d="M3051.9,1249.8l2,40.1h759.2l1.9-38.2c-0.5-0.6-1.1-1.2-1.6-1.9H3051.9z"/>
				<polygon class="st27" points="3057.8,1370.1 3809.2,1370.1 3811.2,1330 3055.9,1330 				"/>
				<polygon class="st27" points="3061.8,1450.3 3805.2,1450.3 3807.2,1410.2 3059.8,1410.2 				"/>
				<polygon class="st27" points="3065.8,1530.5 3801.3,1530.5 3803.2,1490.4 3063.8,1490.4 				"/>
				<polygon class="st27" points="3069.7,1610.6 3797.3,1610.6 3799.3,1570.5 3067.7,1570.5 				"/>
			</g>
			<g>
				<g>
					<path class="st28" d="M3480.3,918.9c-27.6-24.7-67.3-42.5-95.9-18.3c-3.4,2.9-14.3,13-30.7,28.5h137.9
						C3487.5,925.4,3483.7,922,3480.3,918.9z"/>
					<path class="st28" d="M3270.5,1009.3h305.5c-14.7-14.2-28.8-27.7-41.7-40.1h-222.6C3299.1,981.4,3285.2,994.9,3270.5,1009.3z"
						/>
					<path class="st28" d="M3190.5,1089.5h467.4c-13.5-13.4-27.2-26.9-40.7-40.1h-387.1C3217.2,1062.3,3203.9,1075.8,3190.5,1089.5z
						"/>
					<path class="st28" d="M3113.8,1169.7h623.9c-12.5-12.8-25.8-26.3-39.6-40.1h-546.4C3139,1142.8,3126.3,1156.2,3113.8,1169.7z"
						/>
					<path class="st28" d="M3813.4,1249.8c-8.8-10.1-21.5-23.9-36.9-40.1h-699.4c-8.8,9.7-17.4,19.4-25.7,29l0.5,11.1H3813.4z"/>
					<polygon class="st28" points="3811.2,1330 3813.1,1289.9 3053.9,1289.9 3055.9,1330 					"/>
					<polygon class="st28" points="3059.8,1410.2 3807.2,1410.2 3809.2,1370.1 3057.8,1370.1 					"/>
					<polygon class="st28" points="3063.8,1490.4 3803.2,1490.4 3805.2,1450.3 3061.8,1450.3 					"/>
					<polygon class="st28" points="3067.7,1570.5 3799.3,1570.5 3801.3,1530.5 3065.8,1530.5 					"/>
					<path class="st28" d="M3796.4,1629.5l0.9-18.8h-727.6l0.9,18.8c0,11.7,11.1,21.2,24.6,21.2h676.5
						C3785.3,1650.7,3796.4,1641.2,3796.4,1629.5z"/>
				</g>
			</g>
		</g>
		<line class="st25" x1="3200.2" y1="1109.7" x2="3044.1" y2="1105.9"/>
		<line class="st25" x1="3169" y1="1173.1" x2="3029.1" y2="1169.2"/>
		<polyline class="st25" points="3052.8,1044.3 3020.4,1230.3 3045,1234.2 		"/>
		<path class="st29" d="M3645.1,1649.8c16.1-267.3-7.1-413.5-77.1-488.2c-33.8-36-77.3-54.3-129.5-54.4h-0.3
			c-52.8,0-99.1,21.1-134,60.9c-52.1,59.4-80.1,161.6-83.2,303.9c-1.8,81.1,5.1,151.5,8,177.7H3645.1z"/>
		<path class="st30" d="M3281.1,1650.8c0,0-66.3-495.7,157.3-495.3c146.1,0.2,174.2,188.9,155.1,495.3"/>
		<ellipse class="st31" cx="3337.9" cy="1416.2" rx="24.6" ry="29.2"/>
		<path class="st32" d="M3503,873.8c-50.1-64-91.6-64.6-143.2-2.1c-15,18.1-419.2,478.7-429.8,492.2c-30.5,38.7,18.2,55,20.6,53.6
			c8.9,0.1,16.6-4.5,19.2-8.7c22.5-36.3,405.1-451.7,415.9-464.8c35.8-43.3,56.1-43.1,90.6,1c41.7,53.3,413.4,464.2,421.6,478.2
			c4.1,9.9,15.1,10.5,23.2,10.5c12.6,0,45.3-18,18.8-49.7C3929.7,1371.5,3552.2,936.7,3503,873.8z"/>
	</g>
	<path class="st33" d="M47.8,1440.4c2,24.6,42.5-39.2,58.9-39.5c12.8-0.3,32.2-46.4,42.5-51.6c9.2-4.7,7.1-13.1,20.7-12.2
		c12,0.7,61.6,17.5,58.6,31.1c-0.8,3.5-42.4,32.5-9.2,36.1c-4.1,17.8,7.2,20,21.4,21.3c12.4,1.1,7.7-2.9,18.3,5.4
		c9.9,7.8,11.8,10.8,24.1,12.5c15.1,2,32.7-0.1,47.7-1.8c4.7-0.5,9.1-3.6,14-2.9c8.4,1.3,10.1,8.4,16.4,10.2c11,3,14.3-3,23.8-8.5
		c25.3-14.7,56.9-15.1,82.3-28.8c0.3-0.2,0.6-0.5,0.7-0.9c-5.1-13.4-11.5-26.2-21.1-38.3c-28.6-35.9-61.6-74.5-97.8-103.2
		c-41.5-32.9-107.5,7.8-148.7,28.8c-10.5,5.3-20.3,9.1-29.8,13.5c-13.4,8.2-19.7,14.9-37.4,26.7c-21.7,20.2-41.6,43.4-60.4,65.8
		c-9.5,11.3-17.9,22.3-24.9,33.5C47.8,1438.6,47.7,1439.6,47.8,1440.4z"/>
	<path class="st33" d="M431.4,1421.4c34.9,10.6,13.7,22.8,13.7,22.8s-39.5,38-22.8,39.5c16.7,1.5,12.2,22.8,28.9,19.7
		c16.7-3,68.4-9.1,68.4-9.1s21.3-15.2,30.4-13.7c9.1,1.5,18.2-4.6,24.3,9.1c6.1,13.7,36.5,22.8,48.6,24.3
		c12.1,1.5,13.7-18.2,27.3-15.2c-21.9-40.7-95.6-94.2-95.6-94.2l-34.9-24.3l-112.4,19.7c0,0-9.3,7-23.3,17.4
		c-0.3,0.2-0.5,0.4-0.8,0.6C393.8,1416.2,411.1,1415.2,431.4,1421.4z"/>
	<path class="st21" d="M651.6,1501.9c-0.5-1-1-2-1.6-3c-13.6-3-15.2,16.7-27.3,15.2c-12.2-1.5-42.5-10.6-48.6-24.3
		c-6.1-13.7-15.2-7.6-24.3-9.1c-9.1-1.5-30.4,13.7-30.4,13.7s-51.6,6.1-68.4,9.1c-16.7,3-12.2-18.2-28.9-19.7
		c-16.7-1.5,22.8-39.5,22.8-39.5s21.3-12.2-13.7-22.8c-20.3-6.2-37.5-5.2-48.4-3.2c-38.2,28.5-110.2,81.8-127.8,92.9
		c-24.3,15.2-24.3,167.1-24.3,167.1c10.6,48.6,326.6,22.8,326.6,22.8s147.3-13.7,146.6-51.6S671.4,1542.9,651.6,1501.9z"/>
	<path class="st34" d="M4509.8,1624.9l-145.8,25.8c0,0-27.3,15.2-24.3,6.1c3-9.1-25.8-10.6-25.8-10.6s-94.2,31.9-100.3,19.7
		c-8.8-17.6-34.3-72.1-45.6-60.8c-16.7,16.7,1.5,54.7,1.5,54.7h-13.7h-50.1v-21.3h-47.1l-45.6,25.8c0,0-31.9,22.8-135.2,13.7
		c-103.3-9.1-24.3-7.6-33.4-18.2c-9.1-10.6-27.3,0-27.3-13.7s60.8-82,60.8-82s3-31.9-88.1-34.9c-91.1-3-376.7,120-376.7,120h-376.7
		l-18.2,28.9l-75.9-13.7l-25.8-3l-63.8,16.7l-69.9-9.1l-22.8-19.7c0,0-27.3-16.7-44-15.2s0,27.3,0,27.3l-31.9-12.2v28.9h-86.6
		c0,0-4.6-63.8-27.3-57.7s-22.8,30.4-22.8,30.4H2368c33.4-68.4-69.9-71.4-69.9-71.4c-45.6-9.1-156.5,45.6-156.5,45.6l-145.8,25.8
		c0,0-27.3,47.1-24.3,34.9c3-12.2-3-19.7,0-28.9c3-9.1-25.8-10.6-25.8-10.6l-18.2,33.4c0,0-80.5,12.2-86.6,0
		c-6.1-12.2,31.9-41,31.9-41s-45.6-50.1-62.3-33.4s18.2,54.7,18.2,54.7h-41h-50.1v-21.3h-47.1l-45.6,25.8c0,0-31.9,22.8-135.2,13.7
		c-103.3-9.1-24.3-7.6-33.4-18.2c-9.1-10.6-27.3,0-27.3-13.7s-404,3-404,3H668.3l-18.2,28.9l-75.9-13.7l-25.8-3l-63.8,16.7
		l-69.9-9.1l-22.8-19.7c0,0-27.3-16.7-44-15.2c-16.7,1.5,0,27.3,0,27.3l-31.9-12.2v28.9h-86.6c0,0-4.6-63.8-27.3-57.7
		s-22.8,30.4-22.8,30.4H0v300h4666.2v-300.6C4620.6,1641,4509.8,1624.9,4509.8,1624.9z"/>
	<rect x="0.8" y="1791.3" class="st35" width="4667" height="159.5"/>
	<path class="st19" d="M1774.9,1255.1c11.7,38.9-77.7,20.7-58-14.6c-23.8-1.8-50,2.6-72.1-4.1c0.5-17.3,21.2-18.7,29.8-32.3
		c-22.6-13.3-45.6-14.1-66.7-27.8c-15.5-10.1-29.3-42.6-43.2-48.3c-25.2-10.4-76.4,24-84.1-30.2c5.6-1.1,11-4.7,17.1-4.4
		c-15.5-3.9-37.7-7.6-38.4-26.1c41.3-3.1,23.8-20.1,18.1-43.3c-10.3-41.4,2.9-81.6,23.2-117.6c-11.9-1.9-24.4-2.3-35.4-7.3
		c17.2-17.2,47.6-28.4,63.8-44.5c-24.6-26.9-38.6-24.5-7.3-43.4c16.6-10,45.7-19.6,64.6-21.4c-4.2-26.5,20.9-40.9,42.3-24.8
		c0.1-19.3,19.4-30.9,33.8-42.3c-13.3-4-36.4-12.6-27.3-29.7c7.5-14,30-7.7,42.3-11.9c-1.5-3.5-0.9-11.4-2.4-14.9
		c39.3,3.6,43.2-25,60.6-58.1c16.2-30.9,19.1-30.3,48.5-45.7c7.9-4.1,18-5.5,24.4-11.7c-22-12.2-30.1-35.5-2.7-47
		c17-7.2,31,6.3,47.9,4.4c27.8-3.2,59.2-30.8,87.3-39.8c42.4-13.5,84.6-0.3,127.7,0.1c80.9,0.6,152.4,20.3,227.2,48.9
		c53.6,20.5,94.4,73.9,87.1,129.8c28.2,14.2,52.1-12.9,63.2,39.3c2.1,10-0.1,44.9-5.7,51.9c39.6-1.4,72.4,55.3,43,85.5
		c2.7,2.3,5.4,4.7,8,7.1c-3.9,10.4-11.7,18.6-22.1,23.8c25.1,13.7,27.1,45.9,28.8,71.7c6-4.5,20.6-4.7,26.8-8.6
		c18.6,27.1,14.8,125.7-24.8,139.3c12.3,12.2,10.9,29.3,1.1,44c29.1,24.5,15.2,36.1-2.1,62c-33.7,50.3-43.8,69.2-109.1,58.6
		c-34.2,77.6-76,47.1-139.3,46.4c-32.9-0.4-66.5-7.7-98.8-7.9c-10.9-0.1-18.1,2.5-29.5,3.7c-14.6,1.6-48.7,0.4-43.2-4.3
		c-13.8,13.3-40.6-6.7-54.5-16.1c-3.2,21.9-43.7,36.5-63.8,36.5c-17.6,0-24-13.2-39-15.4c-10.5-1.5-23.1,4.4-34.2,2.4
		c-13.4-2.3-19.5-16.9-30.7-17.7c-3.6-0.3-26.4,8.8-28.8,9.3c-23.7,5-43.8,2.3-65.8-6.2C1771,1253,1779.1,1255,1774.9,1255.1z"/>
	<polygon class="st2" points="2.2,1902.9 383.7,1902.9 378.2,1888.9 2.2,1888.9 	"/>
	<polygon class="st2" points="1107.3,1888.9 677.4,1888.9 669.1,1902.9 1112.8,1902.9 	"/>
	<polygon class="st2" points="1806,1888.9 1376.1,1888.9 1367.8,1902.9 1811.6,1902.9 	"/>
	<rect x="0.8" y="1748" class="st36" width="2279.9" height="43.3"/>
	<rect x="0.8" y="1726" class="st37" width="2279.9" height="21.3"/>
	<polygon class="st2" points="2535.1,1888.9 2105.2,1888.9 2096.9,1902.9 2540.7,1902.9 	"/>
	<polygon class="st2" points="4251.5,1890.4 3821.6,1890.4 3813.3,1904.4 4257.1,1904.4 	"/>
	<polygon class="st2" points="4664.4,1888.9 4550.7,1888.9 4542.4,1902.9 4664.4,1902.9 	"/>
	<g>
		<polygon class="st2" points="3567.8,1796.2 2775.6,1796.2 2760.2,1810.3 3578.1,1810.3 		"/>
		<polygon class="st2" points="2722.9,1844.4 3603.1,1844.4 3589.4,1825.7 2743.3,1825.7 		"/>
		<polygon class="st2" points="2688,1876.3 3626.5,1876.3 3612.9,1857.9 2708.2,1857.9 		"/>
		<polygon class="st2" points="2637.9,1922.2 3660,1922.2 3637.6,1891.5 2671.4,1891.5 		"/>
		<polygon class="st2" points="3681.5,1951.5 3672.1,1938.6 2620,1938.6 2605.8,1951.5 		"/>
	</g>
	<line class="st38" x1="180.8" y1="1747.2" x2="180.8" y2="1790.5"/>
	<line class="st38" x1="651.6" y1="1747.2" x2="651.6" y2="1790.5"/>
	<line class="st38" x1="1092.1" y1="1747.2" x2="1092.1" y2="1790.5"/>
	<g>
		<path class="st39" d="M3039.2,1465.5c-1,0-3.5,0-4.6,0c-3.1,3.5-6.8,6.3-9.1,10.6c-7.6-3.3-25.1-2.5-27.1,7
			c-10.8,0.9-64.2,11.3-55.3,29.6c-31.6-21.3-20.3,30.1-47.8,33.3c-0.5,6.6-2.8,11.7-5.3,17.9c-2.4-0.5-5.5,0.5-7.9-0.2
			c-4.1,31.1,1.6,22.6,23.3,32.5c-8.4,7-17,18.5-14.8,30c1.7,0,3.4,0.2,5.1,0.5c-28,30.1,28.1,41,47.2,44.1
			c-5.1,5.2-2.7,5.5-3.7,11.3c43.5,10.4,91.1-0.5,130.2-6.9c5.1,14,21.2,1.3,24.6-8c2.9,5.8,7.9,10.3,13.9,7.5
			c-2.6,14,15.9-0.1,21.3-1.6c25.5-7.3,30.8,9.5,33.3-21.1c6.4,0.1,13.2,0.3,19.3-0.5c0.6-11.1,0-19.8,3.2-27
			c1.4-3.1,5.8-3.1,7.8-8.5c0.4-1.1-3.9-9.5-4.5-10.7c27.7-12.3,1.4-18.1-10.9-29.2c3.5-10,2.5-19.8-10.2-16.8
			c15.7-21.9-19-21.5-24.7-28.9c-3-3.9,2.3-10.3-3.4-14.7c-2.9-2.3-14.3-0.2-17.7,0c-12.2,0.7-22.2,4.9-22.7-12.2
			c-3.5,1.3-8.6,0.5-12.2,2.9c0.9-4.2-0.8-9.3-0.2-13.5c-3,1-7-0.2-10.2,1.3c2.1-15.9-11-25.7-19.9-9
			C3061.4,1465.8,3052.8,1466.9,3039.2,1465.5z"/>
		<path class="st39" d="M3132.9,1589.9c-3.3-3.5-8.2-4.4-13.5-2.8c0,5.3,3.1,8.6,8.5,10.5c-14.7,8.2,2.9,5.9,5.8,8.9
			c6.2,6.3,8.7,20.7,20.4,10.8"/>
		<path class="st39" d="M3020.6,1627.8c-10.3,0-46,1.4-31.5-17.1c10.7,10.5-13.1,18.7-22.5,16.6c-1-6.8-2.1-14.7,2.7-19.5
			c-7.8-1.8-20.2-6.4-12.3-14.8"/>
	</g>
	<line class="st38" x1="1532.6" y1="1747.2" x2="1532.6" y2="1790.5"/>
	<line class="st38" x1="1973.1" y1="1747.2" x2="1973.1" y2="1790.5"/>
	<rect x="2280.7" y="1748" class="st36" width="2386.3" height="43.3"/>
	<rect x="2280.7" y="1726" class="st37" width="2386.3" height="21.3"/>
	<line class="st38" x1="2460.7" y1="1747.2" x2="2460.7" y2="1790.5"/>
	<line class="st38" x1="2931.6" y1="1747.2" x2="2931.6" y2="1790.5"/>
	<line class="st38" x1="3372.1" y1="1747.2" x2="3372.1" y2="1790.5"/>
	<line class="st38" x1="3812.6" y1="1747.2" x2="3812.6" y2="1790.5"/>
	<line class="st38" x1="4253.1" y1="1747.2" x2="4253.1" y2="1790.5"/>
	<line class="st38" x1="4632.8" y1="1747.2" x2="4632.8" y2="1790.5"/>
	<path class="st38" d="M2204.8,1639.4c-1,5.4-5.4,11.7-7.8,18c8.8,1,17.7-2,25.8-0.5c0.1,2.5,0.2,5.1,0.4,7.6c2.2,0.6,3.6,0,5.9-0.8
		"/>
	<path class="st38" d="M2839.6,1694.4c-3,4.7-10.6,1.4-13.8-3.3s-5.7-10.8-11.2-11.9c-4.8-1-12.1,1.1-12.9-3.8
		c-0.3-1.8,1-3.5,1.4-5.3c1.8-6.7-6.3-11.3-12.6-14.2c-6.3-2.9-12.7-11-7.6-15.7c1.3-1.2,3.2-1.8,4.4-3.1c4.8-5.4-5.4-15.3-0.2-20.3
		c1.6-1.5,4-1.7,6-2.8c7.7-4.1,3.3-15.8,4.7-24.4c1.6-9.7,13.7-16,22.6-11.8"/>
	<path class="st40" d="M2757,1374.3c1.5,0,5.3,0,6.8,0c4.6,5.3,10.2,9.5,13.7,15.9c11.4-4.9,37.7-3.7,40.7,10.6
		c16.3,1.4,96.4,17,83.1,44.5c47.5-32,30.5,45.1,71.8,50.1c0.7,9.9,4.2,17.6,8,26.8c3.6-0.8,8.2,0.8,11.9-0.3
		c6.1,46.8-2.4,34-35,48.8c12.6,10.6,25.5,27.8,22.3,45c-2.6,0-5.1,0.3-7.6,0.8c42,45.3-42.3,61.6-70.9,66.2c7.6,7.8,4,8.2,5.5,17
		c-65.3,15.6-136.9-0.8-195.6-10.3c-7.7,21.1-31.8,1.9-36.9-12.1c-4.3,8.7-11.9,15.4-20.8,11.2c3.9,21-23.8-0.1-32-2.4
		c-38.3-10.9-46.3,14.2-49.9-31.7c-9.6,0.1-19.8,0.5-28.9-0.8c-0.9-16.6,0.1-29.8-4.8-40.5c-2.1-4.7-8.7-4.7-11.6-12.7
		c-0.6-1.6,5.8-14.2,6.7-16c-41.5-18.5-2.2-27.2,16.3-43.8c-5.2-15-3.8-29.7,15.2-25.3c-23.5-32.9,28.6-32.3,37.1-43.4
		c4.5-5.8-3.4-15.5,5.1-22.1c4.4-3.4,21.5-0.3,26.6,0c18.3,1,33.4,7.4,34.1-18.3c5.3,1.9,12.9,0.8,18.4,4.4
		c-1.4-6.3,1.3-14,0.3-20.3c4.5,1.5,10.6-0.2,15.4,1.9c-3.2-23.9,16.5-38.6,29.8-13.5C2723.6,1374.8,2736.6,1376.5,2757,1374.3z"/>
	<path class="st38" d="M2738.7,1440.4c-10.5,0-21.2-0.2-31.6,0.3c-0.8,11.8,11.7,14.6,21.5,14.3c-7.1,10.8-19,17.5-28.2,26.2
		c7.9,0.3,16.2,0.3,24.1,0.5c-9.6,12.1-30.9,32.5-8.2,36.2c13.2,2.1,23.3-8.1,30.9-17.5c11.2,9.5,56.2,29.1,62.2,10.6"/>
	<path class="st38" d="M2893.7,1561.1c-5-5.3-12.3-6.6-20.2-4.3c-0.1,8,4.7,12.9,12.7,15.8c-22,12.3,4.4,8.9,8.8,13.3
		c9.3,9.4,13.1,31.1,30.6,16.2"/>
	<path class="st38" d="M2725.1,1618.1c-15.5,0-69.1,2.1-47.4-25.7c16.1,15.7-19.7,28.1-33.8,24.9c-1.5-10.2-3.1-22.1,4-29.3
		c-11.7-2.7-30.4-9.6-18.5-22.2"/>
	<g>
		<path class="st33" d="M2019.4,1562.3c-13.5,5.1-5.3,11-5.3,11s15.3,18.3,8.8,19.1c-6.5,0.7-4.7,11-11.2,9.5
			c-6.5-1.5-26.5-4.4-26.5-4.4s-8.2-7.3-11.8-6.6c-3.5,0.7-7.1-2.2-9.4,4.4c-2.4,6.6-14.1,11-18.8,11.7c-4.7,0.7-5.3-8.8-10.6-7.3
			c8.5-19.6,37-45.4,37-45.4l13.5-11.7l43.5,9.5c0,0,3.6,3.4,9,8.4c0.1,0.1,0.2,0.2,0.3,0.3
			C2033.9,1559.8,2027.3,1559.3,2019.4,1562.3z"/>
		<path class="st21" d="M1934.1,1601.2c0.2-0.5,0.4-1,0.6-1.5c5.3-1.4,5.9,8.1,10.6,7.3c4.7-0.7,16.5-5.1,18.8-11.7
			c2.4-6.6,5.9-3.7,9.4-4.4c3.5-0.7,11.8,6.6,11.8,6.6s20,2.9,26.5,4.4c6.5,1.5,4.7-8.8,11.2-9.5c6.5-0.7-8.8-19.1-8.8-19.1
			s-8.2-5.9,5.3-11c7.9-3,14.5-2.5,18.7-1.6c14.8,13.7,42.6,39.5,49.5,44.8c7.3,5.7,8.9,50.8,9.3,70.9c0.1,5.9-4.3,9.7-4.3,9.7
			c-1.8,10.2-14.2,12.5-33.5,12c-19.3-0.5-41.2-3.9-53.2-4.9c-3.5-0.3-35.4,3.9-35.4,3.9s-46-17.6-45.7-36
			C1925.2,1642.9,1926.5,1620.9,1934.1,1601.2z"/>
	</g>
	<path class="st38" d="M1926.8,605c-10.4,20.5-93.2,54.7-109.8,31.7c-17.3-23.9,23.3-65,38.9-79.5c-28.6,3-47.5,0-59-16.7"/>
	<path class="st38" d="M1820.5,717.4c-42.6,53.7,15.1,58.4,48.8,22.2c1.9,23.8,38.8,8.9,48.4-4"/>
	<path class="st38" d="M2093.9,614.1c-4.8,13.6-13.1,26.4-11.7,42.1c17.9,1.6,25.1-16.6,27.4-32.8c16.9,15.7,92.8,69.2,88,6.2
		c19.9,16.9,52.7,40.8,60.3-3.3"/>
	<path class="st38" d="M2118.2,787.2c17.9,22.1,66.3,72.5,95.8,44.6c22.4-21.2-6.7-39.5-13.6-62.8c35.8,26,83.3,14.6,36.3-30.3"/>
	<path class="st38" d="M2118.2,1075.8c5.3,8.2,22.8,32.5,36.2,12.2c27.8,31.5,66.3,28.7,64.6-18.1c31.5,32.7,83.7-11.5,91.2-46.5
		c5.1-23.8,8.2-21.2-13.1-29.4c-13-5-38.6,0-51.4,2.8"/>
	<path class="st38" d="M2017.9,1009c-17.7,14.9-25.3-7.2-25-23.4c-4.1,9-26.8,29-38.2,20c-23-18.1,28-51.9,38.9-57.4"/>
	<path class="st38" d="M1671.6,899.6c-14.3,6.8-30.9,17.7-26.9,36c14.3,4.5,28.9,0.2,41.6,3.2c14.6,3.4,21,25.8,43,3.3"/>
	<path class="st38" d="M1720.2,1045.5c-34,26.3,31.8,51.7,57.1,30.7c-1,31.6,43.5,64.2,63.6,30.2c20.4,43.5,52.2,11.1,64.6-18.4"/>
	<path class="st38" d="M1705,1130.5c0.4-0.3-6.2,2.5-11.6,2.6c-5.8-28.9-42.1,12.8-58.8-11.5c3.1-5.5,6.9-6.3,12.7-9.3"/>
	<g>
		<path class="st38" d="M1874.4,1704.1c-2,3.2-7.1,0.9-9.2-2.2c-2.1-3.1-3.8-7.2-7.5-8c-3.2-0.7-8.1,0.7-8.6-2.5
			c-0.2-1.2,0.6-2.4,1-3.6c1.2-4.5-4.2-7.5-8.4-9.5c-4.2-2-8.5-7.4-5.1-10.5c0.9-0.8,2.1-1.2,2.9-2.1c3.2-3.6-3.6-10.3-0.2-13.6
			c1.1-1,2.7-1.2,4-1.9c5.2-2.7,2.2-10.6,3.1-16.3c1.1-6.5,9.2-10.7,15.1-7.9"/>
		<path class="st40" d="M1819.1,1489.8c1,0,3.6,0,4.6,0c3.1,3.5,6.8,6.3,9.2,10.7c7.7-3.3,25.2-2.5,27.3,7.1
			c10.9,0.9,64.6,11.4,55.6,29.8c31.8-21.4,20.4,30.2,48.1,33.5c0.5,6.6,2.8,11.8,5.3,18c2.4-0.5,5.5,0.5,8-0.2
			c4.1,31.3-1.6,22.7-23.5,32.7c8.4,7.1,17.1,18.6,14.9,30.1c-1.7,0-3.4,0.2-5.1,0.5c28.1,30.3-28.3,41.2-47.5,44.3
			c5.1,5.2,2.7,5.5,3.7,11.4c-43.7,10.5-91.6-0.5-131-6.9c-5.1,14.1-21.3,1.3-24.7-8.1c-2.9,5.8-8,10.3-13.9,7.5
			c2.6,14.1-16-0.1-21.4-1.6c-25.6-7.3-31,9.5-33.4-21.2c-6.4,0.1-13.3,0.3-19.4-0.5c-0.6-11.1,0-19.9-3.2-27.1
			c-1.4-3.1-5.8-3.1-7.8-8.5c-0.4-1.1,3.9-9.5,4.5-10.7c-27.8-12.4-1.4-18.2,10.9-29.3c-3.5-10-2.5-19.9,10.2-16.9
			c-15.8-22,19.1-21.7,24.9-29.1c3-3.9-2.3-10.4,3.4-14.8c2.9-2.3,14.4-0.2,17.8,0c12.2,0.7,22.4,5,22.9-12.3
			c3.6,1.3,8.6,0.5,12.3,2.9c-0.9-4.2,0.9-9.4,0.2-13.6c3,1,7.1-0.2,10.3,1.3c-2.1-16,11-25.8,20-9
			C1796.8,1490.1,1805.5,1491.2,1819.1,1489.8z"/>
		<path class="st38" d="M1806.9,1534c-7,0-14.2-0.1-21.1,0.2c-0.5,7.9,7.8,9.8,14.4,9.6c-4.7,7.2-12.7,11.7-18.9,17.5
			c5.3,0.2,10.9,0.2,16.1,0.3c-6.4,8.1-20.7,21.8-5.5,24.2c8.8,1.4,15.6-5.5,20.7-11.7c7.5,6.4,37.6,19.5,41.6,7.1"/>
		<path class="st38" d="M1910.6,1614.9c-3.3-3.5-8.2-4.4-13.5-2.9c0,5.4,3.1,8.6,8.5,10.6c-14.7,8.2,2.9,5.9,5.9,8.9
			c6.2,6.3,8.8,20.8,20.5,10.8"/>
		<path class="st38" d="M1797.8,1653c-10.4,0-46.3,1.4-31.7-17.2c10.8,10.5-13.2,18.8-22.6,16.7c-1-6.8-2.1-14.8,2.7-19.6
			c-7.8-1.8-20.3-6.4-12.4-14.9"/>
	</g>
</g>
</svg>
