<?xml version="1.0" encoding="utf-8"?>
<!-- Generator: Adobe Illustrator 21.0.0, SVG Export Plug-In . SVG Version: 6.00 Build 0)  -->
<svg version="1.1" id="Capa_1" xmlns="http://www.w3.org/2000/svg" xmlns:xlink="http://www.w3.org/1999/xlink" x="0px" y="0px"
	 viewBox="0 0 1319 614" style="enable-background:new 0 0 1319 614;" xml:space="preserve">
<style type="text/css">
	.st0{fill:#D0D2F7;}
	.st1{fill:#D69583;stroke:#643527;stroke-miterlimit:10;}
	.st2{fill:#DF90AD;stroke:#643527;stroke-miterlimit:10;}
	.st3{fill:#FFC6CE;stroke:#643527;stroke-miterlimit:10;}
	.st4{fill:none;}
	.st5{fill:#595975;stroke:#643527;stroke-miterlimit:10;}
	.st6{fill:#434351;stroke:#643527;stroke-miterlimit:10;}
	.st7{fill:#71A888;stroke:#643527;stroke-miterlimit:10;}
	.st8{fill:#E1F78F;stroke:#643527;stroke-miterlimit:10;}
	.st9{fill:#867691;stroke:#643527;stroke-miterlimit:10;}
	.st10{fill:#FFFFFF;stroke:#643527;stroke-miterlimit:10;}
	.st11{fill:#CBABB6;stroke:#643527;stroke-miterlimit:10;}
	.st12{fill:#F9DFD0;stroke:#643527;stroke-miterlimit:10;}
	.st13{fill:none;stroke:#643527;stroke-miterlimit:10;}
	.st14{fill:#347976;stroke:#643527;stroke-miterlimit:10;}
	.st15{fill:#708A81;stroke:#643527;stroke-miterlimit:10;}
</style>
<g>
	<polygon class="st0" points="1299.1,1.4 1207.6,1.4 1116,1.4 1024.4,1.4 932.8,1.4 841.2,1.4 749.6,1.4 749.6,1.9 658.8,1.9 
		567.2,1.9 475.6,1.9 384,1.9 292.4,1.9 200.8,1.9 109.3,1.9 17.7,1.9 -73.9,1.9 -73.9,614 17.7,614 109.3,614 200.8,614 292.4,614 
		384,614 475.6,614 567.2,614 658.8,614 750.4,614 750.4,613.5 841.2,613.5 932.8,613.5 1024.4,613.5 1116,613.5 1207.6,613.5 
		1299.1,613.5 1390.7,613.5 1390.7,1.4 	"/>
	<g>
		<path class="st1" d="M495.5,410.3c0,0.5,0,1.1,0,1.6c0,0-0.1,0-0.1,0.1L495.5,410.3z"/>
		<path class="st1" d="M495.9,411.5c0,1.1,0,2.2-0.1,3.3c-0.2-1-0.3-2-0.3-3C495.7,411.7,495.8,411.6,495.9,411.5z"/>
		<path class="st1" d="M495.5,411.9C495.5,411.9,495.5,411.9,495.5,411.9c0.1,0.9,0.3,1.9,0.4,3c-0.1,1.8-0.4,3.6-0.8,5.4
			L495.5,411.9z"/>
		<path class="st1" d="M413.7,425.7c1.3,2.6,6.4,2.2,9.3,2.8c7.1,1.5,13.7,3.7,17.1,10.2c4.7,9.2,7.2,22.2,17.6,26.6
			c2.2,0.9,7.9,1,9.4,3.2c1.1,1.6-0.2,4.6-0.3,6.7c-0.4,9.3,3,12.8,11.9,12.4c8.1-0.4,9.3,0.4,13.2,9c2.9,6.4,0.3,11.3-1.7,17.7
			c-1.2,3.9-4,7.8-3.6,11.8c0.8,10.4,47.2,14.8,53.1,11.1c2.2-1.4,5.4-5.8,0.8-6.8c1.8-7.1-18.3-26.7-23.4-32.1
			c-4.3-4.6-18.1-8.2-19.1-14.2c-1.3-7.3,6.2-13.1-0.9-20.2c-4.7-4.7-15-1.3-15.8-8.8c-0.7-6.7,2.3-13.5,7.2-17.6
			c4-3.4,7.4-5.6,8.4-10.8c0.7-4.1-0.3-8.2-0.8-12.2c-0.1,1.8-0.4,3.6-0.8,5.4l0.4-8.4c-5.2,4.2-4.2,5.6-5.7,11.6
			c-1.2,4.6-8.1,13.9-12.7,14.7c0.2-4.5-0.5-10.3,1.2-14.4c2-4.8,9-8.1,6.9-14.1c-4.5,1.3-11.7,9.1-14.3,13.1
			c-3,4.7-5.9,15.3-4.2,21c1.1,3.6,6.8,8.1,2.9,11.7c-4.6-4.3-4.9-4.9-11.7-6.3c-3.4-0.7-6.5-1.5-8.8-4.3c-2.9-3.6-2.7-9-6.2-12.4
			C434.5,424.1,424.6,425.6,413.7,425.7z M477.6,466.9c1.7-2.1,7.1,0.1,9.6,1.3c4.6,2.3,3.8,5.1,3.3,9.7c0.1,0.9,0.2,1.8,0.2,2.7
			c-3,0-11,0.1-13-1.7C476.7,477.8,476.7,468.1,477.6,466.9z"/>
		<path class="st1" d="M490.3,472.6l0.1,3.9C490.2,475.2,490.1,473.9,490.3,472.6z"/>
		<path class="st1" d="M490.4,476.4c0.1,0.5,0.1,1,0.2,1.4c-0.1,0.6-0.1,1.2-0.1,1.8L490.4,476.4z"/>
	</g>
	<path class="st2" d="M437.3,283.9c-3.7-0.3-8.7,0.8-11.6,3.1c0.3-1-0.1-2.2,0.1-3.1c-1.8-0.1-3.7,0.6-5.1,1.6c0-3.6,0.8-8-4.1-7.8
		c-1.7,0.1-2.2,2.3-3.7,2.2c-2.1-0.1-3.7-3.2-6.2-3.6c0.2,1-0.4,2.4-0.3,3.3c-2.3-1.2-5.4-2.3-6.8,0.6c-2.2-2.1-7.7-7-11.2-5.1
		c-2.5,1.4-1.1,5.5-3,6.8c-1.1,0.8-7.6-0.8-9.5-0.7c-1.5,0.1-2.4,1.8-4.8,0.7c0.1-0.1-0.6,1.5-0.6,1.4c-0.7-0.8-1.4-0.9-2-1.4
		c-0.5,1.6-0.8,3.4-0.7,5.1c-5.7-1.1-3.3,1.7-5.4,4.8c-1.9,2.9-7.7,6.5-11.4,7.7c-4.6,1.5-11.8,0.2-15.4,5.1
		c-1.4,1.8-2.4,5.3,0.1,6.3c-1.5,0-2.6,0.9-4,1.6c0.4,0.2,1.4,1.6,1.9,1.9c-2.9,1.4-1.8,3.6-3,5.7c-1.2,2.2-7.5,8.4-1.5,9.6
		c-6.4,3.8-12.6,15.7-7.8,23.4c-5.7-0.3-14.2,11-5.7,12.3c-2.2,2-4.7,3.8-4.2,7.2c-1.8,0-4.3,0-5.4,1.6c-2.4,3.4,0.9,3.4,2.9,5.1
		c0.8,0.7,2.5,2,3,2.4c0.5,0.4,1.3,2.6,2.4,3.5c1.5,1.2,4,1.7,5.9,1.8c-0.3,0.8,0.3,2.4-0.1,3.3c4.3,1.6,3.9,2.1,5.5,6
		c2,5.2,3.5,4.7,7.8,7.5c5.7,3.8,8.1,6.9,16.2,7.3c2,0.1,11.1-0.7,12.1,0c1.4,0.9,1.4,4.5,2.4,5.9c1.4,2.1,3.6,0.1,4.7,4.4
		c3,0.1,5.5-2.8,7.9-3.7c-3.7,6.1,5,8.9,10,8.4c3.4-0.3,5-2.2,8.3-2.2c3.4,0,6.4,2.6,9.9,0.6c0.8,2.3,1.9,6.9,4.7,7.3
		c2.9,0.5,6.4-4.1,9.8-4.3c3.6-0.3,3.3,1.9,6,2.2c4.1,0.5,4.3-2.6,6.6-4.3c1-0.7-0.3-2,1.5-2.1c2-0.1,2.7,2.5,3.8,3.6
		c2.1,1.9,3.4,4,6.6,2.7c1.9,5.2,7.8,0.7,10.3-1.9c-1.4,4.6,14.6,4.8,9.2-5.8c4.1,1.3,9.8,7.7,9.1-1.9c3.2,6.6,7.2,1.9,10-0.6
		c0.2,0.5,0.4,0.9,0.7,1.3c0.5-1,1.8-1.8,2.4-2.6c6.9,8.8,9.9,3,12.6-3.8c0.2-0.4-0.8-1.4-0.4-2.3c1.7-3.7,8-4.2,10.6-7.7
		c8.4-11.2-8.5-16.2-17.1-17.7c3.2-5.9,6.1-17.4-3.4-19.5c8-8.1,11.2-16.8-2.7-23.4c0.9-2.6,8.5-17.6-1.2-10.7
		c-0.1-1.3-0.8-2.8-0.5-4.3c-0.9,0.7-2.3,0.9-3.2,1.9c-0.5-2.9-3.2-10.9-7.6-7.9c1.7-4.3,4.5-11.3-2.7-11.3
		c-0.3-3.6-2.8-6.2-6.5-5.1c0.3-3.1-3-4.9-5.2-2.4c1.5-8.2-5.5-18.1-11.9-8.8c-0.4-1.7-1.4-3.3-2.8-4.1c-0.3,0.3-0.5,0.7-0.8,1
		c-0.7-2.1-1.5-4.2-2.7-6c-0.7,0.2-1.2,0.6-1.4,1.3c-0.3-0.6-1.3-3.1-1.6-4"/>
	<path class="st1" d="M487,419.7c5.7,9.5,17,17.4,19.8,28.4l0-0.3c4.1,6.7-0.4,18.8,0.2,26.6c0.7,8.6,6.8,11.6,11.6,17.6
		c3.3,4.1,2.3,10.5,2.7,15.6c0.4,5.8,2.5,11.8,7,16c5.1,4.8,12.4,4.6,19,5.8c4.4,0.8,8.9,1.9,11.5-2.4c2-3.5,0.5-6.9-1.7-9.6
		c-4.7-6-9.9-12.1-14.9-18.1c-8.4-9.8,0.7-12,6.2-19.6c5.6-7.8,0.9-14.4-5.1-20.5c-4.2-4.2-12.1-7.1-9.6-14c2.2-6.1,8.8-7,14.4-7
		c9.8,0,17-1.9,23.6-9.5c7.8-9,1.9-9.4-5.7-4.6c-6.2,3.8-9.8,8.4-17.6,5.1c0.9-1.9,0.6-4.1-1.2-5.5c-3-2.3-2.6-0.3-3.9,1.5
		c-1.6,2.1-1.7,3.9-3.9,5.5c-3.4,2.5-8.4,2.4-11.6,5.2c-1.9,1.7-3,7.7-4.9,7.8c-1.7,0.1-3.5-4.1-4.3-5.4
		c-4.7-7.8,1.1-19.2-10.2-23.9c-2.6,3,0.4,13.1,1.2,16.4c-7.3,1.5-12.4-15.4-17.2-19.2C482.3,403.9,482.6,412.4,487,419.7z
		 M524.4,459.6c3.6,2.1,10.6,6.1,12.1,10.1c0.7,1.9-0.1,10.7-2.5,11.6c-2.7,1-11.3-11.4-11.8-14.6
		C521.8,464.4,523.4,456,524.4,459.6z"/>
	<path class="st3" d="M535.1,422.3c1,1.3,4.6,1,5.4,2.4c0.8,1.4-1.2,3.7-1.4,5.3c3.2,0.6,6.2-0.6,9.4,0.1c1.2,8,14.7-0.9,17.4-1.6
		c3.9-0.9,1.4,0.6,4.6,2.1c4.2,2,8,0.6,11.6-2c1.8,4.1,5.5,7.2,10.2,4.4c3.6-2.2,0.8-3.6,3-5.6c2.4-2.1,6,2.1,7-2.8
		c0.4-2.2-2.8-5.4-2.4-8.4c3.8-0.8,10.8-0.2,14.1-2.1c4.1-2.4,3.5-5.4,8.8-7.3c14.1-5,17.4-11.3,16.3-24.7
		c-2.3-0.8-0.2-9.4,0.3-11.6c1.3-6.5,6-13.5,5.5-22c-0.4-5.8-2.3-9.9-3.9-15.1c-1.6-5.1-1.5-0.9,0.1-4.6c0.5-1.1,3.4-3.2,4.2-4.7
		c1.9-3.5,2.2-5.1,0.2-8.6c-3.5-6.1-4.6-4.5-4.1-11.1c0.3-3.5-0.2-8.9-1.8-11.8c-0.5-0.8-2.3-0.1-2.9-1.3c-0.9-1.9,0.8-4.6,0.4-6.8
		c-0.8-4.7-3-4.9-6.9-2.6c-1-5.1-6-8.7-8.9-12.9c-3-4.4-4.7-8.2-9-11.5c-2.2-1.7-5.2-2.5-7.4-4.2c-2.6-2-8.3-5.9-9.9-8.7
		c3-1.4,2.7-5,0.9-6.9c-2.3-2.4-6.4-1.7-9.3-2.2c-4.9-0.9-5.5-2.3-9.9-5.3c-6.3-4.3-11.3-4.9-18.5-5.6c0.7-6.8-0.2-10.6-7.4-4.8
		c-3.6,2.9-6.5,4.5-11.3,4.9c-3.6,0.3-6.8-1.1-10,1.5c-6.5-10.6-25.4-10-35.9-6.2c-5.1,1.9-9.5,4.9-14.3,7.4
		c-4.8,2.6-8.7,0.2-13.4,1.5c-0.2,3,2.2,4.8,2,7.8c-0.3,4-4.6,7.2-7.7,9.1c-4.3,2.6-10.2,3.6-13,8.3c-2.2,3.6-0.6,4.6-3.9,6.2
		c-3.2,1.6-8.4-0.3-9.2,4.4c-0.4,2.3,1.6,3,0.6,5.8c-0.9,2.6-4.9,6-6.4,8.3c-1.8,2.8-3.4,5.8-5.1,8.6c-3.1,5.2-6.6,10.8-10,15.7
		c-3.1,4.5-6,4.6-11.6,5c-3.3,0.2-11.2-2.2-13.4,0.4c-2,2.4,0.9,6.3,0.4,9c-0.9,5.4-2.6,5.3-1,11.5c0.6,2.3,1,7.6,3.1,9.1
		c1.3,0.9,3.7-0.3,5.1,0.8c1.9,1.5,1.1,1.4,1.6,3.6c0.6,2.5-0.4,5.2,0.7,8.1c1.4,3.7,4.1,6.9,6.9,9.6c-2.9-0.4-5.9,0.4-8.4,1.8
		c0.6,5.8,8.9,14.3,14.5,15.5c-8.7,2.8,1.1,9.7,6,9.5c-0.3,0.5-0.6,0.9-0.8,1.4c1.7,2.4,4.8,3,7.5,3.6c-6.5,12.4,8.8,18.2,17.8,18.6
		c-5.2,9.6,13.3,7.2,18.1,5.8c-0.4,6.4,9.4,13.8,15.1,11.1c2.5-1.2,3.4-4.1,5.5-5.7c1.7-1.2,4,0.1,5.1-3c2.9,2.6,7,2,9.1-1.2
		c-1.1,1.3-1.5,3-1,4.7c4.2,1.6,12.3,1.7,15.4-2.2c-4.6,8.9,16.8,3.3,19.5,0.3c-5.2,5.7,4.7,9.2,9.3,3.7c-0.5,1.9-1.4,3.8-2.6,5.5"
		/>
	<path class="st3" d="M474.3,376.4c3.4,3.5-1.9,3.4-3,5.2c-1.4,2.3,1.7,4.7-2.1,5.7c2.7,2.1,3.7,4.6,4.7,7.7
		c-0.6,0.4-1.2,0.5-1.9,0.6c0.1,4.4-6.5,2-7.2,0.5c-1.2,3.6-4.2,1-6.7,1.2c-3,0.2-8.7,3.6-8-3.3"/>
	<path class="st2" d="M465.3,340c9.6-4,8.8,13.7,1.4,5.3c-1.4,2.6-5.1,3-7,1c5.8,5.3-10,7.2-11.4,0.6"/>
	<path class="st2" d="M450.3,299.8c5.2,6.5,21,3.7,9.9,0c2.5-0.1,5.8,1.2,6.9-1.3c-3-2.1-6.8-1.9-10-3.5"/>
	<path class="st2" d="M372.4,321.6c-0.1,3.3-8.2,5.1-12.3,4.4c-0.6-4.6,3.9-10.2,8.1-11.2"/>
	<path class="st2" d="M398.6,381c0.4,5.6-7,12.2-7.8,4.3c-0.3,1.1-1.3,2.1-1.6,2.9c-2.9-4.7-9.9,2.5-14.5-0.4
		c-0.4-0.3-0.3-2-0.8-2.6c-1.2-1.4-3.5-2-4.7-3.6c-3.3-4.1-2.8-9,0.5-13c-4.6-1.9-2.7-8.5,1.6-9.1"/>
	<path class="st2" d="M350.5,380.2c1.3,0.8,2.1,1.8,1.8,3.5c-1.4-0.1-2.6,0.7-4,0.5c1.4,2.9,0.8,6.4,0.5,9.5
		c-0.7-0.8-1.9-1.2-2.4-2.9c0.4,4.6-5.9,6.9-6.2,2.1c-3,1.1-10.7,0.3-8.4-4.5"/>
	<path class="st4" d="M545.5,462.1c-1.3,5.2,1.3,10.8,6.9,9.3c5.9-1.6,11.9-8.9,14.5-14.2c2.2-4.4,0.7-6.9-2.2-8.5
		c-0.3,0.2-0.7,0.3-1,0.5C557.9,452.1,547.3,455.1,545.5,462.1z"/>
	<path class="st1" d="M559.4,424.6c-3.2-1.6-6.2-3.3-8.9-5.1c-5.1-3.5-9.4-7.5-6.9-14c1.4-3.9,4.5-7.2,5.4-11
		c0.9-3.9-0.4-6.3-3.8-8.5c-4.4,4.2-3.9,11-7.8,15.2c-2,2.1-4.3,3-6.1,5.5c-1.7,2.3-1.4,2.7-4.7,2.9c-9.4,0.5-9.1-6.6-14.4-12.1
		c-6-6.3-9.9-12.3-19.3-11.7c-2.5,4.8,7.1,13.6,9.5,17c2.7,3.9,3.7,8.3,5.7,12.4c2.4,4.9,6.4,9.3,10.8,12.4
		c6.2,4.4,12.8,6.9,19.7,10c0.5-0.4,0.9-0.7,1.4-1.1C546.1,432,552.7,428.1,559.4,424.6z"/>
	<path class="st1" d="M610.4,394.2"/>
	<path class="st1" d="M564.7,447.7c2.8,1.6,4.3,5.1,2.2,9.5c-2.6,5.2-8.6,12.6-14.5,14.2c-5.6,1.5-8.2-4.1-6.9-9.3
		c1.5-6,8.6-8.6,13.7-10.8c6.2-2.7,10.5-8.2,16.5-11.7c5.2-3.1,9.7-6,14.6-9.7c9.5-7.3,19.6-13,28.5-21.2c4.5-4.1,8.5-9.1,13.7-12.3
		c-6.4,0.6-10.2,0.2-16.2-1.3c-1.4-0.3-3.7-0.8-5.7-0.8c-9.2,7.3-18.5,14.4-29.1,19.6c-7.4,3.6-14.8,7-21.9,10.8
		c-6.7,3.5-13.3,7.4-19.5,12c-0.5,0.3-0.9,0.7-1.4,1.1c-14.1,11-28,30.7-11.1,45.4c4.8,4.1,8.2,5.3,4.4,11.5
		c-2.8,4.5-7.3,9.7-11,13.8c-5.2,5.8-12.7,9.6-17.2,16c-6.4,9.2,8.1,13.3,15.9,12.7c5.1-0.4,9.6-2.7,14.4-4.1
		c2.8-0.8,8.2-4.4,10.3-2.6c2.3-1.9,2.9-5,4.3-7.3c2.5-4.1,4.4-8.1,6.7-12.3c2.6-4.7,6.2-9.6,7.8-14.8c1.8-5.6,0.4-5.3,5.9-8.9
		c12.2-8.1,25.6-21.3,20.8-37.7c-1.5-5-5-9.9-8.8-13.2"/>
	<path class="st5" d="M-29,417.7c-1.4,1.2-2.9,2.5-4.3,3.8c5.6-3.7,7.5-5.8,11.7-8.4C-24.1,414.3-26.6,415.7-29,417.7z"/>
	<path class="st6" d="M77.7,463.2c-2.2-6.6-3.6-12.9-5.9-19c-0.1,0.1-0.1,0.3-0.2,0.3c-8,4.3-17.9,4.4-25.8,9
		c-3,1.7-4.1,3.6-7.5,2.7c-2-0.6-2.5-2.8-5.1-3.2c-1.5-0.3-2.9,0.7-4.4,0.9c-4.7,0.5-10.2,1.2-15,0.6c-3.8-0.5-4.4-1.5-7.6-3.9
		c-3.3-2.6-1.9-1.3-5.7-1.7c-4.5-0.4-8-1.1-6.7-6.7c-10.4-1.1,2.6-10.2,2.9-11.3c0.9-4.3-14.6-9.5-18.4-9.8
		c-4.3-0.3-3.6,2.4-6.5,3.8c-3.3,1.6-9.4,16.1-13.3,16.2c-5.2,0.1-17.9,20.1-18.5,12.4c0-0.3,0-0.6,0.1-0.9
		c-6.2,9.7-9.1,19.7-7.7,32.8c0.6,5.6,3.3,10.3,2.9,16.1c-0.4,6.5,2.5,18.7,5.6,19.8c5,1.8,10.3,4.2,15.5,5.5
		c9.9,2.5,21.4,3.1,31.5,2.5c15.5-0.9,30.9,2,46.3,1.4c13.8-0.5,22.9-5.3,33.9-13c6-4.2,6.4-3.6,6.8-11.3C75,496,76,486,78.2,475.8
		C79.5,469.8,79.5,468.7,77.7,463.2z"/>
	<path class="st7" d="M-60.1,453.5c0.6,7.7,13.3-12.3,18.5-12.4c4-0.1,10.1-14.6,13.3-16.2c2.9-1.5,2.2-4.1,6.5-3.8
		c3.8,0.2,19.3,5.5,18.4,9.8c-0.3,1.1-13.3,10.2-2.9,11.3c-1.3,5.6,2.3,6.3,6.7,6.7c3.9,0.3,2.4-0.9,5.7,1.7
		c3.1,2.4,3.7,3.4,7.6,3.9c4.7,0.6,10.3,0,15-0.6c1.5-0.2,2.9-1.1,4.4-0.9c2.6,0.4,3.2,2.6,5.1,3.2c3.5,0.9,4.5-0.9,7.5-2.7
		c7.9-4.6,17.9-4.7,25.8-9c0.1-0.1,0.2-0.2,0.2-0.3c-1.6-4.2-3.6-8.2-6.6-12c-9-11.3-19.3-23.4-30.7-32.4c-13-10.3-33.8,2.4-46.7,9
		c-3.3,1.7-6.4,2.9-9.4,4.2c-4.2,2.6-6.2,4.7-11.7,8.4c-6.8,6.3-13.1,13.6-19,20.7c-3,3.5-5.6,7-7.8,10.5
		C-60.1,453-60.2,453.3-60.1,453.5z"/>
	<path class="st7" d="M60.3,447.6c11,3.3,4.3,7.2,4.3,7.2s-12.4,11.9-7.2,12.4s3.8,7.2,9.1,6.2c5.2-0.9,21.5-2.9,21.5-2.9
		s6.7-4.8,9.5-4.3c2.9,0.5,5.7-1.4,7.6,2.9c1.9,4.3,11.5,7.2,15.3,7.6c3.8,0.5,4.3-5.7,8.6-4.8c-6.9-12.8-30-29.6-30-29.6l-11-7.6
		l-35.3,6.2c0,0-2.9,2.2-7.3,5.5c-0.1,0.1-0.2,0.1-0.3,0.2C48.5,445.9,54,445.6,60.3,447.6z"/>
	<path class="st5" d="M129.5,472.8c-0.2-0.3-0.3-0.6-0.5-0.9c-4.3-0.9-4.8,5.2-8.6,4.8c-3.8-0.5-13.3-3.3-15.3-7.6
		c-1.9-4.3-4.8-2.4-7.6-2.9s-9.5,4.3-9.5,4.3s-16.2,1.9-21.5,2.9c-5.2,0.9-3.8-5.7-9.1-6.2c-5.2-0.5,7.2-12.4,7.2-12.4
		s6.7-3.8-4.3-7.2c-6.4-1.9-11.8-1.6-15.2-1c-12,8.9-34.6,25.7-40.1,29.2c-7.6,4.8-7.6,52.5-7.6,52.5c3.3,15.3,102.5,7.2,102.5,7.2
		s46.2-4.3,46-16.2C145.7,507.3,135.7,485.7,129.5,472.8z"/>
	<path class="st8" d="M1340.9,511.5l-45.8,8.1c0,0-8.6,4.8-7.6,1.9c0.9-2.9-8.1-3.3-8.1-3.3s-29.6,10-31.5,6.2
		c-2.8-5.5-10.8-22.6-14.3-19.1c-5.2,5.2,0.5,17.2,0.5,17.2h-4.3H1214v-6.7h-14.8l-14.3,8.1c0,0-10,7.2-42.5,4.3
		c-32.4-2.9-7.6-2.4-10.5-5.7c-2.9-3.3-8.6,0-8.6-4.3s19.1-25.7,19.1-25.7s0.9-10-27.7-11c-28.6-0.9-118.3,37.7-118.3,37.7H878.3
		l-5.7,9.1l-23.8-4.3l-8.1-0.9l-20,5.2l-21.9-2.9l-7.2-6.2c0,0-8.6-5.2-13.8-4.8s0,8.6,0,8.6l-10-3.8v9.1h-27.2c0,0-1.4-20-8.6-18.1
		c-7.1,1.9-7.2,9.5-7.2,9.5h-56.3c10.5-21.5-21.9-22.4-21.9-22.4c-14.3-2.9-49.1,14.3-49.1,14.3l-45.8,8.1c0,0-8.6,14.8-7.6,11
		c0.9-3.8-0.9-6.2,0-9.1c0.9-2.9-8.1-3.3-8.1-3.3l-5.7,10.5c0,0-25.3,3.8-27.2,0c-1.9-3.8,10-12.9,10-12.9s-14.3-15.7-19.6-10.5
		c-5.2,5.2,5.7,17.2,5.7,17.2h-12.9h-15.7v-6.7h-14.8l-14.3,8.1c0,0-10,7.2-42.5,4.3c-32.4-2.9-7.6-2.4-10.5-5.7
		c-2.9-3.3-8.6,0-8.6-4.3c0-4.3-126.8,0.9-126.8,0.9H134.7l-5.7,9.1l-23.8-4.3l-8.1-0.9l-20,5.2l-21.9-2.9l-7.2-6.2
		c0,0-8.6-5.2-13.8-4.8c-5.2,0.5,0,8.6,0,8.6l-10-3.8v9.1H-3.1c0,0-1.4-20-8.6-18.1c-7.1,1.9-7.2,9.5-7.2,9.5h-56.3v94.2H1390v-94.4
		C1375.7,516.5,1340.9,511.5,1340.9,511.5z"/>
	<rect x="-74.9" y="563.7" class="st9" width="1465.4" height="50.1"/>
	<path class="st3" d="M482.2,395.3c3.7,12.2-24.4,6.5-18.2-4.6c-7.5-0.6-15.7,0.8-22.6-1.3c0.2-5.4,6.7-5.9,9.4-10.1
		c-7.1-4.2-14.3-4.4-20.9-8.7c-4.9-3.2-9.2-13.4-13.6-15.2c-7.9-3.3-24,7.5-26.4-9.5c1.8-0.3,3.5-1.5,5.4-1.4
		c-4.9-1.2-11.8-2.4-12.1-8.2c13-1,7.5-6.3,5.7-13.6c-3.2-13,0.9-25.6,7.3-36.9c-3.7-0.6-7.7-0.7-11.1-2.3c5.4-5.4,14.9-8.9,20-14
		c-7.7-8.4-12.1-7.7-2.3-13.6c5.2-3.1,14.3-6.2,20.3-6.7c-1.3-8.3,6.6-12.8,13.3-7.8c0-6.1,6.1-9.7,10.6-13.3
		c-4.2-1.3-11.4-4-8.6-9.3c2.4-4.4,9.4-2.4,13.3-3.7c-0.5-1.1-0.3-3.6-0.8-4.7c12.3,1.1,13.6-7.8,19-18.2c5.1-9.7,6-9.5,15.2-14.3
		c2.5-1.3,5.7-1.7,7.7-3.7c-6.9-3.8-9.5-11.1-0.8-14.8c5.3-2.3,9.7,2,15,1.4c8.7-1,18.6-9.7,27.4-12.5c13.3-4.2,26.6-0.1,40.1,0
		c25.4,0.2,47.9,6.4,71.3,15.4c16.8,6.4,29.6,23.2,27.3,40.8c8.9,4.5,16.4-4.1,19.8,12.3c0.7,3.1,0,14.1-1.8,16.3
		c12.4-0.4,22.7,17.4,13.5,26.8c0.8,0.7,1.7,1.5,2.5,2.2c-1.2,3.3-3.7,5.8-6.9,7.5c7.9,4.3,8.5,14.4,9,22.5c1.9-1.4,6.5-1.5,8.4-2.7
		c5.8,8.5,4.6,39.5-7.8,43.7c3.9,3.8,3.4,9.2,0.3,13.8c9.1,7.7,4.8,11.3-0.7,19.5c-10.6,15.8-13.8,21.7-34.3,18.4
		c-10.7,24.4-23.9,14.8-43.7,14.6c-10.3-0.1-20.9-2.4-31-2.5c-3.4,0-5.7,0.8-9.3,1.2c-4.6,0.5-15.3,0.1-13.6-1.4
		c-4.3,4.2-12.7-2.1-17.1-5.1c-1,6.9-13.7,11.5-20,11.5c-5.5,0-7.5-4.1-12.2-4.8c-3.3-0.5-7.3,1.4-10.7,0.8
		c-4.2-0.7-6.1-5.3-9.6-5.6c-1.1-0.1-8.3,2.8-9,2.9c-7.4,1.6-13.8,0.7-20.7-1.9C480.9,394.7,483.5,395.3,482.2,395.3z"/>
	<polygon class="st10" points="-74.4,598.7 45.3,598.7 43.6,594.3 -74.4,594.3 	"/>
	<polygon class="st10" points="272.5,594.3 137.6,594.3 135,598.7 274.3,598.7 	"/>
	<polygon class="st10" points="491.9,594.3 356.9,594.3 354.3,598.7 493.7,598.7 	"/>
	<rect x="-74.9" y="550.1" class="st11" width="715.9" height="13.6"/>
	<rect x="-74.9" y="543.2" class="st12" width="715.9" height="6.7"/>
	<polygon class="st10" points="720.9,594.3 585.9,594.3 583.3,598.7 722.6,598.7 	"/>
	<polygon class="st10" points="1259.8,594.8 1124.8,594.8 1122.2,599.2 1261.5,599.2 	"/>
	<polygon class="st10" points="1389.4,594.3 1353.7,594.3 1351.1,598.7 1389.4,598.7 	"/>
	<g>
		<polygon class="st10" points="1045.1,565.2 796.4,565.2 791.5,569.7 1048.3,569.7 		"/>
		<polygon class="st10" points="779.8,580.4 1056.2,580.4 1051.9,574.5 786.2,574.5 		"/>
		<polygon class="st10" points="768.9,590.4 1063.5,590.4 1059.3,584.6 775.2,584.6 		"/>
		<polygon class="st10" points="753.1,604.8 1074.1,604.8 1067,595.2 763.6,595.2 		"/>
		<polygon class="st10" points="1080.8,614 1077.9,609.9 747.5,609.9 743.1,614 		"/>
	</g>
	<line class="st13" x1="-18.4" y1="549.9" x2="-18.4" y2="563.4"/>
	<line class="st13" x1="129.5" y1="549.9" x2="129.5" y2="563.4"/>
	<line class="st13" x1="267.8" y1="549.9" x2="267.8" y2="563.4"/>
	<g>
		<path class="st14" d="M879.1,461.4c-0.3,0-1.1,0-1.4,0c-1,1.1-2.1,2-2.9,3.3c-2.4-1-7.9-0.8-8.5,2.2c-3.4,0.3-20.2,3.5-17.4,9.3
			c-9.9-6.7-6.4,9.5-15,10.5c-0.2,2.1-0.9,3.7-1.7,5.6c-0.8-0.2-1.7,0.2-2.5-0.1c-1.3,9.8,0.5,7.1,7.3,10.2
			c-2.6,2.2-5.3,5.8-4.6,9.4c0.5,0,1.1,0.1,1.6,0.2c-8.8,9.5,8.8,12.9,14.8,13.8c-1.6,1.6-0.8,1.7-1.2,3.5
			c13.7,3.3,28.6-0.2,40.9-2.2c1.6,4.4,6.7,0.4,7.7-2.5c0.9,1.8,2.5,3.2,4.4,2.4c-0.8,4.4,5,0,6.7-0.5c8-2.3,9.7,3,10.5-6.6
			c2,0,4.1,0.1,6.1-0.2c0.2-3.5,0-6.2,1-8.5c0.4-1,1.8-1,2.4-2.7c0.1-0.3-1.2-3-1.4-3.4c8.7-3.9,0.4-5.7-3.4-9.2
			c1.1-3.1,0.8-6.2-3.2-5.3c4.9-6.9-6-6.8-7.8-9.1c-0.9-1.2,0.7-3.2-1.1-4.6c-0.9-0.7-4.5-0.1-5.6,0c-3.8,0.2-7,1.5-7.1-3.8
			c-1.1,0.4-2.7,0.2-3.8,0.9c0.3-1.3-0.3-2.9-0.1-4.2c-0.9,0.3-2.2-0.1-3.2,0.4c0.7-5-3.5-8.1-6.2-2.8
			C886.1,461.5,883.4,461.8,879.1,461.4z"/>
		<path class="st14" d="M908.6,500.5c-1-1.1-2.6-1.4-4.2-0.9c0,1.7,1,2.7,2.7,3.3c-4.6,2.6,0.9,1.9,1.8,2.8c1.9,2,2.7,6.5,6.4,3.4"
			/>
		<path class="st14" d="M873.3,512.4c-3.2,0-14.4,0.4-9.9-5.4c3.4,3.3-4.1,5.9-7.1,5.2c-0.3-2.1-0.7-4.6,0.8-6.1
			c-2.4-0.6-6.3-2-3.9-4.6"/>
	</g>
	<line class="st13" x1="406.1" y1="549.9" x2="406.1" y2="563.4"/>
	<line class="st13" x1="544.4" y1="549.9" x2="544.4" y2="563.4"/>
	<rect x="641" y="550.1" class="st11" width="749.3" height="13.6"/>
	<rect x="641" y="543.2" class="st12" width="749.3" height="6.7"/>
	<line class="st13" x1="697.5" y1="549.9" x2="697.5" y2="563.4"/>
	<line class="st13" x1="845.3" y1="549.9" x2="845.3" y2="563.4"/>
	<line class="st13" x1="983.7" y1="549.9" x2="983.7" y2="563.4"/>
	<line class="st13" x1="1122" y1="549.9" x2="1122" y2="563.4"/>
	<line class="st13" x1="1260.3" y1="549.9" x2="1260.3" y2="563.4"/>
	<line class="st13" x1="1379.5" y1="549.9" x2="1379.5" y2="563.4"/>
	<path class="st13" d="M617.1,516c-0.3,1.7-1.7,3.7-2.4,5.7c2.8,0.3,5.6-0.6,8.1-0.2c0,0.8,0.1,1.6,0.1,2.4c0.7,0.2,1.1,0,1.9-0.3"
		/>
	<path class="st13" d="M816.5,533.3c-0.9,1.5-3.3,0.4-4.3-1c-1-1.5-1.8-3.4-3.5-3.7c-1.5-0.3-3.8,0.3-4.1-1.2
		c-0.1-0.6,0.3-1.1,0.4-1.7c0.6-2.1-2-3.5-4-4.5c-2-0.9-4-3.5-2.4-4.9c0.4-0.4,1-0.6,1.4-1c1.5-1.7-1.7-4.8-0.1-6.4
		c0.5-0.5,1.3-0.5,1.9-0.9c2.4-1.3,1-5,1.5-7.7c0.5-3,4.3-5,7.1-3.7"/>
	<path class="st15" d="M790.5,432.8c0.5,0,1.7,0,2.1,0c1.4,1.7,3.2,3,4.3,5c3.6-1.5,11.8-1.2,12.8,3.3c5.1,0.4,30.3,5.3,26.1,14
		c14.9-10,9.6,14.2,22.5,15.7c0.2,3.1,1.3,5.5,2.5,8.4c1.1-0.3,2.6,0.3,3.7-0.1c1.9,14.7-0.8,10.7-11,15.3c4,3.3,8,8.7,7,14.1
		c-0.8,0-1.6,0.1-2.4,0.3c13.2,14.2-13.3,19.3-22.3,20.8c2.4,2.4,1.3,2.6,1.7,5.3c-20.5,4.9-43-0.3-61.4-3.2
		c-2.4,6.6-10,0.6-11.6-3.8c-1.4,2.7-3.7,4.8-6.5,3.5c1.2,6.6-7.5,0-10-0.8c-12-3.4-14.5,4.5-15.7-10c-3,0-6.2,0.2-9.1-0.3
		c-0.3-5.2,0-9.4-1.5-12.7c-0.7-1.5-2.7-1.5-3.6-4c-0.2-0.5,1.8-4.5,2.1-5c-13-5.8-0.7-8.5,5.1-13.8c-1.6-4.7-1.2-9.3,4.8-7.9
		c-7.4-10.3,9-10.1,11.6-13.6c1.4-1.8-1.1-4.9,1.6-6.9c1.4-1.1,6.8-0.1,8.4,0c5.7,0.3,10.5,2.3,10.7-5.7c1.7,0.6,4.1,0.3,5.8,1.4
		c-0.4-2,0.4-4.4,0.1-6.4c1.4,0.5,3.3-0.1,4.8,0.6c-1-7.5,5.2-12.1,9.4-4.2C780,432.9,784.1,433.5,790.5,432.8z"/>
	<path class="st13" d="M784.8,453.5c-3.3,0-6.7-0.1-9.9,0.1c-0.3,3.7,3.7,4.6,6.8,4.5c-2.2,3.4-6,5.5-8.9,8.2
		c2.5,0.1,5.1,0.1,7.6,0.2c-3,3.8-9.7,10.2-2.6,11.4c4.1,0.7,7.3-2.5,9.7-5.5c3.5,3,17.6,9.1,19.5,3.3"/>
	<path class="st13" d="M833.4,491.4c-1.6-1.7-3.9-2.1-6.3-1.4c0,2.5,1.5,4.1,4,5c-6.9,3.9,1.4,2.8,2.8,4.2c2.9,3,4.1,9.8,9.6,5.1"/>
	<path class="st13" d="M780.5,509.3c-4.9,0-21.7,0.7-14.9-8.1c5.1,4.9-6.2,8.8-10.6,7.8c-0.5-3.2-1-6.9,1.3-9.2
		c-3.7-0.8-9.5-3-5.8-7"/>
	<g>
		<path class="st7" d="M558.9,491.8c-4.2,1.6-1.7,3.5-1.7,3.5s4.8,5.7,2.8,6c-2,0.2-1.5,3.5-3.5,3s-8.3-1.4-8.3-1.4
			s-2.6-2.3-3.7-2.1c-1.1,0.2-2.2-0.7-3,1.4c-0.8,2.1-4.4,3.5-5.9,3.7c-1.5,0.2-1.7-2.8-3.3-2.3c2.7-6.2,11.6-14.3,11.6-14.3
			l4.2-3.7l13.7,3c0,0,1.1,1.1,2.8,2.6c0,0,0.1,0.1,0.1,0.1C563.5,491,561.4,490.9,558.9,491.8z"/>
		<path class="st5" d="M532.1,504c0.1-0.2,0.1-0.3,0.2-0.5c1.7-0.4,1.9,2.5,3.3,2.3c1.5-0.2,5.2-1.6,5.9-3.7c0.8-2.1,1.9-1.2,3-1.4
			c1.1-0.2,3.7,2.1,3.7,2.1s6.3,0.9,8.3,1.4s1.5-2.8,3.5-3c2-0.2-2.8-6-2.8-6s-2.6-1.9,1.7-3.5c2.5-0.9,4.6-0.8,5.9-0.5
			c4.6,4.3,13.4,12.4,15.5,14.1c2.3,1.8,2.8,16,2.9,22.3c0,1.9-1.4,3-1.4,3c-0.6,3.2-4.5,3.9-10.5,3.8c-6.1-0.2-12.9-1.2-16.7-1.5
			c-1.1-0.1-11.1,1.2-11.1,1.2s-14.4-5.5-14.3-11.3C529.4,517.1,529.8,510.2,532.1,504z"/>
	</g>
	<path class="st13" d="M529.9,191.2c-3.3,6.4-29.3,17.2-34.5,10c-5.4-7.5,7.3-20.4,12.2-25c-9,0.9-14.9,0-18.5-5.2"/>
	<path class="st13" d="M496.5,226.5c-13.4,16.9,4.7,18.3,15.3,7c0.6,7.5,12.2,2.8,15.2-1.3"/>
	<path class="st13" d="M582.3,194.1c-1.5,4.3-4.1,8.3-3.7,13.2c5.6,0.5,7.9-5.2,8.6-10.3c5.3,4.9,29.1,21.7,27.6,1.9
		c6.2,5.3,16.5,12.8,18.9-1"/>
	<path class="st13" d="M590,248.4c5.6,6.9,20.8,22.8,30.1,14c7-6.7-2.1-12.4-4.3-19.7c11.2,8.2,26.2,4.6,11.4-9.5"/>
	<path class="st13" d="M590,339c1.7,2.6,7.2,10.2,11.4,3.8c8.7,9.9,20.8,9,20.3-5.7c9.9,10.3,26.3-3.6,28.6-14.6
		c1.6-7.5,2.6-6.7-4.1-9.2c-4.1-1.6-12.1,0-16.1,0.9"/>
	<path class="st13" d="M558.5,318.1c-5.6,4.7-7.9-2.3-7.8-7.3c-1.3,2.8-8.4,9.1-12,6.3c-7.2-5.7,8.8-16.3,12.2-18"/>
	<path class="st13" d="M449.7,283.7c-4.5,2.1-9.7,5.6-8.4,11.3c4.5,1.4,9.1,0.1,13.1,1c4.6,1.1,6.6,8.1,13.5,1"/>
	<path class="st13" d="M465,329.5c-10.7,8.3,10,16.2,17.9,9.6c-0.3,9.9,13.7,20.2,20,9.5c6.4,13.7,16.4,3.5,20.3-5.8"/>
	<path class="st13" d="M460.2,356.2c0.1-0.1-1.9,0.8-3.6,0.8c-1.8-9.1-13.2,4-18.5-3.6c1-1.7,2.2-2,4-2.9"/>
	<g>
		<path class="st13" d="M513.4,536.3c-0.6,1-2.2,0.3-2.9-0.7s-1.2-2.3-2.4-2.5c-1-0.2-2.5,0.2-2.7-0.8c-0.1-0.4,0.2-0.8,0.3-1.1
			c0.4-1.4-1.3-2.4-2.6-3c-1.3-0.6-2.7-2.3-1.6-3.3c0.3-0.3,0.7-0.4,0.9-0.7c1-1.1-1.1-3.2-0.1-4.3c0.3-0.3,0.8-0.4,1.3-0.6
			c1.6-0.8,0.7-3.3,1-5.1c0.3-2,2.9-3.4,4.7-2.5"/>
		<path class="st15" d="M496,469c0.3,0,1.1,0,1.4,0c1,1.1,2.1,2,2.9,3.4c2.4-1,7.9-0.8,8.6,2.2c3.4,0.3,20.3,3.6,17.5,9.4
			c10-6.7,6.4,9.5,15.1,10.5c0.2,2.1,0.9,3.7,1.7,5.7c0.8-0.2,1.7,0.2,2.5-0.1c1.3,9.8-0.5,7.1-7.4,10.3c2.6,2.2,5.4,5.8,4.7,9.5
			c-0.5,0-1.1,0.1-1.6,0.2c8.8,9.5-8.9,12.9-14.9,13.9c1.6,1.6,0.8,1.7,1.2,3.6c-13.7,3.3-28.8-0.2-41.1-2.2
			c-1.6,4.4-6.7,0.4-7.8-2.5c-0.9,1.8-2.5,3.2-4.4,2.4c0.8,4.4-5,0-6.7-0.5c-8-2.3-9.7,3-10.5-6.7c-2,0-4.2,0.1-6.1-0.2
			c-0.2-3.5,0-6.2-1-8.5c-0.4-1-1.8-1-2.4-2.7c-0.1-0.3,1.2-3,1.4-3.4c-8.7-3.9-0.4-5.7,3.4-9.2c-1.1-3.1-0.8-6.2,3.2-5.3
			c-5-6.9,6-6.8,7.8-9.1c0.9-1.2-0.7-3.3,1.1-4.6c0.9-0.7,4.5-0.1,5.6,0c3.8,0.2,7,1.6,7.2-3.9c1.1,0.4,2.7,0.2,3.9,0.9
			c-0.3-1.3,0.3-3,0.1-4.3c0.9,0.3,2.2-0.1,3.2,0.4c-0.7-5,3.5-8.1,6.3-2.8C489,469.1,491.8,469.5,496,469z"/>
		<path class="st13" d="M492.2,482.9c-2.2,0-4.5,0-6.6,0.1c-0.2,2.5,2.4,3.1,4.5,3c-1.5,2.3-4,3.7-5.9,5.5c1.7,0.1,3.4,0.1,5.1,0.1
			c-2,2.5-6.5,6.8-1.7,7.6c2.8,0.4,4.9-1.7,6.5-3.7c2.4,2,11.8,6.1,13.1,2.2"/>
		<path class="st13" d="M524.8,508.3c-1-1.1-2.6-1.4-4.2-0.9c0,1.7,1,2.7,2.7,3.3c-4.6,2.6,0.9,1.9,1.9,2.8c1.9,2,2.8,6.5,6.4,3.4"
			/>
		<path class="st13" d="M489.4,520.3c-3.3,0-14.5,0.4-10-5.4c3.4,3.3-4.1,5.9-7.1,5.2c-0.3-2.1-0.7-4.6,0.8-6.2
			c-2.4-0.6-6.4-2-3.9-4.7"/>
	</g>
</g>
</svg>
