<?xml version="1.0" encoding="utf-8"?>
<!-- Generator: Adobe Illustrator 21.0.0, SVG Export Plug-In . SVG Version: 6.00 Build 0)  -->
<svg version="1.1" id="Capa_1" xmlns="http://www.w3.org/2000/svg" xmlns:xlink="http://www.w3.org/1999/xlink" x="0px" y="0px"
	 viewBox="0 0 1319 1952" style="enable-background:new 0 0 1319 1952;" xml:space="preserve">
<style type="text/css">
	.st0{clip-path:url(#SVGID_2_);fill:#FFBE9E;}
	.st1{clip-path:url(#SVGID_2_);}
	.st2{fill:#A07B67;stroke:#643527;stroke-width:4;stroke-miterlimit:10;}
	.st3{fill:#B38F79;stroke:#643527;stroke-width:4;stroke-linejoin:bevel;stroke-miterlimit:10;}
	.st4{fill:#A07B67;stroke:#643527;stroke-width:4;stroke-linejoin:bevel;stroke-miterlimit:10;}
	.st5{fill:#DABBA6;stroke:#643527;stroke-width:4;stroke-linejoin:bevel;stroke-miterlimit:10;}
	.st6{fill:#DABBA6;stroke:#643527;stroke-width:4;stroke-miterlimit:10;}
	.st7{fill:#F4DBA4;stroke:#643527;stroke-width:5;stroke-miterlimit:10;}
	.st8{fill:#F4DBA4;}
	.st9{fill:#FFB38A;stroke:#643527;stroke-width:5;stroke-miterlimit:10;}
	.st10{fill:none;stroke:#643527;stroke-width:5;stroke-linecap:round;stroke-linejoin:round;stroke-miterlimit:10;}
	.st11{fill:#8E5F52;}
	.st12{fill:#FFBE9E;}
	.st13{fill:#8E5F52;stroke:#643527;stroke-width:5;stroke-miterlimit:10;}
	.st14{fill:#643527;}
	.st15{fill:#FFC25E;}
	.st16{fill:#FEDC72;stroke:#643527;stroke-width:5;stroke-miterlimit:10;}
	.st17{fill:#FEDC72;}
	.st18{fill:#F4C551;}
	.st19{fill:#FEBDC5;}
	.st20{fill:#FFE7A8;stroke:#643527;stroke-width:5;stroke-miterlimit:10;}
	.st21{fill:#FFE7A8;}
	.st22{fill:#FFC25E;stroke:#643527;stroke-width:5;stroke-linecap:round;stroke-linejoin:round;stroke-miterlimit:10;}
	.st23{fill:none;stroke:#643527;stroke-width:23;stroke-linecap:round;stroke-linejoin:round;stroke-miterlimit:10;}
	.st24{fill:#FFD1AE;}
	.st25{fill:#FCD8CA;}
	.st26{fill:#FFF3E1;}
	.st27{fill:#EDB188;}
	.st28{clip-path:url(#SVGID_2_);fill:none;}
</style>
<g>
	<defs>
		<polygon id="SVGID_1_" points="1172.3,1.8 1025.6,1.8 878.9,1.8 732.3,1.8 585.6,1.8 438.9,1.8 292.2,1.8 292.2,3.2 146.7,3.2 
			0,3.2 0,1950.2 146.7,1950.2 293.4,1950.2 293.4,1948.8 438.9,1948.8 585.6,1948.8 732.3,1948.8 878.9,1948.8 1025.6,1948.8 
			1172.3,1948.8 1319,1948.8 1319,1.8 		"/>
	</defs>
	<clipPath id="SVGID_2_">
		<use xlink:href="#SVGID_1_"  style="overflow:visible;"/>
	</clipPath>
	<polygon class="st0" points="1172.3,1.8 1025.6,1.8 878.9,1.8 732.3,1.8 585.6,1.8 438.9,1.8 292.2,1.8 292.2,3.2 146.7,3.2 0,3.2 
		0,1950.2 146.7,1950.2 293.4,1950.2 293.4,1948.8 438.9,1948.8 585.6,1948.8 732.3,1948.8 878.9,1948.8 1025.6,1948.8 
		1172.3,1948.8 1319,1948.8 1319,1.8 	"/>
	<g class="st1">
		<g>
			<polygon class="st2" points="201.7,873.5 1056,874.6 1158.7,1476 124.2,1474.7 			"/>
			<polygon class="st3" points="109.6,1584.3 70.7,1402.5 168.9,690.5 202.4,876.4 			"/>
			<polygon class="st3" points="1151.6,1594.9 1195,1406.5 1139.7,700 1056.6,877.5 			"/>
			<polygon class="st4" points="1058,874.6 201,873.5 167.8,692.2 1139.7,700 			"/>
			<polygon class="st5" points="108.9,854.7 169.1,692.2 69.6,1406.6 0.1,1566.5 			"/>
			<polygon class="st5" points="1189.7,860.6 1139.7,704 1193.9,1413.9 1253.1,1577.9 			"/>
		</g>
		<polygon class="st6" points="1150.6,1600 105.3,1598.7 69.6,1406.6 1193.5,1414.7 		"/>
		<path class="st7" d="M1195.5,735.8c0,0,60.8,131.3-70.8,177.2c-174.5,60.8-405.2-63.7-405.2-63.7S528,819.2,661.1,573.1
			c0,0,13.2-200.2,306.1-159.1C1250.3,453.8,1195.5,735.8,1195.5,735.8z"/>
		<g>
			<g>
				<path class="st8" d="M674.8,885.9c-33.8-28.7-71-67-61.3-110.2c2.7-12,10.5-24.2,22.6-26.7c8.6-1.8,17.4,1.8,25.5,5.2
					c143.4,61.3,285.5,125.8,426,193.5c24.1,11.6,52,29.3,50.8,56c-0.5,11.8-7.1,22.5-14,32.1c-21.4,29.8-48.7,55.4-79.9,74.8
					c-11,6.9-23.1,13.2-36.1,13.6c-20,0.6-37.6-12.6-53-25.4c-101.5-84.4-196.5-182.2-318.8-231.7"/>
			</g>
		</g>
		<g>
			<path class="st9" d="M950.4,789.5c6,26.4-7.3,52-29.7,57.1c-49.8,11.4-44.3-90.5-21.9-95.7C921.3,745.9,944.4,763.1,950.4,789.5z
				"/>
			<path class="st10" d="M920,811.4c5.9-20-2.1-39.8-17.8-44.5"/>
		</g>
		<path class="st11" d="M866.5,582.5c-4.6,12.9-18.2,18.3-33,16c-2.2-0.3-52-17.6-54.3-18.4c-3.7-1.3-7.7-1.4-10.6-3.6
			c-10.5-7.9-15.5-20.9-11.4-32.5c4.3-12.2,16.5-17.4,30.4-16.4c3.1,0.2,6.9-0.8,10,0.3c4,1.4,54.5,21.9,57.5,24.3
			C865.3,560.2,870.5,571.1,866.5,582.5z"/>
		<g>
			
				<ellipse transform="matrix(0.1642 -0.9864 0.9864 0.1642 -66.9189 1308.6504)" class="st12" cx="738.8" cy="693.8" rx="20.1" ry="38.7"/>
			
				<ellipse transform="matrix(0.3142 -0.9493 0.9493 0.3142 0.2941 1575.1816)" class="st12" cx="1090.5" cy="787.4" rx="20.9" ry="38.7"/>
		</g>
		
			<ellipse transform="matrix(0.1071 -0.9942 0.9942 0.1071 103.2102 1568.0929)" class="st13" cx="924.7" cy="726.6" rx="75.4" ry="94.3"/>
		<path class="st14" d="M888.1,710.7l1.9-10.6c1.6-8.7,12.4-12.8,21.1-11.2l38.1,8.2c8.7,1.6,15.1,7.3,13.5,16.1l-1.9,10.6
			C946.6,749.8,887.2,731,888.1,710.7z"/>
		<path class="st10" d="M1005.9,1126.6c41-17.5,64.9-30.4,64.9-30.4s156.1-117.2,69.3-128.8"/>
		<path class="st11" d="M1135,670.5c-5.2,12.3-18,17.1-31.4,14.4c-2-0.4-46.2-18.6-48.2-19.5c-3.3-1.4-6.9-1.6-9.4-3.8
			c-9-8-12.6-20.6-7.9-31.7c4.8-11.6,16.4-16.3,29-14.8c2.8,0.3,6.4-0.6,9.1,0.6c3.5,1.5,48.1,22.8,50.7,25.2
			C1135.5,649,1139.5,659.6,1135,670.5z"/>
		<path class="st13" d="M733.9,407.2c-9-1.5-18.2,0.1-27.2,1.1c-16.2,1.8-32.6,1.6-48.8-0.5c-24.6-3.3-53.3-9.9-71.3,7
			c-15.7,14.7-14.4,39.8-9.3,60.7c5.2,20.9,13,42.6,6.8,63.2c-4.6,15-16.4,30.7-9,44.6c7.1,13.2,25.8,12.9,40.6,10.9
			c46.2-6.4,96.6-15.1,127-50.5c25.9-30.2,27.9-70.2,31.5-109.9C774.2,433.8,750.2,410,733.9,407.2z"/>
		<path class="st13" d="M1211,520.4c8.5,3.3,15.5,9.4,22.8,14.9c13,9.9,27.2,18.1,42.2,24.6c22.8,9.8,50.8,18.7,57.7,42.6
			c5.9,20.7-8,41.6-23.1,56.9c-15.1,15.3-33.1,29.9-38.2,50.8c-3.8,15.2-1.7,34.8-15.1,42.9c-12.8,7.7-28.8-2.1-40.4-11.5
			c-36.4-29.2-75.3-62.5-83.2-108.5c-6.8-39.3,12-74.6,29.2-110.5C1162.8,522.6,1195.6,514.4,1211,520.4z"/>
		<path class="st14" d="M1102.1,724.6c-3.4,7.2-11,9.8-18.6,8c-1.2-0.3-26-11.8-27.1-12.3c-1.8-0.9-3.9-1-5.3-2.4
			c-4.9-4.9-6.5-12.4-3.5-18.9c3.2-6.8,10-9.4,17.2-8.3c1.6,0.2,3.7-0.2,5.3,0.5c2,0.9,26.9,14.3,28.4,15.8
			C1103.1,711.9,1105.1,718.2,1102.1,724.6z"/>
		<path class="st14" d="M819.4,644.7c-1.2,7.9-9.1,12.3-18.7,12.5c-1.4,0-34.8-5-36.3-5.3c-2.5-0.4-5,0-7.1-1
			c-7.6-3.5-12.3-10.5-11.2-17.6c1.2-7.4,8.1-11.7,16.9-12.4c2-0.2,4.2-1.2,6.3-0.8c2.7,0.4,36.8,7.2,39.1,8.3
			C815.8,632.1,820.5,637.8,819.4,644.7z"/>
		<path class="st7" d="M977.8,928.2c0,0,163.7-47.1,173.9-9.9c0,0,51.9,6.8,50.3,32.5c-1.5,25.6,32.4,62.8-122.5,114.3"/>
		<g>
			<g>
				<path class="st14" d="M1141.5,925.1c-3.6,6.9-8.7,13.1-14.7,18.1c-2.3,1.9-5.2,3.7-8,2.8c-1.3-0.4-2.4-1.4-3.3-2.4
					c-5.9-6.4-6.8-17.5-0.7-23.7c6.1-6.2,18.7-4.3,21.4,4"/>
			</g>
			<g>
				<path class="st14" d="M1175.8,956.2c-0.6-10.5-14.8-17-23.4-11c-8.5,6.1-7.3,21.3,1.9,26.2c9.3,4.9,22.3-2.3,23.5-12.7"/>
			</g>
			<g>
				<path class="st14" d="M1165.2,981.6c-2.1,4-8.1,0.7-12.6,1c-5.4,0.4-8.6,7-7.4,12.3s5.2,9.4,9.1,13.2c1.9,1.8,4.1,3.7,6.7,3.6
					c2.3-0.1,4.1-1.9,5.7-3.5c3.5-3.6,7.3-7.5,7.9-12.5s-3.8-10.8-8.6-9.4"/>
			</g>
			<g>
				<path class="st14" d="M1136.5,968.1c0.3,7.3,0.6,14.8-1.7,21.8c-2.3,7-7.6,13.4-14.8,14.8c-6.4,1.2-12.7-1.6-18.6-4.3
					c-6.8-3.2-14.2-6.9-17.7-13.5c-5.7-10.7,0.8-23.6,7.2-34c1.4-2.3,3-4.8,5.4-5.9c3.5-1.6,7.5-0.2,11.1,1.3
					c5.5,2.3,11,4.5,16.5,6.8c4.2,1.7,8.7,3.6,11.4,7.3c2.7,3.7,2.8,9.7-1,12.2"/>
			</g>
		</g>
		<path class="st15" d="M188.9,829.9c-63.7,49.4-89.4,107-94.3,161.7c10,24.4,16.6,38.1,16.6,38.1s110.5,160.9,125.7,74.7l-1.5,16.7
			c0,0,18.3,54.2,44.3,15.6l20.9-6.5l32.4-50.5C326.2,972.8,270.6,882.6,188.9,829.9z"/>
		<path class="st10" d="M80.5,965.8c15.7,41.7,27.6,66.1,27.6,66.1s110.5,160.9,125.7,74.7"/>
		<path class="st16" d="M391.6,1473.7c0,0,67.7,95.1,86.4,77.3c0,0,29.3,17.3,37.7,1.6c8.4-15.7,37.5-17.9,18.2-72.4"/>
		<path class="st16" d="M794.2,1470.1c0,0-66,96.3-85,78.9c0,0-29,17.8-37.7,2.3c-8.7-15.5-37.9-17.2-19.5-72.1"/>
		<path class="st17" d="M1041.3,1386.2c0,0-16.9,7.9-51.8-34c-19.5-23.5-6.8-21.7-10.1-53.1c-0.9-9.7-11.3-24.5-14.6-33.3
			c21,12.2,105.4-0.3,105.4-0.3s-66.7-19.9-28.6-62.1c21.5-23.8,18-57.1,10.9-81.7l11.6-1c28.1-166.8-203.1-169.5-203.1-169.5
			c-129.6-128.6-367.5-46.6-367.5-46.6s-168.4-64.5-208.9,96.6c0,0-8.4,45-67.9,39.6c0,0-4.2,45.4,47.2,45.5
			c0,0-33.5,38.1-21.1,89.6s-39.9,14.7-39.9,14.7s25,38.1,55.4,40.9c1,0.1,0,0,0,0s6-22.6,11.6,10s-25.8,48-41.6,32.8
			c-11.5-11.1-8.9,22.9,13.7,36.9c0.3,0.2,0.6,0.3,0.8,0.5c-0.1,0.2-0.1,0.3-0.2,0.5l-0.6-1c0,0-10,39,28.2,42.5l-2.1-3.2
			c1.4,0.4,2.8,0.8,4.3,1c4.4,0.8,8.7,0.9,12.9,0.4c-1.2,19.5-1.3,33.2,22,63.2c10.5,27,38.1,48.4,72.8,54.5
			c13.8,5.8,31.2,10.1,53.1,12.1c23.2,30.3,65.3,25,118,8.3c0,0,20.4,23,60.7,36.2c0,0,15.2-41.3,139.2-27.9l6.6,9.7
			c81.6,17.1,98.2-19.5,98.2-19.5c91.8,26.7,72.2-78.3,72.2-78.3C951,1444.5,1041.3,1386.2,1041.3,1386.2z M393.3,1470.9
			c1.5-0.3,3-0.6,4.4-0.9c2.4,4.5,5.2,8.8,8.5,12.8L393.3,1470.9z"/>
		<g>
			<path class="st10" d="M1062.3,1124.7c28.2-166.8-203.8-169.6-203.8-169.6c-142.8-124.6-368.7-46.7-368.7-46.7
				s-168.9-64.5-209.5,96.6c0,0-8.4,45-68.1,39.5c0,0-4.2,45.4,47.4,45.6c0,0-33.6,38.1-21.1,89.6c12.5,51.5-40,14.6-40,14.6
				s64.1,97.5,112.5-8"/>
			<path class="st10" d="M1037.3,1092.6c0,0,40.6,72.4,2.4,114.7c-38.3,42.3,28.7,62.2,28.7,62.2s-163.9,53.7-147.3-128"/>
			<path class="st10" d="M389.6,1150c0,0-37,95.1-92.8,61.3"/>
			<path class="st10" d="M874,1116.6c0,0-15.2,71.9,39.8,81.5"/>
			<path class="st10" d="M302.7,1212.8c0,0-42,16.8-37.1,45.2c4.9,28.4-22.5,41.8-36.3,28.6s-4.3,47.5,41.6,35.7"/>
			<path class="st10" d="M241.3,1318.8c0,0-8.7,33.9,24.7,37"/>
			<path class="st10" d="M283,1333.4c0,0-24.4,61.6,45.5,115.8"/>
			<path class="st10" d="M322.5,1392.8c0,0-22.1,77.7,89.3,87.9"/>
			<path class="st10" d="M942.1,1247.3c0,0,38.7,26.5,37.7,78.2c-1,51.7,53.9,64.8,53.9,64.8s-87.5,55.8-107.2,26.1
				c0,0,12.8,104.9-67.4,81.6"/>
			<path class="st10" d="M865.6,1408.7c0,0,35.9,138.9-117.8,100.9"/>
			<path class="st10" d="M401.8,1344.3c0,0-63.6,221.5,146.2,149"/>
			<path class="st10" d="M509.1,1398c0,0-1.6,99.5,100.1,132.8c0,0,29.2-33.2,66-25.9c136.5,27.3,112.3-81.4,112.3-81.4"/>
		</g>
		<path class="st9" d="M587.1,1204.1c-18.6,26.1-15.7,60,6.5,75.8c49.1,35,89.4-78.6,67.3-94.4
			C638.7,1169.7,605.7,1178.1,587.1,1204.1z"/>
		<path class="st18" d="M550.5,1065.9c-3.4,11.3-15.8,16.2-29.9,14.5c-2.1-0.3-49.9-14.5-52-15.1c-3.6-1.1-7.3-1.1-10.2-2.9
			c-10.4-6.7-15.9-17.9-12.8-28c3.2-10.6,14.3-15.4,27.3-14.7c2.9,0.2,6.4-0.8,9.4,0.1c3.8,1.2,52.5,18.1,55.5,20.2
			C547.8,1046.5,553.5,1055.9,550.5,1065.9z"/>
		<g>
			
				<ellipse transform="matrix(0.1519 -0.9884 0.9884 0.1519 -573.4937 1870.8245)" class="st19" cx="803.4" cy="1269.6" rx="22.7" ry="45.7"/>
			
				<ellipse transform="matrix(5.707731e-02 -0.9984 0.9984 5.707731e-02 -796.1082 1583.0066)" class="st19" cx="440" cy="1213" rx="19.6" ry="45.7"/>
		</g>
		<path class="st14" d="M507,1107c0,0-73.2-2.2-89.7,4.2s-19.7,12.2-19.7,12.2s-2.9,10.3,31.8,7.5s69.6-1,69.6-1s17,2.6,18.7-8.7
			C519.5,1109.8,507,1107,507,1107z"/>
		
			<ellipse transform="matrix(0.9994 -3.451861e-02 3.451861e-02 0.9994 -40.6141 22.2282)" class="st20" cx="623.5" cy="1187.3" rx="87.3" ry="69.9"/>
		<path class="st14" d="M579.5,1177.9l1-12.7c0.8-10.4,13.1-16.5,23.5-15.7l45.8,5.1c10.4,0.8,18.6,6.9,17.8,17.3l-1,12.7
			C652.9,1217,580.8,1201.9,579.5,1177.9z"/>
		<path class="st14" d="M777.5,1140.8c0,0,56.8,20.1,67.9,30.7c11.1,10.6,10.5,20.3,10.5,20.3s-2.1,9-30.1-5
			c-28-13.9-58.2-24.5-58.2-24.5s-15.4-3.8-11.9-13.2S777.5,1140.8,777.5,1140.8z"/>
		<path class="st18" d="M850.4,1092.3c-0.4,11.8-11.1,19.7-25.1,21.6c-2.1,0.3-51.6-1.2-53.9-1.3c-3.7-0.1-7.3,0.8-10.5-0.2
			c-11.7-3.8-19.8-13.2-19.5-23.8c0.4-11.1,9.8-18.6,22.6-21.2c2.9-0.6,5.9-2.4,9.1-2.3c4,0.1,55,4.1,58.5,5.3
			C842.9,1074.3,850.8,1081.9,850.4,1092.3z"/>
		<path class="st15" d="M692.3,801.3c-1.8-5.3-3.6-10.9-5.6-16.7c-24.7-4.4-48-11.5-70.2-9.8c-22.1,0.9-42.2,5.9-64.3,11.8
			c-23.1,8.9-39.8,28.5-35.4,50.1c2.7,14.6,1.6,28,3.3,43.5l105.2,48.6c25.7,10.1,45.4,15.4,45.1,7.8l-0.3-1.7
			c0.2,0.6,0.3,1.2,0.3,1.7l0.1,0.5c0,0,22.1,13.5,25.3,1.2l0.4,0.1C696.2,938.4,742.9,954.1,692.3,801.3z"/>
		<path class="st10" d="M510.8,877.3c0,0,189.8,97.7,154.8,52.4"/>
		<path class="st10" d="M670,938.6c0,0,34.2,20.9,23.7-12.8"/>
		<path class="st15" d="M670.4,936.6c0-0.5-0.1-1.1-0.3-1.7L670.4,936.6z"/>
		<path class="st21" d="M519.9,878c43.5,20.2,72.9,35,72.9,35l-71.9-100.9c-4.1,7.5-5.8,15.9-4,24.6
			C519.4,850.6,518.6,863.4,519.9,878z"/>
		<path class="st10" d="M695.7,939.9c0,0,46.6,15.8-4-137.1c-1.9-5.7-3.9-11.6-6-17.9"/>
		<path class="st22" d="M323,409.6c0,0,98.4-46.7,234.8,22.8l101.8-66.9c0,0,108.4,6.4,8.3,191.1l18.4,15.4l-13.6,21.5
			c0,0,100.5,186.1-65.2,278.5S260,882.9,260,882.9S110.5,780.6,100.4,761l-11.3-29.7l35-28.6c0,0,3.6-71,33.7-142.2L142.6,549
			l21.3-12.8c0,0-22.8-127.2,16.9-181C180.8,355.2,159.5,332.3,323,409.6z"/>
		<line class="st23" x1="277.8" y1="731.5" x2="345.2" y2="767.1"/>
		<line class="st23" x1="617" y1="719.7" x2="577.6" y2="756.8"/>
		
			<ellipse transform="matrix(0.4856 -0.8742 0.8742 0.4856 -428.7795 656.9155)" class="st21" cx="343.8" cy="692.8" rx="24.6" ry="31"/>
		<path class="st21" d="M256.5,877.7c0,0-50.4-25.3-49.8-64c0.7-46.3,82.1-23.5,82.1-23.5s23,10.9,96.6,19.1s160.3,7.4,160.3,7.4
			s65.1-25.6,88.8-38.9c17.1-9.6,37.2-13.2,42.6-8.3c4.6,4.1,13.5,8.6-5,41.9c0,0-63.2,81.1-177.1,99.7
			C376.3,930.5,256.5,877.7,256.5,877.7z"/>
		
			<ellipse transform="matrix(0.5705 -0.8213 0.8213 0.5705 -311.0963 752.6935)" class="st21" cx="564.1" cy="673.8" rx="28" ry="24.6"/>
		<path class="st21" d="M250.9,510.2c-5.9,3.7-12.2,10.2-19.6,6.6c-3.9-1.9-21.8,40.7-25.5,38.5c-62.3-37.4-36.7-212-1.2-174.6
			c36.2,24.9,60,66.1,75.3,91.1c-6.8,0.3-14.3-2.3-19.6-6.7c-3,1.1-1.9,5.2,0.3,7.8c2.2,2.6,5.2,5.4,4.9,8.3
			c-0.4,3.8-5.9,4.7-9.8,6.3C246.8,491.1,243.9,502.6,250.9,510.2z"/>
		
			<ellipse transform="matrix(0.9974 -7.258800e-02 7.258800e-02 0.9974 -59.5386 37.2072)" class="st20" cx="482.1" cy="837.7" rx="87.3" ry="69.9"/>
		<path class="st14" d="M454.6,846.7l-1.3-12.6c-1.1-10.4,9.8-18.6,20.3-19.7l46-3.3c10.4-1.1,19.5,3.3,20.6,13.8l1.3,12.6
			C533.9,871.7,460.3,870,454.6,846.7z"/>
		<g>
			<path class="st15" d="M222.3,772.3c-25.4-121.6-165.4-53.8-165.4-53.8S-119.9,894,49,999.6S260.4,938,260.4,938
				s-138.4-44.3-98.6-38.4C204.7,906.1,232.4,820.6,222.3,772.3z"/>
			<path class="st21" d="M-21.6,885.5c0,0,2-17,11.2-14.1s5.4,41.9,40,68.5c34.6,26.5,104.8,46.2,104.8,46.2s90.9-3.6,118.2-46.7
				s7.1,0.1,7.1,0.1s-30.7,121-143.8,92.2c-19.9-5.1-42.3-14.8-67.6-30.6c-50.1-31.3-68.2-78.5-69.8-116.6L-21.6,885.5z"/>
			<path class="st10" d="M259.7,939.4c0,0-30.7,121-143.8,92.2c-19.9-5.1-42.3-14.8-67.6-30.6c-110.9-69.3-65.1-171.3-30-236
				c40-73.9,185.4-113.8,199.7,9.7c13.7,118.3-56,125.6-56,125.6"/>
		</g>
		<path class="st15" d="M225.4,906.1c0.9,34.2-4.8,66.7,46.5,73.1c16.2,2.8,25.7,4,25.7,4s123.9,3.3,85.8-23.7l7.9,4.8
			c0,0,34.6,7.6,24.7-11.1l4.7-8.7l-13.4-23.8C322.3,847.5,239.7,823.5,225.4,906.1z"/>
		<g>
			
				<ellipse transform="matrix(0.3898 -0.9209 0.9209 0.3898 -572.0961 737.0302)" class="st24" cx="270.1" cy="800.2" rx="19.6" ry="45.7"/>
			
				<ellipse transform="matrix(0.8576 -0.5143 0.5143 0.8576 -307.0341 441.4364)" class="st24" cx="643.7" cy="775.2" rx="45.7" ry="19.6"/>
		</g>
		<path class="st10" d="M238.9,872c0,0,41.7-38,107.1,5.5c46.9,31.2,88.4,69.5,67.5,75.7"/>
		<path class="st10" d="M253.4,977.4c27.2,5.2,44.1,7.4,44.1,7.4s123.9,3.3,85.8-23.7"/>
		<path class="st10" d="M388.1,964.3c0,0,36.5,8,23.8-12.7"/>
	</g>
	<g class="st1">
		<path class="st25" d="M934.5,2222.9c-38.4-68.5-109.5-190.9-112-193.4c-3.6-3.6-5.2-8.8-6.6-13.7
			c-12.2-42.2-42.3-218.6-49.7-244.3c-3.3-11.4-6.6-22.9-8.6-34.6c-6.5-38,0.8-78.1-10.7-115c-2-6.5-3.6-46.7-30-33.5
			c-10.3,5.2-1,28.8-2.9,40.2c-1.9,11.4-4.1,25.6-15.1,28.9c-21.4-4.9-33.6-28-37-49.7c-3.4-21.7-1-44.2-6.7-65.4
			c-1.7-6.4-5.1-13.4-11.5-14.9c-4.9-1.1-9.9,1.5-13.5,5c-3.3,3.2-5.8,8.3-7.5,15.2c1.3,1.4,2.4,3.1,3,5c-0.6-1.9-1.7-3.6-3-5
			c-3.6,14.6-3.6,14.6,0,0c-13.9-41.8-33.6,8.3-32.8,9.3c-14.6-19-37.9-11.7-36.6,45.4c0-0.4-32-27.9-28.8,64
			c0.9,27.1,5.4,54.3,16.1,79.2c6.8,16,15.9,31.6,17.5,49c0.7,7.5-0.1,15.2,1.5,22.6c1.3,6.2,4.2,11.9,6.1,17.9
			c4.8,14.6,4,30.3,3.5,45.7c-2.9,87.9,18.5,245.9,104.5,416.1h266.5v-66.5C937.7,2228.4,936,2225.6,934.5,2222.9z"/>
		<g>
			<g>
				<path class="st14" d="M627.7,1613.8c0.6-13.3,0.8-26.5,0.8-39.8c0-9.1-0.1-18.2,0.9-27.2c0.7-6.3,2.2-12.4,6.7-17.1
					c3.2-3.4,7-5.1,10.5-1.2c3.8,4.3,5.5,10.8,7,16.2c2,7.5,3.4,15.2,4.6,22.8c2.1,13.5,3,27.2,5.3,40.6c3.4,19.4,13.8,40.8,33.3,48
					c4.3,1.6,6.6,1.6,10.3-1.2c3.5-2.6,5.7-6.5,7.3-10.6c3.4-8.8,4.8-18.6,3.7-27.9c-0.8-7-5.5-22.6,1.6-27.8
					c6.7-4.8,15.4-3.4,20,3.1c3.8,5.4,5.4,12.3,6.6,18.7c1.3,6.5,2.8,12.7,4.3,19.2c6.8,29.3,3.7,59.6,6.2,89.3
					c1.7,20.3,8,39.1,12.5,58.8c6.5,28.1,11.4,56.5,16.7,84.8c6.8,36,13.5,72.1,21,108c2.7,12.8,5.3,25.6,8.6,38.3
					c1.9,7.4,4,14,8.5,20.2c0.7,0.9,2.4,3.7,3.3,5.3c16.7,27.3,32.5,55.2,48.6,82.9c11,19,21.9,38,32.8,57.1
					c5.2,9.1,10.3,18.2,15.5,27.2c4.7,8.4,8.8,18.1,14.8,25.7c4.3,5.4,14.1,8.2,17-0.1c0.6-1.8-2.3-2.6-2.9-0.8
					c-2.4,7-10.1,1.4-12.4-1.8c-1.5-2.1-2.7-4.5-4-6.8c-2.3-4.1-4.6-8.2-6.9-12.3c-5-8.9-10.1-17.9-15.2-26.8
					c-10.9-19.1-21.8-38.1-32.8-57.1c-16.7-29-33.4-58-50.7-86.6c-1.5-2.4-2.9-4.9-4.5-7.2c-2.2-3.1-4.1-5.7-5.4-9.4
					c-1-3-1.8-6.1-2.6-9.1c-3.3-12.4-5.9-25-8.5-37.5c-7.5-35.8-14.1-71.7-20.9-107.6c-5.5-28.8-10.5-57.7-17-86.3
					c-1.2-5.2-2.6-10.2-4.1-15.3c-4.2-14.9-7.5-29.8-8.7-45.3c-2.2-28.8,0.5-58.1-5.8-86.5c-1.5-6.8-3.3-13.4-4.6-20.2
					c-1.2-6.2-2.7-12.6-5.8-18.1c-2.7-4.8-7-8.8-12.7-9.4c-6-0.6-14.1,2-16.4,8.1c-3.2,8.2-0.1,18.4,0.8,26.7
					c1,9.7-0.7,21.7-5.8,30.1c-1.4,2.2-3.3,4.6-5.7,5.7c-3.1,1.4-6.1-0.1-8.9-1.5c-5.5-2.6-10.2-6.6-14.1-11.3
					c-7.5-9.1-12-20.6-14.2-32.1c-2.6-13.5-3.3-27.4-5.4-41c-1.9-12.7-3.5-28.3-10.9-39.3c-5.9-8.9-14.3-4.8-19.3,2.9
					c-3,4.7-4,10.4-4.6,15.9c-1,9.1-0.8,18.3-0.9,27.5c-0.1,13-0.2,26.1-0.8,39.1C624.6,1615.7,627.6,1615.7,627.7,1613.8
					L627.7,1613.8z"/>
			</g>
		</g>
		<g>
			<g>
				<path class="st14" d="M587.1,1623.2c-2.2-21.9,0.1-45.6,4.6-67.1c2-9.5,5.7-20.4,16.2-23.7c13.4-4.1,17,19.7,17.6,28
					c0.1,1.9,3.1,1.9,3,0c-0.7-9.4-2.6-21.3-9.9-28.1c-7.3-6.8-16-1.8-21.8,4.5c-5.3,5.8-6.9,12.4-8.3,20c-2,10.4-3.2,20.9-4,31.5
					c-0.9,11.5-1.5,23.3-0.3,34.9C584.3,1625.1,587.3,1625.2,587.1,1623.2L587.1,1623.2z"/>
			</g>
		</g>
		<g>
			<g>
				<path class="st14" d="M552.1,1644.2c-0.8-24.5-1.1-50.3,5.1-74.2c2-7.6,6.9-24.7,18-22.5c5.7,1.2,10,6.6,13.2,11
					c1.1,1.6,3.7,0.1,2.6-1.5c-5.4-7.5-15-17.1-24.6-10.3c-4.7,3.3-7.4,8.9-9.4,14.1c-3.6,9.3-5.2,19.4-6.4,29.3
					c-2.1,17.9-2.1,36.1-1.5,54.1C549.1,1646.2,552.1,1646.2,552.1,1644.2L552.1,1644.2z"/>
			</g>
		</g>
		<g>
			<g>
				<path class="st14" d="M552.7,1600c-6.9-4.9-15.3-5.1-20.8,2c-4,5.3-5.6,12.4-6.6,18.8c-1.7,11.6-1.3,23.4-0.5,35
					c2.4,31.1,5.7,63.5,18.5,92.3c6.4,14.5,14.4,28.9,15.9,45c0.7,7.7-0.1,15.4,1.5,23c1.6,7.7,5.5,14.7,7.4,22.3
					c3.7,14.7,2.4,30,2,45c-0.2,8.7-0.2,17.5,0.1,26.2c0.5,20.4,2.1,40.7,4.5,60.9c5.9,50.7,16.5,100.8,30.8,149.8
					c17.6,60.6,41,119.4,69.5,175.7c3.9,7.6,7.8,15.2,11.9,22.8c0.9,1.7,3.5,0.2,2.6-1.5c-29.7-55.6-54.6-113.8-73.7-173.8
					c-15.6-49-27.6-99.2-35-150c-5.6-38.4-8.6-77.3-7.4-116.1c0.5-14.8,1.1-30-3.6-44.3c-2.5-7.7-6.2-14.9-6.9-23.1
					c-0.6-7.2-0.1-14.5-1.3-21.7c-2.3-14.2-9.1-27.2-15-40.2c-6.5-14.4-10.6-29.5-13.2-45.1c-2.7-15.9-4.5-32.1-5.6-48.2
					c-0.8-11.5-1.2-23.4,0.6-34.8c1.4-8.5,5.6-23.9,17.3-20.3c1.9,0.6,3.7,1.6,5.3,2.8C552.8,1603.7,554.3,1601.1,552.7,1600
					L552.7,1600z"/>
			</g>
		</g>
	</g>
	<g class="st1">
		<path class="st25" d="M1225,2081c-36-69.8-98.8-196.7-99.5-200.1c-1.1-5-4.5-9.1-7.8-13c-28.5-33.4-159-155.9-176.3-176.2
			c-7.7-9.1-15.5-18.1-24.1-26.3c-28.1-26.4-65.6-42.4-90-72.3c-4.3-5.2-36.9-28.8-11.4-43.5c10-5.7,24.6,15,35.1,19.7
			c10.5,4.7,23.6,10.7,32.5,3.3c7.7-20.6-4.8-43.5-21-58.3c-16.2-14.8-36.3-25.2-50.9-41.6c-4.4-5-8.4-11.7-6.1-17.8
			c1.8-4.7,6.7-7.4,11.6-8.5c4.5-0.9,10.1-0.3,16.8,2.1c0.5,1.9,1.2,3.6,2.5,5.2c-1.3-1.6-2-3.4-2.5-5.2c14.2,5,14.2,5,0,0
			c-27.2-34.6,25.4-23.5,25.9-22.2c-7.8-22.6,11.2-38.1,58.1-5.4c-0.4-0.3-5.6-42.1,69.3,11.3c22.1,15.7,42.3,34.5,57.2,57.1
			c9.6,14.5,17.6,30.7,31.2,41.6c5.9,4.7,12.7,8.3,18.1,13.7c4.4,4.5,7.6,10.1,11.6,15c9.6,12,23.1,20,36.2,28.1
			c74.9,46.1,194.9,151.1,289.4,316.8l-147,222.3l-55.5-36.7C1227.8,2086.8,1226.4,2083.8,1225,2081z"/>
		<g>
			<g>
				<path class="st14" d="M887.7,1486.6c-11.5-6.9-22.8-14.2-34.1-21.5c-7.5-4.9-15-10-23-14c-4.9-2.5-10.3-4.7-15.9-4.6
					c-4.2,0.1-10,1-12.5,4.9c-5.3,8.1,6.6,20.1,11.5,25.4c10.6,11.5,22.6,21.5,34.5,31.6c15.1,12.8,30.5,27.6,32.9,48.5
					c0.5,4.7,1,13.5-2.5,17.1c-4.7,4.9-14.6,1.8-20-0.1c-5.2-1.8-10.5-3.9-14.9-7.2c-4.1-3.1-7.9-6.7-11.9-10
					c-4.9-4-11.8-9.7-18.5-7.1c-6.5,2.5-12,9.3-11.5,16.5c0.8,13.5,14.5,21.8,22.5,31.1c16.2,19,37.2,32.5,57.5,46.6
					c10.9,7.6,21.7,15.4,31.4,24.5c9,8.5,16.8,18,25,27.3c16.4,18.6,35,35.4,52.7,52.7c26.1,25.4,52.3,50.8,78.2,76.5
					c10.8,10.7,21.5,21.4,32,32.4c3.5,3.7,7.1,7.5,10.4,11.3c2.6,3,5.4,6,7.4,9.5c1.2,2.1,1.8,4.5,2.7,6.7c3.3,8.2,7.6,16.1,11.4,24
					c7.5,15.4,15.1,30.8,22.7,46.1c18.6,37.5,37.4,75,56.5,112.3c2,3.9,4,7.7,6,11.6c1.1,2.2,2.3,4.3,3.4,6.5
					c1.1,2.2,2.3,4.8,2.3,7.3c0,3.3-2.2,7.4-6.5,6.4c-1.9-0.4-2.7,2.4-0.8,2.9c3.8,0.9,7.3-0.8,9.2-4.3c2.4-4.5,0.5-9.6-1.5-13.8
					c-4-8.4-8.5-16.5-12.7-24.8c-9.6-18.8-19-37.6-28.5-56.4c-16.7-33.2-33.3-66.5-49.5-100c-3.2-6.6-6.9-13.2-9.4-20
					c-4.4-11.8-14.3-20.8-22.9-29.8c-22.9-23.9-46.7-46.9-70.4-70c-24-23.4-48.1-46.6-71.8-70.2c-6.4-6.4-13-12.8-19-19.6
					c-9-10.3-17.8-20.9-28.1-30c-9-7.9-18.7-14.9-28.5-21.8c-10.2-7.1-20.5-13.9-30.3-21.4c-10.3-7.9-19.1-16.7-27.9-26.2
					c-7.6-8.2-27.4-22.2-18.1-35.2c2.7-3.8,7.5-7.4,12.2-6.1c4.7,1.3,8.8,5,12.4,8.1c3.2,2.7,6.3,5.6,9.7,8.2
					c4.1,3.2,8.7,5.2,13.5,7.1c7.1,2.8,21.1,7.4,27-0.5c2.4-3.2,2.5-10,2.5-13.9c0-5.9-1.3-11.7-3.4-17.2
					c-6.4-16.8-19.3-28.3-32.6-39.6c-11.9-10.1-24-20.2-34.3-31.9c-3.7-4.2-8.5-9.5-9.7-15.2c-1.1-5.3,3.6-7.1,8.1-7.7
					c6.4-0.8,12.3,1.7,17.9,4.6c7.9,4.2,15.4,9.3,22.9,14.2c10.8,7.1,21.8,14.1,32.9,20.8C887.9,1490.2,889.4,1487.6,887.7,1486.6
					L887.7,1486.6z"/>
			</g>
		</g>
		<g>
			<g>
				<path class="st14" d="M918.3,1458.2c-16.9-13.8-37.5-24.6-57.5-33c-8.1-3.4-14.9-5.7-23.7-3.9c-7.3,1.5-14.7,5.8-13.9,14.3
					c1,10.1,10.3,18.8,17.8,24.6c1.5,1.2,3.6-0.9,2.1-2.1c-6.8-5.3-19.1-15.7-16.8-25.7c2.3-10.2,18.3-9.8,26-7.2
					c11.6,3.8,22.6,9.6,33.2,15.4c10.6,5.8,21.3,12,30.7,19.7C917.7,1461.5,919.8,1459.4,918.3,1458.2L918.3,1458.2z"/>
			</g>
		</g>
		<g>
			<g>
				<path class="st14" d="M954.8,1440.3c-21.3-15.1-44.5-31.3-70-38.4c-8.9-2.5-24-5-27.9,6.4c-2.1,6-0.1,13,2.1,18.7
					c0.7,1.8,3.6,1,2.9-0.8c-2.9-7.8-5.8-20.4,5.2-22.9c6-1.4,12.6,0.3,18.3,2c9.5,2.8,18.5,7.2,27.2,11.9
					c14.2,7.6,27.6,16.5,40.7,25.9C954.9,1444,956.4,1441.4,954.8,1440.3L954.8,1440.3z"/>
			</g>
		</g>
		<g>
			<g>
				<path class="st14" d="M919,1419.1c-0.1-4.2,0.7-8.8,4.3-11.4c4.6-3.3,11.4-1.9,16.4-0.3c10.5,3.3,20,9.6,28.9,16
					c13.2,9.4,25.7,20.1,37.8,30.9c11.9,10.6,23.3,21.9,32.3,35.1c8.1,11.8,14.6,24.8,24.2,35.6c4.6,5.2,9.9,9.5,15.6,13.4
					c6.9,4.7,12.5,9.6,17.4,16.4c8.5,11.8,18.4,20.7,30.6,28.6c15.7,10.1,31.5,19.8,46.6,30.9c16.3,11.9,32,24.6,47.2,37.8
					c37.4,32.4,71.8,68.2,103.5,106.2c38.8,46.5,73.3,96.5,103.2,149.1c4.1,7.1,8.1,14.3,12,21.6c0.9,1.7,3.5,0.2,2.6-1.5
					c-30-55.5-64.8-108.3-104.4-157.5c-32.8-40.8-68.8-79.2-107.9-113.9c-29.2-26-60.3-49.9-93.6-70.4c-13.9-8.6-26.7-17.5-36.3-31
					c-4.1-5.8-8.4-10.9-14.2-15.2c-6.5-4.8-13.2-8.9-18.7-14.9c-10.8-11.6-17.6-26.1-26.8-38.9c-8.9-12.5-19.8-23.4-31.3-33.6
					c-11.9-10.6-24.2-21-37.1-30.4c-9.1-6.7-18.9-13.1-29.7-16.8c-9.1-3.1-21.7-3.9-25,7.4c-0.6,2.2-0.8,4.5-0.7,6.7
					C916,1421,919,1421,919,1419.1L919,1419.1z"/>
			</g>
		</g>
	</g>
	<g class="st1">
		<path class="st26" d="M-196.8,1093.2c78.4-5.3,219.4-17.2,222.8-18.3c4.8-1.7,10.1-0.9,15.2-0.1c43.4,7.1,215.7,55.4,242,59.7
			c11.7,1.9,23.5,3.8,35,7.1c37.2,10.4,70.3,34.2,108.5,39.6c6.7,0.9,43.7,16.7,43.1-12.8c-0.2-11.5-25.6-13.3-35-19.8
			c-9.5-6.6-21.3-14.7-19.6-26.1c13.6-17.2,39.7-18.4,60.8-12.2c21.1,6.2,40.4,18.1,62,22c6.5,1.2,14.3,1.2,18.4-4
			c3.1-3.9,2.9-9.6,1.3-14.3c-1.5-4.3-5-8.8-10.5-13.3c-1.8,0.6-3.8,0.8-5.8,0.6c2,0.2,3.9,0,5.8-0.6c-11.6-9.5-11.6-9.5,0,0
			c43.7,5.4,6.9-33.9,5.7-33.6c23.4-5.1,26.8-29.3-25.4-52.5c0.4,0.2,39-17-45.5-53.5c-24.9-10.8-51.3-18.3-78.4-19.4
			c-17.4-0.7-35.4,0.8-51.7-5.2c-7.1-2.6-13.7-6.6-21.1-8.4c-6.1-1.5-12.6-1.3-18.8-2.1c-15.2-2-29.1-9.4-42.8-16.5
			c-78.2-40.3-230.1-88.6-420.8-83.8L-266,1066.6l60.1,28.5C-203.1,1093.8-199.9,1093.4-196.8,1093.2z"/>
		<g>
			<g>
				<path class="st14" d="M484.9,1077c11.9,6.3,23.9,12.2,36,18c8.2,3.9,16.6,7.7,24.3,12.6c5.4,3.5,10.2,7.5,12.4,13.7
					c1.7,4.8,0.7,8.4-4.5,9.5c-6,1.3-12.9-0.1-18.8-1.2c-7.9-1.6-15.6-3.8-23.3-6.1c-13.6-4.2-27-9.9-40.9-12.9
					c-10.2-2.2-21-2.7-31.2-0.5c-5,1.1-9.9,2.9-14.3,5.5c-3.3,2-9.2,5.7-10.8,9.4c-3.6,8.8,7,18.3,12.9,22.9
					c7.4,5.7,14.3,8.8,23.1,11.6c8,2.6,19.4,5.2,18.4,15.6c-0.9,8.4-6.6,12.6-14.7,12.9c-6.6,0.2-13.2-1.4-19.5-3.2
					c-7.5-2.1-15.1-3-22.6-5.1c-26.2-7-49.8-20.7-75-30.4c-13.5-5.2-27.4-8.7-41.6-11.2c-6.1-1.1-12.2-2-18.3-3.3
					c-28.2-6.2-56.1-14-84-21.3c-35.2-9.2-70.3-18.5-105.6-27.1c-12.8-3.1-25.7-6.2-38.7-8.8c-7.7-1.5-14.8-2.5-22.6-1.1
					c-2.2,0.4-4.4,0.6-6.6,0.8c-31.7,3.3-63.5,5.7-95.3,8.3c-21.9,1.8-43.8,3.5-65.7,5.2c-10.4,0.8-20.8,1.6-31.3,2.3
					c-9.4,0.7-19.2,0.5-28.5,2.2c-6.8,1.2-15.3,8.8-8.5,15.5c1.4,1.4,3.5-0.8,2.1-2.1c-4.6-4.5,1.6-9.2,5.7-10.2
					c2.9-0.7,6-0.7,8.9-0.9c4.7-0.3,9.4-0.6,14.1-1c10.2-0.7,20.5-1.5,30.7-2.3c21.9-1.6,43.8-3.4,65.6-5.1
					c33.3-2.7,66.7-5.3,100-8.6c2.9-0.3,5.8-0.4,8.7-1c7.1-1.3,13.5-0.6,20.5,0.7c12.7,2.4,25.3,5.5,37.9,8.5
					c35.6,8.6,71,18,106.4,27.3c28.1,7.4,56.3,15.2,84.7,21.5c19.8,4.4,39.7,6.7,58.8,14c25.5,9.6,49.4,23.5,75.8,30.8
					c7.7,2.1,15.7,3.1,23.4,5.3c6.1,1.7,12.3,3.2,18.7,3.3c5.7,0.1,11.8-1.2,15.6-5.8c3.7-4.4,5.6-12.9,2.6-18.1
					c-3.7-6.3-13-8.5-19.4-10.6c-10.1-3.2-18.4-7.3-26.3-14.6c-3.5-3.2-9.3-9.5-7.8-14.9c1.5-5.5,10.5-9.8,15.3-11.8
					c11.1-4.5,23.8-4.5,35.4-2.3c14.3,2.7,28.1,8.8,42,13c13,4,28.1,9.4,42,8.1c3.6-0.3,7.8-1.4,9.6-5c2-4.1-0.2-9.5-2.3-13.1
					c-2.8-4.8-7.5-8.3-12.1-11.2c-7.8-4.9-16.3-8.7-24.5-12.7c-11.9-5.7-23.8-11.5-35.4-17.7C484.7,1073.5,483.2,1076.1,484.9,1077
					L484.9,1077z"/>
			</g>
		</g>
		<g>
			<g>
				<path class="st14" d="M494.2,1036.4c11.4,4.1,22.2,10,32.7,16.1c10.3,6,20.6,12.2,29.7,19.9c2.9,2.4,5.5,4.8,7.2,8.2
					c2.4,4.9,5.5,12.7,1.4,17.7c-6.8,8.1-23.5,2.6-31.3-0.4c-1.8-0.7-2.6,2.2-0.8,2.9c8.5,3.3,19.1,6.2,28.1,3.4
					c7.8-2.4,10-9.4,8.3-16.9c-2.1-8.7-6.8-14-13.6-19.3c-8.8-6.8-18.4-12.8-28-18.3c-10.5-6.1-21.4-12-32.8-16.1
					C493.1,1032.8,492.4,1035.7,494.2,1036.4L494.2,1036.4z"/>
			</g>
		</g>
		<g>
			<g>
				<path class="st14" d="M489.8,995.6c22.5,9.8,46,20.5,64.9,36.5c6.1,5.1,19.6,17,12.5,26c-3.6,4.6-10.3,6.1-15.7,7.1
					c-1.9,0.4-1.1,3.2,0.8,2.9c8.9-1.7,21.5-6.2,19.6-17.6c-1-5.8-5.1-10.9-9.1-15c-6.9-7.1-15.3-12.9-23.7-18.1
					c-15.2-9.5-31.5-17.2-47.9-24.3C489.6,992.2,488.1,994.8,489.8,995.6L489.8,995.6z"/>
			</g>
		</g>
		<g>
			<g>
				<path class="st14" d="M529.5,1015.3c7.8-4.4,11.5-12.3,6.7-20.6c-3.6-6.2-9.9-10.8-15.9-14.6c-11-6.9-23.2-11.9-35.3-16.3
					c-15.4-5.6-30.9-11.1-46.8-15.1c-15.4-3.9-30.7-5.4-46.6-5.6c-8.6-0.1-17.2-0.1-25.7-1.4c-8.2-1.3-15.6-4.1-23.1-7.5
					c-6.7-3-13.2-5-20.6-5.7c-8.4-0.7-16.5-1.6-24.6-4.3c-12.7-4.3-24.3-11.2-36.3-17.1c-7.8-3.8-15.7-7.4-23.7-10.9
					c-18.4-7.9-37.1-15-56.1-21.3c-48.3-16.2-98.2-27.8-148.5-35.7c-61.3-9.6-123.4-13.5-185.4-11.9c-8.3,0.2-16.6,0.5-25,0.9
					c-1.9,0.1-1.9,3.1,0,3c61.4-3,123.1-0.7,184.1,7.2c51,6.6,101.5,17.1,150.7,31.9c36.7,11.1,73,24.5,107.3,41.7
					c11.8,6,23.5,12.6,36.3,16.3c7.3,2.1,14.6,2.4,22.1,3.2c8.7,0.9,15.8,4.3,23.7,7.7c13.4,5.8,27.6,6.6,42,6.8
					c16.5,0.2,32.4,1.5,48.5,5.5c15.3,3.9,30.1,9.2,44.9,14.4c12.6,4.5,25.1,9.5,36.5,16.6c7.4,4.6,22.8,15.8,14.3,26
					c-1.4,1.7-3.2,2.9-5.1,4C526.3,1013.6,527.9,1016.2,529.5,1015.3L529.5,1015.3z"/>
			</g>
		</g>
	</g>
	<g class="st1">
		<path class="st26" d="M-105.8,1372.4c78.1-2.6,219-5,222.5-4.2c5,1.2,10.1-0.1,15.1-1.5c42.2-11.4,208-76.9,233.7-83.9
			c11.4-3.1,22.9-6.2,33.9-10.6c35.8-14.1,66.2-41.1,103.5-50.4c6.5-1.6,41.6-21.1,44,8.4c0.9,11.5-24,15.8-32.7,23.3
			c-8.7,7.5-19.7,16.8-16.8,27.9c15.2,15.8,41.2,14.3,61.4,6c20.2-8.3,38.2-22.1,59.2-28.2c6.3-1.8,14.1-2.6,18.6,2.2
			c3.5,3.6,3.8,9.3,2.7,14.1c-1.1,4.5-4.1,9.3-9,14.3c-1.9-0.4-3.8-0.4-5.8,0c2-0.4,3.9-0.4,5.8,0c-10.6,10.7-10.6,10.7,0,0
			c42.7-9.8,10.3,33.1,9,32.9c23.7,2.7,29.5,26.5-19.9,54.9c0.4-0.2,40.3,13-39.7,57.8c-23.6,13.2-49,23.4-75.7,27.2
			c-17.2,2.4-35.1,2.7-50.7,10.4c-6.8,3.3-12.9,8-20,10.5c-5.9,2.1-12.3,2.6-18.4,4c-14.9,3.5-27.9,12.3-40.7,20.7
			c-73.4,48-219,111.5-408.4,125.9l-137.2-228.3l56.6-34.4C-112.1,1372.5-108.9,1372.5-105.8,1372.4z"/>
		<g>
			<g>
				<path class="st14" d="M572.6,1322.4c11.2-7.6,22.8-14.7,34.3-21.8c7.6-4.7,15.4-9.3,22.5-14.8c4.5-3.5,8.7-7.5,10.9-12.9
					c1.5-3.8,3-9.1,0.4-12.9c-5.7-8.3-22.5-1.8-29.7,0.5c-14.8,4.9-28.9,11.5-43,17.9c-17.6,8-37.7,14.8-56.9,7.5
					c-5-1.9-13.1-5.5-13.2-11.7c-0.1-7.2,6.4-13.4,11.3-17.9c7.2-6.7,14.9-10,23.7-14.1c5.6-2.6,13.8-6.2,15-13.2
					c1-6.1-2.2-13.9-7.4-17.2c-10.6-6.7-25.2,0.4-35.5,4.4c-8.7,3.3-17.7,5.4-26.3,9.2c-12.1,5.3-23.5,12-34.9,18.6
					c-11.4,6.7-22.8,13.4-34.8,19.1c-13.6,6.4-27.9,10.6-42.4,14.5c-23.5,6.4-46.4,16-69.2,24.5c-34.5,12.9-68.9,25.9-103.5,38.5
					c-14.2,5.2-28.5,10.3-42.8,15.1c-5.3,1.8-10.5,3.5-15.9,5c-3,0.9-6,1.8-9.1,2.4c-3.7,0.7-7,0.3-10.6,0.1c-8.6-0.5-17.4-0.1-26,0
					c-17.5,0.2-35,0.5-52.5,0.8c-42.3,0.8-84.6,1.7-126.8,2.9c-4.3,0.1-8.6,0.3-12.9,0.4c-2.6,0.1-5.3,0.3-7.9,0.1
					c-4-0.3-12.6-4-8-9.6c1.2-1.5-0.9-3.6-2.1-2.1c-6.2,7.6,2.9,14.3,10.1,14.7c9.6,0.7,19.7-0.5,29.4-0.8c21-0.6,42.1-1.1,63.1-1.6
					c37.5-0.8,75-1.6,112.6-1.9c6.8-0.1,15.5-0.6,21.5,0c13,1.5,26.8-4.6,39-8.7c32.1-10.9,63.8-22.8,95.5-34.7
					c31-11.6,61.9-23.4,93-34.5c9.7-3.5,19.4-6.6,29.3-9.4c13.4-3.7,26.6-8,39.1-14c12-5.7,23.3-12.5,34.8-19.2
					c11.1-6.5,22.4-12.9,34.2-18.1c8.6-3.8,17.8-5.8,26.5-9.2c10.7-4.2,31.7-12.9,36.7,3.3c1.3,4.2,1.5,8.1-1.8,11.3
					c-3.1,3.1-7.4,5-11.4,6.8c-8.4,3.8-15.7,7.1-22.7,13.3c-3.8,3.4-7.5,7-10.1,11.4c-2.2,3.6-4.7,10-2.6,14.1
					c1.6,3.2,6.5,6,9.5,7.6c4.6,2.5,9.6,4.1,14.7,4.9c18.1,2.8,34.8-3.4,50.9-10.8c14.4-6.6,28.8-13.3,43.9-18
					c6.9-2.1,27.3-8.5,24.1,5.6c-1.5,6.4-5.7,10.9-10.7,14.9c-7.4,5.9-15.7,10.7-23.8,15.7c-11.2,6.8-22.2,13.8-33.1,21.1
					C569.5,1320.9,571,1323.5,572.6,1322.4L572.6,1322.4z"/>
			</g>
		</g>
		<g>
			<g>
				<path class="st14" d="M585.5,1362.1c19.8-9.4,38.6-23.7,54.6-38.4c6.5-6,11.3-11.3,13.1-20.2c1.5-7.1,0.3-15-7.4-17.7
					c-9.6-3.3-21.3,1.5-29.8,5.8c-1.7,0.9-0.2,3.5,1.5,2.6c7.5-3.8,22.8-10.7,30.5-3.7c4.6,4.2,2.7,11.8,1,16.8
					c-1.3,4.1-3.6,6.9-6.6,10c-8.6,8.8-18.6,16.4-28.5,23.6c-9.5,6.9-19.4,13.7-30,18.7C582.3,1360.4,583.8,1363,585.5,1362.1
					L585.5,1362.1z"/>
			</g>
		</g>
		<g>
			<g>
				<path class="st14" d="M585.6,1403c22.7-12.8,47.4-27,64.7-47.1c6-7,14.6-19.6,5.8-28c-4.6-4.4-11.7-5.5-17.8-6
					c-1.9-0.2-1.9,2.8,0,3c5.7,0.5,13.9,1.6,17.2,7c3.2,5.1-0.1,11.5-3,16c-5.9,9.1-14.6,16.4-23.1,23
					c-14.2,11.1-29.7,20.6-45.4,29.4C582.4,1401.3,584,1403.9,585.6,1403L585.6,1403z"/>
			</g>
		</g>
		<g>
			<g>
				<path class="st14" d="M620,1379.5c3.7,1.6,7.4,4.2,8.4,8.4c1.2,5.3-2.4,10.7-5.7,14.4c-6.8,7.7-15.7,13.4-24.5,18.5
					c-13.6,7.9-28,14.4-42.3,20.7c-14.9,6.6-30.4,12.5-46.5,15.6c-14.9,2.8-30.3,2.9-45,6.9c-14.7,4.1-26.2,14.4-41.2,17.2
					c-14.8,2.7-27.2,7.9-39.9,15.9c-15.7,9.9-31.2,19.9-47.5,28.8c-17.5,9.5-35.5,18.3-53.8,26.3c-45.2,20-92.3,35.8-140.1,48.2
					c-58.2,15-117.7,24.8-177.6,29.3c-8.1,0.6-16.3,1.1-24.4,1.6c-1.9,0.1-1.9,3.1,0,3c62.5-3.3,124.8-12.1,185.7-26.7
					c50.3-12.1,99.8-28,147.5-48.2c35.9-15.2,70.9-32.9,103.5-54.3c13.8-9.1,27.5-17.3,44-20.3c7.4-1.3,14.1-3,20.8-6.6
					c7.3-4,14.1-8.3,22.2-10.7c14.9-4.4,30.5-4.5,45.7-7.2c15.8-2.9,30.9-8.5,45.5-14.9c14.9-6.5,30-13.3,44.1-21.4
					c9-5.2,18.2-11,25.3-18.8c6.3-6.9,11.2-17.3,2.9-24.7c-1.6-1.5-3.6-2.6-5.6-3.4C619.7,1376.2,618.2,1378.8,620,1379.5
					L620,1379.5z"/>
			</g>
		</g>
	</g>
	<g class="st1">
		<path class="st27" d="M1288.5,101.8c-34.3,70.7-93.9,199-94.6,202.5c-0.9,5-4.3,9.3-7.5,13.2c-27.6,34.1-155.1,159.8-171.9,180.5
			c-7.5,9.2-15,18.5-23.5,26.9c-27.5,27.1-64.5,44-88.2,74.5c-4.1,5.3-36.2,29.7-10.3,43.8c10.1,5.5,24.2-15.6,34.6-20.6
			c10.4-5,23.3-11.3,32.4-4.1c8.2,20.4-3.8,43.6-19.6,58.8c-15.8,15.2-35.7,26.1-49.9,42.9c-4.3,5.1-8.1,11.9-5.6,18
			c1.9,4.6,6.9,7.3,11.8,8.2c4.5,0.8,10.1,0,16.7-2.5c0.4-1.9,1.2-3.7,2.4-5.3c-1.2,1.6-2,3.4-2.4,5.3c14.1-5.4,14.1-5.4,0,0
			c-26.3,35.3,26,22.9,26.4,21.6c-7.2,22.8,12.1,37.8,58.2,4c-0.4,0.3-4.6,42.2,69-13c21.7-16.3,41.4-35.5,55.8-58.5
			c9.2-14.8,16.8-31.1,30.2-42.3c5.8-4.9,12.5-8.6,17.7-14.1c4.3-4.6,7.4-10.2,11.2-15.3c9.3-12.3,22.6-20.6,35.5-29
			c73.8-47.9,191.1-155.9,281.5-323.8L1345.9,54.9l-54.5,38C1291.2,96,1289.8,99,1288.5,101.8z"/>
		<g>
			<g>
				<path class="st14" d="M964.5,701.7c-11.4,7.2-22.5,14.7-33.5,22.4c-7.2,5-14.5,10.2-22.2,14.4c-5.5,3-11.4,5.4-17.8,4.6
					c-4.7-0.6-8.6-2.6-7.4-7.9c1.3-5.8,6-11.2,9.8-15.6c5-5.9,10.5-11.3,16-16.6c10.1-9.6,21.3-18.3,31.1-28.4
					c7.7-8,14.2-17.5,17.8-28.1c1.8-5.3,2.8-10.9,2.7-16.5c-0.1-4.2-0.4-10.7-3.1-14.1c-2.3-3-8.2-3.7-11.6-3.6
					c-5.4,0.2-10.6,2.1-15.5,4.2c-4.3,1.9-8.5,3.8-12.3,6.7c-3.9,3-7.4,6.6-11.1,9.8c-3.3,2.9-7,6.3-11.3,7.6
					c-5,1.5-10.3-2.5-12.9-6.5c-5-7.6,1.1-16.6,6-22.6c3.7-4.5,8.2-8.2,12-12.6c8.1-9.4,16.4-18,26-25.9
					c19.6-15.9,41.5-29,59.9-46.5c12.3-11.7,22.1-25.5,33.6-37.9c20.2-21.9,41.3-42.9,62.1-64.2c24.9-25.5,49.9-50.9,74.4-76.8
					c8.5-9,17-18,25-27.5c4.6-5.5,8.3-10.6,10.7-17.4c0.8-2.3,1.8-4.4,2.8-6.6c12.8-28.9,26.3-57.5,39.7-86.2
					c9.1-19.5,18.3-38.9,27.5-58.4c8.5-17.9,18.1-35.6,25.8-53.9c1.6-3.9,2.7-8.4,0.5-12.3c-1.9-3.4-5.5-5.2-9.3-4.2
					c-1.9,0.5-1.1,3.4,0.8,2.9c8.7-2.3,6.5,9.5,4.7,13.6c-1,2.2-2.1,4.4-3.2,6.6c-2.1,4.3-4.1,8.6-6.2,12.9
					c-4.4,9.1-8.7,18.2-13.1,27.4c-9.3,19.6-18.6,39.3-27.8,58.9c-13.9,29.7-27.9,59.4-41.3,89.4c-1.2,2.7-2.5,5.4-3.5,8.2
					c-2.3,6.4-5.4,11.3-9.9,16.5c-7.9,9.4-16.3,18.3-24.7,27.2c-24.4,25.9-49.3,51.3-74.2,76.7c-20.9,21.4-42.1,42.6-62.5,64.6
					c-11.3,12.1-20.9,25.7-32.8,37.2c-18.2,17.6-40.1,30.8-59.8,46.6c-10.1,8.1-18.8,17.1-27.3,26.9c-3.8,4.4-8.3,8.1-12,12.6
					c-4.3,5.2-8.9,11.6-8.8,18.7c0.1,6.8,5.7,13.1,11.9,15.4c7.2,2.6,14.4-4,19.3-8.4c3.4-3,6.6-6.2,10.1-9
					c4.9-3.9,10.9-6.6,16.7-8.6c5-1.8,14-4.4,18.5-0.1c4.2,4.1,3.4,14.4,2.7,19.6c-1.9,13-9.3,25-18.1,34.4
					c-9.7,10.3-21.1,19.1-31.4,28.8c-9.5,9-21.3,19.2-26.4,31.5c-4.2,10,3.7,14.9,13.1,14.6c5.5-0.2,10.8-2.6,15.5-5.2
					c8.2-4.4,15.7-9.9,23.4-15.2c10.7-7.4,21.4-14.6,32.4-21.6C967.6,703.3,966.1,700.7,964.5,701.7L964.5,701.7z"/>
			</g>
		</g>
		<g>
			<g>
				<path class="st14" d="M995.1,729.9c-9.2,7.9-19.7,14.3-30.2,20.4c-10.5,6.1-21.4,12.2-32.8,16.3c-7.7,2.7-23.6,3.6-26.2-6.5
					c-2.5-10,9.5-20.7,16.2-26.1c1.5-1.2-0.6-3.3-2.1-2.1c-9.9,8.1-28.6,30.5-7.6,37.8c8.8,3.1,16.1,1.7,24.4-1.7
					c10.3-4.2,20.1-9.5,29.7-15.1c10.7-6.2,21.4-12.8,30.8-20.9C998.7,730.8,996.6,728.7,995.1,729.9L995.1,729.9z"/>
			</g>
		</g>
		<g>
			<g>
				<path class="st14" d="M1032.7,746.4c-19.6,14.7-40.7,29.8-63.9,38.3c-7.5,2.7-24.5,8.6-28.8-2.1c-2.2-5.4-0.2-11.9,1.6-17.1
					c0.6-1.8-2.3-2.6-2.9-0.8c-3,8.6-5.3,21.8,5.5,25.8c5.5,2.1,12,1,17.6-0.4c9.6-2.5,18.8-6.9,27.5-11.6
					c15.8-8.5,30.5-18.8,44.9-29.5C1035.7,747.8,1034.2,745.2,1032.7,746.4L1032.7,746.4z"/>
			</g>
		</g>
		<g>
			<g>
				<path class="st14" d="M995.9,771.1c-0.1,9.9,6.1,16.8,16.4,15.9c7.9-0.7,15.6-4.6,22.3-8.5c12.6-7.4,23.8-16.9,34.8-26.5
					c12.2-10.6,24.3-21.2,35.1-33.3c10.1-11.4,17.8-24,25.6-37.1c4.1-6.9,8.4-13.7,13.8-19.7c5.4-6.1,12-10.4,18.3-15.3
					c5.7-4.4,9.8-9.6,13.8-15.5c4.6-6.9,9.9-12.9,16.3-18.2c9.7-8.1,20.8-14.5,31.3-21.6c7.1-4.9,14.1-9.9,21-15.1
					c16.1-12.1,31.7-25.1,46.7-38.5c37.7-33.8,72.3-71,103.8-110.5c38.6-48.3,72.7-100.1,102-154.5c4-7.5,8-15.1,11.9-22.7
					c0.9-1.7-1.7-3.2-2.6-1.5c-27.8,54.7-60.3,107-97.4,156c-31,40.9-65,79.5-102.3,114.9c-27.8,26.4-57.4,51.3-89.3,72.5
					c-10.8,7.2-22,13.8-31.5,22.7c-5.3,4.9-9.4,10.5-13.4,16.5c-4.9,7.2-10.7,12.3-17.7,17.3c-11.3,8.2-19.3,18.5-26.4,30.4
					c-8.1,13.5-15.9,26.7-26.5,38.5c-10.4,11.6-22.1,21.9-33.9,32.1c-11.2,9.7-22.5,19.4-35.4,26.9c-7.7,4.5-27.4,14.8-32.6,1.5
					c-0.8-2.1-1-4.3-1-6.5C998.9,769.2,995.9,769.1,995.9,771.1L995.9,771.1z"/>
			</g>
		</g>
	</g>
	<g class="st1">
		<path class="st27" d="M874.6-55.3c-36.7,69.5-104.8,193.6-107.2,196.1c-3.5,3.7-4.9,8.9-6.2,13.9
			c-11.1,42.5-36.9,219.6-43.7,245.4c-3,11.5-6,23.1-7.8,34.8c-5.6,38.2,2.7,78.1-7.9,115.2c-1.9,6.5-2.5,46.8-29.2,34.2
			c-10.4-4.9-1.7-28.8-3.9-40.1c-2.2-11.3-4.7-25.5-15.8-28.5c-21.3,5.4-32.9,28.9-35.8,50.6c-2.9,21.8,0.1,44.2-5,65.6
			c-1.6,6.4-4.8,13.6-11.2,15.2c-4.8,1.2-9.9-1.2-13.6-4.7c-3.3-3.1-6-8.2-7.9-15c1.3-1.4,2.3-3.1,2.9-5.1c-0.6,1.9-1.6,3.6-2.9,5.1
			c-4-14.5-4-14.5,0,0c-12.8,42.1-33.8-7.4-33-8.5c-14.1,19.3-37.6,12.6-37.7-44.5c0,0.4-31.3,28.7-30.4-63.2
			c0.3-27.1,4.1-54.4,14.1-79.6c6.4-16.2,15.1-32,16.3-49.4c0.5-7.5-0.5-15.2,0.9-22.6c1.1-6.2,3.9-12,5.7-18.1
			c4.4-14.7,3.2-30.4,2.3-45.8c-5.1-87.8,12.5-246.3,94.2-418.6l266.5-6.6l1.6,66.5C877.7-60.9,876-58.1,874.6-55.3z"/>
		<g>
			<g>
				<path class="st14" d="M579.9,561.2c1,13.2,1.4,26.5,1.8,39.8c0.3,9.1,0.4,18.2,1.6,27.2c1.1,8.1,5.4,23.1,16,23.4
					c9.6,0.2,12.8-15.8,14.4-22.6c3.4-14.8,4.8-30.1,6.2-45.2c1.7-17.7,3.7-35.4,14.8-50.2c3.6-4.8,8-8.9,13.2-11.8
					c2.3-1.3,6-3.5,8.7-2.9c3,0.7,5.6,3.8,7.1,6.2c5.2,8.1,7.3,20.2,6.5,29.7c-0.6,8.4-3.3,18.2-0.4,26.3c2.2,6.2,9.8,8.9,16,8.4
					c13-0.9,16.8-16.9,18.6-27.3c1.1-6.6,2.5-12.9,3.9-19.4c2.9-14.1,3.6-28.6,3.6-42.9c0.1-15-0.5-30,0.3-45
					c0.8-15.6,3.7-30.7,7.6-45.8c6.4-24.8,10-50.2,14.2-75.4c6.1-36.7,11.9-73.4,18.3-110.1c2.7-15.4,5.4-30.7,8.4-46
					c1.1-5.5,2.2-11,3.5-16.5c0.7-3.1,1.4-6.2,2.4-9.2c1.2-3.7,3.1-6.4,5.2-9.5c4.7-7,8.5-14.7,12.6-22
					c8.4-15.1,16.8-30.3,25.1-45.4c20.5-37.5,40.9-75,61-112.8c2.2-4.2,4.4-8.3,6.6-12.5c1.2-2.3,2.4-4.7,3.8-6.9
					c2.2-3.3,9.7-9,12.3-2.2c0.7,1.8,3.6,1,2.9-0.8c-3.5-9.1-13.8-4.5-17.8,1.5c-5.4,8-9.4,17.4-13.9,25.9
					C854.4-13.9,844.2,5,834,23.9c-18,33.2-36,66.3-54.4,99.2c-3.5,6.3-7.4,13.9-11.3,19.1c-4.4,5.8-5.7,13.5-7.3,20.4
					c-1.3,5.8-2.5,11.6-3.6,17.4c-6.6,33.7-12.1,67.7-17.7,101.6c-5.4,32.7-10.5,65.5-16.4,98.1c-2.1,11.5-4.8,22.7-7.6,34.1
					c-3.5,14.2-5.7,28.4-6.4,43c-0.7,15-0.1,30-0.2,45c-0.1,15.3-1,30.8-4.8,45.7c-1.4,5.4-2,10.8-3,16.3
					c-1.2,6.3-2.8,13.3-7.1,18.3c-4.6,5.4-15.7,6.5-20.3,0.1c-2.5-3.5-2.1-8.9-1.9-13c0.3-4.8,1-9.6,1.4-14.5
					c0.7-8.9-1.2-18.5-4.7-26.7c-1.7-4-4-7.8-7.7-10.3c-4.1-2.8-6.6-2.2-11-0.3c-9.4,4-16.6,11.7-21.6,20.4
					c-8.4,14.5-10,30.6-11.5,46.8c-1.4,15.4-2.8,31.1-6.6,46.1c-1.3,5.2-2.9,11.6-6.7,15.7c-3.6,3.8-7.5,1.4-10.6-1.9
					c-4.4-4.7-5.9-11-6.7-17.2c-1.2-9.2-1.3-18.5-1.5-27.7c-0.4-12.8-0.9-25.6-1.8-38.4C582.8,559.3,579.8,559.2,579.9,561.2
					L579.9,561.2z"/>
			</g>
		</g>
		<g>
			<g>
				<path class="st14" d="M539.1,552.8c-1.6,20.6,1.2,42.3,5.2,62.5c1.3,6.4,2.4,14.2,6.3,19.7c4.7,6.6,14.2,14.8,22.7,9.7
					c9.4-5.7,11.2-20.4,11.7-30.2c0.1-1.9-2.9-1.9-3,0c-0.4,8.3-3.3,31.5-16.4,28.6c-5.4-1.2-11.3-6.9-13.7-11.7
					c-1.8-3.6-2.7-7.8-3.6-11.6c-5-21.4-7.9-45-6.2-66.9C542.2,550.8,539.2,550.8,539.1,552.8L539.1,552.8z"/>
			</g>
		</g>
		<g>
			<g>
				<path class="st14" d="M503.6,532.6c-0.2,26.1-0.2,54.7,8.6,79.7c3.1,8.8,9.8,22.5,21.4,19c6.1-1.9,10.5-7.5,14-12.5
					c1.1-1.6-1.5-3.1-2.6-1.5c-4.8,7-13.6,16.3-21.9,8.5c-4.4-4.1-6.8-10.3-8.6-15.9c-3.1-9.3-4.7-19.1-5.8-28.8
					c-1.9-16.1-2.3-32.3-2.1-48.4C506.6,530.7,503.6,530.7,503.6,532.6L503.6,532.6z"/>
			</g>
		</g>
		<g>
			<g>
				<path class="st14" d="M506.8,574.2c-8.2,6.1-15.8,3.2-19.9-5.9c-3.7-8.2-4.5-17.7-4.9-26.5c-0.6-14.4,0.7-28.9,1.9-43.3
					c1.4-15.8,3.1-31.6,7-47c3.8-14.8,10.6-28.4,16-42.6c2.6-6.7,4.7-13.7,5.7-20.8c1-7.2,0.3-14.5,0.7-21.7
					c0.5-8.3,4-15.5,6.3-23.3c2-6.9,2.9-14.1,3.1-21.2c0.7-20.5-1.8-41.1-1.5-61.6c0.3-20.2,1.5-40.3,3.5-60.4
					c4.9-50,14.4-99.5,27.5-148c16.1-59.6,37.7-117.8,64.2-173.6c3.5-7.4,7.2-14.8,10.9-22.2c0.9-1.7-1.7-3.2-2.6-1.5
					C595.9-88,572.2-28.2,554.3,33.4c-14.7,50.8-25.5,102.9-31.4,155.4c-2.4,21.2-4,42.5-4.5,63.8c-0.5,20.1,0.9,40,1.4,60
					c0.2,8.4,0,16.9-1.9,25.2c-1.7,7.7-5.4,14.8-6.8,22.5c-1.4,7.6-0.4,15.4-1,23c-0.5,8-2.7,15.7-5.5,23.1
					c-5.5,14.9-12.7,28.8-16.6,44.2c-3.8,15-5.6,30.5-7,45.9c-1.3,15-2.7,30-2.1,45.1c0.4,8.8,1.3,18.1,4.6,26.3
					c3.2,8.2,10.1,15.1,19.4,11.6c1.9-0.7,3.7-1.8,5.3-3C509.8,575.7,508.3,573.1,506.8,574.2L506.8,574.2z"/>
			</g>
		</g>
	</g>
	<polygon class="st28" points="1080.7,1.8 959,1.8 837.4,1.8 715.8,1.8 594.2,1.8 472.5,1.8 350.9,1.8 350.9,3.2 230.3,3.2 
		108.6,3.2 108.6,1950.2 230.3,1950.2 351.9,1950.2 351.9,1948.8 472.5,1948.8 594.2,1948.8 715.8,1948.8 837.4,1948.8 959,1948.8 
		1080.7,1948.8 1202.3,1948.8 1202.3,1.8 	"/>
</g>
</svg>
