<?xml version="1.0" encoding="utf-8"?>
<!-- Generator: Adobe Illustrator 21.0.0, SVG Export Plug-In . SVG Version: 6.00 Build 0)  -->
<svg version="1.1" id="Capa_1" xmlns="http://www.w3.org/2000/svg" xmlns:xlink="http://www.w3.org/1999/xlink" x="0px" y="0px"
	 viewBox="0 0 1319 1952" style="enable-background:new 0 0 1319 1952;" xml:space="preserve">
<style type="text/css">
	.st0{fill:#BDB3DE;}
	.st1{fill:#D0D2F7;}
	.st2{clip-path:url(#SVGID_2_);}
	.st3{fill:#A07B67;stroke:#643527;stroke-width:4;stroke-miterlimit:10;}
	.st4{fill:#B38F79;stroke:#643527;stroke-width:4;stroke-linejoin:bevel;stroke-miterlimit:10;}
	.st5{fill:#A07B67;stroke:#643527;stroke-width:4;stroke-linejoin:bevel;stroke-miterlimit:10;}
	.st6{fill:#DABBA6;stroke:#643527;stroke-width:4;stroke-linejoin:bevel;stroke-miterlimit:10;}
	.st7{fill:#DABBA6;stroke:#643527;stroke-width:4;stroke-miterlimit:10;}
	.st8{fill:#F4DBA4;stroke:#643527;stroke-width:5;stroke-miterlimit:10;}
	.st9{fill:#F4DBA4;}
	.st10{fill:#FFB38A;stroke:#643527;stroke-width:5;stroke-miterlimit:10;}
	.st11{fill:none;stroke:#643527;stroke-width:5;stroke-linecap:round;stroke-linejoin:round;stroke-miterlimit:10;}
	.st12{fill:#8E5F52;}
	.st13{fill:#FFBE9E;}
	.st14{fill:#8E5F52;stroke:#643527;stroke-width:5;stroke-miterlimit:10;}
	.st15{fill:#643527;}
	.st16{fill:#FFC25E;}
	.st17{fill:#FEDC72;stroke:#643527;stroke-width:5;stroke-miterlimit:10;}
	.st18{fill:#FEDC72;}
	.st19{fill:#F4C551;}
	.st20{fill:#FEBDC5;}
	.st21{fill:#FFE7A8;stroke:#643527;stroke-width:5;stroke-miterlimit:10;}
	.st22{fill:#FFE7A8;}
	.st23{fill:#FFC25E;stroke:#643527;stroke-width:5;stroke-linecap:round;stroke-linejoin:round;stroke-miterlimit:10;}
	.st24{fill:#FFD1AE;}
</style>
<g>
	<g>
		<path class="st0" d="M403.5,829.5v293c0,28.3,10.9,54.2,28.6,73.8V755.7C414.3,775.3,403.5,801.2,403.5,829.5z"/>
		<path class="st1" d="M432.1,755.7v440.6c19,21,46,34.6,76.1,36.1V719.6C478.1,721.1,451.1,734.7,432.1,755.7z"/>
		<path class="st0" d="M513.5,719.5c-1.8,0-3.6,0-5.3,0.1v512.7c1.8,0.1,3.5,0.1,5.3,0.1h70.7v-513H513.5z"/>
		<rect x="584.2" y="719.5" class="st1" width="76.1" height="513"/>
		<rect x="660.3" y="719.5" class="st0" width="76.1" height="513"/>
		<path class="st1" d="M806.5,719.5h-70.1v513h70.1c2,0,4-0.1,5.9-0.2V719.7C810.4,719.6,808.4,719.5,806.5,719.5z"/>
		<path class="st0" d="M812.4,719.7v512.7c30.1-1.6,57.1-15.5,76.1-36.7V756.4C869.5,735.2,842.5,721.3,812.4,719.7z"/>
		<path class="st1" d="M916.4,1122.5v-293c0-28-10.6-53.6-28-73.1v439.2C905.8,1176.1,916.4,1150.5,916.4,1122.5z"/>
	</g>
	<g>
		<defs>
			<path id="SVGID_1_" d="M887.5,756.4c-18.9-21.2-45.9-35.1-76.1-36.7c-2-0.1-3.9-0.2-5.9-0.2h-70.1h-76.1h-76.1h-70.7
				c-1.8,0-3.6,0-5.3,0.1c-30,1.5-57,15.1-76.1,36.1c-17.7,19.6-28.6,45.5-28.6,73.8v293c0,28.3,10.9,54.2,28.6,73.8
				c19,21,46,34.6,76.1,36.1c1.8,0.1,3.5,0.1,5.3,0.1h70.7h76.1h76.1h70.1c2,0,4-0.1,5.9-0.2c30.1-1.6,57.1-15.5,76.1-36.7
				c17.4-19.5,28-45.1,28-73.1v-293C915.5,801.5,904.9,775.9,887.5,756.4z"/>
		</defs>
		<clipPath id="SVGID_2_">
			<use xlink:href="#SVGID_1_"  style="overflow:visible;"/>
		</clipPath>
		<g class="st2">
			<g>
				<polygon class="st3" points="487.7,904.4 826.1,934.4 845.9,1176.1 436.2,1139.9 				"/>
				<polygon class="st4" points="426.7,1182.8 417.5,1109.4 481,830.8 487.9,905.6 				"/>
				<polygon class="st4" points="839,1223 862.7,1149.9 865.2,868.1 826.2,935.5 				"/>
				<polygon class="st5" points="826.8,934.4 487.4,904.4 480.5,831.4 865.2,868.1 				"/>
				<polygon class="st6" points="451.6,893.8 481.1,831.5 416.9,1111 383.9,1172 				"/>
				<polygon class="st6" points="879.5,933.5 865.1,869.7 862,1152.8 879.8,1219.8 				"/>
			</g>
			<polygon class="st7" points="838.4,1224.9 424.5,1188.3 416.9,1111 861.8,1153 			"/>
			<path class="st8" d="M886.1,884.2c0,0,19.6,54.1-34.2,67.7c-71.2,18.1-158.3-39.2-158.3-39.2s-74.8-18.5-13.6-111.4
				c0,0,12.1-78.9,126.7-52.4C917.5,774.4,886.1,884.2,886.1,884.2z"/>
			<g>
				<g>
					<path class="st9" d="M674.6,925.7c-12.4-12.5-25.8-29-20.5-45.8c1.5-4.7,5-9.2,9.9-9.8c3.5-0.4,6.8,1.3,9.9,2.9
						c54.7,29.2,108.7,59.7,162.1,91.4c9.2,5.4,19.6,13.4,18.2,23.9c-0.6,4.7-3.6,8.7-6.6,12.2c-9.5,11.1-21.2,20.3-34.2,26.9
						c-4.6,2.4-9.6,4.4-14.8,4.1c-8-0.5-14.5-6.3-20.1-11.9c-37.3-36.9-71.5-79-118.3-102.8"/>
				</g>
			</g>
			<g>
				<path class="st10" d="M787.2,897c1.5,10.7-4.7,20.3-13.7,21.6c-20.1,2.8-14.4-37.4-5.4-38.6C777.1,878.7,785.7,886.4,787.2,897z
					"/>
				<path class="st11" d="M774.4,904.6c3-7.7,0.6-15.9-5.5-18.2"/>
			</g>
			<path class="st12" d="M761.1,812.1c-2.3,5-7.8,6.6-13.6,5.2c-0.9-0.2-20-8.8-20.9-9.2c-1.4-0.6-3-0.8-4.1-1.8
				c-3.9-3.5-5.4-8.8-3.4-13.3c2.1-4.7,7.1-6.3,12.6-5.4c1.2,0.2,2.8-0.1,4,0.5c1.5,0.7,20.8,10.6,22,11.6
				C761.3,803.3,763.1,807.7,761.1,812.1z"/>
			<g>
				
					<ellipse transform="matrix(0.2492 -0.9684 0.9684 0.2492 -294.4126 1323.8195)" class="st13" cx="706.6" cy="851.8" rx="8" ry="15.4"/>
				
					<ellipse transform="matrix(0.3955 -0.9185 0.9185 0.3955 -318.1508 1318.6156)" class="st13" cx="842.7" cy="901" rx="8.3" ry="15.4"/>
			</g>
			
				<ellipse transform="matrix(0.1931 -0.9812 0.9812 0.1931 -226.1212 1467.4426)" class="st14" cx="779.1" cy="871.2" rx="30" ry="37.5"/>
			<path class="st15" d="M765.2,863.6l1.1-4.1c0.9-3.4,5.4-4.6,8.8-3.7l14.8,4.6c3.4,0.9,5.7,3.4,4.8,6.8l-1.1,4.1
				C787,881.2,764.1,871.6,765.2,863.6z"/>
			<path class="st11" d="M797.5,1032.4c16.8-5.5,26.7-9.8,26.7-9.8s65.9-41,31.9-48.6"/>
			<path class="st12" d="M864.4,856.3c-2.5,4.7-7.7,6.1-12.9,4.6c-0.8-0.2-17.6-9-18.4-9.4c-1.3-0.7-2.7-0.9-3.6-1.8
				c-3.3-3.5-4.3-8.6-2.1-12.8c2.3-4.4,7.1-5.9,12-4.9c1.1,0.2,2.5,0,3.6,0.5c1.4,0.7,18.3,10.7,19.2,11.7
				C865.3,847.8,866.5,852.1,864.4,856.3z"/>
			<path class="st14" d="M714.6,738.1c-3.5-0.9-7.2-0.6-10.8-0.5c-6.5,0.2-13-0.5-19.3-1.9c-9.6-2.1-20.8-5.8-28.5,0.3
				c-6.7,5.3-7.1,15.3-5.8,23.7s3.7,17.3,0.5,25.3c-2.3,5.8-7.6,11.6-5.1,17.3c2.3,5.5,9.8,6,15.7,5.7c18.5-1,38.8-2.7,52-15.6
				c11.3-11.1,13.5-26.9,16.3-42.4C729.7,750,721,739.8,714.6,738.1z"/>
			<path class="st14" d="M899.6,799.4c3.3,1.6,5.8,4.3,8.5,6.7c4.8,4.4,10.1,8.1,15.9,11.2c8.7,4.7,19.5,9.2,21.4,18.9
				c1.6,8.4-4.6,16.2-11.1,21.7c-6.5,5.5-14.1,10.7-16.9,18.8c-2,5.9-1.9,13.7-7.5,16.5c-5.4,2.6-11.3-1.8-15.6-5.9
				c-13.4-12.8-27.7-27.4-29.2-45.8c-1.3-15.8,7.3-29.1,15.4-42.8C880.5,798.6,893.8,796.5,899.6,799.4z"/>
			<path class="st15" d="M849.5,876.5c-1.6,2.7-4.7,3.5-7.7,2.5c-0.4-0.1-9.9-5.6-10.3-5.8c-0.7-0.4-1.5-0.6-2-1.1
				c-1.8-2.1-2.2-5.1-0.7-7.6c1.5-2.6,4.3-3.4,7.1-2.7c0.6,0.2,1.5,0,2.1,0.4c0.8,0.4,10.2,6.6,10.7,7.2
				C850.3,871.5,850.9,874.1,849.5,876.5z"/>
			<path class="st15" d="M740.3,835.2c-0.8,3.1-4,4.6-7.8,4.3c-0.6,0-13.6-3.2-14.2-3.3c-1-0.2-2-0.2-2.8-0.6
				c-2.9-1.7-4.5-4.6-3.8-7.4c0.7-2.9,3.6-4.3,7.1-4.3c0.8,0,1.7-0.3,2.5-0.1c1,0.3,14.3,4.1,15.2,4.6
				C739.3,830,740.9,832.4,740.3,835.2z"/>
			<path class="st8" d="M793.2,952.9c0,0,66.5-13,69.2,2.1c0,0,20.3,4.5,18.8,14.6c-1.5,10.1,10.7,26-52.5,41"/>
			<g>
				<g>
					<path class="st15" d="M858.2,957.3c-1.7,2.6-3.9,4.9-6.4,6.7c-1,0.7-2.2,1.3-3.3,0.8c-0.5-0.2-0.9-0.6-1.2-1.1
						c-2.1-2.7-2.1-7.2,0.6-9.4s7.6-1,8.3,2.3"/>
				</g>
				<g>
					<path class="st15" d="M870.7,970.8c0.1-4.2-5.3-7.3-8.9-5.2c-3.6,2.1-3.6,8.2-0.1,10.4c3.5,2.3,8.9-0.1,9.8-4.2"/>
				</g>
				<g>
					<path class="st15" d="M865.6,980.5c-1,1.5-3.2,0-5,0c-2.2,0-3.6,2.5-3.4,4.6c0.3,2.1,1.7,3.9,3.2,5.5c0.7,0.8,1.5,1.6,2.5,1.6
						c0.9,0,1.7-0.6,2.4-1.2c1.5-1.3,3.1-2.7,3.6-4.7c0.4-2-1.1-4.4-3.1-4"/>
				</g>
				<g>
					<path class="st15" d="M854.7,974.2c-0.1,2.9-0.3,5.9-1.4,8.6c-1.1,2.7-3.5,5-6.4,5.3c-2.6,0.3-5-1.1-7.2-2.4
						c-2.6-1.5-5.4-3.2-6.5-6c-1.9-4.5,1.1-9.3,4-13.2c0.6-0.9,1.3-1.8,2.4-2.2c1.4-0.5,3,0.2,4.4,0.9c2.1,1.1,4.2,2.2,6.3,3.3
						c1.6,0.8,3.3,1.7,4.3,3.3c1,1.6,0.8,4-0.8,4.8"/>
				</g>
			</g>
			<path class="st16" d="M484.1,886.7c-26.9,17.4-39.1,39.3-43,60.8c3.1,10,5.3,15.7,5.3,15.7s38.2,67.6,47.2,33.9l-1.2,6.6
				c0,0,5.4,22.1,17,7.7l8.5-1.8l14.6-18.9C533.6,948.1,514.7,910.4,484.1,886.7z"/>
			<path class="st11" d="M436.5,936.8c4.8,17.1,8.7,27.1,8.7,27.1s38.2,67.6,47.2,33.9"/>
			<path class="st17" d="M542.2,1148.7c0,0,23.5,40,31.5,33.6c0,0,11,7.9,14.9,1.9c3.9-5.9,15.5-5.8,9.7-28.1"/>
			<path class="st17" d="M701.8,1161.2c0,0-29.5,35.9-36.4,28.3c0,0-12.1,6.1-15-0.4c-2.9-6.5-14.4-8.1-5.2-29.2"/>
			<path class="st18" d="M802.6,1136.5c0,0-7,2.5-19.3-15.3c-6.9-10-1.9-8.8-2.2-21.4c0-3.9-3.6-10.1-4.6-13.7
				c7.9,5.6,41.8,3.5,41.8,3.5s-25.7-10.2-9.2-25.6c9.3-8.7,9.1-22,7.2-32l4.6,0c16.9-65.1-74.6-74.2-74.6-74.2
				c-46.9-55.4-143.9-31.2-143.9-31.2s-64.5-31.4-86.1,31.1c0,0-4.9,17.5-28.3,13.3c0,0-3.2,17.8,17.1,19.7c0,0-14.6,14-11.4,34.8
				c3.1,20.8-16.3,4.4-16.3,4.4s8.6,15.9,20.6,18.1c0.4,0.1,0,0,0,0s3.2-8.7,4.2,4.4c1.1,13.1-11.9,18.1-17.6,11.6
				c-4.2-4.8-4.3,8.8,4.2,15.1c0.1,0.1,0.2,0.1,0.3,0.2c0,0.1-0.1,0.1-0.1,0.2l-0.2-0.4c0,0-5.3,15.1,9.7,17.8l-0.7-1.4
				c0.5,0.2,1.1,0.4,1.7,0.6c1.7,0.5,3.4,0.7,5.1,0.6c-1.1,7.7-1.7,13.1,6.5,25.8c3.2,11,13.4,20.5,26.9,24.1
				c5.3,2.8,12,5.1,20.6,6.6c8.1,12.8,25,12.2,46.5,7.4c0,0,7.3,9.8,22.8,16.4c0,0,7.4-15.9,56.1-6.3l2.3,4.1
				c31.7,9.6,39.6-4.3,39.6-4.3c35.4,13.8,31.3-28.5,31.3-28.5C764.8,1156.5,802.6,1136.5,802.6,1136.5z M542.9,1147.7
				c0.6-0.1,1.2-0.1,1.8-0.2c0.8,1.9,1.8,3.7,2.9,5.4L542.9,1147.7z"/>
			<g>
				<path class="st11" d="M819.9,1033.6c16.9-65.1-74.8-74.2-74.8-74.2c-52.2-54.3-144.4-31.2-144.4-31.2s-64.7-31.4-86.3,31
					c0,0-4.9,17.5-28.3,13.3c0,0-3.2,17.8,17.2,19.7c0,0-14.6,13.9-11.5,34.8c3.2,20.8-16.4,4.4-16.4,4.4s22,40.8,44.8,0.7"/>
				<path class="st11" d="M811.1,1020.1c0,0,13.6,30.1-3,45.5s9.2,25.6,9.2,25.6s-66.8,15.6-53.9-55.8"/>
				<path class="st11" d="M552.6,1020.4c0,0-18,36.4-38.9,21.1"/>
				<path class="st11" d="M745.6,1023.9c0,0-8.5,27.9,13,33.7"/>
				<path class="st11" d="M516,1042.3c0,0-17.2,5.2-16.3,16.6s-10.4,15.8-15.4,10.1s-3.4,18.6,15.3,15.6"/>
				<path class="st11" d="M488,1082.1c0,0-4.6,13.1,8.5,15.5"/>
				<path class="st11" d="M504,1089.4c0,0-11.8,23.5,14,47.4"/>
				<path class="st11" d="M517.6,1114.3c0,0-11.4,30,32.3,37.9"/>
				<path class="st11" d="M768.1,1078c0,0,14.4,11.8,12.2,32.3c-2.2,20.5,19.1,27.5,19.1,27.5s-36.6,19.1-43.4,6.6
					c0,0,1.5,42-29.5,30"/>
				<path class="st11" d="M732.2,1139.3c0,0,9.4,56.2-50.1,35.9"/>
				<path class="st11" d="M550.7,1097.8c0,0-32.8,85.5,52.8,64.1"/>
				<path class="st11" d="M591.3,1122.8c0,0-4.1,39.4,35.1,56.1c0,0,12.7-12.1,27-8c53.1,15.5,47.3-28.4,47.3-28.4"/>
			</g>
			<path class="st10" d="M628.9,1048.7c-8.3,9.7-8.3,23.2-0.1,30.2c18.3,15.6,38.1-28.1,29.9-35.1
				C650.6,1036.8,637.2,1039,628.9,1048.7z"/>
			<path class="st19" d="M619.2,992.7c-1.7,4.4-6.8,5.9-12.3,4.7c-0.8-0.2-19.3-7.5-20.1-7.8c-1.4-0.5-2.8-0.7-3.9-1.5
				c-3.9-3-5.7-7.6-4.1-11.6c1.6-4.1,6.2-5.6,11.3-4.9c1.2,0.2,2.6-0.1,3.7,0.4c1.5,0.6,20.2,9,21.3,9.9
				C618.8,984.9,620.7,988.8,619.2,992.7z"/>
			<g>
				
					<ellipse transform="matrix(0.2372 -0.9715 0.9715 0.2372 -507.8345 1517.4418)" class="st20" cx="712.3" cy="1082.1" rx="9" ry="18.2"/>
				
					<ellipse transform="matrix(0.1436 -0.9896 0.9896 0.1436 -547.8098 1461.1805)" class="st20" cx="570.4" cy="1047.1" rx="7.8" ry="18.2"/>
			</g>
			<path class="st15" d="M600.5,1007.5c0,0-28.9-3.4-35.7-1.5s-8.2,4.1-8.2,4.1s-1.5,4,12.3,4.1c13.8,0.1,27.6,2,27.6,2
				s6.6,1.6,7.7-2.8S600.5,1007.5,600.5,1007.5z"/>
			
				<ellipse transform="matrix(5.244264e-02 -0.9986 0.9986 5.244264e-02 -431.7311 1631.6023)" class="st21" cx="643.9" cy="1043.3" rx="27.8" ry="34.7"/>
			<path class="st15" d="M626.8,1038l0.8-5c0.7-4.1,5.7-6.1,9.9-5.4l18,3.6c4.1,0.7,7.1,3.4,6.4,7.5l-0.8,5
				C654.5,1056.1,626.5,1047.6,626.8,1038z"/>
			<path class="st15" d="M706.5,1030.2c0,0,21.8,9.9,25.8,14.5c4,4.6,3.5,8.4,3.5,8.4s-1.1,3.5-11.8-3
				c-10.6-6.5-22.2-11.7-22.2-11.7s-6-2-4.3-5.6C699.3,1029.2,706.5,1030.2,706.5,1030.2z"/>
			<path class="st19" d="M737.1,1013.5c-0.6,4.7-5.1,7.4-10.7,7.7c-0.8,0-20.4-2.3-21.3-2.4c-1.5-0.2-2.9,0.1-4.2-0.5
				c-4.5-1.9-7.4-5.9-6.9-10.1c0.5-4.4,4.5-7,9.7-7.6c1.2-0.1,2.4-0.8,3.7-0.6c1.6,0.2,21.7,3.5,23,4.1
				C734.7,1006.1,737.6,1009.4,737.1,1013.5z"/>
			<path class="st16" d="M684.5,892.8c-0.5-2.2-1.1-4.4-1.6-6.8c-9.6-2.6-18.6-6.2-27.5-6.3c-8.8-0.4-16.9,0.9-25.9,2.4
				c-9.5,2.7-16.7,9.9-15.7,18.6c0.6,5.9-0.3,11.1-0.2,17.3l40,22.9c9.8,4.9,17.5,7.7,17.6,4.6l-0.1-0.7c0.1,0.3,0.1,0.5,0.1,0.7
				l0,0.2c0,0,8.3,6.1,10,1.4l0.1,0C681.3,947.2,699.3,955.1,684.5,892.8z"/>
			<path class="st11" d="M610,916.6c0,0,71.8,45.3,59.5,26.1"/>
			<path class="st11" d="M670.9,946.4c0,0,12.8,9.5,9.8-4.2"/>
			<path class="st16" d="M671.2,945.6c0-0.2,0-0.4-0.1-0.7L671.2,945.6z"/>
			<path class="st22" d="M613.6,917.2c16.5,9.5,27.7,16.4,27.7,16.4l-25-42.5c-1.9,2.8-2.8,6.1-2.4,9.6
				C614.3,906.3,613.6,911.4,613.6,917.2z"/>
			<path class="st11" d="M681.1,947.8c0,0,17.9,7.9,3.2-54.4c-0.5-2.3-1.1-4.7-1.7-7.3"/>
			<path class="st23" d="M551.8,724.9c0,0,40.6-15.1,92.2,17.1l42.6-23c0,0,42.7,6.3-3.3,76l6.8,6.7l-6.1,8c0,0,33.4,77.2-35.4,108
				s-138-7.7-138-7.7s-55.7-45.7-59-53.8l-3.4-12.2l14.9-10.1c0,0,3.9-28,18.3-55.2l-5.6-5.1l8.9-4.3c0,0-4.6-51.2,13-71.1
				C497.3,698.4,489.7,688.6,551.8,724.9z"/>
			<path class="st15" d="M548.2,874.7c-1.4,0-2.8-0.4-4.1-1.2l-25.5-16.4c-3.5-2.2-4.5-6.9-2.2-10.4c2.2-3.5,6.9-4.5,10.4-2.2
				l25.5,16.4c3.5,2.2,4.5,6.9,2.2,10.4C553.1,873.5,550.6,874.7,548.2,874.7z"/>
			<path class="st15" d="M640.6,878.7c-2.2,0-4.4-1-5.9-2.9c-2.6-3.3-2-8,1.2-10.5l16.9-13.3c3.3-2.6,8-2,10.5,1.2
				c2.6,3.3,2,8-1.2,10.5l-16.9,13.3C643.9,878.1,642.3,878.7,640.6,878.7z"/>
			
				<ellipse transform="matrix(0.5597 -0.8287 0.8287 0.5597 -451.9781 824.8399)" class="st22" cx="550.2" cy="837.7" rx="9.8" ry="12.3"/>
			<path class="st22" d="M509.2,908c0,0-19.1-11.8-17.5-27.1c1.9-18.3,33.3-6.5,33.3-6.5s8.7,5.1,37.6,10.9
				c28.9,5.8,63.2,8.5,63.2,8.5s26.7-7.9,36.5-12.3c7.1-3.2,15.2-3.9,17.2-1.8c1.7,1.8,5.1,3.9-3.4,16.4c0,0-27.8,30-73.6,33.4
				C554.9,933,509.2,908,509.2,908z"/>
			
				<ellipse transform="matrix(0.6397 -0.7686 0.7686 0.6397 -414.0579 792.3461)" class="st22" cx="638.1" cy="837.8" rx="11.1" ry="9.8"/>
			<path class="st22" d="M519.7,762.2c-2.5,1.2-5.2,3.6-8,1.9c-1.5-0.9-10.1,15.4-11.4,14.4c-23.4-17-7.2-85.2,5.6-69.2
				c13.5,11.1,21.5,28.2,26.7,38.7c-2.7-0.1-5.6-1.4-7.5-3.3c-1.2,0.3-0.9,2-0.1,3.1s1.9,2.3,1.7,3.4c-0.3,1.5-2.5,1.6-4.1,2.1
				C518.8,754.5,517.2,759,519.7,762.2z"/>
			
				<ellipse transform="matrix(1.433977e-02 -0.9999 0.9999 1.433977e-02 -308.4522 1486.9821)" class="st21" cx="600" cy="899.9" rx="27.8" ry="34.7"/>
			<path class="st15" d="M588.8,902.5l-0.1-5.1c-0.1-4.2,4.5-7,8.7-7.1l18.3,0.3c4.2-0.1,7.6,2,7.7,6.2l0.1,5.1
				C619.3,915.2,590.2,912,588.8,902.5z"/>
			<g>
				<path class="st16" d="M499.3,865c-5.8-49.1-63.7-27-63.7-27s-76.1,63.4-12.8,111.1c63.3,47.7,85.9-17.1,85.9-17.1
					s-53.3-22.3-37.7-18.6C487.8,917.4,501.7,884.5,499.3,865z"/>
				<path class="st22" d="M398.8,901.4c0,0,1.4-6.7,4.9-5.2c3.5,1.5,0.7,16.8,13.5,28.5c12.8,11.7,39.9,21.9,39.9,21.9
					s36.1,1.7,48.4-14.4c12.3-16.1,2.8,0.3,2.8,0.3s-16.3,46.9-60.1,31.6c-7.7-2.7-16.3-7.3-25.7-14.4
					c-18.8-14.1-24.3-33.4-23.6-48.6L398.8,901.4z"/>
				<path class="st11" d="M508.4,932.5c0,0-16.3,46.9-60.1,31.6c-7.7-2.7-16.3-7.3-25.7-14.4c-41.5-31.3-19.9-70.1-3.7-94.5
					c18.4-27.9,77.4-38.7,78.8,10.7c1.3,47.3-26.5,47.8-26.5,47.8"/>
			</g>
			<path class="st16" d="M495.9,918.1c-0.8,13.6-4.2,26.2,15.9,30.6c6.3,1.7,10,2.5,10,2.5s48.9,5.6,34.8-6.4l3,2.2
				c0,0,13.4,4.2,10.2-3.5l2.1-3.3l-4.5-9.9C536.4,898.3,504.5,885.9,495.9,918.1z"/>
			<g>
				
					<ellipse transform="matrix(0.4684 -0.8835 0.8835 0.4684 -500.5032 923.7211)" class="st24" cx="517.3" cy="877.8" rx="7.8" ry="18.2"/>
				
					<ellipse transform="matrix(0.899 -0.4378 0.4378 0.899 -318.3862 380.5873)" class="st24" cx="666.2" cy="880.8" rx="18.2" ry="7.8"/>
			</g>
			<path class="st11" d="M502.5,905.1c0,0,17.8-13.6,42.2,5.9c17.5,14,32.6,30.6,24.1,32.3"/>
			<path class="st11" d="M504.6,947.3c10.6,3,17.2,4.5,17.2,4.5s48.9,5.6,34.8-6.4"/>
			<path class="st11" d="M558.4,946.8c0,0,14.2,4.4,9.9-4.2"/>
		</g>
	</g>
</g>
</svg>
