<svg width="288" height="122" xmlns="http://www.w3.org/2000/svg">
 <style type="text/css">.st0{fill:#BCF7B7;stroke:#FFF8CC;stroke-width:5;stroke-miterlimit:10;}
	.st1{fill:#643527;stroke:#FFF8CC;stroke-width:5;stroke-miterlimit:10;}</style>

 <g>
  <title>background</title>
  <rect fill="none" id="canvas_background" height="124" width="290" y="-1" x="-1"/>
 </g>
 <g>
  <title>Layer 1</title>
  <g stroke="null" id="svg_57">
   <g stroke="null" id="svg_58">
    <path stroke="null" id="svg_59" d="m246.083366,7l-206.166718,0c-20.214103,0 -36.616648,16.510738 -36.616648,36.858176l0,33.883656c0,20.347437 16.402545,36.858176 36.616648,36.858176l206.166718,0c20.214103,0 36.616648,-16.510738 36.616648,-36.858176l0,-33.883656c0,-20.347437 -16.402545,-36.858176 -36.616648,-36.858176z" class="st0"/>
   </g>
   <g stroke="null" id="svg_60">
    <g stroke="null" id="svg_61">
     <path stroke="null" id="svg_62" d="m88.182101,45.582535c2.269804,0 3.640252,0.086218 4.111343,0.301763c0.642397,0.258654 2.997854,3.017628 7.066371,8.233815c1.199142,1.551923 1.841539,2.284776 1.927192,2.284776c0.171306,0 0.813703,-0.819071 2.012845,-2.457212c3.725905,-5.000641 5.824402,-7.630289 6.33832,-7.802725c0.556744,-0.172436 1.541754,-0.301763 2.955028,-0.301763c1.113489,0 2.184151,0.043109 3.211987,0.172436l0.342612,0.043109c1.027836,0.129327 1.627407,0.344872 1.755886,0.732853c0.299785,0.517308 0.471091,2.414103 0.513918,5.647276l0,0.86218c0.042826,0.905289 0.042826,3.3625 0.042826,7.371635c0,6.983654 -0.085653,11.208334 -0.299785,12.63093c-0.171306,0.905289 -0.471091,1.465705 -0.85653,1.595032c-0.428265,0.258654 -1.498927,0.43109 -3.211987,0.474199l-0.813703,0l-0.813703,0.043109c-2.141324,0 -3.511772,-0.215545 -4.154169,-0.689744l-0.513918,-0.344872l0.042826,-6.035257c0,-0.86218 0,-1.595032 0.042826,-2.11234l0,-1.595032c0,-1.508814 -0.085653,-2.241667 -0.214132,-2.241667c-0.171306,0 -1.070662,1.293269 -2.783722,3.922917c-1.541754,2.457212 -2.526763,3.79359 -2.912201,4.009135c-0.256959,0.172436 -0.642397,0.301763 -1.156315,0.301763c-0.642397,0 -1.113489,-0.129327 -1.413274,-0.387981c-0.299785,-0.258654 -0.770877,-0.948398 -1.413274,-2.155449c-0.471091,-0.86218 -1.113489,-1.939904 -1.970018,-3.190064c-0.85653,-1.25016 -1.370448,-1.853686 -1.498927,-1.853686c-0.085653,0 -0.171306,1.896795 -0.214132,5.690385l-0.042826,5.690385l-0.685224,0.517308c-0.385438,0.344872 -0.770877,0.517308 -1.156315,0.517308l-1.199142,-0.129327c-0.256959,-0.043109 -1.070662,-0.086218 -2.398283,-0.172436c-1.670233,-0.086218 -2.912201,-0.172436 -3.725905,-0.215545c-0.214132,-0.043109 -0.599571,-0.086218 -1.113489,-0.086218c-0.513918,0 -0.813703,-0.172436 -0.899356,-0.474199c-0.085653,-0.301763 -0.128479,-0.86218 -0.128479,-1.724359l0,0.560417l0.128479,-5.992148c0.042826,-4.22468 0.085653,-8.621796 0.171306,-13.148238c0.085653,-4.569552 0.171306,-6.983654 0.214132,-7.242308c0.171306,-0.474199 0.428265,-0.775962 0.685224,-0.905289c0.385438,-0.258654 1.71306,-0.344872 4.02569,-0.344872z" class="st1"/>
     <path stroke="null" id="svg_63" d="m134.134924,47.04824l0.72805,0c1.541754,0.086218 2.783722,0.344872 3.725905,0.819071c0.899356,0.474199 2.055671,1.379487 3.383293,2.715866c2.055671,2.069231 3.383293,4.310898 3.940037,6.681892c0.171306,0.948398 0.299785,1.767468 0.299785,2.414103c0,2.327885 -0.385438,3.664263 -1.156315,3.966026l-9.464654,0c-2.997854,0 -4.496781,0 -4.496781,0.043109c0,0.474199 0.428265,0.948398 1.327621,1.465705c0.85653,0.517308 1.884366,0.905289 3.083507,1.163942c0.642397,0.129327 1.241968,0.172436 1.755886,0.172436c0.85653,0 2.055671,-0.215545 3.468946,-0.689744c1.113489,-0.301763 1.798713,-0.474199 2.098498,-0.474199c0.385438,0 0.685224,0.129327 0.899356,0.344872c0.256959,0.387981 0.685224,1.077724 1.199142,2.11234c0.513918,1.034615 0.813703,1.767468 0.813703,2.198558c0,0.86218 -0.685224,1.68125 -2.098498,2.457212c-1.370448,0.86218 -2.826548,1.422596 -4.325475,1.767468c-1.498927,0.344872 -3.29764,0.517308 -5.353311,0.517308c-2.526763,0 -4.453955,-0.215545 -5.824402,-0.689744s-2.826548,-1.465705 -4.411128,-2.974519c-1.541754,-1.551923 -2.612416,-3.017628 -3.211987,-4.483334c-0.556744,-1.465705 -0.85653,-3.146955 -0.85653,-5.129968c0,-2.155449 0.299785,-4.095353 0.942183,-5.862821c0.642397,-1.767468 1.798713,-3.405609 3.554599,-4.871314c1.841539,-1.595032 4.154169,-2.758975 6.980718,-3.405609c0.985009,-0.129327 1.970018,-0.258654 2.997854,-0.258654zm-0.171306,7.845834c-0.85653,0 -1.58458,0.258654 -2.184151,0.732853c-0.642397,0.517308 -0.942183,1.120833 -0.985009,1.896795l-0.042826,0.689744l2.783722,0.172436l2.355457,0.129327l0.299785,0c0.171306,0 0.256959,0 0.299785,-0.043109l0.128479,0l0.128479,0c0.171306,-0.043109 0.214132,-0.258654 0.214132,-0.689744c0,-0.517308 -0.128479,-0.991506 -0.342612,-1.422596c-0.556744,-0.991506 -1.413274,-1.465705 -2.655242,-1.465705z" class="st1"/>
     <path stroke="null" id="svg_64" d="m165.826526,48.255292c2.612416,0 4.668087,0.732853 6.167014,2.198558c1.498927,1.465705 2.569589,3.276282 3.211987,5.517949c0.299785,1.034615 0.471091,4.095353 0.513918,9.182212l0,3.621154c0,2.629648 -0.128479,4.095353 -0.342612,4.310898c-0.171306,0.215545 -0.471091,0.344872 -0.899356,0.387981c-0.471091,0.086218 -1.841539,0.129327 -4.111343,0.172436l-4.668087,0.129327l-0.214132,-0.517308c-0.042826,-0.172436 -0.171306,-2.026122 -0.342612,-5.561058c-0.042826,-2.888302 -0.171306,-5.086859 -0.385438,-6.595674c-0.214132,-1.120833 -0.685224,-2.026122 -1.327621,-2.758975c-0.342612,-0.344872 -0.813703,-0.517308 -1.370448,-0.517308c-2.783722,0 -4.154169,2.629648 -4.154169,7.888943c0,1.508814 0,2.500321 0.042826,3.060737c0.042826,0.732853 0.042826,1.896795 0.042826,3.491827c0,0.991506 -0.042826,1.551923 -0.171306,1.68125s-1.199142,0.215545 -3.211987,0.301763c-2.055671,0.086218 -3.811558,0.129327 -5.353311,0.129327c-0.599571,0 -1.027836,-0.043109 -1.241968,-0.129327c-0.214132,-0.086218 -0.342612,-0.258654 -0.428265,-0.517308c-0.085653,-0.258654 -0.128479,-0.732853 -0.171306,-1.422596c-0.042826,-0.474199 -0.042826,-2.198558 -0.042826,-5.216186l-0.042826,-5.173077l0,-5.776603l-0.042826,-4.138462c0,-1.077724 0.085653,-1.810577 0.214132,-2.284776c0.128479,-0.43109 0.428265,-0.732853 0.813703,-0.86218c0.428265,-0.129327 1.113489,-0.215545 2.098498,-0.215545l2.869375,0c2.098498,0 3.383293,0.086218 3.811558,0.301763c0.385438,0.172436 0.556744,0.775962 0.556744,1.853686c0,0.905289 0.042826,1.379487 0.171306,1.379487s0.556744,-0.344872 1.327621,-1.077724c1.327621,-1.207051 2.740895,-2.069231 4.154169,-2.457212c0.813703,-0.258654 1.670233,-0.387981 2.526763,-0.387981z" class="st1"/>
     <path stroke="null" id="svg_65" d="m181.201235,48.600163c3.511772,0 5.438964,0.172436 5.824402,0.560417c0.085653,0.086218 0.128479,0.517308 0.128479,1.25016c0,0.905289 -0.042826,2.026122 -0.128479,3.319391c-0.085653,1.293269 -0.128479,2.672757 -0.128479,4.095353c0,2.974519 0.214132,5.129968 0.642397,6.423238c0.428265,1.293269 1.284795,1.939904 2.526763,1.939904c1.070662,0 1.884366,-0.560417 2.44111,-1.68125c0.72805,-1.336378 1.113489,-4.354007 1.156315,-9.009776c0.128479,-3.879808 0.256959,-5.862821 0.385438,-6.035257c0.171306,-0.172436 0.985009,-0.387981 2.355457,-0.560417c1.370448,-0.172436 2.698069,-0.301763 3.982863,-0.301763c0.985009,0 1.798713,0.043109 2.398283,0.129327c0.599571,0.086218 1.027836,0.301763 1.199142,0.603526c0.428265,0.603526 0.642397,3.578045 0.642397,8.923558c0,9.828847 -0.171306,15.088142 -0.471091,15.820995c-0.214132,0.560417 -1.113489,0.86218 -2.698069,0.86218c-0.642397,0 -1.884366,-0.086218 -3.768731,-0.215545c-0.642397,0 -1.156315,-0.043109 -1.541754,-0.086218c-0.385438,-0.043109 -0.72805,-0.129327 -1.070662,-0.258654c-0.385438,-0.129327 -0.642397,-0.258654 -0.813703,-0.43109s-0.342612,-0.43109 -0.471091,-0.819071c-0.299785,-0.732853 -0.642397,-0.86218 -0.985009,-0.474199c-0.214132,0.258654 -0.942183,0.646635 -2.184151,1.163942c-1.199142,0.517308 -2.226977,0.819071 -2.955028,0.991506c-0.513918,0.086218 -1.113489,0.129327 -1.71306,0.129327c-1.58458,0 -3.083507,-0.344872 -4.453955,-0.991506c-1.370448,-0.689744 -2.398283,-1.595032 -3.083507,-2.715866c-0.256959,-0.474199 -0.599571,-1.336378 -1.027836,-2.629648c-0.299785,-1.293269 -0.471091,-2.974519 -0.471091,-5.000641l0,-2.93141c0.085653,-7.414744 0.556744,-11.337661 1.413274,-11.725642c0.471091,-0.258654 1.413274,-0.344872 2.869375,-0.344872z" class="st1"/>
    </g>
   </g>
  </g>
 </g>
</svg>