<?xml version="1.0" encoding="utf-8"?>
<!-- Generator: Adobe Illustrator 21.0.0, SVG Export Plug-In . SVG Version: 6.00 Build 0)  -->
<svg version="1.1" id="Capa_1" xmlns="http://www.w3.org/2000/svg" xmlns:xlink="http://www.w3.org/1999/xlink" x="0px" y="0px"
	 viewBox="0 0 1319 1952" style="enable-background:new 0 0 1319 1952;" xml:space="preserve">
<style type="text/css">
	.st0{fill:#C14C40;stroke:#A94C40;stroke-width:16;stroke-miterlimit:10;}
	.st1{fill:#FFFFFF;stroke:#FFFFC4;stroke-width:16;stroke-miterlimit:10;}
	.st2{fill:#F4E4E4;stroke:#D6EAF2;stroke-width:16;stroke-miterlimit:10;}
	.st3{fill:#B4C0D7;stroke:#D6EAF2;stroke-width:16;stroke-miterlimit:10;}
	.st4{fill:#FDFBFB;stroke:#D6EAF2;stroke-width:16;stroke-miterlimit:10;}
	.st5{fill:#A3B0C9;stroke:#D6EAF2;stroke-width:16;stroke-miterlimit:10;}
	.st6{fill:#CBDEFF;stroke:#D6EAF2;stroke-width:16;stroke-miterlimit:10;}
	.st7{fill:#C8D9F9;stroke:#D6EAF2;stroke-width:16;stroke-miterlimit:10;}
	.st8{fill:#C0D3F4;stroke:#D6EAF2;stroke-width:16;stroke-miterlimit:10;}
	.st9{fill:#93A6C4;stroke:#D6EAF2;stroke-width:16;stroke-miterlimit:10;}
	.st10{fill:#BBC9E1;stroke:#D6EAF2;stroke-width:16;stroke-miterlimit:10;}
	.st11{fill:#FAF4F5;stroke:#D6EAF2;stroke-width:16;stroke-miterlimit:10;}
</style>
<g>
	<g>
		<path class="st0" d="M397.1,38c-1.5,2.4-2.2,4.9-2.2,7.4c0,25.6,78,46.5,176.7,48.2v72.7h22.3V93.8
			c100.5-1.2,180.4-22.4,180.4-48.3c0-2.5-0.8-5-2.2-7.4H397.1z"/>
		<path class="st1" d="M359.5,218.4c0,0-3.7-40.9,219.5-37.2s234.4,37.2,234.4,37.2v416.6c0,0-42.8,40.9-230.7,40.9
			c-208.4,0-225.1-40.9-225.1-40.9L359.5,218.4z"/>
	</g>
	<g>
		<path class="st2" d="M1337.9,1531.9c0,0,98.1-116.4,134.7-127.8c36.5-11.4,70.8-25.1,111.8-25.1c41.1,0,45.6,0,45.6,0
			s52.5,4.6,20.5,25.1c-32,20.5-27.4,11.4-27.4,11.4s50.2,34.2,47.9,73c0,0,43.4,20.5,36.5,32c-6.8,11.4-57.1,22.8-57.1,22.8
			s-89,68.5-159.8,73c0,0-36.5,47.9-57.1,36.5c-20.5-11.4-22.8-32-22.8-32s-50.2-11.4-63.9-27.4S1299.1,1600.4,1337.9,1531.9z"/>
		<path class="st3" d="M1657.4,1315.1c0,0-41.1,32-20.5,47.9c20.5,16,29.7,11.4,29.7,11.4s73,86.7,248.8,59.3
			c175.7-27.4,150.6-134.7,150.6-134.7s41.1-32-9.1-41.1c0,0-143.8-45.6-210,0c0,0-9.1,18.3-54.8,6.8S1657.4,1315.1,1657.4,1315.1z"
			/>
		<path class="st4" d="M2379.3,1474.6l-1.3,1.7c-8.4-21.5-30.3-61.2-85.8-107.2c-52-43.1-122.5-53-168.4-54.3
			c9.5-37.8-46.8,0.6-46.8,0.6l1.1,0.8c-0.8,0.1-1.3,0.1-1.3,0.1s-35.9,14.4-112.5,40.7c-1.4,0.5-2.7,1-4.1,1.5l0.3-1
			c-93.3-5.1-35.4,63.4-25.2,74.7c2.9,3.9,5.1,6.2,5.1,6.2c99.6,134.6,198.8,123,219.3,163.5c9.3,18.3,25.3,29.7,32.4,32.3
			c6.3,2.3,16-29.4,36.6-43.8c41.6-29.1,106.6-56.9,130.9-77C2426.6,1548.1,2379.3,1474.6,2379.3,1474.6z"/>
		<path class="st5" d="M1561.6,1504.5c0,0,180.3,187.2,319.5,171.2c0,0,146.1-91.3,146.1-134.7c0-43.4-121-148.4-182.6-148.4
			c0,0-132.4-32-187.2,0c-54.8,32-95.9,75.3-95.9,75.3S1504.5,1493.1,1561.6,1504.5z"/>
		<path class="st6" d="M2375.8,1515.9c0,0-99.6-33.7-157.1,16.9c0,0-105.3,38.8-99.4,77.4s50.8,77,50.8,77s81.8,167.9,93.6,172.8
			c11.8,5,114.4,31.7,151,30.5s89.5-34.4,89.5-34.4s76.5-23.2,29.9-70.7c0,0-59.4-247.3-111.5-255.4L2375.8,1515.9z"/>
		<path class="st7" d="M2000.2,1505.4c0,0-180.1,117.1-168.8,202.6c11.3,85.5,65.3,119.3,65.3,119.3l261.1,18
			c0,0,90-78.8,101.3-171.1c0,0,29.3-40.5,22.5-83.3c-6.8-42.8-166.6-45-166.6-45S2067.7,1503.1,2000.2,1505.4z"/>
		<path class="st8" d="M2154.4,1711.3c0,0-87.8-40.5-216.1,54c0,0-66.7,19.7,119.3,108c111.4,52.9,306.1,6.8,306.1,6.8
			s65.3-24.8,94.5-81s-15.8-45-15.8-45s-36-76.5-186.8-36C2255.7,1718.1,2226.4,1731.6,2154.4,1711.3z"/>
		<path class="st9" d="M1229.9,1760.7c0,0,89.1-233.6,296.2-221.6s207.1,110.8,207.1,110.8s36.1,19.3,9.6,31.3s-26.5,4.8-26.5,4.8
			s-60.2,98.7-101.1,122.8c0,0-12,55.4-31.3,60.2s-24.1,14.4-65,7.2c0,0-175.8,21.7-252.9-33.7
			C1189,1787.2,1229.9,1760.7,1229.9,1760.7z"/>
		<path class="st10" d="M1909.4,1678.4c-11.2-21.2-32.7-51.4-73.5-85.3c-51.6-42.7-122.4-50.7-165.2-51.2c3.1-32.8-28-4.9-34.5,1.3
			c-1.9,0.2-2.9,0.3-2.9,0.3s-33.8,13.5-105.8,38.3c-3.4,1.2-6.5,2.4-9.4,3.7c-16.2,1.1-107.3,10.2-22.5,64.2l9.4,8.7
			c107.3,144.9,213,140.3,259.2,140.2c9.9,41.4,24.5,15.6,30.9,0.9c21.7-6.3,61.3-35.9,90.4-59.3
			C1908.4,1739.7,1984,1733.8,1909.4,1678.4z"/>
		<path class="st11" d="M2019.9,1745.6c-15.6-7-43.9-9.5-99.6-27.6c-76.5-24.8-175.6,2.3-175.6,2.3s-93.4-39.4-227.4,20.3
			c-5.8,2.6-10.6,5.2-14.7,7.8c-15.2-0.5-82.1-0.9-15.3,37.8c34.1,50.1,169.5,98.5,169.5,98.5c297.1,22.5,347.8-12.4,387.6-82.6
			C2059.1,1781.4,2089.3,1730.7,2019.9,1745.6z"/>
	</g>
	<g>
		<path class="st2" d="M826,1104.8c0,0-144.7,47.3-181.8,37.7c-37.1-9.5-73.4-15.9-108.3-37.5s-38.8-24-38.8-24s-42.2-31.5-4.2-32.2
			s29.3,4.7,29.3,4.7s-24.7-55.5-2.3-87.3c0,0-26.1-40.3-14.2-46.4c11.8-6.1,60.5,10.6,60.5,10.6s111.7-11.3,174.3,22
			c0,0,56.3-21.5,67.7-1c11.5,20.5,2.6,39.2,2.6,39.2s36.7,36.1,39.9,56.9C853.9,1068.4,895,1067,826,1104.8z"/>
		<path class="st3" d="M599.4,1157.1c0,0-41.1,32-20.5,47.9c20.5,16,29.7,11.4,29.7,11.4s73,86.7,248.8,59.3
			c175.7-27.4,150.6-134.7,150.6-134.7s41.1-32-9.1-41.1c0,0-143.8-45.6-210,0c0,0-9.1,18.3-54.8,6.8
			C688.4,1095.5,599.4,1157.1,599.4,1157.1z"/>
		<path class="st6" d="M497.8,947.9c0,0-99.6-33.7-157.1,16.9c0,0-105.3,38.8-99.4,77.4s50.8,77,50.8,77s81.8,167.9,93.6,172.8
			c11.8,5,114.4,31.7,151,30.5s89.5-34.4,89.5-34.4s76.5-23.2,29.9-70.7c0,0-59.4-247.3-111.5-255.4L497.8,947.9z"/>
	</g>
	<path class="st8" d="M1781.4,126.3c0,0-87.8-40.5-216.1,54c0,0-66.7,19.7,119.3,108c111.4,52.9,306.1,6.8,306.1,6.8
		s65.3-24.8,94.5-81s-15.8-45-15.8-45s-36-76.5-186.8-36C1882.7,133.1,1853.4,146.6,1781.4,126.3z"/>
	<g>
		<path class="st9" d="M1301.9,800.7c0,0,89.1-233.6,296.2-221.6s207.1,110.8,207.1,110.8s36.1,19.3,9.6,31.3s-26.5,4.8-26.5,4.8
			s-60.2,98.7-101.1,122.8c0,0-12,55.4-31.3,60.2s-24.1,14.4-65,7.2c0,0-175.8,21.7-252.9-33.7
			C1261,827.2,1301.9,800.7,1301.9,800.7z"/>
		<path class="st10" d="M2093.4,781.4c-11.2-21.2-32.7-51.4-73.5-85.3c-51.6-42.7-122.4-50.7-165.2-51.2c3.1-32.8-28-4.9-34.5,1.3
			c-1.9,0.2-2.9,0.3-2.9,0.3s-33.8,13.5-105.8,38.3c-3.4,1.2-6.5,2.4-9.4,3.7c-16.2,1.1-107.3,10.2-22.5,64.2l9.4,8.7
			c107.3,144.9,213,140.3,259.2,140.2c9.9,41.4,24.5,15.6,30.9,0.9c21.7-6.3,61.3-35.9,90.4-59.3
			C2092.4,842.7,2168,836.8,2093.4,781.4z"/>
		<path class="st11" d="M1450.1,922.4c15.6,7,43.9,9.5,99.6,27.6c76.5,24.8,175.6-2.3,175.6-2.3s93.4,39.4,227.4-20.3
			c5.8-2.6,10.6-5.2,14.7-7.8c15.2,0.5,82.1,0.9,15.3-37.8c-34.1-50.1-169.5-98.5-169.5-98.5c-297.1-22.5-347.8,12.4-387.6,82.6
			C1410.8,886.6,1380.7,937.3,1450.1,922.4z"/>
	</g>
	<g>
		<path class="st5" d="M625.3,1625.7c0,0,136.9,220.9,276.4,234.6c0,0,162-58.5,171.1-100.9c9.1-42.4-87.1-170.5-147.3-183.5
			c0,0-122.7-59.1-183-39.4C682.3,1556.3,633,1590,633,1590S571.9,1602.6,625.3,1625.7z"/>
		<path class="st7" d="M373.2,1517.4c0,0-180.1,117.1-168.8,202.6c11.3,85.5,65.3,119.3,65.3,119.3l261.1,18
			c0,0,90-78.8,101.3-171.1c0,0,29.3-40.5,22.5-83.3s-166.6-45-166.6-45S440.7,1515.1,373.2,1517.4z"/>
		<path class="st4" d="M852.3,1753.6l-1.3,1.7c-8.4-21.5-30.3-61.2-85.8-107.2c-52-43.1-122.5-53-168.4-54.3
			c9.5-37.8-46.8,0.6-46.8,0.6l1.1,0.8c-0.8,0.1-1.3,0.1-1.3,0.1s-35.9,14.4-112.5,40.7c-1.4,0.5-2.7,1-4.1,1.5l0.3-1
			c-93.3-5.1-35.4,63.4-25.2,74.7c2.9,3.9,5.1,6.2,5.1,6.2c99.6,134.6,198.8,123,219.3,163.5c9.3,18.3,25.3,29.7,32.4,32.3
			c6.3,2.3,16-29.4,36.6-43.8c41.6-29.1,106.6-56.9,130.9-77C899.6,1827.1,852.3,1753.6,852.3,1753.6z"/>
	</g>
</g>
</svg>
