<?xml version="1.0" encoding="utf-8"?>
<!-- Generator: Adobe Illustrator 21.0.0, SVG Export Plug-In . SVG Version: 6.00 Build 0)  -->
<svg version="1.1" id="Capa_1" xmlns="http://www.w3.org/2000/svg" xmlns:xlink="http://www.w3.org/1999/xlink" x="0px" y="0px"
	 viewBox="0 0 1319 1952" style="enable-background:new 0 0 1319 1952;" xml:space="preserve">
<style type="text/css">
	.st0{fill:#D0D2F7;}
	.st1{fill:#BDB3DE;}
	.st2{fill:none;stroke:#FFF8CC;stroke-width:35;stroke-linecap:round;stroke-linejoin:round;stroke-miterlimit:10;}
	.st3{fill:#FFE594;stroke:#643527;stroke-width:8;stroke-miterlimit:10;}
</style>
<g>
	<g>
		<rect x="-1" y="2.5" class="st0" width="121.6" height="1947"/>
		<rect x="112" y="2.5" class="st1" width="121.6" height="1947"/>
		<rect x="233.6" y="2.5" class="st0" width="121.6" height="1947"/>
		<rect x="355.2" y="2.5" class="st1" width="121.6" height="1947"/>
		<rect x="476.9" y="2.5" class="st0" width="121.6" height="1947"/>
		<rect x="598.5" y="2.5" class="st1" width="121.6" height="1947"/>
		<rect x="720.1" y="2.5" class="st0" width="121.6" height="1947"/>
		<rect x="841.8" y="2.5" class="st1" width="121.6" height="1947"/>
		<rect x="963.4" y="2.5" class="st0" width="121.6" height="1947"/>
		<rect x="1198.4" y="2.5" class="st0" width="121.6" height="1947"/>
		<rect x="1085" y="2.5" class="st1" width="121.6" height="1947"/>
	</g>
	<g>
		<g>
			<path class="st2" d="M475.4,497.5c8.8,0,13.7,0.1,14.6,0.2c1.2,0.3,2.3,0.9,3.3,1.8l2,2l-0.8,25.2c-0.4,10.2-0.6,19.4-0.6,27.6
				l-0.2,8.3c-0.1,1.1-0.2,2.5-0.2,4.3c0,2.2,0.3,3.8,0.8,4.8c0.5,1,1.6,1.7,3.3,2c1.6,0.3,4.2,0.5,7.7,0.5l15-0.2h4.7
				c4.2,0,7.1,0.2,8.6,0.5c1.6,0.3,2.5,1.2,2.9,2.4c0.4,1.3,0.6,3.7,0.6,7.2v4.3c0,6.8-0.3,11-0.8,12.8c-0.5,2.2-1.5,3.5-2.7,4.1
				c-1.3,0.5-4,0.8-8.2,0.8l-13.8-0.4h-4.3c-11.4-0.3-18.9-0.4-22.6-0.4h-8.5h-4.7c-1.2,0.1-2.5,0.2-3.9,0.2c-5.1,0-8.5-0.3-10.2-1
				c-1.6-0.7-2.5-2-2.6-3.9c-0.4-3.1-0.7-14.4-0.8-33.9V557c-0.1-2.6-0.2-5.3-0.2-8.3c0-16,0.8-29.3,2.4-40c0.5-3.9,1.3-6.6,2.1-7.9
				c0.9-1.4,2.5-2.3,5-2.8C464.4,497.6,468.4,497.5,475.4,497.5z"/>
			<path class="st2" d="M592.8,506.9h2.6c5.6,0.3,10,1.2,13.2,2.8c3.3,1.6,7.2,4.8,12,9.5c7.3,7.3,12,15.2,14,23.6
				c0.7,3.4,1,6.2,1,8.5c0,8.3-1.4,12.9-4.1,14h-33.7c-10.7,0-16,0.1-16,0.2c0,1.6,1.6,3.4,4.7,5.2c3.1,1.8,6.8,3.2,11,4.2
				c2.3,0.4,4.4,0.6,6.3,0.6c3.1,0,7.2-0.8,12.4-2.4c3.9-1.1,6.4-1.6,7.5-1.6c1.4,0,2.4,0.4,3.3,1.2c0.9,1.4,2.4,3.9,4.3,7.5
				c1.9,3.7,2.8,6.2,2.8,7.7c0,3-2.5,5.9-7.5,8.7c-4.9,3-10,5.1-15.3,6.3c-5.4,1.2-11.7,1.8-19,1.8c-8.9,0-15.8-0.8-20.7-2.4
				c-4.9-1.6-10.1-5.1-15.6-10.6c-5.6-5.4-9.3-10.7-11.4-15.8c-2-5.1-3-11.2-3-18.1c0-7.6,1.1-14.5,3.4-20.7
				c2.2-6.2,6.5-12,12.7-17.3c6.5-5.7,14.8-9.7,24.8-12C585.7,507.2,589.2,506.9,592.8,506.9z M592.2,534.5c-3,0-5.6,0.9-7.8,2.6
				c-2.2,1.8-3.4,4-3.6,6.7l-0.2,2.4l10,0.6l8.3,0.4h1c0.5,0,0.9-0.1,1-0.2h0.4h0.4c0.5-0.1,0.8-0.9,0.8-2.4c0-1.8-0.4-3.5-1.2-5.1
				C599.6,536.2,596.6,534.5,592.2,534.5z"/>
			<path class="st2" d="M714.3,513.2c1.6,0,5.3,0.8,11,2.5c5.7,1.7,9.5,3.1,11.4,4.2c1.9,1.2,2.8,2.9,2.8,5.1c0,2.2-1.5,6.5-4.5,13
				l-2.6,6.1c-2.8,6.2-4.7,10.5-5.5,12.8c-3.3,8-7.5,17.3-12.6,28c-5.1,10.7-8.3,16.7-9.3,17.9c-1.1,0.9-2.1,1.6-3,1.8
				c-1.1,0.3-3.6,0.5-7.5,0.6h-3c-12.3,0-20-1.1-23.2-3.5c-1.1-0.8-4.1-6.9-9-18.4c-4.9-11.4-9.5-23-13.8-34.7
				c-4.3-11.7-6.4-19.3-6.4-22.9c0-2,1.6-3.9,4.9-5.6c3.3-1.7,7-3.1,11.3-4.2c4.3-1.1,7.6-1.6,10.1-1.6c1.2,0,2.2,0.1,3,0.4
				c1.8,0.5,3.4,2.5,4.9,5.9c1.1,2.6,3.7,10.4,7.7,23.6c3.3,10.7,5,16.2,5.3,16.5l0.6-0.8c0.9-1.2,2-3.1,3-5.7
				c1.9-4.2,5.8-11.7,11.8-22.6c6-10.8,9.3-16.7,10.2-17.5C712.4,513.5,713.2,513.2,714.3,513.2z"/>
			<path class="st2" d="M790.9,506.9h2.6c5.6,0.3,10,1.2,13.2,2.8c3.3,1.6,7.2,4.8,12,9.5c7.3,7.3,12,15.2,14,23.6
				c0.7,3.4,1,6.2,1,8.5c0,8.3-1.4,12.9-4.1,14H796c-10.7,0-16,0.1-16,0.2c0,1.6,1.6,3.4,4.7,5.2c3.1,1.8,6.8,3.2,11,4.2
				c2.3,0.4,4.4,0.6,6.3,0.6c3.1,0,7.2-0.8,12.4-2.4c3.9-1.1,6.4-1.6,7.5-1.6c1.4,0,2.4,0.4,3.3,1.2c0.9,1.4,2.4,3.9,4.3,7.5
				c1.9,3.7,2.8,6.2,2.8,7.7c0,3-2.5,5.9-7.5,8.7c-4.9,3-10,5.1-15.3,6.3c-5.4,1.2-11.7,1.8-19,1.8c-8.9,0-15.8-0.8-20.7-2.4
				c-4.9-1.6-10.1-5.1-15.6-10.6c-5.6-5.4-9.3-10.7-11.4-15.8c-2-5.1-3-11.2-3-18.1c0-7.6,1.1-14.5,3.4-20.7
				c2.2-6.2,6.5-12,12.7-17.3c6.5-5.7,14.8-9.7,24.8-12C783.7,507.2,787.3,506.9,790.9,506.9z M790.3,534.5c-3,0-5.6,0.9-7.8,2.6
				c-2.2,1.8-3.4,4-3.6,6.7l-0.2,2.4l10,0.6l8.3,0.4h1c0.5,0,0.9-0.1,1-0.2h0.4h0.4c0.5-0.1,0.8-0.9,0.8-2.4c0-1.8-0.4-3.5-1.2-5.1
				C797.7,536.2,794.6,534.5,790.3,534.5z"/>
			<path class="st2" d="M849.8,494.1h4.9c10.4,0.1,16.1,1.6,17.1,4.3c0.4,2.4,0.7,19.4,0.8,51v26.4c0,11.5-0.1,19.2-0.4,23
				c-0.1,3-0.9,4.7-2.2,5.1c-1.8,0.4-6.2,0.7-13.4,0.8c-1.4,0.1-3.9,0.2-7.5,0.2c-3.8,0-6.4-0.3-7.8-0.9c-1.4-0.6-2.2-1.5-2.4-2.6
				c-0.2-1.1-0.3-3.5-0.3-7l0.2-4.5v-5.3c0-1.9,0.1-3.6,0.2-5.1v-5.3c0-6.8-0.2-12.5-0.6-17.1c-0.9-11.4-1.4-22.5-1.4-33.3
				c0-7.4,0.4-14,1.1-19.7c0.7-5.7,2.1-8.9,4-9.5C843.3,494.2,845.9,494.1,849.8,494.1z"/>
			<path class="st2" d="M273.9,660.2c8.8,0,17.6,1.4,26.4,4.1c3.9,1.2,6.6,2.4,8.1,3.7c1.5,1.2,2.2,2.8,2.2,4.7
				c0,1.5-1.1,5.1-3.1,10.9c-2.1,5.8-4,10.3-5.8,13.5c-0.5,1.4-1.5,2-2.8,2c-0.8,0-2.5-0.5-5.1-1.6c-5.3-2.3-10.5-3.5-15.6-3.5h-1.2
				l-1,0.2c-3.9,0.5-7.8,2.2-11.7,5.1s-6.7,6.1-8.4,9.8c-1.5,3.3-2.2,6.8-2.2,10.8c0,6.9,1.9,12.4,5.8,16.5c3.9,4.1,10.2,6.1,19,6.1
				c5.3,0,10.2-1,14.6-3c1.8-0.9,3.7-1.4,5.7-1.4c1.5,0,2.6,0.4,3.5,1.2c1.1,1.2,2.7,4.2,5,9c2.2,4.8,3.5,8,3.8,9.6
				c0.1,0.3,0.2,0.9,0.2,1.8c0,2.3-1.1,4.1-3.3,5.5c-2.2,1.6-6.4,3.5-12.8,5.5c-9.1,3.1-16.9,4.7-23.6,4.7h-3.7
				c-8.1-0.4-14.7-1.7-19.6-3.8c-4.9-2.1-10-5.8-15.1-11.1c-11.4-11.2-17.1-25.8-17.1-43.7c0-4.5,0.3-7.7,0.8-9.8
				c1.4-6.9,4.3-13.6,8.9-20c4.6-6.4,10.2-12,16.8-16.6c6.6-4.6,13.4-7.6,20.6-9.1C266.9,660.5,270.5,660.2,273.9,660.2z"/>
			<path class="st2" d="M361.4,673c4.6,0,9.1,0.3,13.4,1c10.2,1.9,18.8,5.9,26,12c7.2,6.1,11.6,13.2,13.2,21.3
				c0.4,1.8,0.6,4.1,0.6,6.9c0,8.3-1.3,15.5-3.8,21.8c-2.5,6.3-6.6,12.2-12.3,17.8c-5.3,5.1-10.7,8.7-16.3,10.7
				c-5.6,2-11.3,2.9-17.3,2.9c-10.4,0-19.9-2.5-28.4-7.5c-8.5-5-15.2-11.2-20-18.7c-4.8-7.4-7.2-14.6-7.2-21.3c0-2.2,0.3-5.4,1-9.8
				c4.5-21.8,16.9-33.9,37.4-36.4C352.7,673.2,357.2,673,361.4,673z M363.1,705.3c-1.9,0-3.5,0.5-4.9,1.4c-4.9,3-7.3,7.2-7.3,12.8
				c0,2,0.5,4.3,1.6,6.9c2.4,5,6.3,7.5,11.6,7.5c2.8,0,5.3-0.9,7.3-2.7c2-1.8,3.3-4.2,3.7-7c0.1-0.4,0.2-1.2,0.2-2.4
				c0-3.3-0.7-6.4-2.2-9.3c-1.5-3-3.3-5-5.5-6.1C365.9,705.6,364.4,705.3,363.1,705.3z"/>
			<path class="st2" d="M539.6,675.2c3.5,0,7.6,1.2,12.2,3.6c4.6,2.4,8.3,5.6,11,9.6c2.7,4.1,4.8,10.1,6.3,18.1
				c1.2,6.8,2.2,17.9,2.8,33.3c0.1,1.5,0.2,4.5,0.2,8.9c0,8.5-1.3,14.1-3.9,16.7l-2.2,2.2l-16-0.4l-12.4,0.2c-2,0-3.4-0.3-4.2-0.8
				c-0.7-0.5-1.2-1.6-1.4-3.1c-0.2-1.6-0.3-4.4-0.3-8.6c0-4.3-0.1-8-0.2-11c-0.4-14.1-1.1-23.3-2-27.6c-0.9-4.5-2.8-7-5.7-7.7
				c-0.3-0.1-0.8-0.2-1.6-0.2c-2.2,0-4.2,0.8-6.2,2.3c-2,1.6-3.4,3.6-4.4,6c-0.9,2.7-1.4,8.9-1.4,18.7c0,5.4,0.3,10.8,0.8,16
				l0.8,8.7c0,2-0.6,3.4-1.8,4.1c-1.1,0.4-4.1,0.7-8.9,1c-1.2,0.1-2.6,0.2-4.1,0.2l-11.6,0.4c-3.7,0-5.8-0.6-6.5-1.8
				c-0.7-2-2.2-15.1-4.7-39.2c-0.5-4.7-1.2-8.7-2-11.8c-0.5-2.2-1.6-3.3-3-3.3c-0.9,0-2.4,0.5-4.3,1.6c-3.3,1.9-5.4,5.1-6.3,9.5
				c-1.4,4.7-2.1,12.9-2.2,24.4c0,3.4-0.1,5.8-0.2,7.1c-0.1,6.9-0.6,11-1.4,12.2c-0.8,1.2-2.8,1.8-6.1,1.8s-6,0.1-8.3,0.2l-10.2,0.4
				c-5.4,0-8.7-1.1-10-3.5c-1.5-3.4-2.2-23.4-2.2-59.9l-0.2-15.2c0-3.8,0.5-6.4,1.4-7.8c0.9-1.4,2.7-2.3,5.4-2.6
				c2.6-0.3,7.5-0.5,14.7-0.5c7.3,0,11.9,0.4,13.8,1.2c2,0.9,3,2.6,3,4.9c0,0.9,0.3,1.4,0.8,1.4c0.5,0,2-0.8,4.5-2.4
				c6.8-4.3,14.2-6.5,22.3-6.5c10.6,0,18.5,3.2,23.8,9.5l2.6,3.3l4.5-3.7c5-4.1,10.6-7,16.9-8.9
				C533.8,675.5,536.5,675.2,539.6,675.2z"/>
			<path class="st2" d="M590.2,677.4h6.1c9.1,0.3,14.3,0.6,15.6,1c1.9,0.7,2.8,2.4,2.8,5.3c0,2.3,0.3,3.5,0.8,3.5l7.1-1.6
				c4.5-1.2,8.9-1.8,13.4-1.8c7.9,0,14.8,1.8,20.7,5.3c2.2,1.2,4.8,3.5,7.8,6.8c3,3.3,5.4,6.3,7,9c3.1,6,4.7,12.1,4.7,18.5
				c0,11.6-4.5,21.9-13.4,30.9c-4.5,4.5-8.6,7.6-12.5,9.4c-3.9,1.8-8.3,2.7-13.3,2.7c-4.5,0-11.2-1.4-20.1-4.3h-0.2
				c-0.7,0-1.2,5.3-1.4,15.8l-0.2,16.3l-2.2,2l-2.2,1.8l-15.2-0.2c-7.2-0.3-11.6-0.5-13.2-0.6c-1.9-0.3-3.1-0.7-3.7-1.4
				c-0.5-0.8-0.9-4.2-1.2-10.2c-0.1-3.9-0.2-19.7-0.2-47.3c0-37.4,0.2-56.7,0.6-57.9c0.5-1.2,1.4-2.1,2.6-2.6
				C581.8,677.6,585,677.4,590.2,677.4z M631.2,707.5c-1.5,0-2.8,0.2-4.1,0.6c-1.9,0.8-4,2.2-6.3,4.3L617,716l0.8,7.5
				c0.7,4.9,1.2,7.7,1.6,8.5c0.4,1.2,1.4,2.1,2.9,2.6c1.6,0.5,3.4,0.8,5.4,0.8c4.2,0,7.7-1.4,10.6-4.2c2.8-2.8,4.3-6.3,4.3-10.7
				c0-5.1-1.6-8.9-4.7-11.4C636.3,708.1,634.1,707.5,631.2,707.5z"/>
			<path class="st2" d="M693.2,656.1h4.9c10.4,0.1,16.1,1.6,17.1,4.3c0.4,2.4,0.7,19.4,0.8,51v26.4c0,11.5-0.1,19.2-0.4,23
				c-0.1,3-0.9,4.7-2.2,5.1c-1.8,0.4-6.2,0.7-13.4,0.8c-1.4,0.1-3.9,0.2-7.5,0.2c-3.8,0-6.4-0.3-7.8-0.9c-1.4-0.6-2.2-1.5-2.4-2.6
				c-0.2-1.1-0.3-3.5-0.3-7l0.2-4.5v-5.3c0-1.9,0.1-3.6,0.2-5.1v-5.3c0-6.8-0.2-12.5-0.6-17.1c-0.9-11.4-1.4-22.5-1.4-33.3
				c0-7.4,0.4-14,1.1-19.7c0.7-5.7,2.1-8.9,4-9.5C686.6,656.2,689.3,656.1,693.2,656.1z"/>
			<path class="st2" d="M771.2,668.9h2.6c5.6,0.3,10,1.2,13.2,2.8c3.3,1.6,7.2,4.8,12,9.5c7.3,7.3,12,15.2,14,23.6
				c0.7,3.4,1,6.2,1,8.5c0,8.3-1.4,12.9-4.1,14h-33.7c-10.7,0-16,0.1-16,0.2c0,1.6,1.6,3.4,4.7,5.2c3.1,1.8,6.8,3.2,11,4.2
				c2.3,0.4,4.4,0.6,6.3,0.6c3.1,0,7.2-0.8,12.4-2.4c3.9-1.1,6.4-1.6,7.5-1.6c1.4,0,2.4,0.4,3.3,1.2c0.9,1.4,2.4,3.9,4.3,7.5
				c1.9,3.7,2.8,6.2,2.8,7.7c0,3-2.5,5.9-7.5,8.7c-4.9,3-10,5.1-15.3,6.3c-5.4,1.2-11.7,1.8-19,1.8c-8.9,0-15.8-0.8-20.7-2.4
				c-4.9-1.6-10.1-5.1-15.6-10.6c-5.6-5.4-9.3-10.7-11.4-15.8c-2-5.1-3-11.2-3-18.1c0-7.6,1.1-14.5,3.4-20.7
				c2.2-6.2,6.5-12,12.7-17.3c6.5-5.7,14.8-9.7,24.8-12C764,669.3,767.5,668.9,771.2,668.9z M770.6,696.5c-3,0-5.6,0.9-7.8,2.6
				c-2.2,1.8-3.4,4-3.6,6.7l-0.2,2.4l10,0.6l8.3,0.4h1c0.5,0,0.9-0.1,1-0.2h0.4h0.4c0.5-0.1,0.8-0.9,0.8-2.4c0-1.8-0.4-3.5-1.2-5.1
				C778,698.2,774.9,696.5,770.6,696.5z"/>
			<path class="st2" d="M845.6,649c0,0,3.7,0,11.2,0c7.6,0,12.3,0.1,14.2,0.4c2.3,0.5,3.7,1.1,4.2,1.5c0.5,0.5,0.7,1.5,0.7,3.1
				l-0.4,10.8l-0.4,6.5l-0.2,2.4l9.8,0.2c1.9,0,3.3,0.1,4.1,0.2c3.4,0,5.6,0.3,6.7,0.8c1.1,0.5,1.8,2,2,4.3c0.3,2.3,0.4,7,0.4,14.2
				v3.5c0,3.8-0.2,6.4-0.5,7.7c-0.3,1.4-1.1,2.2-2.2,2.6c-1.2,0.4-3.4,0.6-6.6,0.6h-13l-0.6,4.3c-0.3,3.3-0.4,5.3-0.4,6.1
				c0,14.1,3.6,21.1,10.8,21.1c1.5,0,3.5-0.7,5.9-2.1c2.4-1.4,3.9-2.5,4.5-3.1c0.4-0.5,0.9-0.8,1.4-0.8c1.2,0,2.8,0.9,4.7,2.8
				c2.2,2.2,4.2,4.8,6.2,7.8c2,3,2.9,5.1,2.9,6.2c0,1.6-1.9,3.9-5.6,6.9c-3.7,3-8.1,5.6-13.1,7.9c-6.5,3-13.5,4.5-21.1,4.5
				c-4.7,0-8.8-0.8-12.3-2.4c-3.5-1.6-7.1-4.5-11.1-8.5c-4.6-4.6-7.9-9.5-10-14.8c-2-5.3-3-13.3-3-24V715v-2.8
				c-0.1-0.4-0.2-1.1-0.2-2c0-0.7-0.1-1.1-0.4-1.4l-0.8-0.8c-0.1-0.4-1.1-0.6-2.8-0.6l-2.4-0.2h-3.3c-2.8-0.3-4.7-0.5-5.5-0.6
				c-0.8-0.1-1.6-0.7-2.2-1.8c-0.5-0.9-0.8-2.7-0.8-5.3c0-3.7,0.1-6.2,0.2-7.5c0.3-4.1,0.4-6.6,0.4-7.7c0.1-1.8,0.2-3.3,0.3-4.5
				c0.1-1.2,0.2-2,0.3-2.4l0.8-2.8l8.3-0.4c4.1-0.1,6.5-0.3,7.3-0.6c0.7-0.3,1.1-0.7,1.2-1.2c0.1-3,0.4-7.1,0.9-12.4
				c0.5-5.3,0.9-8.1,1.3-8.5c0.7-0.8,2.2-1.4,4.7-1.8C844.3,649.1,845.6,649,845.6,649z"/>
			<path class="st2" d="M963.8,668.9h2.6c5.6,0.3,10,1.2,13.2,2.8c3.3,1.6,7.2,4.8,12,9.5c7.3,7.3,12,15.2,14,23.6
				c0.7,3.4,1,6.2,1,8.5c0,8.3-1.4,12.9-4.1,14h-33.7c-10.7,0-16,0.1-16,0.2c0,1.6,1.6,3.4,4.7,5.2c3.1,1.8,6.8,3.2,11,4.2
				c2.3,0.4,4.4,0.6,6.3,0.6c3.1,0,7.2-0.8,12.4-2.4c3.9-1.1,6.4-1.6,7.5-1.6c1.4,0,2.4,0.4,3.3,1.2c0.9,1.4,2.4,3.9,4.3,7.5
				c1.9,3.7,2.8,6.2,2.8,7.7c0,3-2.5,5.9-7.5,8.7c-4.9,3-10,5.1-15.3,6.3c-5.4,1.2-11.7,1.8-19,1.8c-8.9,0-15.8-0.8-20.7-2.4
				c-4.9-1.6-10.1-5.1-15.6-10.6c-5.6-5.4-9.3-10.7-11.4-15.8c-2-5.1-3-11.2-3-18.1c0-7.6,1.1-14.5,3.4-20.7
				c2.2-6.2,6.5-12,12.7-17.3c6.5-5.7,14.8-9.7,24.8-12C956.6,669.3,960.1,668.9,963.8,668.9z M963.2,696.5c-3,0-5.6,0.9-7.8,2.6
				c-2.2,1.8-3.4,4-3.6,6.7l-0.2,2.4l10,0.6l8.3,0.4h1c0.5,0,0.9-0.1,1-0.2h0.4h0.4c0.5-0.1,0.8-0.9,0.8-2.4c0-1.8-0.4-3.5-1.2-5.1
				C970.6,698.2,967.5,696.5,963.2,696.5z"/>
			<path class="st2" d="M1089.3,649c8.4,0,13.5,0.2,15.2,0.6c1.9,0.4,3.5,1.4,4.9,2.8l1.8,2l-0.4,53.2c-0.1,32.2-0.6,50.2-1.4,54
				c-0.5,1.5-1.6,2.6-3,3.3l-0.8,0.4c-1.8,0.7-5.6,1-11.4,1h-4.5c-7.9-0.3-12.5-0.6-14-1c-2.3-0.7-3.9-2-4.9-3.9
				c0-0.1-0.3-0.7-1-1.6c-0.5-0.4-0.9-0.5-1-0.4l-5.9,2.4c-3.4,1.5-8.1,2.2-14.2,2.2c-5.6,0-9.5-0.2-11.8-0.6
				c-2.3-0.4-5.1-1.4-8.3-3c-10.3-5-16.4-12.8-18.3-23.4c-0.7-4.5-1-8.1-1-11c0-9.5,2-18,6-25.6c4-7.6,9.1-13.5,15.4-17.7
				c6.3-4.2,12.8-6.3,19.4-6.3c6.4,0,12.5,1.9,18.3,5.7c1.4,0.9,2.2,1.3,2.4,1c0.1-0.1,0.5-4.7,1.2-13.8c0.7-9.1,1.2-14.3,1.6-15.6
				c0.7-2.3,2.6-3.8,5.7-4.5C1081.6,649.1,1084.9,649,1089.3,649z M1066.8,708.9c-1.8-1.2-3.8-1.8-6.1-1.8c-2.2,0-4.6,0.7-7.3,2.2
				c-4.6,3-6.9,7-6.9,12.2c0,3.4,1.2,6.6,3.6,9.6c2.4,3,5.7,4.6,10.1,4.6c1.9,0,4-0.4,6.3-1.2l3-1v-22.8L1066.8,708.9z"/>
		</g>
	</g>
	<g>
		<g>
			<path class="st3" d="M474.1,497.5c8.8,0,13.7,0.1,14.6,0.2c1.2,0.3,2.3,0.9,3.3,1.8l2,2l-0.8,25.2c-0.4,10.2-0.6,19.4-0.6,27.6
				l-0.2,8.3c-0.1,1.1-0.2,2.5-0.2,4.3c0,2.2,0.3,3.8,0.8,4.8c0.5,1,1.6,1.7,3.3,2c1.6,0.3,4.2,0.5,7.7,0.5l15-0.2h4.7
				c4.2,0,7.1,0.2,8.6,0.5c1.6,0.3,2.5,1.2,2.9,2.4c0.4,1.3,0.6,3.7,0.6,7.2v4.3c0,6.8-0.3,11-0.8,12.8c-0.5,2.2-1.5,3.5-2.7,4.1
				c-1.3,0.5-4,0.8-8.2,0.8l-13.8-0.4H506c-11.4-0.3-18.9-0.4-22.6-0.4H475h-4.7c-1.2,0.1-2.5,0.2-3.9,0.2c-5.1,0-8.5-0.3-10.2-1
				c-1.6-0.7-2.5-2-2.6-3.9c-0.4-3.1-0.7-14.4-0.8-33.9V557c-0.1-2.6-0.2-5.3-0.2-8.3c0-16,0.8-29.3,2.4-40c0.5-3.9,1.3-6.6,2.1-7.9
				c0.9-1.4,2.5-2.3,5-2.8C463.1,497.6,467.1,497.5,474.1,497.5z"/>
			<path class="st3" d="M591.6,506.9h2.6c5.6,0.3,10,1.2,13.2,2.8c3.3,1.6,7.2,4.8,12,9.5c7.3,7.3,12,15.2,14,23.6
				c0.7,3.4,1,6.2,1,8.5c0,8.3-1.4,12.9-4.1,14h-33.7c-10.7,0-16,0.1-16,0.2c0,1.6,1.6,3.4,4.7,5.2c3.1,1.8,6.8,3.2,11,4.2
				c2.3,0.4,4.4,0.6,6.3,0.6c3.1,0,7.2-0.8,12.4-2.4c3.9-1.1,6.4-1.6,7.5-1.6c1.4,0,2.4,0.4,3.3,1.2c0.9,1.4,2.4,3.9,4.3,7.5
				c1.9,3.7,2.8,6.2,2.8,7.7c0,3-2.5,5.9-7.5,8.7c-4.9,3-10,5.1-15.3,6.3c-5.4,1.2-11.7,1.8-19,1.8c-8.9,0-15.8-0.8-20.7-2.4
				c-4.9-1.6-10.1-5.1-15.6-10.6c-5.6-5.4-9.3-10.7-11.4-15.8c-2-5.1-3-11.2-3-18.1c0-7.6,1.1-14.5,3.4-20.7
				c2.2-6.2,6.5-12,12.7-17.3c6.5-5.7,14.8-9.7,24.8-12C584.4,507.2,587.9,506.9,591.6,506.9z M591,534.5c-3,0-5.6,0.9-7.8,2.6
				c-2.2,1.8-3.4,4-3.6,6.7l-0.2,2.4l10,0.6l8.3,0.4h1c0.5,0,0.9-0.1,1-0.2h0.4h0.4c0.5-0.1,0.8-0.9,0.8-2.4c0-1.8-0.4-3.5-1.2-5.1
				C598.3,536.2,595.3,534.5,591,534.5z"/>
			<path class="st3" d="M713,513.2c1.6,0,5.3,0.8,11,2.5c5.7,1.7,9.5,3.1,11.4,4.2c1.9,1.2,2.8,2.9,2.8,5.1c0,2.2-1.5,6.5-4.5,13
				l-2.6,6.1c-2.8,6.2-4.7,10.5-5.5,12.8c-3.3,8-7.5,17.3-12.6,28c-5.1,10.7-8.3,16.7-9.3,17.9c-1.1,0.9-2.1,1.6-3,1.8
				c-1.1,0.3-3.6,0.5-7.5,0.6h-3c-12.3,0-20-1.1-23.2-3.5c-1.1-0.8-4.1-6.9-9-18.4c-4.9-11.4-9.5-23-13.8-34.7
				c-4.3-11.7-6.4-19.3-6.4-22.9c0-2,1.6-3.9,4.9-5.6c3.3-1.7,7-3.1,11.3-4.2c4.3-1.1,7.6-1.6,10.1-1.6c1.2,0,2.2,0.1,3,0.4
				c1.8,0.5,3.4,2.5,4.9,5.9c1.1,2.6,3.7,10.4,7.7,23.6c3.3,10.7,5,16.2,5.3,16.5l0.6-0.8c0.9-1.2,2-3.1,3-5.7
				c1.9-4.2,5.8-11.7,11.8-22.6c6-10.8,9.3-16.7,10.2-17.5C711.1,513.5,712,513.2,713,513.2z"/>
			<path class="st3" d="M789.6,506.9h2.6c5.6,0.3,10,1.2,13.2,2.8c3.3,1.6,7.2,4.8,12,9.5c7.3,7.3,12,15.2,14,23.6
				c0.7,3.4,1,6.2,1,8.5c0,8.3-1.4,12.9-4.1,14h-33.7c-10.7,0-16,0.1-16,0.2c0,1.6,1.6,3.4,4.7,5.2c3.1,1.8,6.8,3.2,11,4.2
				c2.3,0.4,4.4,0.6,6.3,0.6c3.1,0,7.2-0.8,12.4-2.4c3.9-1.1,6.4-1.6,7.5-1.6c1.4,0,2.4,0.4,3.3,1.2c0.9,1.4,2.4,3.9,4.3,7.5
				c1.9,3.7,2.8,6.2,2.8,7.7c0,3-2.5,5.9-7.5,8.7c-4.9,3-10,5.1-15.3,6.3c-5.4,1.2-11.7,1.8-19,1.8c-8.9,0-15.8-0.8-20.7-2.4
				c-4.9-1.6-10.1-5.1-15.6-10.6c-5.6-5.4-9.3-10.7-11.4-15.8c-2-5.1-3-11.2-3-18.1c0-7.6,1.1-14.5,3.4-20.7
				c2.2-6.2,6.5-12,12.7-17.3c6.5-5.7,14.8-9.7,24.8-12C782.5,507.2,786,506.9,789.6,506.9z M789,534.5c-3,0-5.6,0.9-7.8,2.6
				c-2.2,1.8-3.4,4-3.6,6.7l-0.2,2.4l10,0.6l8.3,0.4h1c0.5,0,0.9-0.1,1-0.2h0.4h0.4c0.5-0.1,0.8-0.9,0.8-2.4c0-1.8-0.4-3.5-1.2-5.1
				C796.4,536.2,793.4,534.5,789,534.5z"/>
			<path class="st3" d="M848.6,494.1h4.9c10.4,0.1,16.1,1.6,17.1,4.3c0.4,2.4,0.7,19.4,0.8,51v26.4c0,11.5-0.1,19.2-0.4,23
				c-0.1,3-0.9,4.7-2.2,5.1c-1.8,0.4-6.2,0.7-13.4,0.8c-1.4,0.1-3.9,0.2-7.5,0.2c-3.8,0-6.4-0.3-7.8-0.9c-1.4-0.6-2.2-1.5-2.4-2.6
				c-0.2-1.1-0.3-3.5-0.3-7l0.2-4.5v-5.3c0-1.9,0.1-3.6,0.2-5.1v-5.3c0-6.8-0.2-12.5-0.6-17.1c-0.9-11.4-1.4-22.5-1.4-33.3
				c0-7.4,0.4-14,1.1-19.7c0.7-5.7,2.1-8.9,4-9.5C842,494.2,844.6,494.1,848.6,494.1z"/>
			<path class="st3" d="M272.6,657.3c8.8,0,17.6,1.4,26.4,4.1c3.9,1.2,6.6,2.4,8.1,3.7c1.5,1.2,2.2,2.8,2.2,4.7
				c0,1.5-1.1,5.1-3.1,10.9c-2.1,5.8-4,10.3-5.8,13.5c-0.5,1.4-1.5,2-2.8,2c-0.8,0-2.5-0.5-5.1-1.6c-5.3-2.3-10.5-3.5-15.6-3.5h-1.2
				l-1,0.2c-3.9,0.5-7.8,2.2-11.7,5.1s-6.7,6.1-8.4,9.8c-1.5,3.3-2.2,6.8-2.2,10.8c0,6.9,1.9,12.4,5.8,16.5c3.9,4.1,10.2,6.1,19,6.1
				c5.3,0,10.2-1,14.6-3c1.8-0.9,3.7-1.4,5.7-1.4c1.5,0,2.6,0.4,3.5,1.2c1.1,1.2,2.7,4.2,5,9c2.2,4.8,3.5,8,3.8,9.6
				c0.1,0.3,0.2,0.9,0.2,1.8c0,2.3-1.1,4.1-3.3,5.5c-2.2,1.6-6.4,3.5-12.8,5.5c-9.1,3.1-16.9,4.7-23.6,4.7h-3.7
				c-8.1-0.4-14.7-1.7-19.6-3.8c-4.9-2.1-10-5.8-15.1-11.1c-11.4-11.2-17.1-25.8-17.1-43.7c0-4.5,0.3-7.7,0.8-9.8
				c1.4-6.9,4.3-13.6,8.9-20c4.6-6.4,10.2-12,16.8-16.6c6.6-4.6,13.4-7.6,20.6-9.1C265.6,657.6,269.2,657.3,272.6,657.3z"/>
			<path class="st3" d="M360.2,670.1c4.6,0,9.1,0.3,13.4,1c10.2,1.9,18.8,5.9,26,12c7.2,6.1,11.6,13.2,13.2,21.3
				c0.4,1.8,0.6,4.1,0.6,6.9c0,8.3-1.3,15.5-3.8,21.8c-2.5,6.3-6.6,12.2-12.3,17.8c-5.3,5.1-10.7,8.7-16.3,10.7
				c-5.6,2-11.3,2.9-17.3,2.9c-10.4,0-19.9-2.5-28.4-7.5c-8.5-5-15.2-11.2-20-18.7c-4.8-7.4-7.2-14.6-7.2-21.3c0-2.2,0.3-5.4,1-9.8
				c4.5-21.8,16.9-33.9,37.4-36.4C351.4,670.3,356,670.1,360.2,670.1z M361.8,702.4c-1.9,0-3.5,0.5-4.9,1.4c-4.9,3-7.3,7.2-7.3,12.8
				c0,2,0.5,4.3,1.6,6.9c2.4,5,6.3,7.5,11.6,7.5c2.8,0,5.3-0.9,7.3-2.7c2-1.8,3.3-4.2,3.7-7c0.1-0.4,0.2-1.2,0.2-2.4
				c0-3.3-0.7-6.4-2.2-9.3c-1.5-3-3.3-5-5.5-6.1C364.6,702.7,363.1,702.4,361.8,702.4z"/>
			<path class="st3" d="M538.3,672.3c3.5,0,7.6,1.2,12.2,3.6c4.6,2.4,8.3,5.6,11,9.6c2.7,4.1,4.8,10.1,6.3,18.1
				c1.2,6.8,2.2,17.9,2.8,33.3c0.1,1.5,0.2,4.5,0.2,8.9c0,8.5-1.3,14.1-3.9,16.7l-2.2,2.2l-16-0.4l-12.4,0.2c-2,0-3.4-0.3-4.2-0.8
				c-0.7-0.5-1.2-1.6-1.4-3.1c-0.2-1.6-0.3-4.4-0.3-8.6c0-4.3-0.1-8-0.2-11c-0.4-14.1-1.1-23.3-2-27.6c-0.9-4.5-2.8-7-5.7-7.7
				c-0.3-0.1-0.8-0.2-1.6-0.2c-2.2,0-4.2,0.8-6.2,2.3c-2,1.6-3.4,3.6-4.4,6c-0.9,2.7-1.4,8.9-1.4,18.7c0,5.4,0.3,10.8,0.8,16
				l0.8,8.7c0,2-0.6,3.4-1.8,4.1c-1.1,0.4-4.1,0.7-8.9,1c-1.2,0.1-2.6,0.2-4.1,0.2l-11.6,0.4c-3.7,0-5.8-0.6-6.5-1.8
				c-0.7-2-2.2-15.1-4.7-39.2c-0.5-4.7-1.2-8.7-2-11.8c-0.5-2.2-1.6-3.3-3-3.3c-0.9,0-2.4,0.5-4.3,1.6c-3.3,1.9-5.4,5.1-6.3,9.5
				c-1.4,4.7-2.1,12.9-2.2,24.4c0,3.4-0.1,5.8-0.2,7.1c-0.1,6.9-0.6,11-1.4,12.2c-0.8,1.2-2.8,1.8-6.1,1.8s-6,0.1-8.3,0.2l-10.2,0.4
				c-5.4,0-8.7-1.1-10-3.5c-1.5-3.4-2.2-23.4-2.2-59.9l-0.2-15.2c0-3.8,0.5-6.4,1.4-7.8c0.9-1.4,2.7-2.3,5.4-2.6
				c2.6-0.3,7.5-0.5,14.7-0.5c7.3,0,11.9,0.4,13.8,1.2c2,0.9,3,2.6,3,4.9c0,0.9,0.3,1.4,0.8,1.4c0.5,0,2-0.8,4.5-2.4
				c6.8-4.3,14.2-6.5,22.3-6.5c10.6,0,18.5,3.2,23.8,9.5l2.6,3.3l4.5-3.7c5-4.1,10.6-7,16.9-8.9
				C532.5,672.6,535.2,672.3,538.3,672.3z"/>
			<path class="st3" d="M588.9,674.5h6.1c9.1,0.3,14.3,0.6,15.6,1c1.9,0.7,2.8,2.4,2.8,5.3c0,2.3,0.3,3.5,0.8,3.5l7.1-1.6
				c4.5-1.2,8.9-1.8,13.4-1.8c7.9,0,14.8,1.8,20.7,5.3c2.2,1.2,4.8,3.5,7.8,6.8c3,3.3,5.4,6.3,7,9c3.1,6,4.7,12.1,4.7,18.5
				c0,11.6-4.5,21.9-13.4,30.9c-4.5,4.5-8.6,7.6-12.5,9.4c-3.9,1.8-8.3,2.7-13.3,2.7c-4.5,0-11.2-1.4-20.1-4.3h-0.2
				c-0.7,0-1.2,5.3-1.4,15.8l-0.2,16.3l-2.2,2l-2.2,1.8l-15.2-0.2c-7.2-0.3-11.6-0.5-13.2-0.6c-1.9-0.3-3.1-0.7-3.7-1.4
				c-0.5-0.8-0.9-4.2-1.2-10.2c-0.1-3.9-0.2-19.7-0.2-47.3c0-37.4,0.2-56.7,0.6-57.9c0.5-1.2,1.4-2.1,2.6-2.6
				C580.5,674.7,583.8,674.5,588.9,674.5z M630,704.6c-1.5,0-2.8,0.2-4.1,0.6c-1.9,0.8-4,2.2-6.3,4.3l-3.9,3.7l0.8,7.5
				c0.7,4.9,1.2,7.7,1.6,8.5c0.4,1.2,1.4,2.1,2.9,2.6c1.6,0.5,3.4,0.8,5.4,0.8c4.2,0,7.7-1.4,10.6-4.2c2.8-2.8,4.3-6.3,4.3-10.7
				c0-5.1-1.6-8.9-4.7-11.4C635,705.2,632.8,704.6,630,704.6z"/>
			<path class="st3" d="M691.9,653.2h4.9c10.4,0.1,16.1,1.6,17.1,4.3c0.4,2.4,0.7,19.4,0.8,51v26.4c0,11.5-0.1,19.2-0.4,23
				c-0.1,3-0.9,4.7-2.2,5.1c-1.8,0.4-6.2,0.7-13.4,0.8c-1.4,0.1-3.9,0.2-7.5,0.2c-3.8,0-6.4-0.3-7.8-0.9c-1.4-0.6-2.2-1.5-2.4-2.6
				c-0.2-1.1-0.3-3.5-0.3-7l0.2-4.5v-5.3c0-1.9,0.1-3.6,0.2-5.1v-5.3c0-6.8-0.2-12.5-0.6-17.1c-0.9-11.4-1.4-22.5-1.4-33.3
				c0-7.4,0.4-14,1.1-19.7c0.7-5.7,2.1-8.9,4-9.5C685.4,653.3,688,653.2,691.9,653.2z"/>
			<path class="st3" d="M769.9,666h2.6c5.6,0.3,10,1.2,13.2,2.8c3.3,1.6,7.2,4.8,12,9.5c7.3,7.3,12,15.2,14,23.6
				c0.7,3.4,1,6.2,1,8.5c0,8.3-1.4,12.9-4.1,14H775c-10.7,0-16,0.1-16,0.2c0,1.6,1.6,3.4,4.7,5.2c3.1,1.8,6.8,3.2,11,4.2
				c2.3,0.4,4.4,0.6,6.3,0.6c3.1,0,7.2-0.8,12.4-2.4c3.9-1.1,6.4-1.6,7.5-1.6c1.4,0,2.4,0.4,3.3,1.2c0.9,1.4,2.4,3.9,4.3,7.5
				c1.9,3.7,2.8,6.2,2.8,7.7c0,3-2.5,5.9-7.5,8.7c-4.9,3-10,5.1-15.3,6.3c-5.4,1.2-11.7,1.8-19,1.8c-8.9,0-15.8-0.8-20.7-2.4
				c-4.9-1.6-10.1-5.1-15.6-10.6c-5.6-5.4-9.3-10.7-11.4-15.8c-2-5.1-3-11.2-3-18.1c0-7.6,1.1-14.5,3.4-20.7
				c2.2-6.2,6.5-12,12.7-17.3c6.5-5.7,14.8-9.7,24.8-12C762.8,666.3,766.3,666,769.9,666z M769.3,693.6c-3,0-5.6,0.9-7.8,2.6
				c-2.2,1.8-3.4,4-3.6,6.7l-0.2,2.4l10,0.6l8.3,0.4h1c0.5,0,0.9-0.1,1-0.2h0.4h0.4c0.5-0.1,0.8-0.9,0.8-2.4c0-1.8-0.4-3.5-1.2-5.1
				C776.7,695.3,773.7,693.6,769.3,693.6z"/>
			<path class="st3" d="M844.3,646.1c0,0,3.7,0,11.2,0c7.6,0,12.3,0.1,14.2,0.4c2.3,0.5,3.7,1.1,4.2,1.5c0.5,0.5,0.7,1.5,0.7,3.1
				l-0.4,10.8l-0.4,6.5l-0.2,2.4l9.8,0.2c1.9,0,3.3,0.1,4.1,0.2c3.4,0,5.6,0.3,6.7,0.8c1.1,0.5,1.8,2,2,4.3c0.3,2.3,0.4,7,0.4,14.2
				v3.5c0,3.8-0.2,6.4-0.5,7.7c-0.3,1.4-1.1,2.2-2.2,2.6c-1.2,0.4-3.4,0.6-6.6,0.6h-13l-0.6,4.3c-0.3,3.3-0.4,5.3-0.4,6.1
				c0,14.1,3.6,21.1,10.8,21.1c1.5,0,3.5-0.7,5.9-2.1c2.4-1.4,3.9-2.5,4.5-3.1c0.4-0.5,0.9-0.8,1.4-0.8c1.2,0,2.8,0.9,4.7,2.8
				c2.2,2.2,4.2,4.8,6.2,7.8c2,3,2.9,5.1,2.9,6.2c0,1.6-1.9,3.9-5.6,6.9c-3.7,3-8.1,5.6-13.1,7.9c-6.5,3-13.5,4.5-21.1,4.5
				c-4.7,0-8.8-0.8-12.3-2.4c-3.5-1.6-7.1-4.5-11.1-8.5c-4.6-4.6-7.9-9.5-10-14.8c-2-5.3-3-13.3-3-24v-4.7v-2.8
				c-0.1-0.4-0.2-1.1-0.2-2c0-0.7-0.1-1.1-0.4-1.4l-0.8-0.8c-0.1-0.4-1.1-0.6-2.8-0.6l-2.4-0.2h-3.3c-2.8-0.3-4.7-0.5-5.5-0.6
				c-0.8-0.1-1.6-0.7-2.2-1.8c-0.5-0.9-0.8-2.7-0.8-5.3c0-3.7,0.1-6.2,0.2-7.5c0.3-4.1,0.4-6.6,0.4-7.7c0.1-1.8,0.2-3.3,0.3-4.5
				c0.1-1.2,0.2-2,0.3-2.4l0.8-2.8l8.3-0.4c4.1-0.1,6.5-0.3,7.3-0.6c0.7-0.3,1.1-0.7,1.2-1.2c0.1-3,0.4-7.1,0.9-12.4
				c0.5-5.3,0.9-8.1,1.3-8.5c0.7-0.8,2.2-1.4,4.7-1.8C843.1,646.2,844.3,646.1,844.3,646.1z"/>
			<path class="st3" d="M962.5,666h2.6c5.6,0.3,10,1.2,13.2,2.8c3.3,1.6,7.2,4.8,12,9.5c7.3,7.3,12,15.2,14,23.6
				c0.7,3.4,1,6.2,1,8.5c0,8.3-1.4,12.9-4.1,14h-33.7c-10.7,0-16,0.1-16,0.2c0,1.6,1.6,3.4,4.7,5.2c3.1,1.8,6.8,3.2,11,4.2
				c2.3,0.4,4.4,0.6,6.3,0.6c3.1,0,7.2-0.8,12.4-2.4c3.9-1.1,6.4-1.6,7.5-1.6c1.4,0,2.4,0.4,3.3,1.2c0.9,1.4,2.4,3.9,4.3,7.5
				c1.9,3.7,2.8,6.2,2.8,7.7c0,3-2.5,5.9-7.5,8.7c-4.9,3-10,5.1-15.3,6.3c-5.4,1.2-11.7,1.8-19,1.8c-8.9,0-15.8-0.8-20.7-2.4
				c-4.9-1.6-10.1-5.1-15.6-10.6c-5.6-5.4-9.3-10.7-11.4-15.8c-2-5.1-3-11.2-3-18.1c0-7.6,1.1-14.5,3.4-20.7
				c2.2-6.2,6.5-12,12.7-17.3c6.5-5.7,14.8-9.7,24.8-12C955.3,666.3,958.9,666,962.5,666z M961.9,693.6c-3,0-5.6,0.9-7.8,2.6
				c-2.2,1.8-3.4,4-3.6,6.7l-0.2,2.4l10,0.6l8.3,0.4h1c0.5,0,0.9-0.1,1-0.2h0.4h0.4c0.5-0.1,0.8-0.9,0.8-2.4c0-1.8-0.4-3.5-1.2-5.1
				C969.3,695.3,966.2,693.6,961.9,693.6z"/>
			<path class="st3" d="M1088.1,646.1c8.4,0,13.5,0.2,15.2,0.6c1.9,0.4,3.5,1.4,4.9,2.8l1.8,2l-0.4,53.2c-0.1,32.2-0.6,50.2-1.4,54
				c-0.5,1.5-1.6,2.6-3,3.3l-0.8,0.4c-1.8,0.7-5.6,1-11.4,1h-4.5c-7.9-0.3-12.5-0.6-14-1c-2.3-0.7-3.9-2-4.9-3.9
				c0-0.1-0.3-0.7-1-1.6c-0.5-0.4-0.9-0.5-1-0.4l-5.9,2.4c-3.4,1.5-8.1,2.2-14.2,2.2c-5.6,0-9.5-0.2-11.8-0.6
				c-2.3-0.4-5.1-1.4-8.3-3c-10.3-5-16.4-12.8-18.3-23.4c-0.7-4.5-1-8.1-1-11c0-9.5,2-18,6-25.6c4-7.6,9.1-13.5,15.4-17.7
				c6.3-4.2,12.8-6.3,19.4-6.3c6.4,0,12.5,1.9,18.3,5.7c1.4,0.9,2.2,1.3,2.4,1c0.1-0.1,0.5-4.7,1.2-13.8c0.7-9.1,1.2-14.3,1.6-15.6
				c0.7-2.3,2.6-3.8,5.7-4.5C1080.3,646.2,1083.6,646.1,1088.1,646.1z M1065.5,706c-1.8-1.2-3.8-1.8-6.1-1.8c-2.2,0-4.6,0.7-7.3,2.2
				c-4.6,3-6.9,7-6.9,12.2c0,3.4,1.2,6.6,3.6,9.6c2.4,3,5.7,4.6,10.1,4.6c1.9,0,4-0.4,6.3-1.2l3-1v-22.8L1065.5,706z"/>
		</g>
	</g>
</g>
</svg>
