<?xml version="1.0" encoding="utf-8"?>
<!-- Generator: Adobe Illustrator 21.0.0, SVG Export Plug-In . SVG Version: 6.00 Build 0)  -->
<svg version="1.1" id="Capa_1" xmlns="http://www.w3.org/2000/svg" xmlns:xlink="http://www.w3.org/1999/xlink" x="0px" y="0px"
	 viewBox="0 0 1319 1952" style="enable-background:new 0 0 1319 1952;" xml:space="preserve">
<style type="text/css">
	.st0{fill:#D0D2F7;}
	.st1{fill:#BDB3DE;}
	.st2{fill:none;stroke:#FFF8CC;stroke-width:35;stroke-linecap:round;stroke-linejoin:round;stroke-miterlimit:10;}
	.st3{fill:#FFE594;stroke:#643527;stroke-width:8;stroke-miterlimit:10;}
	.st4{fill:#643527;stroke:#FFF8CC;stroke-width:5;stroke-miterlimit:10;}
</style>
<g>
	<g>
		<rect x="-1" y="2.5" class="st0" width="121.6" height="1947"/>
		<rect x="112" y="2.5" class="st1" width="121.6" height="1947"/>
		<rect x="233.6" y="2.5" class="st0" width="121.6" height="1947"/>
		<rect x="355.2" y="2.5" class="st1" width="121.6" height="1947"/>
		<rect x="476.9" y="2.5" class="st0" width="121.6" height="1947"/>
		<rect x="598.5" y="2.5" class="st1" width="121.6" height="1947"/>
		<rect x="720.1" y="2.5" class="st0" width="121.6" height="1947"/>
		<rect x="841.8" y="2.5" class="st1" width="121.6" height="1947"/>
		<rect x="963.4" y="2.5" class="st0" width="121.6" height="1947"/>
		<rect x="1198.4" y="2.5" class="st0" width="121.6" height="1947"/>
		<rect x="1085" y="2.5" class="st1" width="121.6" height="1947"/>
	</g>
	<g>
		<g>
			<path class="st2" d="M392.8,618.6c8.8,0,17.6,1.4,26.4,4.1c3.9,1.2,6.6,2.4,8.1,3.7c1.5,1.2,2.2,2.8,2.2,4.7
				c0,1.5-1.1,5.1-3.1,10.9c-2.1,5.8-4,10.3-5.8,13.5c-0.5,1.4-1.5,2-2.8,2c-0.8,0-2.5-0.5-5.1-1.6c-5.3-2.3-10.5-3.5-15.6-3.5h-1.2
				l-1,0.2c-3.9,0.5-7.8,2.2-11.7,5.1c-3.9,2.8-6.7,6.1-8.4,9.8c-1.5,3.3-2.2,6.8-2.2,10.8c0,6.9,1.9,12.4,5.8,16.5
				c3.9,4.1,10.2,6.1,19,6.1c5.3,0,10.2-1,14.6-3c1.8-0.9,3.7-1.4,5.7-1.4c1.5,0,2.6,0.4,3.5,1.2c1.1,1.2,2.7,4.2,5,9
				c2.2,4.8,3.5,8,3.8,9.6c0.1,0.3,0.2,0.9,0.2,1.8c0,2.3-1.1,4.1-3.3,5.5c-2.2,1.6-6.4,3.5-12.8,5.5c-9.1,3.1-16.9,4.7-23.6,4.7
				h-3.7c-8.1-0.4-14.7-1.7-19.6-3.8c-4.9-2.1-10-5.8-15.1-11.1c-11.4-11.2-17.1-25.8-17.1-43.7c0-4.5,0.3-7.7,0.8-9.8
				c1.4-6.9,4.3-13.6,8.9-20c4.6-6.4,10.2-12,16.8-16.6c6.6-4.6,13.4-7.6,20.6-9.1C385.8,619,389.4,618.6,392.8,618.6z"/>
			<path class="st2" d="M440.3,633.9c1.2-0.8,4.1-1.2,8.7-1.2c4.7,0,9.2,0.3,13.5,1c4.3,0.7,6.8,1.6,7.6,2.6c0.9,1.1,1.4,2,1.4,2.8
				c0,0.1,0.1,0.2,0.4,0.2c0.8,0,2.7-0.7,5.7-2.2c5.7-2.8,10.8-4.3,15.4-4.3c4.7,0,9.6,1.4,14.6,4.1c5,2.7,7.5,5.6,7.5,8.5
				c0,1.6-1.2,4.9-3.5,9.9c-2.3,4.9-4.3,8.7-6.1,11.3c-1.4,2-2.8,3-4.3,3c-0.5,0-2-0.3-4.5-1c-2.4-0.8-4.7-1.2-6.9-1.2
				c-4.6,0-8.3,1.8-11.2,5.5c-4.9,6.2-7.3,19.8-7.3,40.6v2.8c0,3-0.2,5.1-0.5,6.3c-0.3,1.2-1.2,2-2.4,2.4c-1.3,0.4-3.4,0.6-6.4,0.6
				l-3.5-0.2h-4.5c-9.5-0.3-14.9-0.9-16.3-1.8c-1.6-1.1-2.5-2.2-2.6-3.5c-0.4-1.5-0.6-6.6-0.6-15.2c0-13.1,0.3-27.4,0.9-42.7
				c0.6-15.3,1.3-23.8,1.9-25.4C438.4,635.6,439.3,634.5,440.3,633.9z"/>
			<path class="st2" d="M569.8,627.4h2.6c5.6,0.3,10,1.2,13.2,2.8c3.3,1.6,7.2,4.8,12,9.5c7.3,7.3,12,15.2,14,23.6
				c0.7,3.4,1,6.2,1,8.5c0,8.3-1.4,12.9-4.1,14h-33.7c-10.7,0-16,0.1-16,0.2c0,1.6,1.6,3.4,4.7,5.2c3.1,1.8,6.8,3.2,11,4.2
				c2.3,0.4,4.4,0.6,6.3,0.6c3.1,0,7.2-0.8,12.4-2.4c3.9-1.1,6.4-1.6,7.5-1.6c1.4,0,2.4,0.4,3.3,1.2c0.9,1.4,2.4,3.9,4.3,7.5
				c1.9,3.7,2.8,6.2,2.8,7.7c0,3-2.5,5.9-7.5,8.7c-4.9,3-10,5.1-15.3,6.3c-5.4,1.2-11.7,1.8-19,1.8c-8.9,0-15.8-0.8-20.7-2.4
				c-4.9-1.6-10.1-5.1-15.6-10.6c-5.6-5.4-9.3-10.7-11.4-15.8c-2-5.1-3-11.2-3-18.1c0-7.6,1.1-14.5,3.4-20.7
				c2.2-6.2,6.5-12,12.7-17.3c6.5-5.7,14.8-9.7,24.8-12C562.6,627.7,566.1,627.4,569.8,627.4z M569.1,655c-3,0-5.6,0.9-7.8,2.6
				c-2.2,1.8-3.4,4-3.6,6.7l-0.2,2.4l10,0.6l8.3,0.4h1c0.5,0,0.9-0.1,1-0.2h0.4h0.4c0.5-0.1,0.8-0.9,0.8-2.4c0-1.8-0.4-3.5-1.2-5.1
				C576.5,656.7,573.5,655,569.1,655z"/>
			<path class="st2" d="M695.3,607.5c8.4,0,13.5,0.2,15.2,0.6c1.9,0.4,3.5,1.4,4.9,2.8l1.8,2l-0.4,53.2c-0.1,32.2-0.6,50.2-1.4,54
				c-0.5,1.5-1.6,2.6-3,3.3l-0.8,0.4c-1.8,0.7-5.6,1-11.4,1h-4.5c-7.9-0.3-12.5-0.6-14-1c-2.3-0.7-3.9-2-4.9-3.9
				c0-0.1-0.3-0.7-1-1.6c-0.5-0.4-0.9-0.5-1-0.4l-5.9,2.4c-3.4,1.5-8.1,2.2-14.2,2.2c-5.6,0-9.5-0.2-11.8-0.6
				c-2.3-0.4-5.1-1.4-8.3-3c-10.3-5-16.4-12.8-18.3-23.4c-0.7-4.5-1-8.1-1-11c0-9.5,2-18,6-25.6c4-7.6,9.1-13.5,15.4-17.7
				c6.3-4.2,12.8-6.3,19.4-6.3c6.4,0,12.5,1.9,18.3,5.7c1.4,0.9,2.2,1.3,2.4,1c0.1-0.1,0.5-4.7,1.2-13.8c0.7-9.1,1.2-14.3,1.6-15.6
				c0.7-2.3,2.6-3.8,5.7-4.5C687.5,607.6,690.8,607.5,695.3,607.5z M672.8,667.4c-1.8-1.2-3.8-1.8-6.1-1.8c-2.2,0-4.6,0.7-7.3,2.2
				c-4.6,3-6.9,7-6.9,12.2c0,3.4,1.2,6.6,3.6,9.6c2.4,3,5.7,4.6,10.1,4.6c1.9,0,4-0.4,6.3-1.2l3-1v-22.8L672.8,667.4z"/>
			<path class="st2" d="M743.4,646.1h5.5h2.2c1.9,0,3.5,0.2,4.7,0.6c1.1,0.4,1.8,0.9,2.1,1.4c0.3,0.5,0.6,1.6,0.7,3.3
				c0.3,3.5,0.4,16,0.4,37.6c0,22.6-0.3,34.2-0.8,34.7c-1.1,1.1-5.4,1.6-12.8,1.6h-7.3l-5.5-0.2c-3.3,0-5.1-0.1-5.7-0.2
				c-1.4-0.1-2.4-0.6-3.3-1.4l-1.6-1.6l-0.2-27.4v-8.5c0-23.7,0.8-36.4,2.4-38.2c0.7-0.8,5-1.3,13-1.4
				C739.9,646.3,742,646.2,743.4,646.1z M740.6,608.5c4.5,0,8.3,1.6,11.6,4.7c3.3,3.1,4.9,6.6,4.9,10.4v2.6c-0.3,3.9-1.8,7-4.7,9.2
				c-2.8,2.2-6.6,3.4-11.4,3.4h-1.2c-4.7-0.3-8.6-1.7-11.5-4.2c-2.9-2.5-4.4-5.7-4.4-9.6c0-2,0.3-3.9,1-5.6c0.7-1.7,2-3.6,3.9-5.6
				C732.2,610.2,736.1,608.5,740.6,608.5z"/>
			<path class="st2" d="M793,607.5c0,0,3.7,0,11.2,0c7.6,0,12.3,0.1,14.2,0.4c2.3,0.5,3.7,1.1,4.2,1.5c0.5,0.5,0.7,1.5,0.7,3.1
				l-0.4,10.8l-0.4,6.5l-0.2,2.4l9.8,0.2c1.9,0,3.3,0.1,4.1,0.2c3.4,0,5.6,0.3,6.7,0.8c1.1,0.5,1.8,2,2,4.3c0.3,2.3,0.4,7,0.4,14.2
				v3.5c0,3.8-0.2,6.4-0.5,7.7c-0.3,1.4-1.1,2.2-2.2,2.6c-1.2,0.4-3.4,0.6-6.6,0.6h-13l-0.6,4.3c-0.3,3.3-0.4,5.3-0.4,6.1
				c0,14.1,3.6,21.1,10.8,21.1c1.5,0,3.5-0.7,5.9-2.1c2.4-1.4,3.9-2.5,4.5-3.1c0.4-0.5,0.9-0.8,1.4-0.8c1.2,0,2.8,0.9,4.7,2.8
				c2.2,2.2,4.2,4.8,6.2,7.8c2,3,2.9,5.1,2.9,6.2c0,1.6-1.9,3.9-5.6,6.9c-3.7,3-8.1,5.6-13.1,7.9c-6.5,3-13.5,4.5-21.1,4.5
				c-4.7,0-8.8-0.8-12.3-2.4c-3.5-1.6-7.1-4.5-11.1-8.5c-4.6-4.6-7.9-9.5-10-14.8c-2-5.3-3-13.3-3-24v-4.7v-2.8
				c-0.1-0.4-0.2-1.1-0.2-2c0-0.7-0.1-1.1-0.4-1.4l-0.8-0.8c-0.1-0.4-1.1-0.6-2.8-0.6l-2.4-0.2h-3.3c-2.8-0.3-4.7-0.5-5.5-0.6
				c-0.8-0.1-1.6-0.7-2.2-1.8c-0.5-0.9-0.8-2.7-0.8-5.3c0-3.7,0.1-6.2,0.2-7.5c0.3-4.1,0.4-6.6,0.4-7.7c0.1-1.8,0.2-3.3,0.3-4.5
				c0.1-1.2,0.2-2,0.3-2.4l0.8-2.8l8.3-0.4c4.1-0.1,6.5-0.3,7.3-0.6c0.7-0.3,1.1-0.7,1.2-1.2c0.1-3,0.4-7.1,0.9-12.4
				c0.5-5.3,0.9-8.1,1.3-8.5c0.7-0.8,2.2-1.4,4.7-1.8C791.8,607.6,793,607.5,793,607.5z"/>
			<path class="st2" d="M900.3,629.2h3.7c3.9,0,8.4,0.5,13.3,1.5c4.9,1,9.4,2.1,13.5,3.4c4.1,1.2,6.4,2,7.1,2.4c1.4,0.9,2,2.4,2,4.5
				c0,2.2-0.6,5.4-1.8,9.5c-1.2,4.2-2.2,7.2-3,9.1c-0.7,1.5-1.7,2.2-3,2.2c-1.4,0-3.5-0.7-6.3-2c-6-2.4-10.8-3.7-14.4-3.7
				c-1.1,0-2.2,0.2-3.3,0.6c-1.1,0.4-1.6,0.9-1.6,1.6c0,0.7,0.5,1.4,1.4,2.2c1.4,1.1,5.8,2.2,13.4,3.3c6.2,0.8,11.1,2.3,14.7,4.4
				c3.6,2.1,6.5,5.4,8.8,9.9c2,3.7,3,8,3,13c0,5.8-1.5,11.4-4.6,16.8c-3,5.4-7.2,9.6-12.5,12.9c-5.8,3.4-13.1,5.1-21.9,5.1
				c-8.7,0-17.2-1.6-25.6-4.8c-8.4-3.2-15-7.3-19.9-12.5c-2-2.3-3-4-3-5.1c0-1.1,1.2-3.1,3.7-6c2.4-2.9,5-5.7,7.8-8.4
				c2.8-2.7,4.4-4.1,5-4.1c0.4,0,2.1,1.2,5.1,3.5c6,4.5,12.1,6.9,18.5,7.3h2.6c2.2,0,3.8-0.4,4.9-1.3c1.1-0.9,1.6-2,1.6-3.4
				c0-1.8-1.2-3.3-3.5-4.6c-2.3-1.3-6.2-2.3-11.8-3.1c-14.2-2.3-23.4-7.8-27.6-16.5c-1.4-2.6-2-5.5-2-8.7c0-3.8,1.1-7.7,3.3-11.7
				c2.2-4,5.1-7.5,8.8-10.5c3.7-3,7.8-5,12.3-6.1C892,629.5,895.8,629.2,900.3,629.2z"/>
		</g>
	</g>
	<g>
		<g>
			<path class="st3" d="M393.1,617.4c8.8,0,17.6,1.4,26.4,4.1c3.9,1.2,6.6,2.4,8.1,3.7c1.5,1.2,2.2,2.8,2.2,4.7
				c0,1.5-1.1,5.1-3.1,10.9c-2.1,5.8-4,10.3-5.8,13.5c-0.5,1.4-1.5,2-2.8,2c-0.8,0-2.5-0.5-5.1-1.6c-5.3-2.3-10.5-3.5-15.6-3.5h-1.2
				l-1,0.2c-3.9,0.5-7.8,2.2-11.7,5.1c-3.9,2.8-6.7,6.1-8.4,9.8c-1.5,3.3-2.2,6.8-2.2,10.8c0,6.9,1.9,12.4,5.8,16.5
				c3.9,4.1,10.2,6.1,19,6.1c5.3,0,10.2-1,14.6-3c1.8-0.9,3.7-1.4,5.7-1.4c1.5,0,2.6,0.4,3.5,1.2c1.1,1.2,2.7,4.2,5,9
				c2.2,4.8,3.5,8,3.8,9.6c0.1,0.3,0.2,0.9,0.2,1.8c0,2.3-1.1,4.1-3.3,5.5c-2.2,1.6-6.4,3.5-12.8,5.5c-9.1,3.1-16.9,4.7-23.6,4.7
				H387c-8.1-0.4-14.7-1.7-19.6-3.8c-4.9-2.1-10-5.8-15.1-11.1c-11.4-11.2-17.1-25.8-17.1-43.7c0-4.5,0.3-7.7,0.8-9.8
				c1.4-6.9,4.3-13.6,8.9-20c4.6-6.4,10.2-12,16.8-16.6c6.6-4.6,13.4-7.6,20.6-9.1C386.1,617.7,389.7,617.4,393.1,617.4z"/>
			<path class="st3" d="M440.6,632.6c1.2-0.8,4.1-1.2,8.7-1.2c4.7,0,9.2,0.3,13.5,1c4.3,0.7,6.8,1.6,7.6,2.6c0.9,1.1,1.4,2,1.4,2.8
				c0,0.1,0.1,0.2,0.4,0.2c0.8,0,2.7-0.7,5.7-2.2c5.7-2.8,10.8-4.3,15.4-4.3c4.7,0,9.6,1.4,14.6,4.1c5,2.7,7.5,5.6,7.5,8.5
				c0,1.6-1.2,4.9-3.5,9.9c-2.3,4.9-4.3,8.7-6.1,11.3c-1.4,2-2.8,3-4.3,3c-0.5,0-2-0.3-4.5-1c-2.4-0.8-4.7-1.2-6.9-1.2
				c-4.6,0-8.3,1.8-11.2,5.5c-4.9,6.2-7.3,19.8-7.3,40.6v2.8c0,3-0.2,5.1-0.5,6.3c-0.3,1.2-1.2,2-2.4,2.4c-1.3,0.4-3.4,0.6-6.4,0.6
				l-3.5-0.2h-4.5c-9.5-0.3-14.9-0.9-16.3-1.8c-1.6-1.1-2.5-2.2-2.6-3.5c-0.4-1.5-0.6-6.6-0.6-15.2c0-13.1,0.3-27.4,0.9-42.7
				c0.6-15.3,1.3-23.8,1.9-25.4C438.7,634.3,439.6,633.3,440.6,632.6z"/>
			<path class="st3" d="M570.1,626.1h2.6c5.6,0.3,10,1.2,13.2,2.8c3.3,1.6,7.2,4.8,12,9.5c7.3,7.3,12,15.2,14,23.6
				c0.7,3.4,1,6.2,1,8.5c0,8.3-1.4,12.9-4.1,14h-33.7c-10.7,0-16,0.1-16,0.2c0,1.6,1.6,3.4,4.7,5.2c3.1,1.8,6.8,3.2,11,4.2
				c2.3,0.4,4.4,0.6,6.3,0.6c3.1,0,7.2-0.8,12.4-2.4c3.9-1.1,6.4-1.6,7.5-1.6c1.4,0,2.4,0.4,3.3,1.2c0.9,1.4,2.4,3.9,4.3,7.5
				c1.9,3.7,2.8,6.2,2.8,7.7c0,3-2.5,5.9-7.5,8.7c-4.9,3-10,5.1-15.3,6.3c-5.4,1.2-11.7,1.8-19,1.8c-8.9,0-15.8-0.8-20.7-2.4
				c-4.9-1.6-10.1-5.1-15.6-10.6c-5.6-5.4-9.3-10.7-11.4-15.8c-2-5.1-3-11.2-3-18.1c0-7.6,1.1-14.5,3.4-20.7
				c2.2-6.2,6.5-12,12.7-17.3c6.5-5.7,14.8-9.7,24.8-12C562.9,626.4,566.4,626.1,570.1,626.1z M569.4,653.7c-3,0-5.6,0.9-7.8,2.6
				c-2.2,1.8-3.4,4-3.6,6.7l-0.2,2.4l10,0.6l8.3,0.4h1c0.5,0,0.9-0.1,1-0.2h0.4h0.4c0.5-0.1,0.8-0.9,0.8-2.4c0-1.8-0.4-3.5-1.2-5.1
				C576.8,655.4,573.8,653.7,569.4,653.7z"/>
			<path class="st3" d="M695.6,606.2c8.4,0,13.5,0.2,15.2,0.6c1.9,0.4,3.5,1.4,4.9,2.8l1.8,2l-0.4,53.2c-0.1,32.2-0.6,50.2-1.4,54
				c-0.5,1.5-1.6,2.6-3,3.3l-0.8,0.4c-1.8,0.7-5.6,1-11.4,1H696c-7.9-0.3-12.5-0.6-14-1c-2.3-0.7-3.9-2-4.9-3.9c0-0.1-0.3-0.7-1-1.6
				c-0.5-0.4-0.9-0.5-1-0.4l-5.9,2.4c-3.4,1.5-8.1,2.2-14.2,2.2c-5.6,0-9.5-0.2-11.8-0.6c-2.3-0.4-5.1-1.4-8.3-3
				c-10.3-5-16.4-12.8-18.3-23.4c-0.7-4.5-1-8.1-1-11c0-9.5,2-18,6-25.6c4-7.6,9.1-13.5,15.4-17.7c6.3-4.2,12.8-6.3,19.4-6.3
				c6.4,0,12.5,1.9,18.3,5.7c1.4,0.9,2.2,1.3,2.4,1c0.1-0.1,0.5-4.7,1.2-13.8c0.7-9.1,1.2-14.3,1.6-15.6c0.7-2.3,2.6-3.8,5.7-4.5
				C687.8,606.3,691.1,606.2,695.6,606.2z M673.1,666.1c-1.8-1.2-3.8-1.8-6.1-1.8c-2.2,0-4.6,0.7-7.3,2.2c-4.6,3-6.9,7-6.9,12.2
				c0,3.4,1.2,6.6,3.6,9.6c2.4,3,5.7,4.6,10.1,4.6c1.9,0,4-0.4,6.3-1.2l3-1v-22.8L673.1,666.1z"/>
			<path class="st3" d="M743.8,644.8h5.5h2.2c1.9,0,3.5,0.2,4.7,0.6c1.1,0.4,1.8,0.9,2.1,1.4c0.3,0.5,0.6,1.6,0.7,3.3
				c0.3,3.5,0.4,16,0.4,37.6c0,22.6-0.3,34.2-0.8,34.7c-1.1,1.1-5.4,1.6-12.8,1.6h-7.3l-5.5-0.2c-3.3,0-5.1-0.1-5.7-0.2
				c-1.4-0.1-2.4-0.6-3.3-1.4l-1.6-1.6l-0.2-27.4v-8.5c0-23.7,0.8-36.4,2.4-38.2c0.7-0.8,5-1.3,13-1.4
				C740.2,645,742.3,644.9,743.8,644.8z M740.9,607.2c4.5,0,8.3,1.6,11.6,4.7c3.3,3.1,4.9,6.6,4.9,10.4v2.6c-0.3,3.9-1.8,7-4.7,9.2
				c-2.8,2.2-6.6,3.4-11.4,3.4h-1.2c-4.7-0.3-8.6-1.7-11.5-4.2c-2.9-2.5-4.4-5.7-4.4-9.6c0-2,0.3-3.9,1-5.6c0.7-1.7,2-3.6,3.9-5.6
				C732.5,609,736.4,607.2,740.9,607.2z"/>
			<path class="st3" d="M793.3,606.2c0,0,3.7,0,11.2,0c7.6,0,12.3,0.1,14.2,0.4c2.3,0.5,3.7,1.1,4.2,1.5c0.5,0.5,0.7,1.5,0.7,3.1
				l-0.4,10.8l-0.4,6.5l-0.2,2.4l9.8,0.2c1.9,0,3.3,0.1,4.1,0.2c3.4,0,5.6,0.3,6.7,0.8c1.1,0.5,1.8,2,2,4.3c0.3,2.3,0.4,7,0.4,14.2
				v3.5c0,3.8-0.2,6.4-0.5,7.7c-0.3,1.4-1.1,2.2-2.2,2.6c-1.2,0.4-3.4,0.6-6.6,0.6h-13l-0.6,4.3c-0.3,3.3-0.4,5.3-0.4,6.1
				c0,14.1,3.6,21.1,10.8,21.1c1.5,0,3.5-0.7,5.9-2.1c2.4-1.4,3.9-2.5,4.5-3.1c0.4-0.5,0.9-0.8,1.4-0.8c1.2,0,2.8,0.9,4.7,2.8
				c2.2,2.2,4.2,4.8,6.2,7.8c2,3,2.9,5.1,2.9,6.2c0,1.6-1.9,3.9-5.6,6.9c-3.7,3-8.1,5.6-13.1,7.9c-6.5,3-13.5,4.5-21.1,4.5
				c-4.7,0-8.8-0.8-12.3-2.4c-3.5-1.6-7.1-4.5-11.1-8.5c-4.6-4.6-7.9-9.5-10-14.8c-2-5.3-3-13.3-3-24v-4.7v-2.8
				c-0.1-0.4-0.2-1.1-0.2-2c0-0.7-0.1-1.1-0.4-1.4l-0.8-0.8c-0.1-0.4-1.1-0.6-2.8-0.6l-2.4-0.2h-3.3c-2.8-0.3-4.7-0.5-5.5-0.6
				c-0.8-0.1-1.6-0.7-2.2-1.8c-0.5-0.9-0.8-2.7-0.8-5.3c0-3.7,0.1-6.2,0.2-7.5c0.3-4.1,0.4-6.6,0.4-7.7c0.1-1.8,0.2-3.3,0.3-4.5
				c0.1-1.2,0.2-2,0.3-2.4l0.8-2.8l8.3-0.4c4.1-0.1,6.5-0.3,7.3-0.6c0.7-0.3,1.1-0.7,1.2-1.2c0.1-3,0.4-7.1,0.9-12.4
				c0.5-5.3,0.9-8.1,1.3-8.5c0.7-0.8,2.2-1.4,4.7-1.8C792.1,606.3,793.3,606.2,793.3,606.2z"/>
			<path class="st3" d="M900.6,627.9h3.7c3.9,0,8.4,0.5,13.3,1.5c4.9,1,9.4,2.1,13.5,3.4c4.1,1.2,6.4,2,7.1,2.4c1.4,0.9,2,2.4,2,4.5
				c0,2.2-0.6,5.4-1.8,9.5c-1.2,4.2-2.2,7.2-3,9.1c-0.7,1.5-1.7,2.2-3,2.2c-1.4,0-3.5-0.7-6.3-2c-6-2.4-10.8-3.7-14.4-3.7
				c-1.1,0-2.2,0.2-3.3,0.6c-1.1,0.4-1.6,0.9-1.6,1.6c0,0.7,0.5,1.4,1.4,2.2c1.4,1.1,5.8,2.2,13.4,3.3c6.2,0.8,11.1,2.3,14.7,4.4
				c3.6,2.1,6.5,5.4,8.8,9.9c2,3.7,3,8,3,13c0,5.8-1.5,11.4-4.6,16.8c-3,5.4-7.2,9.6-12.5,12.9c-5.8,3.4-13.1,5.1-21.9,5.1
				c-8.7,0-17.2-1.6-25.6-4.8c-8.4-3.2-15-7.3-19.9-12.5c-2-2.3-3-4-3-5.1c0-1.1,1.2-3.1,3.7-6c2.4-2.9,5-5.7,7.8-8.4
				c2.8-2.7,4.4-4.1,5-4.1c0.4,0,2.1,1.2,5.1,3.5c6,4.5,12.1,6.9,18.5,7.3h2.6c2.2,0,3.8-0.4,4.9-1.3c1.1-0.9,1.6-2,1.6-3.4
				c0-1.8-1.2-3.3-3.5-4.6c-2.3-1.3-6.2-2.3-11.8-3.1c-14.2-2.3-23.4-7.8-27.6-16.5c-1.4-2.6-2-5.5-2-8.7c0-3.8,1.1-7.7,3.3-11.7
				c2.2-4,5.1-7.5,8.8-10.5c3.7-3,7.8-5,12.3-6.1C892.3,628.2,896.1,627.9,900.6,627.9z"/>
		</g>
	</g>
	<g>
		<path class="st4" d="M530.5,894c6.5,0,11.5,0.2,15.2,0.7c3.6,0.5,6.9,1.4,10,2.7c2.8,1.2,5.5,3.1,8.1,5.6c2.6,2.5,4.3,4.6,5.1,6.3
			c1.5,3.2,2.3,6.8,2.3,10.5c0,5.4-1.4,10.5-4.3,15.4c-2.9,4.8-6.7,8.5-11.4,11c-4,1.9-7.9,3.3-11.7,4.2c-3.8,0.8-8.5,1.2-14,1.2
			c-5.6,0-9.2-0.3-11-0.8c-1.4-0.3-2.3-0.5-2.8-0.8c-0.5-0.2-0.9-0.7-1.1-1.5c-0.3-0.8-0.4-2.3-0.4-4.7l0.2-6.1
			c0.1-1.9,0.1-4.5,0.1-7.6l0.6-32.2c0.1-1.4,0.3-2.4,0.5-2.8c0.3-0.4,1-0.7,2.1-0.9C519.8,894.1,523.9,894,530.5,894z M537.3,910.8
			c-0.6,0-1.1,0.1-1.2,0.4c-0.2,0.3-0.3,0.9-0.4,2c-0.3,2.8-0.4,6.8-0.4,11.9c0,5.6,0.1,8.5,0.4,8.8c0.1,0.1,0.5,0.2,1.2,0.2
			c2.4,0,4.7-0.6,7-1.7c2.3-1.2,4.2-2.7,5.7-4.8c1.4-2.1,2.2-4.2,2.2-6.3c0-1.1-0.2-2.1-0.6-3c-1.2-3.1-4.3-5.3-9.4-6.6
			C539.3,911.1,537.8,910.8,537.3,910.8z"/>
		<path class="st4" d="M600.4,897.1h1.4c3,0.1,5.3,0.6,7,1.5s3.9,2.6,6.4,5.1c3.9,3.9,6.4,8.1,7.5,12.6c0.4,1.8,0.5,3.3,0.5,4.5
			c0,4.4-0.7,6.9-2.2,7.5h-18c-5.7,0-8.6,0-8.6,0.1c0,0.9,0.8,1.8,2.5,2.8c1.7,1,3.6,1.7,5.8,2.2c1.2,0.2,2.3,0.3,3.4,0.3
			c1.7,0,3.9-0.4,6.6-1.3c2.1-0.6,3.4-0.9,4-0.9c0.7,0,1.3,0.2,1.7,0.6c0.5,0.7,1.3,2.1,2.3,4c1,1.9,1.5,3.3,1.5,4.1
			c0,1.6-1.3,3.1-4,4.7c-2.6,1.6-5.3,2.7-8.2,3.4c-2.9,0.6-6.2,1-10.1,1c-4.8,0-8.4-0.4-11-1.3c-2.6-0.9-5.4-2.7-8.3-5.6
			c-3-2.9-5-5.7-6.1-8.4c-1.1-2.7-1.6-6-1.6-9.6c0-4,0.6-7.7,1.8-11c1.2-3.3,3.4-6.4,6.8-9.2c3.5-3,7.9-5.2,13.2-6.4
			C596.5,897.3,598.4,897.1,600.4,897.1z M600,911.8c-1.6,0-3,0.5-4.2,1.4c-1.2,0.9-1.8,2.1-1.9,3.6l-0.1,1.3l5.3,0.3l4.4,0.2h0.5
			c0.3,0,0.5,0,0.5-0.1h0.2h0.2c0.3-0.1,0.4-0.5,0.4-1.3c0-0.9-0.2-1.8-0.6-2.7C604,912.7,602.3,911.8,600,911.8z"/>
		<path class="st4" d="M646.1,898.1h1.9c2.1,0,4.5,0.3,7.1,0.8c2.6,0.5,5,1.1,7.2,1.8c2.2,0.6,3.4,1.1,3.8,1.3
			c0.7,0.5,1.1,1.3,1.1,2.4c0,1.2-0.3,2.9-1,5.1c-0.7,2.2-1.2,3.9-1.6,4.9c-0.4,0.8-0.9,1.2-1.6,1.2c-0.7,0-1.8-0.4-3.4-1.1
			c-3.2-1.3-5.7-1.9-7.7-1.9c-0.6,0-1.2,0.1-1.7,0.3c-0.6,0.2-0.9,0.5-0.9,0.9c0,0.4,0.3,0.8,0.8,1.2c0.7,0.6,3.1,1.2,7.1,1.7
			c3.3,0.4,5.9,1.2,7.9,2.3c1.9,1.1,3.5,2.9,4.7,5.3c1.1,1.9,1.6,4.3,1.6,6.9c0,3.1-0.8,6.1-2.4,8.9c-1.6,2.9-3.8,5.1-6.7,6.9
			c-3.1,1.8-7,2.7-11.7,2.7c-4.6,0-9.2-0.8-13.6-2.5c-4.5-1.7-8-3.9-10.6-6.7c-1.1-1.2-1.6-2.1-1.6-2.7c0-0.6,0.6-1.6,1.9-3.2
			c1.3-1.6,2.7-3,4.2-4.5c1.5-1.4,2.4-2.2,2.7-2.2c0.2,0,1.1,0.6,2.7,1.8c3.2,2.4,6.5,3.7,9.9,3.9h1.4c1.2,0,2-0.2,2.6-0.7
			c0.6-0.5,0.9-1.1,0.9-1.8c0-0.9-0.6-1.7-1.8-2.4c-1.2-0.7-3.3-1.2-6.3-1.7c-7.6-1.2-12.5-4.2-14.7-8.8c-0.7-1.4-1.1-2.9-1.1-4.7
			c0-2,0.6-4.1,1.7-6.2c1.2-2.1,2.7-4,4.7-5.6c2-1.6,4.2-2.7,6.6-3.2C641.6,898.2,643.7,898.1,646.1,898.1z"/>
		<path class="st4" d="M685.7,907.1h2.9h1.2c1,0,1.8,0.1,2.5,0.3c0.6,0.2,1,0.5,1.1,0.8c0.2,0.3,0.3,0.9,0.4,1.7
			c0.1,1.9,0.2,8.6,0.2,20c0,12.1-0.1,18.2-0.4,18.5c-0.6,0.6-2.9,0.9-6.8,0.9h-3.9l-2.9-0.1c-1.7,0-2.7,0-3-0.1
			c-0.7-0.1-1.3-0.3-1.7-0.8l-0.9-0.9l-0.1-14.6v-4.5c0-12.6,0.4-19.4,1.3-20.4c0.4-0.4,2.7-0.7,6.9-0.8
			C683.8,907.2,684.9,907.2,685.7,907.1z M684.2,887c2.4,0,4.4,0.8,6.2,2.5c1.7,1.7,2.6,3.5,2.6,5.5v1.4c-0.1,2.1-1,3.7-2.5,4.9
			c-1.5,1.2-3.5,1.8-6.1,1.8h-0.7c-2.5-0.1-4.6-0.9-6.1-2.2c-1.6-1.3-2.3-3-2.3-5.1c0-1.1,0.2-2.1,0.5-3c0.4-0.9,1-1.9,2.1-3
			C679.7,888,681.8,887,684.2,887z"/>
		<path class="st4" d="M718.5,902.6c3.9,0,6.4,0.3,7.4,0.8c1.1,0.6,2.2,1.2,3.2,1.9l1.6,1c0.2,0.1,0.4-0.1,0.6-0.4
			c0.5-0.9,1-1.6,1.4-1.9c0.4-0.4,0.9-0.6,1.6-0.7c0.6-0.1,1.8-0.2,3.6-0.3h1.9c4.8,0,8,0.5,9.6,1.4c1,0.6,1.6,1.9,1.8,4
			c0.2,2,0.3,7.9,0.3,17.7c0,11.3-0.2,18.8-0.5,22.6c-0.4,3.5-1.6,7.1-3.6,11c-3.6,7.4-9.1,11.9-16.4,13.5c-2.3,0.5-5.5,0.8-9.5,0.8
			c-3.6,0-6.4-0.2-8.5-0.7c-2.1-0.5-4.2-1.3-6.6-2.4c-1.9-0.9-3.4-1.8-4.2-2.7c-0.7-0.7-1.1-1.4-1.1-2.2c0-0.5,0-0.8,0.1-1
			c0.2-1.4,1.1-3.6,2.7-6.6c1.6-2.9,2.6-4.4,3.2-4.4c0.5,0,1.9,0.5,4.2,1.4c3.2,1.4,6.1,2.1,8.7,2.1c2.6,0,4.7-0.9,6.3-2.7
			c1.6-1.8,2.7-4.3,3.3-7.5l0.2-1.5l-1.9,1c-3.4,1.6-7.1,2.4-11.2,2.4c-8.5,0-14.6-4.1-18.2-12.2c-1.8-3.9-2.7-8.1-2.7-12.7
			c0-7.8,2.7-13.6,8.1-17.4c2.5-1.7,5.3-3,8.7-3.8C713.8,902.8,715.7,902.6,718.5,902.6z M727.3,920.1c-2.8,0-5,0.7-6.6,2
			c-1.6,1.3-2.3,3.1-2.3,5.1c0,0.9,0.2,1.8,0.7,2.6c1.3,2.6,3.5,3.9,6.6,3.9c1.2,0,2.4-0.2,3.6-0.6l1.1-0.3v-4.2
			c0-4.8-0.4-7.5-1.2-8.1C728.7,920.2,728.1,920.1,727.3,920.1z"/>
		<path class="st4" d="M789.2,899.4c5,0,8.9,1.4,11.7,4.1c2.8,2.7,4.8,6.2,6.1,10.4c0.6,1.9,0.9,7.7,1,17.3v6.8c0,5-0.2,7.7-0.6,8.1
			c-0.3,0.4-0.9,0.7-1.7,0.8c-0.9,0.1-3.5,0.3-7.8,0.3l-8.9,0.2l-0.4-1c-0.1-0.3-0.3-3.8-0.6-10.5c-0.1-5.4-0.3-9.6-0.8-12.5
			c-0.4-2.1-1.3-3.8-2.5-5.2c-0.7-0.6-1.5-1-2.6-1c-5.3,0-7.9,4.9-7.9,14.8c0,2.8,0,4.7,0.1,5.7c0.1,1.4,0.1,3.6,0.1,6.6
			c0,1.9-0.1,2.9-0.3,3.1c-0.2,0.2-2.3,0.4-6.1,0.5c-3.9,0.1-7.2,0.2-10.1,0.2c-1.2,0-1.9-0.1-2.3-0.2c-0.4-0.1-0.7-0.5-0.8-1
			c-0.1-0.5-0.3-1.4-0.3-2.7c-0.1-0.9-0.1-4.2-0.1-9.9l-0.1-9.7v-10.7l-0.1-7.8c0-2,0.1-3.4,0.4-4.3c0.3-0.8,0.8-1.4,1.6-1.6
			c0.8-0.3,2.1-0.4,4-0.4h5.4c4,0,6.4,0.2,7.3,0.5c0.7,0.3,1.1,1.4,1.1,3.5c0,1.7,0.1,2.6,0.3,2.6c0.2,0,1-0.7,2.5-2.1
			c2.5-2.3,5.2-3.9,7.9-4.7C785.9,899.6,787.5,899.4,789.2,899.4z"/>
		<path class="st4" d="M287.3,1005.2c4.5,0,8,0.2,10.5,0.5c2.5,0.3,4.8,0.9,6.9,1.8c1.9,0.8,3.8,2.1,5.6,3.8c1.8,1.7,3,3.2,3.5,4.4
			c1,2.2,1.6,4.7,1.6,7.2c0,3.7-1,7.3-3,10.6c-2,3.3-4.6,5.9-7.9,7.6c-2.7,1.3-5.4,2.3-8.1,2.9c-2.6,0.6-5.9,0.9-9.6,0.9
			c-3.8,0-6.4-0.2-7.6-0.5c-0.9-0.2-1.6-0.4-1.9-0.5c-0.3-0.1-0.6-0.5-0.7-1c-0.2-0.5-0.3-1.6-0.3-3.2l0.1-4.2
			c0-1.3,0.1-3.1,0.1-5.2l0.4-22.2c0-1,0.2-1.6,0.4-1.9c0.2-0.3,0.7-0.5,1.4-0.6C279.9,1005.3,282.8,1005.2,287.3,1005.2z
			 M292,1016.7c-0.4,0-0.7,0.1-0.9,0.3c-0.1,0.2-0.2,0.6-0.3,1.4c-0.2,1.9-0.3,4.7-0.3,8.2c0,3.8,0.1,5.9,0.3,6.1
			c0.1,0.1,0.4,0.1,0.8,0.1c1.6,0,3.3-0.4,4.9-1.2c1.6-0.8,2.9-1.9,4-3.3c1-1.4,1.5-2.9,1.5-4.3c0-0.7-0.1-1.4-0.4-2.1
			c-0.8-2.1-3-3.7-6.5-4.6C293.4,1016.9,292.4,1016.7,292,1016.7z"/>
		<path class="st4" d="M343.3,1010.2c2.8,0,5,0.2,6.5,0.5c1.1,0.2,1.9,0.6,2.4,1.2c0.5,0.5,0.9,1.4,1.2,2.5c0.1,0.6,0.2,2.9,0.2,6.7
			c0,8.5-0.2,14.3-0.5,17.4c-0.1,1.6-0.4,2.8-0.7,3.4c-0.3,0.6-0.9,1-1.8,1.2c-0.9,0.2-2.5,0.3-5,0.4c-0.6,0.1-1.7,0.1-3.2,0.1
			c-1.1,0-1.8-0.1-2.2-0.3s-0.7-0.7-1-1.5c-0.3-0.8-0.6-1.2-0.8-1.2c-0.2,0-1,0.3-2.3,1c-2.1,1-4.1,1.5-6,1.5c-2,0-4.1-0.7-6.3-2.2
			c-2.2-1.5-4-3.4-5.5-5.8c-1.5-2.4-2.2-4.8-2.2-7.3c0-1.1,0.1-2,0.3-2.6l0.2-1.1l0.1-0.8c0.1-1.1,1-2.9,2.6-5.4
			c2.4-3.8,5.6-6.1,9.3-7c0.7-0.1,1.5-0.2,2.3-0.2c2.8,0,5.1,0.7,7,2.1c0.5,0.3,0.9,0.5,1.1,0.5s0.4-0.2,0.4-0.5
			c0-0.2,0.2-0.6,0.6-1.2c0.4-0.5,0.8-0.9,1.2-1C341.5,1010.3,342.2,1010.2,343.3,1010.2z M335.4,1021.5c-1.2,0-2.3,0.3-3.2,1
			c-0.9,0.7-1.6,1.6-1.9,2.8c-0.2,0.4-0.2,0.9-0.2,1.4c0,1.3,0.5,2.3,1.6,3.1c1,0.8,2.5,1.2,4.3,1.2c0.9,0,1.6,0,1.9-0.1
			c0.3-0.1,0.5-0.3,0.6-0.7c0.1-0.3,0.2-1.1,0.4-2.2c0.2-1.3,0.3-2.7,0.3-4c0-0.7,0-1.2-0.1-1.4c-0.1-0.2-0.4-0.4-1-0.6
			C337.1,1021.6,336.3,1021.5,335.4,1021.5z"/>
		<path class="st4" d="M379,1008.9c3.4,0,6.1,0.9,8.1,2.8c1.9,1.9,3.3,4.3,4.2,7.2c0.4,1.3,0.6,5.3,0.7,12v4.7
			c0,3.4-0.1,5.3-0.4,5.6c-0.2,0.3-0.6,0.5-1.2,0.5c-0.6,0.1-2.4,0.2-5.4,0.2l-6.1,0.1l-0.3-0.7c0-0.2-0.2-2.6-0.4-7.2
			c0-3.7-0.2-6.6-0.5-8.6c-0.3-1.4-0.9-2.6-1.7-3.6c-0.4-0.4-1-0.7-1.8-0.7c-3.6,0-5.5,3.4-5.5,10.2c0,1.9,0,3.3,0.1,4
			c0,0.9,0.1,2.5,0.1,4.6c0,1.3-0.1,2-0.2,2.2s-1.6,0.3-4.2,0.4c-2.7,0.1-5,0.1-7,0.1c-0.8,0-1.3,0-1.6-0.1
			c-0.3-0.1-0.5-0.3-0.6-0.7c-0.1-0.3-0.2-1-0.2-1.9c-0.1-0.6-0.1-2.9-0.1-6.8l-0.1-6.7v-7.4l-0.1-5.4c0-1.4,0.1-2.4,0.3-3
			c0.2-0.6,0.5-0.9,1.1-1.1c0.5-0.2,1.5-0.3,2.8-0.3h3.7c2.7,0,4.4,0.1,5,0.4c0.5,0.2,0.7,1,0.7,2.4c0,1.2,0.1,1.8,0.2,1.8
			s0.7-0.5,1.7-1.4c1.7-1.6,3.6-2.7,5.5-3.2C376.7,1009.1,377.9,1008.9,379,1008.9z"/>
		<path class="st4" d="M401.6,1014.2h2h0.8c0.7,0,1.3,0.1,1.7,0.2c0.4,0.1,0.7,0.3,0.8,0.5c0.1,0.2,0.2,0.6,0.3,1.2
			c0.1,1.3,0.1,5.9,0.1,13.8c0,8.3-0.1,12.6-0.3,12.8c-0.4,0.4-2,0.6-4.7,0.6h-2.7l-2-0.1c-1.2,0-1.9,0-2.1-0.1
			c-0.5,0-0.9-0.2-1.2-0.5l-0.6-0.6l-0.1-10.1v-3.1c0-8.7,0.3-13.4,0.9-14c0.2-0.3,1.8-0.5,4.8-0.5
			C400.3,1014.3,401,1014.3,401.6,1014.2z M400.5,1000.4c1.6,0,3.1,0.6,4.3,1.7c1.2,1.1,1.8,2.4,1.8,3.8v1c-0.1,1.4-0.7,2.6-1.7,3.4
			c-1,0.8-2.4,1.2-4.2,1.2h-0.4c-1.7-0.1-3.2-0.6-4.2-1.5c-1.1-0.9-1.6-2.1-1.6-3.5c0-0.7,0.1-1.4,0.4-2.1c0.2-0.6,0.7-1.3,1.4-2.1
			C397.4,1001,398.9,1000.4,400.5,1000.4z"/>
		<path class="st4" d="M428,1007.3h1c2,0.1,3.7,0.4,4.9,1c1.2,0.6,2.7,1.8,4.4,3.5c2.7,2.7,4.4,5.6,5.2,8.7c0.2,1.2,0.4,2.3,0.4,3.1
			c0,3-0.5,4.8-1.5,5.2h-12.4c-3.9,0-5.9,0-5.9,0.1c0,0.6,0.6,1.2,1.7,1.9c1.1,0.7,2.5,1.2,4,1.5c0.8,0.1,1.6,0.2,2.3,0.2
			c1.1,0,2.7-0.3,4.6-0.9c1.4-0.4,2.4-0.6,2.8-0.6c0.5,0,0.9,0.1,1.2,0.4c0.3,0.5,0.9,1.4,1.6,2.8c0.7,1.3,1,2.3,1,2.8
			c0,1.1-0.9,2.2-2.8,3.2c-1.8,1.1-3.7,1.9-5.6,2.3c-2,0.4-4.3,0.7-7,0.7c-3.3,0-5.8-0.3-7.6-0.9c-1.8-0.6-3.7-1.9-5.8-3.9
			c-2-2-3.4-3.9-4.2-5.8c-0.7-1.9-1.1-4.1-1.1-6.7c0-2.8,0.4-5.3,1.2-7.6c0.8-2.3,2.4-4.4,4.7-6.4c2.4-2.1,5.4-3.6,9.1-4.4
			C425.4,1007.5,426.7,1007.3,428,1007.3z M427.8,1017.5c-1.1,0-2.1,0.3-2.9,1c-0.8,0.6-1.3,1.5-1.3,2.5l-0.1,0.9l3.7,0.2l3.1,0.1
			h0.4c0.2,0,0.3,0,0.4-0.1h0.1h0.1c0.2,0,0.3-0.3,0.3-0.9c0-0.6-0.1-1.3-0.4-1.9C430.5,1018.1,429.4,1017.5,427.8,1017.5z"/>
		<path class="st4" d="M449.7,1002.6h1.8c3.8,0.1,5.9,0.6,6.3,1.6c0.1,0.9,0.2,7.1,0.3,18.8v9.7c0,4.2,0,7.1-0.1,8.4
			c-0.1,1.1-0.3,1.7-0.8,1.9c-0.6,0.1-2.3,0.3-4.9,0.3c-0.5,0-1.4,0.1-2.8,0.1c-1.4,0-2.4-0.1-2.9-0.3s-0.8-0.5-0.9-1
			c-0.1-0.4-0.1-1.3-0.1-2.6l0.1-1.6v-1.9c0-0.7,0-1.3,0.1-1.9v-1.9c0-2.5-0.1-4.6-0.2-6.3c-0.3-4.2-0.5-8.3-0.5-12.3
			c0-2.7,0.1-5.2,0.4-7.2c0.3-2.1,0.8-3.3,1.5-3.5C447.3,1002.7,448.2,1002.6,449.7,1002.6z"/>
		<path class="st4" d="M486.2,1010.2c2.8,0,5,0.2,6.5,0.5c1.1,0.2,1.9,0.6,2.4,1.2c0.5,0.5,0.9,1.4,1.2,2.5c0.1,0.6,0.2,2.9,0.2,6.7
			c0,8.5-0.2,14.3-0.5,17.4c-0.1,1.6-0.4,2.8-0.7,3.4c-0.3,0.6-0.9,1-1.8,1.2c-0.9,0.2-2.5,0.3-5,0.4c-0.6,0.1-1.7,0.1-3.2,0.1
			c-1.1,0-1.8-0.1-2.2-0.3s-0.7-0.7-1-1.5c-0.3-0.8-0.6-1.2-0.8-1.2c-0.2,0-1,0.3-2.3,1c-2.1,1-4.1,1.5-6,1.5c-2,0-4.1-0.7-6.3-2.2
			c-2.2-1.5-4-3.4-5.5-5.8c-1.5-2.4-2.2-4.8-2.2-7.3c0-1.1,0.1-2,0.3-2.6l0.2-1.1l0.1-0.8c0.1-1.1,1-2.9,2.6-5.4
			c2.4-3.8,5.6-6.1,9.3-7c0.7-0.1,1.5-0.2,2.3-0.2c2.8,0,5.1,0.7,7,2.1c0.5,0.3,0.9,0.5,1.1,0.5s0.4-0.2,0.4-0.5
			c0-0.2,0.2-0.6,0.6-1.2c0.4-0.5,0.8-0.9,1.2-1C484.4,1010.3,485.1,1010.2,486.2,1010.2z M478.2,1021.5c-1.2,0-2.3,0.3-3.2,1
			c-0.9,0.7-1.6,1.6-1.9,2.8c-0.2,0.4-0.2,0.9-0.2,1.4c0,1.3,0.5,2.3,1.6,3.1c1,0.8,2.5,1.2,4.3,1.2c0.9,0,1.6,0,1.9-0.1
			c0.3-0.1,0.5-0.3,0.6-0.7c0.1-0.3,0.2-1.1,0.4-2.2c0.2-1.3,0.3-2.7,0.3-4c0-0.7,0-1.2-0.1-1.4c-0.1-0.2-0.4-0.4-1-0.6
			C480,1021.6,479.2,1021.5,478.2,1021.5z"/>
		<path class="st4" d="M529.5,1004.9c1.9,0,3.9,0.1,5.9,0.2c2,0.1,3.3,0.3,3.9,0.6c0.5,0.2,1,0.9,1.6,2.2c0.6,1.3,1.6,4.1,3.1,8.1
			c2,5.1,3.7,9.2,5,12.3c3.2,7.7,4.9,12.1,4.9,13.3c0,0.5-0.3,0.9-0.9,1.3c-1.1,0.7-3.4,1.1-6.9,1.1c-0.3,0-0.4,0-0.6-0.1H545
			c-1-0.1-1.8-0.4-2.3-0.9c-0.5-0.5-0.9-1.4-1.3-2.7l-0.6-1.9l-1.7-0.1c-1.8-0.2-4.3-0.3-7.6-0.3c-1.6,0-2.6,0-3,0.1l-2.4,0.2
			l-0.7,2.1c-0.4,1.2-0.8,2-1.1,2.4c-0.3,0.3-0.9,0.6-1.7,0.7c-0.9,0.1-2.3,0.2-4.2,0.2c-1.9,0-3.2-0.1-3.9-0.3
			c-0.7-0.2-1.1-0.7-1.1-1.5c0-1,0.7-3.5,2.2-7.5c1.8-5.1,3.4-10,4.9-14.6c2.9-8.9,5.1-13.7,6.7-14.5
			C527.6,1005.1,528.5,1004.9,529.5,1004.9z M533.3,1018.1c-0.1,0-0.7,1.3-1.8,4c-1,2.6-1.5,4.2-1.5,4.6s1.3,0.7,4,0.7
			c0.9,0,1.6,0,2-0.1c0.4-0.1,0.7-0.3,0.7-0.7c0-0.8-0.7-2.7-2-5.8C533.8,1019,533.4,1018.1,533.3,1018.1z"/>
		<path class="st4" d="M558.4,1009.7c0.4-0.3,1.5-0.4,3.2-0.4c1.7,0,3.4,0.1,5,0.4c1.6,0.3,2.5,0.6,2.8,1c0.3,0.4,0.5,0.7,0.5,1
			c0,0.1,0,0.1,0.1,0.1c0.3,0,1-0.3,2.1-0.8c2.1-1,4-1.6,5.7-1.6c1.7,0,3.5,0.5,5.4,1.5c1.8,1,2.8,2,2.8,3.1c0,0.6-0.4,1.8-1.3,3.6
			c-0.8,1.8-1.6,3.2-2.2,4.1c-0.5,0.7-1,1.1-1.6,1.1c-0.2,0-0.7-0.1-1.6-0.4c-0.9-0.3-1.7-0.4-2.5-0.4c-1.7,0-3.1,0.7-4.1,2
			c-1.8,2.3-2.7,7.3-2.7,14.9v1c0,1.1-0.1,1.9-0.2,2.3c-0.1,0.4-0.4,0.7-0.9,0.9c-0.5,0.1-1.3,0.2-2.4,0.2l-1.3-0.1h-1.6
			c-3.5-0.1-5.5-0.3-6-0.7c-0.6-0.4-0.9-0.8-1-1.3c-0.1-0.5-0.2-2.4-0.2-5.6c0-4.8,0.1-10.1,0.3-15.7c0.2-5.6,0.5-8.7,0.7-9.3
			C557.7,1010.3,558,1010,558.4,1009.7z"/>
		<path class="st4" d="M606,1007.3h1c2,0.1,3.7,0.4,4.9,1c1.2,0.6,2.7,1.8,4.4,3.5c2.7,2.7,4.4,5.6,5.2,8.7c0.2,1.2,0.4,2.3,0.4,3.1
			c0,3-0.5,4.8-1.5,5.2h-12.4c-3.9,0-5.9,0-5.9,0.1c0,0.6,0.6,1.2,1.7,1.9c1.1,0.7,2.5,1.2,4,1.5c0.8,0.1,1.6,0.2,2.3,0.2
			c1.1,0,2.7-0.3,4.6-0.9c1.4-0.4,2.4-0.6,2.8-0.6c0.5,0,0.9,0.1,1.2,0.4c0.3,0.5,0.9,1.4,1.6,2.8c0.7,1.3,1,2.3,1,2.8
			c0,1.1-0.9,2.2-2.8,3.2c-1.8,1.1-3.7,1.9-5.6,2.3c-2,0.4-4.3,0.7-7,0.7c-3.3,0-5.8-0.3-7.6-0.9c-1.8-0.6-3.7-1.9-5.8-3.9
			c-2-2-3.4-3.9-4.2-5.8c-0.7-1.9-1.1-4.1-1.1-6.7c0-2.8,0.4-5.3,1.2-7.6c0.8-2.3,2.4-4.4,4.7-6.4c2.4-2.1,5.4-3.6,9.1-4.4
			C603.4,1007.5,604.7,1007.3,606,1007.3z M605.8,1017.5c-1.1,0-2.1,0.3-2.9,1c-0.8,0.6-1.3,1.5-1.3,2.5l-0.1,0.9l3.7,0.2l3.1,0.1
			h0.4c0.2,0,0.3,0,0.4-0.1h0.1h0.1c0.2,0,0.3-0.3,0.3-0.9c0-0.6-0.1-1.3-0.4-1.9C608.5,1018.1,607.4,1017.5,605.8,1017.5z"/>
		<path class="st4" d="M647.5,1008.9c3.4,0,6.1,0.9,8.1,2.8c1.9,1.9,3.3,4.3,4.2,7.2c0.4,1.3,0.6,5.3,0.7,12v4.7
			c0,3.4-0.1,5.3-0.4,5.6c-0.2,0.3-0.6,0.5-1.2,0.5c-0.6,0.1-2.4,0.2-5.4,0.2l-6.1,0.1l-0.3-0.7c0-0.2-0.2-2.6-0.4-7.2
			c0-3.7-0.2-6.6-0.5-8.6c-0.3-1.4-0.9-2.6-1.7-3.6c-0.4-0.4-1-0.7-1.8-0.7c-3.6,0-5.5,3.4-5.5,10.2c0,1.9,0,3.3,0.1,4
			c0,0.9,0.1,2.5,0.1,4.6c0,1.3-0.1,2-0.2,2.2s-1.6,0.3-4.2,0.4c-2.7,0.1-5,0.1-7,0.1c-0.8,0-1.3,0-1.6-0.1
			c-0.3-0.1-0.5-0.3-0.6-0.7c-0.1-0.3-0.2-1-0.2-1.9c-0.1-0.6-0.1-2.9-0.1-6.8l-0.1-6.7v-7.4l-0.1-5.4c0-1.4,0.1-2.4,0.3-3
			c0.2-0.6,0.5-0.9,1.1-1.1c0.5-0.2,1.5-0.3,2.8-0.3h3.7c2.7,0,4.4,0.1,5,0.4c0.5,0.2,0.7,1,0.7,2.4c0,1.2,0.1,1.8,0.2,1.8
			s0.7-0.5,1.7-1.4c1.7-1.6,3.6-2.7,5.5-3.2C645.2,1009.1,646.4,1008.9,647.5,1008.9z"/>
		<path class="st4" d="M688.2,1010.2c2.8,0,5,0.2,6.5,0.5c1.1,0.2,1.9,0.6,2.4,1.2c0.5,0.5,0.9,1.4,1.2,2.5c0.1,0.6,0.2,2.9,0.2,6.7
			c0,8.5-0.2,14.3-0.5,17.4c-0.1,1.6-0.4,2.8-0.7,3.4c-0.3,0.6-0.9,1-1.8,1.2c-0.9,0.2-2.5,0.3-5,0.4c-0.6,0.1-1.7,0.1-3.2,0.1
			c-1.1,0-1.8-0.1-2.2-0.3s-0.7-0.7-1-1.5c-0.3-0.8-0.6-1.2-0.8-1.2c-0.2,0-1,0.3-2.3,1c-2.1,1-4.1,1.5-6,1.5c-2,0-4.1-0.7-6.3-2.2
			c-2.2-1.5-4-3.4-5.5-5.8c-1.5-2.4-2.2-4.8-2.2-7.3c0-1.1,0.1-2,0.3-2.6l0.2-1.1l0.1-0.8c0.1-1.1,1-2.9,2.6-5.4
			c2.4-3.8,5.6-6.1,9.3-7c0.7-0.1,1.5-0.2,2.3-0.2c2.8,0,5.1,0.7,7,2.1c0.5,0.3,0.9,0.5,1.1,0.5s0.4-0.2,0.4-0.5
			c0-0.2,0.2-0.6,0.6-1.2c0.4-0.5,0.8-0.9,1.2-1C686.5,1010.3,687.1,1010.2,688.2,1010.2z M680.3,1021.5c-1.2,0-2.3,0.3-3.2,1
			c-0.9,0.7-1.6,1.6-1.9,2.8c-0.2,0.4-0.2,0.9-0.2,1.4c0,1.3,0.5,2.3,1.6,3.1c1,0.8,2.5,1.2,4.3,1.2c0.9,0,1.6,0,1.9-0.1
			c0.3-0.1,0.5-0.3,0.6-0.7c0.1-0.3,0.2-1.1,0.4-2.2c0.2-1.3,0.3-2.7,0.3-4c0-0.7,0-1.2-0.1-1.4c-0.1-0.2-0.4-0.4-1-0.6
			C682.1,1021.6,681.3,1021.5,680.3,1021.5z"/>
		<path class="st4" d="M714,1008h1.3c1.4,0,3.1,0.2,4.9,0.6c1.8,0.4,3.5,0.8,5,1.2c1.5,0.4,2.4,0.7,2.6,0.9c0.5,0.3,0.7,0.9,0.7,1.6
			c0,0.8-0.2,2-0.7,3.5c-0.4,1.5-0.8,2.7-1.1,3.4c-0.3,0.5-0.6,0.8-1.1,0.8s-1.3-0.2-2.3-0.7c-2.2-0.9-4-1.3-5.3-1.3
			c-0.4,0-0.8,0.1-1.2,0.2c-0.4,0.1-0.6,0.3-0.6,0.6c0,0.3,0.2,0.5,0.5,0.8c0.5,0.4,2.1,0.8,4.9,1.2c2.3,0.3,4.1,0.8,5.4,1.6
			c1.3,0.8,2.4,2,3.3,3.6c0.7,1.3,1.1,2.9,1.1,4.8c0,2.1-0.6,4.2-1.7,6.2c-1.1,2-2.7,3.5-4.6,4.7c-2.1,1.2-4.8,1.9-8.1,1.9
			c-3.2,0-6.3-0.6-9.4-1.8c-3.1-1.2-5.5-2.7-7.3-4.6c-0.7-0.8-1.1-1.5-1.1-1.9c0-0.4,0.4-1.1,1.3-2.2c0.9-1.1,1.9-2.1,2.9-3.1
			c1-1,1.6-1.5,1.8-1.5c0.1,0,0.8,0.4,1.9,1.3c2.2,1.6,4.5,2.5,6.8,2.7h1c0.8,0,1.4-0.2,1.8-0.5c0.4-0.3,0.6-0.7,0.6-1.2
			c0-0.6-0.4-1.2-1.3-1.7c-0.8-0.5-2.3-0.9-4.3-1.2c-5.2-0.8-8.6-2.9-10.2-6.1c-0.5-0.9-0.7-2-0.7-3.2c0-1.4,0.4-2.8,1.2-4.3
			c0.8-1.5,1.9-2.8,3.3-3.8c1.4-1.1,2.9-1.8,4.5-2.2C711,1008.1,712.4,1008,714,1008z"/>
		<path class="st4" d="M770.2,1004.1c3.2,0,6.5,0.5,9.7,1.5c1.4,0.4,2.4,0.9,3,1.3c0.5,0.4,0.8,1,0.8,1.7c0,0.5-0.4,1.9-1.2,4
			c-0.8,2.1-1.5,3.8-2.1,5c-0.2,0.5-0.5,0.7-1,0.7c-0.3,0-0.9-0.2-1.9-0.6c-1.9-0.8-3.9-1.3-5.8-1.3h-0.4l-0.4,0.1
			c-1.4,0.2-2.9,0.8-4.3,1.9c-1.4,1-2.5,2.2-3.1,3.6c-0.5,1.2-0.8,2.5-0.8,4c0,2.5,0.7,4.6,2.1,6.1s3.7,2.2,7,2.2
			c1.9,0,3.7-0.4,5.4-1.1c0.6-0.3,1.3-0.5,2.1-0.5c0.5,0,1,0.1,1.3,0.4c0.4,0.4,1,1.6,1.8,3.3c0.8,1.8,1.3,3,1.4,3.5
			c0,0.1,0.1,0.3,0.1,0.7c0,0.8-0.4,1.5-1.2,2c-0.8,0.6-2.4,1.3-4.7,2c-3.3,1.1-6.2,1.7-8.7,1.7H768c-3-0.1-5.4-0.6-7.2-1.4
			c-1.8-0.8-3.7-2.1-5.6-4.1c-4.2-4.1-6.3-9.5-6.3-16.1c0-1.6,0.1-2.8,0.3-3.6c0.5-2.5,1.6-5,3.3-7.4c1.7-2.4,3.7-4.4,6.2-6.1
			c2.4-1.7,4.9-2.8,7.6-3.4C767.6,1004.2,769,1004.1,770.2,1004.1z"/>
		<path class="st4" d="M811.5,1010.2c2.8,0,5,0.2,6.5,0.5c1.1,0.2,1.9,0.6,2.4,1.2c0.5,0.5,0.9,1.4,1.2,2.5c0.1,0.6,0.2,2.9,0.2,6.7
			c0,8.5-0.2,14.3-0.5,17.4c-0.1,1.6-0.4,2.8-0.7,3.4c-0.3,0.6-0.9,1-1.8,1.2c-0.9,0.2-2.5,0.3-5,0.4c-0.6,0.1-1.7,0.1-3.2,0.1
			c-1.1,0-1.8-0.1-2.2-0.3s-0.7-0.7-1-1.5c-0.3-0.8-0.6-1.2-0.8-1.2c-0.2,0-1,0.3-2.3,1c-2.1,1-4.1,1.5-6,1.5c-2,0-4.1-0.7-6.3-2.2
			c-2.2-1.5-4-3.4-5.5-5.8c-1.5-2.4-2.2-4.8-2.2-7.3c0-1.1,0.1-2,0.3-2.6l0.2-1.1l0.1-0.8c0.1-1.1,1-2.9,2.6-5.4
			c2.4-3.8,5.6-6.1,9.3-7c0.7-0.1,1.5-0.2,2.3-0.2c2.8,0,5.1,0.7,7,2.1c0.5,0.3,0.9,0.5,1.1,0.5s0.4-0.2,0.4-0.5
			c0-0.2,0.2-0.6,0.6-1.2c0.4-0.5,0.8-0.9,1.2-1C809.7,1010.3,810.4,1010.2,811.5,1010.2z M803.5,1021.5c-1.2,0-2.3,0.3-3.2,1
			c-0.9,0.7-1.6,1.6-1.9,2.8c-0.2,0.4-0.2,0.9-0.2,1.4c0,1.3,0.5,2.3,1.6,3.1c1,0.8,2.5,1.2,4.3,1.2c0.9,0,1.6,0,1.9-0.1
			c0.3-0.1,0.5-0.3,0.6-0.7c0.1-0.3,0.2-1.1,0.4-2.2c0.2-1.3,0.3-2.7,0.3-4c0-0.7,0-1.2-0.1-1.4c-0.1-0.2-0.4-0.4-1-0.6
			C805.3,1021.6,804.5,1021.5,803.5,1021.5z"/>
		<path class="st4" d="M837.2,1008h1.3c1.4,0,3.1,0.2,4.9,0.6c1.8,0.4,3.5,0.8,5,1.2c1.5,0.4,2.4,0.7,2.6,0.9
			c0.5,0.3,0.7,0.9,0.7,1.6c0,0.8-0.2,2-0.7,3.5c-0.4,1.5-0.8,2.7-1.1,3.4c-0.3,0.5-0.6,0.8-1.1,0.8s-1.3-0.2-2.3-0.7
			c-2.2-0.9-4-1.3-5.3-1.3c-0.4,0-0.8,0.1-1.2,0.2c-0.4,0.1-0.6,0.3-0.6,0.6c0,0.3,0.2,0.5,0.5,0.8c0.5,0.4,2.1,0.8,4.9,1.2
			c2.3,0.3,4.1,0.8,5.4,1.6c1.3,0.8,2.4,2,3.3,3.6c0.7,1.3,1.1,2.9,1.1,4.8c0,2.1-0.6,4.2-1.7,6.2c-1.1,2-2.7,3.5-4.6,4.7
			c-2.1,1.2-4.8,1.9-8.1,1.9c-3.2,0-6.3-0.6-9.4-1.8c-3.1-1.2-5.5-2.7-7.3-4.6c-0.7-0.8-1.1-1.5-1.1-1.9c0-0.4,0.4-1.1,1.3-2.2
			c0.9-1.1,1.9-2.1,2.9-3.1c1-1,1.6-1.5,1.8-1.5c0.1,0,0.8,0.4,1.9,1.3c2.2,1.6,4.5,2.5,6.8,2.7h1c0.8,0,1.4-0.2,1.8-0.5
			c0.4-0.3,0.6-0.7,0.6-1.2c0-0.6-0.4-1.2-1.3-1.7c-0.8-0.5-2.3-0.9-4.3-1.2c-5.2-0.8-8.6-2.9-10.2-6.1c-0.5-0.9-0.7-2-0.7-3.2
			c0-1.4,0.4-2.8,1.2-4.3c0.8-1.5,1.9-2.8,3.3-3.8c1.4-1.1,2.9-1.8,4.5-2.2C834.2,1008.1,835.6,1008,837.2,1008z"/>
		<path class="st4" d="M866.8,1000c0,0,1.4,0,4.1,0c2.8,0,4.5,0,5.2,0.1c0.8,0.2,1.4,0.4,1.5,0.6c0.2,0.2,0.3,0.6,0.3,1.2l-0.1,4
			l-0.1,2.4l-0.1,0.9l3.6,0.1c0.7,0,1.2,0,1.5,0.1c1.2,0,2.1,0.1,2.5,0.3c0.4,0.2,0.6,0.7,0.7,1.6c0.1,0.8,0.1,2.6,0.1,5.2v1.3
			c0,1.4-0.1,2.3-0.2,2.8c-0.1,0.5-0.4,0.8-0.8,1c-0.4,0.1-1.2,0.2-2.4,0.2h-4.8l-0.2,1.6c-0.1,1.2-0.1,1.9-0.1,2.2
			c0,5.2,1.3,7.8,4,7.8c0.5,0,1.3-0.3,2.2-0.8c0.9-0.5,1.4-0.9,1.6-1.2c0.1-0.2,0.3-0.3,0.5-0.3c0.4,0,1,0.3,1.7,1
			c0.8,0.8,1.6,1.8,2.3,2.9c0.7,1.1,1.1,1.9,1.1,2.3c0,0.6-0.7,1.4-2.1,2.5c-1.4,1.1-3,2.1-4.8,2.9c-2.4,1.1-5,1.6-7.8,1.6
			c-1.7,0-3.3-0.3-4.5-0.9c-1.3-0.6-2.6-1.6-4.1-3.1c-1.7-1.7-2.9-3.5-3.7-5.5c-0.7-1.9-1.1-4.9-1.1-8.8v-1.7v-1
			c-0.1-0.1-0.1-0.4-0.1-0.7c0-0.2,0-0.4-0.1-0.5l-0.3-0.3c0-0.1-0.4-0.2-1-0.2l-0.9-0.1h-1.2c-1-0.1-1.7-0.2-2-0.2
			c-0.3,0-0.6-0.3-0.8-0.7c-0.2-0.3-0.3-1-0.3-1.9c0-1.3,0-2.3,0.1-2.8c0.1-1.5,0.1-2.4,0.1-2.8c0-0.6,0.1-1.2,0.1-1.6
			s0.1-0.7,0.1-0.9l0.3-1l3.1-0.1c1.5,0,2.4-0.1,2.7-0.2c0.2-0.1,0.4-0.2,0.4-0.4c0-1.1,0.2-2.6,0.3-4.6c0.2-1.9,0.3-3,0.5-3.1
			c0.2-0.3,0.8-0.5,1.7-0.7C866.3,1000.1,866.8,1000,866.8,1000z"/>
		<path class="st4" d="M894.3,1009.7c0.4-0.3,1.5-0.4,3.2-0.4c1.7,0,3.4,0.1,5,0.4c1.6,0.3,2.5,0.6,2.8,1c0.3,0.4,0.5,0.7,0.5,1
			c0,0.1,0,0.1,0.1,0.1c0.3,0,1-0.3,2.1-0.8c2.1-1,4-1.6,5.7-1.6c1.7,0,3.5,0.5,5.4,1.5c1.8,1,2.8,2,2.8,3.1c0,0.6-0.4,1.8-1.3,3.6
			c-0.8,1.8-1.6,3.2-2.2,4.1c-0.5,0.7-1,1.1-1.6,1.1c-0.2,0-0.7-0.1-1.6-0.4c-0.9-0.3-1.7-0.4-2.5-0.4c-1.7,0-3.1,0.7-4.1,2
			c-1.8,2.3-2.7,7.3-2.7,14.9v1c0,1.1-0.1,1.9-0.2,2.3c-0.1,0.4-0.4,0.7-0.9,0.9c-0.5,0.1-1.3,0.2-2.4,0.2l-1.3-0.1h-1.6
			c-3.5-0.1-5.5-0.3-6-0.7c-0.6-0.4-0.9-0.8-1-1.3c-0.1-0.5-0.2-2.4-0.2-5.6c0-4.8,0.1-10.1,0.3-15.7c0.2-5.6,0.5-8.7,0.7-9.3
			C893.5,1010.3,893.9,1010,894.3,1009.7z"/>
		<path class="st4" d="M931.5,1014.2h2h0.8c0.7,0,1.3,0.1,1.7,0.2c0.4,0.1,0.7,0.3,0.8,0.5c0.1,0.2,0.2,0.6,0.3,1.2
			c0.1,1.3,0.1,5.9,0.1,13.8c0,8.3-0.1,12.6-0.3,12.8c-0.4,0.4-2,0.6-4.7,0.6h-2.7l-2-0.1c-1.2,0-1.9,0-2.1-0.1
			c-0.5,0-0.9-0.2-1.2-0.5l-0.6-0.6l-0.1-10.1v-3.1c0-8.7,0.3-13.4,0.9-14c0.2-0.3,1.8-0.5,4.8-0.5
			C930.2,1014.3,930.9,1014.3,931.5,1014.2z M930.4,1000.4c1.6,0,3.1,0.6,4.3,1.7c1.2,1.1,1.8,2.4,1.8,3.8v1
			c-0.1,1.4-0.7,2.6-1.7,3.4c-1,0.8-2.4,1.2-4.2,1.2h-0.4c-1.7-0.1-3.2-0.6-4.2-1.5c-1.1-0.9-1.6-2.1-1.6-3.5c0-0.7,0.1-1.4,0.4-2.1
			c0.2-0.6,0.7-1.3,1.4-2.1C927.3,1001,928.8,1000.4,930.4,1000.4z"/>
		<path class="st4" d="M944,1002.6h1.8c3.8,0.1,5.9,0.6,6.3,1.6c0.1,0.9,0.2,7.1,0.3,18.8v9.7c0,4.2,0,7.1-0.1,8.4
			c-0.1,1.1-0.3,1.7-0.8,1.9c-0.6,0.1-2.3,0.3-4.9,0.3c-0.5,0-1.4,0.1-2.8,0.1c-1.4,0-2.4-0.1-2.9-0.3s-0.8-0.5-0.9-1
			c-0.1-0.4-0.1-1.3-0.1-2.6l0.1-1.6v-1.9c0-0.7,0-1.3,0.1-1.9v-1.9c0-2.5-0.1-4.6-0.2-6.3c-0.3-4.2-0.5-8.3-0.5-12.3
			c0-2.7,0.1-5.2,0.4-7.2c0.3-2.1,0.8-3.3,1.5-3.5C941.6,1002.7,942.6,1002.6,944,1002.6z"/>
		<path class="st4" d="M958.8,1002.6h1.8c3.8,0.1,5.9,0.6,6.3,1.6c0.1,0.9,0.2,7.1,0.3,18.8v9.7c0,4.2,0,7.1-0.1,8.4
			c-0.1,1.1-0.3,1.7-0.8,1.9c-0.6,0.1-2.3,0.3-4.9,0.3c-0.5,0-1.4,0.1-2.8,0.1c-1.4,0-2.4-0.1-2.9-0.3s-0.8-0.5-0.9-1
			c-0.1-0.4-0.1-1.3-0.1-2.6l0.1-1.6v-1.9c0-0.7,0-1.3,0.1-1.9v-1.9c0-2.5-0.1-4.6-0.2-6.3c-0.3-4.2-0.5-8.3-0.5-12.3
			c0-2.7,0.1-5.2,0.4-7.2c0.3-2.1,0.8-3.3,1.5-3.5C956.4,1002.7,957.4,1002.6,958.8,1002.6z"/>
		<path class="st4" d="M987.8,1008.8c1.7,0,3.3,0.1,4.9,0.4c3.7,0.7,6.9,2.2,9.6,4.4c2.6,2.2,4.3,4.9,4.9,7.8
			c0.1,0.6,0.2,1.5,0.2,2.5c0,3-0.5,5.7-1.4,8c-0.9,2.3-2.4,4.5-4.5,6.5c-1.9,1.9-3.9,3.2-6,3.9c-2,0.7-4.2,1.1-6.4,1.1
			c-3.8,0-7.3-0.9-10.5-2.8c-3.1-1.8-5.6-4.1-7.4-6.9c-1.8-2.7-2.7-5.4-2.7-7.8c0-0.8,0.1-2,0.4-3.6c1.6-8,6.2-12.5,13.8-13.4
			C984.5,1008.9,986.2,1008.8,987.8,1008.8z M988.3,1020.7c-0.7,0-1.3,0.2-1.8,0.5c-1.8,1.1-2.7,2.7-2.7,4.7c0,0.7,0.2,1.6,0.6,2.5
			c0.9,1.8,2.3,2.8,4.3,2.8c1,0,1.9-0.3,2.7-1c0.7-0.7,1.2-1.5,1.3-2.6c0-0.1,0.1-0.4,0.1-0.9c0-1.2-0.3-2.3-0.8-3.4
			c-0.5-1.1-1.2-1.8-2-2.2C989.4,1020.8,988.8,1020.7,988.3,1020.7z"/>
		<path class="st4" d="M1033.1,1008.9c3.4,0,6.1,0.9,8.1,2.8c1.9,1.9,3.3,4.3,4.2,7.2c0.4,1.3,0.6,5.3,0.7,12v4.7
			c0,3.4-0.1,5.3-0.4,5.6c-0.2,0.3-0.6,0.5-1.2,0.5c-0.6,0.1-2.4,0.2-5.4,0.2l-6.1,0.1l-0.3-0.7c0-0.2-0.2-2.6-0.4-7.2
			c0-3.7-0.2-6.6-0.5-8.6c-0.3-1.4-0.9-2.6-1.7-3.6c-0.4-0.4-1-0.7-1.8-0.7c-3.6,0-5.5,3.4-5.5,10.2c0,1.9,0,3.3,0.1,4
			c0,0.9,0.1,2.5,0.1,4.6c0,1.3-0.1,2-0.2,2.2s-1.6,0.3-4.2,0.4c-2.7,0.1-5,0.1-7,0.1c-0.8,0-1.3,0-1.6-0.1
			c-0.3-0.1-0.5-0.3-0.6-0.7c-0.1-0.3-0.2-1-0.2-1.9c-0.1-0.6-0.1-2.9-0.1-6.8l-0.1-6.7v-7.4l-0.1-5.4c0-1.4,0.1-2.4,0.3-3
			c0.2-0.6,0.5-0.9,1.1-1.1c0.5-0.2,1.5-0.3,2.8-0.3h3.7c2.7,0,4.4,0.1,5,0.4c0.5,0.2,0.7,1,0.7,2.4c0,1.2,0.1,1.8,0.2,1.8
			s0.7-0.5,1.7-1.4c1.7-1.6,3.6-2.7,5.5-3.2C1030.8,1009.1,1032,1008.9,1033.1,1008.9z"/>
		<path class="st4" d="M381.4,1113.6c6.5,0,11.5,0.2,15.2,0.7c3.6,0.5,6.9,1.4,10,2.7c2.8,1.2,5.5,3.1,8.1,5.6
			c2.6,2.5,4.3,4.6,5.1,6.3c1.5,3.2,2.3,6.8,2.3,10.5c0,5.4-1.4,10.5-4.3,15.4c-2.9,4.8-6.7,8.5-11.4,11c-4,1.9-7.9,3.3-11.7,4.2
			c-3.8,0.8-8.5,1.2-14,1.2c-5.6,0-9.2-0.3-11-0.8c-1.4-0.3-2.3-0.5-2.8-0.8c-0.5-0.2-0.9-0.7-1.1-1.5c-0.3-0.8-0.4-2.3-0.4-4.7
			l0.2-6.1c0.1-1.9,0.1-4.5,0.1-7.6l0.6-32.2c0.1-1.4,0.3-2.4,0.5-2.8c0.3-0.4,1-0.7,2.1-0.9
			C370.6,1113.7,374.8,1113.6,381.4,1113.6z M388.2,1130.4c-0.6,0-1.1,0.1-1.2,0.4c-0.2,0.3-0.3,0.9-0.4,2
			c-0.3,2.8-0.4,6.8-0.4,11.9c0,5.6,0.1,8.5,0.4,8.8c0.1,0.1,0.5,0.2,1.2,0.2c2.4,0,4.7-0.6,7-1.7c2.3-1.2,4.2-2.7,5.7-4.8
			c1.4-2.1,2.2-4.2,2.2-6.3c0-1.1-0.2-2.1-0.6-3c-1.2-3.1-4.3-5.3-9.4-6.6C390.2,1130.7,388.7,1130.4,388.2,1130.4z"/>
		<path class="st4" d="M451.2,1116.7h1.4c3,0.1,5.3,0.6,7,1.5s3.9,2.6,6.4,5.1c3.9,3.9,6.4,8.1,7.5,12.6c0.4,1.8,0.5,3.3,0.5,4.5
			c0,4.4-0.7,6.9-2.2,7.5h-18c-5.7,0-8.6,0-8.6,0.1c0,0.9,0.8,1.8,2.5,2.8c1.7,1,3.6,1.7,5.8,2.2c1.2,0.2,2.3,0.3,3.4,0.3
			c1.7,0,3.9-0.4,6.6-1.3c2.1-0.6,3.4-0.9,4-0.9c0.7,0,1.3,0.2,1.7,0.6c0.5,0.7,1.3,2.1,2.3,4c1,1.9,1.5,3.3,1.5,4.1
			c0,1.6-1.3,3.1-4,4.7c-2.6,1.6-5.3,2.7-8.2,3.4c-2.9,0.6-6.2,1-10.1,1c-4.8,0-8.4-0.4-11-1.3c-2.6-0.9-5.4-2.7-8.3-5.6
			c-3-2.9-5-5.7-6.1-8.4c-1.1-2.7-1.6-6-1.6-9.6c0-4,0.6-7.7,1.8-11c1.2-3.3,3.4-6.4,6.8-9.2c3.5-3,7.9-5.2,13.2-6.4
			C447.4,1116.9,449.3,1116.7,451.2,1116.7z M450.9,1131.5c-1.6,0-3,0.5-4.2,1.4c-1.2,0.9-1.8,2.1-1.9,3.6l-0.1,1.3l5.3,0.3l4.4,0.2
			h0.5c0.3,0,0.5,0,0.5-0.1h0.2h0.2c0.3-0.1,0.4-0.5,0.4-1.3c0-0.9-0.2-1.8-0.6-2.7C454.9,1132.4,453.2,1131.5,450.9,1131.5z"/>
		<path class="st4" d="M516,1120.1c0.9,0,2.8,0.5,5.8,1.4c3,0.9,5.1,1.6,6.1,2.2c1,0.6,1.5,1.6,1.5,2.7c0,1.2-0.8,3.5-2.4,6.9
			l-1.4,3.2c-1.5,3.3-2.5,5.6-2.9,6.8c-1.7,4.3-4,9.2-6.7,14.9c-2.7,5.7-4.4,8.9-5,9.5c-0.6,0.5-1.1,0.8-1.6,1
			c-0.6,0.1-1.9,0.3-4,0.3h-1.6c-6.6,0-10.7-0.6-12.3-1.8c-0.6-0.4-2.2-3.7-4.8-9.8c-2.6-6.1-5.1-12.3-7.4-18.5
			c-2.3-6.2-3.4-10.3-3.4-12.2c0-1.1,0.9-2.1,2.6-3c1.7-0.9,3.7-1.6,6-2.2c2.3-0.6,4.1-0.9,5.4-0.9c0.6,0,1.2,0.1,1.6,0.2
			c0.9,0.3,1.8,1.3,2.6,3.1c0.6,1.4,1.9,5.6,4.1,12.6c1.7,5.7,2.7,8.6,2.8,8.8l0.3-0.4c0.5-0.6,1-1.7,1.6-3c1-2.2,3.1-6.2,6.3-12
			c3.2-5.8,5-8.9,5.4-9.3C515,1120.3,515.4,1120.1,516,1120.1z"/>
		<path class="st4" d="M556.8,1116.7h1.4c3,0.1,5.3,0.6,7,1.5s3.9,2.6,6.4,5.1c3.9,3.9,6.4,8.1,7.5,12.6c0.4,1.8,0.5,3.3,0.5,4.5
			c0,4.4-0.7,6.9-2.2,7.5h-18c-5.7,0-8.6,0-8.6,0.1c0,0.9,0.8,1.8,2.5,2.8c1.7,1,3.6,1.7,5.8,2.2c1.2,0.2,2.3,0.3,3.4,0.3
			c1.7,0,3.9-0.4,6.6-1.3c2.1-0.6,3.4-0.9,4-0.9c0.7,0,1.3,0.2,1.7,0.6c0.5,0.7,1.3,2.1,2.3,4c1,1.9,1.5,3.3,1.5,4.1
			c0,1.6-1.3,3.1-4,4.7c-2.6,1.6-5.3,2.7-8.2,3.4c-2.9,0.6-6.2,1-10.1,1c-4.8,0-8.4-0.4-11-1.3c-2.6-0.9-5.4-2.7-8.3-5.6
			c-3-2.9-5-5.7-6.1-8.4c-1.1-2.7-1.6-6-1.6-9.6c0-4,0.6-7.7,1.8-11c1.2-3.3,3.4-6.4,6.8-9.2c3.5-3,7.9-5.2,13.2-6.4
			C553,1116.9,554.9,1116.7,556.8,1116.7z M556.5,1131.5c-1.6,0-3,0.5-4.2,1.4c-1.2,0.9-1.8,2.1-1.9,3.6l-0.1,1.3l5.3,0.3l4.4,0.2
			h0.5c0.3,0,0.5,0,0.5-0.1h0.2h0.2c0.3-0.1,0.4-0.5,0.4-1.3c0-0.9-0.2-1.8-0.6-2.7C560.4,1132.4,558.8,1131.5,556.5,1131.5z"/>
		<path class="st4" d="M588.2,1109.9h2.6c5.6,0.1,8.6,0.8,9.1,2.3c0.2,1.3,0.4,10.4,0.4,27.2v14.1c0,6.1-0.1,10.2-0.2,12.2
			c-0.1,1.6-0.5,2.5-1.2,2.7c-0.9,0.2-3.3,0.4-7.1,0.4c-0.7,0.1-2.1,0.1-4,0.1c-2,0-3.4-0.2-4.2-0.5c-0.8-0.3-1.2-0.8-1.3-1.4
			c-0.1-0.6-0.2-1.9-0.2-3.7l0.1-2.4v-2.8c0-1,0-1.9,0.1-2.7v-2.8c0-3.6-0.1-6.6-0.3-9.1c-0.5-6.1-0.8-12-0.8-17.8
			c0-4,0.2-7.5,0.6-10.5c0.4-3,1.1-4.7,2.1-5.1C584.7,1110,586.1,1109.9,588.2,1109.9z"/>
		<path class="st4" d="M630.1,1118.9c2.5,0,4.8,0.2,7.1,0.5c5.4,1,10,3.1,13.9,6.4c3.8,3.2,6.2,7,7,11.4c0.2,0.9,0.3,2.2,0.3,3.7
			c0,4.4-0.7,8.3-2,11.6c-1.3,3.4-3.5,6.5-6.6,9.5c-2.8,2.7-5.7,4.6-8.7,5.7c-3,1-6,1.6-9.2,1.6c-5.6,0-10.6-1.3-15.2-4
			c-4.5-2.7-8.1-6-10.7-10c-2.6-4-3.8-7.8-3.8-11.4c0-1.2,0.2-2.9,0.5-5.2c2.4-11.6,9-18.1,19.9-19.4
			C625.5,1119.1,627.9,1118.9,630.1,1118.9z M631,1136.1c-1,0-1.9,0.3-2.6,0.8c-2.6,1.6-3.9,3.9-3.9,6.8c0,1.1,0.3,2.3,0.9,3.7
			c1.3,2.7,3.4,4,6.2,4c1.5,0,2.8-0.5,3.9-1.5s1.7-2.2,1.9-3.7c0.1-0.2,0.1-0.6,0.1-1.3c0-1.7-0.4-3.4-1.2-5
			c-0.8-1.6-1.8-2.7-2.9-3.2C632.5,1136.3,631.7,1136.1,631,1136.1z"/>
		<path class="st4" d="M667.6,1121.3h3.2c4.8,0.1,7.6,0.3,8.3,0.5c1,0.4,1.5,1.3,1.5,2.8c0,1.2,0.1,1.8,0.4,1.8l3.8-0.9
			c2.4-0.6,4.8-1,7.1-1c4.2,0,7.9,0.9,11,2.8c1.2,0.6,2.5,1.9,4.2,3.6c1.6,1.8,2.9,3.4,3.7,4.8c1.7,3.2,2.5,6.5,2.5,9.9
			c0,6.2-2.4,11.7-7.1,16.5c-2.4,2.4-4.6,4.1-6.7,5s-4.4,1.5-7.1,1.5c-2.4,0-6-0.8-10.7-2.3h-0.1c-0.4,0-0.6,2.8-0.8,8.4l-0.1,8.7
			l-1.2,1.1l-1.2,1l-8.1-0.1c-3.8-0.1-6.2-0.3-7-0.3c-1-0.1-1.7-0.4-1.9-0.8c-0.3-0.4-0.5-2.2-0.7-5.4c-0.1-2.1-0.1-10.5-0.1-25.2
			c0-19.9,0.1-30.2,0.3-30.9c0.3-0.6,0.8-1.1,1.4-1.4C663.1,1121.4,664.9,1121.3,667.6,1121.3z M689.5,1137.3
			c-0.8,0-1.5,0.1-2.2,0.3c-1,0.4-2.1,1.2-3.4,2.3l-2.1,1.9l0.4,4c0.4,2.6,0.6,4.1,0.9,4.5c0.2,0.6,0.7,1.1,1.6,1.4
			c0.8,0.3,1.8,0.4,2.9,0.4c2.2,0,4.1-0.7,5.6-2.2c1.5-1.5,2.3-3.4,2.3-5.7c0-2.7-0.8-4.8-2.5-6.1
			C692.2,1137.6,691,1137.3,689.5,1137.3z"/>
		<path class="st4" d="M780.4,1120.1c1.9,0,4,0.6,6.5,1.9c2.5,1.3,4.4,3,5.8,5.1c1.4,2.2,2.6,5.4,3.4,9.6c0.6,3.6,1.2,9.5,1.5,17.8
			c0.1,0.8,0.1,2.4,0.1,4.8c0,4.5-0.7,7.5-2.1,8.9l-1.2,1.2l-8.6-0.2l-6.6,0.1c-1.1,0-1.8-0.1-2.2-0.4c-0.4-0.3-0.6-0.8-0.8-1.7
			c-0.1-0.8-0.2-2.4-0.2-4.6c0-2.3,0-4.3-0.1-5.8c-0.2-7.5-0.6-12.4-1.1-14.7c-0.5-2.4-1.5-3.8-3-4.1c-0.1-0.1-0.4-0.1-0.9-0.1
			c-1.2,0-2.3,0.4-3.3,1.2c-1,0.8-1.8,1.9-2.3,3.2c-0.5,1.4-0.8,4.8-0.8,10c0,2.9,0.1,5.7,0.4,8.6l0.4,4.7c0,1.1-0.3,1.8-1,2.2
			c-0.6,0.2-2.2,0.4-4.8,0.5c-0.7,0.1-1.4,0.1-2.2,0.1l-6.2,0.2c-1.9,0-3.1-0.3-3.5-1c-0.4-1.1-1.2-8-2.5-20.9
			c-0.3-2.5-0.7-4.6-1.1-6.3c-0.3-1.2-0.8-1.7-1.6-1.7c-0.5,0-1.3,0.3-2.3,0.9c-1.7,1-2.9,2.7-3.4,5.1c-0.7,2.5-1.1,6.9-1.2,13
			c0,1.8,0,3.1-0.1,3.8c-0.1,3.7-0.3,5.8-0.8,6.5c-0.4,0.6-1.5,1-3.2,1s-3.2,0-4.4,0.1l-5.4,0.2c-2.9,0-4.7-0.6-5.3-1.8
			c-0.8-1.8-1.2-12.5-1.2-31.9l-0.1-8.1c0-2,0.3-3.4,0.8-4.2c0.5-0.8,1.5-1.2,2.9-1.4c1.4-0.2,4-0.3,7.9-0.3c3.9,0,6.4,0.2,7.4,0.6
			c1.1,0.5,1.6,1.4,1.6,2.6c0,0.5,0.1,0.8,0.4,0.8c0.3,0,1.1-0.4,2.4-1.3c3.6-2.3,7.6-3.5,11.9-3.5c5.6,0,9.9,1.7,12.7,5.1l1.4,1.7
			l2.4-1.9c2.7-2.2,5.7-3.8,9-4.8C777.3,1120.3,778.8,1120.1,780.4,1120.1z"/>
		<path class="st4" d="M827.1,1116.7h1.4c3,0.1,5.3,0.6,7,1.5s3.9,2.6,6.4,5.1c3.9,3.9,6.4,8.1,7.5,12.6c0.4,1.8,0.5,3.3,0.5,4.5
			c0,4.4-0.7,6.9-2.2,7.5h-18c-5.7,0-8.6,0-8.6,0.1c0,0.9,0.8,1.8,2.5,2.8c1.7,1,3.6,1.7,5.8,2.2c1.2,0.2,2.3,0.3,3.4,0.3
			c1.7,0,3.9-0.4,6.6-1.3c2.1-0.6,3.4-0.9,4-0.9c0.7,0,1.3,0.2,1.7,0.6c0.5,0.7,1.3,2.1,2.3,4c1,1.9,1.5,3.3,1.5,4.1
			c0,1.6-1.3,3.1-4,4.7c-2.6,1.6-5.3,2.7-8.2,3.4c-2.9,0.6-6.2,1-10.1,1c-4.8,0-8.4-0.4-11-1.3c-2.6-0.9-5.4-2.7-8.3-5.6
			c-3-2.9-5-5.7-6.1-8.4c-1.1-2.7-1.6-6-1.6-9.6c0-4,0.6-7.7,1.8-11c1.2-3.3,3.4-6.4,6.8-9.2c3.5-3,7.9-5.2,13.2-6.4
			C823.3,1116.9,825.2,1116.7,827.1,1116.7z M826.8,1131.5c-1.6,0-3,0.5-4.2,1.4c-1.2,0.9-1.8,2.1-1.9,3.6l-0.1,1.3l5.3,0.3l4.4,0.2
			h0.5c0.3,0,0.5,0,0.5-0.1h0.2h0.2c0.3-0.1,0.4-0.5,0.4-1.3c0-0.9-0.2-1.8-0.6-2.7C830.7,1132.4,829.1,1131.5,826.8,1131.5z"/>
		<path class="st4" d="M887.2,1119c5,0,8.9,1.4,11.7,4.1c2.8,2.7,4.8,6.2,6.1,10.4c0.6,1.9,0.9,7.7,1,17.3v6.8c0,5-0.2,7.7-0.6,8.1
			c-0.3,0.4-0.9,0.7-1.7,0.8c-0.9,0.1-3.5,0.3-7.8,0.3l-8.9,0.2l-0.4-1c-0.1-0.3-0.3-3.8-0.6-10.5c-0.1-5.4-0.3-9.6-0.8-12.5
			c-0.4-2.1-1.3-3.8-2.5-5.2c-0.7-0.6-1.5-1-2.6-1c-5.3,0-7.9,4.9-7.9,14.8c0,2.8,0,4.7,0.1,5.7c0.1,1.4,0.1,3.6,0.1,6.6
			c0,1.9-0.1,2.9-0.3,3.1c-0.2,0.2-2.3,0.4-6.1,0.5c-3.9,0.1-7.2,0.2-10.1,0.2c-1.2,0-1.9-0.1-2.3-0.2c-0.4-0.1-0.7-0.5-0.8-1
			c-0.1-0.5-0.3-1.4-0.3-2.7c-0.1-0.9-0.1-4.2-0.1-9.9l-0.1-9.7v-10.7l-0.1-7.8c0-2,0.1-3.4,0.4-4.3c0.3-0.8,0.8-1.4,1.6-1.6
			c0.8-0.3,2.1-0.4,4-0.4h5.4c4,0,6.4,0.2,7.3,0.5c0.7,0.3,1.1,1.4,1.1,3.5c0,1.7,0.1,2.6,0.3,2.6c0.2,0,1-0.7,2.5-2.1
			c2.5-2.3,5.2-3.9,7.9-4.7C883.9,1119.2,885.5,1119,887.2,1119z"/>
		<path class="st4" d="M923,1106.1c0,0,2,0,6,0c4,0,6.6,0.1,7.6,0.2c1.2,0.3,2,0.6,2.2,0.8c0.3,0.3,0.4,0.8,0.4,1.7l-0.2,5.7
			l-0.2,3.5l-0.1,1.3l5.2,0.1c1,0,1.7,0,2.2,0.1c1.8,0,3,0.1,3.6,0.4c0.6,0.3,0.9,1,1.1,2.3c0.1,1.2,0.2,3.8,0.2,7.6v1.8
			c0,2-0.1,3.4-0.3,4.1c-0.2,0.7-0.6,1.2-1.2,1.4c-0.6,0.2-1.8,0.3-3.5,0.3H939l-0.3,2.3c-0.1,1.7-0.2,2.8-0.2,3.2
			c0,7.5,1.9,11.3,5.7,11.3c0.8,0,1.8-0.4,3.1-1.1c1.3-0.8,2.1-1.3,2.4-1.7c0.2-0.3,0.5-0.4,0.8-0.4c0.7,0,1.5,0.5,2.5,1.5
			c1.2,1.2,2.3,2.5,3.3,4.2c1,1.6,1.6,2.7,1.6,3.3c0,0.9-1,2.1-3,3.7c-2,1.6-4.3,3-7,4.2c-3.5,1.6-7.2,2.4-11.3,2.4
			c-2.5,0-4.7-0.4-6.6-1.3s-3.8-2.4-5.9-4.5c-2.5-2.5-4.2-5.1-5.3-7.9c-1.1-2.8-1.6-7.1-1.6-12.8v-2.5v-1.5
			c-0.1-0.2-0.1-0.6-0.1-1.1c0-0.4-0.1-0.6-0.2-0.8l-0.4-0.4c-0.1-0.2-0.6-0.3-1.5-0.3l-1.3-0.1h-1.7c-1.5-0.1-2.5-0.3-2.9-0.3
			c-0.4-0.1-0.8-0.4-1.2-1c-0.3-0.5-0.4-1.4-0.4-2.8c0-1.9,0-3.3,0.1-4c0.1-2.2,0.2-3.5,0.2-4.1c0.1-0.9,0.1-1.7,0.2-2.4
			c0-0.6,0.1-1.1,0.2-1.3l0.4-1.5l4.4-0.2c2.2-0.1,3.5-0.2,3.9-0.3c0.4-0.1,0.6-0.4,0.6-0.6c0.1-1.6,0.2-3.8,0.5-6.6
			c0.3-2.8,0.5-4.3,0.7-4.5c0.4-0.4,1.2-0.8,2.5-1C922.4,1106.2,923,1106.1,923,1106.1z"/>
		<path class="st4" d="M161.5,1223.7c3.2,0,6.5,0.5,9.7,1.5c1.4,0.4,2.4,0.9,3,1.3c0.5,0.4,0.8,1,0.8,1.7c0,0.5-0.4,1.9-1.2,4
			c-0.8,2.1-1.5,3.8-2.1,5c-0.2,0.5-0.5,0.7-1,0.7c-0.3,0-0.9-0.2-1.9-0.6c-1.9-0.8-3.9-1.3-5.8-1.3h-0.4l-0.4,0.1
			c-1.4,0.2-2.9,0.8-4.3,1.9c-1.4,1-2.5,2.2-3.1,3.6c-0.5,1.2-0.8,2.5-0.8,4c0,2.5,0.7,4.6,2.1,6.1s3.7,2.2,7,2.2
			c1.9,0,3.7-0.4,5.4-1.1c0.6-0.3,1.3-0.5,2.1-0.5c0.5,0,1,0.1,1.3,0.4c0.4,0.4,1,1.6,1.8,3.3c0.8,1.8,1.3,3,1.4,3.5
			c0,0.1,0.1,0.3,0.1,0.7c0,0.8-0.4,1.5-1.2,2c-0.8,0.6-2.4,1.3-4.7,2c-3.3,1.1-6.2,1.7-8.7,1.7h-1.3c-3-0.1-5.4-0.6-7.2-1.4
			c-1.8-0.8-3.7-2.1-5.6-4.1c-4.2-4.1-6.3-9.5-6.3-16.1c0-1.6,0.1-2.8,0.3-3.6c0.5-2.5,1.6-5,3.3-7.4c1.7-2.4,3.7-4.4,6.2-6.1
			c2.4-1.7,4.9-2.8,7.6-3.4C158.9,1223.9,160.3,1223.7,161.5,1223.7z"/>
		<path class="st4" d="M202.7,1229.9c2.8,0,5,0.2,6.5,0.5c1.1,0.2,1.9,0.6,2.4,1.2c0.5,0.5,0.9,1.4,1.2,2.5c0.1,0.6,0.2,2.9,0.2,6.7
			c0,8.5-0.2,14.3-0.5,17.4c-0.1,1.6-0.4,2.8-0.7,3.4c-0.3,0.6-0.9,1-1.8,1.2c-0.9,0.2-2.5,0.3-5,0.4c-0.6,0.1-1.7,0.1-3.2,0.1
			c-1.1,0-1.8-0.1-2.2-0.3s-0.7-0.7-1-1.5c-0.3-0.8-0.6-1.2-0.8-1.2c-0.2,0-1,0.3-2.3,1c-2.1,1-4.1,1.5-6,1.5c-2,0-4.1-0.7-6.3-2.2
			c-2.2-1.5-4-3.4-5.5-5.8c-1.5-2.4-2.2-4.8-2.2-7.3c0-1.1,0.1-2,0.3-2.6l0.2-1.1l0.1-0.8c0.1-1.1,1-2.9,2.6-5.4
			c2.4-3.8,5.6-6.1,9.3-7c0.7-0.1,1.5-0.2,2.3-0.2c2.8,0,5.1,0.7,7,2.1c0.5,0.3,0.9,0.5,1.1,0.5s0.4-0.2,0.4-0.5
			c0-0.2,0.2-0.6,0.6-1.2c0.4-0.5,0.8-0.9,1.2-1C201,1229.9,201.7,1229.9,202.7,1229.9z M194.8,1241.1c-1.2,0-2.3,0.3-3.2,1
			c-0.9,0.7-1.6,1.6-1.9,2.8c-0.2,0.4-0.2,0.9-0.2,1.4c0,1.3,0.5,2.3,1.6,3.1c1,0.8,2.5,1.2,4.3,1.2c0.9,0,1.6,0,1.9-0.1
			c0.3-0.1,0.5-0.3,0.6-0.7c0.1-0.3,0.2-1.1,0.4-2.2c0.2-1.3,0.3-2.7,0.3-4c0-0.7,0-1.2-0.1-1.4c-0.1-0.2-0.4-0.4-1-0.6
			C196.6,1241.3,195.8,1241.1,194.8,1241.1z"/>
		<path class="st4" d="M216.6,1229.3c0.4-0.3,1.5-0.4,3.2-0.4c1.7,0,3.4,0.1,5,0.4c1.6,0.3,2.5,0.6,2.8,1c0.3,0.4,0.5,0.7,0.5,1
			c0,0.1,0,0.1,0.1,0.1c0.3,0,1-0.3,2.1-0.8c2.1-1,4-1.6,5.7-1.6c1.7,0,3.5,0.5,5.4,1.5c1.8,1,2.8,2,2.8,3.1c0,0.6-0.4,1.8-1.3,3.6
			c-0.8,1.8-1.6,3.2-2.2,4.1c-0.5,0.7-1,1.1-1.6,1.1c-0.2,0-0.7-0.1-1.6-0.4c-0.9-0.3-1.7-0.4-2.5-0.4c-1.7,0-3.1,0.7-4.1,2
			c-1.8,2.3-2.7,7.3-2.7,14.9v1c0,1.1-0.1,1.9-0.2,2.3c-0.1,0.4-0.4,0.7-0.9,0.9c-0.5,0.1-1.3,0.2-2.4,0.2l-1.3-0.1h-1.6
			c-3.5-0.1-5.5-0.3-6-0.7c-0.6-0.4-0.9-0.8-1-1.3c-0.1-0.5-0.2-2.4-0.2-5.6c0-4.8,0.1-10.1,0.3-15.7c0.2-5.6,0.5-8.7,0.7-9.3
			C215.9,1230,216.2,1229.6,216.6,1229.3z"/>
		<path class="st4" d="M250.3,1222.2h1.8c3.8,0.1,5.9,0.6,6.3,1.6c0.1,0.9,0.2,7.1,0.3,18.8v9.7c0,4.2,0,7.1-0.1,8.4
			c-0.1,1.1-0.3,1.7-0.8,1.9c-0.6,0.1-2.3,0.3-4.9,0.3c-0.5,0-1.4,0.1-2.8,0.1c-1.4,0-2.4-0.1-2.9-0.3s-0.8-0.5-0.9-1
			c-0.1-0.4-0.1-1.3-0.1-2.6l0.1-1.6v-1.9c0-0.7,0-1.3,0.1-1.9v-1.9c0-2.5-0.1-4.6-0.2-6.3c-0.3-4.2-0.5-8.3-0.5-12.3
			c0-2.7,0.1-5.2,0.4-7.2c0.3-2.1,0.8-3.3,1.5-3.5C247.9,1222.3,248.8,1222.2,250.3,1222.2z"/>
		<path class="st4" d="M279.2,1228.4c1.7,0,3.3,0.1,4.9,0.4c3.7,0.7,6.9,2.2,9.6,4.4c2.6,2.2,4.3,4.9,4.9,7.8
			c0.1,0.6,0.2,1.5,0.2,2.5c0,3-0.5,5.7-1.4,8c-0.9,2.3-2.4,4.5-4.5,6.5c-1.9,1.9-3.9,3.2-6,3.9c-2,0.7-4.2,1.1-6.4,1.1
			c-3.8,0-7.3-0.9-10.5-2.8c-3.1-1.8-5.6-4.1-7.4-6.9c-1.8-2.7-2.7-5.4-2.7-7.8c0-0.8,0.1-2,0.4-3.6c1.6-8,6.2-12.5,13.8-13.4
			C276,1228.6,277.7,1228.4,279.2,1228.4z M279.8,1240.3c-0.7,0-1.3,0.2-1.8,0.5c-1.8,1.1-2.7,2.7-2.7,4.7c0,0.7,0.2,1.6,0.6,2.5
			c0.9,1.8,2.3,2.8,4.3,2.8c1,0,1.9-0.3,2.7-1c0.7-0.7,1.2-1.5,1.3-2.6c0-0.1,0.1-0.4,0.1-0.9c0-1.2-0.3-2.3-0.8-3.4
			c-0.5-1.1-1.2-1.8-2-2.2C280.8,1240.5,280.3,1240.3,279.8,1240.3z"/>
		<path class="st4" d="M314.6,1227.6h1.3c1.4,0,3.1,0.2,4.9,0.6c1.8,0.4,3.5,0.8,5,1.2c1.5,0.4,2.4,0.7,2.6,0.9
			c0.5,0.3,0.7,0.9,0.7,1.6c0,0.8-0.2,2-0.7,3.5c-0.4,1.5-0.8,2.7-1.1,3.4c-0.3,0.5-0.6,0.8-1.1,0.8s-1.3-0.2-2.3-0.7
			c-2.2-0.9-4-1.3-5.3-1.3c-0.4,0-0.8,0.1-1.2,0.2c-0.4,0.1-0.6,0.3-0.6,0.6c0,0.3,0.2,0.5,0.5,0.8c0.5,0.4,2.1,0.8,4.9,1.2
			c2.3,0.3,4.1,0.8,5.4,1.6c1.3,0.8,2.4,2,3.3,3.6c0.7,1.3,1.1,2.9,1.1,4.8c0,2.1-0.6,4.2-1.7,6.2c-1.1,2-2.7,3.5-4.6,4.7
			c-2.1,1.2-4.8,1.9-8.1,1.9c-3.2,0-6.3-0.6-9.4-1.8c-3.1-1.2-5.5-2.7-7.3-4.6c-0.7-0.8-1.1-1.5-1.1-1.9c0-0.4,0.4-1.1,1.3-2.2
			c0.9-1.1,1.9-2.1,2.9-3.1c1-1,1.6-1.5,1.8-1.5c0.1,0,0.8,0.4,1.9,1.3c2.2,1.6,4.5,2.5,6.8,2.7h1c0.8,0,1.4-0.2,1.8-0.5
			c0.4-0.3,0.6-0.7,0.6-1.2c0-0.6-0.4-1.2-1.3-1.7c-0.8-0.5-2.3-0.9-4.3-1.2c-5.2-0.8-8.6-2.9-10.2-6.1c-0.5-0.9-0.7-2-0.7-3.2
			c0-1.4,0.4-2.8,1.2-4.3c0.8-1.5,1.9-2.8,3.3-3.8c1.4-1.1,2.9-1.8,4.5-2.2C311.6,1227.7,313,1227.6,314.6,1227.6z"/>
		<path class="st4" d="M356.5,1223.5c2.9,0,4.8,0,5.8,0.1l13.5,0.1c2,0,3.3,0.1,3.9,0.3c0.6,0.2,1,0.7,1.2,1.5
			c0.2,0.8,0.3,2.5,0.3,5c0,1.5-0.1,2.6-0.4,3.2c-0.2,0.6-0.6,1-1.1,1.3c-0.6,0.2-1.6,0.4-3.1,0.4c-1.4,0-3.7-0.1-6.9-0.2l-4.1-0.1
			c-1,0-1.6,0.1-1.9,0.3c-0.3,0.2-0.4,0.7-0.4,1.4v0.9c0,1.2,0.3,2,0.8,2.2c0.6,0.3,2.5,0.5,5.7,0.5c3.4,0.1,5.4,0.4,6,0.7
			c0.5,0.3,0.8,1.4,0.8,3.2v1c0,1.9-0.1,3.1-0.2,3.7c-0.1,0.4-0.3,0.7-0.5,0.9c-0.2,0.1-0.6,0.3-1.2,0.4c-0.6,0.1-1.5,0.2-2.5,0.2
			c-2.5,0.2-4.3,0.3-5.4,0.4c-1.7,0.1-2.7,0.3-2.8,0.4c0,0.1-0.2,1.9-0.4,5.5c-0.1,3-0.3,4.9-0.5,5.5c-0.2,0.7-0.7,1.1-1.6,1.3
			c-1.2,0.3-4.2,0.5-8.9,0.5c-1,0-1.7,0-2-0.1s-0.5-0.3-0.6-0.6c-0.1-0.3-0.2-0.9-0.3-1.7c-0.1-1.6-0.1-4.7-0.1-9.3
			c0-5.6,0.1-11.7,0.4-18.5c0.2-6,0.4-9.2,0.7-9.6c0.2-0.2,0.6-0.4,1.3-0.7C352.4,1223.6,354,1223.5,356.5,1223.5z"/>
		<path class="st4" d="M401.8,1227h1c2,0.1,3.7,0.4,4.9,1c1.2,0.6,2.7,1.8,4.4,3.5c2.7,2.7,4.4,5.6,5.2,8.7c0.2,1.2,0.4,2.3,0.4,3.1
			c0,3-0.5,4.8-1.5,5.2h-12.4c-3.9,0-5.9,0-5.9,0.1c0,0.6,0.6,1.2,1.7,1.9c1.1,0.7,2.5,1.2,4,1.5c0.8,0.1,1.6,0.2,2.3,0.2
			c1.1,0,2.7-0.3,4.6-0.9c1.4-0.4,2.4-0.6,2.8-0.6c0.5,0,0.9,0.1,1.2,0.4c0.3,0.5,0.9,1.4,1.6,2.8c0.7,1.3,1,2.3,1,2.8
			c0,1.1-0.9,2.2-2.8,3.2c-1.8,1.1-3.7,1.9-5.6,2.3c-2,0.4-4.3,0.7-7,0.7c-3.3,0-5.8-0.3-7.6-0.9c-1.8-0.6-3.7-1.9-5.8-3.9
			c-2-2-3.4-3.9-4.2-5.8c-0.7-1.9-1.1-4.1-1.1-6.7c0-2.8,0.4-5.3,1.2-7.6c0.8-2.3,2.4-4.4,4.7-6.4c2.4-2.1,5.4-3.6,9.1-4.4
			C399.1,1227.1,400.4,1227,401.8,1227z M401.5,1237.1c-1.1,0-2.1,0.3-2.9,1c-0.8,0.6-1.3,1.5-1.3,2.5l-0.1,0.9l3.7,0.2l3.1,0.1h0.4
			c0.2,0,0.3,0,0.4-0.1h0.1h0.1c0.2,0,0.3-0.3,0.3-0.9c0-0.6-0.1-1.3-0.4-1.9C404.2,1237.7,403.1,1237.1,401.5,1237.1z"/>
		<path class="st4" d="M421.3,1229.3c0.4-0.3,1.5-0.4,3.2-0.4c1.7,0,3.4,0.1,5,0.4c1.6,0.3,2.5,0.6,2.8,1c0.3,0.4,0.5,0.7,0.5,1
			c0,0.1,0,0.1,0.1,0.1c0.3,0,1-0.3,2.1-0.8c2.1-1,4-1.6,5.7-1.6c1.7,0,3.5,0.5,5.4,1.5c1.8,1,2.8,2,2.8,3.1c0,0.6-0.4,1.8-1.3,3.6
			c-0.8,1.8-1.6,3.2-2.2,4.1c-0.5,0.7-1,1.1-1.6,1.1c-0.2,0-0.7-0.1-1.6-0.4c-0.9-0.3-1.7-0.4-2.5-0.4c-1.7,0-3.1,0.7-4.1,2
			c-1.8,2.3-2.7,7.3-2.7,14.9v1c0,1.1-0.1,1.9-0.2,2.3c-0.1,0.4-0.4,0.7-0.9,0.9c-0.5,0.1-1.3,0.2-2.4,0.2l-1.3-0.1h-1.6
			c-3.5-0.1-5.5-0.3-6-0.7c-0.6-0.4-0.9-0.8-1-1.3c-0.1-0.5-0.2-2.4-0.2-5.6c0-4.8,0.1-10.1,0.3-15.7c0.2-5.6,0.5-8.7,0.7-9.3
			C420.6,1230,420.9,1229.6,421.3,1229.3z"/>
		<path class="st4" d="M474.8,1228.5c3.4,0,6.1,0.9,8.1,2.8c1.9,1.9,3.3,4.3,4.2,7.2c0.4,1.3,0.6,5.3,0.7,12v4.7
			c0,3.4-0.1,5.3-0.4,5.6c-0.2,0.3-0.6,0.5-1.2,0.5c-0.6,0.1-2.4,0.2-5.4,0.2l-6.1,0.1l-0.3-0.7c0-0.2-0.2-2.6-0.4-7.2
			c0-3.7-0.2-6.6-0.5-8.6c-0.3-1.4-0.9-2.6-1.7-3.6c-0.4-0.4-1-0.7-1.8-0.7c-3.6,0-5.5,3.4-5.5,10.2c0,1.9,0,3.3,0.1,4
			c0,0.9,0.1,2.5,0.1,4.6c0,1.3-0.1,2-0.2,2.2s-1.6,0.3-4.2,0.4c-2.7,0.1-5,0.1-7,0.1c-0.8,0-1.3,0-1.6-0.1
			c-0.3-0.1-0.5-0.3-0.6-0.7c-0.1-0.3-0.2-1-0.2-1.9c-0.1-0.6-0.1-2.9-0.1-6.8l-0.1-6.7v-7.4l-0.1-5.4c0-1.4,0.1-2.4,0.3-3
			c0.2-0.6,0.5-0.9,1.1-1.1c0.5-0.2,1.5-0.3,2.8-0.3h3.7c2.7,0,4.4,0.1,5,0.4c0.5,0.2,0.7,1,0.7,2.4c0,1.2,0.1,1.8,0.2,1.8
			s0.7-0.5,1.7-1.4c1.7-1.6,3.6-2.7,5.5-3.2C472.6,1228.7,473.7,1228.5,474.8,1228.5z"/>
		<path class="st4" d="M515.6,1229.9c2.8,0,5,0.2,6.5,0.5c1.1,0.2,1.9,0.6,2.4,1.2c0.5,0.5,0.9,1.4,1.2,2.5c0.1,0.6,0.2,2.9,0.2,6.7
			c0,8.5-0.2,14.3-0.5,17.4c-0.1,1.6-0.4,2.8-0.7,3.4c-0.3,0.6-0.9,1-1.8,1.2c-0.9,0.2-2.5,0.3-5,0.4c-0.6,0.1-1.7,0.1-3.2,0.1
			c-1.1,0-1.8-0.1-2.2-0.3s-0.7-0.7-1-1.5c-0.3-0.8-0.6-1.2-0.8-1.2c-0.2,0-1,0.3-2.3,1c-2.1,1-4.1,1.5-6,1.5c-2,0-4.1-0.7-6.3-2.2
			c-2.2-1.5-4-3.4-5.5-5.8c-1.5-2.4-2.2-4.8-2.2-7.3c0-1.1,0.1-2,0.3-2.6l0.2-1.1l0.1-0.8c0.1-1.1,1-2.9,2.6-5.4
			c2.4-3.8,5.6-6.1,9.3-7c0.7-0.1,1.5-0.2,2.3-0.2c2.8,0,5.1,0.7,7,2.1c0.5,0.3,0.9,0.5,1.1,0.5s0.4-0.2,0.4-0.5
			c0-0.2,0.2-0.6,0.6-1.2c0.4-0.5,0.8-0.9,1.2-1C513.8,1229.9,514.5,1229.9,515.6,1229.9z M507.6,1241.1c-1.2,0-2.3,0.3-3.2,1
			c-0.9,0.7-1.6,1.6-1.9,2.8c-0.2,0.4-0.2,0.9-0.2,1.4c0,1.3,0.5,2.3,1.6,3.1c1,0.8,2.5,1.2,4.3,1.2c0.9,0,1.6,0,1.9-0.1
			c0.3-0.1,0.5-0.3,0.6-0.7c0.1-0.3,0.2-1.1,0.4-2.2c0.2-1.3,0.3-2.7,0.3-4c0-0.7,0-1.2-0.1-1.4c-0.1-0.2-0.4-0.4-1-0.6
			C509.4,1241.3,508.6,1241.1,507.6,1241.1z"/>
		<path class="st4" d="M551.3,1228.5c3.4,0,6.1,0.9,8.1,2.8c1.9,1.9,3.3,4.3,4.2,7.2c0.4,1.3,0.6,5.3,0.7,12v4.7
			c0,3.4-0.1,5.3-0.4,5.6c-0.2,0.3-0.6,0.5-1.2,0.5c-0.6,0.1-2.4,0.2-5.4,0.2l-6.1,0.1l-0.3-0.7c0-0.2-0.2-2.6-0.4-7.2
			c0-3.7-0.2-6.6-0.5-8.6c-0.3-1.4-0.9-2.6-1.7-3.6c-0.4-0.4-1-0.7-1.8-0.7c-3.6,0-5.5,3.4-5.5,10.2c0,1.9,0,3.3,0.1,4
			c0,0.9,0.1,2.5,0.1,4.6c0,1.3-0.1,2-0.2,2.2s-1.6,0.3-4.2,0.4c-2.7,0.1-5,0.1-7,0.1c-0.8,0-1.3,0-1.6-0.1
			c-0.3-0.1-0.5-0.3-0.6-0.7c-0.1-0.3-0.2-1-0.2-1.9c-0.1-0.6-0.1-2.9-0.1-6.8l-0.1-6.7v-7.4l-0.1-5.4c0-1.4,0.1-2.4,0.3-3
			c0.2-0.6,0.5-0.9,1.1-1.1c0.5-0.2,1.5-0.3,2.8-0.3h3.7c2.7,0,4.4,0.1,5,0.4c0.5,0.2,0.7,1,0.7,2.4c0,1.2,0.1,1.8,0.2,1.8
			s0.7-0.5,1.7-1.4c1.7-1.6,3.6-2.7,5.5-3.2C549,1228.7,550.1,1228.5,551.3,1228.5z"/>
		<path class="st4" d="M594.9,1219.6c3.1,0,5,0.1,5.6,0.2c0.7,0.1,1.3,0.5,1.8,1l0.7,0.7l-0.1,19.6c-0.1,11.9-0.2,18.5-0.5,19.9
			c-0.2,0.5-0.6,0.9-1.1,1.2l-0.3,0.1c-0.6,0.3-2,0.4-4.2,0.4H595c-2.9-0.1-4.6-0.2-5.2-0.4c-0.8-0.2-1.4-0.7-1.8-1.4
			c0,0-0.1-0.2-0.4-0.6c-0.2-0.1-0.3-0.2-0.4-0.1l-2.2,0.9c-1.2,0.5-3,0.8-5.2,0.8c-2,0-3.5-0.1-4.3-0.2c-0.8-0.1-1.9-0.5-3.1-1.1
			c-3.8-1.8-6-4.7-6.7-8.6c-0.3-1.6-0.4-3-0.4-4c0-3.5,0.7-6.6,2.2-9.4c1.5-2.8,3.4-5,5.7-6.5c2.3-1.5,4.7-2.3,7.1-2.3
			c2.3,0,4.6,0.7,6.7,2.1c0.5,0.3,0.8,0.5,0.9,0.4c0,0,0.2-1.7,0.4-5.1c0.2-3.3,0.4-5.3,0.6-5.8c0.2-0.8,0.9-1.4,2.1-1.6
			C592,1219.7,593.2,1219.6,594.9,1219.6z M586.6,1241.7c-0.6-0.4-1.4-0.7-2.2-0.7c-0.8,0-1.7,0.3-2.7,0.8c-1.7,1.1-2.5,2.6-2.5,4.5
			c0,1.2,0.4,2.4,1.3,3.5c0.9,1.1,2.1,1.7,3.7,1.7c0.7,0,1.5-0.1,2.3-0.4l1.1-0.4v-8.4L586.6,1241.7z"/>
		<path class="st4" d="M623.2,1228.4c1.7,0,3.3,0.1,4.9,0.4c3.7,0.7,6.9,2.2,9.6,4.4c2.6,2.2,4.3,4.9,4.9,7.8
			c0.1,0.6,0.2,1.5,0.2,2.5c0,3-0.5,5.7-1.4,8c-0.9,2.3-2.4,4.5-4.5,6.5c-1.9,1.9-3.9,3.2-6,3.9c-2,0.7-4.2,1.1-6.4,1.1
			c-3.8,0-7.3-0.9-10.5-2.8c-3.1-1.8-5.6-4.1-7.4-6.9c-1.8-2.7-2.7-5.4-2.7-7.8c0-0.8,0.1-2,0.4-3.6c1.6-8,6.2-12.5,13.8-13.4
			C620,1228.6,621.6,1228.4,623.2,1228.4z M623.8,1240.3c-0.7,0-1.3,0.2-1.8,0.5c-1.8,1.1-2.7,2.7-2.7,4.7c0,0.7,0.2,1.6,0.6,2.5
			c0.9,1.8,2.3,2.8,4.3,2.8c1,0,1.9-0.3,2.7-1c0.7-0.7,1.2-1.5,1.3-2.6c0-0.1,0.1-0.4,0.1-0.9c0-1.2-0.3-2.3-0.8-3.4
			c-0.5-1.1-1.2-1.8-2-2.2C624.8,1240.5,624.3,1240.3,623.8,1240.3z"/>
		<path class="st4" d="M676.2,1224.6c1.9,0,3.9,0.1,5.9,0.2c2,0.1,3.3,0.3,3.9,0.6c0.5,0.2,1,0.9,1.6,2.2c0.6,1.3,1.6,4.1,3.1,8.1
			c2,5.1,3.7,9.2,5,12.3c3.2,7.7,4.9,12.1,4.9,13.3c0,0.5-0.3,0.9-0.9,1.3c-1.1,0.7-3.4,1.1-6.9,1.1c-0.3,0-0.4,0-0.6-0.1h-0.5
			c-1-0.1-1.8-0.4-2.3-0.9c-0.5-0.5-0.9-1.4-1.3-2.7l-0.6-1.9l-1.7-0.1c-1.8-0.2-4.3-0.3-7.6-0.3c-1.6,0-2.6,0-3,0.1l-2.4,0.2
			l-0.7,2.1c-0.4,1.2-0.8,2-1.1,2.4c-0.3,0.3-0.9,0.6-1.7,0.7c-0.9,0.1-2.3,0.2-4.2,0.2c-1.9,0-3.2-0.1-3.9-0.3
			c-0.7-0.2-1.1-0.7-1.1-1.5c0-1,0.7-3.5,2.2-7.5c1.8-5.1,3.4-10,4.9-14.6c2.9-8.9,5.1-13.7,6.7-14.5
			C674.3,1224.7,675.1,1224.6,676.2,1224.6z M680,1237.7c-0.1,0-0.7,1.3-1.8,4c-1,2.6-1.5,4.2-1.5,4.6s1.3,0.7,4,0.7
			c0.9,0,1.6,0,2-0.1c0.4-0.1,0.7-0.3,0.7-0.7c0-0.8-0.7-2.7-2-5.8C680.5,1238.6,680,1237.7,680,1237.7z"/>
		<path class="st4" d="M705.1,1229.3c0.4-0.3,1.5-0.4,3.2-0.4c1.7,0,3.4,0.1,5,0.4c1.6,0.3,2.5,0.6,2.8,1c0.3,0.4,0.5,0.7,0.5,1
			c0,0.1,0,0.1,0.1,0.1c0.3,0,1-0.3,2.1-0.8c2.1-1,4-1.6,5.7-1.6c1.7,0,3.5,0.5,5.4,1.5c1.8,1,2.8,2,2.8,3.1c0,0.6-0.4,1.8-1.3,3.6
			c-0.8,1.8-1.6,3.2-2.2,4.1c-0.5,0.7-1,1.1-1.6,1.1c-0.2,0-0.7-0.1-1.6-0.4c-0.9-0.3-1.7-0.4-2.5-0.4c-1.7,0-3.1,0.7-4.1,2
			c-1.8,2.3-2.7,7.3-2.7,14.9v1c0,1.1-0.1,1.9-0.2,2.3c-0.1,0.4-0.4,0.7-0.9,0.9c-0.5,0.1-1.3,0.2-2.4,0.2l-1.3-0.1h-1.6
			c-3.5-0.1-5.5-0.3-6-0.7c-0.6-0.4-0.9-0.8-1-1.3c-0.1-0.5-0.2-2.4-0.2-5.6c0-4.8,0.1-10.1,0.3-15.7c0.2-5.6,0.5-8.7,0.7-9.3
			C704.4,1230,704.7,1229.6,705.1,1229.3z"/>
		<path class="st4" d="M760.5,1229.9c2.8,0,5,0.2,6.5,0.5c1.1,0.2,1.9,0.6,2.4,1.2c0.5,0.5,0.9,1.4,1.2,2.5c0.1,0.6,0.2,2.9,0.2,6.7
			c0,8.5-0.2,14.3-0.5,17.4c-0.1,1.6-0.4,2.8-0.7,3.4c-0.3,0.6-0.9,1-1.8,1.2c-0.9,0.2-2.5,0.3-5,0.4c-0.6,0.1-1.7,0.1-3.2,0.1
			c-1.1,0-1.8-0.1-2.2-0.3s-0.7-0.7-1-1.5c-0.3-0.8-0.6-1.2-0.8-1.2c-0.2,0-1,0.3-2.3,1c-2.1,1-4.1,1.5-6,1.5c-2,0-4.1-0.7-6.3-2.2
			c-2.2-1.5-4-3.4-5.5-5.8c-1.5-2.4-2.2-4.8-2.2-7.3c0-1.1,0.1-2,0.3-2.6l0.2-1.1l0.1-0.8c0.1-1.1,1-2.9,2.6-5.4
			c2.4-3.8,5.6-6.1,9.3-7c0.7-0.1,1.5-0.2,2.3-0.2c2.8,0,5.1,0.7,7,2.1c0.5,0.3,0.9,0.5,1.1,0.5s0.4-0.2,0.4-0.5
			c0-0.2,0.2-0.6,0.6-1.2c0.4-0.5,0.8-0.9,1.2-1C758.7,1229.9,759.4,1229.9,760.5,1229.9z M752.5,1241.1c-1.2,0-2.3,0.3-3.2,1
			c-0.9,0.7-1.6,1.6-1.9,2.8c-0.2,0.4-0.2,0.9-0.2,1.4c0,1.3,0.5,2.3,1.6,3.1c1,0.8,2.5,1.2,4.3,1.2c0.9,0,1.6,0,1.9-0.1
			c0.3-0.1,0.5-0.3,0.6-0.7c0.1-0.3,0.2-1.1,0.4-2.2c0.2-1.3,0.3-2.7,0.3-4c0-0.7,0-1.2-0.1-1.4c-0.1-0.2-0.4-0.4-1-0.6
			C754.3,1241.3,753.5,1241.1,752.5,1241.1z"/>
		<path class="st4" d="M796.2,1228.5c3.4,0,6.1,0.9,8.1,2.8c1.9,1.9,3.3,4.3,4.2,7.2c0.4,1.3,0.6,5.3,0.7,12v4.7
			c0,3.4-0.1,5.3-0.4,5.6c-0.2,0.3-0.6,0.5-1.2,0.5c-0.6,0.1-2.4,0.2-5.4,0.2l-6.1,0.1l-0.3-0.7c0-0.2-0.2-2.6-0.4-7.2
			c0-3.7-0.2-6.6-0.5-8.6c-0.3-1.4-0.9-2.6-1.7-3.6c-0.4-0.4-1-0.7-1.8-0.7c-3.6,0-5.5,3.4-5.5,10.2c0,1.9,0,3.3,0.1,4
			c0,0.9,0.1,2.5,0.1,4.6c0,1.3-0.1,2-0.2,2.2s-1.6,0.3-4.2,0.4c-2.7,0.1-5,0.1-7,0.1c-0.8,0-1.3,0-1.6-0.1
			c-0.3-0.1-0.5-0.3-0.6-0.7c-0.1-0.3-0.2-1-0.2-1.9c-0.1-0.6-0.1-2.9-0.1-6.8l-0.1-6.7v-7.4l-0.1-5.4c0-1.4,0.1-2.4,0.3-3
			c0.2-0.6,0.5-0.9,1.1-1.1c0.5-0.2,1.5-0.3,2.8-0.3h3.7c2.7,0,4.4,0.1,5,0.4c0.5,0.2,0.7,1,0.7,2.4c0,1.2,0.1,1.8,0.2,1.8
			s0.7-0.5,1.7-1.4c1.7-1.6,3.6-2.7,5.5-3.2C793.9,1228.7,795,1228.5,796.2,1228.5z"/>
		<path class="st4" d="M825.3,1230.8c2.7,0,4.4,0.2,5.1,0.5c0.7,0.4,1.5,0.8,2.2,1.3l1.1,0.7c0.1,0.1,0.3,0,0.4-0.3
			c0.3-0.6,0.7-1.1,0.9-1.3c0.3-0.2,0.6-0.4,1.1-0.5c0.4-0.1,1.3-0.1,2.5-0.2h1.3c3.3,0,5.5,0.3,6.7,1c0.7,0.4,1.1,1.3,1.3,2.8
			c0.1,1.4,0.2,5.5,0.2,12.2c0,7.8-0.1,13-0.4,15.6c-0.3,2.4-1.1,4.9-2.5,7.6c-2.5,5.1-6.3,8.2-11.3,9.3c-1.6,0.3-3.8,0.5-6.6,0.5
			c-2.5,0-4.4-0.2-5.9-0.5c-1.4-0.3-2.9-0.9-4.5-1.7c-1.3-0.6-2.3-1.3-2.9-1.9c-0.5-0.5-0.7-1-0.7-1.5c0-0.3,0-0.6,0.1-0.7
			c0.1-1,0.8-2.5,1.8-4.5c1.1-2,1.8-3,2.2-3c0.3,0,1.3,0.3,2.9,1c2.2,0.9,4.2,1.4,6,1.4c1.8,0,3.3-0.6,4.4-1.8
			c1.1-1.2,1.9-3,2.3-5.2l0.1-1l-1.3,0.7c-2.3,1.1-4.9,1.6-7.7,1.6c-5.9,0-10.1-2.8-12.6-8.4c-1.2-2.7-1.9-5.6-1.9-8.7
			c0-5.4,1.9-9.4,5.6-12c1.7-1.2,3.7-2.1,6-2.6C822.1,1230.9,823.4,1230.8,825.3,1230.8z M831.4,1242.8c-1.9,0-3.5,0.5-4.5,1.4
			c-1.1,0.9-1.6,2.1-1.6,3.5c0,0.6,0.2,1.2,0.4,1.8c0.9,1.8,2.4,2.7,4.6,2.7c0.8,0,1.7-0.1,2.5-0.4l0.7-0.2v-2.9
			c0-3.3-0.3-5.2-0.8-5.6C832.4,1242.9,831.9,1242.8,831.4,1242.8z"/>
		<path class="st4" d="M868.4,1228.4c1.7,0,3.3,0.1,4.9,0.4c3.7,0.7,6.9,2.2,9.6,4.4c2.6,2.2,4.3,4.9,4.9,7.8
			c0.1,0.6,0.2,1.5,0.2,2.5c0,3-0.5,5.7-1.4,8c-0.9,2.3-2.4,4.5-4.5,6.5c-1.9,1.9-3.9,3.2-6,3.9c-2,0.7-4.2,1.1-6.4,1.1
			c-3.8,0-7.3-0.9-10.5-2.8c-3.1-1.8-5.6-4.1-7.4-6.9c-1.8-2.7-2.7-5.4-2.7-7.8c0-0.8,0.1-2,0.4-3.6c1.6-8,6.2-12.5,13.8-13.4
			C865.2,1228.6,866.9,1228.4,868.4,1228.4z M869,1240.3c-0.7,0-1.3,0.2-1.8,0.5c-1.8,1.1-2.7,2.7-2.7,4.7c0,0.7,0.2,1.6,0.6,2.5
			c0.9,1.8,2.3,2.8,4.3,2.8c1,0,1.9-0.3,2.7-1c0.7-0.7,1.2-1.5,1.3-2.6c0-0.1,0.1-0.4,0.1-0.9c0-1.2-0.3-2.3-0.8-3.4
			c-0.5-1.1-1.2-1.8-2-2.2C870.1,1240.5,869.5,1240.3,869,1240.3z"/>
		<path class="st4" d="M915.9,1225.5c5.2,0,8.9,0.1,11.3,0.3c2.3,0.2,4.2,0.7,5.5,1.5c1.3,0.8,2.7,2.1,4.2,4
			c1.9,2.5,2.9,5.1,2.9,7.6c0,0.7-0.1,1.5-0.2,2.3c-0.5,3.2-2,5.7-4.5,7.5l-1,0.8l2,4.9c1.5,3.7,2.2,5.9,2.2,6.5
			c0,0.1-0.1,0.2-0.2,0.5c-0.1,0.2-1.5,0.5-4.1,0.9c-2.6,0.4-4.6,0.6-5.9,0.6c-1.1,0-1.9-0.2-2.3-0.6c-0.4-0.4-1-1.4-1.6-3
			c-1.3-3.4-2.2-5.2-2.7-5.2l-1.2-0.1c-0.4,0-0.7,0.1-0.8,0.3c-0.1,0.1-0.3,1.5-0.5,4.1c-0.1,1.4-0.3,2.5-0.4,3.3
			c-0.1,0.4-0.4,0.8-0.8,1.2c-0.5,0.4-1.5,0.6-3.1,0.6h-3.2l-2.4-0.1c-1.4,0-2.2,0-2.5-0.1c-0.6-0.1-1-0.3-1.2-0.6
			c-0.3-0.3-0.5-1.3-0.5-2.9c0-1.6,0.1-3.2,0.3-4.8c0.3-3.5,0.7-10.8,1.1-21.8c0.1-4.3,0.3-6.6,0.7-6.9c0.3-0.3,1.2-0.5,2.8-0.7
			C911,1225.5,913,1225.5,915.9,1225.5z M921,1236.6c-0.8-0.1-1.2-0.1-1.3-0.1c-0.3,0.1-0.4,0.3-0.4,0.6c-0.1,0.4-0.2,1.4-0.2,3
			c0,2,0.1,3.1,0.3,3.2s0.7,0.2,1.4,0.2c0.9,0,1.6-0.1,2.2-0.3c0.5-0.2,1.1-0.6,1.7-1.2c0.6-0.6,1-1.1,1-1.5c0,0,0.1-0.2,0.1-0.4
			c0-1.3-0.7-2.2-2-2.8C922.8,1236.9,921.9,1236.6,921,1236.6z"/>
		<path class="st4" d="M967.5,1229.9c2.8,0,5,0.2,6.5,0.5c1.1,0.2,1.9,0.6,2.4,1.2c0.5,0.5,0.9,1.4,1.2,2.5c0.1,0.6,0.2,2.9,0.2,6.7
			c0,8.5-0.2,14.3-0.5,17.4c-0.1,1.6-0.4,2.8-0.7,3.4c-0.3,0.6-0.9,1-1.8,1.2c-0.9,0.2-2.5,0.3-5,0.4c-0.6,0.1-1.7,0.1-3.2,0.1
			c-1.1,0-1.8-0.1-2.2-0.3s-0.7-0.7-1-1.5c-0.3-0.8-0.6-1.2-0.8-1.2c-0.2,0-1,0.3-2.3,1c-2.1,1-4.1,1.5-6,1.5c-2,0-4.1-0.7-6.3-2.2
			c-2.2-1.5-4-3.4-5.5-5.8c-1.5-2.4-2.2-4.8-2.2-7.3c0-1.1,0.1-2,0.3-2.6l0.2-1.1l0.1-0.8c0.1-1.1,1-2.9,2.6-5.4
			c2.4-3.8,5.6-6.1,9.3-7c0.7-0.1,1.5-0.2,2.3-0.2c2.8,0,5.1,0.7,7,2.1c0.5,0.3,0.9,0.5,1.1,0.5s0.4-0.2,0.4-0.5
			c0-0.2,0.2-0.6,0.6-1.2c0.4-0.5,0.8-0.9,1.2-1C965.7,1229.9,966.4,1229.9,967.5,1229.9z M959.5,1241.1c-1.2,0-2.3,0.3-3.2,1
			c-0.9,0.7-1.6,1.6-1.9,2.8c-0.2,0.4-0.2,0.9-0.2,1.4c0,1.3,0.5,2.3,1.6,3.1c1,0.8,2.5,1.2,4.3,1.2c0.9,0,1.6,0,1.9-0.1
			c0.3-0.1,0.5-0.3,0.6-0.7c0.1-0.3,0.2-1.1,0.4-2.2c0.2-1.3,0.3-2.7,0.3-4c0-0.7,0-1.2-0.1-1.4c-0.1-0.2-0.4-0.4-1-0.6
			C961.3,1241.3,960.5,1241.1,959.5,1241.1z"/>
		<path class="st4" d="M1023.4,1229.3c1.3,0,2.8,0.4,4.5,1.3c1.7,0.9,3,2.1,4,3.5c1,1.5,1.8,3.7,2.3,6.7c0.4,2.5,0.8,6.6,1,12.3
			c0,0.5,0.1,1.6,0.1,3.3c0,3.1-0.5,5.2-1.4,6.1l-0.8,0.8l-5.9-0.1l-4.6,0.1c-0.7,0-1.3-0.1-1.5-0.3c-0.3-0.2-0.4-0.6-0.5-1.2
			c-0.1-0.6-0.1-1.6-0.1-3.2c0-1.6,0-2.9-0.1-4c-0.1-5.2-0.4-8.6-0.7-10.2c-0.3-1.6-1-2.6-2.1-2.8c-0.1,0-0.3-0.1-0.6-0.1
			c-0.8,0-1.6,0.3-2.3,0.9c-0.7,0.6-1.3,1.3-1.6,2.2c-0.3,1-0.5,3.3-0.5,6.9c0,2,0.1,4,0.3,5.9l0.3,3.2c0,0.7-0.2,1.2-0.7,1.5
			c-0.4,0.1-1.5,0.3-3.3,0.4c-0.4,0.1-0.9,0.1-1.5,0.1l-4.3,0.1c-1.3,0-2.1-0.2-2.4-0.7c-0.3-0.7-0.8-5.6-1.7-14.4
			c-0.2-1.7-0.4-3.2-0.7-4.3c-0.2-0.8-0.6-1.2-1.1-1.2c-0.3,0-0.9,0.2-1.6,0.6c-1.2,0.7-2,1.9-2.3,3.5c-0.5,1.7-0.8,4.7-0.8,9
			c0,1.2,0,2.1-0.1,2.6c0,2.5-0.2,4-0.5,4.5c-0.3,0.4-1,0.7-2.2,0.7c-1.2,0-2.2,0-3.1,0.1l-3.7,0.1c-2,0-3.2-0.4-3.7-1.3
			c-0.5-1.2-0.8-8.6-0.8-22l-0.1-5.6c0-1.4,0.2-2.4,0.5-2.9c0.3-0.5,1-0.8,2-1c1-0.1,2.8-0.2,5.4-0.2c2.7,0,4.4,0.1,5.1,0.4
			c0.7,0.3,1.1,0.9,1.1,1.8c0,0.3,0.1,0.5,0.3,0.5s0.7-0.3,1.6-0.9c2.5-1.6,5.2-2.4,8.2-2.4c3.9,0,6.8,1.2,8.7,3.5l1,1.2l1.6-1.3
			c1.8-1.5,3.9-2.6,6.2-3.3C1021.2,1229.4,1022.2,1229.3,1023.4,1229.3z"/>
		<path class="st4" d="M1045.2,1233.8h2h0.8c0.7,0,1.3,0.1,1.7,0.2c0.4,0.1,0.7,0.3,0.8,0.5c0.1,0.2,0.2,0.6,0.3,1.2
			c0.1,1.3,0.1,5.9,0.1,13.8c0,8.3-0.1,12.6-0.3,12.8c-0.4,0.4-2,0.6-4.7,0.6h-2.7l-2-0.1c-1.2,0-1.9,0-2.1-0.1
			c-0.5,0-0.9-0.2-1.2-0.5l-0.6-0.6l-0.1-10.1v-3.1c0-8.7,0.3-13.4,0.9-14c0.2-0.3,1.8-0.5,4.8-0.5
			C1043.9,1233.9,1044.6,1233.9,1045.2,1233.8z"/>
		<path class="st4" d="M1055.6,1229.3c0.4-0.3,1.5-0.4,3.2-0.4c1.7,0,3.4,0.1,5,0.4c1.6,0.3,2.5,0.6,2.8,1c0.3,0.4,0.5,0.7,0.5,1
			c0,0.1,0,0.1,0.1,0.1c0.3,0,1-0.3,2.1-0.8c2.1-1,4-1.6,5.7-1.6c1.7,0,3.5,0.5,5.4,1.5c1.8,1,2.8,2,2.8,3.1c0,0.6-0.4,1.8-1.3,3.6
			c-0.8,1.8-1.6,3.2-2.2,4.1c-0.5,0.7-1,1.1-1.6,1.1c-0.2,0-0.7-0.1-1.6-0.4c-0.9-0.3-1.7-0.4-2.5-0.4c-1.7,0-3.1,0.7-4.1,2
			c-1.8,2.3-2.7,7.3-2.7,14.9v1c0,1.1-0.1,1.9-0.2,2.3c-0.1,0.4-0.4,0.7-0.9,0.9c-0.5,0.1-1.3,0.2-2.4,0.2l-1.3-0.1h-1.6
			c-3.5-0.1-5.5-0.3-6-0.7c-0.6-0.4-0.9-0.8-1-1.3c-0.1-0.5-0.2-2.4-0.2-5.6c0-4.8,0.1-10.1,0.3-15.7c0.2-5.6,0.5-8.7,0.7-9.3
			C1054.9,1230,1055.2,1229.6,1055.6,1229.3z"/>
		<path class="st4" d="M1103.2,1227h1c2,0.1,3.7,0.4,4.9,1c1.2,0.6,2.7,1.8,4.4,3.5c2.7,2.7,4.4,5.6,5.2,8.7
			c0.2,1.2,0.4,2.3,0.4,3.1c0,3-0.5,4.8-1.5,5.2h-12.4c-3.9,0-5.9,0-5.9,0.1c0,0.6,0.6,1.2,1.7,1.9c1.1,0.7,2.5,1.2,4,1.5
			c0.8,0.1,1.6,0.2,2.3,0.2c1.1,0,2.7-0.3,4.6-0.9c1.4-0.4,2.4-0.6,2.8-0.6c0.5,0,0.9,0.1,1.2,0.4c0.3,0.5,0.9,1.4,1.6,2.8
			c0.7,1.3,1,2.3,1,2.8c0,1.1-0.9,2.2-2.8,3.2c-1.8,1.1-3.7,1.9-5.6,2.3c-2,0.4-4.3,0.7-7,0.7c-3.3,0-5.8-0.3-7.6-0.9
			c-1.8-0.6-3.7-1.9-5.8-3.9c-2-2-3.4-3.9-4.2-5.8c-0.7-1.9-1.1-4.1-1.1-6.7c0-2.8,0.4-5.3,1.2-7.6c0.8-2.3,2.4-4.4,4.7-6.4
			c2.4-2.1,5.4-3.6,9.1-4.4C1100.6,1227.1,1101.9,1227,1103.2,1227z M1103,1237.1c-1.1,0-2.1,0.3-2.9,1c-0.8,0.6-1.3,1.5-1.3,2.5
			l-0.1,0.9l3.7,0.2l3.1,0.1h0.4c0.2,0,0.3,0,0.4-0.1h0.1h0.1c0.2,0,0.3-0.3,0.3-0.9c0-0.6-0.1-1.3-0.4-1.9
			C1105.7,1237.7,1104.6,1237.1,1103,1237.1z"/>
		<path class="st4" d="M1133.4,1229.9c10.5,0,16.7,0.3,18.7,0.7c1.6,0.4,2.4,1.5,2.4,3.3v0.4c0,1.6-0.3,2.8-0.9,3.7
			c-0.6,0.8-2.7,3-6.2,6.7l-6.7,6.7l3.4-0.2c2.2-0.2,4-0.3,5.3-0.3c1.1,0,1.9,0.3,2.4,0.7c0.4,0.5,0.7,1.3,0.7,2.5v0.9
			c0,0.3-0.1,0.7-0.1,1.1c-0.1,2.1-0.3,3.5-0.4,4.3c-0.3,0.9-0.7,1.5-1.3,1.9c-0.8,0.5-7.2,0.8-19.4,0.9h-2c-4.9,0-7.9-0.5-8.8-1.4
			c-0.4-0.4-0.6-0.9-0.6-1.4c0-0.6,0-1.1,0.1-1.4c0.1-1.4,0.4-2.5,0.8-3.3c0.4-0.8,1.3-1.8,2.5-2.8c1.5-1.2,3.5-3.2,5.9-5.9
			c2.5-2.7,3.7-4.3,3.7-4.7c0-0.2-1.3-0.3-4-0.4c-1.9,0-3.2-0.2-3.9-0.4c-0.5-0.1-1-0.5-1.3-1.1s-0.4-1.3-0.4-2.2
			c0-1.1,0.2-2.4,0.6-4c0.4-1.5,0.8-2.6,1.2-3.1c0.5-0.6,1.2-0.9,2.2-1C1128.4,1230,1130.4,1229.9,1133.4,1229.9z"/>
		<path class="st4" d="M353,1314.5c4.5,0,8,0.2,10.5,0.5c2.5,0.3,4.8,0.9,6.9,1.8c1.9,0.8,3.8,2.1,5.6,3.8c1.8,1.7,3,3.2,3.5,4.4
			c1,2.2,1.6,4.7,1.6,7.2c0,3.7-1,7.3-3,10.6c-2,3.3-4.6,5.9-7.9,7.6c-2.7,1.3-5.4,2.3-8.1,2.9c-2.6,0.6-5.9,0.9-9.6,0.9
			c-3.8,0-6.4-0.2-7.6-0.5c-0.9-0.2-1.6-0.4-1.9-0.5c-0.3-0.1-0.6-0.5-0.7-1c-0.2-0.5-0.3-1.6-0.3-3.2l0.1-4.2
			c0-1.3,0.1-3.1,0.1-5.2l0.4-22.2c0-1,0.2-1.6,0.4-1.9c0.2-0.3,0.7-0.5,1.4-0.6C345.5,1314.6,348.4,1314.5,353,1314.5z M357.7,1326
			c-0.4,0-0.7,0.1-0.9,0.3c-0.1,0.2-0.2,0.6-0.3,1.4c-0.2,1.9-0.3,4.7-0.3,8.2c0,3.8,0.1,5.9,0.3,6.1c0.1,0.1,0.4,0.1,0.8,0.1
			c1.6,0,3.3-0.4,4.9-1.2c1.6-0.8,2.9-1.9,4-3.3c1-1.4,1.5-2.9,1.5-4.3c0-0.7-0.1-1.4-0.4-2.1c-0.8-2.1-3-3.7-6.5-4.6
			C359,1326.2,358,1326,357.7,1326z"/>
		<path class="st4" d="M388.3,1318.6c4.6,0,7.1,0.2,7.6,0.7c0.1,0.1,0.1,0.6,0.1,1.6c0,1.2,0,2.6-0.1,4.3c-0.1,1.7-0.1,3.5-0.1,5.3
			c0,3.9,0.3,6.7,0.9,8.3c0.6,1.7,1.7,2.5,3.3,2.5c1.4,0,2.5-0.7,3.2-2.2c0.9-1.7,1.4-5.7,1.5-11.7c0.1-5,0.3-7.6,0.5-7.8
			c0.2-0.2,1.3-0.5,3.1-0.7c1.8-0.2,3.5-0.4,5.2-0.4c1.3,0,2.3,0.1,3.1,0.2c0.8,0.1,1.3,0.4,1.6,0.8c0.5,0.8,0.8,4.7,0.8,11.6
			c0,12.8-0.2,19.6-0.6,20.6c-0.3,0.7-1.5,1.1-3.5,1.1c-0.8,0-2.5-0.1-4.9-0.3c-0.8,0-1.5,0-2-0.1s-1-0.2-1.4-0.3
			c-0.5-0.1-0.9-0.3-1.1-0.6c-0.2-0.2-0.4-0.6-0.6-1.1c-0.4-0.9-0.8-1.1-1.3-0.6c-0.3,0.3-1.2,0.8-2.8,1.5c-1.6,0.6-2.9,1.1-3.9,1.3
			c-0.7,0.1-1.4,0.1-2.2,0.1c-2.1,0-4-0.4-5.8-1.3c-1.8-0.9-3.1-2.1-4-3.5c-0.3-0.6-0.8-1.7-1.3-3.4c-0.4-1.7-0.6-3.9-0.6-6.5v-3.8
			c0.1-9.7,0.7-14.7,1.9-15.2C385.2,1318.8,386.4,1318.6,388.3,1318.6z"/>
		<path class="st4" d="M448.2,1318.9c0.6,0,1.9,0.3,4,0.9c2.1,0.6,3.5,1.1,4.2,1.5c0.7,0.4,1,1.1,1,1.9c0,0.8-0.5,2.4-1.6,4.8
			l-1,2.2c-1,2.3-1.7,3.9-2,4.7c-1.2,2.9-2.7,6.4-4.6,10.3c-1.9,3.9-3,6.1-3.4,6.6c-0.4,0.3-0.8,0.6-1.1,0.7
			c-0.4,0.1-1.3,0.2-2.8,0.2h-1.1c-4.5,0-7.4-0.4-8.5-1.3c-0.4-0.3-1.5-2.6-3.3-6.8c-1.8-4.2-3.5-8.5-5.1-12.8
			c-1.6-4.3-2.4-7.1-2.4-8.4c0-0.7,0.6-1.4,1.8-2.1c1.2-0.6,2.6-1.1,4.1-1.5c1.6-0.4,2.8-0.6,3.7-0.6c0.4,0,0.8,0.1,1.1,0.1
			c0.6,0.2,1.2,0.9,1.8,2.2c0.4,0.9,1.3,3.8,2.8,8.7c1.2,3.9,1.8,6,1.9,6.1l0.2-0.3c0.3-0.4,0.7-1.1,1.1-2.1
			c0.7-1.5,2.1-4.3,4.3-8.3c2.2-4,3.4-6.1,3.7-6.4C447.4,1319.1,447.8,1318.9,448.2,1318.9z"/>
		<path class="st4" d="M485.6,1319.5c2.8,0,5,0.2,6.5,0.5c1.1,0.2,1.9,0.6,2.4,1.2c0.5,0.5,0.9,1.4,1.2,2.5c0.1,0.6,0.2,2.9,0.2,6.7
			c0,8.5-0.2,14.3-0.5,17.4c-0.1,1.6-0.4,2.8-0.7,3.4c-0.3,0.6-0.9,1-1.8,1.2c-0.9,0.2-2.5,0.3-5,0.4c-0.6,0.1-1.7,0.1-3.2,0.1
			c-1.1,0-1.8-0.1-2.2-0.3s-0.7-0.7-1-1.5c-0.3-0.8-0.6-1.2-0.8-1.2c-0.2,0-1,0.3-2.3,1c-2.1,1-4.1,1.5-6,1.5c-2,0-4.1-0.7-6.3-2.2
			c-2.2-1.5-4-3.4-5.5-5.8c-1.5-2.4-2.2-4.8-2.2-7.3c0-1.1,0.1-2,0.3-2.6l0.2-1.1l0.1-0.8c0.1-1.1,1-2.9,2.6-5.4
			c2.4-3.8,5.6-6.1,9.3-7c0.7-0.1,1.5-0.2,2.3-0.2c2.8,0,5.1,0.7,7,2.1c0.5,0.3,0.9,0.5,1.1,0.5s0.4-0.2,0.4-0.5
			c0-0.2,0.2-0.6,0.6-1.2c0.4-0.5,0.8-0.9,1.2-1C483.9,1319.6,484.5,1319.5,485.6,1319.5z M477.7,1330.8c-1.2,0-2.3,0.3-3.2,1
			c-0.9,0.7-1.6,1.6-1.9,2.8c-0.2,0.4-0.2,0.9-0.2,1.4c0,1.3,0.5,2.3,1.6,3.1c1,0.8,2.5,1.2,4.3,1.2c0.9,0,1.6,0,1.9-0.1
			c0.3-0.1,0.5-0.3,0.6-0.7c0.1-0.3,0.2-1.1,0.4-2.2c0.2-1.3,0.3-2.7,0.3-4c0-0.7,0-1.2-0.1-1.4c-0.1-0.2-0.4-0.4-1-0.6
			C479.4,1330.9,478.6,1330.8,477.7,1330.8z"/>
		<path class="st4" d="M521.3,1318.2c3.4,0,6.1,0.9,8.1,2.8c1.9,1.9,3.3,4.3,4.2,7.2c0.4,1.3,0.6,5.3,0.7,12v4.7
			c0,3.4-0.1,5.3-0.4,5.6c-0.2,0.3-0.6,0.5-1.2,0.5c-0.6,0.1-2.4,0.2-5.4,0.2l-6.1,0.1l-0.3-0.7c0-0.2-0.2-2.6-0.4-7.2
			c0-3.7-0.2-6.6-0.5-8.6c-0.3-1.4-0.9-2.6-1.7-3.6c-0.4-0.4-1-0.7-1.8-0.7c-3.6,0-5.5,3.4-5.5,10.2c0,1.9,0,3.3,0.1,4
			c0,0.9,0.1,2.5,0.1,4.6c0,1.3-0.1,2-0.2,2.2s-1.6,0.3-4.2,0.4c-2.7,0.1-5,0.1-7,0.1c-0.8,0-1.3,0-1.6-0.1
			c-0.3-0.1-0.5-0.3-0.6-0.7c-0.1-0.3-0.2-1-0.2-1.9c-0.1-0.6-0.1-2.9-0.1-6.8l-0.1-6.7v-7.4l-0.1-5.4c0-1.4,0.1-2.4,0.3-3
			c0.2-0.6,0.5-0.9,1.1-1.1c0.5-0.2,1.5-0.3,2.8-0.3h3.7c2.7,0,4.4,0.1,5,0.4c0.5,0.2,0.7,1,0.7,2.4c0,1.2,0.1,1.8,0.2,1.8
			s0.7-0.5,1.7-1.4c1.7-1.6,3.6-2.7,5.5-3.2C519.1,1318.4,520.2,1318.2,521.3,1318.2z"/>
		<path class="st4" d="M573.2,1312.3c6.7,0,11.5,1.2,14.4,3.7c0.4,0.4,0.7,0.7,0.8,0.9c0.1,0.2,0.1,0.5,0,1c0,0.6-0.5,1.9-1.5,3.8
			c-0.9,2-1.6,3.2-2.1,3.6l-0.7,0.4c-0.2,0-0.7-0.2-1.4-0.5c-3-1.3-5.6-1.9-7.8-1.9c-1.7,0-3.4,0.5-5,1.5c-1.6,1-2.8,2.3-3.6,4
			c-0.5,1.2-0.8,2.2-0.8,3c0,0.8,0,1.3,0.1,1.6c0.1,1.8,0.4,3.2,1,4.2c1.7,2.7,4.6,4,8.8,4c1.5,0,3.2-0.3,5.1-0.8
			c0.6-0.1,0.9-0.6,0.9-1.3c0-0.5-0.1-0.9-0.3-1.1c-0.3-0.1-1.2-0.2-2.9-0.4c-1.8-0.1-3-0.4-3.5-0.8c-0.6-0.4-0.9-1.3-0.9-2.6
			c0-0.8,0-1.4,0.1-1.7c0.2-1.9,0.7-3.1,1.5-3.4c0.6-0.2,3.3-0.3,8.1-0.3c4.7,0,7.4,0.1,7.9,0.3c0.2,0.1,0.6,0.3,1,0.9
			c0.1,0.3,0.4,2.4,0.7,6.2c0.3,3.9,0.4,6.7,0.4,8.4c0,0.6,0,1-0.1,1c-0.2,0.9-1.2,1.9-2.9,2.9c-1.7,1-3.8,1.9-6.3,2.7
			c-2.5,0.7-5,1.2-7.5,1.3h-1.5c-4.4,0-8.4-0.9-12-2.7c-3.6-1.8-6.5-4.4-8.8-7.9c-1-1.5-1.7-2.9-2.1-4c-0.3-1.1-0.5-2.7-0.5-4.7
			c0-6,1.6-10.7,4.9-14.3c3.3-3.6,7.6-5.8,13.1-6.8C570.6,1312.4,571.7,1312.3,573.2,1312.3z"/>
		<path class="st4" d="M602.9,1323.5h2h0.8c0.7,0,1.3,0.1,1.7,0.2c0.4,0.1,0.7,0.3,0.8,0.5c0.1,0.2,0.2,0.6,0.3,1.2
			c0.1,1.3,0.1,5.9,0.1,13.8c0,8.3-0.1,12.6-0.3,12.8c-0.4,0.4-2,0.6-4.7,0.6h-2.7l-2-0.1c-1.2,0-1.9,0-2.1-0.1
			c-0.5,0-0.9-0.2-1.2-0.5l-0.6-0.6l-0.1-10.1v-3.1c0-8.7,0.3-13.4,0.9-14c0.2-0.3,1.8-0.5,4.8-0.5
			C601.6,1323.6,602.3,1323.6,602.9,1323.5z M601.8,1309.7c1.6,0,3.1,0.6,4.3,1.7c1.2,1.1,1.8,2.4,1.8,3.8v1
			c-0.1,1.4-0.7,2.6-1.7,3.4c-1,0.8-2.4,1.2-4.2,1.2h-0.4c-1.7-0.1-3.2-0.6-4.2-1.5c-1.1-0.9-1.6-2.1-1.6-3.5c0-0.7,0.1-1.4,0.4-2.1
			c0.2-0.6,0.7-1.3,1.4-2.1C598.7,1310.3,600.2,1309.7,601.8,1309.7z"/>
		<path class="st4" d="M613.3,1319c0.4-0.3,1.5-0.4,3.2-0.4c1.7,0,3.4,0.1,5,0.4c1.6,0.3,2.5,0.6,2.8,1c0.3,0.4,0.5,0.7,0.5,1
			c0,0.1,0,0.1,0.1,0.1c0.3,0,1-0.3,2.1-0.8c2.1-1,4-1.6,5.7-1.6c1.7,0,3.5,0.5,5.4,1.5c1.8,1,2.8,2,2.8,3.1c0,0.6-0.4,1.8-1.3,3.6
			c-0.8,1.8-1.6,3.2-2.2,4.1c-0.5,0.7-1,1.1-1.6,1.1c-0.2,0-0.7-0.1-1.6-0.4c-0.9-0.3-1.7-0.4-2.5-0.4c-1.7,0-3.1,0.7-4.1,2
			c-1.8,2.3-2.7,7.3-2.7,14.9v1c0,1.1-0.1,1.9-0.2,2.3c-0.1,0.4-0.4,0.7-0.9,0.9c-0.5,0.1-1.3,0.2-2.4,0.2l-1.3-0.1h-1.6
			c-3.5-0.1-5.5-0.3-6-0.7c-0.6-0.4-0.9-0.8-1-1.3c-0.1-0.5-0.2-2.4-0.2-5.6c0-4.8,0.1-10.1,0.3-15.7c0.2-5.6,0.5-8.7,0.7-9.3
			C612.6,1319.6,612.9,1319.3,613.3,1319z"/>
		<path class="st4" d="M668.7,1319.5c2.8,0,5,0.2,6.5,0.5c1.1,0.2,1.9,0.6,2.4,1.2c0.5,0.5,0.9,1.4,1.2,2.5c0.1,0.6,0.2,2.9,0.2,6.7
			c0,8.5-0.2,14.3-0.5,17.4c-0.1,1.6-0.4,2.8-0.7,3.4c-0.3,0.6-0.9,1-1.8,1.2c-0.9,0.2-2.5,0.3-5,0.4c-0.6,0.1-1.7,0.1-3.2,0.1
			c-1.1,0-1.8-0.1-2.2-0.3s-0.7-0.7-1-1.5c-0.3-0.8-0.6-1.2-0.8-1.2c-0.2,0-1,0.3-2.3,1c-2.1,1-4.1,1.5-6,1.5c-2,0-4.1-0.7-6.3-2.2
			c-2.2-1.5-4-3.4-5.5-5.8c-1.5-2.4-2.2-4.8-2.2-7.3c0-1.1,0.1-2,0.3-2.6l0.2-1.1l0.1-0.8c0.1-1.1,1-2.9,2.6-5.4
			c2.4-3.8,5.6-6.1,9.3-7c0.7-0.1,1.5-0.2,2.3-0.2c2.8,0,5.1,0.7,7,2.1c0.5,0.3,0.9,0.5,1.1,0.5s0.4-0.2,0.4-0.5
			c0-0.2,0.2-0.6,0.6-1.2c0.4-0.5,0.8-0.9,1.2-1C666.9,1319.6,667.6,1319.5,668.7,1319.5z M660.8,1330.8c-1.2,0-2.3,0.3-3.2,1
			c-0.9,0.7-1.6,1.6-1.9,2.8c-0.2,0.4-0.2,0.9-0.2,1.4c0,1.3,0.5,2.3,1.6,3.1c1,0.8,2.5,1.2,4.3,1.2c0.9,0,1.6,0,1.9-0.1
			c0.3-0.1,0.5-0.3,0.6-0.7c0.1-0.3,0.2-1.1,0.4-2.2c0.2-1.3,0.3-2.7,0.3-4c0-0.7,0-1.2-0.1-1.4c-0.1-0.2-0.4-0.4-1-0.6
			C662.5,1330.9,661.7,1330.8,660.8,1330.8z"/>
		<path class="st4" d="M684.6,1311.9h1.8c3.8,0.1,5.9,0.6,6.3,1.6c0.1,0.9,0.2,7.1,0.3,18.8v9.7c0,4.2,0,7.1-0.1,8.4
			c-0.1,1.1-0.3,1.7-0.8,1.9c-0.6,0.1-2.3,0.3-4.9,0.3c-0.5,0-1.4,0.1-2.8,0.1c-1.4,0-2.4-0.1-2.9-0.3s-0.8-0.5-0.9-1
			c-0.1-0.4-0.1-1.3-0.1-2.6l0.1-1.6v-1.9c0-0.7,0-1.3,0.1-1.9v-1.9c0-2.5-0.1-4.6-0.2-6.3c-0.3-4.2-0.5-8.3-0.5-12.3
			c0-2.7,0.1-5.2,0.4-7.2c0.3-2.1,0.8-3.3,1.5-3.5C682.2,1312,683.2,1311.9,684.6,1311.9z"/>
		<path class="st4" d="M723.9,1309.3c3.1,0,5,0.1,5.6,0.2c0.7,0.1,1.3,0.5,1.8,1l0.7,0.7l-0.1,19.6c-0.1,11.9-0.2,18.5-0.5,19.9
			c-0.2,0.5-0.6,0.9-1.1,1.2l-0.3,0.1c-0.6,0.3-2,0.4-4.2,0.4h-1.6c-2.9-0.1-4.6-0.2-5.2-0.4c-0.8-0.2-1.4-0.7-1.8-1.4
			c0,0-0.1-0.2-0.4-0.6c-0.2-0.1-0.3-0.2-0.4-0.1l-2.2,0.9c-1.2,0.5-3,0.8-5.2,0.8c-2,0-3.5-0.1-4.3-0.2c-0.8-0.1-1.9-0.5-3.1-1.1
			c-3.8-1.8-6-4.7-6.7-8.6c-0.3-1.6-0.4-3-0.4-4c0-3.5,0.7-6.6,2.2-9.4c1.5-2.8,3.4-5,5.7-6.5c2.3-1.5,4.7-2.3,7.1-2.3
			c2.3,0,4.6,0.7,6.7,2.1c0.5,0.3,0.8,0.5,0.9,0.4c0,0,0.2-1.7,0.4-5.1c0.2-3.3,0.4-5.3,0.6-5.8c0.2-0.8,0.9-1.4,2.1-1.6
			C721.1,1309.4,722.3,1309.3,723.9,1309.3z M715.6,1331.4c-0.6-0.4-1.4-0.7-2.2-0.7c-0.8,0-1.7,0.3-2.7,0.8
			c-1.7,1.1-2.5,2.6-2.5,4.5c0,1.2,0.4,2.4,1.3,3.5c0.9,1.1,2.1,1.7,3.7,1.7c0.7,0,1.5-0.1,2.3-0.4l1.1-0.4v-8.4L715.6,1331.4z"/>
		<path class="st4" d="M752.2,1318.1c1.7,0,3.3,0.1,4.9,0.4c3.7,0.7,6.9,2.2,9.6,4.4c2.6,2.2,4.3,4.9,4.9,7.8
			c0.1,0.6,0.2,1.5,0.2,2.5c0,3-0.5,5.7-1.4,8c-0.9,2.3-2.4,4.5-4.5,6.5c-1.9,1.9-3.9,3.2-6,3.9c-2,0.7-4.2,1.1-6.4,1.1
			c-3.8,0-7.3-0.9-10.5-2.8c-3.1-1.8-5.6-4.1-7.4-6.9c-1.8-2.7-2.7-5.4-2.7-7.8c0-0.8,0.1-2,0.4-3.6c1.6-8,6.2-12.5,13.8-13.4
			C749,1318.2,750.7,1318.1,752.2,1318.1z M752.8,1330c-0.7,0-1.3,0.2-1.8,0.5c-1.8,1.1-2.7,2.7-2.7,4.7c0,0.7,0.2,1.6,0.6,2.5
			c0.9,1.8,2.3,2.8,4.3,2.8c1,0,1.9-0.3,2.7-1c0.7-0.7,1.2-1.5,1.3-2.6c0-0.1,0.1-0.4,0.1-0.9c0-1.2-0.3-2.3-0.8-3.4
			c-0.5-1.1-1.2-1.8-2-2.2C753.9,1330.1,753.3,1330,752.8,1330z"/>
		<path class="st4" d="M800.2,1314.5c4.5,0,8,0.2,10.5,0.5c2.5,0.3,4.8,0.9,6.9,1.8c1.9,0.8,3.8,2.1,5.6,3.8c1.8,1.7,3,3.2,3.5,4.4
			c1,2.2,1.6,4.7,1.6,7.2c0,3.7-1,7.3-3,10.6c-2,3.3-4.6,5.9-7.9,7.6c-2.7,1.3-5.4,2.3-8.1,2.9c-2.6,0.6-5.9,0.9-9.6,0.9
			c-3.8,0-6.4-0.2-7.6-0.5c-0.9-0.2-1.6-0.4-1.9-0.5c-0.3-0.1-0.6-0.5-0.7-1c-0.2-0.5-0.3-1.6-0.3-3.2l0.1-4.2
			c0-1.3,0.1-3.1,0.1-5.2l0.4-22.2c0-1,0.2-1.6,0.4-1.9c0.2-0.3,0.7-0.5,1.4-0.6C792.8,1314.6,795.7,1314.5,800.2,1314.5z
			 M804.9,1326c-0.4,0-0.7,0.1-0.9,0.3c-0.1,0.2-0.2,0.6-0.3,1.4c-0.2,1.9-0.3,4.7-0.3,8.2c0,3.8,0.1,5.9,0.3,6.1
			c0.1,0.1,0.4,0.1,0.8,0.1c1.6,0,3.3-0.4,4.9-1.2c1.6-0.8,2.9-1.9,4-3.3c1-1.4,1.5-2.9,1.5-4.3c0-0.7-0.1-1.4-0.4-2.1
			c-0.8-2.1-3-3.7-6.5-4.6C806.3,1326.2,805.3,1326,804.9,1326z"/>
		<path class="st4" d="M835.6,1318.6c4.6,0,7.1,0.2,7.6,0.7c0.1,0.1,0.1,0.6,0.1,1.6c0,1.2,0,2.6-0.1,4.3c-0.1,1.7-0.1,3.5-0.1,5.3
			c0,3.9,0.3,6.7,0.9,8.3c0.6,1.7,1.7,2.5,3.3,2.5c1.4,0,2.5-0.7,3.2-2.2c0.9-1.7,1.4-5.7,1.5-11.7c0.1-5,0.3-7.6,0.5-7.8
			c0.2-0.2,1.3-0.5,3.1-0.7c1.8-0.2,3.5-0.4,5.2-0.4c1.3,0,2.3,0.1,3.1,0.2c0.8,0.1,1.3,0.4,1.6,0.8c0.5,0.8,0.8,4.7,0.8,11.6
			c0,12.8-0.2,19.6-0.6,20.6c-0.3,0.7-1.5,1.1-3.5,1.1c-0.8,0-2.5-0.1-4.9-0.3c-0.8,0-1.5,0-2-0.1s-1-0.2-1.4-0.3
			c-0.5-0.1-0.9-0.3-1.1-0.6c-0.2-0.2-0.4-0.6-0.6-1.1c-0.4-0.9-0.8-1.1-1.3-0.6c-0.3,0.3-1.2,0.8-2.8,1.5c-1.6,0.6-2.9,1.1-3.9,1.3
			c-0.7,0.1-1.4,0.1-2.2,0.1c-2.1,0-4-0.4-5.8-1.3c-1.8-0.9-3.1-2.1-4-3.5c-0.3-0.6-0.8-1.7-1.3-3.4c-0.4-1.7-0.6-3.9-0.6-6.5v-3.8
			c0.1-9.7,0.7-14.7,1.9-15.2C832.4,1318.8,833.7,1318.6,835.6,1318.6z"/>
		<path class="st4" d="M892.9,1321c0.5-0.2,1.4-0.3,2.7-0.3c1.5,0,2.5,0,3.1,0.1c2.7,0.1,4.6,0.2,5.6,0.4c0.6,0.1,1.1,0.4,1.4,0.6
			c0.3,0.3,0.5,0.7,0.6,1.4c0.1,0.7,0.1,1.8,0.1,3.3l-0.1,8.1l-0.5,20.9c0,6.2-0.3,9.5-0.7,10c-0.3,0.4-0.6,0.6-0.9,0.7
			c-0.3,0.1-0.9,0.1-1.8,0.1c-1.8,0-4.1-0.1-6.7-0.3c-2.6-0.2-4-0.4-4.2-0.6c-0.5-0.5-0.9-3.2-1.1-8.1l-0.1-5.4l-2,0.2
			c-1.4,0.1-2.8,0.2-4,0.2c-3.6,0-6.5-0.6-8.6-1.7c-2.1-1.1-3.8-3.1-5.2-5.9c-1.4-2.7-2.1-5.6-2.1-8.6v-0.8c0.1-3.2,1-6.1,2.5-8.5
			c0.8-1.3,2-2.5,3.7-3.5c1.7-1,3.5-1.8,5.5-2.2c0.7-0.2,1.5-0.3,2.2-0.3c0.6,0,1.8,0.2,3.5,0.5c1.7,0.3,2.9,0.7,3.6,1.1
			c0.6,0.3,1.2,0.5,1.6,0.5c0.3,0,0.6-0.3,0.9-0.8C892,1321.7,892.4,1321.2,892.9,1321z M889.6,1336.3v-1.1c0-0.7-0.1-1.2-0.3-1.5
			c-0.2-0.3-0.7-0.6-1.5-1.1c-0.9-0.4-1.8-0.6-2.6-0.6c-1.4,0-2.6,0.5-3.5,1.4c-0.9,0.9-1.4,2.1-1.4,3.6l0.1,0.3v0.4
			c0.1,1.3,0.7,2.4,1.8,3.2c1,0.8,2.3,1.3,3.8,1.3c1.4,0,2.4-0.2,2.9-0.5c0.4-0.2,0.6-0.5,0.7-0.8c0-0.2,0.1-1.3,0.1-3.1
			C889.5,1337.2,889.5,1336.7,889.6,1336.3z"/>
		<path class="st4" d="M914.1,1318.6c4.6,0,7.1,0.2,7.6,0.7c0.1,0.1,0.1,0.6,0.1,1.6c0,1.2,0,2.6-0.1,4.3c-0.1,1.7-0.1,3.5-0.1,5.3
			c0,3.9,0.3,6.7,0.9,8.3c0.6,1.7,1.7,2.5,3.3,2.5c1.4,0,2.5-0.7,3.2-2.2c0.9-1.7,1.4-5.7,1.5-11.7c0.1-5,0.3-7.6,0.5-7.8
			c0.2-0.2,1.3-0.5,3.1-0.7c1.8-0.2,3.5-0.4,5.2-0.4c1.3,0,2.3,0.1,3.1,0.2c0.8,0.1,1.3,0.4,1.6,0.8c0.5,0.8,0.8,4.7,0.8,11.6
			c0,12.8-0.2,19.6-0.6,20.6c-0.3,0.7-1.5,1.1-3.5,1.1c-0.8,0-2.5-0.1-4.9-0.3c-0.8,0-1.5,0-2-0.1s-1-0.2-1.4-0.3
			c-0.5-0.1-0.9-0.3-1.1-0.6c-0.2-0.2-0.4-0.6-0.6-1.1c-0.4-0.9-0.8-1.1-1.3-0.6c-0.3,0.3-1.2,0.8-2.8,1.5c-1.6,0.6-2.9,1.1-3.9,1.3
			c-0.7,0.1-1.4,0.1-2.2,0.1c-2.1,0-4-0.4-5.8-1.3c-1.8-0.9-3.1-2.1-4-3.5c-0.3-0.6-0.8-1.7-1.3-3.4c-0.4-1.7-0.6-3.9-0.6-6.5v-3.8
			c0.1-9.7,0.7-14.7,1.9-15.2C911,1318.8,912.2,1318.6,914.1,1318.6z"/>
		<path class="st4" d="M964.8,1316.6h1c2,0.1,3.7,0.4,4.9,1c1.2,0.6,2.7,1.8,4.4,3.5c2.7,2.7,4.4,5.6,5.2,8.7
			c0.2,1.2,0.4,2.3,0.4,3.1c0,3-0.5,4.8-1.5,5.2h-12.4c-3.9,0-5.9,0-5.9,0.1c0,0.6,0.6,1.2,1.7,1.9c1.1,0.7,2.5,1.2,4,1.5
			c0.8,0.1,1.6,0.2,2.3,0.2c1.1,0,2.7-0.3,4.6-0.9c1.4-0.4,2.4-0.6,2.8-0.6c0.5,0,0.9,0.1,1.2,0.4c0.3,0.5,0.9,1.4,1.6,2.8
			c0.7,1.3,1,2.3,1,2.8c0,1.1-0.9,2.2-2.8,3.2c-1.8,1.1-3.7,1.9-5.6,2.3c-2,0.4-4.3,0.7-7,0.7c-3.3,0-5.8-0.3-7.6-0.9
			c-1.8-0.6-3.7-1.9-5.8-3.9c-2-2-3.4-3.9-4.2-5.8c-0.7-1.9-1.1-4.1-1.1-6.7c0-2.8,0.4-5.3,1.2-7.6c0.8-2.3,2.4-4.4,4.7-6.4
			c2.4-2.1,5.4-3.6,9.1-4.4C962.2,1316.8,963.5,1316.6,964.8,1316.6z M964.6,1326.8c-1.1,0-2.1,0.3-2.9,1c-0.8,0.6-1.3,1.5-1.3,2.5
			l-0.1,0.9l3.7,0.2l3.1,0.1h0.4c0.2,0,0.3,0,0.4-0.1h0.1h0.1c0.2,0,0.3-0.3,0.3-0.9c0-0.6-0.1-1.3-0.4-1.9
			C967.3,1327.4,966.2,1326.8,964.6,1326.8z"/>
		<path class="st4" d="M989.6,993.7l5.1-2.4l0.6,0.6c0.3,0.3,1,1.4,2,3.4c0.2,0.3,0.5,1,0.9,1.9c0.4,0.8,0.5,1.3,0.5,1.6
			c-0.1,0.3-1,0.9-2.7,1.9c-1.7,1-3.4,1.9-5,2.6c-1.5,0.7-2.5,1-2.9,1c-0.5-0.1-0.9-0.3-1.4-0.9c-0.4-0.5-1-1.4-1.6-2.8l-0.5-1
			c-0.5-1-0.7-1.7-0.8-2.2c-0.1-0.5,0.1-0.8,0.4-1.1C984.6,996.1,986.4,995.2,989.6,993.7z"/>
		<path class="st4" d="M1042.6,1221.7l5.1-2.4l0.6,0.6c0.3,0.3,1,1.4,2,3.4c0.2,0.3,0.5,1,0.9,1.9c0.4,0.8,0.5,1.3,0.5,1.6
			c-0.1,0.3-1,0.9-2.7,1.9c-1.7,1-3.4,1.9-5,2.6c-1.5,0.7-2.5,1-2.9,1c-0.5-0.1-0.9-0.3-1.4-0.9c-0.4-0.5-1-1.4-1.6-2.8l-0.5-1
			c-0.5-1-0.7-1.7-0.8-2.2c-0.1-0.5,0.1-0.8,0.4-1.1C1037.6,1224.1,1039.4,1223.2,1042.6,1221.7z"/>
	</g>
</g>
</svg>
