<?xml version="1.0" encoding="utf-8"?>
<!-- Generator: Adobe Illustrator 21.0.0, SVG Export Plug-In . SVG Version: 6.00 Build 0)  -->
<svg version="1.1" id="Capa_1" xmlns="http://www.w3.org/2000/svg" xmlns:xlink="http://www.w3.org/1999/xlink" x="0px" y="0px"
	 viewBox="0 0 1319 1952" style="enable-background:new 0 0 1319 1952;" xml:space="preserve">
<style type="text/css">
	.st0{fill:#D0D2F7;}
	.st1{fill:#BDB3DE;}
	.st2{fill:none;stroke:#FFF8CC;stroke-width:35;stroke-linecap:round;stroke-linejoin:round;stroke-miterlimit:10;}
	.st3{fill:#FFE594;stroke:#643527;stroke-width:8;stroke-miterlimit:10;}
</style>
<g>
	<g>
		<rect x="-1" y="2.5" class="st0" width="121.6" height="1947"/>
		<rect x="112" y="2.5" class="st1" width="121.6" height="1947"/>
		<rect x="233.6" y="2.5" class="st0" width="121.6" height="1947"/>
		<rect x="355.2" y="2.5" class="st1" width="121.6" height="1947"/>
		<rect x="476.9" y="2.5" class="st0" width="121.6" height="1947"/>
		<rect x="598.5" y="2.5" class="st1" width="121.6" height="1947"/>
		<rect x="720.1" y="2.5" class="st0" width="121.6" height="1947"/>
		<rect x="841.8" y="2.5" class="st1" width="121.6" height="1947"/>
		<rect x="963.4" y="2.5" class="st0" width="121.6" height="1947"/>
		<rect x="1198.4" y="2.5" class="st0" width="121.6" height="1947"/>
		<rect x="1085" y="2.5" class="st1" width="121.6" height="1947"/>
	</g>
	<g>
		<g>
			<path class="st2" d="M433.2,705.5h12c15.3,0,27.3,0.5,36,1.5c8.7,1,15.7,3.1,21.1,6.2c5.4,3.1,9.6,7.7,12.6,13.8
				c1.4,3,2.2,5.1,2.4,6.4c0.3,1.3,0.4,4,0.4,8.2c0,6-0.5,10.4-1.4,13.2c-4.9,14.5-14.8,24-29.9,28.4c-3.8,1.2-8.6,1.8-14.4,1.8
				h-8.5l-0.4,2.4c0,0.1-0.1,1.6-0.4,4.3l-0.6,6.1c-0.5,4.9-1.3,8.1-2.2,9.8c-0.8,1.2-2.2,1.8-4.3,1.8l-6.9-0.4
				c-13.1-0.7-20.6-1.8-22.3-3.5c-0.8-0.8-1.2-2.4-1.2-4.7c0-4.5,0.3-10.6,0.8-18.3c0.9-12.9,1.4-26.9,1.4-42.1
				c0-12.5,0.3-20.6,0.8-24.4c0.4-4.1,1.4-6.9,3-8.5L433.2,705.5z M466.9,735c-1.6,0-2.7,0.3-3.3,0.8c-0.7,0.7-1,4.3-1,10.8
				c0,4.3,0.1,7.3,0.4,8.9c0.3,1.2,1.1,1.8,2.4,1.8l2.8-0.4c3.3-0.5,6-1.9,8.1-4.2c2.2-2.2,3.3-4.8,3.3-7.8c0-2.3-0.2-3.9-0.7-4.9
				c-0.5-0.9-1.5-1.9-2.9-2.8C473.8,735.7,470.7,735,466.9,735z"/>
			<path class="st2" d="M593.7,719.1c7.6,0,13.5,0.5,17.7,1.4c3,0.7,5.2,1.8,6.6,3.3c1.4,1.5,2.5,3.8,3.1,6.9
				c0.4,1.8,0.6,7.8,0.6,18.1c0,23.2-0.5,38.9-1.4,47.3c-0.4,4.5-1,7.5-1.8,9.1c-0.8,1.6-2.4,2.7-4.8,3.3c-2.4,0.5-6.9,0.9-13.5,1.2
				c-1.8,0.1-4.7,0.2-8.7,0.2c-3,0-4.9-0.3-5.9-0.9c-0.9-0.6-1.9-2-2.8-4.2c-0.9-2.2-1.7-3.3-2.2-3.3c-0.5,0-2.6,0.9-6.3,2.6
				c-5.7,2.7-11.1,4.1-16.3,4.1c-5.4,0-11.1-2-17.1-6.1c-6-4.1-10.9-9.3-14.9-15.8c-4-6.5-6-13.1-6-19.9c0-3,0.3-5.3,0.8-7.1l0.6-3
				l0.4-2.2c0.4-3.1,2.8-8,7.1-14.6c6.6-10.3,15.1-16.7,25.4-19.1c2-0.4,4.1-0.6,6.3-0.6c7.6,0,13.9,1.9,18.9,5.7
				c1.4,0.9,2.4,1.4,3,1.4c0.7,0,1-0.5,1-1.4c0-0.7,0.6-1.7,1.7-3.1c1.1-1.4,2.2-2.3,3.1-2.7C589,719.2,590.7,719.1,593.7,719.1z
				 M572.2,749.6c-3.3,0-6.2,0.9-8.7,2.8c-2.6,1.9-4.3,4.5-5.3,7.7c-0.4,1.2-0.6,2.5-0.6,3.9c0,3.5,1.4,6.3,4.3,8.4
				c2.8,2.1,6.7,3.1,11.6,3.1c2.6,0,4.3-0.1,5.2-0.4c0.9-0.3,1.5-0.9,1.7-1.8c0.3-0.9,0.6-3,1-6.1c0.5-3.7,0.8-7.2,0.8-10.8
				c0-2-0.1-3.3-0.4-3.8c-0.3-0.5-1.2-1-2.8-1.7C577,750.1,574.7,749.6,572.2,749.6z"/>
			<path class="st2" d="M639.8,716.7c12.5,0,19.4,0.7,20.7,2c0.3,0.3,0.4,1.8,0.4,4.5c0,3.3-0.1,7.2-0.4,11.8
				c-0.3,4.6-0.4,9.4-0.4,14.4c0,10.6,0.8,18.1,2.3,22.7c1.6,4.5,4.6,6.8,9,6.8c3.8,0,6.7-2,8.7-5.9c2.6-4.7,3.9-15.4,4.1-31.9
				c0.4-13.7,0.9-20.8,1.4-21.3c0.7-0.7,3.5-1.4,8.3-2c4.9-0.7,9.6-1,14.2-1c3.5,0,6.4,0.2,8.5,0.5c2.2,0.3,3.6,1.1,4.3,2.1
				c1.5,2.2,2.2,12.7,2.2,31.5c0,34.7-0.5,53.3-1.6,55.9c-0.8,2-4,3-9.5,3c-2.3,0-6.8-0.3-13.4-0.8c-2.3,0-4.1-0.1-5.5-0.3
				c-1.4-0.2-2.6-0.5-3.9-0.9c-1.4-0.4-2.3-0.9-2.9-1.5c-0.6-0.6-1.2-1.6-1.7-2.9c-1.1-2.6-2.2-3.1-3.5-1.6
				c-0.8,0.9-3.4,2.3-7.7,4.1c-4.3,1.8-7.9,2.9-10.6,3.5c-1.9,0.3-3.9,0.4-6.1,0.4c-5.7,0-11-1.2-15.8-3.6c-4.9-2.4-8.5-5.6-11-9.6
				c-0.9-1.6-2.2-4.7-3.7-9.3c-1.1-4.6-1.6-10.5-1.6-17.7v-10.4c0.3-26.3,2-40.1,5.1-41.4C631.4,716.9,634.7,716.7,639.8,716.7z"/>
			<path class="st2" d="M766.8,713h3.7c3.9,0,8.4,0.5,13.3,1.5c4.9,1,9.4,2.1,13.5,3.4c4.1,1.2,6.4,2,7.1,2.4c1.4,0.9,2,2.4,2,4.5
				c0,2.2-0.6,5.4-1.8,9.5c-1.2,4.2-2.2,7.2-3,9.1c-0.7,1.5-1.7,2.2-3,2.2c-1.4,0-3.5-0.7-6.3-2c-6-2.4-10.8-3.7-14.4-3.7
				c-1.1,0-2.2,0.2-3.3,0.6c-1.1,0.4-1.6,0.9-1.6,1.6c0,0.7,0.5,1.4,1.4,2.2c1.4,1.1,5.8,2.2,13.4,3.3c6.2,0.8,11.1,2.3,14.7,4.4
				c3.6,2.1,6.5,5.4,8.8,9.9c2,3.7,3,8,3,13c0,5.8-1.5,11.4-4.6,16.8c-3,5.4-7.2,9.6-12.5,12.9c-5.8,3.4-13.1,5.1-21.9,5.1
				c-8.7,0-17.2-1.6-25.6-4.8c-8.4-3.2-15-7.3-19.9-12.5c-2-2.3-3-4-3-5.1c0-1.1,1.2-3.1,3.7-6c2.4-2.9,5-5.7,7.8-8.4
				c2.8-2.7,4.4-4.1,5-4.1c0.4,0,2.1,1.2,5.1,3.5c6,4.5,12.1,6.9,18.5,7.3h2.6c2.2,0,3.8-0.4,4.9-1.3c1.1-0.9,1.6-2,1.6-3.4
				c0-1.8-1.2-3.3-3.5-4.6c-2.3-1.3-6.2-2.3-11.8-3.1c-14.2-2.3-23.4-7.8-27.6-16.5c-1.4-2.6-2-5.5-2-8.7c0-3.8,1.1-7.7,3.3-11.7
				c2.2-4,5.1-7.5,8.8-10.5c3.7-3,7.8-5,12.3-6.1C758.5,713.3,762.3,713,766.8,713z"/>
			<path class="st2" d="M869.4,711.2h2.6c5.6,0.3,10,1.2,13.2,2.8c3.3,1.6,7.2,4.8,12,9.5c7.3,7.3,12,15.2,14,23.6
				c0.7,3.4,1,6.2,1,8.5c0,8.3-1.4,12.9-4.1,14h-33.7c-10.7,0-16,0.1-16,0.2c0,1.6,1.6,3.4,4.7,5.2c3.1,1.8,6.8,3.2,11,4.2
				c2.3,0.4,4.4,0.6,6.3,0.6c3.1,0,7.2-0.8,12.4-2.4c3.9-1.1,6.4-1.6,7.5-1.6c1.4,0,2.4,0.4,3.3,1.2c0.9,1.4,2.4,3.9,4.3,7.5
				c1.9,3.7,2.8,6.2,2.8,7.7c0,3-2.5,5.9-7.5,8.7c-4.9,3-10,5.1-15.3,6.3c-5.4,1.2-11.7,1.8-19,1.8c-8.9,0-15.8-0.8-20.7-2.4
				c-4.9-1.6-10.1-5.1-15.6-10.6c-5.6-5.4-9.3-10.7-11.4-15.8c-2-5.1-3-11.2-3-18.1c0-7.6,1.1-14.5,3.4-20.7
				c2.2-6.2,6.5-12,12.7-17.3c6.5-5.7,14.8-9.7,24.8-12C862.2,711.5,865.7,711.2,869.4,711.2z M868.8,738.8c-3,0-5.6,0.9-7.8,2.6
				c-2.2,1.8-3.4,4-3.6,6.7l-0.2,2.4l10,0.6l8.3,0.4h1c0.5,0,0.9-0.1,1-0.2h0.4h0.4c0.5-0.1,0.8-0.9,0.8-2.4c0-1.8-0.4-3.5-1.2-5.1
				C876.2,740.5,873.1,738.8,868.8,738.8z"/>
		</g>
	</g>
	<g>
		<g>
			<path class="st3" d="M431.2,705.5h12c15.3,0,27.3,0.5,36,1.5c8.7,1,15.7,3.1,21.1,6.2c5.4,3.1,9.6,7.7,12.6,13.8
				c1.4,3,2.2,5.1,2.4,6.4c0.3,1.3,0.4,4,0.4,8.2c0,6-0.5,10.4-1.4,13.2c-4.9,14.5-14.8,24-29.9,28.4c-3.8,1.2-8.6,1.8-14.4,1.8
				h-8.5l-0.4,2.4c0,0.1-0.1,1.6-0.4,4.3l-0.6,6.1c-0.5,4.9-1.3,8.1-2.2,9.8c-0.8,1.2-2.2,1.8-4.3,1.8l-6.9-0.4
				c-13.1-0.7-20.6-1.8-22.3-3.5c-0.8-0.8-1.2-2.4-1.2-4.7c0-4.5,0.3-10.6,0.8-18.3c0.9-12.9,1.4-26.9,1.4-42.1
				c0-12.5,0.3-20.6,0.8-24.4c0.4-4.1,1.4-6.9,3-8.5L431.2,705.5z M464.9,735c-1.6,0-2.7,0.3-3.3,0.8c-0.7,0.7-1,4.3-1,10.8
				c0,4.3,0.1,7.3,0.4,8.9c0.3,1.2,1.1,1.8,2.4,1.8l2.8-0.4c3.3-0.5,6-1.9,8.1-4.2c2.2-2.2,3.3-4.8,3.3-7.8c0-2.3-0.2-3.9-0.7-4.9
				c-0.5-0.9-1.5-1.9-2.9-2.8C471.8,735.7,468.7,735,464.9,735z"/>
			<path class="st3" d="M591.7,719.1c7.6,0,13.5,0.5,17.7,1.4c3,0.7,5.2,1.8,6.6,3.3c1.4,1.5,2.5,3.8,3.1,6.9
				c0.4,1.8,0.6,7.8,0.6,18.1c0,23.2-0.5,38.9-1.4,47.3c-0.4,4.5-1,7.5-1.8,9.1c-0.8,1.6-2.4,2.7-4.8,3.3c-2.4,0.5-6.9,0.9-13.5,1.2
				c-1.8,0.1-4.7,0.2-8.7,0.2c-3,0-4.9-0.3-5.9-0.9c-0.9-0.6-1.9-2-2.8-4.2c-0.9-2.2-1.7-3.3-2.2-3.3c-0.5,0-2.6,0.9-6.3,2.6
				c-5.7,2.7-11.1,4.1-16.3,4.1c-5.4,0-11.1-2-17.1-6.1c-6-4.1-10.9-9.3-14.9-15.8c-4-6.5-6-13.1-6-19.9c0-3,0.3-5.3,0.8-7.1l0.6-3
				l0.4-2.2c0.4-3.1,2.8-8,7.1-14.6c6.6-10.3,15.1-16.7,25.4-19.1c2-0.4,4.1-0.6,6.3-0.6c7.6,0,13.9,1.9,18.9,5.7
				c1.4,0.9,2.4,1.4,3,1.4c0.7,0,1-0.5,1-1.4c0-0.7,0.6-1.7,1.7-3.1c1.1-1.4,2.2-2.3,3.1-2.7C587,719.2,588.7,719.1,591.7,719.1z
				 M570.2,749.6c-3.3,0-6.2,0.9-8.7,2.8c-2.6,1.9-4.3,4.5-5.3,7.7c-0.4,1.2-0.6,2.5-0.6,3.9c0,3.5,1.4,6.3,4.3,8.4
				c2.8,2.1,6.7,3.1,11.6,3.1c2.6,0,4.3-0.1,5.2-0.4c0.9-0.3,1.5-0.9,1.7-1.8c0.3-0.9,0.6-3,1-6.1c0.5-3.7,0.8-7.2,0.8-10.8
				c0-2-0.1-3.3-0.4-3.8c-0.3-0.5-1.2-1-2.8-1.7C575,750.1,572.7,749.6,570.2,749.6z"/>
			<path class="st3" d="M637.8,716.7c12.5,0,19.4,0.7,20.7,2c0.3,0.3,0.4,1.8,0.4,4.5c0,3.3-0.1,7.2-0.4,11.8
				c-0.3,4.6-0.4,9.4-0.4,14.4c0,10.6,0.8,18.1,2.3,22.7c1.6,4.5,4.6,6.8,9,6.8c3.8,0,6.7-2,8.7-5.9c2.6-4.7,3.9-15.4,4.1-31.9
				c0.4-13.7,0.9-20.8,1.4-21.3c0.7-0.7,3.5-1.4,8.3-2c4.9-0.7,9.6-1,14.2-1c3.5,0,6.4,0.2,8.5,0.5c2.2,0.3,3.6,1.1,4.3,2.1
				c1.5,2.2,2.2,12.7,2.2,31.5c0,34.7-0.5,53.3-1.6,55.9c-0.8,2-4,3-9.5,3c-2.3,0-6.8-0.3-13.4-0.8c-2.3,0-4.1-0.1-5.5-0.3
				c-1.4-0.2-2.6-0.5-3.9-0.9c-1.4-0.4-2.3-0.9-2.9-1.5c-0.6-0.6-1.2-1.6-1.7-2.9c-1.1-2.6-2.2-3.1-3.5-1.6
				c-0.8,0.9-3.4,2.3-7.7,4.1c-4.3,1.8-7.9,2.9-10.6,3.5c-1.9,0.3-3.9,0.4-6.1,0.4c-5.7,0-11-1.2-15.8-3.6c-4.9-2.4-8.5-5.6-11-9.6
				c-0.9-1.6-2.2-4.7-3.7-9.3c-1.1-4.6-1.6-10.5-1.6-17.7v-10.4c0.3-26.3,2-40.1,5.1-41.4C629.4,716.9,632.7,716.7,637.8,716.7z"/>
			<path class="st3" d="M764.8,713h3.7c3.9,0,8.4,0.5,13.3,1.5c4.9,1,9.4,2.1,13.5,3.4c4.1,1.2,6.4,2,7.1,2.4c1.4,0.9,2,2.4,2,4.5
				c0,2.2-0.6,5.4-1.8,9.5c-1.2,4.2-2.2,7.2-3,9.1c-0.7,1.5-1.7,2.2-3,2.2c-1.4,0-3.5-0.7-6.3-2c-6-2.4-10.8-3.7-14.4-3.7
				c-1.1,0-2.2,0.2-3.3,0.6c-1.1,0.4-1.6,0.9-1.6,1.6c0,0.7,0.5,1.4,1.4,2.2c1.4,1.1,5.8,2.2,13.4,3.3c6.2,0.8,11.1,2.3,14.7,4.4
				c3.6,2.1,6.5,5.4,8.8,9.9c2,3.7,3,8,3,13c0,5.8-1.5,11.4-4.6,16.8c-3,5.4-7.2,9.6-12.5,12.9c-5.8,3.4-13.1,5.1-21.9,5.1
				c-8.7,0-17.2-1.6-25.6-4.8c-8.4-3.2-15-7.3-19.9-12.5c-2-2.3-3-4-3-5.1c0-1.1,1.2-3.1,3.7-6c2.4-2.9,5-5.7,7.8-8.4
				c2.8-2.7,4.4-4.1,5-4.1c0.4,0,2.1,1.2,5.1,3.5c6,4.5,12.1,6.9,18.5,7.3h2.6c2.2,0,3.8-0.4,4.9-1.3c1.1-0.9,1.6-2,1.6-3.4
				c0-1.8-1.2-3.3-3.5-4.6c-2.3-1.3-6.2-2.3-11.8-3.1c-14.2-2.3-23.4-7.8-27.6-16.5c-1.4-2.6-2-5.5-2-8.7c0-3.8,1.1-7.7,3.3-11.7
				c2.2-4,5.1-7.5,8.8-10.5c3.7-3,7.8-5,12.3-6.1C756.5,713.3,760.3,713,764.8,713z"/>
			<path class="st3" d="M867.4,711.2h2.6c5.6,0.3,10,1.2,13.2,2.8c3.3,1.6,7.2,4.8,12,9.5c7.3,7.3,12,15.2,14,23.6
				c0.7,3.4,1,6.2,1,8.5c0,8.3-1.4,12.9-4.1,14h-33.7c-10.7,0-16,0.1-16,0.2c0,1.6,1.6,3.4,4.7,5.2c3.1,1.8,6.8,3.2,11,4.2
				c2.3,0.4,4.4,0.6,6.3,0.6c3.1,0,7.2-0.8,12.4-2.4c3.9-1.1,6.4-1.6,7.5-1.6c1.4,0,2.4,0.4,3.3,1.2c0.9,1.4,2.4,3.9,4.3,7.5
				c1.9,3.7,2.8,6.2,2.8,7.7c0,3-2.5,5.9-7.5,8.7c-4.9,3-10,5.1-15.3,6.3c-5.4,1.2-11.7,1.8-19,1.8c-8.9,0-15.8-0.8-20.7-2.4
				c-4.9-1.6-10.1-5.1-15.6-10.6c-5.6-5.4-9.3-10.7-11.4-15.8c-2-5.1-3-11.2-3-18.1c0-7.6,1.1-14.5,3.4-20.7
				c2.2-6.2,6.5-12,12.7-17.3c6.5-5.7,14.8-9.7,24.8-12C860.2,711.5,863.7,711.2,867.4,711.2z M866.8,738.8c-3,0-5.6,0.9-7.8,2.6
				c-2.2,1.8-3.4,4-3.6,6.7l-0.2,2.4l10,0.6l8.3,0.4h1c0.5,0,0.9-0.1,1-0.2h0.4h0.4c0.5-0.1,0.8-0.9,0.8-2.4c0-1.8-0.4-3.5-1.2-5.1
				C874.2,740.5,871.1,738.8,866.8,738.8z"/>
		</g>
	</g>
</g>
</svg>
