<?xml version="1.0" encoding="utf-8"?>
<!-- Generator: Adobe Illustrator 21.0.0, SVG Export Plug-In . SVG Version: 6.00 Build 0)  -->
<svg version="1.1" id="Capa_1" xmlns="http://www.w3.org/2000/svg" xmlns:xlink="http://www.w3.org/1999/xlink" x="0px" y="0px"
	 viewBox="0 0 1319 1952" style="enable-background:new 0 0 1319 1952;" xml:space="preserve">
<style type="text/css">
	.st0{fill:#D0D2F7;}
	.st1{fill:#BDB3DE;}
	.st2{fill:none;stroke:#FFF8CC;stroke-width:35;stroke-linecap:round;stroke-linejoin:round;stroke-miterlimit:10;}
	.st3{fill:#FFE594;stroke:#643527;stroke-width:8;stroke-miterlimit:10;}
</style>
<g>
	<g>
		<rect x="-1" y="2.5" class="st0" width="121.6" height="1947"/>
		<rect x="112" y="2.5" class="st1" width="121.6" height="1947"/>
		<rect x="233.6" y="2.5" class="st0" width="121.6" height="1947"/>
		<rect x="355.2" y="2.5" class="st1" width="121.6" height="1947"/>
		<rect x="476.9" y="2.5" class="st0" width="121.6" height="1947"/>
		<rect x="598.5" y="2.5" class="st1" width="121.6" height="1947"/>
		<rect x="720.1" y="2.5" class="st0" width="121.6" height="1947"/>
		<rect x="841.8" y="2.5" class="st1" width="121.6" height="1947"/>
		<rect x="963.4" y="2.5" class="st0" width="121.6" height="1947"/>
		<rect x="1198.4" y="2.5" class="st0" width="121.6" height="1947"/>
		<rect x="1085" y="2.5" class="st1" width="121.6" height="1947"/>
	</g>
	<g>
		<g>
			<path class="st2" d="M268.8,565.1c18.1,0,31.2,3.4,39.2,10.2c1.2,1.1,1.9,1.9,2.1,2.4c0.2,0.5,0.2,1.4,0.1,2.6
				c-0.1,1.6-1.5,5.1-4.1,10.5c-2.6,5.4-4.5,8.6-5.7,9.9l-1.8,1c-0.5,0-1.8-0.5-3.9-1.4c-8.1-3.5-15.2-5.3-21.1-5.3
				c-4.7,0-9.3,1.4-13.6,4.1c-4.3,2.7-7.6,6.3-9.8,10.8c-1.5,3.3-2.2,6-2.2,8.1c0,2.2,0.1,3.7,0.2,4.5c0.3,5,1.1,8.8,2.6,11.4
				c4.6,7.3,12.6,11,24,11c4.1,0,8.7-0.7,13.8-2.2c1.6-0.4,2.4-1.6,2.4-3.5c0-1.5-0.3-2.5-0.8-3c-0.7-0.3-3.3-0.7-7.9-1.2
				c-4.9-0.3-8.1-1-9.7-2.1c-1.6-1.1-2.3-3.5-2.3-7c0-2.3,0.1-3.9,0.2-4.7c0.7-5.3,2-8.3,4.1-9.1c1.6-0.5,9-0.8,22.1-0.8
				c12.9,0,20,0.3,21.5,0.8c0.7,0.1,1.6,0.9,2.6,2.4c0.4,0.8,1,6.5,1.8,17c0.8,10.5,1.2,18.1,1.2,22.9c0,1.8-0.1,2.7-0.2,2.8
				c-0.5,2.4-3.1,5-7.8,7.8c-4.7,2.8-10.4,5.2-17.2,7.2c-6.8,2-13.5,3.2-20.3,3.5h-4.1c-12.1,0-23-2.5-32.7-7.4
				c-9.8-4.9-17.7-12.1-24-21.4c-2.8-4.2-4.7-7.8-5.6-10.9c-0.9-3-1.3-7.3-1.3-12.7c0-16.3,4.5-29.2,13.4-38.9
				c8.9-9.7,20.8-15.8,35.6-18.4C261.8,565.3,264.8,565.1,268.8,565.1z"/>
			<path class="st2" d="M398.8,584.8c7.6,0,13.5,0.5,17.7,1.4c3,0.7,5.2,1.8,6.6,3.3c1.4,1.5,2.5,3.8,3.1,6.9
				c0.4,1.8,0.6,7.8,0.6,18.1c0,23.2-0.5,38.9-1.4,47.3c-0.4,4.5-1,7.5-1.8,9.1c-0.8,1.6-2.4,2.7-4.8,3.3c-2.4,0.5-6.9,0.9-13.5,1.2
				c-1.8,0.1-4.7,0.2-8.7,0.2c-3,0-4.9-0.3-5.9-0.9c-0.9-0.6-1.9-2-2.8-4.2c-0.9-2.2-1.7-3.3-2.2-3.3c-0.5,0-2.6,0.9-6.3,2.6
				c-5.7,2.7-11.1,4.1-16.3,4.1c-5.4,0-11.1-2-17.1-6.1c-6-4.1-10.9-9.3-14.9-15.8c-4-6.5-6-13.1-6-19.9c0-3,0.3-5.3,0.8-7.1l0.6-3
				l0.4-2.2c0.4-3.1,2.8-8,7.1-14.6c6.6-10.3,15.1-16.7,25.4-19.1c2-0.4,4.1-0.6,6.3-0.6c7.6,0,13.9,1.9,18.9,5.7
				c1.4,0.9,2.4,1.4,3,1.4c0.7,0,1-0.5,1-1.4c0-0.7,0.6-1.7,1.7-3.1c1.1-1.4,2.2-2.3,3.1-2.7C394,585,395.8,584.8,398.8,584.8z
				 M377.2,615.3c-3.3,0-6.2,0.9-8.7,2.8c-2.6,1.9-4.3,4.5-5.3,7.7c-0.4,1.2-0.6,2.5-0.6,3.9c0,3.5,1.4,6.3,4.3,8.4
				c2.8,2.1,6.7,3.1,11.6,3.1c2.6,0,4.3-0.1,5.2-0.4c0.9-0.3,1.5-0.9,1.7-1.8c0.3-0.9,0.6-3,1-6.1c0.5-3.7,0.8-7.2,0.8-10.8
				c0-2-0.1-3.3-0.4-3.8c-0.3-0.5-1.2-1-2.8-1.7C382,615.8,379.8,615.3,377.2,615.3z"/>
			<path class="st2" d="M550.7,583.2c3.5,0,7.6,1.2,12.2,3.6c4.6,2.4,8.3,5.6,11,9.6c2.7,4.1,4.8,10.1,6.3,18.1
				c1.2,6.8,2.2,17.9,2.8,33.3c0.1,1.5,0.2,4.5,0.2,8.9c0,8.5-1.3,14.1-3.9,16.7l-2.2,2.2l-16-0.4l-12.4,0.2c-2,0-3.4-0.3-4.2-0.8
				c-0.7-0.5-1.2-1.6-1.4-3.1c-0.2-1.6-0.3-4.4-0.3-8.6c0-4.3-0.1-8-0.2-11c-0.4-14.1-1.1-23.3-2-27.6c-0.9-4.5-2.8-7-5.7-7.7
				c-0.3-0.1-0.8-0.2-1.6-0.2c-2.2,0-4.2,0.8-6.2,2.3c-2,1.6-3.4,3.6-4.4,6c-0.9,2.7-1.4,8.9-1.4,18.7c0,5.4,0.3,10.8,0.8,16
				l0.8,8.7c0,2-0.6,3.4-1.8,4.1c-1.1,0.4-4.1,0.7-8.9,1c-1.2,0.1-2.6,0.2-4.1,0.2l-11.6,0.4c-3.7,0-5.8-0.6-6.5-1.8
				c-0.7-2-2.2-15.1-4.7-39.2c-0.5-4.7-1.2-8.7-2-11.8c-0.5-2.2-1.6-3.3-3-3.3c-0.9,0-2.4,0.5-4.3,1.6c-3.3,1.9-5.4,5.1-6.3,9.5
				c-1.4,4.7-2.1,12.9-2.2,24.4c0,3.4-0.1,5.8-0.2,7.1c-0.1,6.9-0.6,11-1.4,12.2c-0.8,1.2-2.8,1.8-6.1,1.8c-3.3,0-6,0.1-8.3,0.2
				l-10.2,0.4c-5.4,0-8.7-1.1-10-3.5c-1.5-3.4-2.2-23.4-2.2-59.9l-0.2-15.2c0-3.8,0.5-6.4,1.4-7.8c0.9-1.4,2.7-2.3,5.4-2.6
				c2.6-0.3,7.5-0.5,14.7-0.5c7.3,0,11.9,0.4,13.8,1.2c2,0.9,3,2.6,3,4.9c0,0.9,0.3,1.4,0.8,1.4c0.5,0,2-0.8,4.5-2.4
				c6.8-4.3,14.2-6.5,22.3-6.5c10.6,0,18.5,3.2,23.8,9.5l2.6,3.3l4.5-3.7c5-4.1,10.6-7,16.9-8.9
				C544.9,583.6,547.6,583.2,550.7,583.2z"/>
			<path class="st2" d="M638.3,576.9h2.6c5.6,0.3,10,1.2,13.2,2.8c3.3,1.6,7.2,4.8,12,9.5c7.3,7.3,12,15.2,14,23.6
				c0.7,3.4,1,6.2,1,8.5c0,8.3-1.4,12.9-4.1,14h-33.7c-10.7,0-16,0.1-16,0.2c0,1.6,1.6,3.4,4.7,5.2c3.1,1.8,6.8,3.2,11,4.2
				c2.3,0.4,4.4,0.6,6.3,0.6c3.1,0,7.2-0.8,12.4-2.4c3.9-1.1,6.4-1.6,7.5-1.6c1.4,0,2.4,0.4,3.3,1.2c0.9,1.4,2.4,3.9,4.3,7.5
				c1.9,3.7,2.8,6.2,2.8,7.7c0,3-2.5,5.9-7.5,8.7c-4.9,3-10,5.1-15.3,6.3c-5.4,1.2-11.7,1.8-19,1.8c-8.9,0-15.8-0.8-20.7-2.4
				c-4.9-1.6-10.1-5.1-15.6-10.6c-5.6-5.4-9.3-10.7-11.4-15.8c-2-5.1-3-11.2-3-18.1c0-7.6,1.1-14.5,3.4-20.7
				c2.2-6.2,6.5-12,12.7-17.3c6.5-5.7,14.8-9.7,24.8-12C631.1,577.3,634.6,576.9,638.3,576.9z M637.7,604.5c-3,0-5.6,0.9-7.8,2.6
				c-2.2,1.8-3.4,4-3.6,6.7l-0.2,2.4l10,0.6l8.3,0.4h1c0.5,0,0.9-0.1,1-0.2h0.4h0.4c0.5-0.1,0.8-0.9,0.8-2.4c0-1.8-0.4-3.5-1.2-5.1
				C645.1,606.2,642,604.5,637.7,604.5z"/>
			<path class="st2" d="M778.3,581c4.6,0,9.1,0.3,13.4,1c10.2,1.9,18.8,5.9,26,12c7.2,6.1,11.6,13.2,13.2,21.3
				c0.4,1.8,0.6,4.1,0.6,6.9c0,8.3-1.3,15.5-3.8,21.8c-2.5,6.3-6.6,12.2-12.3,17.8c-5.3,5.1-10.7,8.7-16.3,10.7
				c-5.6,2-11.3,2.9-17.3,2.9c-10.4,0-19.9-2.5-28.4-7.5c-8.5-5-15.2-11.2-20-18.7c-4.8-7.4-7.2-14.6-7.2-21.3c0-2.2,0.3-5.4,1-9.8
				c4.5-21.8,16.9-33.9,37.4-36.4C769.5,581.2,774.1,581,778.3,581z M779.9,613.3c-1.9,0-3.5,0.5-4.9,1.4c-4.9,3-7.3,7.2-7.3,12.8
				c0,2,0.5,4.3,1.6,6.9c2.4,5,6.3,7.5,11.6,7.5c2.8,0,5.3-0.9,7.3-2.7c2-1.8,3.3-4.2,3.7-7c0.1-0.4,0.2-1.2,0.2-2.4
				c0-3.3-0.7-6.4-2.2-9.3c-1.5-3-3.3-5-5.5-6.1C782.7,613.6,781.2,613.3,779.9,613.3z"/>
			<path class="st2" d="M910.3,583.2c1.6,0,5.3,0.8,11,2.5c5.7,1.7,9.5,3.1,11.4,4.2c1.9,1.2,2.8,2.9,2.8,5.1c0,2.2-1.5,6.5-4.5,13
				l-2.6,6.1c-2.8,6.2-4.7,10.5-5.5,12.8c-3.3,8-7.5,17.3-12.6,28c-5.1,10.7-8.3,16.7-9.3,17.9c-1.1,0.9-2.1,1.6-3,1.8
				c-1.1,0.3-3.6,0.5-7.5,0.6h-3c-12.3,0-20-1.1-23.2-3.5c-1.1-0.8-4.1-6.9-9-18.4c-4.9-11.4-9.5-23-13.8-34.7
				c-4.3-11.7-6.4-19.3-6.4-22.9c0-2,1.6-3.9,4.9-5.6c3.3-1.7,7-3.1,11.3-4.2c4.3-1.1,7.6-1.6,10.1-1.6c1.2,0,2.2,0.1,3,0.4
				c1.8,0.5,3.4,2.5,4.9,5.9c1.1,2.6,3.7,10.4,7.7,23.6c3.3,10.7,5,16.2,5.3,16.5l0.6-0.8c0.9-1.2,2-3.1,3-5.7
				c1.9-4.2,5.8-11.7,11.8-22.6c6-10.8,9.3-16.7,10.2-17.5C908.3,583.6,909.2,583.2,910.3,583.2z"/>
			<path class="st2" d="M986.9,576.9h2.6c5.6,0.3,10,1.2,13.2,2.8c3.3,1.6,7.2,4.8,12,9.5c7.3,7.3,12,15.2,14,23.6
				c0.7,3.4,1,6.2,1,8.5c0,8.3-1.4,12.9-4.1,14H992c-10.7,0-16,0.1-16,0.2c0,1.6,1.6,3.4,4.7,5.2c3.1,1.8,6.8,3.2,11,4.2
				c2.3,0.4,4.4,0.6,6.3,0.6c3.1,0,7.2-0.8,12.4-2.4c3.9-1.1,6.4-1.6,7.5-1.6c1.4,0,2.4,0.4,3.3,1.2c0.9,1.4,2.4,3.9,4.3,7.5
				c1.9,3.7,2.8,6.2,2.8,7.7c0,3-2.5,5.9-7.5,8.7c-4.9,3-10,5.1-15.3,6.3c-5.4,1.2-11.7,1.8-19,1.8c-8.9,0-15.8-0.8-20.7-2.4
				c-4.9-1.6-10.1-5.1-15.6-10.6c-5.6-5.4-9.3-10.7-11.4-15.8c-2-5.1-3-11.2-3-18.1c0-7.6,1.1-14.5,3.4-20.7
				c2.2-6.2,6.5-12,12.7-17.3c6.5-5.7,14.8-9.7,24.8-12C979.7,577.3,983.2,576.9,986.9,576.9z M986.3,604.5c-3,0-5.6,0.9-7.8,2.6
				c-2.2,1.8-3.4,4-3.6,6.7l-0.2,2.4l10,0.6l8.3,0.4h1c0.5,0,0.9-0.1,1-0.2h0.4h0.4c0.5-0.1,0.8-0.9,0.8-2.4c0-1.8-0.4-3.5-1.2-5.1
				C993.7,606.2,990.6,604.5,986.3,604.5z"/>
			<path class="st2" d="M1040.1,583.4c1.2-0.8,4.1-1.2,8.7-1.2c4.7,0,9.2,0.3,13.5,1c4.3,0.7,6.8,1.6,7.6,2.6c0.9,1.1,1.4,2,1.4,2.8
				c0,0.1,0.1,0.2,0.4,0.2c0.8,0,2.7-0.7,5.7-2.2c5.7-2.8,10.8-4.3,15.4-4.3c4.7,0,9.6,1.4,14.6,4.1c5,2.7,7.5,5.6,7.5,8.5
				c0,1.6-1.2,4.9-3.5,9.9c-2.3,4.9-4.3,8.7-6.1,11.3c-1.4,2-2.8,3-4.3,3c-0.5,0-2-0.3-4.5-1c-2.4-0.8-4.7-1.2-6.9-1.2
				c-4.6,0-8.3,1.8-11.2,5.5c-4.9,6.2-7.3,19.8-7.3,40.6v2.8c0,3-0.2,5.1-0.5,6.3c-0.3,1.2-1.2,2-2.4,2.4c-1.3,0.4-3.4,0.6-6.4,0.6
				l-3.5-0.2h-4.5c-9.5-0.3-14.9-0.9-16.3-1.8c-1.6-1.1-2.5-2.2-2.6-3.5c-0.4-1.5-0.6-6.6-0.6-15.2c0-13.1,0.3-27.4,0.9-42.7
				c0.6-15.3,1.3-23.8,1.9-25.4C1038.2,585.1,1039,584.1,1040.1,583.4z"/>
		</g>
	</g>
	<g>
		<g>
			<path class="st3" d="M268.8,565.1c18.1,0,31.2,3.4,39.2,10.2c1.2,1.1,1.9,1.9,2.1,2.4c0.2,0.5,0.2,1.4,0.1,2.6
				c-0.1,1.6-1.5,5.1-4.1,10.5c-2.6,5.4-4.5,8.6-5.7,9.9l-1.8,1c-0.5,0-1.8-0.5-3.9-1.4c-8.1-3.5-15.2-5.3-21.1-5.3
				c-4.7,0-9.3,1.4-13.6,4.1c-4.3,2.7-7.6,6.3-9.8,10.8c-1.5,3.3-2.2,6-2.2,8.1c0,2.2,0.1,3.7,0.2,4.5c0.3,5,1.1,8.8,2.6,11.4
				c4.6,7.3,12.6,11,24,11c4.1,0,8.7-0.7,13.8-2.2c1.6-0.4,2.4-1.6,2.4-3.5c0-1.5-0.3-2.5-0.8-3c-0.7-0.3-3.3-0.7-7.9-1.2
				c-4.9-0.3-8.1-1-9.7-2.1c-1.6-1.1-2.3-3.5-2.3-7c0-2.3,0.1-3.9,0.2-4.7c0.7-5.3,2-8.3,4.1-9.1c1.6-0.5,9-0.8,22.1-0.8
				c12.9,0,20,0.3,21.5,0.8c0.7,0.1,1.6,0.9,2.6,2.4c0.4,0.8,1,6.5,1.8,17c0.8,10.5,1.2,18.1,1.2,22.9c0,1.8-0.1,2.7-0.2,2.8
				c-0.5,2.4-3.1,5-7.8,7.8c-4.7,2.8-10.4,5.2-17.2,7.2c-6.8,2-13.5,3.2-20.3,3.5h-4.1c-12.1,0-23-2.5-32.7-7.4
				c-9.8-4.9-17.7-12.1-24-21.4c-2.8-4.2-4.7-7.8-5.6-10.9c-0.9-3-1.3-7.3-1.3-12.7c0-16.3,4.5-29.2,13.4-38.9
				c8.9-9.7,20.8-15.8,35.6-18.4C261.8,565.3,264.8,565.1,268.8,565.1z"/>
			<path class="st3" d="M398.8,584.8c7.6,0,13.5,0.5,17.7,1.4c3,0.7,5.2,1.8,6.6,3.3c1.4,1.5,2.5,3.8,3.1,6.9
				c0.4,1.8,0.6,7.8,0.6,18.1c0,23.2-0.5,38.9-1.4,47.3c-0.4,4.5-1,7.5-1.8,9.1c-0.8,1.6-2.4,2.7-4.8,3.3c-2.4,0.5-6.9,0.9-13.5,1.2
				c-1.8,0.1-4.7,0.2-8.7,0.2c-3,0-4.9-0.3-5.9-0.9c-0.9-0.6-1.9-2-2.8-4.2c-0.9-2.2-1.7-3.3-2.2-3.3c-0.5,0-2.6,0.9-6.3,2.6
				c-5.7,2.7-11.1,4.1-16.3,4.1c-5.4,0-11.1-2-17.1-6.1c-6-4.1-10.9-9.3-14.9-15.8c-4-6.5-6-13.1-6-19.9c0-3,0.3-5.3,0.8-7.1l0.6-3
				l0.4-2.2c0.4-3.1,2.8-8,7.1-14.6c6.6-10.3,15.1-16.7,25.4-19.1c2-0.4,4.1-0.6,6.3-0.6c7.6,0,13.9,1.9,18.9,5.7
				c1.4,0.9,2.4,1.4,3,1.4c0.7,0,1-0.5,1-1.4c0-0.7,0.6-1.7,1.7-3.1c1.1-1.4,2.2-2.3,3.1-2.7C394,585,395.8,584.8,398.8,584.8z
				 M377.2,615.3c-3.3,0-6.2,0.9-8.7,2.8c-2.6,1.9-4.3,4.5-5.3,7.7c-0.4,1.2-0.6,2.5-0.6,3.9c0,3.5,1.4,6.3,4.3,8.4
				c2.8,2.1,6.7,3.1,11.6,3.1c2.6,0,4.3-0.1,5.2-0.4c0.9-0.3,1.5-0.9,1.7-1.8c0.3-0.9,0.6-3,1-6.1c0.5-3.7,0.8-7.2,0.8-10.8
				c0-2-0.1-3.3-0.4-3.8c-0.3-0.5-1.2-1-2.8-1.7C382,615.8,379.8,615.3,377.2,615.3z"/>
			<path class="st3" d="M550.7,583.2c3.5,0,7.6,1.2,12.2,3.6c4.6,2.4,8.3,5.6,11,9.6c2.7,4.1,4.8,10.1,6.3,18.1
				c1.2,6.8,2.2,17.9,2.8,33.3c0.1,1.5,0.2,4.5,0.2,8.9c0,8.5-1.3,14.1-3.9,16.7l-2.2,2.2l-16-0.4l-12.4,0.2c-2,0-3.4-0.3-4.2-0.8
				c-0.7-0.5-1.2-1.6-1.4-3.1c-0.2-1.6-0.3-4.4-0.3-8.6c0-4.3-0.1-8-0.2-11c-0.4-14.1-1.1-23.3-2-27.6c-0.9-4.5-2.8-7-5.7-7.7
				c-0.3-0.1-0.8-0.2-1.6-0.2c-2.2,0-4.2,0.8-6.2,2.3c-2,1.6-3.4,3.6-4.4,6c-0.9,2.7-1.4,8.9-1.4,18.7c0,5.4,0.3,10.8,0.8,16
				l0.8,8.7c0,2-0.6,3.4-1.8,4.1c-1.1,0.4-4.1,0.7-8.9,1c-1.2,0.1-2.6,0.2-4.1,0.2l-11.6,0.4c-3.7,0-5.8-0.6-6.5-1.8
				c-0.7-2-2.2-15.1-4.7-39.2c-0.5-4.7-1.2-8.7-2-11.8c-0.5-2.2-1.6-3.3-3-3.3c-0.9,0-2.4,0.5-4.3,1.6c-3.3,1.9-5.4,5.1-6.3,9.5
				c-1.4,4.7-2.1,12.9-2.2,24.4c0,3.4-0.1,5.8-0.2,7.1c-0.1,6.9-0.6,11-1.4,12.2c-0.8,1.2-2.8,1.8-6.1,1.8c-3.3,0-6,0.1-8.3,0.2
				l-10.2,0.4c-5.4,0-8.7-1.1-10-3.5c-1.5-3.4-2.2-23.4-2.2-59.9l-0.2-15.2c0-3.8,0.5-6.4,1.4-7.8c0.9-1.4,2.7-2.3,5.4-2.6
				c2.6-0.3,7.5-0.5,14.7-0.5c7.3,0,11.9,0.4,13.8,1.2c2,0.9,3,2.6,3,4.9c0,0.9,0.3,1.4,0.8,1.4c0.5,0,2-0.8,4.5-2.4
				c6.8-4.3,14.2-6.5,22.3-6.5c10.6,0,18.5,3.2,23.8,9.5l2.6,3.3l4.5-3.7c5-4.1,10.6-7,16.9-8.9
				C544.9,583.6,547.6,583.2,550.7,583.2z"/>
			<path class="st3" d="M638.3,576.9h2.6c5.6,0.3,10,1.2,13.2,2.8c3.3,1.6,7.2,4.8,12,9.5c7.3,7.3,12,15.2,14,23.6
				c0.7,3.4,1,6.2,1,8.5c0,8.3-1.4,12.9-4.1,14h-33.7c-10.7,0-16,0.1-16,0.2c0,1.6,1.6,3.4,4.7,5.2c3.1,1.8,6.8,3.2,11,4.2
				c2.3,0.4,4.4,0.6,6.3,0.6c3.1,0,7.2-0.8,12.4-2.4c3.9-1.1,6.4-1.6,7.5-1.6c1.4,0,2.4,0.4,3.3,1.2c0.9,1.4,2.4,3.9,4.3,7.5
				c1.9,3.7,2.8,6.2,2.8,7.7c0,3-2.5,5.9-7.5,8.7c-4.9,3-10,5.1-15.3,6.3c-5.4,1.2-11.7,1.8-19,1.8c-8.9,0-15.8-0.8-20.7-2.4
				c-4.9-1.6-10.1-5.1-15.6-10.6c-5.6-5.4-9.3-10.7-11.4-15.8c-2-5.1-3-11.2-3-18.1c0-7.6,1.1-14.5,3.4-20.7
				c2.2-6.2,6.5-12,12.7-17.3c6.5-5.7,14.8-9.7,24.8-12C631.1,577.3,634.6,576.9,638.3,576.9z M637.7,604.5c-3,0-5.6,0.9-7.8,2.6
				c-2.2,1.8-3.4,4-3.6,6.7l-0.2,2.4l10,0.6l8.3,0.4h1c0.5,0,0.9-0.1,1-0.2h0.4h0.4c0.5-0.1,0.8-0.9,0.8-2.4c0-1.8-0.4-3.5-1.2-5.1
				C645.1,606.2,642,604.5,637.7,604.5z"/>
			<path class="st3" d="M778.3,581c4.6,0,9.1,0.3,13.4,1c10.2,1.9,18.8,5.9,26,12c7.2,6.1,11.6,13.2,13.2,21.3
				c0.4,1.8,0.6,4.1,0.6,6.9c0,8.3-1.3,15.5-3.8,21.8c-2.5,6.3-6.6,12.2-12.3,17.8c-5.3,5.1-10.7,8.7-16.3,10.7
				c-5.6,2-11.3,2.9-17.3,2.9c-10.4,0-19.9-2.5-28.4-7.5c-8.5-5-15.2-11.2-20-18.7c-4.8-7.4-7.2-14.6-7.2-21.3c0-2.2,0.3-5.4,1-9.8
				c4.5-21.8,16.9-33.9,37.4-36.4C769.5,581.2,774.1,581,778.3,581z M779.9,613.3c-1.9,0-3.5,0.5-4.9,1.4c-4.9,3-7.3,7.2-7.3,12.8
				c0,2,0.5,4.3,1.6,6.9c2.4,5,6.3,7.5,11.6,7.5c2.8,0,5.3-0.9,7.3-2.7c2-1.8,3.3-4.2,3.7-7c0.1-0.4,0.2-1.2,0.2-2.4
				c0-3.3-0.7-6.4-2.2-9.3c-1.5-3-3.3-5-5.5-6.1C782.7,613.6,781.2,613.3,779.9,613.3z"/>
			<path class="st3" d="M910.3,583.2c1.6,0,5.3,0.8,11,2.5c5.7,1.7,9.5,3.1,11.4,4.2c1.9,1.2,2.8,2.9,2.8,5.1c0,2.2-1.5,6.5-4.5,13
				l-2.6,6.1c-2.8,6.2-4.7,10.5-5.5,12.8c-3.3,8-7.5,17.3-12.6,28c-5.1,10.7-8.3,16.7-9.3,17.9c-1.1,0.9-2.1,1.6-3,1.8
				c-1.1,0.3-3.6,0.5-7.5,0.6h-3c-12.3,0-20-1.1-23.2-3.5c-1.1-0.8-4.1-6.9-9-18.4c-4.9-11.4-9.5-23-13.8-34.7
				c-4.3-11.7-6.4-19.3-6.4-22.9c0-2,1.6-3.9,4.9-5.6c3.3-1.7,7-3.1,11.3-4.2c4.3-1.1,7.6-1.6,10.1-1.6c1.2,0,2.2,0.1,3,0.4
				c1.8,0.5,3.4,2.5,4.9,5.9c1.1,2.6,3.7,10.4,7.7,23.6c3.3,10.7,5,16.2,5.3,16.5l0.6-0.8c0.9-1.2,2-3.1,3-5.7
				c1.9-4.2,5.8-11.7,11.8-22.6c6-10.8,9.3-16.7,10.2-17.5C908.3,583.6,909.2,583.2,910.3,583.2z"/>
			<path class="st3" d="M986.9,576.9h2.6c5.6,0.3,10,1.2,13.2,2.8c3.3,1.6,7.2,4.8,12,9.5c7.3,7.3,12,15.2,14,23.6
				c0.7,3.4,1,6.2,1,8.5c0,8.3-1.4,12.9-4.1,14H992c-10.7,0-16,0.1-16,0.2c0,1.6,1.6,3.4,4.7,5.2c3.1,1.8,6.8,3.2,11,4.2
				c2.3,0.4,4.4,0.6,6.3,0.6c3.1,0,7.2-0.8,12.4-2.4c3.9-1.1,6.4-1.6,7.5-1.6c1.4,0,2.4,0.4,3.3,1.2c0.9,1.4,2.4,3.9,4.3,7.5
				c1.9,3.7,2.8,6.2,2.8,7.7c0,3-2.5,5.9-7.5,8.7c-4.9,3-10,5.1-15.3,6.3c-5.4,1.2-11.7,1.8-19,1.8c-8.9,0-15.8-0.8-20.7-2.4
				c-4.9-1.6-10.1-5.1-15.6-10.6c-5.6-5.4-9.3-10.7-11.4-15.8c-2-5.1-3-11.2-3-18.1c0-7.6,1.1-14.5,3.4-20.7
				c2.2-6.2,6.5-12,12.7-17.3c6.5-5.7,14.8-9.7,24.8-12C979.7,577.3,983.2,576.9,986.9,576.9z M986.3,604.5c-3,0-5.6,0.9-7.8,2.6
				c-2.2,1.8-3.4,4-3.6,6.7l-0.2,2.4l10,0.6l8.3,0.4h1c0.5,0,0.9-0.1,1-0.2h0.4h0.4c0.5-0.1,0.8-0.9,0.8-2.4c0-1.8-0.4-3.5-1.2-5.1
				C993.7,606.2,990.6,604.5,986.3,604.5z"/>
			<path class="st3" d="M1040.1,583.4c1.2-0.8,4.1-1.2,8.7-1.2c4.7,0,9.2,0.3,13.5,1c4.3,0.7,6.8,1.6,7.6,2.6c0.9,1.1,1.4,2,1.4,2.8
				c0,0.1,0.1,0.2,0.4,0.2c0.8,0,2.7-0.7,5.7-2.2c5.7-2.8,10.8-4.3,15.4-4.3c4.7,0,9.6,1.4,14.6,4.1c5,2.7,7.5,5.6,7.5,8.5
				c0,1.6-1.2,4.9-3.5,9.9c-2.3,4.9-4.3,8.7-6.1,11.3c-1.4,2-2.8,3-4.3,3c-0.5,0-2-0.3-4.5-1c-2.4-0.8-4.7-1.2-6.9-1.2
				c-4.6,0-8.3,1.8-11.2,5.5c-4.9,6.2-7.3,19.8-7.3,40.6v2.8c0,3-0.2,5.1-0.5,6.3c-0.3,1.2-1.2,2-2.4,2.4c-1.3,0.4-3.4,0.6-6.4,0.6
				l-3.5-0.2h-4.5c-9.5-0.3-14.9-0.9-16.3-1.8c-1.6-1.1-2.5-2.2-2.6-3.5c-0.4-1.5-0.6-6.6-0.6-15.2c0-13.1,0.3-27.4,0.9-42.7
				c0.6-15.3,1.3-23.8,1.9-25.4C1038.2,585.1,1039,584.1,1040.1,583.4z"/>
		</g>
	</g>
</g>
</svg>
