<svg width="75" height="74" xmlns="http://www.w3.org/2000/svg">
 <style type="text/css">.st0{fill:#BCF7B7;}
	.st1{fill:#FFEBDF;stroke:#643527;stroke-width:5;stroke-miterlimit:10;}
	.st2{fill:#FFFFFF;stroke:#643527;stroke-width:5;stroke-miterlimit:10;}
	.st3{fill:#9DB1CC;}
	.st4{fill:#DDA0B0;}
	.st5{fill:#056D6D;stroke:#643627;stroke-width:5;stroke-miterlimit:10;}
	.st6{fill:none;stroke:#044747;stroke-width:6;stroke-miterlimit:10;}
	.st7{fill:none;stroke:#F46C6C;stroke-width:8;stroke-linecap:round;stroke-linejoin:round;stroke-miterlimit:10;}
	.st8{fill:#FFEBDF;stroke:#643627;stroke-width:5;stroke-miterlimit:10;}
	.st9{fill:#04757B;stroke:#643527;stroke-width:5;stroke-miterlimit:10;}
	.st10{fill:#FFEBDF;stroke:#643527;stroke-miterlimit:10;}
	.st11{fill:#DADCDB;}
	.st12{fill:#FF726E;}
	.st13{fill:none;stroke:#643627;stroke-width:5;stroke-miterlimit:10;}
	.st14{fill:#F7CC43;}
	.st15{fill:#BECDEC;}
	.st16{fill:#FF726E;stroke:#643627;stroke-width:5;stroke-miterlimit:10;}
	.st17{fill:none;stroke:#049BA2;stroke-width:8;stroke-miterlimit:10;}
	.st18{fill:#DAD96D;stroke:#643527;stroke-width:5;stroke-miterlimit:10;}
	.st19{fill:#4DA45F;}
	.st20{fill:#F7CA3D;}
	.st21{fill:none;stroke:#643527;stroke-width:5;stroke-miterlimit:10;}
	.st22{fill:#5FB2E6;stroke:#643527;stroke-width:5;stroke-miterlimit:10;}
	.st23{fill:#F6F5F0;}
	.st24{fill:#110E0E;stroke:#643527;stroke-width:5;stroke-miterlimit:10;}
	.st25{fill:#110E0E;stroke:#FFFFFF;stroke-miterlimit:10;}
	.st26{fill:#D4D2D3;}
	.st27{fill:#196F30;stroke:#643527;stroke-width:5;stroke-miterlimit:10;}
	.st28{fill:#F4E9E4;stroke:#643527;stroke-width:5;stroke-miterlimit:10;}
	.st29{fill:#FF952F;stroke:#643527;stroke-width:5;stroke-miterlimit:10;}
	.st30{fill:#F7CC43;stroke:#643527;stroke-width:5;stroke-miterlimit:10;}
	.st31{fill:#C9162C;stroke:#643527;stroke-width:5;stroke-miterlimit:10;}
	.st32{fill:#8D971C;stroke:#643527;stroke-width:5;stroke-miterlimit:10;}
	.st33{fill:#FAE0A5;stroke:#643527;stroke-width:5;stroke-miterlimit:10;}
	.st34{fill:#C02425;stroke:#643527;stroke-width:5;stroke-miterlimit:10;}
	.st35{fill:#429F4F;stroke:#643527;stroke-width:5;stroke-miterlimit:10;}
	.st36{fill:#AEC539;stroke:#643527;stroke-width:5;stroke-miterlimit:10;}
	.st37{fill:#6E9D01;}
	.st38{fill:#FFFFFF;stroke:#643527;stroke-width:13;stroke-miterlimit:10;}
	.st39{fill:#132144;stroke:#FFFFFF;stroke-width:3;stroke-miterlimit:10;}
	.st40{fill:#E9D000;stroke:#643527;stroke-width:5;stroke-miterlimit:10;}
	.st41{fill:#FFFFFF;}
	.st42{fill:#643527;stroke:#FFF8CC;stroke-width:5;stroke-linecap:round;stroke-linejoin:round;stroke-miterlimit:10;}
	.st43{fill:#AFAFAF;stroke:#424242;stroke-width:5;stroke-miterlimit:10;}
	.st44{fill:#7E7E7E;}
	.st45{fill:#FFFFFF;stroke:#424242;stroke-width:13;stroke-miterlimit:10;}
	.st46{fill:#FFFFFF;stroke:#424242;stroke-width:5;stroke-miterlimit:10;}
	.st47{fill:#212121;stroke:#FFFFFF;stroke-width:3;stroke-miterlimit:10;}
	.st48{fill:#C1C1C1;stroke:#424242;stroke-width:5;stroke-miterlimit:10;}
	.st49{fill:#CDCDCD;stroke:#424242;stroke-width:5;stroke-miterlimit:10;}
	.st50{fill:#828282;}
	.st51{fill:#C8C8C8;}
	.st52{fill:none;stroke:#424242;stroke-width:5;stroke-miterlimit:10;}
	.st53{fill:#9F9F9F;stroke:#424242;stroke-width:5;stroke-miterlimit:10;}
	.st54{fill:#F5F5F5;}
	.st55{fill:#0F0F0F;stroke:#424242;stroke-width:5;stroke-miterlimit:10;}
	.st56{fill:#0F0F0F;stroke:#FFFFFF;stroke-miterlimit:10;}
	.st57{fill:#D3D3D3;}
	.st58{fill:#4E4E4E;stroke:#424242;stroke-width:5;stroke-miterlimit:10;}
	.st59{fill:#ECECEC;stroke:#424242;stroke-width:5;stroke-miterlimit:10;}
	.st60{fill:#AAAAAA;stroke:#424242;stroke-width:5;stroke-miterlimit:10;}
	.st61{fill:#CACACA;stroke:#424242;stroke-width:5;stroke-miterlimit:10;}
	.st62{fill:#868686;stroke:#424242;stroke-width:5;stroke-miterlimit:10;}
	.st63{fill:#E1E1E1;stroke:#424242;stroke-width:5;stroke-miterlimit:10;}
	.st64{fill:#535353;stroke:#424242;stroke-width:5;stroke-miterlimit:10;}
	.st65{fill:#7A7A7A;stroke:#424242;stroke-width:5;stroke-miterlimit:10;}</style>

 <g>
  <title>background</title>
  <rect fill="none" id="canvas_background" height="76" width="77" y="-1" x="-1"/>
 </g>
 <g>
  <title>Layer 1</title>
  <g id="svg_2">
   <path id="svg_3" d="m-783.8,396.9c0.2,-13.9 0.1,-27.8 0.1,-41.8l-3.3,0l-74.6,0l-3.1,0c-0.2,4.9 -0.7,94.4 -0.4,99.2c0.5,9.2 -0.1,18.4 0.2,27.6c0,1.4 0,2.6 -0.3,3.5l3.6,0l74.3,-84.6l3.8,0c-0.2,-1 -0.3,-2.3 -0.3,-3.9z" class="st1"/>
   <path id="svg_4" d="m-819.4,310.7c-4.2,-7 -13,-8.7 -20.3,-3.5c-2.5,1.8 -4,2 -6.7,0.5c-5.7,-3.1 -11,-1.8 -14.9,3.6c-3.6,4.9 -3.1,11 1.9,15.2c2,1.7 3.1,3.3 3.1,5.5l4.2,0l18.9,0c0.1,-0.5 0.1,-1 0.1,-1.6c0,-0.3 0,-0.5 0.1,-0.7c-0.1,0.2 -0.1,0.4 -0.1,0.7c0,0.6 0,1.1 -0.1,1.6l4.7,0c1,-0.6 2.5,-0.8 3.4,-1.4c7.7,-4.7 10.1,-12.6 5.7,-19.9zm-13.3,18.5c0.3,-0.3 0.7,-0.5 1.2,-0.6c-0.5,0.1 -0.9,0.3 -1.2,0.6z" class="st2"/>
   <path id="svg_5" d="m-823.6,196.8c-1.6,-2 -1.6,-3.3 -0.1,-5.4c5.9,-8.8 5.7,-18.3 -0.1,-25.5c-6,-7.5 -16.9,-10.5 -26.2,-7.3c-2.5,0.9 -4.4,3 -6.8,-1c-5.4,-9.1 -14.7,-12.5 -24.9,-10.2c-9.6,2.1 -15.8,9.3 -17.2,20.5c0.1,2.7 -0.1,4.9 -4.6,5.6c-9.8,1.6 -16.1,9.6 -16.4,19.3c-0.3,10.5 6.4,20.4 16,22.3c4.6,0.9 5.9,1.9 5.2,7.1c-1.6,11.8 5.8,21.3 17.8,24.4c13.1,3.3 23.5,-0.9 28.3,-12.1c1.4,-3.3 2.3,-4.8 6.5,-3.9c9.2,2 17.5,0.1 23,-8.3c5.7,-8.4 6.2,-17.2 -0.5,-25.5z" class="st2"/>
   <path id="svg_6" d="m-871.7,279.5c-1.6,-6.3 -5.8,-11.1 -12.3,-10.8c-6.3,0.3 -7.6,-2.2 -8.9,-7.4c-1.9,-7.9 -9.1,-12.5 -16.9,-12.2c-11,0.4 -16.7,5.6 -17.9,16.9c-0.4,3.4 -1.4,5.3 -4.7,6.9c-7.8,3.8 -11.5,14.5 -8.7,23.2c2.8,8.8 11.7,14.5 20.8,13.3c2.8,-0.4 5.3,-2.3 6.8,2.7c2.9,9.4 10.8,12.6 21,9.6c9.1,-2.7 14.2,-10.5 11.8,-19.5c-1.2,-4.4 -1.8,-6.6 3.4,-8.8c5.5,-2.3 7.1,-8 5.6,-13.9z" class="st2"/>
   <path id="svg_7" d="m-824.9,327.7c-13,0 -26,0.2 -38.9,-0.1c-4.9,-0.1 -6.6,1.8 -6.6,8.1c0,20.4 -0.2,20.4 16.2,20.5c22.8,0 45.7,-0.2 68.5,0.1c5.7,0.1 8,-2.3 7.8,-9.4c-0.1,-3.8 -0.3,-7.5 0.2,-11.5c0.6,-4.5 -1.4,-8 -6.4,-7.9c-13.6,0.4 -27.2,0.1 -40.8,0.2c0,-0.1 0,-0.1 0,0z" class="st1"/>
   <polygon id="svg_8" points="-833.5,413.9 -810.4,413.9 -809.1,392.8 -833.5,392.8  " class="st3"/>
   <rect id="svg_9" height="26.3" width="44.6" class="st4" y="417.7" x="-857.5"/>
   <polygon id="svg_10" points="-589.1,362.9 -454.9,371.1 -442,465.5 -515,465.5  " class="st1"/>
   <polygon id="svg_11" points="-589.1,362.9 -454.9,371.1 -441.4,451.4 -466.7,455.4  " class="st5"/>
   <line id="svg_12" y2="397.4" x2="-453.8" y1="399.1" x1="-521.6" class="st6"/>
   <line id="svg_13" y2="425" x2="-445.6" y1="426.6" x1="-513.3" class="st6"/>
   <polyline id="svg_14" points="-455.9,370.7 -441.8,451.5 -452.5,453.2  " class="st7"/>
   <path id="svg_15" d="m-446.6,509.4c-29.1,-32.4 -147.4,-143.4 -186.3,-176.6c-15.4,-13.1 -37.5,-22.6 -53.4,-9.7c-8.8,7.4 -112.3,99.7 -185.4,179.5l10.7,207.4c0,6.2 6.2,11.3 13.7,11.3l376.6,0c7.5,0 13.7,-5.1 13.7,-11.3l10.4,-200.6z" class="st8"/>
   <path id="svg_16" d="m-377.1,503.2c-0.8,0 -1.5,-0.1 -2.3,-0.2l-69.6,-13.2c-2.6,-0.5 -5,-1.9 -6.8,-3.9c-1.3,-1.5 -130.4,-145.5 -180.6,-181.6c-20.5,-14.7 -29.3,-13.1 -45.2,-0.8c-9.1,7 -113.8,113.7 -182,183.7c-1.8,1.8 -4.1,3.1 -6.6,3.5l-68.5,12.2c-6.6,1.2 -13,-3.2 -14.2,-9.9c-1.2,-6.6 3.2,-13 9.9,-14.2l64.6,-11.5c26.9,-27.6 169.2,-173.4 181.8,-183.1c13.3,-10.3 24.5,-14.9 36.1,-14.9c0,0 0,0 0.1,0c11.8,0 23.6,4.7 38.2,15.2c48.8,35 162.1,160.1 181.8,182l65.5,12.4c6.6,1.3 11,7.6 9.7,14.3c-1,5.9 -6.1,10 -11.9,10z" class="st9"/>
   <path id="svg_17" d="m-870.1,483.8c0.3,-0.4 0.7,-0.8 1,-1.1c-0.3,0.4 -0.6,0.8 -1,1.1z" class="st10"/>
   <path id="svg_18" d="m-467.5,479l-174.4,-172.3c-9.6,-4 -19.2,-6 -28.3,-5.7l-188.4,186.2c-4.1,0 -7.9,1.5 -10.4,4c-0.3,0.4 -0.7,0.8 -1,1.1c-1.4,1.8 2,3.9 2,6.2l1.6,31.3c73.1,-79.8 171.3,-190.9 180.2,-198.3c15.9,-12.9 38,-3.4 53.4,9.7c38.9,33.2 151.9,164 181.1,196.4l2.7,-34.2c-4.9,-5.3 -9.1,-13.8 -18.5,-24.4z" class="st11"/>
   <path id="svg_19" d="m-560,719.3c7.5,-125 -3.3,-193.3 -36,-228.2c-15.8,-16.8 -36.2,-25.4 -60.6,-25.4l-0.2,0c-24.7,0 -46.3,9.8 -62.7,28.5c-24.3,27.8 -37.4,75.6 -38.9,142.1c-0.8,37.9 2.4,70.8 3.8,83.1l194.6,0l0,-0.1z" class="st12"/>
   <path id="svg_20" d="m-730.2,721.1c0,0 -31,-231.8 73.6,-231.6c68.3,0.1 81.5,88.3 72.5,231.6" class="st13"/>
   <ellipse id="svg_21" ry="17.1" rx="11.5" cy="606.6" cx="-703.7" class="st14"/>
   <rect id="svg_22" height="31.6" width="40.6" class="st3" y="639.9" x="-814.1"/>
   <rect id="svg_23" height="31.6" width="50.3" class="st15" y="678.3" x="-823.7"/>
   <rect id="svg_24" height="26.3" width="44.6" class="st3" y="683.6" x="-536.2"/>
   <rect id="svg_25" height="6.1" width="12.7" class="st3" y="670.9" x="-507.5"/>
   <rect id="svg_26" height="6.1" width="12.7" class="st3" y="628.6" x="-814.8"/>
   <rect id="svg_27" height="26.3" width="44.6" class="st4" y="589.6" x="-536.2"/>
   <rect id="svg_28" height="6.1" width="12.7" class="st4" y="576.9" x="-507.5"/>
   <rect id="svg_29" height="6.1" width="12.7" class="st3" y="541.2" x="-550.8"/>
   <path id="svg_30" d="m-778.1,408.8c-16.3,16.7 -33.2,34 -49.5,50.7l337.6,0c-13.9,-14.8 -30.8,-32.6 -48.3,-50.7l-239.8,0z" class="st16"/>
   <path id="svg_31" d="m-362.9,490.9c-0.5,-5.9 -5.8,-10.3 -11.7,-9.8l-67.7,6.1c-5.4,-5.8 -16.1,-17.4 -29.9,-32.1c-10.5,-11.2 -22.8,-24.2 -35.9,-37.9c-40.8,-42.7 -89,-91.8 -114.2,-112.3c-25.6,-20.9 -46.8,-21.1 -73.3,-0.7c-7.7,5.9 -64,63.2 -112.6,113c-12.9,13.2 -25.2,25.9 -36,37c-14.3,14.7 -25.8,26.6 -32.1,33.1l-67.9,-6.1c-5.9,-0.5 -11.2,3.8 -11.7,9.8c-0.5,5.9 3.8,11.2 9.8,11.7l73,6.6c0.3,0 0.6,0 1,0c2.9,0 5.7,-1.2 7.8,-3.3c11.5,-11.9 24,-24.8 37,-38.1c16.3,-16.7 33.2,-34.1 49.5,-50.7c47.7,-48.8 90.1,-91.7 95.7,-95.9c18.3,-14.2 28.7,-14.1 46.4,0.3c21.4,17.4 61,57.4 97.9,95.6c17.5,18.2 34.3,35.9 48.3,50.7c20.6,21.9 34.9,37.4 35.3,37.9c2.3,2.5 5.6,3.7 8.9,3.4l73,-6.6c5.6,-0.5 9.9,-5.7 9.4,-11.7z" class="st16"/>
   <ellipse id="svg_32" ry="28.2" rx="20.2" cy="357.1" cx="-657.9" class="st17"/>
   <polygon id="svg_33" points="-481.8,672.1 -458.6,672.1 -457.3,645.8 -481.8,645.8  " class="st3"/>
   <polygon id="svg_34" points="-481.8,704 -460.3,704 -458.9,677.7 -481.8,677.7  " class="st15"/>
   <polygon id="svg_35" points="-834.4,678.3 -857.7,678.3 -856.1,709.9 -834.4,709.9  " class="st4"/>
   <polygon id="svg_36" points="-841,578.3 -862.9,578.3 -861.6,604.6 -841,604.6  " class="st15"/>
   <rect id="svg_37" height="6.1" width="12.7" class="st4" y="540.3" x="-799.7"/>
   <rect id="svg_38" height="6.1" width="12.7" class="st3" y="523.4" x="-814.8"/>
   <polygon id="svg_39" points="-843.4,365.5 -861.1,365.5 -860.7,391.8 -843.4,391.8  " class="st15"/>
  </g>
  <g id="svg_40">
   <path id="svg_41" d="m-905.8,1045.2c6.2,-21.9 27.6,-29 52.9,-29l346.1,0c25.4,0 46.8,7.3 52.9,29.3l0.1,3.5l2.5,107.1c3.5,2.4 13.5,6.9 14.4,6.9c0,0 25.8,13.9 25.4,45.9l0,12.5l0,33.9c0.3,11.6 -19.1,39.6 -36.7,43.5l-412,0c-26.7,-3.3 -47.5,-24.8 -47.5,-50.7l0,-26.7l0,-163.2c0.1,-4.5 0.7,-8.9 1.9,-13z" class="st18"/>
   <path id="svg_42" d="m-905.8,1245.3l0,-26.7l492.5,0.9l0,33.9c0.3,11.6 -17.2,38.7 -34.8,42.6l-411.1,0c-28.4,-2.2 -46.6,-24.8 -46.6,-50.7z" class="st19"/>
   <rect id="svg_43" height="17.3" width="492.5" class="st20" transform="matrix(-1,-4.489354e-11,4.489354e-11,-1,-1319.0952,2420.9971) " y="1201.9" x="-905.8"/>
   <path id="svg_44" d="m-624.8,1272.8l72.5,0c8.1,0 14.7,-6.6 14.7,-14.7l0,-180c0,-8.1 -6.6,-14.7 -14.7,-14.7l-72.5,0c-8.1,0 -14.7,6.6 -14.7,14.7l0,180c0,8.1 6.7,14.7 14.7,14.7z" class="st21"/>
   <path id="svg_45" d="m-497.9,1059.9l3.8,0l41.1,0c0.8,3.3 1.2,6.8 1.2,10.4l0,32.2l0,53.1c0.2,0.2 0.4,0.3 0.6,0.5l-27.3,0l-19.3,0c-3.9,0 -7.1,-3.6 -7.1,-8.1l0,-51.6l0,-28.4c-0.1,-4.5 3.1,-8.1 7,-8.1z" class="st22"/>
   <path id="svg_46" d="m-497.4,1061.5l3.6,0l39.8,38.8l0,53.7c0.2,0.2 0.9,0 0.9,0l-50.3,-58.7l0,-26.3c0.1,-4.1 2.3,-7.5 6,-7.5z" class="st23"/>
   <g id="svg_47">
    <circle id="svg_48" r="48.2" cy="1287.4" cx="-487.9" class="st24"/>
    <circle id="svg_49" r="40.4" cy="1287.4" cx="-487.9" class="st23"/>
    <circle id="svg_50" r="37.2" cy="1287.4" cx="-487.9" class="st25"/>
    <circle id="svg_51" r="28.7" cy="1287.4" cx="-487.9" class="st26"/>
   </g>
   <g id="svg_52">
    <circle id="svg_53" r="48.2" cy="1287.4" cx="-824.8" class="st24"/>
    <circle id="svg_54" r="40.4" cy="1287.4" cx="-824.8" class="st23"/>
    <circle id="svg_55" r="37.2" cy="1287.4" cx="-824.8" class="st25"/>
    <circle id="svg_56" r="28.7" cy="1287.4" cx="-824.8" class="st26"/>
   </g>
   <g id="svg_57">
    <path id="svg_58" d="m-886.7,1078l0,89.6c0,9 6.4,16.4 14.1,16.4l206.1,0c7.8,0 14.1,-7.4 14.1,-16.4l0,-89.6c0,-1 -0.1,-1.9 -0.2,-2.9c-1.2,-7.7 -7,-13.5 -13.9,-13.5l-206.1,0c-6.3,0 -11.7,4.8 -13.5,11.5c-0.3,1.6 -0.6,3.2 -0.6,4.9z" class="st27"/>
    <g id="svg_59">
     <path id="svg_60" d="m-690.7,1062l22.4,0c8.1,0 14.9,6.9 16.3,15.8c-2.3,10.5 -10,18.2 -19.2,18.2c-9.7,0 -17.7,-8.6 -19.5,-19.9c0,0 0,-0.1 0,-0.1c-0.1,-0.2 0,-13.5 0,-14z" class="st28"/>
     <path id="svg_61" d="m-848.1,1062l-22.4,0c-8.1,0 -14.9,6.9 -16.3,15.8c2.3,10.5 10,18.2 19.2,18.2c9.7,0 17.7,-8.6 19.5,-19.9c0,0 0,-0.1 0,-0.1c0.1,-0.2 0,-13.5 0,-14z" class="st29"/>
     <path id="svg_62" d="m-713.5,1062l3,0l0,0l3,0l16.7,0c0,0 0,0 0,0c0,0.4 -0.1,13.8 -0.1,14c0,0 0,0.1 0,0.1c-1.6,9.7 -7.6,17.3 -15.4,19.4c0,0 0,0 0,0c-0.3,0.1 -0.5,0.1 -0.8,0.2c0,0 -0.1,0 -0.1,0c-0.2,0.1 -0.5,0.1 -0.7,0.1c0,0 -0.1,0 -0.1,0c-0.2,0 -0.5,0.1 -0.7,0.1c-0.1,0 -0.2,0 -0.2,0c-0.2,0 -0.4,0 -0.6,0c-0.2,0 -0.4,0 -0.6,0c-0.1,0 -0.2,0 -0.3,0c0,0 0,0 0,0l0,0c0,0 0,0 -0.1,0c0,0 0,0 -0.1,0c0,0 0,0 0,0l0,0c-0.1,0 -0.2,0 -0.3,0c-0.2,0 -0.4,0 -0.6,0c-0.2,0 -0.4,0 -0.6,0c-0.1,0 -0.2,0 -0.2,0c-0.2,0 -0.5,-0.1 -0.7,-0.1c0,0 -0.1,0 -0.1,0c-0.2,0 -0.5,-0.1 -0.7,-0.1c0,0 -0.1,0 -0.1,0c-0.3,-0.1 -0.5,-0.1 -0.8,-0.2c0,0 0,0 0,0c-7.8,-2.1 -13.9,-9.7 -15.4,-19.5c0,-0.2 -0.1,-14 -0.1,-14l16.7,0z" class="st29"/>
     <path id="svg_63" d="m-752.8,1062l3,0l0,0l3,0l16.7,0c0,0 0,0 0,0c0,0.4 -0.1,13.8 -0.1,14c0,0 0,0.1 0,0.1c-1.6,9.7 -7.6,17.3 -15.4,19.4c0,0 0,0 0,0c-0.3,0.1 -0.5,0.1 -0.8,0.2c0,0 -0.1,0 -0.1,0c-0.2,0.1 -0.5,0.1 -0.7,0.1c0,0 -0.1,0 -0.1,0c-0.2,0 -0.5,0.1 -0.7,0.1c-0.1,0 -0.2,0 -0.2,0c-0.2,0 -0.4,0 -0.6,0c-0.2,0 -0.4,0 -0.6,0c-0.1,0 -0.2,0 -0.3,0l0,0l0,0c0,0 0,0 -0.1,0c0,0 0,0 -0.1,0l0,0c0,0 0,0 0,0c-0.1,0 -0.2,0 -0.3,0c-0.2,0 -0.4,0 -0.6,0c-0.2,0 -0.4,0 -0.6,0c-0.1,0 -0.2,0 -0.2,0c-0.2,0 -0.5,-0.1 -0.7,-0.1c0,0 -0.1,0 -0.1,0c-0.2,0 -0.5,-0.1 -0.7,-0.1c0,0 -0.1,0 -0.1,0c-0.3,-0.1 -0.5,-0.1 -0.8,-0.2c0,0 0,0 0,0c-7.8,-2.1 -13.9,-9.7 -15.4,-19.5c0,-0.2 -0.1,-14 -0.1,-14l16.7,0z" class="st28"/>
     <path id="svg_64" d="m-792.1,1062l3,0l0,0l3,0l16.7,0c0,0 0,0 0,0c0,0.4 -0.1,13.8 -0.1,14c0,0 0,0.1 0,0.1c-1.6,9.7 -7.6,17.3 -15.4,19.4c0,0 0,0 0,0c-0.3,0.1 -0.5,0.1 -0.8,0.2c0,0 -0.1,0 -0.1,0c-0.2,0.1 -0.5,0.1 -0.7,0.1c0,0 -0.1,0 -0.1,0c-0.2,0 -0.5,0.1 -0.7,0.1c-0.1,0 -0.2,0 -0.2,0c-0.2,0 -0.4,0 -0.6,0c-0.2,0 -0.4,0 -0.6,0c-0.1,0 -0.2,0 -0.3,0l0,0c0,0 0,0 0,0c0,0 0,0 -0.1,0c0,0 0,0 -0.1,0l0,0c0,0 0,0 0,0c-0.1,0 -0.2,0 -0.3,0c-0.2,0 -0.4,0 -0.6,0c-0.2,0 -0.4,0 -0.6,0c-0.1,0 -0.2,0 -0.2,0c-0.2,0 -0.5,-0.1 -0.7,-0.1c0,0 -0.1,0 -0.1,0c-0.2,0 -0.5,-0.1 -0.7,-0.1c0,0 -0.1,0 -0.1,0c-0.3,-0.1 -0.5,-0.1 -0.8,-0.2c0,0 0,0 0,0c-7.8,-2.1 -13.9,-9.7 -15.4,-19.5c0,-0.2 -0.1,-14 -0.1,-14l16.7,0z" class="st29"/>
     <path id="svg_65" d="m-831.4,1062l3,0l0,0l3,0l16.7,0c0,0 0,0 0,0c0,0.4 -0.1,13.8 -0.1,14c0,0 0,0.1 0,0.1c-1.6,9.7 -7.6,17.3 -15.4,19.4c0,0 0,0 0,0c-0.3,0.1 -0.5,0.1 -0.8,0.2c0,0 -0.1,0 -0.1,0c-0.2,0.1 -0.5,0.1 -0.7,0.1c0,0 -0.1,0 -0.1,0c-0.2,0 -0.5,0.1 -0.7,0.1c-0.1,0 -0.2,0 -0.2,0c-0.2,0 -0.4,0 -0.6,0c-0.2,0 -0.4,0 -0.6,0c-0.1,0 -0.2,0 -0.3,0c0,0 0,0 0,0l0,0c0,0 0,0 -0.1,0c0,0 0,0 -0.1,0c0,0 0,0 0,0l0,0c-0.1,0 -0.2,0 -0.3,0c-0.2,0 -0.4,0 -0.6,0c-0.2,0 -0.4,0 -0.6,0c-0.1,0 -0.2,0 -0.2,0c-0.2,0 -0.5,-0.1 -0.7,-0.1c0,0 -0.1,0 -0.1,0c-0.2,0 -0.5,-0.1 -0.7,-0.1c0,0 -0.1,0 -0.1,0c-0.3,-0.1 -0.5,-0.1 -0.8,-0.2c0,0 0,0 0,0c-7.8,-2.1 -13.9,-9.7 -15.4,-19.5c0,-0.2 -0.1,-14 -0.1,-14l16.7,0z" class="st28"/>
    </g>
   </g>
   <path id="svg_66" d="m-612.5,1079.6l18.2,0l31.2,0c5.8,0 10.6,4.5 10.6,9.9l0,28.6l0,11.8c0,5.4 -4.8,9.9 -10.6,9.9l-12.5,0l-36.9,0c-5.8,0 -10.6,-4.5 -10.6,-9.9l0,-32.5l0,-8c0,-5.3 4.7,-9.8 10.6,-9.8z" class="st22"/>
   <path id="svg_67" d="m-620.9,1090.8c0,-5.1 4.5,-9.3 9.9,-9.3l17.1,0l39.1,36.1l0,11.1c0,5.1 -4.5,9.3 -9.9,9.3l-11.7,0l-44.5,-39.7l0,-7.5z" class="st23"/>
   <path id="svg_68" d="m-904,1046.1c6.2,-21.9 27.5,-29 52.6,-29l344.4,0c25.2,0 44.8,7.3 50.9,29.3l0.1,3.5l-448,0l0,-3.8z" class="st20"/>
   <g id="svg_69">
    <path id="svg_70" d="m-547.4,962.3c3.1,-28.5 -20.4,-56.6 -4.1,-84.1c4.4,4.4 8.7,8.7 13.1,13.1c-9.2,5.3 -18.3,11.2 -27.8,16c-5,2.5 -10.8,3.6 -15.9,0.6c-4.5,-2.7 -6.6,-7.1 -8.4,-11.7c-8,-19.8 -15.7,-39.9 -23.6,-59.8c4.7,1.9 -20.3,19.8 -38.1,11.2c-10.7,-5.1 -20.9,-18 -32.5,-18c3.1,-4 6.1,-8.1 9.2,-12.1c2.8,7.4 5.6,14.9 8.5,22.3c2.2,5.8 -3.4,12.3 -9.2,12.1c-11.9,-0.4 -23.9,-0.8 -35.8,-1.3c-5.6,-0.2 -11.1,-0.4 -16.7,-0.6c-1.4,0 -3.4,0.7 -1.3,-1.1c1.8,-1.4 0.4,-1.4 0.8,0.4c0.3,1.3 -0.3,3.3 -0.6,4.5c-3.2,12.3 -16.5,13 -27.1,12.8c-11.3,-0.2 -27,-7.8 -23.9,-8.6c0.7,-0.9 0,0 0,0.6c-0.1,-1 -0.1,2 -0.1,2.4c0,2.4 0.4,4.3 0.7,6.5c0.8,5.7 1.5,11.4 0,17c-2.9,11.3 -13,16.2 -23.3,19.1c-4.1,1.1 -7.9,1.8 -11,3.9c-2.5,1.7 -3.8,4.6 -4.2,7.5c-1.2,9.3 2.8,19.3 6.8,27.6c2.2,4.6 1.3,10.3 -3.4,13.1c-4.2,2.4 -10.8,1.2 -13.1,-3.4c-5.3,-11.1 -10.2,-23.6 -9.5,-36.1c0.7,-13.1 7.7,-23.2 19.9,-28.1c4.6,-1.8 9.4,-2.8 14.1,-4.3c3.2,-1 5,-1.8 5.5,-5.5c0.6,-4.3 -1.2,-10.5 -1.5,-15.6c-0.5,-7 1.3,-12.8 5.6,-18.3c1.9,-2.4 6.4,-3.5 9.3,-2.5c9.6,3.5 19.5,5.5 29.8,5.5c2.3,0 6,-1 8.2,-0.4c1,0.2 2.2,-1.8 -0.1,1c-1.9,2.3 -0.9,1.3 -1.1,-0.2c-0.7,-5.3 2.9,-11.5 7.3,-14.2c8.3,-5.2 20.5,-2.6 29.8,-2.3c11.6,0.4 23.3,0.8 34.9,1.2c-3.1,4 -6.1,8.1 -9.2,12.1c-2.8,-7.4 -5.6,-14.9 -8.5,-22.3c-2.3,-6 3.5,-12.1 9.2,-12.1c14.4,-0.1 24.4,9.3 35.6,16.8c5.4,3.6 10.5,6 17.1,5.5c7.8,-0.5 15.3,-4.1 22.3,-7.3c6,-2.8 11.6,-0.4 14,5.7c4.4,11.1 8.7,22.1 13.1,33.2c2.1,5.3 4.1,10.5 6.2,15.8c1.1,2.8 2.2,5.5 3.3,8.3c0.3,0.8 0.8,1.9 1,2.5c0.2,0.4 0.4,0.7 0.6,1.1c-1.4,-1 -1.4,-1.1 0,-0.4c-1.6,-0.4 -3.2,-0.9 -4.8,-1.3c3.1,0.4 -0.6,0.7 0.9,-0.1c1.3,-0.6 2.5,-1.4 3.7,-2.1c2.6,-1.5 5.2,-3 7.8,-4.5c5.2,-3 10.4,-6 15.6,-9c8.2,-4.7 18,4.8 13.1,13.1c-6,10.2 -2.6,22.3 0.3,33.3c3.6,13.4 7.9,27.2 6.4,41.2c-0.6,5.1 -4,9.6 -9.6,9.6c-4.5,0.3 -9.9,-4.1 -9.3,-9.3l0,0z" class="st30"/>
    <path id="svg_71" d="m-505.9,947.8c-5.5,7.3 -11.7,13.4 -19.3,18.6c-4.7,3.2 -12.3,1 -14.9,-3.9c-2.9,-5.5 -1.1,-11.5 3.9,-14.9c0.7,-0.5 1.4,-1 2.1,-1.4c1.4,-0.9 -1.1,1 0.2,-0.1c1.3,-1.1 2.6,-2.2 3.8,-3.4c1.1,-1.1 2.2,-2.2 3.2,-3.3c0.5,-0.5 0.9,-1 1.3,-1.5c0.1,-0.1 2.1,-2.7 0.8,-1c3.4,-4.6 9.6,-7.4 14.9,-3.9c4.5,2.7 7.6,9.9 4,14.8l0,0z" class="st31"/>
    <path id="svg_72" d="m-539,908.6c-1.1,-0.7 -2.2,-1.4 -3.3,-2.1c-0.3,-0.2 -3.3,-1.6 -2.2,-1.1c1.1,0.5 -2,-0.7 -2.3,-0.8c-1.2,-0.4 -2.5,-0.6 -3.7,-0.9c-5.6,-1.1 -9.4,-8.1 -7.6,-13.4c1.9,-6 7.4,-8.8 13.4,-7.6c5.9,1.2 11.7,3.6 16.7,7c4.7,3.2 7.3,9.8 3.9,14.9c-3,4.7 -9.8,7.4 -14.9,4l0,0z" class="st31"/>
    <path id="svg_73" d="m-593,862.4c1.9,-4.7 1.8,-6.2 -0.1,-10.7c-2.2,-5.3 2.4,-12.2 7.6,-13.4c6.4,-1.4 11.1,2 13.4,7.6c2.8,6.9 2.9,15.4 0.1,22.4c-2.1,5.3 -7.4,9.6 -13.4,7.6c-5.1,-1.7 -9.9,-7.8 -7.6,-13.5l0,0z" class="st31"/>
    <path id="svg_74" d="m-618.9,850.2c-0.6,-0.3 -2.7,-1.1 -0.9,-0.5c-1,-0.4 -2.1,-0.7 -3.2,-1c-0.3,-0.1 -3.2,-0.7 -1.8,-0.5c0.8,0.1 0.7,0.1 -0.4,0c-0.6,-0.1 -1.3,-0.1 -1.9,-0.1c-5.7,-0.2 -11.2,-4.9 -10.9,-10.9c0.3,-5.7 4.8,-11.2 10.9,-10.9c6.8,0.3 13.1,2 19.2,5.1c5.1,2.6 7,10.2 3.9,14.9c-3.3,5.2 -9.4,6.7 -14.9,3.9l0,0z" class="st31"/>
    <path id="svg_75" d="m-648.8,822.9c-5.1,1.7 -10.2,3.4 -15.2,5.1c-5.4,1.8 -12.2,-2.1 -13.4,-7.6c-1.4,-6 1.8,-11.5 7.6,-13.4c5.1,-1.7 10.2,-3.4 15.2,-5.1c5.4,-1.8 12.2,2.1 13.4,7.6c1.4,6 -1.8,11.4 -7.6,13.4l0,0z" class="st31"/>
    <path id="svg_76" d="m-708.2,841.7c-3.8,-3.2 -8.4,-5.3 -13.7,-6.6c-5.7,-1.4 -9.2,-7.9 -7.6,-13.4c1.6,-5.9 7.7,-9 13.4,-7.6c8.8,2.1 16.4,6.4 23.3,12.2c4.5,3.8 3.9,11.5 0,15.4c-4.4,4.5 -10.9,3.8 -15.4,0l0,0z" class="st31"/>
    <path id="svg_77" d="m-777.3,865.2c-0.2,-10 2,-19.4 6.2,-28.4c2.5,-5.3 10.2,-6.7 14.9,-3.9c5.5,3.2 6.4,9.6 3.9,14.9c-2.6,5.5 -3.4,11.4 -3.3,17.4c0.5,14.1 -21.4,14.1 -21.7,0l0,0z" class="st31"/>
    <path id="svg_78" d="m-803.3,917.6c-11.3,2 -22.1,6.4 -31.1,13.6c-4.6,3.7 -11,4.5 -15.4,0c-3.8,-3.8 -4.6,-11.7 0,-15.4c12,-9.6 25.6,-16.5 40.8,-19.3c5.8,-1 11.8,1.6 13.4,7.6c1.4,5.3 -1.9,12.4 -7.7,13.5l0,0z" class="st31"/>
    <path id="svg_79" d="m-850.6,965.2c0.3,3.3 -0.1,0 -0.3,-0.8c-0.1,-0.4 -0.4,-1.9 -0.7,-2.1c0.6,1.4 0.7,1.7 0.4,0.9c-0.2,-0.3 -0.3,-0.7 -0.5,-1c-0.3,-0.6 -2.3,-3.2 -0.3,-0.8c-1.9,-2.4 -3.2,-4.6 -3.2,-7.7c0,-2.7 1.2,-5.9 3.2,-7.7c4,-3.6 11.6,-4.8 15.4,0c4.6,5.8 7.1,11.8 7.9,19.2c0.6,5.7 -5.5,11.2 -10.9,10.9c-6.5,-0.3 -10.4,-4.8 -11,-10.9l0,0z" class="st31"/>
    <path id="svg_80" d="m-536.8,979.6c-5.6,-9 -5.8,-19.5 -4.7,-29.7c0.4,-4.1 1,-8.2 0.8,-12.4c0,-1 -0.1,-2 -0.2,-3c0.1,0.7 0.5,1.8 -0.1,-0.3c-0.2,-0.7 -0.4,-1.5 -0.6,-2.3c-0.5,-1.4 -0.5,-1.5 0,-0.2c-0.2,-0.3 -0.3,-0.7 -0.5,-1c-0.2,-0.3 -0.4,-0.6 -0.6,-0.9c0.8,0.9 0.9,1 0.3,0.4c-0.8,-1.4 -1.8,-0.5 -0.3,-0.4c0,0 -2.3,-0.6 -0.2,-0.1c1.8,0.4 -0.8,-0.1 -1.3,-0.1c-4.8,-0.2 -9.6,0 -14.2,-1.7c-11.1,-4 -15.1,-14.8 -15,-25.8c0,-2.1 0.2,-4.2 0.2,-6.3c0,-0.8 0,-1.7 0,-2.5c0,-3.9 0.1,1.3 -0.1,-1c0,-0.6 -1.1,-2.9 0,-0.8c-0.3,-0.6 -0.7,-1.2 -1,-1.8c1.2,2 0.5,0.4 0,0.1c-2.5,-1.2 1.6,0.6 -0.7,-0.6c-0.8,-0.4 -1.5,-0.9 -2.3,-1.2c-1.7,-0.8 2.6,0.6 -0.5,-0.1c-1.6,-0.4 -3.2,-0.9 -4.9,-1.2c-0.6,-0.1 -3.1,-0.3 -0.7,-0.1c-0.8,-0.1 -1.5,-0.1 -2.3,-0.2c-1.9,-0.1 -3.8,-0.2 -5.8,-0.2c-15.9,0 -34.9,-1.8 -43.9,-17.2c-2.3,-4 -3.6,-8.9 -3.6,-13.5c0,-2 0.4,-3.9 0.6,-5.8c0,0.2 0.1,-2.6 0.1,-2.6c0.3,3.3 2.4,5.4 6.1,6.1c-0.4,0 -0.9,0 -1.3,0c-5.2,1.2 -11.4,0.5 -16.7,0.8c-5.7,0.3 -11.5,0.6 -17.2,0.9c-23,1.1 -45.9,2.3 -68.9,3.4c-2.5,0.1 -5.1,0.2 -7.6,0.4c2.5,-0.2 -2,0.4 -2.8,0.6c-0.9,0.2 -1.8,0.5 -2.7,0.8c0.5,-0.2 1.9,-1.1 -0.1,0c-0.6,0.4 -1.2,0.7 -1.8,1.1c1.1,-0.9 1.2,-0.9 0.1,0c0.2,-0.3 0.5,-0.6 0.7,-1c-0.2,0.3 -0.3,0.6 -0.5,0.8c0.5,-1.3 0.6,-1.5 0.3,-0.6c-0.1,1.3 -0.9,-2.5 0.2,0.8c-0.4,-1.2 0.3,0.9 0.3,1c0.4,1.7 0.6,3.6 0.8,5.3c0.6,6.7 -2.1,13.4 -7.8,17.1c-8.8,5.8 -20.9,3.1 -30.9,3.3c-4.8,0.1 -8.9,0.4 -13.4,2c-2.4,0.8 1.9,-1.3 -1.4,0.6c-0.8,0.4 -1.5,0.9 -2.3,1.3c-1.1,0.7 -2.1,1.6 -3.6,3.3c-2.2,2.5 -3.2,4.6 -3.1,7.9c-0.1,-1.8 1.3,4.1 0.7,2.5c1,2.4 2.4,4.7 3.7,7c5.2,9.7 9.1,21 2,31c-3.4,4.8 -8.1,7.3 -13.2,9.8c-4,2 -6,3.5 -7.7,6.9c0.7,-1.4 -0.4,1 -0.5,1.4c-0.2,0.9 -0.2,0.9 -0.1,0c-0.1,0.7 -0.1,1.4 0,2.1c0,0.2 0,0.5 0,0.7c-0.1,-1.4 0,-1.3 0.3,0.1c-0.1,-0.3 -0.2,-0.6 -0.3,-0.9c0.8,1.2 0.8,1.3 0.1,0.3c0,0.2 1.9,1.8 0,0.3c0.6,0.4 1.2,0.8 1.9,1.1c-0.3,-0.1 -0.6,-0.3 -1,-0.4c0.3,0.1 0.7,0.2 1,0.3c-0.6,-0.3 -1.3,-0.3 -1.9,-0.1c-1,0.2 -0.9,0.2 0.3,-0.1c-1.4,0.6 -1.4,0.4 -0.2,-0.3c5.3,-3.9 13.7,-0.9 16.8,4.4c3.7,6.3 0.9,12.9 -4.4,16.8c-9.3,6.9 -22.5,3.3 -29.9,-4.6c-8.6,-9.2 -9.2,-22.7 -3.3,-33.5c2.8,-5.1 6.8,-9.2 11.4,-12.6c1.8,-1.3 3.6,-2.4 5.6,-3.4c0.7,-0.4 1.5,-0.7 2.3,-1c0.5,-0.3 4,-2.5 2.7,-1.3c-0.5,0.5 -0.4,1.7 0.2,-0.4c-0.2,0.3 -0.3,0.6 -0.5,0.8c-0.2,1.5 -0.2,1.5 -0.2,0.1c-0.5,0 1.1,3 -0.2,0c-1.5,-3.5 0.6,1.1 -0.3,-1c-1.9,-4.2 -4.4,-8 -6.3,-12.3c-4.9,-11.1 -4.5,-23.1 2.4,-33.4c6.5,-9.7 16.6,-16.4 28.1,-18.6c5.9,-1.1 11.8,-1.5 17.8,-1.5c2.7,0 5.4,0.1 8.2,0.2c1.1,0 2.2,0 3.3,0.1c1.1,0 2.2,0 3.2,0c1.5,-0.1 1.6,-0.1 0.3,0.1c-0.1,0.1 -0.2,0.1 -0.4,0.2c-2,1.1 -3.2,3 -3.6,5.6c0,0 -0.3,-2 -0.3,-2.2c-0.6,-2.8 -1.1,-5.7 -0.9,-8.6c0.3,-5.5 2.6,-10.9 6.6,-14.9c7.1,-7 17.2,-9.3 26.8,-9.9c12.7,-0.8 25.4,-1.3 38.1,-1.9c12.7,-0.6 25.4,-1.3 38.1,-1.9c6,-0.3 12.1,-0.6 18.1,-0.9c6,-0.3 12.3,-1.2 18.2,-0.3c7.2,1.1 12.9,5.9 14.9,13.1c0.7,2.5 0.8,5.1 0.6,7.6c-0.1,1.3 -0.4,2.6 -0.5,4c0,0.4 0.1,4.1 -0.3,1.2c0.1,0.7 1.3,3.4 0,0.9c0.3,0.6 0.6,1.1 1,1.7c-1.6,-2.6 3,1.9 0.6,0.4c0.9,0.6 1.8,1.1 2.7,1.6c0.4,0.2 2.1,0.8 0.1,0.1c2.1,0.8 4.3,1.3 6.5,1.8c3.4,0.9 -1.4,-0.1 0.7,0.2c0.9,0.1 1.9,0.2 2.8,0.2c1.8,0.1 3.6,0 5.4,0c4.2,-0.1 8.4,0 12.6,0.5c9.4,1.1 18.9,3.7 25.7,10.8c8.3,8.6 8.5,20.5 7.9,31.7c0,0.5 0.3,2.5 -0.1,0.2c0.1,0.7 0.3,1.4 0.5,2.1c-0.1,-0.5 -0.3,-1 -0.7,-1.3c-0.5,-0.3 -1.1,-0.6 -1.6,-0.9c1.5,0.3 1.6,0.4 0.5,0.2c0.4,0 0.9,0 1.3,0.1c6.4,-0.1 13,0.4 18.7,3.6c10.3,5.8 13.9,18.5 14.2,29.6c0.2,5.4 -0.9,10.8 -1.2,16.2c-0.4,5.8 -0.5,9.2 1.8,12.9c3.5,5.6 1.2,13.5 -4.4,16.8c-6.7,3.3 -14.1,1.1 -17.6,-4.5l0,0z" class="st32"/>
    <path id="svg_81" d="m-552.2,1014.8l-258.6,0c-18.4,0 -33.5,-15.1 -33.5,-33.5l0,-2.3c9.4,-81.3 78.5,-144.5 162.3,-144.5c86.4,0 157.1,67.1 163,152c-2.6,15.9 -16.5,28.3 -33.2,28.3z" class="st33"/>
   </g>
   <g id="svg_82">
    <path id="svg_83" d="m-831.2,929.5c15,35.1 38.6,62.1 74.7,76.5c21.4,8.5 43.6,9.7 66.1,5.7c19.8,-3.6 38.3,-10.2 54.8,-22c6.1,-4.4 11.4,-9.5 15.1,-16.1c3.6,-6.3 3.5,-12.8 0,-17.1c-3.9,-4.8 -10.4,-6.4 -17.4,-4.2c-4.9,1.6 -9.4,4.1 -14.5,5.4c-18.1,4.7 -35.7,2.7 -53.1,-3.1c-34.3,-11.4 -56.8,-35.3 -71.2,-67.6c-4.2,1.2 -8.5,2.2 -12.6,3.5c-3.3,1.1 -6.5,2.1 -7.6,6.3c-2.9,10.7 -5.3,12.5 -16.2,12c-3.6,-0.2 -5.4,0.9 -6.5,4.5c-2.2,6.5 -5.3,12.6 -11.6,16.2z" class="st34"/>
    <path id="svg_84" d="m-789.4,890.5c4.1,-1.4 8.4,-2.4 12.6,-3.5c6,-3.9 6.6,-7.2 1.3,-12.1c-6.5,-6 -14.6,-7.6 -23.2,-7.4c-6.3,0.2 -12.3,1.6 -17.8,4.8c-3.5,2.1 -4.4,0.8 -4.7,-2.7c-0.6,-6.9 1.6,-13.1 4.6,-19.2c1,-1.9 3.1,-4.1 1.6,-6.3c-1.7,-2.5 -4.7,-1.4 -7.2,-1c-9,1.5 -13.7,7.5 -13.2,16.7c0.3,6.3 1.8,12.3 4.3,18c1,2.3 0.8,3.6 -1.1,5.5c-11.8,11.6 -14.4,27.4 -7.1,42.1c1.6,3.2 3.8,5.6 7.9,4c6.4,-3.6 9.5,-9.6 11.5,-16.2c1.1,-3.6 3,-4.7 6.5,-4.5c10.9,0.5 13.3,-1.3 16.2,-12c1.3,-4 4.5,-5.1 7.8,-6.2" class="st35"/>
   </g>
  </g>
  <g id="svg_85">
   <path id="svg_86" d="m-414.3,1702.7c0,-62.5 -135.2,-137.6 -243.2,-137.1c-0.6,0 -1.3,0 -1.9,0c-0.6,0 -1.3,0 -1.9,0c-108,-0.6 -243.3,74.5 -243.3,137c0,62.5 109.7,93.9 245,94l0,0c0,0 0,0 0,0c0,0 0.1,0 0.1,0l0,0l0,0c0,0 0.1,0 0.1,0c0,0 0,0 0,0l0,0c135.4,-0.1 245.1,-31.5 245.1,-93.9z" class="st36"/>
   <g id="svg_87">
    <g id="svg_88">
     <g id="svg_89">
      <path id="svg_90" d="m-538.2,1719.1c0.1,-6.4 0.1,-12.7 0.2,-19.1c-1.3,1 -2.5,1.9 -3.8,2.9c4.3,1.4 7.8,3.5 11,6.7c2,1.9 4.9,0.4 5.1,-2.1c0.6,-6.6 1.7,-13 3.3,-19.4c-1.8,0.2 -3.7,0.5 -5.5,0.7c3.7,5.5 3.9,15.3 12.4,16.2c3.5,0.4 5.9,-1.7 8,-4.1c3.7,-4.4 7.2,-9.1 10.8,-13.6c-1.2,0.2 -2.4,0.3 -3.6,0.5c2.5,1.5 0.9,6 0.7,8.2c-0.2,2 -0.2,4 0.4,5.9c0.6,2.1 4.2,7.8 7.4,5.9c0.3,0 0.5,-0.1 0.8,-0.1c-0.6,-1.5 -0.9,-1.5 -0.9,0c-0.2,0.8 -0.1,1.7 0,2.5c0.3,1.7 1.4,3.2 2.7,4.3c4.3,3.5 9.6,1.6 14.1,-0.6c3.5,-1.7 0.4,-6.9 -3,-5.2c-2.8,1.4 -7.2,3.2 -7.8,-1.1c-0.2,-1.2 0.4,-2.3 -0.2,-3.5c-1.6,-3.7 -5.8,-1.2 -7.4,-3.6c-1.7,-2.6 0.5,-7.8 0.3,-10.7c-0.3,-3.1 -1.5,-5.5 -4.2,-7.1c-1,-0.6 -2.8,-0.5 -3.6,0.5c-2,2.5 -4,5 -6,7.6c-1.5,1.9 -3.6,6 -5.8,7.3c-5.9,3.5 -7.7,-8.7 -9.9,-12c-1.4,-2 -4.9,-1.9 -5.5,0.7c-1.7,6.9 -2.8,13.9 -3.5,21c1.7,-0.7 3.4,-1.4 5.1,-2.1c-4,-3.8 -8.4,-6.5 -13.7,-8.2c-1.9,-0.6 -3.8,1 -3.8,2.9c-0.1,6.4 -0.1,12.7 -0.2,19.1c0.1,3.4 6.1,3.4 6.1,-0.4l0,0z" class="st37"/>
     </g>
    </g>
    <g id="svg_91">
     <g id="svg_92">
      <path id="svg_93" d="m-765.9,1735.4c-2.2,-6.8 -3.3,-13.6 -3.3,-20.7c-1.5,0.9 -3,1.7 -4.5,2.6c3.9,1.9 7.8,3.9 11.7,5.7c2.3,1.1 4.7,1.9 7.1,0.9c1.8,-0.7 2.9,-2.3 3.7,-4c0.3,-0.8 1,-6.3 1.8,-6.5c1.5,-0.4 4,7.8 4.9,8.9c1.6,2.1 3.8,3.3 6.5,3.2c6.5,-0.3 8.9,-6.7 10,-12.1c0.8,-3.7 -4.8,-5.4 -5.8,-1.6c-1.6,6.4 3.5,11.2 9.5,12.4c8.6,1.7 15.1,-5.5 23.1,-7c-1.3,-1 -2.5,-1.9 -3.8,-2.9c-0.4,4.7 -1.8,8.8 -4.2,12.8c-2,3.3 3.2,6.3 5.2,3c3,-4.9 4.6,-10.1 5.1,-15.8c0.2,-2.1 -2,-3.2 -3.8,-2.9c-4.9,0.9 -8.8,3.6 -13.3,5.6c-2.9,1.3 -13.5,2.7 -11.9,-3.6c-1.9,-0.5 -3.9,-1.1 -5.8,-1.6c-0.3,1.7 -0.6,3.9 -1.5,5.3c-1.4,2.4 -3.6,2 -5.3,-0.2c-1.3,-1.7 -1.3,-4.5 -2.6,-6.3c-2.1,-2.8 -5.8,-4.5 -9.1,-2.5c-2.7,1.6 -3.1,4.7 -3.8,7.5c-0.1,0.5 -0.4,2.5 -0.8,2.8c-0.8,0.5 -3.7,-1.4 -4.4,-1.7c-3.1,-1.5 -6.1,-3 -9.2,-4.5c-2,-1 -4.5,0.2 -4.5,2.6c0,7.6 1.2,15.1 3.5,22.3c0.9,3.5 6.7,2 5.5,-1.7l0,0z" class="st37"/>
     </g>
    </g>
    <g id="svg_94">
     <g id="svg_95">
      <path id="svg_96" d="m-858.6,1658.1c-2,-3.4 -4.1,-6.8 -6,-10.3c-0.6,-1.1 -2.5,-3.1 -1.1,-3.7c1.3,-0.6 3.1,0.8 4,1.5c3.7,2.9 6.2,6.7 11.5,6.4c1.8,-0.1 2.8,-1.3 3,-3c0.6,-4.4 1.1,-8.7 1.7,-13.1c-2,0 -4,0 -6,0c0.4,5.4 1.8,10.2 4.4,14.9c0.8,1.5 2.7,1.8 4.1,1.1c2.5,-1.2 4.1,-3.2 5.3,-5.7c1.3,-2.8 1.5,-7.4 3.9,-9.5c3.6,-3.1 4.7,2.1 6.1,4.4c1.1,1.8 2.5,3.4 4.6,4.1c2.8,0.9 4.9,-1.3 7.5,-1c2.7,0.3 3.4,4.6 5.3,6.5c3.1,3.2 8.5,4.2 11,-0.2c1.9,-3.4 -3.3,-6.4 -5.2,-3c-0.4,0.8 -4.7,-6.3 -5.1,-6.7c-1.3,-1.5 -2.7,-2.6 -4.7,-2.9c-2.8,-0.4 -6.1,2.5 -8.2,0.2c-1.4,-1.5 -1.9,-3.9 -3.3,-5.5c-2.9,-3.4 -7.3,-4 -11,-1.2c-4.9,3.8 -4,12.8 -9.3,15.4c1.4,0.4 2.7,0.7 4.1,1.1c-2.1,-3.8 -3.3,-7.6 -3.6,-11.9c-0.3,-3.9 -5.5,-3.8 -6,0c-0.6,4.4 -1.1,8.7 -1.7,13.1c1,-1 2,-2 3,-3c-4.2,0.3 -6.8,-5.1 -10.4,-6.8c-2.6,-1.2 -6.2,-1.7 -8.9,-0.1c-2.4,1.4 -3.4,4.3 -2.7,6.9c1.3,5.2 5.7,10.5 8.4,15.1c2.1,3.2 7.3,0.2 5.3,-3.1l0,0z" class="st37"/>
     </g>
    </g>
    <g id="svg_97">
     <g id="svg_98">
      <path id="svg_99" d="m-635.5,1612.4c-2.2,0 -4.5,-0.1 -6.7,-0.1c-3.4,0 -4,4.9 -0.8,5.9c8.1,2.5 16.4,4.2 24.8,5.3c1.1,0.1 2.7,-1 2.9,-2.2c0.6,-4.5 0.1,-8.4 -1.7,-12.5c-1.4,1.4 -2.7,2.7 -4.1,4.1c2.7,1.4 5.5,2.8 8.2,4.2c1.7,0.9 3.8,0.1 4.4,-1.8c1.2,-4 3,-7.5 5.4,-10.8c-1.7,0 -3.5,0 -5.2,0c3.8,6.9 12.7,8.2 18.6,3.4c-1.7,-0.7 -3.4,-1.4 -5.1,-2.1c-0.4,6.4 1.9,12.3 6.6,16.7c2.8,2.6 7.1,-1.6 4.2,-4.2c-3.6,-3.4 -5.2,-7.5 -4.9,-12.4c0.2,-2.9 -3.3,-3.6 -5.1,-2.1c-3.1,2.5 -7.4,1.1 -9.2,-2.2c-1.2,-2.1 -3.9,-1.7 -5.2,0c-2.7,3.8 -4.6,7.8 -6,12.3c1.5,-0.6 2.9,-1.2 4.4,-1.8c-2.7,-1.4 -5.5,-2.8 -8.2,-4.2c-2.8,-1.4 -5.3,1.4 -4.1,4.1c1.1,2.6 1.5,5.1 1.1,7.9c1,-0.7 1.9,-1.5 2.9,-2.2c-7.9,-1 -15.6,-2.8 -23.2,-5.1c-0.3,2 -0.5,3.9 -0.8,5.9c2.2,0 4.5,0.1 6.7,0.1c3.9,-0.2 3.9,-6.2 0.1,-6.2l0,0z" class="st37"/>
     </g>
    </g>
    <g id="svg_100">
     <g id="svg_101">
      <path id="svg_102" d="m-638,1670.9c2.2,0 4.5,-0.1 6.7,-0.1c-0.3,-2 -0.5,-3.9 -0.8,-5.9c-7.6,2.3 -15.3,4.1 -23.2,5.1c1,0.7 1.9,1.5 2.9,2.2c-0.4,-2.8 0,-5.4 1.1,-7.9c1.2,-2.7 -1.3,-5.5 -4.1,-4.1c-2.7,1.4 -5.5,2.8 -8.2,4.2c1.5,0.6 2.9,1.2 4.4,1.8c-1.3,-4.4 -3.3,-8.5 -6,-12.3c-1.2,-1.7 -4,-2.1 -5.2,0c-1.8,3.2 -6.1,4.7 -9.2,2.2c-1.8,-1.5 -5.3,-0.7 -5.1,2.1c0.3,5 -1.2,9 -4.9,12.4c-2.8,2.6 1.4,6.9 4.2,4.2c4.7,-4.4 7.1,-10.2 6.6,-16.7c-1.7,0.7 -3.4,1.4 -5.1,2.1c6,4.8 14.8,3.5 18.6,-3.4c-1.7,0 -3.5,0 -5.2,0c2.4,3.4 4.2,6.8 5.4,10.8c0.6,1.9 2.7,2.7 4.4,1.8c2.7,-1.4 5.5,-2.8 8.2,-4.2c-1.4,-1.4 -2.7,-2.7 -4.1,-4.1c-1.8,4.2 -2.3,8 -1.7,12.5c0.2,1.2 1.7,2.4 2.9,2.2c8.4,-1.1 16.7,-2.8 24.8,-5.3c3.2,-1 2.7,-5.9 -0.8,-5.9c-2.2,0 -4.5,0.1 -6.7,0.1c-3.8,0.3 -3.8,6.3 0.1,6.2l0,0z" class="st37"/>
     </g>
    </g>
   </g>
   <g id="svg_103">
    <path id="svg_104" d="m-761.5,1437.2l6,69.4c0,0 9.7,-4 33.4,10.3c34.9,21 90.4,19.5 118.4,14.5c0,0 35.5,-3 49.4,10l-3.6,-79c0,0 -53.7,0.3 -68.1,-28.3l-8.1,7.9c0,0 -8.3,-16.8 -23.4,-17.1c-12.2,-0.2 -22.2,9.3 -23.7,17.8l-8,-10.9c-0.1,0 -12.7,11.1 -72.3,5.4z" class="st38"/>
    <path id="svg_105" d="m-764,1395.7c0,0 -2.2,24.6 -16.6,27.5c-14.4,2.9 32.5,0 32.5,0s-13.7,0 -15.9,-27.5z" class="st2"/>
    <path id="svg_106" d="m-761.5,1437.2l6,69.4c0,0 9.7,-4 33.4,10.3c34.9,21 90.4,19.5 118.4,14.5c0,0 34.6,-2.1 49.4,10l-3.6,-79c0,0 -53.7,0.3 -68.1,-28.3l-8.1,7.9c0,0 -8.3,-16.8 -23.4,-17.1c-12.2,-0.2 -22.2,9.3 -23.7,17.8l-8,-10.9c-0.1,0 -12.7,11.1 -72.3,5.4z" class="st39"/>
    <path id="svg_107" d="m-555,1418.3c0,0 -2.2,24.6 -16.6,27.5s32.5,0 32.5,0s-13.8,0 -15.9,-27.5z" class="st2"/>
    <path id="svg_108" d="m-756.7,1608.1l-12.3,0c-4.8,0 -8.7,-3.9 -8.7,-8.7l1.4,-167.6c0,-4.8 3.9,-8.7 8.7,-8.7l9.4,0c4.8,0 8.7,3.9 8.7,8.7l1.4,167.6c0,4.8 -3.9,8.7 -8.6,8.7z" class="st2"/>
    <path id="svg_109" d="m-548.5,1630.7l-12.3,0c-4.8,0 -8.7,-3.9 -8.7,-8.7l1.4,-167.6c0,-4.8 3.9,-8.7 8.7,-8.7l9.4,0c4.8,0 8.7,3.9 8.7,8.7l1.4,167.6c0,4.8 -3.9,8.7 -8.6,8.7z" class="st2"/>
    <path id="svg_110" d="m-746.5,1429.7l-34.2,0c-1.9,0 -3.5,-1.6 -3.5,-3.5l0,-3.2c0,-1.9 1.6,-3.5 3.5,-3.5l34.2,0c1.9,0 3.5,1.6 3.5,3.5l0,3.2c0,1.9 -1.6,3.5 -3.5,3.5z" class="st2"/>
    <path id="svg_111" d="m-538.3,1452.3l-34.2,0c-1.9,0 -3.5,-1.6 -3.5,-3.5l0,-3.2c0,-1.9 1.6,-3.5 3.5,-3.5l34.2,0c1.9,0 3.5,1.6 3.5,3.5l0,3.2c0,1.9 -1.6,3.5 -3.5,3.5z" class="st2"/>
    <path id="svg_112" d="m-760.7,1408.7l-6.5,0c-2.2,0 -4,-1.8 -4,-4l0,-3.6c0,-2.2 1.8,-4 4,-4l6.5,0c2.2,0 4,1.8 4,4l0,3.6c0,2.3 -1.8,4 -4,4z" class="st40"/>
    <path id="svg_113" d="m-551.8,1431.3l-6.5,0c-2.2,0 -4,-1.8 -4,-4l0,-3.6c0,-2.2 1.8,-4 4,-4l6.5,0c2.2,0 4,1.8 4,4l0,3.6c0,2.2 -1.8,4 -4,4z" class="st40"/>
    <g id="svg_114">
     <path id="svg_115" d="m-727.2,1467.2c2.3,0.2 4.1,0.5 5.4,0.8c1.3,0.3 2.4,0.7 3.4,1.3c1,0.5 1.9,1.3 2.7,2.3c0.8,1 1.4,1.8 1.6,2.4c0.4,1.2 0.6,2.5 0.4,3.8c-0.2,1.9 -0.9,3.7 -2.1,5.3c-1.2,1.6 -2.7,2.8 -4.4,3.5c-1.5,0.6 -2.9,0.9 -4.3,1.1c-1.4,0.2 -3.1,0.1 -5,0c-2,-0.2 -3.3,-0.4 -3.9,-0.7c-0.5,-0.2 -0.8,-0.3 -1,-0.4c-0.2,-0.1 -0.3,-0.3 -0.3,-0.6c-0.1,-0.3 -0.1,-0.8 0,-1.7l0.3,-2.1c0.1,-0.7 0.2,-1.6 0.3,-2.7l1.4,-11.4c0.1,-0.5 0.2,-0.8 0.3,-1c0.1,-0.1 0.4,-0.2 0.8,-0.2c0.6,-0.1 2.1,0 4.4,0.3zm1.9,6.2c-0.2,0 -0.4,0 -0.5,0.1c-0.1,0.1 -0.1,0.3 -0.2,0.7c-0.2,1 -0.4,2.4 -0.6,4.2c-0.2,2 -0.2,3 -0.2,3.1c0,0.1 0.2,0.1 0.4,0.1c0.8,0.1 1.7,0 2.6,-0.4c0.9,-0.3 1.6,-0.8 2.2,-1.5c0.6,-0.7 0.9,-1.4 1,-2.2c0,-0.4 0,-0.8 -0.1,-1.1c-0.3,-1.1 -1.3,-2 -3.1,-2.7c-0.8,-0.2 -1.3,-0.3 -1.5,-0.3z" class="st41"/>
     <path id="svg_116" d="m-701.6,1469.7c2.5,0.2 4.7,1 6.7,2.2c1.9,1.2 3.2,2.8 3.9,4.6c0.5,1.4 0.6,3 0.4,5c-0.1,1.2 -0.4,2.3 -0.9,3.3c-0.5,0.9 -1.3,1.9 -2.5,2.9c-1.2,1 -2.6,1.7 -4,2.1c-1.4,0.4 -2.8,0.6 -4.2,0.4c-0.2,0 -0.3,0 -0.4,-0.1l-0.5,0c-2,-0.3 -3.7,-1 -5.2,-2.1c-1.5,-1.1 -2.6,-2.4 -3.4,-4c-0.8,-1.6 -1.1,-3.3 -1,-5.2l0.1,-0.6c0.4,-3.8 2.5,-6.4 6.3,-7.9c0.9,-0.3 1.7,-0.5 2.4,-0.6c0.7,0 1.5,0 2.3,0zm0,5.9c-0.1,0 -0.4,0 -0.7,0c-1.3,0.3 -2.4,1.1 -3.1,2.3c-0.3,0.4 -0.4,0.8 -0.5,1.2c0,0.3 0,0.5 0,0.7c0,0.8 0.1,1.4 0.3,1.8c0.7,1.5 1.9,2.4 3.5,2.6l0.3,0c0.7,0.1 1.4,-0.1 2,-0.4c0.6,-0.4 1.1,-0.8 1.5,-1.3c0.4,-0.5 0.6,-1 0.6,-1.5c0,-0.3 0,-0.5 0,-0.6c0,-2 -0.6,-3.4 -2,-4.2c-0.4,-0.3 -1,-0.5 -1.9,-0.6z" class="st41"/>
     <path id="svg_117" d="m-677.4,1470.9c3.4,0.3 5.8,1.2 7.2,2.7c0.2,0.2 0.3,0.4 0.4,0.5c0,0.1 0,0.3 0,0.5c-0.1,0.3 -0.4,0.9 -1,1.9c-0.6,1 -1,1.6 -1.3,1.8l-0.4,0.2c-0.1,0 -0.3,-0.1 -0.7,-0.3c-1.5,-0.8 -2.8,-1.3 -3.9,-1.4c-0.9,-0.1 -1.8,0.1 -2.7,0.5c-0.9,0.4 -1.6,1.1 -2,1.9c-0.3,0.6 -0.5,1.1 -0.6,1.5c0,0.4 -0.1,0.7 0,0.9c0,1 0.1,1.7 0.3,2.2c0.7,1.5 2.2,2.3 4.3,2.5c0.8,0.1 1.7,0 2.7,-0.2c0.3,0 0.5,-0.2 0.5,-0.6c0,-0.3 0,-0.5 -0.1,-0.6c-0.1,-0.1 -0.6,-0.2 -1.5,-0.4c-0.9,-0.1 -1.5,-0.3 -1.8,-0.6c-0.3,-0.2 -0.4,-0.7 -0.3,-1.4c0,-0.4 0.1,-0.7 0.1,-0.9c0.2,-1 0.5,-1.5 0.9,-1.7c0.3,-0.1 1.7,0 4.2,0.3c2.4,0.2 3.8,0.4 4.1,0.6c0.1,0 0.3,0.2 0.5,0.5c0.1,0.2 0.1,1.2 0,3.2c0,2 -0.1,3.5 -0.2,4.3c0,0.3 -0.1,0.5 -0.1,0.5c-0.1,0.5 -0.7,0.9 -1.6,1.3c-0.9,0.4 -2.1,0.8 -3.4,1c-1.3,0.3 -2.6,0.4 -3.9,0.3l-0.8,-0.1c-2.3,-0.2 -4.3,-0.9 -6.1,-2c-1.8,-1.1 -3.1,-2.6 -4.1,-4.5c-0.5,-0.8 -0.7,-1.6 -0.9,-2.2c-0.1,-0.6 -0.1,-1.4 0,-2.4c0.3,-3.1 1.4,-5.4 3.3,-7.1c1.9,-1.7 4.2,-2.6 7.1,-2.8c0.5,0 1,0 1.8,0.1z" class="st41"/>
     <path id="svg_118" d="m-656.7,1474.1l2.3,0.2c2.9,0.3 5.2,0.6 6.8,1c1.6,0.4 2.9,0.9 3.9,1.6c1,0.7 1.7,1.6 2.1,2.8c0.2,0.6 0.3,1 0.3,1.3c0,0.2 0,0.8 -0.1,1.6c-0.1,1.1 -0.3,2 -0.5,2.5c-1.2,2.7 -3.3,4.3 -6.2,4.8c-0.7,0.2 -1.7,0.2 -2.8,0.1l-1.6,-0.2l-0.1,0.5c0,0 -0.1,0.3 -0.2,0.8l-0.2,1.1c-0.2,0.9 -0.4,1.5 -0.6,1.8c-0.2,0.2 -0.5,0.3 -0.8,0.3l-1.3,-0.2c-2.5,-0.4 -3.9,-0.7 -4.2,-1.1c-0.1,-0.2 -0.2,-0.5 -0.1,-0.9c0.1,-0.8 0.2,-2 0.5,-3.4c0.4,-2.4 0.8,-5.1 1.1,-7.9c0.2,-2.4 0.4,-3.9 0.6,-4.6c0.2,-0.8 0.4,-1.3 0.7,-1.6l0.4,-0.5zm5.8,6.2c-0.3,0 -0.5,0 -0.6,0.1c-0.1,0.1 -0.3,0.8 -0.4,2c-0.1,0.8 -0.1,1.4 -0.1,1.7c0,0.2 0.2,0.4 0.4,0.4l0.5,0c0.6,0 1.2,-0.3 1.6,-0.6c0.5,-0.4 0.7,-0.9 0.8,-1.4c0,-0.4 0,-0.7 0,-0.9c-0.1,-0.2 -0.2,-0.4 -0.5,-0.6c-0.4,-0.4 -1,-0.6 -1.7,-0.7z" class="st41"/>
     <path id="svg_119" d="m-634.5,1476.1c1,0.1 2,0.2 3,0.4c1,0.2 1.7,0.3 2,0.5c0.2,0.1 0.5,0.5 0.7,1.2c0.2,0.7 0.6,2.2 1.2,4.4c0.8,2.7 1.4,4.9 2,6.6c1.3,4.1 1.9,6.5 1.8,7.1c0,0.3 -0.2,0.5 -0.5,0.6c-0.6,0.3 -1.8,0.4 -3.6,0.2c-0.1,0 -0.2,0 -0.3,-0.1l-0.3,0c-0.5,-0.1 -0.9,-0.3 -1.1,-0.6c-0.2,-0.3 -0.4,-0.8 -0.5,-1.5l-0.2,-1l-0.9,-0.2c-0.9,-0.2 -2.2,-0.4 -3.9,-0.5c-0.8,-0.1 -1.4,-0.1 -1.5,-0.1l-1.2,0l-0.5,1c-0.3,0.6 -0.5,1 -0.7,1.2c-0.2,0.2 -0.5,0.3 -0.9,0.3c-0.5,0 -1.2,0 -2.2,-0.1c-1,-0.1 -1.6,-0.2 -2,-0.4c-0.4,-0.1 -0.5,-0.4 -0.5,-0.8c0,-0.5 0.5,-1.8 1.5,-3.8c1.2,-2.5 2.3,-5 3.3,-7.2c1.9,-4.4 3.3,-6.8 4.2,-7.1c0.1,-0.1 0.5,-0.1 1.1,-0.1zm1.3,7c-0.1,0 -0.4,0.6 -1.1,1.9c-0.7,1.3 -1,2.1 -1,2.3c0,0.2 0.6,0.4 2,0.5c0.5,0 0.8,0.1 1,0c0.2,0 0.4,-0.1 0.4,-0.4c0,-0.4 -0.2,-1.4 -0.7,-3.1c-0.4,-0.7 -0.6,-1.2 -0.6,-1.2z" class="st41"/>
     <path id="svg_120" d="m-615.4,1478.5c2.7,0.3 4.6,0.5 5.8,0.7c1.2,0.2 2.1,0.6 2.8,1.1c0.7,0.5 1.3,1.2 1.9,2.3c0.9,1.4 1.2,2.8 1.1,4.1c0,0.4 -0.1,0.8 -0.2,1.2c-0.4,1.6 -1.3,2.8 -2.7,3.7l-0.5,0.4l0.8,2.6c0.6,2 0.9,3.2 0.8,3.5c0,0 0,0.1 -0.1,0.3c-0.1,0.1 -0.8,0.2 -2.2,0.2c-1.4,0.1 -2.4,0.1 -3.1,0c-0.6,-0.1 -1,-0.2 -1.2,-0.4c-0.2,-0.2 -0.4,-0.8 -0.7,-1.6c-0.5,-1.8 -0.9,-2.8 -1.1,-2.8l-0.6,-0.1c-0.2,0 -0.4,0 -0.4,0.1c-0.1,0.1 -0.2,0.8 -0.5,2.1c-0.1,0.7 -0.3,1.3 -0.4,1.7c-0.1,0.2 -0.3,0.4 -0.5,0.6c-0.3,0.2 -0.8,0.2 -1.6,0.2l-1.7,-0.2l-1.2,-0.2c-0.7,-0.1 -1.1,-0.1 -1.3,-0.2c-0.3,-0.1 -0.5,-0.2 -0.6,-0.4c-0.2,-0.2 -0.2,-0.7 -0.1,-1.5c0.1,-0.8 0.2,-1.6 0.4,-2.4c0.4,-1.8 0.9,-5.5 1.7,-11.2c0.3,-2.2 0.5,-3.4 0.7,-3.5c0.2,-0.1 0.7,-0.2 1.5,-0.2c0.7,-0.3 1.7,-0.3 3.2,-0.1zm2,6c-0.4,-0.1 -0.6,-0.1 -0.7,-0.1c-0.1,0 -0.2,0.1 -0.3,0.3c-0.1,0.2 -0.2,0.7 -0.3,1.5c-0.1,1 -0.1,1.6 0,1.7c0.1,0.1 0.3,0.1 0.7,0.2c0.5,0 0.8,0 1.1,0c0.3,-0.1 0.6,-0.3 0.9,-0.5c0.4,-0.3 0.6,-0.5 0.6,-0.7c0,0 0,-0.1 0.1,-0.2c0.1,-0.7 -0.2,-1.2 -0.9,-1.6c-0.2,-0.4 -0.7,-0.6 -1.2,-0.6z" class="st41"/>
     <path id="svg_121" d="m-601.5,1479.2c0.4,-0.1 1.3,0 2.9,0.1c1.4,0.1 2.3,0.3 2.7,0.4c0.4,0.2 0.6,0.4 0.6,0.7l-0.1,0.5l-0.1,1.2c-0.1,0.3 -0.1,0.8 -0.2,1.4c-0.2,1.7 -0.2,2.6 -0.1,2.6c0.2,0 1.3,-1 3.2,-3c0.5,-0.5 1,-1 1.8,-1.6l0.8,-0.7l1.5,0.2c1.1,0.1 2.1,0.3 3,0.5c1,0.1 1.5,0.3 1.7,0.4c0.1,0.1 0.2,0.2 0.2,0.4c0,0.3 -0.5,0.9 -1.5,1.8c-3.1,2.9 -4.6,4.5 -4.6,4.7c0,0.1 -0.1,0.2 -0.3,0.4c-0.2,0.2 -0.4,0.3 -0.4,0.5c0,0.4 1.8,3.5 5.5,9.5c0.5,0.9 0.8,1.4 0.7,1.7c0,0.2 -0.1,0.3 -0.2,0.3c-0.1,0.1 -1.5,0 -4.2,-0.2l-1.3,-0.1l-1.1,-0.1c-0.7,-0.1 -1.1,-0.1 -1.4,-0.2c-0.3,-0.1 -0.5,-0.2 -0.7,-0.5c-0.2,-0.2 -0.4,-0.6 -0.6,-1.2c-0.1,-0.2 -0.2,-0.3 -0.2,-0.4c-0.4,-0.8 -0.9,-1.9 -1.5,-3.2c-0.6,-1.1 -0.9,-1.7 -1,-1.7c-0.6,-0.1 -1.1,1.5 -1.4,4.6l0,0.4c-0.1,0.5 -0.2,0.9 -0.3,1c-0.2,0.2 -0.5,0.2 -1.1,0.1c-0.5,0 -1.3,-0.2 -2.3,-0.3c-1.1,-0.2 -1.7,-0.3 -2,-0.4c-0.3,-0.1 -0.5,-0.2 -0.7,-0.4l-0.4,-0.4l0.3,-2.1c0.2,-1.1 0.5,-4.3 1,-9.4c0.5,-4.8 0.8,-7.3 0.9,-7.4c0.2,0.1 0.5,0 0.9,-0.1z" class="st41"/>
    </g>
   </g>
  </g>
  <g stroke="null" id="svg_122">
   <g stroke="null" id="svg_123">
    <path stroke="null" id="svg_124" d="m42.497367,37.61892c0,-9.868919 0,-19.737838 0,-29.606757c0,-2.852027 0.891143,-3.712162 3.698242,-3.712162c6.683571,0 13.322584,0 20.006155,0c2.762543,0 3.698242,0.950676 3.698242,3.757433c0,19.828379 0,39.656758 0,59.485136c0,2.806757 -0.9357,3.712162 -3.7428,3.712162c-6.683571,0 -13.322584,0 -20.006155,0c-2.762543,0 -3.653685,-0.905405 -3.653685,-3.757433c0,-9.95946 0,-19.918919 0,-29.878379z" class="st42"/>
    <path stroke="null" id="svg_125" d="m31.40264,37.800001c0,9.914189 0,19.828379 0,29.742568c0,2.852027 -0.891143,3.757433 -3.698242,3.757433c-6.728128,0 -13.456256,0 -20.139826,0c-2.584314,0 -3.564571,-0.995946 -3.564571,-3.576351c0,-19.918919 0,-39.883109 0,-59.802028c0,-2.625676 0.980257,-3.576351 3.564571,-3.621622c6.772685,0 13.54537,0 20.318055,0c2.584314,0 3.520014,0.950676 3.520014,3.576351c0.044557,9.95946 0,19.96419 0,29.923649z" class="st42"/>
   </g>
  </g>
 </g>
</svg>