<?xml version="1.0" encoding="utf-8"?>
<!-- Generator: Adobe Illustrator 21.0.0, SVG Export Plug-In . SVG Version: 6.00 Build 0)  -->
<svg version="1.1" id="Capa_1" xmlns="http://www.w3.org/2000/svg" xmlns:xlink="http://www.w3.org/1999/xlink" x="0px" y="0px"
	 viewBox="0 0 1319 1952" style="enable-background:new 0 0 1319 1952;" xml:space="preserve">
<style type="text/css">
	.st0{fill:#FEDC72;stroke:#643527;stroke-width:5;stroke-linecap:round;stroke-linejoin:round;stroke-miterlimit:10;}
	.st1{fill:none;stroke:#643527;stroke-width:5;stroke-linecap:round;stroke-linejoin:round;stroke-miterlimit:10;}
	.st2{fill:#FEDC72;stroke:#643527;stroke-width:5;stroke-miterlimit:10;}
	.st3{fill:#FEDC72;}
	.st4{fill:#FFE7A8;stroke:#643527;stroke-width:5;stroke-miterlimit:10;}
	.st5{fill:#643527;}
	.st6{fill:#FEBDC5;}
	.st7{fill:#F4C551;}
</style>
<g>
	<g>
		<g>
			<path class="st0" d="M531.9,849.4c1.8-0.9,3-1.4,3-1.4S530.5,845.4,531.9,849.4z"/>
			<path class="st0" d="M531.9,849.4c-3.2,1.7-8.1,5-9.5,10.1c-1.2-0.6-2.4-1.1-3.7-1.6c-5.6-9.1-17.2-20.6-37-6.6
				c-15,10.6-21.4,16.7-23.6,20.1c-6.5,3-13.5,7.9-20.7,15.6c-33.5,35.5-30.4,49-30.4,49s-5,14.3-13.8,15.6c0,0,11,5.9,21.2-2.8
				c0,0-8.9,10.8,0.3,28.3s18.9,32.7,18.9,32.7s10.8,7.5-0.1,16.7c-0.9,0.7-1.9,1.5-3.1,2.3c-12.4,7.9,17.4,4.6,20.8-16.1
				c4.4,9.2,12.5,17.6,27.4,17.2l0,0c0,0,36.9,23.8,51-5.4c35.8-8.5,42.7-51.4,42.7-51.4s7.5-15.6,0.4-20.4
				c-2.2-3.8-8.3-9.9-24.7-5.3c-4,1.1-7.5,2-10.6,2.6c0.3-0.3,0.6-0.7,0.8-1.1c0,0,34.6-46.8,9.1-77.6
				C536.9,858.4,532.9,852.2,531.9,849.4z"/>
		</g>
		<path class="st0" d="M573.7,955.1c0,0-3.2-14.2-25.7-7.8s-29,3.5-27.9-2.8s-6.3,23.6,10.5,21.4"/>
		<path class="st0" d="M538.3,948.7c0,0,34.6-46.8,9.1-77.6S535,848,535,848s-16.6,5.8-12.1,18.4c0,0-11.4-36.1-41-15.1
			c-12.2,8.7-18.8,14.3-22,17.9"/>
		<path class="st1" d="M499.6,874.7c0,0-28.7-23.2-62.1,12.3s-30.4,49-30.4,49s-5,14.3-13.8,15.6c0,0,11,5.9,21.2-2.8
			c0,0-8.9,10.8,0.3,28.3s18.9,32.7,18.9,32.7s10.8,7.5-0.1,16.7c-0.9,0.7-1.9,1.5-3.1,2.3c-15.9,10.2,38,1.7,15.6-38.5
			c0,0,0.4,48.2,42.1,38.2"/>
		<path class="st0" d="M478.6,1029.7c0,0,46.8,30.2,55.2-19.2"/>
	</g>
	<g>
		<path class="st2" d="M864.9,1083.7c9.1-3.8-11.4-19-34-30.7c-31.4-16.3-48.3,2.8-48.3,2.8s-8.2,44.5,9,49.5"/>
		<path class="st2" d="M864.1,1083.1c8,16.6-49.7,20.5-49.7,20.5s-7.7-0.1-20.2-1.2"/>
	</g>
	<path class="st0" d="M841.7,1103.9c-4.1-6.1-9.7-14.3-18.1-20.4c10.8-34.3,6.4-98.9,6.4-98.9l-151-50.6L559.4,992
		c0,0-20.1,16.3-35.8,35.8l0.2-0.6l-0.3,0.7c-0.7,0.9-0.7,1.8-0.7,1.8l-31.7,76.1c0,0-7.3,11.2-0.6,12.6l-0.4,0.1
		c0,0-8.5,22.8,67.9,0.2c1.6-0.5,9.9-2.7,19.4-7.9c11,6.8,106.7,62.6,195.2,7.2l52.4,8.9c0,0,19.8-5.9,14.1-12.5
		C838.9,1114.5,847.9,1112.9,841.7,1103.9z"/>
	<g>
		<g>
			<path class="st3" d="M914.2,974.4c0,0-14.6-5.4-15.6-27.3c-0.4-10.3-3.8-26.6-7.3-40.9c10.4,10.8,20.9,7.7,26.5,4.7
				c-4.6-2.6-9.4-19.1-9.4-19.1s4.4-14.3,0.9-27.5c-1.4-5.4-6.5-11.1-12-16.1c1-1,2.3-6.5-25.6-32.5c-32.9-30.7-76.7-3.8-76.7-3.8
				s-78.7-19.2-94.7-3c0,0-51.7-25.8-76.4,5c-24.8,30.8-44.4,23.8-44.4,23.8s2.5,11.9,10.1,13.1c0,0-12.7,16.1-7.6,27.6
				s-11.8,5.8-11.8,5.8s1.9,19.8,19.3,9.3l-5.1,4.5c8.5,8.1,17,11.4,25.2,11.7l-5.2,3c0,0-19.1,29.4-18.5,51.9
				c0.6,22.5-20.7,15.5-20.7,15.5s16.1,17.7,24.7,11.9c8.5-5.7-1.6,3.3-1.6,3.3s-13.8,4.8-2,21.2c8.8,12.3,14.4,13.3,16.6,13
				c1.4,3,3.6,5.9,6.9,8.2c0,0,10.9,5.5,27.8,13.7c13.1,2.9,26.4,2.1,34.6-8.2l-0.4-0.9c-7.1-7.5-7.1-15.9-7.1-15.9l7.1,15.9
				c5.6,5.9,15.8,11.3,33.9,11.4c-9.3-12.8,4.4-30.4,4.4-30.4l-4.3,30.4c0,0,0,0-0.1,0c5.6,7.7,19.5,13.6,49.7,13
				c-8-11-8.1-25.8-8.1-25.8l9.3,25.8c-0.4,0-0.8,0-1.2,0c4.4,6,11.1,10.8,21.5,11.5c0,0,5.8-16.4,29.9-8.1
				c9.1,0.8,35.8-0.5,84.1-30.5C951.9,1001.7,914.2,974.4,914.2,974.4z"/>
		</g>
	</g>
	
		<ellipse transform="matrix(0.9974 -7.258800e-02 7.258800e-02 0.9974 -70.0373 58.8993)" class="st4" cx="775.3" cy="993" rx="43.3" ry="34.6"/>
	<path class="st5" d="M761.7,997.5l-0.7-6.3c-0.6-5.2,4.9-9.2,10-9.8l22.8-1.6c5.2-0.6,9.7,1.7,10.2,6.8l0.7,6.3
		C801,1009.9,764.5,1009,761.7,997.5z"/>
	<g>
		
			<ellipse transform="matrix(0.3898 -0.9209 0.9209 0.3898 -488.347 1211.8821)" class="st6" cx="670.3" cy="974.5" rx="9.7" ry="22.6"/>
		
			<ellipse transform="matrix(0.8576 -0.5143 0.5143 0.8576 -372.9984 576.8956)" class="st6" cx="855.3" cy="962.1" rx="22.6" ry="9.7"/>
	</g>
	<path class="st5" d="M734.7,937.4c0,0-37.7,3.1-45.9,7.3c-8.1,4.2-9.4,7.4-9.4,7.4s-0.9,5.4,16.8,2c17.7-3.4,35.7-4.5,35.7-4.5
		s8.9,0.4,9.1-5.6C741.3,938.1,734.7,937.4,734.7,937.4z"/>
	<path class="st7" d="M845.2,903.1c1,6-2.7,10.9-8.3,13.1c-0.8,0.3-21.5,3.7-22.4,3.9c-1.5,0.2-2.9,1-4.4,0.8
		c-5.2-1-9.5-5-10.3-10.5c-0.9-5.7,2.3-10.3,7.3-12.7c1.1-0.5,2.2-1.7,3.5-1.9c1.7-0.3,23.2-2.5,24.7-2.2
		C840.4,894.5,844.4,897.7,845.2,903.1z"/>
	<path class="st5" d="M817.6,938c0,0,23.4,4.3,28.4,7.8c5,3.5,5.4,7.3,5.4,7.3s-0.3,3.6-12.1-0.1c-11.8-3.7-24.3-5.9-24.3-5.9
		s-6.3-0.5-5.5-4.4C810.4,938.8,817.6,938,817.6,938z"/>
	<path class="st7" d="M754.9,910c-0.6,6.1-6.3,9.8-13.6,10.4c-1.1,0.1-26.8-2.2-27.9-2.3c-1.9-0.2-3.8,0.2-5.4-0.4
		c-6-2.3-9.9-7.4-9.4-12.9c0.5-5.7,5.6-9.3,12.3-10.3c1.5-0.2,3.2-1.1,4.8-0.9c2.1,0.2,28.4,3.8,30.2,4.5
		C751.5,900.5,755.4,904.6,754.9,910z"/>
	<path class="st0" d="M538.7,1051.1c0,0-29.6,28.7,7.4,46s13.1,27.9,13.1,27.9s46.8-2.5,36.1-31.2"/>
	<path class="st0" d="M587.8,1116.8c0,0,31.4,35.2,49.4-5"/>
	<path class="st0" d="M633.1,1098c-2,5.8-3.8,11.6-5.4,17.5c-0.7,2.6-1.4,5.3-1.6,8c-0.7,11.9,8.5,22.2,18.3,29
		c0.5,0.4,1.1,0.7,1.7,0.7c1.2-0.1,1.8-1.5,1.6-2.7c-0.2-1.2-1.1-2.1-1.7-3.1c-2.1-3.6-1.5-8.6,1.4-11.5c2-2,4.7-3,7.3-4.1
		c9.9-4.3,19.3-12.9,19.2-23.7"/>
	<path class="st3" d="M841.9,1064.3c2.7,4.6,6.2,9.8,11.5,10.3c1.5,0.1,3.1-0.1,4.3,0.8c-1.9,3.9-5.9,6.7-10.2,7.2
		c-1.3,0.2-2.8,0.2-3.8,1c-1.1,1-1.2,2.8-1.3,4.3c-0.7,7.9-7.2,14.5-14.6,17.3c-7.4,2.9-15.6,2.7-23.5,1.8
		C804.3,1107,806,1059.6,841.9,1064.3"/>
	<path class="st0" d="M755.7,1124.7c1.4,1.3,3.5,1.4,5.4,1.4c11.6,0.4,24.2,0.4,33.4-6.7c9.3-7.2,12.5-19.6,14.8-31.1"/>
	<path class="st0" d="M756.4,1110.7c4.5,6.7,2.3,16.3-3.1,22.2c-5.4,6-13.4,8.9-21.2,10.8c-7,1.7-14.2,2.7-21.3,3"/>
	<g>
		<path class="st0" d="M508.7,1004.4"/>
		<path class="st3" d="M551.9,974.7c-9.9,12.3-5.7,23.8-23,23c-17.2-0.8-20.5-9.9-20.5-9.9s-4.1,15.6,10.7,22.2l-10.3-5.6
			c0.6,3.8-0.1,10.7,3.1,14.5c-5.7,2.8-11.2,8.8-11.6,21.5c-0.8,26.3,27.9,40.2,27.9,40.2l57-71.7l-0.3-53.9
			C584.7,955,561.7,962.4,551.9,974.7z"/>
	</g>
	<path class="st0" d="M657.3,1139.3c7.9,9.3,21.4,11.1,33.6,10.9c3.6-0.1,7.3-0.2,10.8-1c14.5-3,26.2-16.5,27.2-31.3"/>
	<path class="st0" d="M584.7,955c0,0-23,7.4-32.8,19.7c-9.9,12.3-5.7,23.8-23,23c-17.2-0.8-20.5-9.9-20.5-9.9s-4.1,15.6,10.7,22.2"
		/>
	<path class="st0" d="M702.4,1110.6c1.7,5.4-2.8,10.6-7.3,13.9c-12.8,9.4-29.2,13.8-45.1,12.2"/>
	<path class="st0" d="M507.5,1001.8c3.3,1.6-1.6,18.1,9,19.7"/>
	<path class="st0" d="M524,1016.6c0,0-23-2.5-23.8,23.8c-0.8,26.3,27.9,40.2,27.9,40.2"/>
	<path class="st1" d="M589.4,893.4c-17.4,10.5-19.3-9.3-19.3-9.3s17,5.7,11.8-5.8s7.6-27.6,7.6-27.6c-7.6-1.2-10.1-13.1-10.1-13.1
		s19.6,7,44.4-23.8c24.8-30.8,76.4-5,76.4-5c16-16.1,94.7,3,94.7,3s43.8-26.9,76.7,3.8c32.9,30.7,25.3,32.8,25.3,32.8"/>
	<path class="st1" d="M666,868.4c0,0-41.8,67.8-81.7,29.6"/>
	<path class="st1" d="M880.2,835.4c0,0,25.5,15.6,29,28.8c3.5,13.2-0.9,27.5-0.9,27.5s8.4,28.7,13.6,16.4c0,0-21.7,19.1-38.8-13.8"
		/>
	<path class="st1" d="M604.4,912.6c0,0-19.1,29.4-18.5,51.9c0.6,22.5-20.7,15.5-20.7,15.5s16.1,17.7,24.7,11.9
		c8.5-5.7-1.6,3.3-1.6,3.3s-13.8,4.8-2,21.2c11.8,16.4,17.7,12.7,17.7,12.7"/>
	<path class="st1" d="M803.2,1069.6c0,0,26.6,7.9,87.7-30c61.1-37.9,23.3-65.2,23.3-65.2s-14.6-5.4-15.6-27.3
		c-0.4-10.3-3.8-26.6-7.3-40.9"/>
	<path class="st3" d="M917.7,910.9"/>
	<path class="st3" d="M671.6,1042.3l-7.1-15.9C664.5,1026.4,664.5,1034.8,671.6,1042.3z"/>
	<path class="st3" d="M709.9,1023.3c0,0-13.7,17.6-4.4,30.4c0,0,0,0,0.1,0L709.9,1023.3z"/>
	<path class="st3" d="M747.1,1040.9c0,0,0.1,14.8,8.1,25.8c0.4,0,0.8,0,1.2,0L747.1,1040.9z"/>
	<path class="st1" d="M664.5,1026.4c0,0,0,27.2,41.1,27.3"/>
	<path class="st1" d="M709.9,1023.3c0,0-35.5,45.5,46.5,43.4"/>
	<path class="st1" d="M747.1,1040.9c0,0,0.1,35.4,29.6,37.4c0,0,8.8-11.4,28.4-7.7"/>
	<path class="st1" d="M602.8,1029.5c0,0,48,40.4,69.2,13.7"/>
	<path class="st0" d="M804.3,1107c7.9,0.9,16.1,1.1,23.5-1.8c7.4-2.9,13.8-9.4,14.6-17.3c0.1-1.5,0.2-3.3,1.3-4.3
		c1-0.9,2.5-0.9,3.8-1c4.3-0.5,8.3-3.3,10.2-7.2c-1.2-0.9-2.8-0.7-4.3-0.8c-5.3-0.5-8.8-5.7-11.5-10.3"/>
</g>
</svg>
