<?xml version="1.0" encoding="utf-8"?>
<!-- Generator: Adobe Illustrator 21.0.0, SVG Export Plug-In . SVG Version: 6.00 Build 0)  -->
<svg version="1.1" id="Capa_1" xmlns="http://www.w3.org/2000/svg" xmlns:xlink="http://www.w3.org/1999/xlink" x="0px" y="0px"
	 viewBox="0 0 1319 1952" style="enable-background:new 0 0 1319 1952;" xml:space="preserve">
<style type="text/css">
	.st0{fill:#F4DBA4;stroke:#643527;stroke-width:5;stroke-miterlimit:10;}
	.st1{fill:#C22126;stroke:#643527;stroke-width:5;stroke-miterlimit:10;}
	.st2{fill:#F4B831;stroke:#643527;stroke-width:5;stroke-linecap:round;stroke-linejoin:round;stroke-miterlimit:10;}
	.st3{fill:#F4DB5B;stroke:#643527;stroke-width:5;stroke-linecap:round;stroke-linejoin:round;stroke-miterlimit:10;}
	.st4{fill:#8E5F52;stroke:#643527;stroke-width:5;stroke-miterlimit:10;}
	.st5{fill:#643527;}
	.st6{fill:#FFBE9E;}
	.st7{fill:#8E5F52;}
</style>
<g>
	<g>
		<path class="st0" d="M822.9,1085.6c9.1-3.8-11.4-19-34-30.7c-31.4-16.3-48.3,2.8-48.3,2.8s-8.2,44.5,9,49.5"/>
		<path class="st0" d="M822.2,1085c8,16.6-49.7,20.5-49.7,20.5s-7.7-0.1-20.2-1.2"/>
	</g>
	<path class="st0" d="M799.8,1130.4c-4.1-6.1-9.7-14.3-18.1-20.4c10.8-34.3,6.4-98.9,6.4-98.9l-151-50.6l-119.7,58.1
		c0,0-20.1,16.3-35.8,35.8l0.2-0.6l-0.3,0.7c-0.7,0.9-0.7,1.8-0.7,1.8l-31.7,76.1c0,0-7.3,11.2-0.6,12.6l-0.4,0.1
		c0,0-8.5,22.8,67.9,0.2c1.6-0.5,9.9-2.7,19.4-7.9c11,6.8,106.7,62.6,195.2,7.2l52.4,8.9c0,0,19.8-5.9,14.1-12.5
		C797,1141,806,1139.5,799.8,1130.4z"/>
	<path class="st1" d="M701.8,1078.5c-10.2,0-20.1-0.8-29.6-2.3c-23.6-3.8-44.9-12.4-63.3-25.6c-31.4-22.5-43.2-50.3-43.7-51.5
		l17.4-7.3c0.1,0.2,10.6,24.7,38,43.9c36.5,25.7,84.6,30.7,142.9,14.9c3.8-1.9,26.6-13.8,22.2-28.6l18.1-5.4
		c4.1,13.7-0.9,27.6-14,39.1c-8.9,7.9-18.7,12.3-19.2,12.4l-0.6,0.3l-0.7,0.2C745.5,1075.2,722.9,1078.5,701.8,1078.5z"/>
	<g>
		<circle class="st2" cx="759.5" cy="1067" r="22.2"/>
		<circle class="st3" cx="766.9" cy="1067" r="22.2"/>
	</g>
	<path class="st0" d="M770.9,795c0,0,59.7,52.5,77.5,81.8c30.7,50.2,18.2,117.8-52.9,159.7c-80.9,47.8-172.1,5.4-172.1,5.4
		s-112.6-22.6-50.6-159.6C572.8,882.3,610.9,746.8,770.9,795z"/>
	
		<ellipse transform="matrix(0.9974 -7.258800e-02 7.258800e-02 0.9974 -72.0773 55.9253)" class="st4" cx="733.4" cy="1019.6" rx="43.3" ry="34.6"/>
	<g>
		<path class="st4" d="M513.9,1028.5c16.8-23.2-5.9-33.3-16.6-36.5c-10.7-3.2-57.4-2.8-49.1,42.4c8.3,45.2,43.4,26.4,43.4,26.4
			s9.5-1.9,7.4-6.8c-1.5-3.5-5.3-7.8-8.8-11.1c-0.5-0.5-1.1-1-1.6-1.5c-4.1-3.7-1,0.3,2.5,0.1
			C498.9,1040.9,509.3,1034.9,513.9,1028.5z"/>
	</g>
	<path class="st5" d="M719.8,1024l-0.7-6.3c-0.6-5.2,4.9-9.2,10-9.8l22.8-1.6c5.2-0.6,9.7,1.7,10.2,6.8l0.7,6.3
		C759,1036.5,722.6,1035.6,719.8,1024z"/>
	<g>
		
			<ellipse transform="matrix(0.3898 -0.9209 0.9209 0.3898 -538.4125 1189.48)" class="st6" cx="628.4" cy="1001" rx="9.7" ry="22.6"/>
		
			<ellipse transform="matrix(0.8576 -0.5143 0.5143 0.8576 -392.6398 559.1115)" class="st6" cx="813.4" cy="988.6" rx="22.6" ry="9.7"/>
	</g>
	<path class="st7" d="M681.5,924.8c2,8.1-3.2,15.4-11.5,19.2c-1.3,0.6-32.5,8.4-33.9,8.7c-2.3,0.6-4.4,1.9-6.6,1.7
		c-8-0.5-14.9-5.5-16.7-12.8c-1.9-7.6,2.6-14.4,10-18.5c1.7-0.9,3.2-2.7,5.2-3.2c2.5-0.6,35.2-7,37.5-6.8
		C673.4,913.9,679.8,917.6,681.5,924.8z"/>
	<path class="st7" d="M834.2,927.5c-0.6,8.1-7.1,13.4-15.4,14.4c-1.2,0.2-30.4-1.8-31.7-1.9c-2.2-0.2-4.3,0.4-6.2-0.4
		c-6.8-2.9-11.3-9.5-10.8-16.8c0.6-7.6,6.3-12.6,13.9-14.2c1.7-0.4,3.6-1.6,5.4-1.4c2.3,0.2,32.3,3.9,34.3,4.8
		C830.3,914.9,834.7,920.3,834.2,927.5z"/>
	<path class="st4" d="M591.5,814.9c-4.3,0-8.5,1.6-12.6,2.8c-7.4,2.2-15.1,3.5-22.8,3.8c-11.7,0.5-25.7-0.2-32.7,9.2
		c-6.1,8.2-3.4,19.8,0.7,29.1s9.6,18.8,8.4,28.9c-0.9,7.4-5.1,15.7-0.5,21.5c4.4,5.6,13.1,3.9,19.8,1.7c21-6.8,43.8-15,55.1-34.1
		c9.6-16.2,7.2-35.1,5.6-53.9C612.5,824,599.3,814.8,591.5,814.9z"/>
	<path class="st4" d="M792.1,785.4c4.5-0.8,9.1,0,13.6,0.4c8.1,0.8,16.3,0.7,24.4-0.5c12.3-1.8,26.6-5.2,35.7,3.2
		c7.9,7.3,7.4,19.8,4.9,30.3c-2.5,10.4-6.3,21.4-3.1,31.6c2.4,7.5,8.3,15.3,4.7,22.2c-3.5,6.6-12.8,6.6-20.2,5.6
		c-23.1-3-48.4-7.1-63.7-24.7c-13.1-15-14.3-35-16.3-54.8C772.1,798.8,784,786.8,792.1,785.4z"/>
	<path class="st5" d="M819.6,960.8c0.5,4.9-3.3,8.6-8.5,10.1c-0.8,0.2-20,2.1-20.9,2.2c-1.4,0.1-2.8,0.7-4.1,0.4
		c-4.7-1-8.4-4.4-8.8-8.8c-0.4-4.6,2.8-8.1,7.6-9.8c1.1-0.4,2.2-1.3,3.4-1.4c1.5-0.1,21.5-1.1,22.9-0.8
		C815.8,953.9,819.2,956.6,819.6,960.8z"/>
	<path class="st5" d="M686.7,964.2c1.1,4.8-2.4,9-7.8,11.3c-0.8,0.3-20.9,4.9-21.8,5.1c-1.5,0.3-2.8,1.1-4.3,1
		c-5.1-0.3-9.3-3.2-10.3-7.5c-1-4.5,2-8.4,6.9-10.8c1.1-0.5,2.1-1.6,3.4-1.9c1.6-0.4,22.6-4.1,24.1-4
		C681.9,957.8,685.8,960,686.7,964.2z"/>
</g>
</svg>
