<?xml version="1.0" encoding="utf-8"?>
<!-- Generator: Adobe Illustrator 21.0.0, SVG Export Plug-In . SVG Version: 6.00 Build 0)  -->
<svg version="1.1" id="Capa_1" xmlns="http://www.w3.org/2000/svg" xmlns:xlink="http://www.w3.org/1999/xlink" x="0px" y="0px"
	 viewBox="0 0 1319 1952" style="enable-background:new 0 0 1319 1952;" xml:space="preserve">
<style type="text/css">
	.st0{fill:#FFC25E;stroke:#643527;stroke-width:5;stroke-linecap:round;stroke-linejoin:round;stroke-miterlimit:10;}
	.st1{fill:#FFE7A8;}
	.st2{fill:none;stroke:#643527;stroke-width:23;stroke-linecap:round;stroke-linejoin:round;stroke-miterlimit:10;}
	.st3{fill:#FFE7A8;stroke:#643527;stroke-width:5;stroke-miterlimit:10;}
	.st4{fill:#643527;}
	.st5{fill:#FFD1AE;}
</style>
<g>
	<g>
		<path class="st0" d="M569.9,966.9c14-59.9-39.2-61.2-63-58.7c-23.8,2.4-116,41.9-62.2,124.6c53.8,82.7,107.8,16.5,107.8,16.5
			s17.3-11.7,8.9-19.6c-6-5.7-16.9-11-26.7-14.8c-1.5-0.6-3-1.1-4.5-1.6c-11.2-3.9-1.8,1.4,5-1.9
			C550.4,1004,566.1,983.3,569.9,966.9z"/>
		<path class="st1" d="M432.3,965.8c0,0,4.3-7.1,7.7-3.8c3.5,3.2-0.2,19.5,9.8,38.5c10,18.9,37.1,42.4,37.1,42.4s40.8,17.6,61.5,4.4
			c20.6-13.2,3.1,1.5,3.1,1.5s-37.6,46.6-81.8,10.2c-7.8-6.4-15.3-15.7-23.8-27.7C421.1,996.4,432.3,965.8,432.3,965.8z"/>
	</g>
	<g>
		<path class="st0" d="M867.5,1087.7c9.1-3.8-11.4-19-34-30.7c-31.4-16.3-48.3,2.8-48.3,2.8s-8.2,44.5,9,49.5"/>
		<path class="st0" d="M866.7,1087c8,16.6-49.7,20.5-49.7,20.5s-7.7-0.1-20.2-1.2"/>
	</g>
	<path class="st0" d="M844.3,1132.5c-4.1-6.1-9.7-14.3-18.1-20.4c10.8-34.3,6.4-98.9,6.4-98.9l-151-50.6L562,1020.6
		c0,0-20.1,16.3-35.8,35.8l0.2-0.6l-0.3,0.7c-0.7,0.9-0.7,1.8-0.7,1.8l-31.7,76.1c0,0-7.3,11.2-0.6,12.6l-0.4,0.1
		c0,0-8.5,22.8,67.9,0.2c1.6-0.5,9.9-2.7,19.4-7.9c11,6.8,106.7,62.6,195.2,7.2l52.4,8.9c0,0,19.8-5.9,14.1-12.5
		C841.5,1143.1,850.5,1141.6,844.3,1132.5z"/>
	<path class="st0" d="M699.1,809.6c0,0,48.7-23.1,116.3,11.3l50.4-33.1c0,0,53.7,3.2,4.1,94.7l9.1,7.6l-6.7,10.6
		c0,0,49.8,92.1-32.3,137.9c-82.1,45.8-172.1,5.4-172.1,5.4s-74.1-50.6-79.1-60.3l-5.6-14.7l17.3-14.1c0,0,1.8-35.2,16.7-70.4
		l-7.6-5.7l10.5-6.4c0,0-11.3-63,8.4-89.7C628.7,782.7,618.2,771.3,699.1,809.6z"/>
	<line class="st2" x1="676.7" y1="969" x2="710.1" y2="986.7"/>
	<line class="st2" x1="844.7" y1="963.2" x2="825.2" y2="981.5"/>
	
		<ellipse transform="matrix(0.4856 -0.8742 0.8742 0.4856 -465.4165 1108.8025)" class="st1" cx="709.4" cy="949.8" rx="12.2" ry="15.3"/>
	<path class="st1" d="M666.2,1041.4c0,0-25-12.5-24.7-31.7c0.4-22.9,40.6-11.6,40.6-11.6s11.4,5.4,47.8,9.5
		c36.4,4,79.4,3.7,79.4,3.7s32.2-12.7,44-19.2c8.5-4.7,18.4-6.5,21.1-4.1c2.3,2,6.7,4.2-2.5,20.7c0,0-31.3,40.2-87.7,49.4
		C725.5,1067.6,666.2,1041.4,666.2,1041.4z"/>
	
		<ellipse transform="matrix(0.5705 -0.8213 0.8213 0.5705 -420.8301 1076.1592)" class="st1" cx="818.5" cy="940.4" rx="13.8" ry="12.2"/>
	<path class="st1" d="M663.4,859.4c-2.9,1.8-6,5.1-9.7,3.3c-1.9-0.9-10.8,20.1-12.6,19.1c-30.9-18.5-18.2-105-0.6-86.5
		c17.9,12.3,29.7,32.7,37.3,45.1c-3.4,0.1-7.1-1.1-9.7-3.3c-1.5,0.6-0.9,2.6,0.2,3.9c1.1,1.3,2.6,2.7,2.4,4.1
		c-0.2,1.9-2.9,2.3-4.9,3.1C661.4,849.9,660,855.7,663.4,859.4z"/>
	
		<ellipse transform="matrix(0.9974 -7.258800e-02 7.258800e-02 0.9974 -72.1072 59.1634)" class="st3" cx="777.9" cy="1021.6" rx="43.3" ry="34.6"/>
	<path class="st4" d="M764.3,1026.1l-0.7-6.3c-0.6-5.2,4.9-9.2,10-9.8l22.8-1.6c5.2-0.6,9.7,1.7,10.2,6.8l0.7,6.3
		C803.6,1038.5,767.1,1037.6,764.3,1026.1z"/>
	<g>
		
			<ellipse transform="matrix(0.3898 -0.9209 0.9209 0.3898 -513.1078 1231.7307)" class="st5" cx="672.9" cy="1003.1" rx="9.7" ry="22.6"/>
		
			<ellipse transform="matrix(0.8576 -0.5143 0.5143 0.8576 -387.3423 582.3053)" class="st5" cx="857.9" cy="990.7" rx="22.6" ry="9.7"/>
	</g>
	<path class="st1" d="M751.5,1128.1c-0.9,0.4-1.7,0.8-2.6,1.3c-67.2,31.1-182.8-14.2-182.4-8.2c0.3,5.3,20.4,33.3,102.6,47.3
		c14.5,2.5,31.7,1.2,52.6-1.8c23.7-3.4,41.1-12.4,53.6-22.2C766.2,1142.1,757.6,1134.8,751.5,1128.1z"/>
	<path class="st1" d="M824.2,1112.4c7.1-17.6,7-39.3,7-39.3s-5.4-6.1-16.6,2.4c-4.3,3.3-7.7,12-13,26
		C808.3,1104.6,823.8,1112.5,824.2,1112.4z"/>
</g>
</svg>
