<svg width="264" height="107" xmlns="http://www.w3.org/2000/svg">
 <style type="text/css">.st0{fill:#BCF7B7;stroke:#FFF8CC;stroke-width:5;stroke-miterlimit:10;}
	.st1{fill:#643527;stroke:#FFF8CC;stroke-width:5;stroke-miterlimit:10;}</style>

 <g>
  <title>background</title>
  <rect fill="none" id="canvas_background" height="109" width="266" y="-1" x="-1"/>
 </g>
 <g>
  <title>Layer 1</title>
  <g stroke="null" id="svg_32">
   <path stroke="null" id="svg_33" d="m224.966572,4.6l-189.933122,0c-18.622442,0 -33.733448,15.43662 -33.733448,34.460339l0,31.679329c0,19.023719 15.111007,34.460339 33.733448,34.460339l189.933122,0c18.622442,0 33.733448,-15.43662 33.733448,-34.460339l0,-31.679329c0,-19.023719 -15.111007,-34.460339 -33.733448,-34.460339z" class="st0"/>
   <g stroke="null" id="svg_34">
    <g stroke="null" id="svg_35">
     <path stroke="null" id="svg_36" d="m48.763555,39.503688c2.288351,0 4.576702,0.36274 6.825598,1.088221c1.025812,0.322436 1.73599,0.644872 2.091079,0.967308c0.394543,0.322436 0.591815,0.725481 0.591815,1.249439c0,0.403045 -0.27618,1.370353 -0.828541,2.861619c-0.552361,1.531571 -1.025812,2.700401 -1.499264,3.5871c-0.157817,0.36274 -0.394543,0.523958 -0.749632,0.523958c-0.197272,0 -0.631269,-0.161218 -1.301993,-0.443349c-1.380901,-0.604567 -2.722348,-0.927003 -4.063796,-0.927003l-0.315635,0l-0.27618,0.040304c-1.025812,0.161218 -2.012171,0.604567 -3.037983,1.330048c-0.986358,0.765785 -1.73599,1.61218 -2.169988,2.579487c-0.394543,0.846394 -0.591815,1.813702 -0.591815,2.861619c0,1.813702 0.512906,3.264664 1.499264,4.352885c0.986358,1.088221 2.64344,1.61218 4.931791,1.61218c1.380901,0 2.64344,-0.282131 3.787615,-0.80609c0.473452,-0.241827 0.946904,-0.36274 1.45981,-0.36274c0.394543,0 0.670724,0.120913 0.907449,0.322436c0.27618,0.322436 0.710178,1.128526 1.301993,2.377965c0.591815,1.289744 0.907449,2.136138 0.986358,2.539183c0.039454,0.080609 0.039454,0.241827 0.039454,0.483654c0,0.604567 -0.27618,1.088221 -0.828541,1.450962c-0.552361,0.443349 -1.657082,0.927003 -3.314163,1.450962c-2.36726,0.80609 -4.37943,1.249439 -6.11542,1.249439l-0.946904,0c-2.091079,-0.120913 -3.787615,-0.443349 -5.089608,-1.007612c-1.262538,-0.564263 -2.603985,-1.531571 -3.905978,-2.942228c-2.959074,-2.982532 -4.418884,-6.811459 -4.418884,-11.567389c0,-1.16883 0.078909,-2.055529 0.197272,-2.579487c0.355089,-1.813702 1.104721,-3.5871 2.327805,-5.279888c1.18363,-1.692789 2.64344,-3.14375 4.339976,-4.393189c1.696536,-1.209135 3.471981,-2.015224 5.326334,-2.418269c1.025812,-0.120913 1.972716,-0.201522 2.840711,-0.201522z" class="st1"/>
     <path stroke="null" id="svg_37" d="m71.449792,42.889265c1.18363,0 2.36726,0.080609 3.471981,0.282131c2.64344,0.483654 4.892336,1.571875 6.74669,3.184055c1.854353,1.61218 2.998529,3.506491 3.432526,5.642629c0.118363,0.483654 0.157817,1.088221 0.157817,1.813702c0,2.176442 -0.315635,4.111058 -0.986358,5.763542c-0.631269,1.652484 -1.696536,3.224359 -3.1958,4.715625c-1.380901,1.370353 -2.761803,2.297356 -4.221613,2.821314c-1.420356,0.523958 -2.91962,0.765785 -4.458339,0.765785c-2.682894,0 -5.168517,-0.644872 -7.377959,-1.97492c-2.209442,-1.330048 -3.945433,-2.982532 -5.168517,-4.957452c-1.262538,-1.97492 -1.854353,-3.869231 -1.854353,-5.642629c0,-0.564263 0.078909,-1.450962 0.27618,-2.579487c1.144175,-5.763542 4.37943,-8.987901 9.66631,-9.632773c1.223084,-0.120913 2.406714,-0.201522 3.511435,-0.201522zm0.394543,8.544552c-0.473452,0 -0.907449,0.120913 -1.262538,0.36274c-1.262538,0.80609 -1.893808,1.934616 -1.893808,3.385577c0,0.523958 0.157817,1.128526 0.433998,1.813702c0.631269,1.330048 1.617627,1.97492 2.998529,1.97492c0.749632,0 1.380901,-0.241827 1.893808,-0.725481c0.512906,-0.483654 0.828541,-1.088221 0.946904,-1.854007c0.039454,-0.120913 0.039454,-0.322436 0.039454,-0.644872c0,-0.846394 -0.197272,-1.692789 -0.591815,-2.458574c-0.394543,-0.80609 -0.867995,-1.330048 -1.420356,-1.61218c-0.394543,-0.161218 -0.789087,-0.241827 -1.144175,-0.241827z" class="st1"/>
     <path stroke="null" id="svg_38" d="m103.368341,42.92957c2.406714,0 4.300521,0.685176 5.681423,2.055529c1.380901,1.370353 2.36726,3.063141 2.959074,5.158975c0.27618,0.967308 0.433998,3.828927 0.473452,8.584856l0,3.385577c0,2.458574 -0.118363,3.828927 -0.315635,4.030449c-0.157817,0.201522 -0.433998,0.322436 -0.828541,0.36274c-0.433998,0.080609 -1.696536,0.120913 -3.787615,0.161218l-4.300521,0.120913l-0.197272,-0.483654c-0.039454,-0.161218 -0.157817,-1.894311 -0.315635,-5.199279c-0.039454,-2.700401 -0.157817,-4.75593 -0.355089,-6.166587c-0.197272,-1.047917 -0.631269,-1.894311 -1.223084,-2.579487c-0.315635,-0.322436 -0.749632,-0.483654 -1.262538,-0.483654c-2.564531,0 -3.82707,2.458574 -3.82707,7.375722c0,1.410657 0,2.33766 0.039454,2.861619c0.039454,0.685176 0.039454,1.773398 0.039454,3.264664c0,0.927003 -0.039454,1.450962 -0.157817,1.571875c-0.118363,0.120913 -1.104721,0.201522 -2.959074,0.282131c-1.893808,0.080609 -3.511435,0.120913 -4.931791,0.120913c-0.552361,0 -0.946904,-0.040304 -1.144175,-0.120913c-0.197272,-0.080609 -0.315635,-0.241827 -0.394543,-0.483654c-0.078909,-0.241827 -0.118363,-0.685176 -0.157817,-1.330048c-0.039454,-0.443349 -0.039454,-2.055529 -0.039454,-4.876843l-0.039454,-4.836539l0,-5.400802l-0.039454,-3.869231c0,-1.007612 0.078909,-1.692789 0.197272,-2.136138c0.118363,-0.403045 0.394543,-0.685176 0.749632,-0.80609c0.394543,-0.120913 1.025812,-0.201522 1.933262,-0.201522l2.64344,0c1.933262,0 3.116892,0.080609 3.511435,0.282131c0.355089,0.161218 0.512906,0.725481 0.512906,1.733093c0,0.846394 0.039454,1.289744 0.157817,1.289744c0.118363,0 0.512906,-0.322436 1.223084,-1.007612c1.223084,-1.128526 2.525077,-1.934616 3.82707,-2.297356c0.710178,-0.241827 1.499264,-0.36274 2.327805,-0.36274z" class="st1"/>
     <path stroke="null" id="svg_39" d="m120.767699,36.521156c0,0 0.946904,0 2.880166,0c1.972716,0 3.1958,0.040304 3.669252,0.120913c0.591815,0.161218 0.946904,0.282131 1.065267,0.403045c0.118363,0.120913 0.197272,0.403045 0.197272,0.846394l-0.118363,2.861619l-0.118363,1.733093l-0.039454,0.644872l2.525077,0.040304c0.473452,0 0.828541,0 1.065267,0.040304c0.867995,0 1.45981,0.080609 1.73599,0.201522c0.27618,0.161218 0.473452,0.523958 0.512906,1.128526c0.078909,0.604567 0.118363,1.854007 0.118363,3.748318l0,0.927003c0,1.007612 -0.039454,1.692789 -0.118363,2.055529c-0.078909,0.36274 -0.27618,0.604567 -0.591815,0.685176c-0.315635,0.120913 -0.867995,0.161218 -1.696536,0.161218l-3.353618,0l-0.157817,1.128526c-0.078909,0.846394 -0.118363,1.410657 -0.118363,1.61218c0,3.708013 0.946904,5.602324 2.801257,5.602324c0.394543,0 0.907449,-0.201522 1.538719,-0.564263c0.631269,-0.36274 1.025812,-0.644872 1.144175,-0.846394c0.118363,-0.161218 0.236726,-0.201522 0.355089,-0.201522c0.315635,0 0.710178,0.241827 1.223084,0.765785c0.552361,0.564263 1.104721,1.249439 1.617627,2.055529c0.512906,0.80609 0.749632,1.370353 0.749632,1.652484c0,0.443349 -0.473452,1.047917 -1.45981,1.813702c-0.946904,0.80609 -2.091079,1.491266 -3.393072,2.095833c-1.696536,0.80609 -3.511435,1.16883 -5.484151,1.16883c-1.223084,0 -2.288351,-0.201522 -3.1958,-0.644872s-1.854353,-1.16883 -2.880166,-2.257051c-1.18363,-1.209135 -2.051625,-2.539183 -2.564531,-3.909536c-0.512906,-1.410657 -0.789087,-3.506491 -0.789087,-6.327805l0,-1.249439l0,-0.765785c-0.039454,-0.120913 -0.039454,-0.282131 -0.039454,-0.523958c0,-0.161218 -0.039454,-0.322436 -0.118363,-0.36274l-0.197272,-0.201522c-0.039454,-0.120913 -0.27618,-0.161218 -0.749632,-0.161218l-0.631269,-0.040304l-0.828541,0c-0.749632,-0.080609 -1.223084,-0.120913 -1.420356,-0.161218c-0.197272,-0.040304 -0.394543,-0.201522 -0.591815,-0.483654c-0.157817,-0.241827 -0.197272,-0.725481 -0.197272,-1.410657c0,-0.967308 0,-1.61218 0.039454,-1.97492c0.078909,-1.088221 0.118363,-1.773398 0.118363,-2.055529c0.039454,-0.483654 0.078909,-0.846394 0.078909,-1.16883c0,-0.322436 0.039454,-0.523958 0.078909,-0.644872l0.197272,-0.765785l2.169988,-0.120913c1.065267,-0.040304 1.696536,-0.080609 1.893808,-0.161218c0.157817,-0.080609 0.27618,-0.161218 0.315635,-0.322436c0.039454,-0.80609 0.118363,-1.894311 0.236726,-3.264664c0.118363,-1.410657 0.236726,-2.136138 0.355089,-2.257051c0.157817,-0.201522 0.591815,-0.36274 1.223084,-0.483654c0.631269,-0.120913 0.946904,-0.161218 0.946904,-0.161218z" class="st1"/>
     <path stroke="null" id="svg_40" d="m144.085205,46.758496l1.420356,0l0.591815,0c0.473452,0 0.907449,0.040304 1.223084,0.161218c0.27618,0.120913 0.473452,0.241827 0.552361,0.36274c0.078909,0.161218 0.157817,0.443349 0.197272,0.846394c0.078909,0.927003 0.118363,4.231971 0.118363,9.955209c0,5.965064 -0.078909,9.028206 -0.197272,9.189424c-0.27618,0.282131 -1.380901,0.443349 -3.314163,0.443349l-1.893808,0l-1.420356,-0.040304c-0.828541,0 -1.341447,0 -1.45981,-0.040304c-0.355089,-0.040304 -0.631269,-0.161218 -0.828541,-0.36274l-0.433998,-0.443349l-0.039454,-7.254808l0,-2.257051c0,-6.2875 0.197272,-9.632773 0.631269,-10.116427c0.157817,-0.201522 1.301993,-0.322436 3.353618,-0.36274c0.552361,-0.040304 1.104721,-0.040304 1.499264,-0.080609zm-0.749632,-9.955209c1.144175,0 2.169988,0.403045 2.998529,1.249439c0.828541,0.80609 1.262538,1.733093 1.262538,2.740705l0,0.685176c-0.078909,1.047917 -0.473452,1.854007 -1.223084,2.458574c-0.749632,0.604567 -1.73599,0.886699 -2.959074,0.886699l-0.315635,0c-1.223084,-0.080609 -2.209442,-0.443349 -2.959074,-1.088221c-0.749632,-0.644872 -1.144175,-1.531571 -1.144175,-2.539183c0,-0.523958 0.078909,-1.047917 0.27618,-1.491266c0.157817,-0.443349 0.512906,-0.927003 0.986358,-1.491266c0.907449,-0.927003 1.933262,-1.410657 3.077437,-1.410657z" class="st1"/>
     <path stroke="null" id="svg_41" d="m166.850351,42.92957c2.406714,0 4.300521,0.685176 5.681423,2.055529c1.380901,1.370353 2.36726,3.063141 2.959074,5.158975c0.27618,0.967308 0.433998,3.828927 0.473452,8.584856l0,3.385577c0,2.458574 -0.118363,3.828927 -0.315635,4.030449c-0.157817,0.201522 -0.433998,0.322436 -0.828541,0.36274c-0.433998,0.080609 -1.696536,0.120913 -3.787615,0.161218l-4.300521,0.120913l-0.197272,-0.483654c-0.039454,-0.161218 -0.157817,-1.894311 -0.315635,-5.199279c-0.039454,-2.700401 -0.157817,-4.75593 -0.355089,-6.166587c-0.197272,-1.047917 -0.631269,-1.894311 -1.223084,-2.579487c-0.315635,-0.322436 -0.749632,-0.483654 -1.262538,-0.483654c-2.564531,0 -3.82707,2.458574 -3.82707,7.375722c0,1.410657 0,2.33766 0.039454,2.861619c0.039454,0.685176 0.039454,1.773398 0.039454,3.264664c0,0.927003 -0.039454,1.450962 -0.157817,1.571875c-0.118363,0.120913 -1.104721,0.201522 -2.959074,0.282131c-1.893808,0.080609 -3.511435,0.120913 -4.931791,0.120913c-0.552361,0 -0.946904,-0.040304 -1.144175,-0.120913c-0.197272,-0.080609 -0.315635,-0.241827 -0.394543,-0.483654c-0.078909,-0.241827 -0.118363,-0.685176 -0.157817,-1.330048c-0.039454,-0.443349 -0.039454,-2.055529 -0.039454,-4.876843l-0.039454,-4.836539l0,-5.400802l-0.039454,-3.869231c0,-1.007612 0.078909,-1.692789 0.197272,-2.136138c0.118363,-0.403045 0.394543,-0.685176 0.749632,-0.80609c0.394543,-0.120913 1.025812,-0.201522 1.933262,-0.201522l2.64344,0c1.933262,0 3.116892,0.080609 3.511435,0.282131c0.355089,0.161218 0.512906,0.725481 0.512906,1.733093c0,0.846394 0.039454,1.289744 0.157817,1.289744c0.118363,0 0.512906,-0.322436 1.223084,-1.007612c1.223084,-1.128526 2.525077,-1.934616 3.82707,-2.297356c0.710178,-0.241827 1.499264,-0.36274 2.327805,-0.36274z" class="st1"/>
     <path stroke="null" id="svg_42" d="m180.974999,43.252006c3.235255,0 5.010699,0.161218 5.365788,0.523958c0.078909,0.080609 0.118363,0.483654 0.118363,1.16883c0,0.846394 -0.039454,1.894311 -0.118363,3.103446c-0.078909,1.209135 -0.118363,2.498878 -0.118363,3.828927c0,2.78101 0.197272,4.796234 0.591815,6.005369c0.394543,1.209135 1.18363,1.813702 2.327805,1.813702c0.986358,0 1.73599,-0.523958 2.248897,-1.571875c0.670724,-1.249439 1.025812,-4.070753 1.065267,-8.423638c0.118363,-3.627404 0.236726,-5.481411 0.355089,-5.642629c0.157817,-0.161218 0.907449,-0.36274 2.169988,-0.523958c1.262538,-0.161218 2.485622,-0.282131 3.669252,-0.282131c0.907449,0 1.657082,0.040304 2.209442,0.120913c0.552361,0.080609 0.946904,0.282131 1.104721,0.564263c0.394543,0.564263 0.591815,3.345273 0.591815,8.343029c0,9.189424 -0.157817,14.106571 -0.433998,14.791748c-0.197272,0.523958 -1.025812,0.80609 -2.485622,0.80609c-0.591815,0 -1.73599,-0.080609 -3.471981,-0.201522c-0.591815,0 -1.065267,-0.040304 -1.420356,-0.080609c-0.355089,-0.040304 -0.670724,-0.120913 -0.986358,-0.241827c-0.355089,-0.120913 -0.591815,-0.241827 -0.749632,-0.403045c-0.157817,-0.161218 -0.315635,-0.403045 -0.433998,-0.765785c-0.27618,-0.685176 -0.591815,-0.80609 -0.907449,-0.443349c-0.197272,0.241827 -0.867995,0.604567 -2.012171,1.088221c-1.104721,0.483654 -2.051625,0.765785 -2.722348,0.927003c-0.473452,0.080609 -1.025812,0.120913 -1.578173,0.120913c-1.45981,0 -2.840711,-0.322436 -4.10325,-0.927003c-1.262538,-0.644872 -2.209442,-1.491266 -2.840711,-2.539183c-0.236726,-0.443349 -0.552361,-1.249439 -0.946904,-2.458574c-0.27618,-1.209135 -0.433998,-2.78101 -0.433998,-4.675321l0,-2.740705c0.078909,-6.932372 0.512906,-10.600081 1.301993,-10.962821c0.473452,-0.241827 1.341447,-0.322436 2.64344,-0.322436z" class="st1"/>
     <path stroke="null" id="svg_43" d="m216.720618,41.801044l0.670724,0c1.420356,0.080609 2.564531,0.322436 3.432526,0.765785s1.893808,1.289744 3.116892,2.539183c1.893808,1.934616 3.116892,4.030449 3.629798,6.247196c0.157817,0.886699 0.27618,1.652484 0.27618,2.257051c0,2.176442 -0.355089,3.425882 -1.065267,3.708013l-8.719406,0c-2.761803,0 -4.142704,0 -4.142704,0.040304c0,0.443349 0.394543,0.886699 1.223084,1.370353c0.789087,0.483654 1.73599,0.846394 2.840711,1.088221c0.591815,0.120913 1.144175,0.161218 1.617627,0.161218c0.789087,0 1.893808,-0.201522 3.1958,-0.644872c1.025812,-0.282131 1.657082,-0.443349 1.933262,-0.443349c0.355089,0 0.631269,0.120913 0.828541,0.322436c0.236726,0.36274 0.631269,1.007612 1.104721,1.97492c0.473452,0.967308 0.749632,1.652484 0.749632,2.055529c0,0.80609 -0.631269,1.571875 -1.933262,2.297356c-1.262538,0.80609 -2.603985,1.330048 -3.984887,1.652484c-1.380901,0.322436 -3.037983,0.483654 -4.931791,0.483654c-2.327805,0 -4.10325,-0.201522 -5.365788,-0.644872c-1.262538,-0.443349 -2.603985,-1.370353 -4.063796,-2.78101c-1.420356,-1.450962 -2.406714,-2.821314 -2.959074,-4.191667c-0.512906,-1.370353 -0.789087,-2.942228 -0.789087,-4.796234c0,-2.015224 0.27618,-3.828927 0.867995,-5.481411c0.591815,-1.652484 1.657082,-3.184055 3.274709,-4.554407c1.696536,-1.491266 3.82707,-2.579487 6.431055,-3.184055c0.907449,-0.161218 1.814899,-0.241827 2.761803,-0.241827zm-0.157817,7.295113c-0.789087,0 -1.45981,0.241827 -2.012171,0.685176c-0.591815,0.483654 -0.867995,1.047917 -0.907449,1.773398l-0.039454,0.644872l2.564531,0.161218l2.169988,0.120913l0.27618,0c0.157817,0 0.236726,0 0.27618,-0.040304l0.118363,0l0.118363,0c0.157817,-0.040304 0.197272,-0.241827 0.197272,-0.644872c0,-0.483654 -0.118363,-0.927003 -0.315635,-1.330048c-0.552361,-0.886699 -1.341447,-1.370353 -2.446168,-1.370353z" class="st1"/>
    </g>
   </g>
  </g>
 </g>
</svg>