<svg width="301" height="105" xmlns="http://www.w3.org/2000/svg">
 <style type="text/css">.st0{fill:#BCF7B7;stroke:#FFF8CC;stroke-width:5;stroke-miterlimit:10;}
	.st1{fill:#643527;stroke:#FFF8CC;stroke-width:5;stroke-miterlimit:10;}</style>

 <g>
  <title>background</title>
  <rect fill="none" id="canvas_background" height="107" width="303" y="-1" x="-1"/>
 </g>
 <g>
  <title>Layer 1</title>
  <g stroke="null" id="svg_12">
   <path stroke="null" id="svg_13" d="m257.248607,5.3l-216.497194,0c-21.226979,0 -38.451413,14.822837 -38.451413,33.090144l0,30.419711c0,18.267308 17.224434,33.090144 38.451413,33.090144l216.497194,0c21.226979,0 38.451413,-14.822837 38.451413,-33.090144l0,-30.419711c0,-18.267308 -17.224434,-33.090144 -38.451413,-33.090144z" class="st0"/>
   <g stroke="null" id="svg_14">
    <g stroke="null" id="svg_15">
     <path stroke="null" id="svg_16" d="m37.828206,39.783414c6.116248,0 12.232496,0.116106 18.303772,0.309615c2.518455,0.038702 4.002545,0.232212 4.452269,0.580529c0.404752,0.232212 0.584641,0.696635 0.584641,1.354567l0,1.083654c-0.089945,2.631731 -0.359779,4.141106 -0.899448,4.605529l-0.584641,0.503125l-4.002545,-0.154808l-4.09249,-0.116106l0.044972,7.585577l0,3.676683c0,2.670433 -0.134917,4.373317 -0.359779,5.069952c-0.224862,0.619231 -0.629614,1.19976 -1.12431,1.741587l-0.674586,0.580529l-3.103096,-0.154808c-3.058124,-0.154808 -4.722103,-0.387019 -5.081883,-0.657933c-0.134917,-0.154808 -0.224862,-3.057452 -0.314807,-8.785337c-0.044972,-5.689183 -0.134917,-8.553125 -0.224862,-8.669231c-0.089945,-0.116106 -1.259228,-0.232212 -3.462876,-0.348317c-2.473483,-0.154808 -4.09249,-0.348317 -4.857021,-0.657933c-0.674586,-0.270913 -1.034365,-0.928846 -1.034365,-2.0125l0.044972,-0.503125l0,-0.503125c0.089945,-1.470673 0.269834,-2.515625 0.494697,-3.057452c0.269834,-0.580529 0.764531,-1.00625 1.529062,-1.277163c0.314807,-0.154808 1.798897,-0.19351 4.362324,-0.19351z" class="st1"/>
     <path stroke="null" id="svg_17" d="m64.541819,42.686058c0.359779,-0.19351 1.214255,-0.309615 2.563428,-0.309615c1.394145,0 2.743317,0.077404 4.002545,0.270913c1.259228,0.154808 2.023759,0.387019 2.248621,0.657933c0.269834,0.270913 0.404752,0.503125 0.404752,0.735337c0,0.038702 0.044972,0.038702 0.134917,0.038702c0.224862,0 0.809503,-0.19351 1.663979,-0.580529c1.663979,-0.735337 3.193041,-1.083654 4.542214,-1.083654c1.394145,0 2.833262,0.348317 4.317352,1.044952c1.48409,0.696635 2.203648,1.393269 2.203648,2.167308c0,0.425721 -0.359779,1.238462 -1.034365,2.515625c-0.674586,1.238462 -1.259228,2.20601 -1.798897,2.863942c-0.404752,0.503125 -0.809503,0.774038 -1.259228,0.774038c-0.17989,0 -0.584641,-0.077404 -1.3042,-0.270913c-0.719559,-0.19351 -1.394145,-0.309615 -2.023759,-0.309615c-1.349172,0 -2.473483,0.464423 -3.282986,1.393269c-1.439117,1.586779 -2.158676,5.03125 -2.158676,10.333413l0,0.735337c0,0.774038 -0.044972,1.277163 -0.134917,1.586779c-0.089945,0.309615 -0.359779,0.503125 -0.719559,0.619231c-0.359779,0.116106 -0.989393,0.154808 -1.888841,0.154808l-1.034365,-0.038702l-1.3042,0c-2.78829,-0.077404 -4.407296,-0.232212 -4.812048,-0.464423c-0.494697,-0.270913 -0.719559,-0.580529 -0.764531,-0.890144c-0.134917,-0.387019 -0.17989,-1.664183 -0.17989,-3.870192c0,-3.328365 0.089945,-6.966346 0.269834,-10.836538c0.17989,-3.870192 0.359779,-6.0375 0.584641,-6.463221c0.17989,-0.348317 0.449724,-0.619231 0.764531,-0.774038z" class="st1"/>
     <path stroke="null" id="svg_18" d="m90.086149,42.569952c1.663979,-0.387019 3.103096,-0.580529 4.272379,-0.580529c0.854476,0 1.529062,0.116106 2.023759,0.387019c0.494697,0.270913 0.989393,0.735337 1.48409,1.470673c0.539669,1.044952 1.439117,3.01875 2.653372,5.998798c0.944421,2.322115 1.48409,3.444471 1.574034,3.444471c0.17989,0 1.214255,-1.702885 3.193041,-5.108654c1.798897,-3.01875 2.923207,-4.760337 3.417903,-5.147356c0.494697,-0.464423 1.394145,-0.735337 2.698345,-0.735337c1.978786,0 3.9126,0.387019 5.891386,1.19976c0.629614,0.232212 0.944421,0.619231 0.944421,1.083654c0,0.657933 -1.12431,2.980048 -3.417903,6.966346c-3.238014,5.611779 -6.745862,11.030048 -10.568517,16.254808c-1.259228,1.702885 -2.293593,3.01875 -3.103096,3.986298c-0.854476,0.967548 -1.843869,1.935096 -3.013152,2.902644c-2.338565,2.0125 -5.306745,2.980048 -8.859565,2.980048c-0.944421,0 -2.113703,-0.116106 -3.507848,-0.348317c-1.394145,-0.232212 -2.518455,-0.541827 -3.462876,-0.967548c-1.034365,-0.425721 -1.574034,-0.851442 -1.574034,-1.277163c0,-0.387019 0.269834,-1.00625 0.809503,-1.896394s1.169283,-1.741587 1.843869,-2.515625c0.674586,-0.774038 1.169283,-1.19976 1.48409,-1.277163l0.224862,0c0.404752,0 0.809503,0.077404 1.259228,0.19351c0.539669,0.154808 1.12431,0.270913 1.843869,0.270913c2.293593,0 4.272379,-1.238462 5.981331,-3.715385c0.539669,-0.774038 0.764531,-1.354567 0.764531,-1.741587c0,-0.657933 -0.809503,-2.554327 -2.473483,-5.689183c-1.529062,-2.902644 -2.878234,-5.805288 -4.09249,-8.746635c-1.214255,-2.941346 -1.843869,-4.760337 -1.843869,-5.495673c0,-0.387019 0.17989,-0.657933 0.494697,-0.890144c0.359779,-0.270913 1.349172,-0.619231 3.058124,-1.00625z" class="st1"/>
     <path stroke="null" id="svg_19" d="m145.042438,39.396394c1.529062,0 3.103096,0.038702 4.722103,0.116106c1.619007,0.077404 2.698345,0.232212 3.103096,0.387019c0.404752,0.154808 0.809503,0.619231 1.259228,1.509375c0.494697,0.928846 1.3042,2.786538 2.518455,5.611779c1.619007,3.521875 2.923207,6.347115 4.002545,8.475721c2.6084,5.302163 3.9126,8.359615 3.9126,9.172356c0,0.348317 -0.224862,0.657933 -0.719559,0.928846c-0.899448,0.503125 -2.698345,0.774038 -5.531607,0.774038c-0.17989,0 -0.359779,0 -0.494697,-0.038702l-0.404752,0c-0.854476,-0.077404 -1.439117,-0.270913 -1.843869,-0.580529c-0.359779,-0.309615 -0.719559,-0.967548 -1.034365,-1.896394l-0.494697,-1.354567l-1.394145,-0.116106c-1.439117,-0.154808 -3.462876,-0.19351 -6.116248,-0.19351c-1.3042,0 -2.113703,0 -2.383538,0.038702l-1.933814,0.154808l-0.584641,1.431971c-0.359779,0.851442 -0.674586,1.393269 -0.899448,1.664183c-0.224862,0.232212 -0.719559,0.425721 -1.394145,0.503125c-0.719559,0.116106 -1.843869,0.154808 -3.372931,0.154808c-1.529062,0 -2.563428,-0.077404 -3.148069,-0.19351c-0.584641,-0.154808 -0.854476,-0.464423 -0.854476,-1.044952c0,-0.696635 0.584641,-2.438221 1.753924,-5.22476c1.439117,-3.560577 2.743317,-6.888942 3.957572,-10.0625c2.338565,-6.114904 4.09249,-9.443269 5.351717,-10.023798c0.539669,-0.116106 1.169283,-0.19351 2.023759,-0.19351zm3.058124,9.05625c-0.134917,0 -0.584641,0.928846 -1.394145,2.747837c-0.809503,1.81899 -1.214255,2.902644 -1.214255,3.21226s1.079338,0.464423 3.193041,0.464423c0.719559,0 1.259228,-0.038702 1.619007,-0.116106c0.359779,-0.077404 0.539669,-0.232212 0.539669,-0.503125c0,-0.541827 -0.539669,-1.857692 -1.619007,-3.986298c-0.719559,-1.19976 -1.079338,-1.81899 -1.12431,-1.81899z" class="st1"/>
     <path stroke="null" id="svg_20" d="m175.623678,43.653606c2.158676,0 3.507848,0.116106 4.09249,0.348317c0.584641,0.270913 1.214255,0.580529 1.798897,0.928846l0.899448,0.464423c0.134917,0.038702 0.224862,-0.038702 0.359779,-0.19351c0.269834,-0.464423 0.539669,-0.774038 0.764531,-0.928846c0.224862,-0.154808 0.494697,-0.270913 0.854476,-0.348317s1.034365,-0.077404 1.978786,-0.116106l1.079338,0c2.653372,0 4.407296,0.232212 5.351717,0.657933c0.539669,0.270913 0.899448,0.928846 1.034365,1.896394c0.134917,0.967548 0.17989,3.754087 0.17989,8.398317c0,5.379567 -0.089945,8.978846 -0.314807,10.797837c-0.224862,1.664183 -0.899448,3.405769 -1.978786,5.263462c-1.978786,3.560577 -5.03691,5.689183 -9.039455,6.463221c-1.259228,0.232212 -3.058124,0.348317 -5.261772,0.348317c-1.978786,0 -3.552821,-0.116106 -4.722103,-0.348317c-1.12431,-0.232212 -2.338565,-0.619231 -3.642765,-1.161058c-1.079338,-0.464423 -1.843869,-0.890144 -2.338565,-1.277163c-0.404752,-0.348317 -0.584641,-0.696635 -0.584641,-1.044952c0,-0.232212 0,-0.387019 0.044972,-0.464423c0.134917,-0.696635 0.629614,-1.741587 1.48409,-3.134856c0.854476,-1.393269 1.439117,-2.089904 1.753924,-2.089904c0.269834,0 1.079338,0.232212 2.338565,0.657933c1.753924,0.657933 3.372931,0.967548 4.812048,0.967548s2.6084,-0.425721 3.507848,-1.277163c0.899448,-0.851442 1.529062,-2.051202 1.843869,-3.599279l0.134917,-0.735337l-1.079338,0.464423c-1.888841,0.774038 -3.957572,1.122356 -6.161221,1.122356c-4.722103,0 -8.095034,-1.935096 -10.07382,-5.84399c-0.989393,-1.857692 -1.48409,-3.870192 -1.48409,-6.0375c0,-3.715385 1.48409,-6.501923 4.497241,-8.320913c1.349172,-0.81274 2.968179,-1.431971 4.812048,-1.81899c0.494697,0.038702 1.529062,-0.038702 3.058124,-0.038702zm4.857021,8.320913c-1.574034,0 -2.78829,0.309615 -3.642765,0.967548c-0.854476,0.619231 -1.3042,1.470673 -1.3042,2.438221c0,0.464423 0.134917,0.851442 0.359779,1.238462c0.719559,1.238462 1.933814,1.857692 3.642765,1.857692c0.674586,0 1.349172,-0.116106 1.978786,-0.309615l0.584641,-0.154808l0,-2.0125c0,-2.322115 -0.224862,-3.599279 -0.674586,-3.870192c-0.17989,-0.116106 -0.494697,-0.154808 -0.944421,-0.154808z" class="st1"/>
     <path stroke="null" id="svg_21" d="m216.278739,43.034375c2.248621,0 3.957572,0.116106 5.2168,0.348317c0.899448,0.154808 1.529062,0.464423 1.933814,0.81274c0.404752,0.387019 0.719559,0.967548 0.944421,1.741587c0.134917,0.464423 0.17989,1.973798 0.17989,4.605529c0,5.882692 -0.134917,9.907692 -0.404752,12.036298c-0.134917,1.122356 -0.314807,1.896394 -0.539669,2.322115c-0.224862,0.425721 -0.719559,0.696635 -1.394145,0.81274c-0.719559,0.154808 -2.023759,0.232212 -4.002545,0.309615c-0.539669,0.038702 -1.394145,0.038702 -2.563428,0.038702c-0.899448,0 -1.439117,-0.077404 -1.753924,-0.232212c-0.269834,-0.154808 -0.539669,-0.503125 -0.854476,-1.044952c-0.269834,-0.541827 -0.494697,-0.81274 -0.674586,-0.81274c-0.17989,0 -0.764531,0.232212 -1.843869,0.657933c-1.663979,0.696635 -3.282986,1.044952 -4.812048,1.044952c-1.619007,0 -3.282986,-0.503125 -5.03691,-1.548077c-1.753924,-1.044952 -3.238014,-2.360817 -4.407296,-4.025c-1.169283,-1.664183 -1.753924,-3.328365 -1.753924,-5.069952c0,-0.774038 0.089945,-1.354567 0.224862,-1.81899l0.17989,-0.774038l0.134917,-0.580529c0.134917,-0.774038 0.809503,-2.0125 2.113703,-3.715385c1.978786,-2.631731 4.452269,-4.21851 7.510393,-4.83774c0.584641,-0.116106 1.214255,-0.154808 1.843869,-0.154808c2.248621,0 4.09249,0.464423 5.576579,1.431971c0.404752,0.232212 0.719559,0.348317 0.899448,0.348317c0.17989,0 0.314807,-0.116106 0.314807,-0.348317c0,-0.154808 0.17989,-0.425721 0.494697,-0.81274c0.359779,-0.348317 0.629614,-0.580529 0.944421,-0.696635c0.134917,0 0.629614,-0.038702 1.529062,-0.038702zm-6.386083,7.740385c-0.944421,0 -1.798897,0.232212 -2.563428,0.735337c-0.764531,0.464423 -1.259228,1.122356 -1.574034,1.973798c-0.134917,0.309615 -0.17989,0.619231 -0.17989,0.967548c0,0.890144 0.404752,1.625481 1.259228,2.128606c0.854476,0.541827 1.978786,0.81274 3.417903,0.81274c0.764531,0 1.259228,-0.038702 1.529062,-0.116106c0.269834,-0.077404 0.449724,-0.232212 0.494697,-0.464423c0.089945,-0.232212 0.17989,-0.774038 0.314807,-1.548077c0.17989,-0.928846 0.224862,-1.857692 0.224862,-2.747837c0,-0.503125 -0.044972,-0.851442 -0.134917,-0.967548c-0.089945,-0.116106 -0.359779,-0.270913 -0.854476,-0.425721c-0.494697,-0.232212 -1.169283,-0.348317 -1.933814,-0.348317z" class="st1"/>
     <path stroke="null" id="svg_22" d="m231.839194,45.782212l1.619007,0l0.674586,0c0.539669,0 1.034365,0.038702 1.394145,0.154808c0.314807,0.116106 0.539669,0.232212 0.629614,0.348317c0.089945,0.154808 0.17989,0.425721 0.224862,0.81274c0.089945,0.890144 0.134917,4.063702 0.134917,9.559375c0,5.727885 -0.089945,8.669231 -0.224862,8.824038c-0.314807,0.270913 -1.574034,0.425721 -3.777683,0.425721l-2.158676,0l-1.619007,-0.038702c-0.944421,0 -1.529062,0 -1.663979,-0.038702c-0.404752,-0.038702 -0.719559,-0.154808 -0.944421,-0.348317l-0.494697,-0.425721l-0.044972,-6.966346l0,-2.167308c0,-6.0375 0.224862,-9.24976 0.719559,-9.714183c0.17989,-0.19351 1.48409,-0.309615 3.822655,-0.348317c0.674586,-0.038702 1.3042,-0.038702 1.708952,-0.077404zm-0.809503,-9.559375c1.3042,0 2.473483,0.387019 3.417903,1.19976c0.944421,0.774038 1.439117,1.664183 1.439117,2.631731l0,0.657933c-0.089945,1.00625 -0.539669,1.780288 -1.394145,2.360817c-0.854476,0.580529 -1.978786,0.851442 -3.372931,0.851442l-0.359779,0c-1.394145,-0.077404 -2.518455,-0.425721 -3.372931,-1.044952c-0.854476,-0.619231 -1.3042,-1.470673 -1.3042,-2.438221c0,-0.503125 0.089945,-1.00625 0.314807,-1.431971c0.17989,-0.425721 0.584641,-0.890144 1.12431,-1.431971c1.034365,-0.890144 2.158676,-1.354567 3.507848,-1.354567z" class="st1"/>
     <path stroke="null" id="svg_23" d="m257.833248,42.105529c2.743317,0 4.901993,0.657933 6.476027,1.973798c1.574034,1.315865 2.698345,2.941346 3.372931,4.953846c0.314807,0.928846 0.494697,3.676683 0.539669,8.24351l0,3.250962c0,2.360817 -0.134917,3.676683 -0.359779,3.870192c-0.17989,0.19351 -0.494697,0.309615 -0.944421,0.348317c-0.494697,0.077404 -1.933814,0.116106 -4.317352,0.154808l-4.901993,0.116106l-0.224862,-0.464423c-0.044972,-0.154808 -0.17989,-1.81899 -0.359779,-4.992548c-0.044972,-2.593029 -0.17989,-4.566827 -0.404752,-5.921394c-0.224862,-1.00625 -0.719559,-1.81899 -1.394145,-2.476923c-0.359779,-0.309615 -0.854476,-0.464423 -1.439117,-0.464423c-2.923207,0 -4.362324,2.360817 -4.362324,7.082452c0,1.354567 0,2.244712 0.044972,2.747837c0.044972,0.657933 0.044972,1.702885 0.044972,3.134856c0,0.890144 -0.044972,1.393269 -0.17989,1.509375s-1.259228,0.19351 -3.372931,0.270913c-2.158676,0.077404 -4.002545,0.116106 -5.621552,0.116106c-0.629614,0 -1.079338,-0.038702 -1.3042,-0.116106c-0.224862,-0.077404 -0.359779,-0.232212 -0.449724,-0.464423c-0.089945,-0.232212 -0.134917,-0.657933 -0.17989,-1.277163c-0.044972,-0.425721 -0.044972,-1.973798 -0.044972,-4.682933l-0.044972,-4.644231l0,-5.108654l-0.044972,-3.715385c0,-0.967548 0.089945,-1.625481 0.224862,-2.051202c0.134917,-0.387019 0.449724,-0.657933 0.854476,-0.774038c0.449724,-0.116106 1.169283,-0.19351 2.203648,-0.19351l3.013152,0c2.203648,0 3.552821,0.077404 4.002545,0.270913c0.404752,0.154808 0.584641,0.696635 0.584641,1.664183c0,0.81274 0.044972,1.238462 0.17989,1.238462s0.584641,-0.309615 1.394145,-0.967548c1.394145,-1.083654 2.878234,-1.857692 4.362324,-2.20601c0.809503,-0.309615 1.708952,-0.425721 2.653372,-0.425721z" class="st1"/>
    </g>
   </g>
  </g>
 </g>
</svg>