<svg width="530" height="210" xmlns="http://www.w3.org/2000/svg">
 <style type="text/css">.st0{fill:#BCF7B7;stroke:#FFF8CC;stroke-width:5;stroke-miterlimit:10;}
	.st1{fill:#643527;stroke:#FFF8CC;stroke-width:5;stroke-miterlimit:10;}</style>

 <g>
  <title>background</title>
  <rect fill="none" id="canvas_background" height="212" width="532" y="-1" x="-1"/>
 </g>
 <g>
  <title>Layer 1</title>
  <g id="svg_1">
   <path id="svg_2" d="m459.2,5.8l-387.4,0c-38,0 -68.8,30.8 -68.8,68.8l0,63.3c0,38 30.8,68.8 68.8,68.8l387.5,0c38,0 68.8,-30.8 68.8,-68.8l0,-63.3c0,-38 -30.8,-68.8 -68.9,-68.8z" class="st0"/>
   <g id="svg_3">
    <g id="svg_4">
     <path id="svg_5" d="m135.8,75.9c4.6,0 9.3,0.7 14,2.1c2.1,0.6 3.5,1.3 4.3,1.9c0.8,0.6 1.2,1.5 1.2,2.5c0,0.8 -0.6,2.7 -1.7,5.7c-1.1,3 -2.1,5.4 -3.1,7.1c-0.3,0.7 -0.8,1.1 -1.5,1.1c-0.4,0 -1.3,-0.3 -2.7,-0.9c-2.8,-1.2 -5.5,-1.8 -8.3,-1.8l-0.6,0l-0.5,0.1c-2.1,0.3 -4.1,1.2 -6.2,2.7c-2,1.5 -3.5,3.2 -4.5,5.2c-0.8,1.7 -1.2,3.6 -1.2,5.7c0,3.6 1,6.5 3.1,8.7c2,2.1 5.4,3.2 10,3.2c2.8,0 5.4,-0.5 7.7,-1.6c0.9,-0.5 1.9,-0.8 3,-0.8c0.8,0 1.4,0.2 1.8,0.6c0.6,0.6 1.4,2.2 2.6,4.8c1.2,2.5 1.8,4.2 2,5.1c0.1,0.1 0.1,0.5 0.1,1c0,1.2 -0.6,2.2 -1.7,2.9c-1.1,0.9 -3.4,1.8 -6.8,2.9c-4.8,1.6 -8.9,2.5 -12.4,2.5l-1.9,0c-4.3,-0.2 -7.7,-0.9 -10.4,-2c-2.6,-1.1 -5.3,-3.1 -8,-5.8c-6,-5.9 -9,-13.6 -9,-23.1c0,-2.4 0.1,-4.1 0.4,-5.2c0.7,-3.6 2.3,-7.2 4.7,-10.6c2.4,-3.4 5.4,-6.3 8.9,-8.7c3.5,-2.4 7.1,-4 10.9,-4.8c2.1,-0.3 4,-0.5 5.8,-0.5z" class="st1"/>
     <path id="svg_6" d="m160.9,84c0.6,-0.4 2.2,-0.6 4.6,-0.6c2.5,0 4.9,0.2 7.1,0.5c2.3,0.4 3.6,0.8 4,1.4c0.5,0.6 0.8,1.1 0.8,1.5c0,0.1 0.1,0.1 0.2,0.1c0.4,0 1.4,-0.4 3,-1.2c3,-1.5 5.7,-2.3 8.2,-2.3c2.5,0 5.1,0.7 7.7,2.1c2.6,1.4 4,2.9 4,4.5c0,0.9 -0.6,2.6 -1.8,5.2c-1.2,2.6 -2.3,4.6 -3.2,6c-0.7,1.1 -1.5,1.6 -2.3,1.6c-0.3,0 -1.1,-0.2 -2.4,-0.5c-1.3,-0.4 -2.5,-0.6 -3.6,-0.6c-2.4,0 -4.4,1 -5.9,2.9c-2.6,3.3 -3.9,10.4 -3.9,21.5l0,1.5c0,1.6 -0.1,2.7 -0.3,3.3c-0.2,0.6 -0.6,1.1 -1.3,1.3c-0.7,0.2 -1.8,0.3 -3.4,0.3l-1.8,-0.1l-2.4,0c-5,-0.1 -7.9,-0.5 -8.6,-1c-0.9,-0.6 -1.3,-1.2 -1.4,-1.8c-0.2,-0.8 -0.3,-3.5 -0.3,-8c0,-6.9 0.2,-14.4 0.5,-22.5c0.3,-8.1 0.7,-12.6 1,-13.4c0.5,-0.8 1,-1.4 1.5,-1.7z" class="st1"/>
     <path id="svg_7" d="m229.3,80.5l1.4,0c2.9,0.1 5.3,0.6 7,1.5s3.8,2.5 6.3,5c3.9,3.9 6.3,8 7.4,12.4c0.4,1.8 0.5,3.3 0.5,4.5c0,4.4 -0.7,6.8 -2.1,7.4l-17.8,0c-5.7,0 -8.5,0 -8.5,0.1c0,0.9 0.8,1.8 2.5,2.7c1.6,1 3.6,1.7 5.8,2.2c1.2,0.2 2.3,0.3 3.3,0.3c1.6,0 3.8,-0.4 6.5,-1.3c2.1,-0.6 3.4,-0.9 4,-0.9c0.7,0 1.3,0.2 1.7,0.6c0.5,0.7 1.3,2 2.3,4c1,1.9 1.5,3.3 1.5,4.1c0,1.6 -1.3,3.1 -4,4.6c-2.6,1.6 -5.3,2.7 -8.1,3.3c-2.8,0.6 -6.2,1 -10,1c-4.7,0 -8.4,-0.4 -10.9,-1.3c-2.6,-0.9 -5.3,-2.7 -8.3,-5.6c-2.9,-2.9 -4.9,-5.7 -6,-8.4c-1.1,-2.7 -1.6,-5.9 -1.6,-9.6c0,-4 0.6,-7.7 1.8,-10.9c1.2,-3.3 3.4,-6.3 6.7,-9.1c3.4,-3 7.8,-5.1 13.1,-6.3c1.7,-0.1 3.6,-0.3 5.5,-0.3zm-0.3,14.6c-1.6,0 -3,0.5 -4.1,1.4c-1.2,0.9 -1.8,2.1 -1.9,3.5l-0.1,1.3l5.3,0.3l4.4,0.2l0.5,0c0.3,0 0.5,0 0.5,-0.1l0.2,0l0.2,0c0.3,-0.1 0.4,-0.5 0.4,-1.3c0,-0.9 -0.2,-1.8 -0.6,-2.7c-0.9,-1.7 -2.5,-2.6 -4.8,-2.6z" class="st1"/>
     <path id="svg_8" d="m295.6,70c4.4,0 7.1,0.1 8,0.3c1,0.2 1.9,0.7 2.6,1.5l1,1.1l-0.2,28.1c-0.1,17 -0.3,26.5 -0.8,28.5c-0.3,0.8 -0.8,1.4 -1.6,1.7l-0.4,0.2c-0.9,0.4 -2.9,0.5 -6,0.5l-2.4,0c-4.1,-0.1 -6.6,-0.3 -7.4,-0.5c-1.2,-0.4 -2.1,-1 -2.6,-2c0,-0.1 -0.2,-0.4 -0.5,-0.9c-0.3,-0.2 -0.5,-0.3 -0.5,-0.2l-3.1,1.3c-1.8,0.8 -4.3,1.2 -7.5,1.2c-2.9,0 -5,-0.1 -6.2,-0.3c-1.2,-0.2 -2.7,-0.8 -4.4,-1.6c-5.4,-2.6 -8.7,-6.8 -9.7,-12.3c-0.4,-2.4 -0.5,-4.3 -0.5,-5.8c0,-5 1.1,-9.5 3.2,-13.5c2.1,-4 4.8,-7.1 8.2,-9.3c3.3,-2.2 6.7,-3.3 10.2,-3.3c3.4,0 6.6,1 9.7,3c0.7,0.5 1.1,0.7 1.3,0.5c0.1,-0.1 0.3,-2.5 0.6,-7.3c0.4,-4.8 0.6,-7.5 0.9,-8.3c0.4,-1.2 1.4,-2 3,-2.4c1,-0.1 2.7,-0.2 5.1,-0.2zm-11.9,31.7c-0.9,-0.6 -2,-1 -3.2,-1c-1.1,0 -2.4,0.4 -3.9,1.2c-2.4,1.6 -3.6,3.7 -3.6,6.4c0,1.8 0.6,3.5 1.9,5.1c1.3,1.6 3,2.4 5.3,2.4c1,0 2.1,-0.2 3.3,-0.6l1.6,-0.5l0,-12l-1.4,-1z" class="st1"/>
     <path id="svg_9" d="m321,90.4l2.9,0l1.2,0c1,0 1.8,0.1 2.5,0.3c0.6,0.2 0.9,0.5 1.1,0.8c0.2,0.3 0.3,0.9 0.4,1.7c0.1,1.9 0.2,8.5 0.2,19.9c0,11.9 -0.1,18.1 -0.4,18.3c-0.6,0.6 -2.8,0.9 -6.8,0.9l-3.9,0l-2.9,-0.1c-1.7,0 -2.7,0 -3,-0.1c-0.7,-0.1 -1.3,-0.3 -1.7,-0.8l-0.9,-0.9l-0.1,-14.5l0,-4.5c0,-12.5 0.4,-19.2 1.3,-20.2c0.4,-0.4 2.6,-0.7 6.9,-0.8c1.4,0.1 2.4,0.1 3.2,0zm-1.5,-19.8c2.4,0 4.4,0.8 6.1,2.5c1.7,1.6 2.6,3.5 2.6,5.5l0,1.4c-0.1,2.1 -1,3.7 -2.5,4.9c-1.5,1.2 -3.5,1.8 -6,1.8l-0.6,0c-2.5,-0.1 -4.5,-0.9 -6.1,-2.2c-1.5,-1.3 -2.3,-3 -2.3,-5.1c0,-1.1 0.2,-2.1 0.5,-3c0.4,-0.9 1,-1.9 2,-3c1.9,-1.9 4,-2.8 6.3,-2.8z" class="st1"/>
     <path id="svg_10" d="m347.2,70c0,0 2,0 5.9,0c4,0 6.5,0.1 7.5,0.2c1.2,0.3 1.9,0.6 2.2,0.8c0.3,0.3 0.4,0.8 0.4,1.7l-0.2,5.7l-0.2,3.4l-0.1,1.3l5.2,0.1c1,0 1.7,0 2.1,0.1c1.8,0 3,0.1 3.5,0.4c0.6,0.3 0.9,1 1.1,2.3c0.1,1.2 0.2,3.7 0.2,7.5l0,1.8c0,2 -0.1,3.4 -0.3,4.1c-0.2,0.7 -0.6,1.2 -1.2,1.4c-0.6,0.2 -1.8,0.3 -3.5,0.3l-6.8,0l-0.3,2.3c-0.1,1.7 -0.2,2.8 -0.2,3.2c0,7.4 1.9,11.2 5.7,11.2c0.8,0 1.8,-0.4 3.1,-1.1c1.3,-0.8 2.1,-1.3 2.4,-1.7c0.2,-0.3 0.5,-0.4 0.8,-0.4c0.6,0 1.5,0.5 2.5,1.5c1.1,1.1 2.2,2.5 3.3,4.1c1,1.6 1.6,2.7 1.6,3.3c0,0.9 -1,2.1 -3,3.6c-2,1.6 -4.3,3 -6.9,4.2c-3.4,1.6 -7.2,2.4 -11.2,2.4c-2.5,0 -4.7,-0.4 -6.5,-1.3s-3.8,-2.4 -5.8,-4.5c-2.4,-2.4 -4.2,-5 -5.3,-7.8c-1.1,-2.8 -1.6,-7 -1.6,-12.7l0,-2.5l0,-1.5c-0.1,-0.2 -0.1,-0.6 -0.1,-1.1c0,-0.4 -0.1,-0.6 -0.2,-0.8l-0.4,-0.4c-0.1,-0.2 -0.6,-0.3 -1.5,-0.3l-1.3,-0.1l-1.7,0c-1.5,-0.1 -2.5,-0.2 -2.9,-0.3c-0.4,-0.1 -0.8,-0.4 -1.2,-1c-0.3,-0.5 -0.4,-1.4 -0.4,-2.8c0,-1.9 0,-3.3 0.1,-4c0.1,-2.1 0.2,-3.5 0.2,-4.1c0.1,-0.9 0.1,-1.7 0.2,-2.4c0,-0.6 0.1,-1.1 0.2,-1.3l0.4,-1.5l4.4,-0.2c2.1,-0.1 3.4,-0.2 3.9,-0.3c0.4,-0.1 0.6,-0.4 0.6,-0.6c0.1,-1.6 0.2,-3.8 0.5,-6.5c0.2,-2.8 0.5,-4.3 0.7,-4.5c0.4,-0.4 1.2,-0.8 2.5,-1c1,-0.1 1.6,-0.2 1.6,-0.2z" class="st1"/>
     <path id="svg_11" d="m403.9,81.5l1.9,0c2.1,0 4.4,0.3 7,0.8c2.6,0.5 5,1.1 7.1,1.8c2.1,0.6 3.4,1.1 3.8,1.3c0.7,0.5 1.1,1.3 1.1,2.4c0,1.1 -0.3,2.8 -1,5c-0.6,2.2 -1.2,3.8 -1.6,4.8c-0.4,0.8 -0.9,1.2 -1.6,1.2c-0.7,0 -1.8,-0.4 -3.3,-1.1c-3.1,-1.3 -5.7,-1.9 -7.6,-1.9c-0.6,0 -1.1,0.1 -1.7,0.3c-0.6,0.2 -0.9,0.5 -0.9,0.9c0,0.4 0.3,0.8 0.8,1.2c0.7,0.6 3.1,1.1 7.1,1.7c3.3,0.4 5.9,1.2 7.8,2.3c1.9,1.1 3.5,2.8 4.7,5.2c1.1,1.9 1.6,4.2 1.6,6.9c0,3.1 -0.8,6 -2.4,8.9c-1.6,2.8 -3.8,5.1 -6.6,6.8c-3.1,1.8 -6.9,2.7 -11.6,2.7c-4.6,0 -9.1,-0.8 -13.5,-2.5c-4.4,-1.7 -7.9,-3.9 -10.5,-6.6c-1.1,-1.2 -1.6,-2.1 -1.6,-2.7c0,-0.6 0.6,-1.6 1.9,-3.2c1.3,-1.5 2.7,-3 4.1,-4.5c1.5,-1.4 2.3,-2.1 2.6,-2.1c0.2,0 1.1,0.6 2.7,1.8c3.1,2.4 6.4,3.6 9.8,3.9l1.4,0c1.1,0 2,-0.2 2.6,-0.7c0.6,-0.5 0.9,-1.1 0.9,-1.8c0,-0.9 -0.6,-1.7 -1.8,-2.4c-1.2,-0.7 -3.3,-1.2 -6.2,-1.7c-7.5,-1.2 -12.4,-4.1 -14.6,-8.7c-0.7,-1.4 -1.1,-2.9 -1.1,-4.6c0,-2 0.6,-4.1 1.7,-6.2c1.1,-2.1 2.7,-4 4.7,-5.5c2,-1.6 4.1,-2.6 6.5,-3.2c1.4,-0.4 3.4,-0.5 5.8,-0.5z" class="st1"/>
    </g>
   </g>
  </g>
 </g>
</svg>