<svg width="283" height="116" xmlns="http://www.w3.org/2000/svg">
 <style type="text/css">.st0{fill:#BCF7B7;stroke:#FFF8CC;stroke-width:5;stroke-miterlimit:10;}
	.st1{fill:#643527;stroke:#FFF8CC;stroke-width:5;stroke-miterlimit:10;}</style>

 <g>
  <title>background</title>
  <rect fill="none" id="canvas_background" height="118" width="285" y="-1" x="-1"/>
 </g>
 <g>
  <title>Layer 1</title>
  <g stroke="null" id="svg_1">
   <path stroke="null" id="svg_2" d="m240.528107,3.8l-200.007869,0c-19.618738,0 -35.520241,16.542161 -35.520241,36.95132l0,33.997363c0,20.409159 15.901503,36.95132 35.520241,36.95132l200.059498,0c19.618738,0 35.520241,-16.542161 35.520241,-36.95132l0,-33.997363c0,-20.409159 -15.901503,-36.95132 -35.571869,-36.95132z" class="st0"/>
   <g stroke="null" id="svg_3">
    <g stroke="null" id="svg_4">
     <path stroke="null" id="svg_5" d="m73.562323,41.449528c2.3749,0 4.801428,0.375958 7.227956,1.127875c1.084193,0.32225 1.806989,0.698208 2.220015,1.020458c0.413026,0.32225 0.619539,0.805625 0.619539,1.342708c0,0.429667 -0.30977,1.450124 -0.87768,3.061374c-0.567911,1.611249 -1.084193,2.900249 -1.600476,3.81329c-0.154885,0.375958 -0.413026,0.590791 -0.774424,0.590791c-0.206513,0 -0.671167,-0.161125 -1.393963,-0.483375c-1.445591,-0.6445 -2.839554,-0.96675 -4.285145,-0.96675l-0.30977,0l-0.258141,0.053708c-1.084193,0.161125 -2.116759,0.6445 -3.200952,1.450124c-1.032565,0.805625 -1.806989,1.718666 -2.323272,2.792832c-0.413026,0.913041 -0.619539,1.933499 -0.619539,3.061374c0,1.933499 0.516283,3.49104 1.600476,4.672623c1.032565,1.127875 2.787926,1.718666 5.162826,1.718666c1.445591,0 2.787926,-0.268542 3.975376,-0.859333c0.464654,-0.268542 0.980937,-0.429667 1.548848,-0.429667c0.413026,0 0.722796,0.107417 0.929309,0.32225c0.30977,0.32225 0.722796,1.181583 1.342335,2.577999c0.619539,1.342708 0.929309,2.255749 1.032565,2.739124c0.051628,0.053708 0.051628,0.268542 0.051628,0.537083c0,0.6445 -0.30977,1.181583 -0.87768,1.557541c-0.567911,0.483375 -1.755361,0.96675 -3.510722,1.557541c-2.478156,0.859333 -4.594915,1.342708 -6.401904,1.342708l-0.980937,0c-2.220015,-0.107417 -3.975376,-0.483375 -5.369339,-1.074166c-1.342335,-0.590791 -2.736298,-1.664958 -4.130261,-3.115082c-3.097695,-3.168791 -4.646543,-7.304331 -4.646543,-12.40662c0,-1.289 0.051628,-2.202041 0.206513,-2.792832c0.361398,-1.933499 1.18745,-3.866999 2.426528,-5.693081c1.239078,-1.826083 2.787926,-3.383624 4.594915,-4.672623c1.806989,-1.289 3.665606,-2.148333 5.62748,-2.577999c1.084193,-0.161125 2.06513,-0.268542 2.994439,-0.268542z" class="st1"/>
     <path stroke="null" id="svg_6" d="m86.521015,45.799901c0.30977,-0.214833 1.135822,-0.32225 2.3749,-0.32225c1.290706,0 2.529785,0.107417 3.665606,0.268542c1.18745,0.214833 1.858617,0.429667 2.06513,0.751916c0.258141,0.32225 0.413026,0.590791 0.413026,0.805625c0,0.053708 0.051628,0.053708 0.103257,0.053708c0.206513,0 0.722796,-0.214833 1.548848,-0.6445c1.548848,-0.805625 2.942811,-1.235291 4.233517,-1.235291c1.290706,0 2.633041,0.375958 3.975376,1.127875c1.342335,0.751916 2.06513,1.557541 2.06513,2.416874c0,0.483375 -0.30977,1.396416 -0.929309,2.792832c-0.619539,1.396416 -1.18745,2.470582 -1.652104,3.222499c-0.361398,0.590791 -0.774424,0.859333 -1.18745,0.859333c-0.154885,0 -0.567911,-0.107417 -1.239078,-0.268542c-0.671167,-0.214833 -1.290706,-0.32225 -1.858617,-0.32225c-1.239078,0 -2.271643,0.537083 -3.046067,1.557541c-1.342335,1.772374 -2.013502,5.585665 -2.013502,11.547287l0,0.805625c0,0.859333 -0.051628,1.450124 -0.154885,1.772374c-0.103257,0.32225 -0.30977,0.590791 -0.671167,0.698208c-0.361398,0.107417 -0.929309,0.161125 -1.755361,0.161125l-0.929309,-0.053708l-1.239078,0c-2.581413,-0.053708 -4.078632,-0.268542 -4.44003,-0.537083c-0.464654,-0.32225 -0.671167,-0.6445 -0.722796,-0.96675c-0.103257,-0.429667 -0.154885,-1.879791 -0.154885,-4.296665c0,-3.705874 0.103257,-7.733997 0.258141,-12.084371c0.154885,-4.350373 0.361398,-6.767248 0.516283,-7.196914c0.258141,-0.429667 0.516283,-0.751916 0.774424,-0.913041z" class="st1"/>
     <path stroke="null" id="svg_7" d="m121.834743,43.92011l0.722796,0c1.497219,0.053708 2.736298,0.32225 3.613978,0.805625s1.961874,1.342708 3.25258,2.685416c2.013502,2.094624 3.25258,4.296665 3.820491,6.659831c0.206513,0.96675 0.258141,1.772374 0.258141,2.416874c0,2.363166 -0.361398,3.652165 -1.084193,3.974415l-9.18983,0c-2.942811,0 -4.388402,0 -4.388402,0.053708c0,0.483375 0.413026,0.96675 1.290706,1.450124c0.826052,0.537083 1.858617,0.913041 2.994439,1.181583c0.619539,0.107417 1.18745,0.161125 1.703732,0.161125c0.826052,0 1.961874,-0.214833 3.355837,-0.698208c1.084193,-0.32225 1.755361,-0.483375 2.06513,-0.483375c0.361398,0 0.671167,0.107417 0.87768,0.32225c0.258141,0.375958 0.671167,1.074166 1.18745,2.148333c0.516283,1.020458 0.774424,1.772374 0.774424,2.202041c0,0.859333 -0.671167,1.664958 -2.06513,2.470582c-1.342335,0.859333 -2.736298,1.450124 -4.181889,1.772374c-1.445591,0.32225 -3.200952,0.537083 -5.162826,0.537083c-2.426528,0 -4.336774,-0.214833 -5.62748,-0.698208c-1.342335,-0.483375 -2.736298,-1.450124 -4.285145,-3.007666c-1.497219,-1.557541 -2.529785,-3.061374 -3.097695,-4.511498c-0.567911,-1.450124 -0.826052,-3.168791 -0.826052,-5.155998c0,-2.148333 0.30977,-4.13554 0.929309,-5.854206c0.619539,-1.772374 1.755361,-3.383624 3.459093,-4.887457c1.755361,-1.611249 4.027004,-2.739124 6.763302,-3.383624c0.87768,-0.053708 1.858617,-0.161125 2.839554,-0.161125zm-0.154885,7.841414c-0.826052,0 -1.548848,0.268542 -2.116759,0.751916c-0.619539,0.483375 -0.929309,1.127875 -0.980937,1.879791l-0.051628,0.698208l2.736298,0.161125l2.271643,0.107417l0.258141,0c0.154885,0 0.258141,0 0.258141,-0.053708l0.103257,0l0.103257,0c0.154885,-0.053708 0.206513,-0.268542 0.206513,-0.698208c0,-0.483375 -0.103257,-0.96675 -0.30977,-1.450124c-0.464654,-0.913041 -1.290706,-1.396416 -2.478156,-1.396416z" class="st1"/>
     <path stroke="null" id="svg_8" d="m156.064278,38.280737c2.271643,0 3.665606,0.053708 4.130261,0.161125c0.516283,0.107417 0.980937,0.375958 1.342335,0.805625l0.516283,0.590791l-0.103257,15.092036c-0.051628,9.130413 -0.154885,14.232703 -0.413026,15.306869c-0.154885,0.429667 -0.413026,0.751916 -0.826052,0.913041l-0.206513,0.107417c-0.464654,0.214833 -1.497219,0.268542 -3.097695,0.268542l-1.239078,0c-2.116759,-0.053708 -3.407465,-0.161125 -3.820491,-0.268542c-0.619539,-0.214833 -1.084193,-0.537083 -1.342335,-1.074166c0,-0.053708 -0.103257,-0.214833 -0.258141,-0.483375c-0.154885,-0.107417 -0.258141,-0.161125 -0.258141,-0.107417l-1.600476,0.698208c-0.929309,0.429667 -2.220015,0.6445 -3.872119,0.6445c-1.497219,0 -2.581413,-0.053708 -3.200952,-0.161125c-0.619539,-0.107417 -1.393963,-0.429667 -2.271643,-0.859333c-2.787926,-1.396416 -4.491658,-3.652165 -5.007941,-6.606123c-0.206513,-1.289 -0.258141,-2.309457 -0.258141,-3.115082c0,-2.685416 0.567911,-5.10229 1.652104,-7.250622c1.084193,-2.148333 2.478156,-3.81329 4.233517,-4.994873c1.703732,-1.181583 3.459093,-1.772374 5.266082,-1.772374c1.755361,0 3.407465,0.537083 5.007941,1.611249c0.361398,0.268542 0.567911,0.375958 0.671167,0.268542c0.051628,-0.053708 0.154885,-1.342708 0.30977,-3.920707c0.206513,-2.577999 0.30977,-4.028124 0.464654,-4.45779c0.206513,-0.6445 0.722796,-1.074166 1.548848,-1.289c0.516283,-0.053708 1.393963,-0.107417 2.633041,-0.107417zm-6.143763,17.025535c-0.464654,-0.32225 -1.032565,-0.537083 -1.652104,-0.537083c-0.567911,0 -1.239078,0.214833 -2.013502,0.6445c-1.239078,0.859333 -1.858617,1.987208 -1.858617,3.437332c0,0.96675 0.30977,1.879791 0.980937,2.739124c0.671167,0.859333 1.548848,1.289 2.736298,1.289c0.516283,0 1.084193,-0.107417 1.703732,-0.32225l0.826052,-0.268542l0,-6.444998l-0.722796,-0.537083z" class="st1"/>
     <path stroke="null" id="svg_9" d="m169.177856,49.237233l1.497219,0l0.619539,0c0.516283,0 0.929309,0.053708 1.290706,0.161125c0.30977,0.107417 0.464654,0.268542 0.567911,0.429667c0.103257,0.161125 0.154885,0.483375 0.206513,0.913041c0.051628,1.020458 0.103257,4.565207 0.103257,10.687954c0,6.391289 -0.051628,9.721205 -0.206513,9.828621c-0.30977,0.32225 -1.445591,0.483375 -3.510722,0.483375l-2.013502,0l-1.497219,-0.053708c-0.87768,0 -1.393963,0 -1.548848,-0.053708c-0.361398,-0.053708 -0.671167,-0.161125 -0.87768,-0.429667l-0.464654,-0.483375l-0.051628,-7.787705l0,-2.416874c0,-6.713539 0.206513,-10.311996 0.671167,-10.849079c0.206513,-0.214833 1.342335,-0.375958 3.56235,-0.429667c0.722796,0.053708 1.239078,0.053708 1.652104,0zm-0.774424,-10.634246c1.239078,0 2.271643,0.429667 3.149324,1.342708c0.87768,0.859333 1.342335,1.879791 1.342335,2.953957l0,0.751916c-0.051628,1.127875 -0.516283,1.987208 -1.290706,2.631707c-0.774424,0.6445 -1.806989,0.96675 -3.097695,0.96675l-0.30977,0c-1.290706,-0.053708 -2.323272,-0.483375 -3.149324,-1.181583c-0.774424,-0.698208 -1.18745,-1.611249 -1.18745,-2.739124c0,-0.590791 0.103257,-1.127875 0.258141,-1.611249c0.206513,-0.483375 0.516283,-1.020458 1.032565,-1.611249c0.980937,-1.020458 2.06513,-1.503833 3.25258,-1.503833z" class="st1"/>
     <path stroke="null" id="svg_10" d="m182.704459,38.280737c0,0 1.032565,0 3.046067,0c2.06513,0 3.355837,0.053708 3.872119,0.107417c0.619539,0.161125 0.980937,0.32225 1.135822,0.429667c0.154885,0.161125 0.206513,0.429667 0.206513,0.913041l-0.103257,3.061374l-0.103257,1.826083l-0.051628,0.698208l2.684669,0.053708c0.516283,0 0.87768,0 1.084193,0.053708c0.929309,0 1.548848,0.053708 1.806989,0.214833c0.30977,0.161125 0.464654,0.537083 0.567911,1.235291c0.051628,0.6445 0.103257,1.987208 0.103257,4.028124l0,0.96675c0,1.074166 -0.051628,1.826083 -0.154885,2.202041c-0.103257,0.375958 -0.30977,0.6445 -0.619539,0.751916c-0.30977,0.107417 -0.929309,0.161125 -1.806989,0.161125l-3.510722,0l-0.154885,1.235291c-0.051628,0.913041 -0.103257,1.503833 -0.103257,1.718666c0,3.974415 0.980937,6.015331 2.942811,6.015331c0.413026,0 0.929309,-0.214833 1.600476,-0.590791c0.671167,-0.429667 1.084193,-0.698208 1.239078,-0.913041c0.103257,-0.161125 0.258141,-0.214833 0.413026,-0.214833c0.30977,0 0.774424,0.268542 1.290706,0.805625c0.567911,0.590791 1.135822,1.342708 1.703732,2.202041c0.516283,0.859333 0.826052,1.450124 0.826052,1.772374c0,0.483375 -0.516283,1.127875 -1.548848,1.933499c-1.032565,0.859333 -2.220015,1.611249 -3.56235,2.255749c-1.755361,0.859333 -3.717235,1.289 -5.782365,1.289c-1.290706,0 -2.426528,-0.214833 -3.355837,-0.698208s-1.961874,-1.289 -2.994439,-2.416874c-1.239078,-1.289 -2.168387,-2.685416 -2.736298,-4.189248c-0.567911,-1.503833 -0.826052,-3.759582 -0.826052,-6.820956l0,-1.342708l0,-0.805625c-0.051628,-0.107417 -0.051628,-0.32225 -0.051628,-0.590791c0,-0.214833 -0.051628,-0.32225 -0.103257,-0.429667l-0.206513,-0.214833c-0.051628,-0.107417 -0.30977,-0.161125 -0.774424,-0.161125l-0.671167,-0.053708l-0.87768,0c-0.774424,-0.053708 -1.290706,-0.107417 -1.497219,-0.161125c-0.206513,-0.053708 -0.413026,-0.214833 -0.619539,-0.537083c-0.154885,-0.268542 -0.206513,-0.751916 -0.206513,-1.503833c0,-1.020458 0,-1.772374 0.051628,-2.148333c0.051628,-1.127875 0.103257,-1.879791 0.103257,-2.202041c0.051628,-0.483375 0.051628,-0.913041 0.103257,-1.289c0,-0.32225 0.051628,-0.590791 0.103257,-0.698208l0.206513,-0.805625l2.271643,-0.107417c1.084193,-0.053708 1.755361,-0.107417 2.013502,-0.161125c0.206513,-0.053708 0.30977,-0.214833 0.30977,-0.32225c0.051628,-0.859333 0.103257,-2.040916 0.258141,-3.49104c0.103257,-1.503833 0.258141,-2.309457 0.361398,-2.416874c0.206513,-0.214833 0.619539,-0.429667 1.290706,-0.537083c0.516283,-0.053708 0.826052,-0.107417 0.826052,-0.107417z" class="st1"/>
     <path stroke="null" id="svg_11" d="m211.977681,44.457194l0.980937,0c1.084193,0 2.271643,0.161125 3.613978,0.429667c1.342335,0.268542 2.581413,0.590791 3.665606,0.96675c1.084193,0.32225 1.755361,0.590791 1.961874,0.698208c0.361398,0.268542 0.567911,0.698208 0.567911,1.289c0,0.590791 -0.154885,1.503833 -0.516283,2.685416c-0.30977,1.181583 -0.619539,2.040916 -0.826052,2.577999c-0.206513,0.429667 -0.464654,0.6445 -0.826052,0.6445c-0.361398,0 -0.929309,-0.214833 -1.703732,-0.590791c-1.600476,-0.698208 -2.942811,-1.020458 -3.923748,-1.020458c-0.30977,0 -0.567911,0.053708 -0.87768,0.161125c-0.30977,0.107417 -0.464654,0.268542 -0.464654,0.483375c0,0.214833 0.154885,0.429667 0.413026,0.6445c0.361398,0.32225 1.600476,0.590791 3.665606,0.913041c1.703732,0.214833 3.046067,0.6445 4.027004,1.235291c0.980937,0.590791 1.806989,1.503833 2.426528,2.792832c0.567911,1.020458 0.826052,2.255749 0.826052,3.705874c0,1.664958 -0.413026,3.222499 -1.239078,4.78004c-0.826052,1.503833 -1.961874,2.739124 -3.407465,3.652165c-1.600476,0.96675 -3.56235,1.450124 -5.988878,1.450124c-2.3749,0 -4.698171,-0.429667 -6.969815,-1.342708c-2.271643,-0.913041 -4.078632,-2.094624 -5.420967,-3.544749c-0.567911,-0.6445 -0.826052,-1.127875 -0.826052,-1.450124c0,-0.32225 0.30977,-0.859333 0.980937,-1.718666c0.671167,-0.805625 1.393963,-1.611249 2.116759,-2.416874c0.774424,-0.751916 1.18745,-1.127875 1.342335,-1.127875c0.103257,0 0.567911,0.32225 1.393963,0.96675c1.600476,1.289 3.304208,1.933499 5.059569,2.094624l0.722796,0c0.567911,0 1.032565,-0.107417 1.342335,-0.375958c0.30977,-0.268542 0.464654,-0.590791 0.464654,-0.96675c0,-0.483375 -0.30977,-0.913041 -0.929309,-1.289c-0.619539,-0.375958 -1.703732,-0.6445 -3.200952,-0.913041c-3.872119,-0.6445 -6.401904,-2.202041 -7.537726,-4.672623c-0.361398,-0.751916 -0.567911,-1.557541 -0.567911,-2.470582c0,-1.074166 0.30977,-2.202041 0.87768,-3.329915c0.567911,-1.127875 1.393963,-2.148333 2.426528,-2.953957c1.032565,-0.859333 2.116759,-1.396416 3.355837,-1.718666c0.722796,-0.214833 1.755361,-0.268542 2.994439,-0.268542z" class="st1"/>
    </g>
   </g>
  </g>
 </g>
</svg>