<?xml version="1.0" encoding="utf-8"?>
<!-- Generator: Adobe Illustrator 21.0.0, SVG Export Plug-In . SVG Version: 6.00 Build 0)  -->
<svg version="1.1" id="Capa_1" xmlns="http://www.w3.org/2000/svg" xmlns:xlink="http://www.w3.org/1999/xlink" x="0px" y="0px"
	 viewBox="0 0 1319 1952" style="enable-background:new 0 0 1319 1952;" xml:space="preserve">
<style type="text/css">
	.st0{clip-path:url(#SVGID_2_);}
	.st1{clip-path:url(#SVGID_4_);}
	
		.st2{clip-path:url(#SVGID_6_);fill:#FFF297;stroke:#FE8737;stroke-width:5;stroke-linecap:round;stroke-linejoin:round;stroke-miterlimit:10;}
	.st3{clip-path:url(#SVGID_6_);fill:#D0D2F7;}
	.st4{clip-path:url(#SVGID_6_);}
	.st5{fill:#FFFFFF;stroke:#F9FCFF;stroke-width:5;stroke-miterlimit:10;}
	.st6{clip-path:url(#SVGID_6_);fill:#AEC539;stroke:#643527;stroke-width:5;stroke-miterlimit:10;}
	.st7{fill:#6E9D01;}
	.st8{fill:#FFFFFF;stroke:#643527;stroke-width:13;stroke-miterlimit:10;}
	.st9{fill:#FFFFFF;stroke:#643527;stroke-width:5;stroke-miterlimit:10;}
	.st10{fill:#132144;stroke:#FFFFFF;stroke-width:3;stroke-miterlimit:10;}
	.st11{fill:#E9D000;stroke:#643527;stroke-width:5;stroke-miterlimit:10;}
	.st12{fill:#FFFFFF;}
	.st13{fill:#C22126;}
	.st14{fill:#F4DBA4;stroke:#643527;stroke-width:5;stroke-miterlimit:10;}
	.st15{fill:#F4DBA4;}
	.st16{fill:#FFB38A;stroke:#643527;stroke-width:5;stroke-miterlimit:10;}
	.st17{fill:none;stroke:#643527;stroke-width:5;stroke-linecap:round;stroke-linejoin:round;stroke-miterlimit:10;}
	.st18{fill:#8E5F52;}
	.st19{fill:#FFBE9E;}
	.st20{fill:#8E5F52;stroke:#643527;stroke-width:5;stroke-miterlimit:10;}
	.st21{fill:#643527;}
	.st22{fill:#FEDC72;stroke:#643527;stroke-width:5;stroke-miterlimit:10;}
	.st23{fill:#FEDC72;}
	.st24{fill:#F4C551;}
	.st25{fill:#FEBDC5;}
	.st26{fill:#FFE7A8;stroke:#643527;stroke-width:5;stroke-miterlimit:10;}
	.st27{fill:#FFE7A8;}
	.st28{fill:#FFC25E;}
	.st29{fill:#FFC25E;stroke:#643527;stroke-width:5;stroke-linecap:round;stroke-linejoin:round;stroke-miterlimit:10;}
	.st30{fill:none;stroke:#643527;stroke-width:23;stroke-linecap:round;stroke-linejoin:round;stroke-miterlimit:10;}
	.st31{fill:#FFD1AE;}
	
		.st32{clip-path:url(#SVGID_2_);fill:#FFF297;stroke:#FE8737;stroke-width:5;stroke-linecap:round;stroke-linejoin:round;stroke-miterlimit:10;}
	.st33{fill:#643527;stroke:#FFF8CC;stroke-width:3;stroke-miterlimit:10;}
</style>
<g>
	<g>
		<defs>
			<polygon id="SVGID_1_" points="1172.3,1.8 1025.6,1.8 878.9,1.8 732.3,1.8 585.6,1.8 438.9,1.8 292.2,1.8 292.2,3.2 146.7,3.2 
				0,3.2 0,1950.2 146.7,1950.2 293.4,1950.2 293.4,1948.8 438.9,1948.8 585.6,1948.8 732.3,1948.8 878.9,1948.8 1025.6,1948.8 
				1172.3,1948.8 1319,1948.8 1319,1.8 			"/>
		</defs>
		<clipPath id="SVGID_2_">
			<use xlink:href="#SVGID_1_"  style="overflow:visible;"/>
		</clipPath>
		<g class="st0">
			<defs>
				<polygon id="SVGID_3_" points="1172.9,2.8 1026.2,2.8 879.6,2.8 732.9,2.8 586.2,2.8 439.5,2.8 292.8,2.8 292.8,4.2 147.3,4.2 
					0.6,4.2 0.6,1951.2 147.3,1951.2 294,1951.2 294,1949.8 439.5,1949.8 586.2,1949.8 732.9,1949.8 879.6,1949.8 1026.2,1949.8 
					1172.9,1949.8 1319.6,1949.8 1319.6,2.8 				"/>
			</defs>
			<clipPath id="SVGID_4_">
				<use xlink:href="#SVGID_3_"  style="overflow:visible;"/>
			</clipPath>
			<g class="st1">
				<defs>
					<polygon id="SVGID_5_" points="1174.3,-187.5 1027.2,-187.5 880.1,-187.5 733.1,-187.5 586,-187.5 438.9,-187.5 291.9,-187.5 
						291.9,-185.8 146,-185.8 -1.1,-185.8 -1.1,2168.5 146,2168.5 293,2168.5 293,2166.7 438.9,2166.7 586,2166.7 733.1,2166.7 
						880.1,2166.7 1027.2,2166.7 1174.3,2166.7 1321.3,2166.7 1321.3,-187.5 					"/>
				</defs>
				<clipPath id="SVGID_6_">
					<use xlink:href="#SVGID_5_"  style="overflow:visible;"/>
				</clipPath>
				<path class="st2" d="M1159,1160.3c0,0,3.6,57.7,43.3,55.6c0,0-44.9,42.1-47.1,66.6c0,0-4.5-48.2-26.1-53.1
					C1107.5,1224.5,1157.2,1237.9,1159,1160.3z"/>
				<path class="st2" d="M440,850.3c0,0-32.2,78.4-59.1,80c0,0,43.9,29.1,45.6,71c0,0,34.6-85.1,53-84
					C497.9,918.3,441.1,914.5,440,850.3z"/>
				<path class="st2" d="M1029.7,1359.3c0,0,37.7-53.1,47.8-82.7s-20.5,64.4,29.7,86.1l-40.6,38.8L1029.7,1359.3z"/>
				<path class="st2" d="M224.5,1183.7c0,0,2.8,44.7,33.6,43.1c0,0-34.8,32.6-36.5,51.6c0,0-3.5-37.4-20.2-41.2
					C184.6,1233.4,223.1,1243.8,224.5,1183.7z"/>
				<path class="st2" d="M441.2,1601.1c0,0-2.7,65.7-21.9,73.9c0,0,39.7,9.6,52,39.7c0,0,2.7-71.1,16.4-75.2
					S459,1647.6,441.2,1601.1z"/>
				<path class="st2" d="M821.3,1389.1c0,0,29.2-41.1,37.1-64.1c7.9-22.9-15.9,50,23,66.8l-31.5,30.1L821.3,1389.1z"/>
				<polygon class="st3" points="1272.9,-186.7 1223.9,-186.7 1174.9,-186.7 1125.8,-186.7 1076.8,-186.7 1027.8,-186.7 
					978.8,-186.7 929.7,-186.7 880.7,-186.7 831.7,-186.7 782.7,-186.7 733.7,-186.7 684.6,-186.7 635.6,-186.7 586.6,-186.7 
					537.6,-186.7 488.5,-186.7 439.5,-186.7 390.5,-186.7 341.5,-186.7 292.5,-186.7 243.4,-186.7 194.4,-186.7 145.4,-186.7 
					96.4,-186.7 47.3,-186.7 -1.7,-186.7 -1.7,2167.6 47.3,2167.6 96.4,2167.6 145.4,2167.6 194.4,2167.6 243.4,2167.6 
					292.5,2167.6 341.5,2167.6 390.5,2167.6 439.5,2167.6 488.5,2167.6 537.6,2167.6 586.6,2167.6 635.6,2167.6 684.6,2167.6 
					733.7,2167.6 782.7,2167.6 831.7,2167.6 880.7,2167.6 929.7,2167.6 978.8,2167.6 1027.8,2167.6 1076.8,2167.6 1125.8,2167.6 
					1174.9,2167.6 1223.9,2167.6 1272.9,2167.6 1321.9,2167.6 1321.9,-186.7 				"/>
				<g class="st4">
					<path class="st5" d="M5964.4,314.6c-18.5-6.6-36.1,4.7-56.1,17.9c-34.2,22.6-72.9,29.8-112.8,12.9c-8-3.4-15.1-4-22.8,0.8
						c-37.3,23.2-75,21.7-112,0.1c-14-8.2-23.5-6.7-37.5,2.4c-36.7,23.6-76.8,36.5-121.9,26.5c-23.5-5.2-47.7-7.2-70.4-16
						c-9.4-3.7-21-6.1-26.1-14.3c-12.4-20-29.9-18.5-49.6-18.3c-80,1-126.3-79.5-86.4-148.6c18.8-32.5,69.3-50.9,107.9-37.4
						c11.9,4.2,14.3,0.9,17.9-9.1c19-52.6,42.2-68.4,98.1-66.4c13.8,0.5,20.9-2.5,23.8-17c4.4-22.2,20.9-35,39.7-45.2
						c42.7-23.1,88.5-29.5,136.2-25.1c37.5,3.5,74.3,10.4,107.5,29.8c21.2,12.3,40.1,27.2,52,48.9c5.4,9.9,9.9,10.1,20.4,6.5
						c52.2-18,138.8,14.1,147.9,80.3c0.3,2,1.7,4.1,1.3,5.8c-4.6,19.6,2.2,29.8,21.1,39.7c23.4,12.2,24.9,67.6,5.4,91.7
						C6028.1,305.2,6001.8,316.2,5964.4,314.6z"/>
					<path class="st5" d="M5239.2,30.5c-19-0.6-38-5.1-53-15.8c-15-10.7-29.7-12.4-46.7-11.9c-24.5,0.7-46.4-6.6-61.6-27.2
						c-26-35.2-10.2-79.3,32.6-88.8c13.1-2.9,21.7-7.6,27.3-19.9c22.4-49.6,93.2-55.1,128.2-29.5c8.9,6.5,16.4,9.7,27.4,6.4
						c33.7-10.1,78.7,10.6,84.4,47.5c0.9,5.8,4.7,8.8,9.7,11.8c26.5,15.9,29.9,46.2,8.2,68.8c-18.3,19.1-41.5,26.6-67.1,25.8
						c-13.6-0.4-24,2.9-33.8,13.1C5279.9,26.2,5259.9,29.6,5239.2,30.5z"/>
					<path class="st5" d="M5040.2,687.2c-4.8-2.9-17.4-9.7-26.9-16.7c-4.3-8-7.9-16.5-11.6-25.1c-3.7-8.4-9.7-16.1-15.9-22.9
						c-42.1-46.4-142.9-56.5-193.1-18.2c-14.9,11.3-25.2,12.1-41.9,3c-52.3-28.7-140.7-8.4-153.7,66.8c-1.4,7.9-5.5,11-12.3,13.7
						c-9.5,3.9-17.9,8.9-24.6,15.1c-49.7,24-64.5,83.6-28.5,132.4c24,32.6,58.7,44.1,97.4,42.9c26.9-0.8,50.1,1.8,73.9,18.8
						c23.6,16.8,53.7,24,83.7,25c32.7-1.4,64.3-6.8,87.6-31.1c15.4-16.1,31.8-21.4,53.4-20.7c40.6,1.3,77.1-10.6,106.1-40.8
						C5068,793.8,5082,712.4,5040.2,687.2z"/>
					<path class="st5" d="M5712.1,607.8c-9.4-4.6-12.8-9.3-10.5-18.4c0.2-0.8-0.5-1.8-0.6-2.7c-3.9-26.5-36.6-41.2-62.3-39.4
						c-5.9-1.6-9.8-5.3-13.7-9.8c-20-23.3-45.5-32-73.7-20.2c-15.8,6.6-25.5,2.4-38.1-5.5c-41.5-26.1-100.8-12-124.6,29.6
						c-5,8.7-10.9,10.3-19.3,10.5c-21.7,0.6-33.8,12.8-40.5,32.7c-1,2.9-1.6,5.7-2,8.5c-11.6,32.6,6.4,78.9,42.5,78.5
						c9.9-0.1,18.6-0.8,24.8,8.5c2.5,3.8,8.3,4.9,13,6.6c11.3,4.1,23.4,5,35.1,7.4c22.5,4.6,42.5-1.3,60.8-12.3
						c7-4.2,11.7-4.9,18.7-1.1c18.5,10,37.3,10.7,55.9,0c3.8-2.2,7.4-1.9,11.4-0.3c19.9,7.8,39.2,4.5,56.3-6
						c9.9-6.1,18.7-11.3,28-8.3c18.7,0.8,31.8-4.4,41.7-15.8C5724.5,639.2,5723.8,613.5,5712.1,607.8z"/>
					<path class="st5" d="M6222.7,847.4c-9.9,0.1-18.6,0.8-24.8-8.5c-2.5-3.8-8.3-4.9-13-6.6c-11.3-4.1-23.4-5-35.1-7.4
						c-22.5-4.6-42.5,1.3-60.8,12.3c-1.7,1-3.4,1.9-4.9,2.5c-4.9-0.9-9.8-1.6-14.7-1.8c-14.4-7.6-29-9.5-43.6-4.7
						c-0.1-0.1-0.2-0.2-0.4-0.2c-34.1-24.6-84.5-18.6-113.3,9.5c-3.5-1.5-7-3.6-10.8-6c-41.5-26.1-100.8-12-124.6,29.6
						c-5,8.7-10.9,10.3-19.3,10.5c-21.7,0.6-33.8,12.8-40.5,32.7c-1,2.9-1.6,5.7-2,8.5c-11.6,32.6,6.4,78.9,42.5,78.5
						c9.9-0.1,18.6-0.8,24.8,8.5c2.5,3.8,8.3,4.9,13,6.6c11.3,4.1,23.4,5,35.1,7.4c22.5,4.6,42.5-1.3,60.8-12.3
						c7-4.2,11.7-4.9,18.7-1.1c13.3,7.2,26.8,9.5,40.3,6.3c0.6,0.3,1.1,0.6,1.7,0.9c30.3,17.8,67.4,21.5,96.2-2.4
						c5.4-4.4,10.7-7.8,16-10.5c4.8,1.5,9.5,4.1,14.6,7.4c41.5,26.1,100.8,12,124.6-29.6c5-8.7,10.9-10.3,19.3-10.5
						c21.7-0.6,33.8-12.8,40.5-32.7c1-2.9,1.6-5.7,2-8.5C6276.7,893.3,6258.7,847,6222.7,847.4z"/>
					<path class="st5" d="M4839.9,122.7c-18.1-8.9-51,0.6-64.6,4.4c-3.4-2.1-6.6-4.5-9.9-7c-1.2-0.9-2.4-1.9-3.5-2.9
						c1-14.6,4.8-41.6-40.7-71.1c-27.7-18-54.4-25.1-85.8-20.5c-23.4,3.4-41.4,14.8-50.6,37.4c-0.9,2.3-2.1,4.1-3.4,5.4
						c-25.3-28.1-63.6-38.7-106.9-26.5c-15.3,4.3-27.5,2.2-42.2-2.7c-56.4-18.9-109.6-11.3-157.2,25.6c-12.4,9.6-19.5,23.9-24,38.8
						c-3.7,12.2-9.8,18.5-23.3,21c-30.5,5.7-47.9,28.2-59.9,54.6c-5.5,12.2-8.1,25.3-9.4,38.6c-2.9,12.5-2.6,25.9,1.6,37.6
						c0.4,2.8,1.1,5.6,2,8.5c6.7,19.9,18.8,32.1,40.5,32.7c8.5,0.2,14.3,1.8,19.3,10.5c23.7,41.6,83,55.7,124.6,29.6
						c12.6-7.9,22.3-12.2,38.1-5.5c19.6,8.2,37.8,6.5,53.8-3c25.3,30,64.5,41.6,109,29c15.3-4.3,27.5-2.2,42.2,2.7
						c56.4,18.9,109.6,11.3,157.2-25.6c12.4-9.6,19.5-23.9,24-38.8c3.7-12.2,9.8-18.5,23.3-21c30.5-5.7,47.9-28.2,59.9-54.6
						c5.2-11.4,7.8-23.7,9.2-36.1C4871.9,160.5,4864,134.4,4839.9,122.7z"/>
					<path class="st5" d="M5124.9,1190.6c9.9-0.1,18.6-0.8,24.8,8.5c2.5,3.8,8.3,4.9,13,6.6c11.3,4.1,23.4,5,35.1,7.4
						c19,3.9,36.3,0.2,52.2-7.6c6.4,6,11.8,13.8,18.5,20.7c23.6,24,56.3,25,88.3,18.8c21.6-4.2,39-15,46.7-36.6
						c0-0.1,0.1-0.2,0.1-0.4c9.6-4.5,16.5-1.1,25.6,5.2c43.1,30.1,116.4,17.5,143.5-26c2-3.3,4.1-6,6.2-8.4c3.1-0.7,6.5-1,10.2-1.2
						c43.8-1.8,67.1-42.4,47.8-81.6c-11.3-23-31.6-34-55.8-37.6c-4.5-0.7-8.7-1.5-12.9-2.5c-1.7-8.8-5.4-17.6-11.6-25.9
						c-15.2-20.6-37.1-27.9-61.6-27.2c-17,0.5-31.7-1.1-46.7-11.9c-14.9-10.6-34-15.2-53-15.8c-20.7,0.9-40.7,4.3-55.4,19.7
						c-9.8,10.2-20.1,13.5-33.8,13.1c-20-0.6-38.3,3.8-54.2,14.7c-39.4-13.9-87.1,1.5-107.8,37.7c-0.5,0.9-1,1.6-1.5,2.3
						c-1.1,1-2.2,2.1-3.3,3.1c-0.7,0.7-1.4,1.4-2.1,2.1c-3.5,2.2-7.5,2.8-12.4,2.9c-21.7,0.6-33.8,12.8-40.5,32.7
						c-1,2.9-1.6,5.7-2,8.5C5070.8,1144.7,5088.8,1191,5124.9,1190.6z"/>
					<path class="st5" d="M6929.3,548.8c0.1-1.4,0.1-2.8,0-4.2c-0.7-18.8-2.7-37.8-10.5-54.9c-12-26.4-29.4-48.9-59.9-54.6
						c-13.4-2.5-19.6-8.8-23.3-21c-4.5-14.9-11.6-29.2-24-38.8c-47.5-36.9-100.8-44.6-157.2-25.6c-14.7,4.9-26.9,7-42.2,2.7
						c-63.8-18-116.8,13.4-133.3,78c-2.4,9.2-7.5,11.3-15.7,11.7c-19.9,1-38.6,6.4-53.1,20.7c-8.3,8.1-14.3,7.5-24.3,1.8
						c-41.8-23.9-91.8-2.2-102.5,44.3c-2.1,9.3-6,13.8-14.4,16.6c-1.6,0.5-3.1,1.1-4.7,1.8c-20.8,1.1-32.5,13.2-39,32.6
						c-1,2.9-1.6,5.7-2,8.5c-11.6,32.6,6.4,78.9,42.5,78.5c9.9-0.1,18.6-0.8,24.8,8.5c2.5,3.8,8.3,4.9,13,6.6
						c11.3,4.1,23.4,5,35.1,7.4c4.3,0.9,8.5,1.4,12.6,1.5c23.9,28,69.3,39.3,99.7,28.9c8.2-2.8,11.6-2.7,15.9,5
						c9.2,16.9,24,28.5,40.5,38.1c25.9,15.1,54.5,20.4,83.7,23.2c37.1,3.5,72.8-1.5,106.1-19.5c14.7-7.9,27.5-17.9,30.9-35.2
						c2.2-11.2,7.8-13.6,18.5-13.2c43.5,1.6,61.6-10.8,76.4-51.7c2.8-7.8,4.7-10.4,14-7.1c30,10.5,69.4-3.8,84-29.1
						C6932.7,589.8,6934.8,567.9,6929.3,548.8z"/>
					<path class="st5" d="M6458.3-72.2c-20.1-9.1-11.4-20.9-34.3-38.6c-13.8-10.6-29.3-8.3-34.4-7.6c-25.3,3.6-33.2-15.3-47.5-29.8
						c-23.6-24-56.3-25-88.3-18.8c-21.6,4.2-39,15-46.7,36.6c-3.6,10.2-9.4,10.6-18.5,9.2c-24.2-3.7-46.6,1.6-66.3,16.5
						c-13.3,10-17.1,12.9-11.3,18.6c-0.7,0-1.5,0-2.2,0c-36.1-0.4-54.1,45.9-42.5,78.5c0.4,2.8,1.1,5.6,2,8.5
						c6.7,19.9,18.8,32.1,40.5,32.7c8.5,0.2,14.3,1.8,19.3,10.5c23.7,41.6,83,55.7,124.6,29.6c12.6-7.9,22.3-12.2,38.1-5.5
						c28.2,11.8,53.7,3.1,73.7-20.2c3.9-4.6,7.9-8.2,13.7-9.8c5.5,0.4,11.3,0,17.1-1.1c0.3,0.1,0.5,0.1,0.8,0.2
						c29.1,6,54.6-5,75-25.1C6497.8-14.1,6491.7-57.1,6458.3-72.2z"/>
					<path class="st5" d="M8682.2,314.6c-18.5-6.6-36.1,4.7-56.1,17.9c-34.2,22.6-72.9,29.8-112.8,12.9c-8-3.4-15.1-4-22.8,0.8
						c-37.3,23.2-75,21.7-112,0.1c-14-8.2-23.5-6.7-37.5,2.4c-36.7,23.6-76.8,36.5-121.9,26.5c-23.5-5.2-47.7-7.2-70.4-16
						c-9.4-3.7-21-6.1-26.1-14.3c-12.4-20-29.9-18.5-49.6-18.3c-80,1-126.3-79.5-86.4-148.6c18.8-32.5,69.3-50.9,107.9-37.4
						c11.9,4.2,14.3,0.9,17.9-9.1c19-52.6,42.2-68.4,98.1-66.4c13.8,0.5,20.9-2.5,23.8-17c4.4-22.2,20.9-35,39.7-45.2
						c42.7-23.1,88.5-29.5,136.2-25.1c37.5,3.5,74.3,10.4,107.5,29.8c21.2,12.3,40.1,27.2,52,48.9c5.4,9.9,9.9,10.1,20.4,6.5
						c52.2-18,138.8,14.1,147.9,80.3c0.3,2,1.7,4.1,1.3,5.8c-4.6,19.6,2.2,29.8,21.1,39.7c23.4,12.2,24.9,67.6,5.4,91.7
						C8745.9,305.2,8719.6,316.2,8682.2,314.6z"/>
					<path class="st5" d="M7957,30.5c-19-0.6-38-5.1-53-15.8c-15-10.7-29.7-12.4-46.7-11.9c-24.5,0.7-46.4-6.6-61.6-27.2
						c-26-35.2-10.2-79.3,32.6-88.8c13.1-2.9,21.7-7.6,27.3-19.9c22.4-49.6,93.2-55.1,128.2-29.5c8.9,6.5,16.4,9.7,27.4,6.4
						c33.7-10.1,78.7,10.6,84.4,47.5c0.9,5.8,4.7,8.8,9.7,11.8c26.5,15.9,29.9,46.2,8.2,68.8C8095-9,8071.9-1.5,8046.2-2.3
						c-13.6-0.4-24,2.9-33.8,13.1C7997.7,26.2,7977.6,29.6,7957,30.5z"/>
					<path class="st5" d="M7758,687.2c-4.8-2.9-17.4-9.7-26.9-16.7c-4.3-8-7.9-16.5-11.6-25.1c-3.7-8.4-9.7-16.1-15.9-22.9
						c-42.1-46.4-142.9-56.5-193.1-18.2c-14.9,11.3-25.2,12.1-41.9,3c-52.3-28.7-140.7-8.4-153.7,66.8c-1.4,7.9-5.5,11-12.3,13.7
						c-9.5,3.9-17.9,8.9-24.6,15.1c-49.7,24-64.5,83.6-28.5,132.4c24,32.6,58.7,44.1,97.4,42.9c26.9-0.8,50.1,1.8,73.9,18.8
						c23.6,16.8,53.7,24,83.7,25c32.7-1.4,64.3-6.8,87.6-31.1c15.4-16.1,31.8-21.4,53.4-20.7c40.6,1.3,77.1-10.6,106.1-40.8
						C7785.8,793.8,7799.8,712.4,7758,687.2z"/>
					<path class="st5" d="M8429.9,607.8c-9.4-4.6-12.8-9.3-10.5-18.4c0.2-0.8-0.5-1.8-0.6-2.7c-3.9-26.5-36.6-41.2-62.3-39.4
						c-5.9-1.6-9.8-5.3-13.7-9.8c-20-23.3-45.5-32-73.7-20.2c-15.8,6.6-25.5,2.4-38.1-5.5c-41.5-26.1-100.8-12-124.6,29.6
						c-5,8.7-10.9,10.3-19.3,10.5c-21.7,0.6-33.8,12.8-40.5,32.7c-1,2.9-1.6,5.7-2,8.5c-11.6,32.6,6.4,78.9,42.5,78.5
						c9.9-0.1,18.6-0.8,24.8,8.5c2.5,3.8,8.3,4.9,13,6.6c11.3,4.1,23.4,5,35.1,7.4c22.5,4.6,42.5-1.3,60.8-12.3
						c7-4.2,11.7-4.9,18.7-1.1c18.5,10,37.3,10.7,55.9,0c3.8-2.2,7.4-1.9,11.4-0.3c19.9,7.8,39.2,4.5,56.3-6
						c9.9-6.1,18.7-11.3,28-8.3c18.7,0.8,31.8-4.4,41.7-15.8C8442.3,639.2,8441.6,613.5,8429.9,607.8z"/>
					<path class="st5" d="M8940.4,847.4c-9.9,0.1-18.6,0.8-24.8-8.5c-2.5-3.8-8.3-4.9-13-6.6c-11.3-4.1-23.4-5-35.1-7.4
						c-22.5-4.6-42.5,1.3-60.8,12.3c-1.8,1-3.4,1.9-4.9,2.5c-4.9-0.9-9.8-1.6-14.7-1.8c-14.4-7.6-29-9.5-43.6-4.7
						c-0.1-0.1-0.2-0.2-0.4-0.2c-34.1-24.6-84.5-18.6-113.3,9.5c-3.5-1.5-7-3.6-10.8-6c-41.5-26.1-100.8-12-124.6,29.6
						c-5,8.7-10.9,10.3-19.3,10.5c-21.7,0.6-33.8,12.8-40.5,32.7c-1,2.9-1.6,5.7-2,8.5c-11.6,32.6,6.4,78.9,42.5,78.5
						c9.9-0.1,18.6-0.8,24.8,8.5c2.5,3.8,8.3,4.9,13,6.6c11.3,4.1,23.4,5,35.1,7.4c22.5,4.6,42.5-1.3,60.8-12.3
						c7-4.2,11.7-4.9,18.7-1.1c13.3,7.2,26.8,9.5,40.3,6.3c0.6,0.3,1.1,0.6,1.7,0.9c30.3,17.8,67.4,21.5,96.2-2.4
						c5.4-4.4,10.7-7.8,16-10.5c4.8,1.5,9.5,4.1,14.6,7.4c41.5,26.1,100.8,12,124.6-29.6c5-8.7,10.9-10.3,19.3-10.5
						c21.7-0.6,33.8-12.8,40.5-32.7c1-2.9,1.6-5.7,2-8.5C8994.5,893.3,8976.5,847,8940.4,847.4z"/>
					<path class="st5" d="M7557.7,122.7c-18.1-8.9-51,0.6-64.6,4.4c-3.4-2.1-6.6-4.5-9.9-7c-1.2-0.9-2.4-1.9-3.5-2.9
						c1-14.6,4.8-41.6-40.7-71.1c-27.7-18-54.4-25.1-85.8-20.5c-23.4,3.4-41.4,14.8-50.6,37.4c-0.9,2.3-2.1,4.1-3.4,5.4
						c-25.3-28.1-63.6-38.7-106.9-26.5c-15.3,4.3-27.5,2.2-42.2-2.7c-56.4-18.9-109.6-11.3-157.2,25.6c-12.4,9.6-19.5,23.9-24,38.8
						c-3.7,12.2-9.8,18.5-23.3,21c-30.5,5.7-47.9,28.2-59.9,54.6c-5.5,12.2-8.1,25.3-9.4,38.6c-2.9,12.5-2.6,25.9,1.6,37.6
						c0.4,2.8,1.1,5.6,2,8.5c6.7,19.9,18.8,32.1,40.5,32.7c8.5,0.2,14.3,1.8,19.3,10.5c23.7,41.6,83,55.7,124.6,29.6
						c12.6-7.9,22.3-12.2,38.1-5.5c19.6,8.2,37.8,6.5,53.8-3c25.3,30,64.5,41.6,109,29c15.3-4.3,27.5-2.2,42.2,2.7
						c56.4,18.9,109.6,11.3,157.2-25.6c12.4-9.6,19.5-23.9,24-38.8c3.7-12.2,9.8-18.5,23.3-21c30.5-5.7,47.9-28.2,59.9-54.6
						c5.2-11.4,7.8-23.7,9.2-36.1C7589.7,160.5,7581.7,134.4,7557.7,122.7z"/>
					<path class="st5" d="M7842.7,1190.6c9.9-0.1,18.6-0.8,24.8,8.5c2.5,3.8,8.3,4.9,13,6.6c11.3,4.1,23.4,5,35.1,7.4
						c19,3.9,36.3,0.2,52.2-7.6c6.4,6,11.8,13.8,18.5,20.7c23.6,24,56.3,25,88.3,18.8c21.6-4.2,39-15,46.7-36.6
						c0-0.1,0.1-0.2,0.1-0.4c9.6-4.5,16.5-1.1,25.6,5.2c43.1,30.1,116.4,17.5,143.5-26c2-3.3,4.1-6,6.2-8.4c3.1-0.7,6.5-1,10.2-1.2
						c43.8-1.8,67.1-42.4,47.8-81.6c-11.3-23-31.6-34-55.8-37.6c-4.5-0.7-8.7-1.5-12.9-2.5c-1.7-8.8-5.4-17.6-11.6-25.9
						c-15.2-20.6-37.1-27.9-61.6-27.2c-17,0.5-31.7-1.1-46.7-11.9c-14.9-10.6-34-15.2-53-15.8c-20.7,0.9-40.7,4.3-55.4,19.7
						c-9.8,10.2-20.1,13.5-33.8,13.1c-20-0.6-38.3,3.8-54.2,14.7c-39.4-13.9-87.1,1.5-107.8,37.7c-0.5,0.9-1,1.6-1.5,2.3
						c-1.1,1-2.2,2.1-3.3,3.1c-0.7,0.7-1.4,1.4-2.1,2.1c-3.5,2.2-7.5,2.8-12.4,2.9c-21.7,0.6-33.8,12.8-40.5,32.7
						c-1,2.9-1.6,5.7-2,8.5C7788.6,1144.7,7806.6,1191,7842.7,1190.6z"/>
					<path class="st5" d="M9647.1,548.8c0.1-1.4,0.1-2.8,0-4.2c-0.7-18.8-2.7-37.8-10.5-54.9c-12-26.4-29.4-48.9-59.9-54.6
						c-13.4-2.5-19.6-8.8-23.3-21c-4.5-14.9-11.6-29.2-24-38.8c-47.5-36.9-100.8-44.6-157.2-25.6c-14.7,4.9-26.9,7-42.2,2.7
						c-63.8-18-116.8,13.4-133.3,78c-2.4,9.2-7.5,11.3-15.7,11.7c-19.9,1-38.6,6.4-53.1,20.7c-8.3,8.1-14.3,7.5-24.3,1.8
						c-41.8-23.9-91.8-2.2-102.5,44.3c-2.1,9.3-6,13.8-14.4,16.6c-1.6,0.5-3.1,1.1-4.7,1.8c-20.8,1.1-32.5,13.2-39,32.6
						c-1,2.9-1.6,5.7-2,8.5c-11.6,32.6,6.4,78.9,42.5,78.5c9.9-0.1,18.6-0.8,24.8,8.5c2.5,3.8,8.3,4.9,13,6.6
						c11.3,4.1,23.4,5,35.1,7.4c4.3,0.9,8.5,1.4,12.6,1.5c23.9,28,69.3,39.3,99.7,28.9c8.2-2.8,11.6-2.7,15.9,5
						c9.3,16.9,24,28.5,40.5,38.1c25.9,15.1,54.5,20.4,83.7,23.2c37.1,3.5,72.8-1.5,106.1-19.5c14.7-7.9,27.5-17.9,31-35.2
						c2.2-11.2,7.8-13.6,18.5-13.2c43.5,1.6,61.6-10.8,76.4-51.7c2.8-7.8,4.7-10.4,14-7.1c30,10.5,69.4-3.8,84-29.1
						C9650.5,589.8,9652.5,567.9,9647.1,548.8z"/>
					<path class="st5" d="M9176.1-72.2c-20.1-9.1-11.4-20.9-34.3-38.6c-13.8-10.6-29.3-8.3-34.4-7.6c-25.3,3.6-33.2-15.3-47.5-29.8
						c-23.6-24-56.3-25-88.3-18.8c-21.6,4.2-39,15-46.7,36.6c-3.6,10.2-9.4,10.6-18.5,9.2c-24.2-3.7-46.6,1.6-66.3,16.5
						c-13.3,10-17.1,12.9-11.3,18.6c-0.7,0-1.5,0-2.2,0c-36.1-0.4-54.1,45.9-42.5,78.5c0.4,2.8,1.1,5.6,2,8.5
						c6.7,19.9,18.8,32.1,40.5,32.7c8.5,0.2,14.3,1.8,19.3,10.5c23.7,41.6,83,55.7,124.6,29.6c12.6-7.9,22.3-12.2,38.1-5.5
						c28.2,11.8,53.7,3.1,73.7-20.2c3.9-4.6,7.9-8.2,13.7-9.8c5.5,0.4,11.3,0,17.1-1.1c0.3,0.1,0.5,0.1,0.8,0.2
						c29.1,6,54.6-5,75-25.1C9215.6-14.1,9209.5-57.1,9176.1-72.2z"/>
					<path class="st5" d="M3334.9,314.6c-18.5-6.6-36.1,4.7-56.1,17.9c-34.2,22.6-72.9,29.8-112.8,12.9c-8-3.4-15.1-4-22.8,0.8
						c-37.3,23.2-75,21.7-112,0.1c-14-8.2-23.5-6.7-37.5,2.4c-36.7,23.6-76.8,36.5-121.9,26.5c-23.5-5.2-47.7-7.2-70.4-16
						c-9.4-3.7-21-6.1-26.1-14.3c-12.4-20-29.9-18.5-49.6-18.3c-80,1-126.3-79.5-86.4-148.6c18.8-32.5,69.3-50.9,107.9-37.4
						c11.9,4.2,14.3,0.9,17.9-9.1c19-52.6,42.2-68.4,98.1-66.4c13.8,0.5,20.9-2.5,23.8-17c4.4-22.2,20.9-35,39.7-45.2
						c42.7-23.1,88.5-29.5,136.2-25.1c37.5,3.5,74.3,10.4,107.5,29.8c21.2,12.3,40.1,27.2,52,48.9c5.4,9.9,9.9,10.1,20.4,6.5
						c52.2-18,138.8,14.1,147.9,80.3c0.3,2,1.7,4.1,1.3,5.8c-4.6,19.6,2.2,29.8,21.1,39.7c23.4,12.2,24.9,67.6,5.4,91.7
						C3398.6,305.2,3372.3,316.2,3334.9,314.6z"/>
					<path class="st5" d="M2609.6,30.5c-19-0.6-38-5.1-53-15.8c-15-10.7-29.7-12.4-46.7-11.9c-24.5,0.7-46.4-6.6-61.6-27.2
						c-26-35.2-10.2-79.3,32.6-88.8c13.1-2.9,21.7-7.6,27.3-19.9c22.4-49.6,93.2-55.1,128.2-29.5c8.9,6.5,16.4,9.7,27.4,6.4
						c33.7-10.1,78.7,10.6,84.4,47.5c0.9,5.8,4.7,8.8,9.7,11.8c26.5,15.9,29.9,46.2,8.2,68.8c-18.3,19.1-41.5,26.6-67.1,25.8
						c-13.6-0.4-24,2.9-33.8,13.1C2650.3,26.2,2630.3,29.6,2609.6,30.5z"/>
					<path class="st5" d="M2410.7,687.2c-4.8-2.9-17.4-9.7-26.9-16.7c-4.3-8-7.9-16.5-11.6-25.1c-3.7-8.4-9.7-16.1-15.9-22.9
						c-42.1-46.4-142.9-56.5-193.1-18.2c-14.9,11.3-25.2,12.1-41.9,3c-52.3-28.7-140.7-8.4-153.7,66.8c-1.4,7.9-5.5,11-12.3,13.7
						c-9.5,3.9-17.9,8.9-24.6,15.1c-49.7,24-64.5,83.6-28.5,132.4c24,32.6,58.7,44.1,97.4,42.9c26.9-0.8,50.1,1.8,73.9,18.8
						c23.6,16.8,53.7,24,83.7,25c32.7-1.4,64.3-6.8,87.6-31.1c15.4-16.1,31.8-21.4,53.4-20.7c40.6,1.3,77.1-10.6,106.1-40.8
						C2438.5,793.8,2452.5,712.4,2410.7,687.2z"/>
					<path class="st5" d="M3082.6,607.8c-9.4-4.6-12.8-9.3-10.5-18.4c0.2-0.8-0.5-1.8-0.6-2.7c-3.9-26.5-36.6-41.2-62.3-39.4
						c-5.9-1.6-9.8-5.3-13.7-9.8c-20-23.3-45.5-32-73.7-20.2c-15.8,6.6-25.5,2.4-38.1-5.5c-41.5-26.1-100.8-12-124.6,29.6
						c-5,8.7-10.9,10.3-19.3,10.5c-21.7,0.6-33.8,12.8-40.5,32.7c-1,2.9-1.6,5.7-2,8.5c-11.6,32.6,6.4,78.9,42.5,78.5
						c9.9-0.1,18.6-0.8,24.8,8.5c2.5,3.8,8.3,4.9,13,6.6c11.3,4.1,23.4,5,35.1,7.4c22.5,4.6,42.5-1.3,60.8-12.3
						c7-4.2,11.7-4.9,18.7-1.1c18.5,10,37.3,10.7,55.9,0c3.8-2.2,7.4-1.9,11.4-0.3c19.9,7.8,39.2,4.5,56.3-6
						c9.9-6.1,18.7-11.3,28-8.3c18.7,0.8,31.8-4.4,41.7-15.8C3095,639.2,3094.3,613.5,3082.6,607.8z"/>
					<path class="st5" d="M3593.1,847.4c-9.9,0.1-18.6,0.8-24.8-8.5c-2.5-3.8-8.3-4.9-13-6.6c-11.3-4.1-23.4-5-35.1-7.4
						c-22.5-4.6-42.5,1.3-60.8,12.3c-1.7,1-3.4,1.9-4.9,2.5c-4.9-0.9-9.8-1.6-14.7-1.8c-14.4-7.6-29-9.5-43.6-4.7
						c-0.1-0.1-0.2-0.2-0.4-0.2c-34.1-24.6-84.5-18.6-113.3,9.5c-3.5-1.5-7-3.6-10.8-6c-41.5-26.1-100.8-12-124.6,29.6
						c-5,8.7-10.9,10.3-19.3,10.5c-21.7,0.6-33.8,12.8-40.5,32.7c-1,2.9-1.6,5.7-2,8.5c-11.6,32.6,6.4,78.9,42.5,78.5
						c9.9-0.1,18.6-0.8,24.8,8.5c2.5,3.8,8.3,4.9,13,6.6c11.3,4.1,23.4,5,35.1,7.4c22.5,4.6,42.5-1.3,60.8-12.3
						c7-4.2,11.7-4.9,18.7-1.1c13.3,7.2,26.8,9.5,40.3,6.3c0.6,0.3,1.1,0.6,1.7,0.9c30.3,17.8,67.4,21.5,96.2-2.4
						c5.4-4.4,10.7-7.8,16-10.5c4.8,1.5,9.5,4.1,14.6,7.4c41.5,26.1,100.8,12,124.6-29.6c5-8.7,10.9-10.3,19.3-10.5
						c21.7-0.6,33.8-12.8,40.5-32.7c1-2.9,1.6-5.7,2-8.5C3647.2,893.3,3629.2,847,3593.1,847.4z"/>
					<path class="st5" d="M2210.4,122.7c-18.1-8.9-51,0.6-64.6,4.4c-3.3-2.1-6.6-4.5-9.9-7c-1.2-0.9-2.4-1.9-3.5-2.9
						c1-14.6,4.8-41.6-40.7-71.1c-27.7-18-54.4-25.1-85.8-20.5c-23.4,3.4-41.4,14.8-50.6,37.4c-0.9,2.3-2.1,4.1-3.4,5.4
						c-25.3-28.1-63.6-38.7-106.9-26.5c-15.3,4.3-27.5,2.2-42.2-2.7c-56.4-18.9-109.6-11.3-157.2,25.6c-12.4,9.6-19.5,23.9-24,38.8
						c-3.7,12.2-9.8,18.5-23.3,21c-30.5,5.7-47.9,28.2-59.9,54.6c-5.5,12.2-8.1,25.3-9.4,38.6c-2.9,12.5-2.6,25.9,1.6,37.6
						c0.4,2.8,1.1,5.6,2,8.5c6.7,19.9,18.8,32.1,40.5,32.7c8.5,0.2,14.3,1.8,19.3,10.5c23.7,41.6,83,55.7,124.6,29.6
						c12.6-7.9,22.3-12.2,38.1-5.5c19.6,8.2,37.8,6.5,53.8-3c25.3,30,64.5,41.6,109,29c15.3-4.3,27.5-2.2,42.2,2.7
						c56.4,18.9,109.6,11.3,157.2-25.6c12.4-9.6,19.5-23.9,24-38.8c3.7-12.2,9.8-18.5,23.3-21c30.5-5.7,47.9-28.2,59.9-54.6
						c5.2-11.4,7.8-23.7,9.2-36.1C2242.3,160.5,2234.4,134.4,2210.4,122.7z"/>
					<path class="st5" d="M2495.4,1190.6c9.9-0.1,18.6-0.8,24.8,8.5c2.5,3.8,8.3,4.9,13,6.6c11.3,4.1,23.4,5,35.1,7.4
						c19,3.9,36.3,0.2,52.2-7.6c6.4,6,11.8,13.8,18.5,20.7c23.6,24,56.3,25,88.3,18.8c21.6-4.2,39-15,46.7-36.6
						c0-0.1,0.1-0.2,0.1-0.4c9.6-4.5,16.5-1.1,25.6,5.2c43.1,30.1,116.4,17.5,143.5-26c2-3.3,4.1-6,6.2-8.4c3.1-0.7,6.5-1,10.2-1.2
						c43.8-1.8,67.1-42.4,47.8-81.6c-11.3-23-31.6-34-55.8-37.6c-4.5-0.7-8.7-1.5-12.9-2.5c-1.7-8.8-5.4-17.6-11.6-25.9
						c-15.2-20.6-37.1-27.9-61.6-27.2c-17,0.5-31.7-1.1-46.7-11.9c-14.9-10.6-34-15.2-53-15.8c-20.7,0.9-40.7,4.3-55.4,19.7
						c-9.8,10.2-20.1,13.5-33.8,13.1c-20-0.6-38.3,3.8-54.2,14.7c-39.4-13.9-87.1,1.5-107.8,37.7c-0.5,0.9-1,1.6-1.5,2.3
						c-1.1,1-2.2,2.1-3.3,3.1c-0.7,0.7-1.4,1.4-2.1,2.1c-3.5,2.2-7.5,2.8-12.4,2.9c-21.7,0.6-33.8,12.8-40.5,32.7
						c-1,2.9-1.6,5.7-2,8.5C2441.3,1144.7,2459.3,1191,2495.4,1190.6z"/>
					<path class="st5" d="M4299.8,548.8c0.1-1.4,0.1-2.8,0-4.2c-0.7-18.8-2.7-37.8-10.5-54.9c-12-26.4-29.4-48.9-59.9-54.6
						c-13.4-2.5-19.6-8.8-23.3-21c-4.5-14.9-11.6-29.2-24-38.8c-47.5-36.9-100.8-44.6-157.2-25.6c-14.7,4.9-26.9,7-42.2,2.7
						c-63.8-18-116.8,13.4-133.3,78c-2.4,9.2-7.5,11.3-15.7,11.7c-19.9,1-38.6,6.4-53.1,20.7c-8.3,8.1-14.3,7.5-24.3,1.8
						c-41.8-23.9-91.8-2.2-102.5,44.3c-2.1,9.3-6,13.8-14.4,16.6c-1.6,0.5-3.1,1.1-4.7,1.8c-20.8,1.1-32.5,13.2-39,32.6
						c-1,2.9-1.6,5.7-2,8.5c-11.6,32.6,6.4,78.9,42.5,78.5c9.9-0.1,18.6-0.8,24.8,8.5c2.5,3.8,8.3,4.9,13,6.6
						c11.3,4.1,23.4,5,35.1,7.4c4.3,0.9,8.5,1.4,12.6,1.5c23.9,28,69.3,39.3,99.7,28.9c8.2-2.8,11.6-2.7,15.9,5
						c9.2,16.9,24,28.5,40.5,38.1c25.9,15.1,54.5,20.4,83.7,23.2c37.1,3.5,72.8-1.5,106.1-19.5c14.7-7.9,27.5-17.9,30.9-35.2
						c2.2-11.2,7.8-13.6,18.5-13.2c43.5,1.6,61.6-10.8,76.4-51.7c2.8-7.8,4.7-10.4,14-7.1c30,10.5,69.4-3.8,84-29.1
						C4303.2,589.8,4305.2,567.9,4299.8,548.8z"/>
					<path class="st5" d="M3828.7-72.2c-20.1-9.1-11.4-20.9-34.3-38.6c-13.8-10.6-29.3-8.3-34.4-7.6c-25.3,3.6-33.2-15.3-47.5-29.8
						c-23.6-24-56.3-25-88.3-18.8c-21.6,4.2-39,15-46.7,36.6c-3.6,10.2-9.4,10.6-18.5,9.2c-24.2-3.7-46.6,1.6-66.3,16.5
						c-13.3,10-17.1,12.9-11.3,18.6c-0.7,0-1.5,0-2.2,0c-36.1-0.4-54.1,45.9-42.5,78.5c0.4,2.8,1.1,5.6,2,8.5
						c6.7,19.9,18.8,32.1,40.5,32.7c8.5,0.2,14.3,1.8,19.3,10.5c23.7,41.6,83,55.7,124.6,29.6c12.6-7.9,22.3-12.2,38.1-5.5
						c28.2,11.8,53.7,3.1,73.7-20.2c3.9-4.6,7.9-8.2,13.7-9.8c5.5,0.4,11.3,0,17.1-1.1c0.3,0.1,0.5,0.1,0.8,0.2
						c29.1,6,54.6-5,75-25.1C3868.3-14.1,3862.1-57.1,3828.7-72.2z"/>
					<path class="st5" d="M595.9,314.6c-18.5-6.6-36.1,4.7-56.1,17.9c-34.2,22.6-72.9,29.8-112.8,12.9c-8-3.4-15.1-4-22.8,0.8
						c-37.3,23.2-75,21.7-112,0.1c-14-8.2-23.5-6.7-37.5,2.4c-36.7,23.6-76.8,36.5-121.9,26.5c-23.5-5.2-47.7-7.2-70.4-16
						c-9.4-3.7-21-6.1-26.1-14.3c-12.4-20-29.9-18.5-49.6-18.3c-80,1-126.3-79.5-86.4-148.6c18.8-32.5,69.3-50.9,107.9-37.4
						c11.9,4.2,14.3,0.9,17.9-9.1c19-52.6,42.2-68.4,98.1-66.4c13.8,0.5,20.9-2.5,23.8-17c4.4-22.2,20.9-35,39.7-45.2
						c42.7-23.1,88.5-29.5,136.2-25.1c37.5,3.5,74.3,10.4,107.5,29.8c21.2,12.3,40.1,27.2,52,48.9c5.4,9.9,9.9,10.1,20.4,6.5
						c52.2-18,138.8,14.1,147.9,80.3c0.3,2,1.7,4.1,1.3,5.8c-4.6,19.6,2.2,29.8,21.1,39.7c23.4,12.2,24.9,67.6,5.4,91.7
						C659.6,305.2,633.3,316.2,595.9,314.6z"/>
					<path class="st5" d="M343.6,607.8c-9.4-4.6-12.8-9.3-10.5-18.4c0.2-0.8-0.5-1.8-0.6-2.7c-3.9-26.5-36.6-41.2-62.3-39.4
						c-5.9-1.6-9.8-5.3-13.7-9.8c-20-23.3-45.5-32-73.7-20.2c-15.8,6.6-25.5,2.4-38.1-5.5c-41.5-26.1-100.8-12-124.6,29.6
						c-5,8.7-10.9,10.3-19.3,10.5c-21.7,0.6-33.8,12.8-40.5,32.7c-1,2.9-1.6,5.7-2,8.5c-11.6,32.6,6.4,78.9,42.5,78.5
						c9.9-0.1,18.6-0.8,24.8,8.5c2.5,3.8,8.3,4.9,13,6.6c11.3,4.1,23.4,5,35.1,7.4c22.5,4.6,42.5-1.3,60.8-12.3
						c7-4.2,11.7-4.9,18.7-1.1c18.5,10,37.3,10.7,55.9,0c3.8-2.2,7.4-1.9,11.4-0.3c19.9,7.8,39.2,4.5,56.3-6
						c9.9-6.1,18.7-11.3,28-8.3c18.7,0.8,31.8-4.4,41.7-15.8C356,639.2,355.3,613.5,343.6,607.8z"/>
					<path class="st5" d="M854.2,847.4c-9.9,0.1-18.6,0.8-24.8-8.5c-2.5-3.8-8.3-4.9-13-6.6c-11.3-4.1-23.4-5-35.1-7.4
						c-22.5-4.6-42.5,1.3-60.8,12.3c-1.7,1-3.4,1.9-4.9,2.5c-4.9-0.9-9.8-1.6-14.7-1.8c-14.4-7.6-29-9.5-43.6-4.7
						c-0.1-0.1-0.2-0.2-0.4-0.2c-34.1-24.6-84.5-18.6-113.3,9.5c-3.5-1.5-7-3.6-10.8-6c-41.5-26.1-100.8-12-124.6,29.6
						c-5,8.7-10.9,10.3-19.3,10.5c-21.7,0.6-33.8,12.8-40.5,32.7c-1,2.9-1.6,5.7-2,8.5c-11.6,32.6,6.4,78.9,42.5,78.5
						c9.9-0.1,18.6-0.8,24.8,8.5c2.5,3.8,8.3,4.9,13,6.6c11.3,4.1,23.4,5,35.1,7.4c22.5,4.6,42.5-1.3,60.8-12.3
						c7-4.2,11.7-4.9,18.7-1.1c13.3,7.2,26.8,9.5,40.3,6.3c0.6,0.3,1.1,0.6,1.7,0.9c30.3,17.8,67.4,21.5,96.2-2.4
						c5.4-4.4,10.7-7.8,16-10.5c4.8,1.5,9.5,4.1,14.6,7.4c41.5,26.1,100.8,12,124.6-29.6c5-8.7,10.9-10.3,19.3-10.5
						c21.7-0.6,33.8-12.8,40.5-32.7c1-2.9,1.6-5.7,2-8.5C908.2,893.3,890.2,847,854.2,847.4z"/>
					<path class="st5" d="M-243.6,1190.6c9.9-0.1,18.6-0.8,24.8,8.5c2.5,3.8,8.3,4.9,13,6.6c11.3,4.1,23.4,5,35.1,7.4
						c19,3.9,36.3,0.2,52.2-7.6c6.4,6,11.8,13.8,18.5,20.7c23.6,24,56.3,25,88.3,18.8c21.6-4.2,39-15,46.7-36.6
						c0-0.1,0.1-0.2,0.1-0.4c9.6-4.5,16.5-1.1,25.6,5.2c43.1,30.1,116.4,17.5,143.5-26c2-3.3,4.1-6,6.2-8.4c3.1-0.7,6.5-1,10.2-1.2
						c43.8-1.8,67.1-42.4,47.8-81.6c-11.3-23-31.6-34-55.8-37.6c-4.5-0.7-8.7-1.5-12.9-2.5c-1.7-8.8-5.4-17.6-11.6-25.9
						c-15.2-20.6-37.1-27.9-61.6-27.2c-17,0.5-31.7-1.1-46.7-11.9c-14.9-10.6-34-15.2-53-15.8c-20.7,0.9-40.7,4.3-55.4,19.7
						c-9.8,10.2-20.1,13.5-33.8,13.1c-20-0.6-38.3,3.8-54.2,14.7c-39.4-13.9-87.1,1.5-107.8,37.7c-0.5,0.9-1,1.6-1.5,2.3
						c-1.1,1-2.2,2.1-3.3,3.1c-0.7,0.7-1.4,1.4-2.1,2.1c-3.5,2.2-7.5,2.8-12.4,2.9c-21.7,0.6-33.8,12.8-40.5,32.7
						c-1,2.9-1.6,5.7-2,8.5C-297.7,1144.7-279.7,1191-243.6,1190.6z"/>
					<path class="st5" d="M1560.8,548.8c0.1-1.4,0.1-2.8,0-4.2c-0.7-18.8-2.7-37.8-10.5-54.9c-12-26.4-29.4-48.9-59.9-54.6
						c-13.4-2.5-19.6-8.8-23.3-21c-4.5-14.9-11.6-29.2-24-38.8c-47.5-36.9-100.8-44.6-157.2-25.6c-14.7,4.9-26.9,7-42.2,2.7
						c-63.8-18-116.8,13.4-133.3,78c-2.4,9.2-7.5,11.3-15.7,11.7c-19.9,1-38.6,6.4-53.1,20.7c-8.3,8.1-14.3,7.5-24.3,1.8
						c-41.8-23.9-91.8-2.2-102.5,44.3c-2.1,9.3-6,13.8-14.4,16.6c-1.6,0.5-3.1,1.1-4.7,1.8c-20.8,1.1-32.5,13.2-39,32.6
						c-1,2.9-1.6,5.7-2,8.5c-11.6,32.6,6.4,78.9,42.5,78.5c9.9-0.1,18.6-0.8,24.8,8.5c2.5,3.8,8.3,4.9,13,6.6
						c11.3,4.1,23.4,5,35.1,7.4c4.3,0.9,8.5,1.4,12.6,1.5c23.9,28,69.3,39.3,99.7,28.9c8.2-2.8,11.6-2.7,15.9,5
						c9.2,16.9,24,28.5,40.5,38.1c25.9,15.1,54.5,20.4,83.7,23.2c37.1,3.5,72.8-1.5,106.1-19.5c14.7-7.9,27.5-17.9,30.9-35.2
						c2.2-11.2,7.8-13.6,18.5-13.2c43.5,1.6,61.6-10.8,76.4-51.7c2.8-7.8,4.7-10.4,14-7.1c30,10.5,69.4-3.8,84-29.1
						C1564.2,589.8,1566.3,567.9,1560.8,548.8z"/>
					<path class="st5" d="M1089.8-72.2c-20.1-9.1-11.4-20.9-34.3-38.6c-13.8-10.6-29.3-8.3-34.4-7.6c-25.3,3.6-33.2-15.3-47.5-29.8
						c-23.6-24-56.3-25-88.3-18.8c-21.6,4.2-39,15-46.7,36.6c-3.6,10.2-9.4,10.6-18.5,9.2c-24.2-3.7-46.6,1.6-66.3,16.5
						c-13.3,10-17.1,12.9-11.3,18.6c-0.7,0-1.5,0-2.2,0c-36.1-0.4-54.1,45.9-42.5,78.5c0.4,2.8,1.1,5.6,2,8.5
						c6.7,19.9,18.8,32.1,40.5,32.7c8.5,0.2,14.3,1.8,19.3,10.5c23.7,41.6,83,55.7,124.6,29.6c12.6-7.9,22.3-12.2,38.1-5.5
						c28.2,11.8,53.7,3.1,73.7-20.2c3.9-4.6,7.9-8.2,13.7-9.8c5.5,0.4,11.3,0,17.1-1.1c0.3,0.1,0.5,0.1,0.8,0.2
						c29.1,6,54.6-5,75-25.1C1129.3-14.1,1123.2-57.1,1089.8-72.2z"/>
				</g>
				<path class="st6" d="M1306.2,1730.8c-97.5-149.5-401.5-294-653-292.8c-1.8,0-3.6,0.1-5.4,0.1c-1.8,0-3.6-0.1-5.4-0.1
					c-251.6-1.3-555.9,143.2-653.3,292.8h-32.3v492.4h1406.5v-492.4H1306.2z"/>
				<g class="st4">
					<g>
						<g>
							<path class="st7" d="M1103.1,1887.6c0.2-17.9,0.4-35.8,0.6-53.7c-3.2,2.4-6.3,4.8-9.5,7.2c12,3.7,22.6,10.1,31.4,19
								c4.9,4.9,12.2,0.9,12.8-5.3c1.7-18.5,4.8-36.9,9.2-55c-4.6,0.6-9.1,1.2-13.7,1.8c6.5,8.9,7.2,20.4,12.8,29.8
								c5.1,8.5,14.3,16.1,24.7,15.4c11.6-0.7,17.9-11,24.4-19.2c8.1-10.2,16.2-20.5,24.3-30.7c-3,0.4-6.1,0.8-9.1,1.2
								c8.7,4.5,2.1,21.2,1.9,28.5c-0.2,10.2,3.8,23.7,14.6,27.1c2.7,0.9,5.6,0.9,8.4,0.4c0.7-0.1,1.3-0.2,1.9-0.4
								c2.9-0.4,2.2-1.7-2-4.1c0.2-0.2-0.4,3.2-0.4,3c-1,7-0.4,12.9,4.5,18.4c11.4,12.6,28.2,6.9,41.2,0.6c8.7-4.3,1.1-17.2-7.6-13
								c-5.2,2.6-12,6.3-18,4.9c-5.6-1.4-5.9-4.6-5.2-9.4c1-6.3-0.4-12.8-7.1-15.2c-3.5-1.3-6.1-0.1-9.5,0.4
								c-1.8,0.2-1.3,0.7-2.6-0.3c-2.7-2.2-3.3-7.3-3.4-10.5c-0.2-5,1.2-9.9,1.7-14.8c1.2-10.7-0.5-23-11.1-28.4
								c-2.7-1.4-7-1.5-9.1,1.2c-6.5,8.2-12.9,16.4-19.4,24.6c-3.2,4.1-6.5,8.2-9.7,12.3c-2.2,2.8-4.8,7.2-8.4,8.4
								c-6.8,2.3-12.5-7.4-14.4-12.4c-3.3-8.5-5.1-17.6-10.6-25.1c-3.5-4.9-12.1-5-13.7,1.8c-4.7,19.4-7.9,39.1-9.7,59
								c4.3-1.8,8.5-3.5,12.8-5.3c-10.7-10.7-23.6-18.4-38-22.9c-4.7-1.4-9.4,2.5-9.5,7.2c-0.2,17.9-0.4,35.8-0.6,53.7
								C1088,1897.3,1103,1897.3,1103.1,1887.6L1103.1,1887.6z"/>
						</g>
					</g>
					<g>
						<g>
							<path class="st7" d="M373.7,2075c-6.3-19-9.4-38.6-9.3-58.6c-3.8,2.2-7.5,4.3-11.3,6.5c7.8,3.8,15.6,7.6,23.4,11.5
								c7,3.4,15.1,8.9,23.2,8.5c12-0.6,15.8-11.8,17.9-21.7c0.6-3.1,1.4-8.2,3.1-9.7c0.4-0.3,0.8-0.6,2.2,0c2.3,1,4.1,4.7,4.9,6.9
								c2.3,6,3.2,12.5,6.9,18c3.9,5.8,10.1,9.5,17.2,9.5c18.4-0.2,25.5-18.4,28.4-33.6c1.8-9.4-11.5-13.3-14.5-4
								c-6.2,19.5,13.9,32.9,30.8,34.5c22,2.1,38.8-17,59.6-20.4c-3.2-2.4-6.3-4.8-9.5-7.2c-0.8,13.1-5.1,25.4-12,36.5
								c-5.2,8.2,7.8,15.7,13,7.6c8.4-13.3,13.1-28.4,14.1-44.1c0.3-5.3-5-7.9-9.5-7.2c-8.8,1.4-17,5.2-24.9,9.4
								c-7.6,3.9-15.6,9.1-24.2,10.4c-8.5,1.3-26.6-3.9-22.9-15.4c-4.8-1.3-9.6-2.7-14.5-4c-1.4,7.1-2.6,16.7-9.3,21
								c-6.2,3.9-9.7-0.4-11.7-6.1c-2.6-7.6-4.2-15.3-10.1-21.2c-5.4-5.3-13.4-7.9-20.5-4.2c-11,5.7-9.5,18.2-13.4,28.1
								c-0.3,0.9-0.8,2-1.7,2.1c-2.8,0.5-8-3-10.9-4.4c-9.3-4.5-18.5-9-27.8-13.6c-5-2.5-11.3,0.5-11.3,6.5
								c-0.1,21.2,3.2,42.4,9.9,62.6C362.3,2088.1,376.7,2084.2,373.7,2075L373.7,2075z"/>
						</g>
					</g>
					<g>
						<g>
							<path class="st7" d="M113,1716.5c-6.1-10.4-12.2-20.8-18.3-31.3c-1.1-1.9-4.9-7.4-3.8-8.9c0.7-0.9,3.8-0.8,5.5-0.6
								c7.8,1.1,12.2,7.7,17.7,12.6c7.4,6.7,15.1,10.8,25.2,9.3c3.5-0.5,5.1-4.2,5.5-7.2c1.6-12.3,3.2-24.5,4.8-36.8c-5,0-10,0-15,0
								c0.7,14.7,4.9,28.8,12.3,41.6c1.5,2.6,5.4,4.7,8.5,3.4c14.3-5.8,17.6-19.6,21.9-33c1.5-4.9,5.1-12.6,10.6-14
								c4.1-1,6.6,3.3,8.4,6.4c5.3,9.1,9.8,21.3,22.2,21.8c3.6,0.1,6.8-0.9,10.1-2.3c2.3-1,5.5-3.5,8.1-2.5
								c4.4,1.6,6.9,9.8,8.9,13.5c6.9,12.7,27.7,21.1,34.9,4.1c1.6-3.8-1.7-8.2-5.2-9.2c-4.3-1.2-7.7,1.5-9.2,5.2
								c0.6-1.4,1.6-0.7,1.1-1.2c-0.3-0.3-2.1-0.4-2.7-0.6c-1.8-0.8-3.5-2.2-4.7-3.8c-3.8-5.1-5.5-11.3-9.8-16.2
								c-4.3-4.9-10.4-7.7-17-6.7c-3.6,0.5-6.7,2.2-9.9,3.6c-1.1,0.5-2.2,1.1-3.5,1.2c-0.7,0-1.4-0.3-1.3-0.3
								c-2.7-1.4-4.7-6.3-6.4-9.4c-2.3-4.5-4.8-9.1-8.5-12.7c-10.8-10.4-25.3-5.6-33.5,5.3c-4.8,6.3-6.8,13.5-9.1,20.9
								c-1.6,5.2-3.7,13.2-9.3,15.5c2.8,1.1,5.6,2.3,8.5,3.4c-6.1-10.4-9.7-21.9-10.3-34c-0.5-9.9-13.8-9.4-15,0
								c-1.6,12.3-3.2,24.5-4.8,36.8c1.8-2.4,3.7-4.8,5.5-7.2c-3.9,0.5-8-3.1-10.6-5.5c-3.9-3.6-7.4-7.7-11.7-10.9
								c-7-5.3-17.4-7.9-25.9-5.1c-11.1,3.7-13.4,15.3-8.7,25.1c6.2,12.9,14.5,25,21.7,37.4C104.9,1732.4,117.9,1724.8,113,1716.5
								L113,1716.5z"/>
						</g>
					</g>
					<g>
						<g>
							<path class="st7" d="M741.8,1588.3c-6.3-0.1-12.6-0.2-18.9-0.3c-8.6-0.1-10,12.2-2,14.7c22.7,7.1,45.9,12,69.5,14.9
								c3,0.4,6.7-2.6,7.2-5.5c2.1-12.1,0.5-23.5-4.7-34.6c-3.4,3.4-6.8,6.8-10.3,10.3c7.7,3.9,15.4,7.8,23.1,11.7
								c4.3,2.2,9.6,0.4,11-4.5c3.2-11.2,8.4-21.4,15.3-30.7c-4.3,0-8.6,0-13,0c9.1,18.9,35.8,22.9,51,9.4
								c-4.3-1.8-8.5-3.5-12.8-5.3c-1.7,17.3,5.4,34.9,18.4,46.3c7.2,6.4,17.9-4.2,10.6-10.6c-10.4-9.1-15.4-22-14-35.7
								c0.7-7-8.4-9.2-12.8-5.3c-8.5,7.5-22.7,3.4-27.4-6.3c-2.7-5.6-9.9-4.1-13,0c-7.6,10.4-13.2,22-16.8,34.3
								c3.7-1.5,7.3-3,11-4.5c-7.7-3.9-15.4-7.8-23.1-11.7c-6.9-3.5-13.5,3.5-10.3,10.3c3.4,7.1,4.6,15.2,3.2,23
								c2.4-1.8,4.8-3.7,7.2-5.5c-22.2-2.8-44.2-7.7-65.5-14.4c-0.7,4.9-1.3,9.8-2,14.7c6.3,0.1,12.6,0.2,18.9,0.3
								C751.4,1603.4,751.4,1588.4,741.8,1588.3L741.8,1588.3z"/>
						</g>
					</g>
					<g>
						<g>
							<path class="st7" d="M734.7,1751.2c6.3-0.1,12.6-0.2,18.9-0.3c-0.7-4.9-1.3-9.8-2-14.7c-21.4,6.7-43.3,11.6-65.5,14.4
								c2.4,1.8,4.8,3.7,7.2,5.5c-1.3-7.8-0.2-15.9,3.2-23c3.2-6.8-3.3-13.8-10.3-10.3c-7.7,3.9-15.4,7.8-23.1,11.7
								c3.7,1.5,7.3,3,11,4.5c-3.6-12.4-9.1-24-16.8-34.3c-3-4.1-10.3-5.6-13,0c-4.7,9.7-18.9,13.9-27.4,6.3
								c-4.4-3.9-13.5-1.7-12.8,5.3c1.3,13.8-3.7,26.6-14,35.7c-7.3,6.4,3.4,17,10.6,10.6c13-11.5,20.1-29,18.4-46.3
								c-4.3,1.8-8.5,3.5-12.8,5.3c15.2,13.5,41.9,9.5,51-9.4c-4.3,0-8.6,0-13,0c6.9,9.4,12.1,19.6,15.3,30.7
								c1.4,4.9,6.7,6.7,11,4.5c7.7-3.9,15.4-7.8,23.1-11.7c-3.4-3.4-6.8-6.8-10.3-10.3c-5.3,11.1-6.8,22.5-4.7,34.6
								c0.5,2.9,4.2,5.9,7.2,5.5c23.6-2.9,46.8-7.8,69.5-14.9c7.9-2.5,6.7-14.9-2-14.7c-6.3,0.1-12.6,0.2-18.9,0.3
								C725,1736.4,725,1751.4,734.7,1751.2L734.7,1751.2z"/>
						</g>
					</g>
				</g>
				<g class="st4">
					<path class="st8" d="M374.5,1085.9l18.2,211.4c0,0,29.7-12.3,101.8,31.2c106.1,64,275.1,59.4,360.5,44
						c0,0,108.1-9.2,150.5,30.5l-10.9-240.4c0,0-163.3,0.9-207.4-86l-24.7,24.1c0,0-25.4-51.3-71.3-52
						c-37.2-0.6-67.5,28.2-72.1,54.2l-24.5-33.3C594.6,1069.5,556,1103.5,374.5,1085.9z"/>
					<path class="st9" d="M367.2,959.8c0,0-6.6,74.8-50.6,83.6s99,0,99,0S373.8,1043.4,367.2,959.8z"/>
					<path class="st10" d="M374.5,1085.9l18.2,211.4c0,0,29.7-12.3,101.8,31.2c106.1,64,275.1,59.4,360.5,44
						c0,0,105.2-6.3,150.5,30.5l-10.9-240.4c0,0-163.3,0.9-207.4-86l-24.7,24.1c0,0-25.4-51.3-71.3-52
						c-37.2-0.6-67.5,28.2-72.1,54.2l-24.5-33.3C594.6,1069.5,556,1103.5,374.5,1085.9z"/>
					<path class="st9" d="M1003.2,1028.5c0,0-6.6,74.8-50.6,83.6s99,0,99,0S1009.8,1112.1,1003.2,1028.5z"/>
					<path class="st9" d="M389.2,1606.4h-37.4c-14.5,0-26.4-11.9-26.4-26.4l4.4-510.3c0-14.5,11.9-26.4,26.4-26.4h28.6
						c14.5,0,26.4,11.9,26.4,26.4l4.4,510.3C415.6,1594.6,403.7,1606.4,389.2,1606.4z"/>
					<path class="st9" d="M1023,1675.2h-37.4c-14.5,0-26.4-11.9-26.4-26.4l4.4-510.3c0-14.5,11.9-26.4,26.4-26.4h28.6
						c14.5,0,26.4,11.9,26.4,26.4l4.4,510.3C1049.4,1663.3,1037.5,1675.2,1023,1675.2z"/>
					<path class="st9" d="M427.5,1063.2H309c-1.9,0-3.5-1.6-3.5-3.5v-23.9c0-1.9,1.6-3.5,3.5-3.5h118.4c1.9,0,3.5,1.6,3.5,3.5v23.9
						C431,1061.6,429.4,1063.2,427.5,1063.2z"/>
					<path class="st9" d="M1061.3,1131.9H942.9c-1.9,0-3.5-1.6-3.5-3.5v-23.9c0-1.9,1.6-3.5,3.5-3.5h118.4c1.9,0,3.5,1.6,3.5,3.5
						v23.9C1064.8,1130.4,1063.2,1131.9,1061.3,1131.9z"/>
					<path class="st11" d="M385.2,999.4h-36.1c-2.2,0-4-1.8-4-4v-27.3c0-2.2,1.8-4,4-4h36.1c2.2,0,4,1.8,4,4v27.3
						C389.2,997.6,387.4,999.4,385.2,999.4z"/>
					<path class="st11" d="M1021.2,1068.1h-36.1c-2.2,0-4-1.8-4-4v-27.3c0-2.2,1.8-4,4-4h36.1c2.2,0,4,1.8,4,4v27.3
						C1025.2,1066.4,1023.4,1068.1,1021.2,1068.1z"/>
					<g>
						<path class="st12" d="M479.2,1177.2c7,0.7,12.5,1.5,16.3,2.4c3.9,0.9,7.3,2.2,10.5,3.9c2.9,1.6,5.6,3.9,8.2,6.9
							c2.5,3,4.2,5.4,4.8,7.4c1.3,3.7,1.7,7.5,1.3,11.6c-0.6,5.9-2.7,11.2-6.3,16.2s-8.1,8.5-13.5,10.7c-4.5,1.7-8.9,2.8-13.1,3.3
							c-4.2,0.5-9.3,0.4-15.2-0.1c-6-0.6-10-1.3-11.9-2c-1.5-0.5-2.4-0.8-3-1.1c-0.5-0.3-0.9-0.9-1-1.8c-0.2-0.9-0.2-2.6,0-5.1
							l0.9-6.5c0.3-2.1,0.6-4.8,0.9-8.2l4.1-34.7c0.2-1.6,0.5-2.5,0.9-3c0.4-0.4,1.1-0.7,2.3-0.7
							C467.5,1176.2,472.1,1176.5,479.2,1177.2z M484.8,1196.1c-0.7-0.1-1.2,0-1.4,0.3c-0.2,0.3-0.4,1-0.6,2.1
							c-0.6,3-1.2,7.3-1.7,12.8c-0.6,6-0.7,9.2-0.5,9.5c0.1,0.2,0.6,0.3,1.3,0.4c2.6,0.3,5.2-0.1,7.8-1.1c2.6-1,4.9-2.5,6.7-4.5
							c1.8-2.1,2.8-4.3,3-6.6c0.1-1.2,0-2.3-0.4-3.3c-0.9-3.5-4.1-6.2-9.5-8.1C486.9,1196.6,485.3,1196.1,484.8,1196.1z"/>
						<path class="st12" d="M557,1185.1c7.6,0.8,14.4,3,20.3,6.8c5.9,3.8,9.9,8.4,11.9,14c1.4,4.2,1.8,9.2,1.2,15.3
							c-0.4,3.7-1.3,7.1-2.8,9.9c-1.5,2.9-4.1,5.8-7.7,8.8c-3.8,3-7.8,5.2-12.2,6.4c-4.3,1.3-8.6,1.7-12.8,1.3
							c-0.5,0-0.9-0.1-1.3-0.2l-1.4-0.1c-6-0.9-11.2-3-15.8-6.3c-4.5-3.3-8-7.4-10.3-12.3c-2.4-4.9-3.4-10.2-3.2-15.7l0.2-1.9
							c1.1-11.6,7.5-19.6,19-24c2.7-1,5.2-1.6,7.4-1.9C552,1184.8,554.4,1184.8,557,1185.1z M557.1,1203.1c-0.4,0-1.1,0-2.2,0
							c-4,0.9-7.2,3.3-9.6,7c-0.8,1.2-1.3,2.4-1.4,3.6c-0.1,0.9-0.1,1.6-0.1,2c0,2.4,0.3,4.2,0.9,5.4c2.1,4.5,5.7,7.2,10.8,8
							l0.8,0.1c2.2,0.2,4.2-0.2,6.1-1.3c1.9-1.1,3.4-2.4,4.5-4.1c1.1-1.7,1.8-3.2,1.9-4.5c0.1-0.9,0.1-1.4,0.1-1.8
							c0.1-6-1.9-10.2-6-12.8C561.6,1203.9,559.6,1203.3,557.1,1203.1z"/>
						<path class="st12" d="M630.6,1188.7c10.5,1,17.8,3.7,22,8.1c0.6,0.7,1,1.2,1.1,1.5c0.1,0.3,0.1,0.8-0.1,1.5
							c-0.2,0.9-1.2,2.9-2.9,5.8c-1.8,2.9-3.1,4.7-3.8,5.4l-1.1,0.5c-0.3,0-1-0.4-2.1-1c-4.5-2.5-8.4-3.9-11.9-4.2
							c-2.7-0.3-5.4,0.3-8.1,1.6c-2.7,1.3-4.7,3.2-6.2,5.7c-1,1.8-1.6,3.3-1.7,4.6c-0.1,1.3-0.2,2.1-0.1,2.6
							c-0.1,2.9,0.2,5.1,0.9,6.7c2.2,4.5,6.6,7,13.2,7.7c2.3,0.2,5,0.1,8.1-0.5c1-0.1,1.5-0.8,1.6-1.9c0.1-0.9,0-1.5-0.3-1.8
							c-0.4-0.2-1.9-0.6-4.5-1.2c-2.8-0.4-4.6-1-5.4-1.8c-0.8-0.8-1.1-2.1-0.9-4.2c0.1-1.3,0.3-2.2,0.4-2.7c0.7-3,1.6-4.7,2.9-5
							c1-0.2,5.2,0,12.8,0.8c7.4,0.7,11.5,1.3,12.4,1.7c0.4,0.1,0.8,0.6,1.4,1.6c0.2,0.5,0.2,3.8,0.1,9.9
							c-0.1,6.1-0.3,10.5-0.6,13.2c-0.1,1-0.2,1.6-0.3,1.6c-0.4,1.4-2.1,2.7-4.9,4.1c-2.8,1.3-6.3,2.4-10.3,3.2
							c-4,0.8-8,1.1-11.9,0.8l-2.3-0.2c-6.9-0.7-13.1-2.7-18.4-6.1c-5.3-3.4-9.5-8-12.6-13.7c-1.4-2.6-2.3-4.8-2.6-6.6
							c-0.3-1.8-0.3-4.3,0-7.4c0.9-9.4,4.2-16.6,9.9-21.7c5.7-5.1,12.9-7.9,21.5-8.6C626.7,1188.4,628.4,1188.5,630.6,1188.7z"/>
						<path class="st12" d="M693.6,1198.4l6.9,0.7c8.8,0.9,15.7,1.8,20.6,2.9c4.9,1.1,8.9,2.7,11.8,4.8c2.9,2.1,5.1,5,6.5,8.7
							c0.6,1.8,1,3.1,1,3.8c0.1,0.8,0,2.3-0.2,4.8c-0.3,3.4-0.9,5.9-1.6,7.5c-3.6,8.1-9.9,13-18.8,14.7c-2.3,0.5-5.1,0.6-8.4,0.2
							l-4.9-0.5l-0.4,1.4c0,0.1-0.2,0.9-0.5,2.4l-0.7,3.5c-0.6,2.8-1.2,4.6-1.8,5.5c-0.5,0.7-1.4,0.9-2.6,0.8l-4-0.6
							c-7.5-1.1-11.8-2.2-12.7-3.3c-0.4-0.5-0.6-1.4-0.4-2.8c0.3-2.6,0.8-6.1,1.5-10.5c1.3-7.4,2.3-15.4,3.2-24.2
							c0.7-7.2,1.3-11.8,1.8-14c0.5-2.3,1.2-3.9,2.2-4.7L693.6,1198.4z M711.4,1217.3c-0.9-0.1-1.6,0-1.9,0.3
							c-0.4,0.4-0.8,2.4-1.2,6.1c-0.2,2.5-0.3,4.2-0.3,5.2c0.1,0.7,0.5,1.1,1.3,1.2l1.7-0.1c1.9-0.1,3.5-0.8,4.9-1.9
							c1.4-1.2,2.1-2.6,2.3-4.3c0.1-1.3,0.1-2.3-0.1-2.8c-0.2-0.6-0.7-1.2-1.5-1.8C715.3,1218.1,713.6,1217.5,711.4,1217.3z"/>
						<path class="st12" d="M761.2,1204.6c3,0.3,6,0.7,9.2,1.2c3.2,0.5,5.2,1,6,1.5c0.7,0.4,1.5,1.6,2.1,3.6c0.7,2.2,2,6.6,3.7,13.2
							c2.3,8.3,4.3,14.9,6,20c3.9,12.5,5.7,19.7,5.6,21.6c-0.1,0.8-0.6,1.4-1.6,2c-1.8,1-5.5,1.2-10.9,0.7c-0.4,0-0.7-0.1-0.9-0.2
							l-0.8-0.1c-1.6-0.3-2.8-0.9-3.4-1.7c-0.7-0.8-1.2-2.3-1.6-4.5l-0.6-3.1l-2.7-0.5c-2.8-0.6-6.7-1.1-11.9-1.6
							c-2.6-0.3-4.1-0.4-4.7-0.3l-3.8,0l-1.5,3.2c-0.9,1.9-1.6,3.1-2.1,3.6s-1.5,0.8-2.8,0.9c-1.4,0.1-3.6,0-6.6-0.3
							c-3-0.3-5-0.6-6.1-1.1c-1.1-0.4-1.6-1.3-1.5-2.5c0.2-1.6,1.7-5.4,4.6-11.5c3.6-7.8,6.9-15.1,10-22.1
							c5.9-13.4,10.1-20.7,12.7-21.7C758.3,1204.5,759.6,1204.4,761.2,1204.6z M765.2,1225.8c-0.2,0-1.4,2-3.4,5.9c-2,4-3,6.3-3.1,7
							c-0.1,0.7,2,1.3,6.1,1.7c1.4,0.1,2.5,0.2,3.2,0.1c0.7-0.1,1.1-0.4,1.2-1.1c0.1-1.2-0.6-4.4-2.3-9.3
							C765.8,1227.2,765.3,1225.8,765.2,1225.8z"/>
						<path class="st12" d="M819.4,1211.7c8.1,0.8,14,1.6,17.6,2.3c3.6,0.7,6.4,1.8,8.4,3.3c2,1.5,4,3.8,5.9,7
							c2.7,4.3,3.8,8.4,3.4,12.4c-0.1,1.1-0.3,2.3-0.7,3.6c-1.4,4.9-4.1,8.6-8.2,11.1l-1.6,1.1l2.4,7.9c1.8,6.1,2.6,9.6,2.5,10.5
							c0,0.1-0.1,0.3-0.3,0.8c-0.2,0.3-2.4,0.5-6.6,0.7c-4.2,0.2-7.3,0.2-9.3,0c-1.7-0.2-2.9-0.6-3.5-1.4c-0.6-0.7-1.3-2.4-2-4.9
							c-1.5-5.6-2.6-8.5-3.4-8.6l-1.9-0.4c-0.6-0.1-1.1,0.1-1.3,0.3c-0.3,0.2-0.7,2.3-1.5,6.4c-0.5,2.2-0.8,3.9-1.1,5.1
							c-0.3,0.7-0.8,1.3-1.5,1.7c-0.8,0.5-2.5,0.7-4.9,0.5l-5-0.5l-3.7-0.5c-2.2-0.2-3.5-0.4-3.9-0.5c-0.9-0.2-1.5-0.6-1.8-1.1
							c-0.5-0.6-0.6-2.1-0.4-4.6c0.2-2.5,0.6-5,1.2-7.4c1.1-5.4,2.8-16.7,5.1-34c0.8-6.7,1.5-10.3,2.1-10.8c0.5-0.4,2-0.6,4.4-0.6
							C811.7,1211.1,814.9,1211.3,819.4,1211.7z M825.6,1230c-1.2-0.3-1.9-0.4-2.1-0.3c-0.4,0.1-0.7,0.4-0.8,0.9
							c-0.3,0.7-0.6,2.2-0.8,4.6c-0.3,3.1-0.3,4.8,0,5.1c0.3,0.3,1,0.5,2.2,0.6c1.4,0.1,2.6,0.1,3.4-0.1c0.9-0.2,1.8-0.8,2.9-1.6
							c1.1-0.9,1.7-1.6,1.9-2.2c0.1-0.1,0.1-0.3,0.2-0.7c0.2-2-0.7-3.6-2.7-4.8C828.5,1230.7,827.1,1230.2,825.6,1230z"/>
						<path class="st12" d="M861.8,1214c1.2-0.2,4.1-0.1,8.7,0.4c4.3,0.4,7,0.8,8.1,1.3c1.3,0.5,1.9,1.2,1.8,2.2l-0.2,1.6l-0.4,3.6
							c-0.2,1-0.4,2.4-0.5,4.2c-0.5,5.3-0.6,8-0.3,8c0.6,0.1,3.9-3,9.9-9.2c1.4-1.5,3.2-3.2,5.3-4.9l2.6-2.1l4.4,0.7
							c3.4,0.4,6.5,0.9,9.2,1.5c2.9,0.4,4.6,0.9,5.1,1.2c0.4,0.3,0.5,0.6,0.5,1.1c-0.1,0.9-1.6,2.8-4.5,5.6
							c-9.3,8.9-14,13.8-14.1,14.5c0,0.3-0.3,0.7-0.8,1.1c-0.8,0.5-1.2,1-1.2,1.4c-0.1,1.2,5.5,10.8,16.8,28.8
							c1.5,2.7,2.3,4.4,2.2,5.2c0,0.5-0.2,0.8-0.6,1c-0.4,0.3-4.7,0.1-12.7-0.7l-4.1-0.4l-3.3-0.2c-2-0.2-3.5-0.4-4.3-0.7
							c-0.8-0.3-1.5-0.8-2-1.4c-0.5-0.7-1.1-1.9-1.8-3.7c-0.3-0.5-0.5-0.9-0.6-1.2c-1.1-2.5-2.6-5.7-4.6-9.7c-1.7-3.4-2.7-5.1-3-5.1
							c-2-0.2-3.4,4.4-4.3,13.9l-0.1,1.3c-0.2,1.6-0.5,2.7-1,3.2c-0.5,0.5-1.6,0.6-3.2,0.5c-1.5-0.1-3.9-0.5-7.1-0.9
							c-3.3-0.5-5.3-0.8-6-1.1c-0.9-0.2-1.6-0.6-2.1-1.3l-1.1-1.2l1-6.4c0.6-3.5,1.6-13,3.2-28.6c1.5-14.8,2.4-22.3,2.8-22.7
							C859.7,1214.4,860.5,1214.2,861.8,1214z"/>
					</g>
				</g>
				<path class="st2" d="M1159,1160.3c0,0,3.6,57.7,43.3,55.6c0,0-44.9,42.1-47.1,66.6c0,0-4.5-48.2-26.1-53.1
					C1107.5,1224.5,1157.2,1237.9,1159,1160.3z"/>
				<path class="st2" d="M440,850.3c0,0-32.2,78.4-59.1,80c0,0,43.9,29.1,45.6,71c0,0,34.6-85.1,53-84
					C497.9,918.3,441.1,914.5,440,850.3z"/>
				<path class="st2" d="M1029.7,1359.3c0,0,37.7-53.1,47.8-82.7s-20.5,64.4,29.7,86.1l-40.6,38.8L1029.7,1359.3z"/>
				<path class="st2" d="M224.5,1183.7c0,0,2.8,44.7,33.6,43.1c0,0-34.8,32.6-36.5,51.6c0,0-3.5-37.4-20.2-41.2
					C184.6,1233.4,223.1,1243.8,224.5,1183.7z"/>
				<path class="st2" d="M441.2,1601.1c0,0-2.7,65.7-21.9,73.9c0,0,39.7,9.6,52,39.7c0,0,2.7-71.1,16.4-75.2
					S459,1647.6,441.2,1601.1z"/>
				<path class="st2" d="M821.3,1389.1c0,0,29.2-41.1,37.1-64.1c7.9-22.9-15.9,50,23,66.8l-31.5,30.1L821.3,1389.1z"/>
			</g>
			<g class="st1">
				<g>
					<g>
						<path class="st13" d="M725-167.8c5.9-6.3,11.9-12.6,17.9-18.8h-9.3H586.6H578c6.6,6.9,13.2,13.8,19.7,20.9
							C661.4-96.6,659.1-97.2,725-167.8z"/>
					</g>
					<g>
						<path class="st13" d="M-1.7,2167.6h147.1h123.2C175.8,2090.7,85.5,2011.3-1.7,1929V2167.6z"/>
					</g>
					<g>
						<path class="st13" d="M1174.9,2167.6h147.1v-240.6c-88.2,82.7-179.4,162.7-272.9,240.6H1174.9z"/>
					</g>
				</g>
			</g>
		</g>
		<g class="st0">
			<g>
				<path class="st14" d="M349.3,1154.2c0,0-52.6,134.8-176.9,71.5C7.7,1141.9-62.1,889.2-62.1,889.2s-110.8-159,159-233.3
					c0,0,153.6-129.1,326.7,110.8C590.8,998.6,349.3,1154.2,349.3,1154.2z"/>
				<g>
					<g>
						<path class="st15" d="M-119.5,882.3c-2.6-44.2-0.8-97.6,37.1-120.5c10.5-6.4,24.7-9.2,34.9-2.2c7.3,5,10.8,13.8,13.9,22
							c55,146,106.8,293.1,155.2,441.4c8.3,25.5,14.9,57.8-5.3,75.4c-8.9,7.8-21.1,10.5-32.8,12.1c-36.3,5.2-73.7,3.2-109.3-5.8
							c-12.6-3.2-25.5-7.6-34.8-16.7c-14.3-14-16.9-35.9-18.3-55.9c-9.4-131.7-4.5-267.9-53.4-390.5"/>
					</g>
				</g>
				<g>
					<path class="st16" d="M140.9,1014.6c-14.9,22.6-42.5,30.7-61.8,18.1c-42.7-28.1,34.7-94.6,53.9-82S155.8,991.9,140.9,1014.6z"
						/>
					<path class="st17" d="M104.1,1007.7c18.5-9.6,27.3-29.1,19.8-43.6"/>
				</g>
				<path class="st18" d="M232.3,810.7c-12.5,5.7-25.8-0.4-34.4-12.7c-1.3-1.9-23.3-49.8-24.2-51.9c-1.6-3.6-4.3-6.5-4.7-10.1
					c-1.6-13.1,4.3-25.6,15.6-30.7c11.7-5.3,24-0.2,32.8,10.6c2,2.4,5.4,4.4,6.7,7.4c1.7,3.9,21.9,54.5,22.3,58.4
					C247.5,794.4,243.3,805.7,232.3,810.7z"/>
				<g>
					
						<ellipse transform="matrix(0.8256 -0.5642 0.5642 0.8256 -437.7842 174.5495)" class="st19" cx="63.5" cy="795.5" rx="20.1" ry="38.7"/>
					
						<ellipse transform="matrix(0.9027 -0.4302 0.4302 0.9027 -456.0555 211.369)" class="st19" cx="239.4" cy="1114.1" rx="20.9" ry="38.7"/>
				</g>
				
					<ellipse transform="matrix(0.7918 -0.6108 0.6108 0.7918 -546.641 301.232)" class="st20" cx="168.5" cy="952.4" rx="75.4" ry="94.3"/>
				<path class="st21" d="M154.7,915l8.9-6c7.4-4.9,17.8,0.1,22.7,7.5l20.5,33.2c4.9,7.4,5.1,16-2.2,20.9l-8.9,6
					C167,984.3,139.4,928.4,154.7,915z"/>
				<path class="st17" d="M-63.9,1287.9c41,17.5,66.8,25.8,66.8,25.8s192.6,31.5,140.9-39.1"/>
				<path class="st18" d="M354.6,1065.4c-12.5,4.8-24.8-1.2-32.1-12.7c-1.1-1.7-18.5-46.2-19.3-48.2c-1.3-3.3-3.6-6.1-3.8-9.4
					c-0.5-12,6.1-23.3,17.4-27.7c11.7-4.5,23.1,0.6,30.7,10.7c1.7,2.3,4.8,4.2,5.9,7c1.4,3.6,16.8,50.5,16.9,54.1
					C370.4,1050.9,365.5,1061.2,354.6,1065.4z"/>
				<path class="st20" d="M267,593.7c-5.1-7.5-12.7-13-19.7-18.9c-12.5-10.4-23.8-22.4-33.4-35.6c-14.7-20-29.7-45.3-54.4-46.6
					c-21.5-1.1-38.7,17.1-50.2,35.3c-11.5,18.2-21.8,38.9-40.9,48.6c-14,7.1-33.5,9.5-38.4,24.4c-4.6,14.2,8.5,27.6,20.2,36.8
					c36.6,28.9,77.8,59.3,124.4,56.7c39.8-2.2,70-28.4,101.2-53.3C275.7,641.2,276.3,607.4,267,593.7z"/>
				<path class="st20" d="M515.5,1016.4c3.5,8.4,4,17.7,5,26.8c1.9,16.2,5.7,32.2,11.5,47.4c8.7,23.2,21.7,49.7,9.2,71.1
					c-10.8,18.6-35.6,23-57,22.7c-21.5-0.3-44.5-3.1-63.1,7.6c-13.6,7.8-26.3,22.9-41.4,18.8c-14.4-3.9-18.4-22.2-19.7-37.1
					c-4.1-46.5-7-97.6,20.7-135.1c23.6-32.1,62.2-43,100-55.4C480.5,983.1,509.1,1001.1,515.5,1016.4z"/>
				<path class="st21" d="M292.7,1079.1c-7.6,2.5-14.7-1.1-18.7-7.9c-0.6-1-9.5-26.9-9.8-28.1c-0.7-1.9-2-3.6-1.9-5.5
					c0.1-6.9,4.4-13.3,11.3-15.6c7.1-2.4,13.7,0.7,17.9,6.7c0.9,1.3,2.7,2.5,3.3,4.1c0.7,2.1,8.3,29.4,8.2,31.4
					C302.6,1071,299.4,1076.8,292.7,1079.1z"/>
				<path class="st21" d="M154.7,819.8c-6.5,4.6-15.2,2-21.9-4.8c-1-1-20.4-28.6-21.3-29.8c-1.4-2.1-3.4-3.6-4.2-5.8
					c-2.7-7.9-1-16.2,4.9-20.3c6.2-4.3,14.1-2.2,20.7,3.6c1.5,1.3,3.8,2.2,5,4c1.6,2.2,20.3,31.6,21,34
					C161.4,808.4,160.5,815.8,154.7,819.8z"/>
				<path class="st14" d="M59.8,1130.3c0,0,147.3,85.5,127.4,118.7c0,0,31,42.2,11.4,58.8s-22.9,66.9-167.3-9.3"/>
				<g>
					<g>
						<path class="st21" d="M175.3,1246.3c-7.5,2.2-15.5,2.8-23.2,1.9c-3-0.3-6.3-1.2-7.6-3.8c-0.6-1.2-0.7-2.7-0.6-4
							c0.6-8.7,7.9-17,16.6-16.9s16,10.6,11.9,18.2"/>
					</g>
					<g>
						<path class="st21" d="M176.6,1292.6c7.1-7.7,2-22.5-8.3-24.5c-10.3-2-20.4,9.5-17.6,19.5s17.1,14.6,25.4,8.2"/>
					</g>
					<g>
						<path class="st21" d="M150.9,1302.5c-4.3,1.2-6.1-5.4-9.5-8.4c-4-3.6-11-1.3-14,3.2c-3,4.5-3.2,10.3-3.2,15.7
							c0,2.6,0.1,5.5,2.1,7.3c1.7,1.6,4.2,1.7,6.5,1.7c5,0.1,10.5,0,14.5-3s5.2-10.2,0.9-12.7"/>
					</g>
					<g>
						<path class="st21" d="M140.8,1272.5c-5.1,5.3-10.3,10.7-16.8,13.9c-6.6,3.2-14.9,3.8-20.9-0.5c-5.3-3.7-7.6-10.3-9.7-16.4
							c-2.4-7.2-4.9-15-2.5-22.1c3.8-11.5,17.6-15.8,29.5-18.4c2.7-0.6,5.5-1.1,8-0.2c3.6,1.4,5.3,5.3,6.7,8.9
							c2.2,5.5,4.4,11.1,6.5,16.6c1.7,4.3,3.4,8.8,2.6,13.3c-0.8,4.5-5.1,8.8-9.5,7.7"/>
					</g>
				</g>
			</g>
			<g>
				<path class="st22" d="M94.4,1921.8c0,0,46.1,107.2,68.1,93.8c0,0,25,23.1,36.5,9.5c11.5-13.6,40.5-9.6,33.1-67"/>
				<path class="st22" d="M488.6,2003.1c0,0-84.8,80.2-99.7,59.2c0,0-32.1,11.3-37.3-5.7c-5.2-17-33.4-24.8-3.9-74.6"/>
				<path class="st23" d="M747.9,1973.3c0,0-18.2,4.1-43.4-44.2c-14.1-27.1-2.1-22.6,1.3-54c1.2-9.7-5.8-26.3-7.3-35.6
					c17.9,16.4,103.1,21.9,103.1,21.9s-61-33.5-14.8-66.8c26-18.7,29.7-52,27.9-77.5l11.6,1.5c62.7-157.2-162.7-208.6-162.7-208.6
					c-99.6-153-349.4-123.1-349.4-123.1s-151-98.6-224.5,50.4c0,0-17.7,42.2-74.7,24.4c0,0-13.6,43.5,36.6,54.5
					c0,0-40.8,30.2-39.5,83.2s-42.1,5.9-42.1,5.9s16.4,42.5,45.6,51.6c1,0.3,0,0,0,0s10.6-20.8,9.2,12.2s-35.4,41.5-47.5,23.3
					c-8.9-13.2-13.5,20.5,5.7,39c0.2,0.2,0.5,0.4,0.7,0.6c-0.1,0.2-0.2,0.3-0.3,0.5l-0.4-1.1c0,0-18,36,18.6,47.5l-1.4-3.6
					c1.3,0.7,2.6,1.3,4,1.9c4.1,1.7,8.4,2.7,12.5,3.1c-5.3,18.8-8.3,32.1,8.1,66.4c4.6,28.6,27,55.4,59.6,68.6
					c12.3,8.5,28.3,16.4,49.4,23c16.3,34.5,58.5,38.2,113.6,33c0,0,15.1,26.8,51.7,48.2c0,0,23.5-37.2,142,2.1l4.4,10.9
					c76.2,33.9,100.1,1.6,100.1,1.6c84.1,45.5,87.1-61.3,87.1-61.3C647.4,2011.2,747.9,1973.3,747.9,1973.3z M96.6,1919.4
					c1.5,0.1,3,0.1,4.5,0.1c1.4,4.9,3.3,9.7,5.6,14.3L96.6,1919.4z"/>
				<g>
					<path class="st17" d="M823.6,1722.1c62.7-157.1-163.4-208.8-163.4-208.8c-113.3-151.9-350.5-123.4-350.5-123.4
						s-151.5-98.7-225.2,50.2c0,0-17.7,42.2-74.9,24.3c0,0-13.6,43.5,36.7,54.5c0,0-40.9,30.2-39.5,83.2c1.3,53-42.2,5.9-42.2,5.9
						s42.1,108.8,111.6,15.9"/>
					<path class="st17" d="M805.9,1685.4c0,0,24.5,79.4-21.9,112.6c-46.3,33.3,14.9,66.8,14.9,66.8s-171.6,17.9-117-156.2"/>
					<path class="st17" d="M160.6,1604.9c0,0-56.3,85.1-103.7,40.4"/>
					<path class="st17" d="M641.2,1674.4c0,0-30,67.1,21.7,88.1"/>
					<path class="st17" d="M62.5,1648c0,0-44.6,7.6-45.8,36.3s-30.9,36.1-41.5,20.3c-10.7-15.8-14.3,45.5,33.2,43.7"/>
					<path class="st17" d="M-19.9,1738.6c0,0-15.7,31.3,16.3,41.4"/>
					<path class="st17" d="M17.8,1761.7c0,0-36.8,55,20.1,122.8"/>
					<path class="st17" d="M43.9,1828.1c0,0-38,71.3,68.7,104.8"/>
					<path class="st17" d="M680.3,1816.5c0,0,32.3,34,20.4,84.4s39.1,74.7,39.1,74.7s-97.3,36.1-110.3,2.9c0,0-9.6,105.2-83,65.5"/>
					<path class="st17" d="M571.4,1958.2c0,0,5.8,143.3-136.4,73.7"/>
					<path class="st17" d="M131.6,1797.4c0,0-108.9,203.1,111.5,176.5"/>
					<path class="st17" d="M225.2,1872.5c0,0-22.6,97,69.9,150.9c0,0,35.6-26.3,70-11.4c127.7,55.5,126.9-55.9,126.9-55.9"/>
				</g>
				<path class="st16" d="M342.3,1699.5c-23.7,21.6-28,55.3-9.7,75.4c40.6,44.6,104-58,85.7-78.1
					C400,1676.7,366,1677.9,342.3,1699.5z"/>
				<path class="st24" d="M335.7,1556.6c-5.7,10.3-18.9,12.5-32.3,7.8c-2-0.7-45.7-24.7-47.7-25.8c-3.2-1.8-6.9-2.6-9.3-5
					c-8.7-8.8-11.8-20.8-6.6-30.1c5.4-9.7,17.2-12.1,29.8-8.6c2.8,0.8,6.4,0.5,9.2,2.1c3.5,1.9,47.5,28.8,50,31.4
					C337.1,1537.1,340.7,1547.5,335.7,1556.6z"/>
				<g>
					
						<ellipse transform="matrix(0.3569 -0.9341 0.9341 0.3569 -1342.7144 1667.729)" class="st25" cx="539.9" cy="1809.1" rx="22.7" ry="45.7"/>
					
						<ellipse transform="matrix(0.2664 -0.9639 0.9639 0.2664 -1472.2324 1419.9272)" class="st25" cx="196.7" cy="1677.1" rx="19.6" ry="45.7"/>
				</g>
				<path class="st21" d="M284.5,1587.7c0,0-71.1-17.6-88.6-14.9s-21.8,7.7-21.8,7.7s-5,9.4,29.5,14.1c34.5,4.7,68.3,13.7,68.3,13.7
					s16.1,6.1,20.1-4.6C296.1,1593.1,284.5,1587.7,284.5,1587.7z"/>
				
					<ellipse transform="matrix(0.177 -0.9842 0.9842 0.177 -1350.1755 1766.772)" class="st26" cx="381.4" cy="1690.8" rx="69.9" ry="87.3"/>
				<path class="st21" d="M340.4,1672.2l3.6-12.2c3-10,16.3-13.4,26.3-10.4l43.7,14.7c10,3,16.7,10.6,13.7,20.7l-3.6,12.2
					C403.9,1726,336.6,1696,340.4,1672.2z"/>
				<path class="st21" d="M541.7,1677.8c0,0,51.3,31.6,59.9,44.4c8.6,12.7,6,22,6,22s-3.9,8.3-28.4-11.2s-51.8-36.2-51.8-36.2
					s-14.3-6.9-8.8-15.4S541.7,1677.8,541.7,1677.8z"/>
				<path class="st24" d="M623.3,1645.7c-2.9,11.5-15,16.9-29,15.9c-2.1-0.2-50.2-12.1-52.4-12.6c-3.6-0.9-7.3-0.7-10.2-2.5
					c-10.6-6.2-16.6-17.1-14-27.4c2.7-10.8,13.5-16.1,26.5-16c2.9,0,6.3-1.1,9.4-0.4c3.9,1,52.9,15.6,56.1,17.5
					C619.8,1626.6,625.8,1635.6,623.3,1645.7z"/>
			</g>
			<g>
				<path class="st27" d="M1195.9,1808.3c78.4,21.4,140.2,6,186.9-24.8c13.4-23.8,20.3-38.1,20.3-38.1s61-194.6-17.2-152.3l14.3-9.4
					c0,0,32.1-49.9-14.6-46.8l-18-13.3l-60.2,5.3C1226.2,1602.9,1188,1706.7,1195.9,1808.3z"/>
				<path class="st28" d="M1093.8,1798.1c6.1,81.1,41.3,134.1,86.1,167.8c27,4.6,42.7,6.3,42.7,6.3s203.8-7.8,137.7-67.2l13.7,10.3
					c0,0,57.7,13.6,39.1-29.4l6.5-21.4l-25.1-54.9c-58.1-31-121.1-73.9-182.2-70.3C1171.2,1741.7,1131.1,1781.5,1093.8,1798.1z"/>
				<path class="st17" d="M1149.3,1963.9c45.4,9,73.5,12,73.5,12s203.8-7.8,137.7-67.2"/>
				<g>
					<path class="st28" d="M1063,1738.5C942.5,1694.7,920.5,1851,920.5,1851s50.5,245.7,240,158.1c189.6-87.5,68.6-213.9,68.6-213.9
						s-118.5,94.4-90.4,63.6C1169.1,1825.6,1110.8,1755.9,1063,1738.5z"/>
					<path class="st27" d="M1020.4,2008c0,0-13.7-10.9-5.8-17.2s39.6,18,82.7,2.7c43.1-15.3,100.8-64.7,100.8-64.7
						s49.5-79.7,27.8-126.3c-21.7-46.6,4.2-6,4.2-6s87.4,91.4-2.9,172.6c-15.9,14.3-37.3,28.3-65.7,41.4
						c-56.2,25.9-107.7,16-141.8-3.2L1020.4,2008z"/>
					<path class="st17" d="M1230,1796.6c0,0,87.4,91.4-2.9,172.6c-15.9,14.3-37.3,28.3-65.7,41.4
						c-124.4,57.4-186.6-36.6-222.6-101.5c-41.1-74,8.3-219.8,123.8-165.5c110.8,52.1,76.9,115.5,76.9,115.5"/>
				</g>
				<path class="st28" d="M1359.9,1352.3c-5.6-1.4-11.5-2.8-17.7-4.2c-18.1,18.7-37.8,34.9-49,54.7c-12,19.4-19.3,39.2-26.9,61.3
					c-5.6,24.6,1.8,49.3,23.1,57.2c14.3,5.6,25.3,13.7,39.7,20.6l103.1-63.8c23.6-16.5,39.7-30.5,32.8-34.4l-1.7-0.6
					c0.7,0.2,1.2,0.4,1.7,0.6l0.5,0.2c0,0,24.5-11.6,15.7-21l0.3-0.3C1481.4,1422.8,1522.1,1391.4,1359.9,1352.3z"/>
				<path class="st17" d="M1321.1,1548.4c0,0,194.7-109.6,135.1-104.1"/>
				<path class="st17" d="M1466.5,1445.3c0,0,37.9-17.9,2.6-27.2"/>
				<path class="st28" d="M1464.9,1443.9c-0.5-0.3-1-0.5-1.7-0.6L1464.9,1443.9z"/>
				<path class="st27" d="M1327,1541c42.7-26.3,72.6-43.4,72.6-43.4l-129.3,7.1c4.1,7.6,10.5,13.5,19.1,16.6
					C1302.9,1526.7,1313.5,1534.3,1327,1541z"/>
				<path class="st17" d="M1482.4,1424c0,0,40.7-31.4-121.5-70.5c-6-1.4-12.3-3-19-4.5"/>
				<path class="st29" d="M805.8,1457c0,0,16.2-109.3,155.5-188.5l0.7-123c0,0,68.2-89.2,171,95.9l24.1-7.4l10.8,23.2
					c0,0,219.9,14.3,204.5,205.7s-191.4,303-191.4,303s-175.4,72.8-198.3,70.9l-32.3-6.4l-4.6-45.3c0,0-59.7-41.4-104.2-105.4
					l-18.9,6.8l1.1-25.1c0,0-123.8-49.1-147.6-112C676.2,1549.3,644.1,1555.2,805.8,1457z"/>
				<line class="st30" x1="1059.6" y1="1669.1" x2="1129.5" y2="1630.7"/>
				<line class="st30" x1="1245.5" y1="1372.7" x2="1254.9" y2="1426.3"/>
				<path class="st27" d="M1092.8,1576.8c6.5,12-1.1,28.5-16.9,36.9s-34,5.3-40.5-6.8c-6.5-12,1.1-28.5,16.9-36.9
					C1068.1,1561.7,1086.3,1564.7,1092.8,1576.8z"/>
				<path class="st27" d="M1174.4,1766.1c0,0-51.2,29.5-84.5,8.1c-39.8-25.6,27-82.8,27-82.8s22.8-13.8,72.4-72.3
					c49.6-58.5,99.1-133.1,99.1-133.1s15.3-69.4,17.5-96.9c1.6-19.8,10.1-38.9,17.5-40.9c6.2-1.7,15.2-6.9,33.5,26.8
					c0,0,34,97.8-15.7,205.1C1289.6,1692,1174.4,1766.1,1174.4,1766.1z"/>
				<path class="st27" d="M1185.7,1419.2c-13.2,5.4-28.7-1.9-34.6-16.3c-5.9-14.4,0-30.4,13.2-35.7c13.2-5.4,28.7,1.9,34.6,16.3
					C1204.8,1397.8,1198.9,1413.8,1185.7,1419.2z"/>
				<path class="st27" d="M851.6,1572.9c-0.2,7,1.8,16-5.6,20.3c-3.9,2.3,22.7,40.6,18.7,42.5c-68.6,33.1-205.6-82.8-152.5-93
					c42.6-17.5,92.2-15.7,122.8-15.3c-3.7,6-10.2,11-17.2,13.2c-0.8,3.2,3.4,4.4,7,4c3.6-0.5,7.7-1.6,10,0.2
					c3.1,2.4,0.6,7.6-0.2,11.8C832.6,1566.1,840.9,1574.7,851.6,1572.9z"/>
				<path class="st26" d="M1315,1473.7c35.1,18.3,43.5,68.1,18.7,111.1s-73.3,63-108.4,44.7c-35.1-18.3-43.5-68.1-18.7-111.1
					C1231.4,1475.4,1279.9,1455.4,1315,1473.7z"/>
				<path class="st21" d="M1262,1580l-11.8-5.7c-9.7-4.7-10.5-18.4-5.4-27.9l23.7-41.1c5.1-9.5,14.2-14.9,23.9-10.2l11.8,5.7
					C1329.6,1525.7,1285.6,1587.7,1262,1580z"/>
				<path class="st28" d="M1197.3,1788.8c14.5,31.8,21.9,64.6,74,51.9c16.8-3.2,26.4-5.6,26.4-5.6s120.9-42,73.4-53.6l9.6,1.6
					c0,0,36.4-5.5,19.5-19.4l1-9.9l-22.4-17.6C1267.5,1698.3,1178.2,1705.8,1197.3,1788.8z"/>
				<g>
					<path class="st31" d="M1154.8,1686.3c6.2,9-6.6,28.1-28.6,42.6s-44.9,19.1-51.1,10.1c-6.2-9,6.6-28.1,28.6-42.6
						C1125.7,1681.8,1148.5,1677.3,1154.8,1686.3z"/>
					<path class="st31" d="M1311.4,1333.6c11.3,0.2,19.4,21.1,18.2,46.6c-1.2,25.5-11.4,46-22.7,45.8c-11.3-0.2-19.4-21.1-18.2-46.6
						C1289.9,1353.9,1300.1,1333.4,1311.4,1333.6z"/>
				</g>
				<path class="st17" d="M1197.1,1748.4c0,0,23.6-51.7,104.5-37c58.1,10.5,114.1,29.8,96.8,43.8"/>
				<path class="st17" d="M1252.8,1845.7c28.4-5,45.6-9.1,45.6-9.1s120.9-42,73.4-53.6"/>
			</g>
			<g>
				<path class="st17" d="M2144.6,1501.3c0,0,37.9-17.9,2.6-27.2"/>
				<path class="st28" d="M2143.1,1499.9c-0.5-0.3-1-0.5-1.7-0.6L2143.1,1499.9z"/>
			</g>
		</g>
		<path class="st32" d="M894,960.3c0,0,3.6,57.7,43.3,55.6c0,0-44.9,42.1-47.1,66.6c0,0-4.5-48.2-26.1-53.1S892.2,1037.9,894,960.3z
			"/>
		<path class="st32" d="M440,850.3c0,0-32.2,78.4-59.1,80c0,0,43.9,29.1,45.6,71c0,0,34.6-85.1,53-84
			C497.9,918.3,441.1,914.5,440,850.3z"/>
		<path class="st32" d="M719.2,404.3c0,0-37.7-53.1-47.8-82.7c-10.1-29.6,20.5,64.4-29.7,86.1l40.6,38.8L719.2,404.3z"/>
		<path class="st32" d="M224.5,1183.7c0,0,2.8,44.7,33.6,43.1c0,0-34.8,32.6-36.5,51.6c0,0-3.5-37.4-20.2-41.2
			C184.6,1233.4,223.1,1243.8,224.5,1183.7z"/>
		<path class="st32" d="M671.5,1467.8c0,0-31.7,57.6-54.2,55.6c0,0,34.8,27.8,33.5,60.8c0,0,34.2-62.5,49.4-59.5
			S668.4,1518.1,671.5,1467.8z"/>
		<path class="st32" d="M1153.3,686.1c0,0,29.2-41.1,37.1-64.1c7.9-22.9-15.9,50,23,66.8l-31.5,30.1L1153.3,686.1z"/>
		<path class="st32" d="M778,668.3c0,0,3.6,57.7,43.3,55.6c0,0-44.9,42.1-47.1,66.6c0,0-4.5-48.2-26.1-53.1S776.2,745.9,778,668.3z"
			/>
		<path class="st32" d="M972,1607.3c0,0-32.2,78.4-59.1,80c0,0,43.9,29.1,45.6,71c0,0,34.6-85.1,53-84S973.1,1671.5,972,1607.3z"/>
		<path class="st32" d="M1049.7,955.3c0,0,37.7-53.1,47.8-82.7c10.1-29.6-20.5,64.4,29.7,86.1l-40.6,38.8L1049.7,955.3z"/>
		<path class="st32" d="M395.5,573.7c0,0,2.8,44.7,33.6,43.1c0,0-34.8,32.6-36.5,51.6c0,0-3.5-37.4-20.2-41.2
			C355.6,623.4,394.1,633.8,395.5,573.7z"/>
		<path class="st32" d="M546.2,1047.1c0,0-2.7,65.7-21.9,73.9c0,0,39.7,9.6,52,39.7c0,0,2.7-71.1,16.4-75.2
			C606.4,1081.3,564,1093.6,546.2,1047.1z"/>
		<path class="st32" d="M371.3,1420.1c0,0,29.2-41.1,37.1-64.1c7.9-22.9-15.9,50,23,66.8l-31.5,30.1L371.3,1420.1z"/>
	</g>
	<g>
		<g>
			<path class="st33" d="M268.1,327.6c0.6,0,1.2,0.3,1.8,0.9c0.5,0.6,1.9,2.6,4.3,6c2.4,3.4,3.6,5.4,3.7,5.7
				c0.1,0.2,0.2,0.3,0.3,0.3c0.3,0,1.1-1.2,2.3-3.6c2.1-3.8,3.6-6.3,4.5-7.5c0.9-1.2,1.8-1.8,2.6-1.8c0.6,0,2.1,0.3,4.7,0.8
				s4.3,0.9,5.1,1.2c1.3,0.4,1.9,1.2,1.9,2.3c0,1.3-0.9,3.8-2.8,7.6c-1.9,3.9-4.5,8.4-7.8,13.7c-1.5,2.3-2.2,6.5-2.3,12.7
				c-0.1,3.1-0.1,4.9-0.3,5.5c-0.1,0.6-0.2,1.1-0.5,1.3c-0.7,0.5-2.7,0.8-6,0.8c-4.2,0-7-0.3-8.5-1c-0.7-0.3-1.1-0.7-1.4-1.2
				c-0.3-0.7-0.5-3.5-0.5-8.5V355l-2.2-3.9c-2-3.5-4.2-7-6.6-10.3c-1.8-2.4-2.8-4.3-2.8-5.6c0-0.7,0.3-1.4,0.8-1.9
				c1-1.2,3.3-2.8,6.9-4.9C266.6,327.8,267.5,327.6,268.1,327.6z"/>
			<path class="st33" d="M321.4,332.3c1.9,0,3.7,0.1,5.5,0.4c4.2,0.8,7.8,2.4,10.7,4.9c3,2.5,4.8,5.4,5.4,8.8
				c0.2,0.7,0.3,1.7,0.3,2.8c0,3.4-0.5,6.4-1.6,9c-1,2.6-2.7,5-5.1,7.3c-2.2,2.1-4.4,3.6-6.7,4.4c-2.3,0.8-4.7,1.2-7.1,1.2
				c-4.3,0-8.2-1-11.7-3.1c-3.5-2.1-6.3-4.6-8.3-7.7c-2-3.1-3-6-3-8.8c0-0.9,0.1-2.2,0.4-4c1.8-9,7-14,15.4-15
				C317.8,332.5,319.7,332.3,321.4,332.3z M322.1,345.7c-0.8,0-1.5,0.2-2,0.6c-2,1.2-3,3-3,5.3c0,0.8,0.2,1.8,0.7,2.8
				c1,2.1,2.6,3.1,4.8,3.1c1.2,0,2.2-0.4,3-1.1c0.8-0.8,1.3-1.7,1.5-2.9c0.1-0.2,0.1-0.5,0.1-1c0-1.3-0.3-2.6-0.9-3.9
				c-0.6-1.2-1.4-2.1-2.3-2.5C323.2,345.8,322.6,345.7,322.1,345.7z"/>
			<path class="st33" d="M351.2,332.9c5.1,0,8,0.3,8.5,0.8c0.1,0.1,0.2,0.7,0.2,1.8c0,1.3-0.1,3-0.2,4.9c-0.1,1.9-0.2,3.9-0.2,6
				c0,4.4,0.3,7.5,1,9.3c0.6,1.9,1.9,2.8,3.7,2.8c1.6,0,2.8-0.8,3.6-2.4c1.1-2,1.6-6.3,1.7-13.2c0.2-5.6,0.4-8.6,0.6-8.8
				c0.3-0.3,1.4-0.6,3.4-0.8c2-0.3,4-0.4,5.9-0.4c1.5,0,2.6,0.1,3.5,0.2c0.9,0.1,1.5,0.4,1.8,0.9c0.6,0.9,0.9,5.2,0.9,13
				c0,14.3-0.2,22-0.7,23.1c-0.3,0.8-1.6,1.3-3.9,1.3c-1,0-2.8-0.1-5.5-0.3c-1,0-1.7,0-2.3-0.1s-1.1-0.2-1.6-0.4
				c-0.6-0.2-1-0.4-1.2-0.6c-0.3-0.3-0.5-0.7-0.7-1.2c-0.4-1.1-0.9-1.3-1.4-0.7c-0.3,0.4-1.4,1-3.2,1.7c-1.8,0.7-3.2,1.2-4.4,1.4
				c-0.8,0.1-1.6,0.2-2.5,0.2c-2.3,0-4.5-0.5-6.5-1.5c-2-1-3.5-2.3-4.5-4c-0.4-0.7-0.9-2-1.5-3.9c-0.4-1.9-0.7-4.3-0.7-7.3v-4.3
				c0.1-10.8,0.8-16.5,2.1-17.1C347.7,333,349.1,332.9,351.2,332.9z"/>
			<path class="st33" d="M455,333.3c1.5,0,3.1,0.5,5,1.5c1.9,1,3.4,2.3,4.5,4c1.1,1.7,2,4.2,2.6,7.5c0.5,2.8,0.9,7.4,1.2,13.7
				c0.1,0.6,0.1,1.8,0.1,3.7c0,3.5-0.5,5.8-1.6,6.9l-0.9,0.9l-6.6-0.2l-5.1,0.1c-0.8,0-1.4-0.1-1.7-0.3c-0.3-0.2-0.5-0.7-0.6-1.3
				c-0.1-0.6-0.1-1.8-0.1-3.6c0-1.8,0-3.3-0.1-4.5c-0.2-5.8-0.4-9.6-0.8-11.4c-0.4-1.8-1.2-2.9-2.3-3.2c-0.1-0.1-0.3-0.1-0.7-0.1
				c-0.9,0-1.7,0.3-2.6,1c-0.8,0.6-1.4,1.5-1.8,2.5c-0.4,1.1-0.6,3.7-0.6,7.7c0,2.2,0.1,4.4,0.3,6.6l0.3,3.6c0,0.8-0.3,1.4-0.8,1.7
				c-0.4,0.2-1.7,0.3-3.7,0.4c-0.5,0.1-1.1,0.1-1.7,0.1l-4.8,0.2c-1.5,0-2.4-0.3-2.7-0.8c-0.3-0.8-0.9-6.2-1.9-16.2
				c-0.2-2-0.5-3.6-0.8-4.9c-0.2-0.9-0.6-1.3-1.3-1.3c-0.4,0-1,0.2-1.8,0.7c-1.3,0.8-2.2,2.1-2.6,3.9c-0.6,2-0.9,5.3-0.9,10.1
				c0,1.4,0,2.4-0.1,2.9c-0.1,2.9-0.3,4.5-0.6,5c-0.3,0.5-1.2,0.8-2.5,0.8c-1.3,0-2.5,0-3.4,0.1l-4.2,0.2c-2.2,0-3.6-0.5-4.1-1.4
				c-0.6-1.4-0.9-9.6-0.9-24.7l-0.1-6.3c0-1.6,0.2-2.6,0.6-3.2c0.4-0.6,1.1-0.9,2.2-1.1s3.1-0.2,6.1-0.2c3,0,4.9,0.2,5.7,0.5
				c0.8,0.4,1.3,1.1,1.3,2c0,0.4,0.1,0.6,0.3,0.6c0.2,0,0.8-0.3,1.8-1c2.8-1.8,5.9-2.7,9.2-2.7c4.4,0,7.6,1.3,9.8,3.9l1.1,1.3
				l1.8-1.5c2.1-1.7,4.4-2.9,7-3.7C452.6,333.4,453.7,333.3,455,333.3z"/>
			<path class="st33" d="M499.8,333.9c3.1,0,5.6,0.2,7.3,0.6c1.2,0.3,2.1,0.7,2.7,1.3c0.6,0.6,1,1.6,1.3,2.9
				c0.2,0.7,0.3,3.2,0.3,7.5c0,9.6-0.2,16.1-0.6,19.5c-0.2,1.8-0.4,3.1-0.8,3.8c-0.3,0.7-1,1.1-2,1.3c-1,0.2-2.8,0.4-5.6,0.5
				c-0.7,0.1-1.9,0.1-3.6,0.1c-1.2,0-2-0.1-2.4-0.4s-0.8-0.8-1.2-1.7c-0.4-0.9-0.7-1.3-0.9-1.3c-0.2,0-1.1,0.4-2.6,1.1
				c-2.3,1.1-4.6,1.7-6.7,1.7c-2.2,0-4.6-0.8-7-2.5c-2.5-1.7-4.5-3.9-6.2-6.5c-1.6-2.7-2.5-5.4-2.5-8.2c0-1.2,0.1-2.2,0.3-2.9
				l0.3-1.3l0.2-0.9c0.2-1.3,1.1-3.3,2.9-6c2.7-4.2,6.2-6.9,10.5-7.9c0.8-0.2,1.7-0.3,2.6-0.3c3.1,0,5.7,0.8,7.8,2.3
				c0.6,0.4,1,0.6,1.3,0.6c0.3,0,0.4-0.2,0.4-0.6c0-0.3,0.2-0.7,0.7-1.3c0.5-0.6,0.9-1,1.3-1.1C497.9,334,498.6,333.9,499.8,333.9z
				 M491,346.5c-1.3,0-2.5,0.4-3.6,1.2c-1.1,0.8-1.8,1.8-2.2,3.2c-0.2,0.5-0.3,1-0.3,1.6c0,1.5,0.6,2.6,1.8,3.5
				c1.2,0.9,2.8,1.3,4.8,1.3c1.1,0,1.8-0.1,2.1-0.2c0.4-0.1,0.6-0.4,0.7-0.8c0.1-0.4,0.3-1.2,0.4-2.5c0.2-1.5,0.3-3,0.3-4.4
				c0-0.8-0.1-1.4-0.2-1.6c-0.1-0.2-0.5-0.4-1.2-0.7C492.9,346.7,492,346.5,491,346.5z"/>
			<path class="st33" d="M545.2,322.5c3.5,0,5.6,0.1,6.3,0.3c0.8,0.2,1.5,0.6,2,1.2l0.8,0.8l-0.2,22c-0.1,13.3-0.3,20.7-0.6,22.3
				c-0.2,0.6-0.6,1.1-1.3,1.3l-0.3,0.2c-0.7,0.3-2.3,0.4-4.7,0.4h-1.8c-3.2-0.1-5.2-0.3-5.8-0.4c-1-0.3-1.6-0.8-2-1.6
				c0-0.1-0.1-0.3-0.4-0.7c-0.2-0.2-0.4-0.2-0.4-0.2l-2.4,1c-1.4,0.6-3.4,0.9-5.9,0.9c-2.3,0-3.9-0.1-4.9-0.3
				c-1-0.2-2.1-0.6-3.4-1.3c-4.2-2.1-6.8-5.3-7.5-9.6c-0.3-1.8-0.4-3.4-0.4-4.5c0-3.9,0.8-7.4,2.5-10.6c1.6-3.1,3.8-5.6,6.4-7.3
				c2.6-1.7,5.3-2.6,8-2.6c2.6,0,5.1,0.8,7.5,2.3c0.6,0.4,0.9,0.5,1,0.4c0.1-0.1,0.2-2,0.5-5.7c0.3-3.7,0.5-5.9,0.7-6.5
				c0.3-1,1.1-1.6,2.3-1.8C542,322.5,543.3,322.5,545.2,322.5z M535.9,347.2c-0.7-0.5-1.6-0.8-2.5-0.8c-0.9,0-1.9,0.3-3,0.9
				c-1.9,1.2-2.9,2.9-2.9,5c0,1.4,0.5,2.7,1.5,4c1,1.3,2.4,1.9,4.1,1.9c0.8,0,1.6-0.2,2.6-0.5l1.3-0.4v-9.4L535.9,347.2z"/>
			<path class="st33" d="M576.7,330.7h1.1c2.3,0.1,4.1,0.5,5.4,1.2c1.3,0.7,3,2,4.9,3.9c3,3,4.9,6.3,5.8,9.7
				c0.3,1.4,0.4,2.6,0.4,3.5c0,3.4-0.6,5.3-1.7,5.8h-13.9c-4.4,0-6.6,0-6.6,0.1c0,0.7,0.6,1.4,1.9,2.1c1.3,0.8,2.8,1.3,4.5,1.7
				c0.9,0.2,1.8,0.3,2.6,0.3c1.3,0,3-0.3,5.1-1c1.6-0.4,2.7-0.7,3.1-0.7c0.6,0,1,0.2,1.3,0.5c0.4,0.6,1,1.6,1.8,3.1
				c0.8,1.5,1.2,2.6,1.2,3.2c0,1.2-1,2.4-3.1,3.6c-2,1.2-4.1,2.1-6.3,2.6c-2.2,0.5-4.8,0.8-7.8,0.8c-3.7,0-6.5-0.3-8.5-1
				s-4.2-2.1-6.5-4.4c-2.3-2.2-3.9-4.4-4.7-6.5c-0.8-2.1-1.3-4.6-1.3-7.5c0-3.1,0.5-6,1.4-8.6c0.9-2.6,2.7-4.9,5.2-7.1
				c2.7-2.3,6.1-4,10.2-4.9C573.7,330.8,575.2,330.7,576.7,330.7z M576.5,342.1c-1.2,0-2.3,0.4-3.2,1.1c-0.9,0.7-1.4,1.6-1.5,2.8
				l-0.1,1l4.1,0.3l3.4,0.2h0.4c0.2,0,0.4,0,0.4-0.1h0.2h0.2c0.2-0.1,0.3-0.4,0.3-1c0-0.7-0.2-1.4-0.5-2.1
				C579.5,342.8,578.2,342.1,576.5,342.1z"/>
			<path class="st33" d="M622.6,338.4h2.3h0.9c0.8,0,1.4,0.1,1.9,0.3c0.4,0.2,0.7,0.4,0.9,0.6c0.1,0.2,0.2,0.7,0.3,1.3
				c0.1,1.5,0.2,6.6,0.2,15.5c0,9.3-0.1,14.1-0.3,14.3c-0.4,0.4-2.2,0.7-5.3,0.7h-3l-2.3-0.1c-1.3,0-2.1,0-2.3-0.1
				c-0.6-0.1-1-0.3-1.3-0.6l-0.7-0.7l-0.1-11.3v-3.5c0-9.8,0.3-15,1-15.8c0.3-0.3,2.1-0.5,5.4-0.6
				C621.1,338.5,621.9,338.4,622.6,338.4z M621.4,322.9c1.8,0,3.4,0.6,4.8,1.9c1.3,1.3,2,2.7,2,4.3v1.1c-0.1,1.6-0.8,2.9-1.9,3.8
				c-1.2,0.9-2.7,1.4-4.7,1.4H621c-2-0.1-3.5-0.7-4.7-1.7c-1.2-1-1.8-2.4-1.8-4c0-0.8,0.1-1.6,0.4-2.3c0.3-0.7,0.8-1.5,1.6-2.3
				C617.9,323.6,619.5,322.9,621.4,322.9z"/>
			<path class="st33" d="M643,322.5c0,0,1.5,0,4.6,0c3.1,0,5.1,0.1,5.9,0.2c1,0.2,1.5,0.4,1.7,0.6c0.2,0.2,0.3,0.6,0.3,1.3l-0.2,4.4
				l-0.2,2.7l-0.1,1l4,0.1c0.8,0,1.3,0,1.7,0.1c1.4,0,2.3,0.1,2.8,0.3c0.4,0.2,0.7,0.8,0.8,1.8c0.1,1,0.2,2.9,0.2,5.9v1.4
				c0,1.6-0.1,2.6-0.2,3.2c-0.1,0.6-0.4,0.9-0.9,1.1c-0.5,0.2-1.4,0.3-2.7,0.3h-5.4l-0.3,1.8c-0.1,1.3-0.2,2.2-0.2,2.5
				c0,5.8,1.5,8.7,4.4,8.7c0.6,0,1.4-0.3,2.4-0.9c1-0.6,1.6-1,1.8-1.3c0.2-0.2,0.4-0.3,0.6-0.3c0.5,0,1.1,0.4,1.9,1.2
				c0.9,0.9,1.7,2,2.6,3.2c0.8,1.3,1.2,2.1,1.2,2.6c0,0.7-0.8,1.6-2.3,2.9c-1.5,1.2-3.3,2.3-5.4,3.3c-2.7,1.2-5.6,1.8-8.7,1.8
				c-2,0-3.6-0.3-5.1-1c-1.4-0.7-2.9-1.8-4.6-3.5c-1.9-1.9-3.3-3.9-4.1-6.1c-0.8-2.2-1.3-5.5-1.3-9.9v-1.9v-1.2
				c-0.1-0.2-0.1-0.4-0.1-0.8c0-0.3-0.1-0.5-0.2-0.6l-0.3-0.3c-0.1-0.2-0.4-0.3-1.2-0.3l-1-0.1h-1.3c-1.2-0.1-1.9-0.2-2.3-0.3
				c-0.3-0.1-0.6-0.3-0.9-0.8c-0.2-0.4-0.3-1.1-0.3-2.2c0-1.5,0-2.5,0.1-3.1c0.1-1.7,0.2-2.7,0.2-3.2c0.1-0.7,0.1-1.3,0.1-1.8
				c0-0.5,0.1-0.8,0.1-1l0.3-1.2l3.4-0.2c1.7-0.1,2.7-0.1,3-0.3c0.3-0.1,0.4-0.3,0.5-0.5c0.1-1.2,0.2-2.9,0.4-5.1
				c0.2-2.2,0.4-3.4,0.5-3.5c0.3-0.3,0.9-0.6,1.9-0.8C642.5,322.5,643,322.5,643,322.5z"/>
			<path class="st33" d="M676,363.4c1.3,0,2.3,0.3,3,0.8c1.8,1.3,2.8,3.1,2.8,5.4c0,1.2-0.3,2.4-0.8,3.4c-1.1,2.2-3,3.7-5.7,4.4
				c-1,0.3-1.7,0.4-2.1,0.4c-1.1,0-1.6-0.6-1.6-1.8c0-0.7,0.1-1.3,0.3-1.6c0.2-0.3,0.7-0.7,1.5-1.1c0.7-0.3,1.1-0.6,1.1-0.7
				c0-0.2-0.3-0.4-1-0.8c-1.7-0.8-2.5-2.2-2.5-3.9c0-2,0.9-3.4,2.8-4.3C674.6,363.6,675.3,363.4,676,363.4z"/>
			<path class="st33" d="M712.5,322.5c0,0,1.5,0,4.6,0c3.1,0,5.1,0.1,5.9,0.2c1,0.2,1.5,0.4,1.7,0.6c0.2,0.2,0.3,0.6,0.3,1.3
				l-0.2,4.4l-0.2,2.7l-0.1,1l4,0.1c0.8,0,1.3,0,1.7,0.1c1.4,0,2.3,0.1,2.8,0.3c0.4,0.2,0.7,0.8,0.8,1.8c0.1,1,0.2,2.9,0.2,5.9v1.4
				c0,1.6-0.1,2.6-0.2,3.2c-0.1,0.6-0.4,0.9-0.9,1.1c-0.5,0.2-1.4,0.3-2.7,0.3h-5.4l-0.3,1.8c-0.1,1.3-0.2,2.2-0.2,2.5
				c0,5.8,1.5,8.7,4.4,8.7c0.6,0,1.4-0.3,2.4-0.9c1-0.6,1.6-1,1.8-1.3c0.2-0.2,0.4-0.3,0.6-0.3c0.5,0,1.1,0.4,1.9,1.2
				c0.9,0.9,1.7,2,2.6,3.2c0.8,1.3,1.2,2.1,1.2,2.6c0,0.7-0.8,1.6-2.3,2.9c-1.5,1.2-3.3,2.3-5.4,3.3c-2.7,1.2-5.6,1.8-8.7,1.8
				c-2,0-3.6-0.3-5.1-1c-1.4-0.7-2.9-1.8-4.6-3.5c-1.9-1.9-3.3-3.9-4.1-6.1c-0.8-2.2-1.3-5.5-1.3-9.9v-1.9v-1.2
				c-0.1-0.2-0.1-0.4-0.1-0.8c0-0.3-0.1-0.5-0.2-0.6l-0.3-0.3c-0.1-0.2-0.4-0.3-1.2-0.3l-1-0.1h-1.3c-1.2-0.1-1.9-0.2-2.3-0.3
				c-0.3-0.1-0.6-0.3-0.9-0.8c-0.2-0.4-0.3-1.1-0.3-2.2c0-1.5,0-2.5,0.1-3.1c0.1-1.7,0.2-2.7,0.2-3.2c0.1-0.7,0.1-1.3,0.1-1.8
				c0-0.5,0.1-0.8,0.1-1l0.3-1.2l3.4-0.2c1.7-0.1,2.7-0.1,3-0.3c0.3-0.1,0.4-0.3,0.5-0.5c0.1-1.2,0.2-2.9,0.4-5.1
				c0.2-2.2,0.4-3.4,0.5-3.5c0.3-0.3,0.9-0.6,1.9-0.8C712,322.5,712.5,322.5,712.5,322.5z"/>
			<path class="st33" d="M746.1,320.9c4.9,0,8,0.5,9.5,1.4c0.7,0.4,1.1,1.1,1.4,2.1c0.2,0.9,0.3,2.7,0.3,5.5c0,3.2,0.1,4.9,0.3,4.9
				l0.3-0.2c0.4-0.2,0.6-0.4,0.8-0.4l0.8-0.4c1.8-0.9,3.8-1.3,5.9-1.3c0.6,0,0.9,0,1.1,0.1c1.3,0.2,2.8,0.5,4.4,1.1
				c1.7,0.6,2.9,1.1,3.6,1.6c1.8,1.4,3.4,3.5,4.5,6.5c1.2,2.9,2,5.8,2.6,8.8c0.5,3,0.8,5.3,0.8,7.1v1.6c-0.1,0.6-0.1,1.3-0.1,2.1
				c-0.1,1.3-0.1,2.7-0.1,4.2c0,0.7-0.1,1.6-0.4,2.6c-0.3,1-0.5,1.6-0.8,1.8c-0.2,0.2-0.8,0.5-1.7,0.8s-1.7,0.4-2.4,0.4h-3.9
				c-3.7,0-5.9-0.2-6.5-0.6l-0.8-0.5v-5.8c0-6.8-0.4-11.2-1.1-13.4c-0.3-1-0.8-1.9-1.5-2.7c-0.7-0.8-1.2-1.2-1.7-1.2
				c-0.6,0-1.3,0.3-2.1,1c-0.8,0.6-1.4,1.4-1.8,2.4c-0.4,1-0.7,1.8-0.8,2.4c-0.2,1.3-0.3,3.9-0.3,7.8c-0.1,4.5-0.3,7.4-0.5,8.6
				c-0.2,1.2-0.5,1.9-0.9,2.2c-0.4,0.3-1.2,0.4-2.4,0.4c-3.2,0-5.7-0.2-7.5-0.6c-1.6-0.4-2.6-0.8-2.8-1.2c-0.6-0.7-0.9-2-1-4.1
				c-0.1-2.1-0.3-5.8-0.4-11.1l-0.1-5.7c-0.2-12.1-0.3-19.4-0.3-21.9c0-1.8,0.1-3.2,0.4-4.2c0.3-0.9,0.8-1.5,1.4-1.8
				C743.3,321.1,744.5,320.9,746.1,320.9z"/>
			<path class="st33" d="M804.2,330.7h1.1c2.3,0.1,4.1,0.5,5.4,1.2c1.3,0.7,3,2,4.9,3.9c3,3,4.9,6.3,5.8,9.7
				c0.3,1.4,0.4,2.6,0.4,3.5c0,3.4-0.6,5.3-1.7,5.8h-13.9c-4.4,0-6.6,0-6.6,0.1c0,0.7,0.6,1.4,1.9,2.1c1.3,0.8,2.8,1.3,4.5,1.7
				c0.9,0.2,1.8,0.3,2.6,0.3c1.3,0,3-0.3,5.1-1c1.6-0.4,2.7-0.7,3.1-0.7c0.6,0,1,0.2,1.3,0.5c0.4,0.6,1,1.6,1.8,3.1
				c0.8,1.5,1.2,2.6,1.2,3.2c0,1.2-1,2.4-3.1,3.6c-2,1.2-4.1,2.1-6.3,2.6c-2.2,0.5-4.8,0.8-7.8,0.8c-3.7,0-6.5-0.3-8.5-1
				s-4.2-2.1-6.5-4.4c-2.3-2.2-3.9-4.4-4.7-6.5c-0.8-2.1-1.3-4.6-1.3-7.5c0-3.1,0.5-6,1.4-8.6c0.9-2.6,2.7-4.9,5.2-7.1
				c2.7-2.3,6.1-4,10.2-4.9C801.2,330.8,802.7,330.7,804.2,330.7z M803.9,342.1c-1.2,0-2.3,0.4-3.2,1.1c-0.9,0.7-1.4,1.6-1.5,2.8
				l-0.1,1l4.1,0.3l3.4,0.2h0.4c0.2,0,0.4,0,0.4-0.1h0.2h0.2c0.2-0.1,0.3-0.4,0.3-1c0-0.7-0.2-1.4-0.5-2.1
				C807,342.8,805.7,342.1,803.9,342.1z"/>
			<path class="st33" d="M846.4,334.2h2.5c3.7,0.1,5.9,0.3,6.5,0.4c0.8,0.3,1.2,1,1.2,2.2c0,1,0.1,1.4,0.3,1.4l2.9-0.7
				c1.8-0.5,3.7-0.8,5.5-0.8c3.2,0,6.1,0.7,8.6,2.2c0.9,0.5,2,1.4,3.2,2.8c1.3,1.4,2.2,2.6,2.9,3.7c1.3,2.5,1.9,5,1.9,7.6
				c0,4.8-1.8,9.1-5.5,12.7c-1.8,1.8-3.6,3.1-5.2,3.9c-1.6,0.8-3.4,1.1-5.5,1.1c-1.8,0-4.6-0.6-8.3-1.8h-0.1c-0.3,0-0.5,2.2-0.6,6.5
				l-0.1,6.7l-0.9,0.8l-0.9,0.8l-6.3-0.1c-3-0.1-4.8-0.2-5.4-0.3c-0.8-0.1-1.3-0.3-1.5-0.6c-0.2-0.3-0.4-1.7-0.5-4.2
				c-0.1-1.6-0.1-8.1-0.1-19.5c0-15.4,0.1-23.4,0.3-23.9c0.2-0.5,0.6-0.9,1.1-1.1C843,334.2,844.3,334.2,846.4,334.2z M863.4,346.6
				c-0.6,0-1.2,0.1-1.7,0.3c-0.8,0.3-1.6,0.9-2.6,1.8l-1.6,1.5l0.3,3.1c0.3,2,0.5,3.2,0.7,3.5c0.2,0.5,0.6,0.9,1.2,1.1
				c0.6,0.2,1.4,0.3,2.2,0.3c1.7,0,3.2-0.6,4.4-1.7c1.2-1.1,1.8-2.6,1.8-4.4c0-2.1-0.6-3.7-1.9-4.7
				C865.5,346.8,864.5,346.6,863.4,346.6z"/>
			<path class="st33" d="M890.1,332.9c5.1,0,8,0.3,8.5,0.8c0.1,0.1,0.2,0.7,0.2,1.8c0,1.3-0.1,3-0.2,4.9c-0.1,1.9-0.2,3.9-0.2,6
				c0,4.4,0.3,7.5,1,9.3c0.6,1.9,1.9,2.8,3.7,2.8c1.6,0,2.8-0.8,3.6-2.4c1.1-2,1.6-6.3,1.7-13.2c0.2-5.6,0.4-8.6,0.6-8.8
				c0.3-0.3,1.4-0.6,3.4-0.8c2-0.3,4-0.4,5.9-0.4c1.5,0,2.6,0.1,3.5,0.2c0.9,0.1,1.5,0.4,1.8,0.9c0.6,0.9,0.9,5.2,0.9,13
				c0,14.3-0.2,22-0.7,23.1c-0.3,0.8-1.6,1.3-3.9,1.3c-1,0-2.8-0.1-5.5-0.3c-1,0-1.7,0-2.3-0.1c-0.6-0.1-1.1-0.2-1.6-0.4
				c-0.6-0.2-1-0.4-1.2-0.6c-0.3-0.3-0.5-0.7-0.7-1.2c-0.4-1.1-0.9-1.3-1.4-0.7c-0.3,0.4-1.4,1-3.2,1.7c-1.8,0.7-3.2,1.2-4.4,1.4
				c-0.8,0.1-1.6,0.2-2.5,0.2c-2.3,0-4.5-0.5-6.5-1.5c-2-1-3.5-2.3-4.5-4c-0.4-0.7-0.9-2-1.5-3.9c-0.4-1.9-0.7-4.3-0.7-7.3v-4.3
				c0.1-10.8,0.8-16.5,2.1-17.1C886.6,333,888,332.9,890.1,332.9z"/>
			<path class="st33" d="M931.8,334.2h2.5c3.7,0.1,5.9,0.3,6.5,0.4c0.8,0.3,1.2,1,1.2,2.2c0,1,0.1,1.4,0.3,1.4l2.9-0.7
				c1.8-0.5,3.7-0.8,5.5-0.8c3.2,0,6.1,0.7,8.6,2.2c0.9,0.5,2,1.4,3.2,2.8c1.3,1.4,2.2,2.6,2.9,3.7c1.3,2.5,1.9,5,1.9,7.6
				c0,4.8-1.8,9.1-5.5,12.7c-1.8,1.8-3.6,3.1-5.2,3.9c-1.6,0.8-3.4,1.1-5.5,1.1c-1.8,0-4.6-0.6-8.3-1.8h-0.1c-0.3,0-0.5,2.2-0.6,6.5
				l-0.1,6.7l-0.9,0.8l-0.9,0.8l-6.3-0.1c-3-0.1-4.8-0.2-5.4-0.3c-0.8-0.1-1.3-0.3-1.5-0.6c-0.2-0.3-0.4-1.7-0.5-4.2
				c-0.1-1.6-0.1-8.1-0.1-19.5c0-15.4,0.1-23.4,0.3-23.9c0.2-0.5,0.6-0.9,1.1-1.1C928.3,334.2,929.6,334.2,931.8,334.2z
				 M948.7,346.6c-0.6,0-1.2,0.1-1.7,0.3c-0.8,0.3-1.6,0.9-2.6,1.8l-1.6,1.5l0.3,3.1c0.3,2,0.5,3.2,0.7,3.5c0.2,0.5,0.6,0.9,1.2,1.1
				c0.6,0.2,1.4,0.3,2.2,0.3c1.7,0,3.2-0.6,4.4-1.7c1.2-1.1,1.8-2.6,1.8-4.4c0-2.1-0.6-3.7-1.9-4.7
				C950.8,346.8,949.9,346.6,948.7,346.6z"/>
			<path class="st33" d="M974.6,334.2h2.5c3.7,0.1,5.9,0.3,6.5,0.4c0.8,0.3,1.2,1,1.2,2.2c0,1,0.1,1.4,0.3,1.4l2.9-0.7
				c1.8-0.5,3.7-0.8,5.5-0.8c3.2,0,6.1,0.7,8.6,2.2c0.9,0.5,2,1.4,3.2,2.8c1.3,1.4,2.2,2.6,2.9,3.7c1.3,2.5,1.9,5,1.9,7.6
				c0,4.8-1.8,9.1-5.5,12.7c-1.8,1.8-3.6,3.1-5.2,3.9c-1.6,0.8-3.4,1.1-5.5,1.1c-1.8,0-4.6-0.6-8.3-1.8h-0.1c-0.3,0-0.5,2.2-0.6,6.5
				l-0.1,6.7l-0.9,0.8l-0.9,0.8l-6.3-0.1c-3-0.1-4.8-0.2-5.4-0.3c-0.8-0.1-1.3-0.3-1.5-0.6c-0.2-0.3-0.4-1.7-0.5-4.2
				c-0.1-1.6-0.1-8.1-0.1-19.5c0-15.4,0.1-23.4,0.3-23.9c0.2-0.5,0.6-0.9,1.1-1.1C971.1,334.2,972.5,334.2,974.6,334.2z
				 M991.5,346.6c-0.6,0-1.2,0.1-1.7,0.3c-0.8,0.3-1.6,0.9-2.6,1.8l-1.6,1.5l0.3,3.1c0.3,2,0.5,3.2,0.7,3.5c0.2,0.5,0.6,0.9,1.2,1.1
				c0.6,0.2,1.4,0.3,2.2,0.3c1.7,0,3.2-0.6,4.4-1.7c1.2-1.1,1.8-2.6,1.8-4.4c0-2.1-0.6-3.7-1.9-4.7
				C993.6,346.8,992.7,346.6,991.5,346.6z"/>
			<path class="st33" d="M1021,338.4h2.3h0.9c0.8,0,1.4,0.1,1.9,0.3c0.4,0.2,0.7,0.4,0.9,0.6c0.1,0.2,0.2,0.7,0.3,1.3
				c0.1,1.5,0.2,6.6,0.2,15.5c0,9.3-0.1,14.1-0.3,14.3c-0.4,0.4-2.2,0.7-5.3,0.7h-3l-2.3-0.1c-1.3,0-2.1,0-2.3-0.1
				c-0.6-0.1-1-0.3-1.3-0.6l-0.7-0.7l-0.1-11.3v-3.5c0-9.8,0.3-15,1-15.8c0.3-0.3,2.1-0.5,5.4-0.6
				C1019.6,338.5,1020.4,338.4,1021,338.4z M1019.9,322.9c1.8,0,3.4,0.6,4.8,1.9c1.3,1.3,2,2.7,2,4.3v1.1c-0.1,1.6-0.8,2.9-1.9,3.8
				c-1.2,0.9-2.7,1.4-4.7,1.4h-0.5c-2-0.1-3.5-0.7-4.7-1.7c-1.2-1-1.8-2.4-1.8-4c0-0.8,0.1-1.6,0.4-2.3c0.3-0.7,0.8-1.5,1.6-2.3
				C1016.4,323.6,1018,322.9,1019.9,322.9z"/>
			<path class="st33" d="M1050.7,330.7h1.1c2.3,0.1,4.1,0.5,5.4,1.2c1.3,0.7,3,2,4.9,3.9c3,3,4.9,6.3,5.8,9.7
				c0.3,1.4,0.4,2.6,0.4,3.5c0,3.4-0.6,5.3-1.7,5.8h-13.9c-4.4,0-6.6,0-6.6,0.1c0,0.7,0.6,1.4,1.9,2.1c1.3,0.8,2.8,1.3,4.5,1.7
				c0.9,0.2,1.8,0.3,2.6,0.3c1.3,0,3-0.3,5.1-1c1.6-0.4,2.7-0.7,3.1-0.7c0.6,0,1,0.2,1.3,0.5c0.4,0.6,1,1.6,1.8,3.1
				c0.8,1.5,1.2,2.6,1.2,3.2c0,1.2-1,2.4-3.1,3.6c-2,1.2-4.1,2.1-6.3,2.6c-2.2,0.5-4.8,0.8-7.8,0.8c-3.7,0-6.5-0.3-8.5-1
				s-4.2-2.1-6.5-4.4c-2.3-2.2-3.9-4.4-4.7-6.5c-0.8-2.1-1.3-4.6-1.3-7.5c0-3.1,0.5-6,1.4-8.6c0.9-2.6,2.7-4.9,5.2-7.1
				c2.7-2.3,6.1-4,10.2-4.9C1047.8,330.8,1049.2,330.7,1050.7,330.7z M1050.5,342.1c-1.2,0-2.3,0.4-3.2,1.1
				c-0.9,0.7-1.4,1.6-1.5,2.8l-0.1,1l4.1,0.3l3.4,0.2h0.4c0.2,0,0.4,0,0.4-0.1h0.2h0.2c0.2-0.1,0.3-0.4,0.3-1c0-0.7-0.2-1.4-0.5-2.1
				C1053.5,342.8,1052.3,342.1,1050.5,342.1z"/>
			<path class="st33" d="M1086.1,331.4h1.5c1.6,0,3.4,0.2,5.5,0.6c2,0.4,3.9,0.9,5.6,1.4c1.7,0.5,2.7,0.8,2.9,1
				c0.6,0.4,0.8,1,0.8,1.8c0,0.9-0.3,2.2-0.8,3.9c-0.5,1.7-0.9,3-1.3,3.8c-0.3,0.6-0.7,0.9-1.3,0.9c-0.6,0-1.4-0.3-2.6-0.8
				c-2.5-1-4.4-1.5-6-1.5c-0.4,0-0.9,0.1-1.3,0.3c-0.4,0.2-0.7,0.4-0.7,0.7c0,0.3,0.2,0.6,0.6,0.9c0.6,0.4,2.4,0.9,5.5,1.3
				c2.6,0.3,4.6,0.9,6.1,1.8c1.5,0.9,2.7,2.2,3.6,4.1c0.8,1.5,1.3,3.3,1.3,5.4c0,2.4-0.6,4.7-1.9,6.9c-1.3,2.2-3,4-5.2,5.3
				c-2.4,1.4-5.4,2.1-9.1,2.1c-3.6,0-7.1-0.7-10.6-2c-3.5-1.3-6.2-3-8.2-5.2c-0.8-0.9-1.3-1.6-1.3-2.1c0-0.4,0.5-1.3,1.5-2.5
				c1-1.2,2.1-2.4,3.2-3.5c1.1-1.1,1.8-1.7,2.1-1.7c0.2,0,0.9,0.5,2.1,1.4c2.5,1.8,5,2.9,7.6,3h1.1c0.9,0,1.6-0.2,2-0.5
				c0.4-0.4,0.7-0.8,0.7-1.4c0-0.7-0.5-1.4-1.4-1.9c-1-0.5-2.6-1-4.9-1.3c-5.9-1-9.7-3.2-11.4-6.8c-0.6-1.1-0.8-2.3-0.8-3.6
				c0-1.6,0.4-3.2,1.3-4.8c0.9-1.6,2.1-3.1,3.6-4.3c1.5-1.2,3.2-2.1,5.1-2.5C1082.7,331.5,1084.2,331.4,1086.1,331.4z"/>
			<path class="st33" d="M312.9,408.6c3.1,0,5.6,0.2,7.3,0.6c1.2,0.3,2.1,0.7,2.7,1.3s1,1.6,1.3,2.8c0.2,0.7,0.3,3.2,0.3,7.5
				c0,9.6-0.2,16.1-0.6,19.5c-0.2,1.8-0.4,3.1-0.8,3.8c-0.3,0.7-1,1.1-2,1.3c-1,0.2-2.8,0.4-5.6,0.5c-0.7,0.1-1.9,0.1-3.6,0.1
				c-1.2,0-2-0.1-2.4-0.4c-0.4-0.3-0.8-0.8-1.2-1.7c-0.4-0.9-0.7-1.3-0.9-1.3c-0.2,0-1.1,0.4-2.6,1.1c-2.3,1.1-4.6,1.7-6.7,1.7
				c-2.2,0-4.6-0.8-7-2.5c-2.5-1.7-4.5-3.9-6.2-6.5c-1.6-2.7-2.5-5.4-2.5-8.2c0-1.2,0.1-2.2,0.3-2.9l0.3-1.3l0.2-0.9
				c0.2-1.3,1.1-3.3,2.9-6c2.7-4.2,6.2-6.9,10.5-7.9c0.8-0.2,1.7-0.3,2.6-0.3c3.1,0,5.7,0.8,7.8,2.3c0.6,0.4,1,0.6,1.3,0.6
				c0.3,0,0.4-0.2,0.4-0.6c0-0.3,0.2-0.7,0.7-1.3c0.5-0.6,0.9-1,1.3-1.1C311,408.7,311.7,408.6,312.9,408.6z M304,421.2
				c-1.3,0-2.5,0.4-3.6,1.2c-1.1,0.8-1.8,1.8-2.2,3.2c-0.2,0.5-0.3,1-0.3,1.6c0,1.5,0.6,2.6,1.8,3.5c1.2,0.9,2.8,1.3,4.8,1.3
				c1.1,0,1.8-0.1,2.1-0.2c0.4-0.1,0.6-0.4,0.7-0.8c0.1-0.4,0.3-1.2,0.4-2.5c0.2-1.5,0.3-3,0.3-4.4c0-0.8-0.1-1.4-0.2-1.6
				c-0.1-0.2-0.5-0.4-1.2-0.7C306,421.4,305.1,421.2,304,421.2z"/>
			<path class="st33" d="M328.4,408.1c0.5-0.3,1.7-0.5,3.6-0.5c2,0,3.8,0.1,5.6,0.4c1.8,0.3,2.8,0.6,3.1,1.1
				c0.4,0.4,0.6,0.8,0.6,1.2c0,0.1,0.1,0.1,0.2,0.1c0.3,0,1.1-0.3,2.3-0.9c2.3-1.2,4.5-1.8,6.4-1.8c2,0,4,0.6,6,1.7
				c2.1,1.1,3.1,2.3,3.1,3.5c0,0.7-0.5,2-1.4,4.1c-1,2-1.8,3.6-2.5,4.7c-0.6,0.8-1.1,1.3-1.8,1.3c-0.2,0-0.8-0.1-1.8-0.4
				c-1-0.3-2-0.5-2.9-0.5c-1.9,0-3.4,0.8-4.6,2.3c-2,2.6-3,8.2-3,16.8v1.2c0,1.2-0.1,2.1-0.2,2.6s-0.5,0.8-1,1
				c-0.5,0.2-1.4,0.3-2.6,0.3l-1.4-0.1h-1.8c-3.9-0.1-6.1-0.4-6.7-0.8c-0.7-0.4-1-0.9-1.1-1.4c-0.2-0.6-0.3-2.7-0.3-6.3
				c0-5.4,0.1-11.3,0.4-17.6c0.3-6.3,0.5-9.8,0.8-10.5C327.6,408.8,328,408.3,328.4,408.1z"/>
			<path class="st33" d="M381.8,405.4h1.1c2.3,0.1,4.1,0.5,5.4,1.2c1.3,0.7,3,2,4.9,3.9c3,3,4.9,6.3,5.8,9.7
				c0.3,1.4,0.4,2.6,0.4,3.5c0,3.4-0.6,5.3-1.7,5.8h-13.9c-4.4,0-6.6,0-6.6,0.1c0,0.7,0.6,1.4,1.9,2.1c1.3,0.8,2.8,1.3,4.5,1.7
				c0.9,0.2,1.8,0.3,2.6,0.3c1.3,0,3-0.3,5.1-1c1.6-0.4,2.7-0.7,3.1-0.7c0.6,0,1,0.2,1.3,0.5c0.4,0.6,1,1.6,1.8,3.1
				c0.8,1.5,1.2,2.6,1.2,3.2c0,1.2-1,2.4-3.1,3.6c-2,1.2-4.1,2.1-6.3,2.6c-2.2,0.5-4.8,0.8-7.8,0.8c-3.7,0-6.5-0.3-8.6-1
				c-2-0.7-4.2-2.1-6.5-4.4c-2.3-2.2-3.9-4.4-4.7-6.5c-0.8-2.1-1.3-4.6-1.3-7.5c0-3.1,0.5-6,1.4-8.5c0.9-2.6,2.7-4.9,5.2-7.1
				c2.7-2.3,6.1-4,10.2-4.9C378.9,405.5,380.3,405.4,381.8,405.4z M381.6,416.8c-1.2,0-2.3,0.4-3.2,1.1c-0.9,0.7-1.4,1.6-1.5,2.8
				l-0.1,1l4.1,0.3l3.4,0.2h0.4c0.2,0,0.4,0,0.4-0.1h0.2h0.2c0.2-0.1,0.3-0.4,0.3-1c0-0.7-0.2-1.4-0.5-2.1
				C384.6,417.5,383.4,416.8,381.6,416.8z"/>
			<path class="st33" d="M440,402.2c2.7,0,5,0.3,7,1c2,0.6,3.6,1.6,4.8,2.7c1.2,1.2,1.8,2.2,1.8,2.9c0,1.2-1.1,3.1-3.3,5.5l-1.4,1.6
				l-2.6-0.9c-1.5-0.5-2.6-0.8-3.5-0.8c-0.8,0-1.7,0.4-2.5,1.2c-0.8,0.8-1.3,1.6-1.3,2.5c0,0.1,0,0.2,0.1,0.3c0.1,0.1,0.8,0.2,2,0.5
				c1.7,0.2,2.8,0.6,3.2,1.2c0.5,0.6,0.7,1.8,0.7,3.7c0,3.9-0.4,6.1-1.1,6.7c-0.4,0.4-1.3,0.6-2.9,0.7l-2.3,0.2l-0.3,1.4
				c-0.2,1.5-0.3,3.4-0.3,5.5c0,3.1-0.1,6.4-0.4,9.9c-0.3,3.5-0.6,5.5-0.9,6c-0.3,0.6-1.5,0.9-3.5,0.9h-0.9c-2,0-4.2-0.2-6.5-0.6
				c-1.5-0.2-2.4-0.4-2.8-0.6c-0.4-0.2-0.7-0.7-0.9-1.5c-0.1-0.8-0.2-2.3-0.2-4.5V442l0.2-10.5l-1.3-0.3c-1.2-0.2-2-0.5-2.4-1
				c-0.4-0.4-0.5-1.4-0.5-2.8c0-1.3,0-2.2,0.1-2.7c0.1-3,0.4-4.9,0.9-5.9c0.5-0.8,1.5-1.3,3-1.3c0.9,0,1.5-0.3,1.5-0.8
				c0.5-2.6,1.1-4.6,1.8-6c0.7-1.5,1.5-2.7,2.5-3.7s2.5-2,4.4-2.9c1.9-0.9,3.8-1.6,5.5-1.9C438.8,402.2,439.5,402.2,440,402.2z"/>
			<path class="st33" d="M462,413.1h2.3h0.9c0.8,0,1.4,0.1,1.9,0.3c0.4,0.2,0.7,0.4,0.9,0.6c0.1,0.2,0.2,0.7,0.3,1.3
				c0.1,1.5,0.2,6.6,0.2,15.5c0,9.3-0.1,14.1-0.3,14.3c-0.4,0.4-2.2,0.7-5.3,0.7h-3l-2.3-0.1c-1.3,0-2.1,0-2.3-0.1
				c-0.6-0.1-1-0.3-1.3-0.6l-0.7-0.7l-0.1-11.3v-3.5c0-9.8,0.3-15,1-15.8c0.3-0.3,2.1-0.5,5.4-0.6
				C460.5,413.2,461.3,413.1,462,413.1z M460.8,397.6c1.8,0,3.4,0.6,4.8,1.9s2,2.7,2,4.3v1.1c-0.1,1.6-0.8,2.9-1.9,3.8
				s-2.7,1.4-4.7,1.4h-0.5c-2-0.1-3.5-0.7-4.7-1.7c-1.2-1-1.8-2.4-1.8-4c0-0.8,0.1-1.6,0.4-2.3c0.3-0.7,0.8-1.5,1.6-2.3
				C457.3,398.3,458.9,397.6,460.8,397.6z"/>
			<path class="st33" d="M498.3,407.1c3.9,0,6.9,1.1,9.1,3.2c2.2,2.1,3.7,4.8,4.7,8c0.4,1.5,0.7,6,0.8,13.4v5.3c0,3.9-0.2,6-0.5,6.3
				c-0.2,0.3-0.7,0.5-1.3,0.6c-0.7,0.1-2.7,0.2-6,0.3l-6.9,0.2l-0.3-0.8c-0.1-0.2-0.2-2.9-0.5-8.1c-0.1-4.2-0.3-7.4-0.6-9.6
				c-0.3-1.6-1-3-1.9-4c-0.5-0.5-1.2-0.8-2-0.8c-4.1,0-6.1,3.8-6.1,11.5c0,2.2,0,3.7,0.1,4.4c0.1,1.1,0.1,2.8,0.1,5.1
				c0,1.5-0.1,2.3-0.3,2.4c-0.2,0.2-1.7,0.3-4.7,0.4c-3,0.1-5.6,0.2-7.8,0.2c-0.9,0-1.5-0.1-1.8-0.2s-0.5-0.4-0.6-0.8
				c-0.1-0.4-0.2-1.1-0.3-2.1c-0.1-0.7-0.1-3.2-0.1-7.6l-0.1-7.5v-8.3l-0.1-6c0-1.6,0.1-2.7,0.3-3.3c0.2-0.6,0.6-1.1,1.2-1.3
				c0.6-0.2,1.6-0.3,3.1-0.3h4.2c3.1,0,4.9,0.1,5.6,0.4c0.6,0.2,0.8,1.1,0.8,2.7c0,1.3,0.1,2,0.3,2c0.2,0,0.8-0.5,1.9-1.6
				c2-1.8,4-3,6.1-3.6C495.7,407.3,497,407.1,498.3,407.1z"/>
			<path class="st33" d="M543.9,408.6c3.1,0,5.6,0.2,7.3,0.6c1.2,0.3,2.1,0.7,2.7,1.3c0.6,0.6,1,1.6,1.3,2.8
				c0.2,0.7,0.3,3.2,0.3,7.5c0,9.6-0.2,16.1-0.6,19.5c-0.2,1.8-0.4,3.1-0.8,3.8c-0.3,0.7-1,1.1-2,1.3c-1,0.2-2.8,0.4-5.6,0.5
				c-0.7,0.1-1.9,0.1-3.6,0.1c-1.2,0-2-0.1-2.4-0.4c-0.4-0.3-0.8-0.8-1.2-1.7c-0.4-0.9-0.7-1.3-0.9-1.3c-0.2,0-1.1,0.4-2.6,1.1
				c-2.3,1.1-4.6,1.7-6.7,1.7c-2.2,0-4.6-0.8-7-2.5c-2.5-1.7-4.5-3.9-6.2-6.5c-1.6-2.7-2.5-5.4-2.5-8.2c0-1.2,0.1-2.2,0.3-2.9
				l0.3-1.3l0.2-0.9c0.2-1.3,1.1-3.3,2.9-6c2.7-4.2,6.2-6.9,10.5-7.9c0.8-0.2,1.7-0.3,2.6-0.3c3.1,0,5.7,0.8,7.8,2.3
				c0.6,0.4,1,0.6,1.3,0.6c0.3,0,0.4-0.2,0.4-0.6c0-0.3,0.2-0.7,0.7-1.3c0.5-0.6,0.9-1,1.3-1.1C542,408.7,542.7,408.6,543.9,408.6z
				 M535,421.2c-1.3,0-2.5,0.4-3.6,1.2c-1.1,0.8-1.8,1.8-2.2,3.2c-0.2,0.5-0.3,1-0.3,1.6c0,1.5,0.6,2.6,1.8,3.5
				c1.2,0.9,2.8,1.3,4.8,1.3c1.1,0,1.8-0.1,2.1-0.2c0.4-0.1,0.6-0.4,0.7-0.8c0.1-0.4,0.3-1.2,0.4-2.5c0.2-1.5,0.3-3,0.3-4.4
				c0-0.8-0.1-1.4-0.2-1.6c-0.1-0.2-0.5-0.4-1.2-0.7C537,421.4,536.1,421.2,535,421.2z"/>
			<path class="st33" d="M561.8,400.1h2c4.3,0.1,6.6,0.6,7,1.8c0.2,1,0.3,8,0.3,21v10.9c0,4.8-0.1,7.9-0.2,9.5
				c-0.1,1.2-0.4,1.9-0.9,2.1c-0.7,0.2-2.6,0.3-5.5,0.3c-0.6,0.1-1.6,0.1-3.1,0.1c-1.6,0-2.6-0.1-3.2-0.4c-0.6-0.3-0.9-0.6-1-1.1
				s-0.1-1.4-0.1-2.9l0.1-1.8v-2.2c0-0.8,0-1.5,0.1-2.1v-2.2c0-2.8-0.1-5.1-0.3-7c-0.4-4.7-0.6-9.3-0.6-13.7c0-3.1,0.2-5.8,0.5-8.1
				c0.3-2.3,0.9-3.7,1.6-3.9C559.1,400.2,560.2,400.1,561.8,400.1z"/>
			<path class="st33" d="M578.4,400.1h2c4.3,0.1,6.6,0.6,7,1.8c0.2,1,0.3,8,0.3,21v10.9c0,4.8-0.1,7.9-0.2,9.5
				c-0.1,1.2-0.4,1.9-0.9,2.1c-0.7,0.2-2.6,0.3-5.5,0.3c-0.6,0.1-1.6,0.1-3.1,0.1c-1.6,0-2.6-0.1-3.2-0.4c-0.6-0.3-0.9-0.6-1-1.1
				s-0.1-1.4-0.1-2.9l0.1-1.8v-2.2c0-0.8,0-1.5,0.1-2.1v-2.2c0-2.8-0.1-5.1-0.3-7c-0.4-4.7-0.6-9.3-0.6-13.7c0-3.1,0.2-5.8,0.5-8.1
				c0.3-2.3,0.9-3.7,1.6-3.9C575.7,400.2,576.8,400.1,578.4,400.1z"/>
			<path class="st33" d="M594.6,407.8c2.3-0.6,4.3-1,6-1c1.2,0,2.1,0.2,2.8,0.6c0.7,0.4,1.4,1.2,2.1,2.4c0.8,1.7,2,4.9,3.7,9.7
				c1.3,3.7,2.1,5.6,2.2,5.6c0.2,0,1.7-2.8,4.4-8.3c2.5-4.9,4.1-7.7,4.8-8.4c0.7-0.8,1.9-1.2,3.8-1.2c2.7,0,5.5,0.6,8.2,1.9
				c0.9,0.4,1.3,1,1.3,1.8c0,1.1-1.6,4.8-4.8,11.3c-4.5,9.1-9.4,17.9-14.8,26.4c-1.7,2.7-3.2,4.9-4.4,6.5c-1.2,1.6-2.6,3.2-4.2,4.7
				c-3.3,3.2-7.4,4.9-12.4,4.9c-1.3,0-3-0.2-4.9-0.5c-1.9-0.4-3.5-0.9-4.8-1.6c-1.5-0.7-2.2-1.4-2.2-2.1c0-0.6,0.4-1.6,1.1-3.1
				c0.8-1.5,1.6-2.8,2.6-4.1c0.9-1.3,1.6-1.9,2.1-2.1h0.3c0.6,0,1.1,0.1,1.8,0.3c0.7,0.3,1.6,0.4,2.6,0.4c3.2,0,6-2,8.4-6
				c0.7-1.2,1.1-2.2,1.1-2.9c0-1.1-1.1-4.1-3.4-9.2c-2.1-4.7-4-9.4-5.7-14.2c-1.7-4.8-2.6-7.8-2.6-8.9c0-0.6,0.2-1.1,0.7-1.4
				C590.8,409.1,592.2,408.5,594.6,407.8z"/>
			<path class="st33" d="M682.6,408.6c3.1,0,5.6,0.2,7.3,0.6c1.2,0.3,2.1,0.7,2.7,1.3c0.6,0.6,1,1.6,1.3,2.8
				c0.2,0.7,0.3,3.2,0.3,7.5c0,9.6-0.2,16.1-0.6,19.5c-0.2,1.8-0.4,3.1-0.8,3.8c-0.3,0.7-1,1.1-2,1.3c-1,0.2-2.8,0.4-5.6,0.5
				c-0.7,0.1-1.9,0.1-3.6,0.1c-1.2,0-2-0.1-2.4-0.4c-0.4-0.3-0.8-0.8-1.2-1.7c-0.4-0.9-0.7-1.3-0.9-1.3c-0.2,0-1.1,0.4-2.6,1.1
				c-2.3,1.1-4.6,1.7-6.7,1.7c-2.2,0-4.6-0.8-7-2.5c-2.5-1.7-4.5-3.9-6.2-6.5c-1.6-2.7-2.5-5.4-2.5-8.2c0-1.2,0.1-2.2,0.3-2.9
				l0.3-1.3l0.2-0.9c0.2-1.3,1.1-3.3,2.9-6c2.7-4.2,6.2-6.9,10.5-7.9c0.8-0.2,1.7-0.3,2.6-0.3c3.1,0,5.7,0.8,7.8,2.3
				c0.6,0.4,1,0.6,1.3,0.6c0.3,0,0.4-0.2,0.4-0.6c0-0.3,0.2-0.7,0.7-1.3c0.5-0.6,0.9-1,1.3-1.1C680.6,408.7,681.3,408.6,682.6,408.6
				z M673.7,421.2c-1.3,0-2.5,0.4-3.6,1.2c-1.1,0.8-1.8,1.8-2.2,3.2c-0.2,0.5-0.3,1-0.3,1.6c0,1.5,0.6,2.6,1.8,3.5
				c1.2,0.9,2.8,1.3,4.8,1.3c1.1,0,1.8-0.1,2.1-0.2c0.4-0.1,0.6-0.4,0.7-0.8c0.1-0.4,0.3-1.2,0.4-2.5c0.2-1.5,0.3-3,0.3-4.4
				c0-0.8-0.1-1.4-0.2-1.6c-0.1-0.2-0.5-0.4-1.2-0.7C675.7,421.4,674.7,421.2,673.7,421.2z"/>
			<path class="st33" d="M706.8,397.2c0,0,1.5,0,4.6,0c3.1,0,5.1,0.1,5.9,0.2c1,0.2,1.5,0.4,1.7,0.6c0.2,0.2,0.3,0.6,0.3,1.3
				l-0.2,4.4l-0.2,2.7l-0.1,1l4,0.1c0.8,0,1.3,0,1.7,0.1c1.4,0,2.3,0.1,2.8,0.3c0.4,0.2,0.7,0.8,0.8,1.8c0.1,1,0.2,2.9,0.2,5.9v1.4
				c0,1.6-0.1,2.6-0.2,3.2c-0.1,0.6-0.4,0.9-0.9,1.1c-0.5,0.2-1.4,0.3-2.7,0.3h-5.4l-0.3,1.8c-0.1,1.3-0.2,2.2-0.2,2.5
				c0,5.8,1.5,8.7,4.4,8.7c0.6,0,1.4-0.3,2.4-0.9s1.6-1,1.8-1.3c0.2-0.2,0.4-0.3,0.6-0.3c0.5,0,1.1,0.4,1.9,1.2
				c0.9,0.9,1.7,2,2.6,3.2c0.8,1.3,1.2,2.1,1.2,2.6c0,0.7-0.8,1.6-2.3,2.9c-1.5,1.2-3.3,2.3-5.4,3.3c-2.7,1.2-5.6,1.8-8.7,1.8
				c-2,0-3.6-0.3-5.1-1c-1.4-0.7-2.9-1.8-4.6-3.5c-1.9-1.9-3.3-3.9-4.1-6.1c-0.8-2.2-1.3-5.5-1.3-9.9v-1.9v-1.2
				c-0.1-0.2-0.1-0.4-0.1-0.8c0-0.3-0.1-0.5-0.2-0.6l-0.3-0.3c-0.1-0.2-0.4-0.3-1.2-0.3l-1-0.1h-1.3c-1.2-0.1-1.9-0.2-2.3-0.3
				c-0.3-0.1-0.6-0.3-0.9-0.8c-0.2-0.4-0.3-1.1-0.3-2.2c0-1.5,0-2.5,0.1-3.1c0.1-1.7,0.2-2.7,0.2-3.2c0.1-0.7,0.1-1.3,0.1-1.8
				s0.1-0.8,0.1-1l0.3-1.2l3.4-0.2c1.7-0.1,2.7-0.1,3-0.3c0.3-0.1,0.4-0.3,0.5-0.5c0.1-1.2,0.2-2.9,0.4-5.1c0.2-2.2,0.4-3.4,0.5-3.5
				c0.3-0.3,0.9-0.6,1.9-0.8C706.3,397.2,706.8,397.2,706.8,397.2z"/>
			<path class="st33" d="M764,397.2c0,0,1.5,0,4.6,0c3.1,0,5.1,0.1,5.9,0.2c1,0.2,1.5,0.4,1.7,0.6c0.2,0.2,0.3,0.6,0.3,1.3l-0.2,4.4
				l-0.2,2.7l-0.1,1l4,0.1c0.8,0,1.3,0,1.7,0.1c1.4,0,2.3,0.1,2.8,0.3c0.4,0.2,0.7,0.8,0.8,1.8c0.1,1,0.2,2.9,0.2,5.9v1.4
				c0,1.6-0.1,2.6-0.2,3.2c-0.1,0.6-0.4,0.9-0.9,1.1c-0.5,0.2-1.4,0.3-2.7,0.3h-5.4l-0.3,1.8c-0.1,1.3-0.2,2.2-0.2,2.5
				c0,5.8,1.5,8.7,4.4,8.7c0.6,0,1.4-0.3,2.4-0.9s1.6-1,1.8-1.3c0.2-0.2,0.4-0.3,0.6-0.3c0.5,0,1.1,0.4,1.9,1.2
				c0.9,0.9,1.7,2,2.6,3.2c0.8,1.3,1.2,2.1,1.2,2.6c0,0.7-0.8,1.6-2.3,2.9c-1.5,1.2-3.3,2.3-5.4,3.3c-2.7,1.2-5.6,1.8-8.7,1.8
				c-2,0-3.6-0.3-5.1-1c-1.4-0.7-2.9-1.8-4.6-3.5c-1.9-1.9-3.3-3.9-4.1-6.1c-0.8-2.2-1.3-5.5-1.3-9.9v-1.9v-1.2
				c-0.1-0.2-0.1-0.4-0.1-0.8c0-0.3-0.1-0.5-0.2-0.6l-0.3-0.3c-0.1-0.2-0.4-0.3-1.2-0.3l-1-0.1h-1.3c-1.2-0.1-1.9-0.2-2.3-0.3
				c-0.3-0.1-0.6-0.3-0.9-0.8c-0.2-0.4-0.3-1.1-0.3-2.2c0-1.5,0-2.5,0.1-3.1c0.1-1.7,0.2-2.7,0.2-3.2c0.1-0.7,0.1-1.3,0.1-1.8
				s0.1-0.8,0.1-1l0.3-1.2l3.4-0.2c1.7-0.1,2.7-0.1,3-0.3c0.3-0.1,0.4-0.3,0.5-0.5c0.1-1.2,0.2-2.9,0.4-5.1c0.2-2.2,0.4-3.4,0.5-3.5
				c0.3-0.3,0.9-0.6,1.9-0.8C763.5,397.2,764,397.2,764,397.2z"/>
			<path class="st33" d="M797.6,395.7c4.9,0,8,0.5,9.5,1.4c0.7,0.4,1.1,1.1,1.4,2.1c0.2,0.9,0.3,2.7,0.3,5.5c0,3.2,0.1,4.9,0.3,4.9
				l0.3-0.2c0.4-0.2,0.6-0.4,0.8-0.4l0.8-0.4c1.8-0.9,3.8-1.3,5.9-1.3c0.6,0,0.9,0,1.1,0.1c1.3,0.2,2.8,0.5,4.4,1.1
				c1.7,0.6,2.9,1.1,3.6,1.6c1.8,1.4,3.4,3.5,4.5,6.5c1.2,2.9,2,5.8,2.6,8.8c0.5,3,0.8,5.3,0.8,7.1v1.6c-0.1,0.6-0.1,1.3-0.1,2.1
				c-0.1,1.3-0.1,2.7-0.1,4.2c0,0.7-0.1,1.6-0.4,2.6c-0.3,1-0.5,1.6-0.8,1.8c-0.2,0.2-0.8,0.5-1.7,0.8c-0.9,0.3-1.7,0.4-2.4,0.4
				h-3.9c-3.7,0-5.9-0.2-6.5-0.6l-0.8-0.5v-5.8c0-6.8-0.4-11.2-1.1-13.4c-0.3-1-0.8-1.9-1.5-2.7c-0.7-0.8-1.2-1.2-1.7-1.2
				c-0.6,0-1.3,0.3-2.1,1c-0.8,0.6-1.4,1.4-1.8,2.4c-0.4,1-0.7,1.8-0.8,2.4c-0.2,1.3-0.3,3.9-0.3,7.8c-0.1,4.5-0.3,7.4-0.5,8.6
				c-0.2,1.2-0.5,1.9-0.9,2.2c-0.4,0.3-1.2,0.4-2.4,0.4c-3.2,0-5.7-0.2-7.5-0.6c-1.6-0.4-2.6-0.8-2.8-1.2c-0.6-0.7-0.9-2-1-4.1
				c-0.1-2.1-0.3-5.8-0.4-11.1l-0.1-5.7c-0.2-12.1-0.3-19.4-0.3-21.9c0-1.8,0.1-3.2,0.4-4.2c0.3-0.9,0.8-1.5,1.4-1.8
				C794.8,395.8,796,395.7,797.6,395.7z"/>
			<path class="st33" d="M855.7,405.4h1.1c2.3,0.1,4.1,0.5,5.4,1.2c1.3,0.7,3,2,4.9,3.9c3,3,4.9,6.3,5.8,9.7
				c0.3,1.4,0.4,2.6,0.4,3.5c0,3.4-0.6,5.3-1.7,5.8h-13.9c-4.4,0-6.6,0-6.6,0.1c0,0.7,0.6,1.4,1.9,2.1c1.3,0.8,2.8,1.3,4.5,1.7
				c0.9,0.2,1.8,0.3,2.6,0.3c1.3,0,3-0.3,5.1-1c1.6-0.4,2.7-0.7,3.1-0.7c0.6,0,1,0.2,1.3,0.5c0.4,0.6,1,1.6,1.8,3.1
				c0.8,1.5,1.2,2.6,1.2,3.2c0,1.2-1,2.4-3.1,3.6c-2,1.2-4.1,2.1-6.3,2.6c-2.2,0.5-4.8,0.8-7.8,0.8c-3.7,0-6.5-0.3-8.5-1
				c-2-0.7-4.2-2.1-6.5-4.4c-2.3-2.2-3.9-4.4-4.7-6.5c-0.8-2.1-1.3-4.6-1.3-7.5c0-3.1,0.5-6,1.4-8.5c0.9-2.6,2.7-4.9,5.2-7.1
				c2.7-2.3,6.1-4,10.2-4.9C852.7,405.5,854.2,405.4,855.7,405.4z M855.4,416.8c-1.2,0-2.3,0.4-3.2,1.1c-0.9,0.7-1.4,1.6-1.5,2.8
				l-0.1,1l4.1,0.3l3.4,0.2h0.4c0.2,0,0.4,0,0.4-0.1h0.2h0.2c0.2-0.1,0.3-0.4,0.3-1c0-0.7-0.2-1.4-0.5-2.1
				C858.5,417.5,857.2,416.8,855.4,416.8z"/>
			<path class="st33" d="M897.9,408.9h2.5c3.7,0.1,5.9,0.3,6.5,0.4c0.8,0.3,1.2,1,1.2,2.2c0,1,0.1,1.4,0.3,1.4l2.9-0.7
				c1.8-0.5,3.7-0.8,5.5-0.8c3.2,0,6.1,0.7,8.6,2.2c0.9,0.5,2,1.4,3.2,2.8c1.3,1.4,2.2,2.6,2.9,3.7c1.3,2.5,1.9,5,1.9,7.6
				c0,4.8-1.8,9.1-5.5,12.7c-1.8,1.8-3.6,3.1-5.2,3.9s-3.4,1.1-5.5,1.1c-1.8,0-4.6-0.6-8.3-1.8h-0.1c-0.3,0-0.5,2.2-0.6,6.5
				l-0.1,6.7l-0.9,0.8l-0.9,0.8l-6.3-0.1c-3-0.1-4.8-0.2-5.4-0.3c-0.8-0.1-1.3-0.3-1.5-0.6c-0.2-0.3-0.4-1.7-0.5-4.2
				c-0.1-1.6-0.1-8.1-0.1-19.5c0-15.4,0.1-23.4,0.3-23.9c0.2-0.5,0.6-0.9,1.1-1.1C894.4,409,895.8,408.9,897.9,408.9z M914.8,421.3
				c-0.6,0-1.2,0.1-1.7,0.3c-0.8,0.3-1.6,0.9-2.6,1.8l-1.6,1.5l0.3,3.1c0.3,2,0.5,3.2,0.7,3.5c0.2,0.5,0.6,0.9,1.2,1.1
				c0.6,0.2,1.4,0.3,2.2,0.3c1.7,0,3.2-0.6,4.4-1.7c1.2-1.1,1.8-2.6,1.8-4.4c0-2.1-0.6-3.7-1.9-4.7
				C916.9,421.6,916,421.3,914.8,421.3z"/>
			<path class="st33" d="M964.7,408.6c3.1,0,5.6,0.2,7.3,0.6c1.2,0.3,2.1,0.7,2.7,1.3c0.6,0.6,1,1.6,1.3,2.8
				c0.2,0.7,0.3,3.2,0.3,7.5c0,9.6-0.2,16.1-0.6,19.5c-0.2,1.8-0.4,3.1-0.8,3.8c-0.3,0.7-1,1.1-2,1.3c-1,0.2-2.8,0.4-5.6,0.5
				c-0.7,0.1-1.9,0.1-3.6,0.1c-1.2,0-2-0.1-2.4-0.4c-0.4-0.3-0.8-0.8-1.2-1.7c-0.4-0.9-0.7-1.3-0.9-1.3c-0.2,0-1.1,0.4-2.6,1.1
				c-2.3,1.1-4.6,1.7-6.7,1.7c-2.2,0-4.6-0.8-7-2.5c-2.5-1.7-4.5-3.9-6.2-6.5c-1.6-2.7-2.5-5.4-2.5-8.2c0-1.2,0.1-2.2,0.3-2.9
				l0.3-1.3l0.2-0.9c0.2-1.3,1.1-3.3,2.9-6c2.7-4.2,6.2-6.9,10.5-7.9c0.8-0.2,1.7-0.3,2.6-0.3c3.1,0,5.7,0.8,7.8,2.3
				c0.6,0.4,1,0.6,1.3,0.6c0.3,0,0.4-0.2,0.4-0.6c0-0.3,0.2-0.7,0.7-1.3c0.5-0.6,0.9-1,1.3-1.1C962.8,408.7,963.5,408.6,964.7,408.6
				z M955.8,421.2c-1.3,0-2.5,0.4-3.6,1.2c-1.1,0.8-1.8,1.8-2.2,3.2c-0.2,0.5-0.3,1-0.3,1.6c0,1.5,0.6,2.6,1.8,3.5
				c1.2,0.9,2.8,1.3,4.8,1.3c1.1,0,1.8-0.1,2.1-0.2c0.4-0.1,0.6-0.4,0.7-0.8c0.1-0.4,0.3-1.2,0.4-2.5c0.2-1.5,0.3-3,0.3-4.4
				c0-0.8-0.1-1.4-0.2-1.6c-0.1-0.2-0.5-0.4-1.2-0.7C957.8,421.4,956.9,421.2,955.8,421.2z"/>
			<path class="st33" d="M980.2,408.1c0.5-0.3,1.7-0.5,3.6-0.5c2,0,3.8,0.1,5.6,0.4c1.8,0.3,2.8,0.6,3.1,1.1
				c0.4,0.4,0.6,0.8,0.6,1.2c0,0.1,0.1,0.1,0.2,0.1c0.3,0,1.1-0.3,2.3-0.9c2.3-1.2,4.5-1.8,6.4-1.8c2,0,4,0.6,6,1.7
				c2.1,1.1,3.1,2.3,3.1,3.5c0,0.7-0.5,2-1.4,4.1c-1,2-1.8,3.6-2.5,4.7c-0.6,0.8-1.1,1.3-1.8,1.3c-0.2,0-0.8-0.1-1.8-0.4
				c-1-0.3-2-0.5-2.8-0.5c-1.9,0-3.4,0.8-4.6,2.3c-2,2.6-3,8.2-3,16.8v1.2c0,1.2-0.1,2.1-0.2,2.6c-0.1,0.5-0.5,0.8-1,1
				c-0.5,0.2-1.4,0.3-2.6,0.3l-1.4-0.1H986c-3.9-0.1-6.1-0.4-6.7-0.8c-0.7-0.4-1-0.9-1.1-1.4c-0.2-0.6-0.3-2.7-0.3-6.3
				c0-5.4,0.1-11.3,0.4-17.6c0.3-6.3,0.5-9.8,0.8-10.5C979.4,408.8,979.8,408.3,980.2,408.1z"/>
			<path class="st33" d="M1019.3,401.8c0,0,1,0,2.9,0s3.4,0.1,4.4,0.3c0.9,0.2,1.6,0.7,1.9,1.3c0.3,0.6,0.5,2.3,0.6,5.1
				c0.1,2.8,0.2,5.4,0.2,8c0,2.5,0,3.7,0.1,3.7c0.2,0,1.3-1.5,3.5-4.4c1.6-2.2,3.7-4.7,6.2-7.6c2.5-2.9,4.1-4.5,4.7-4.8
				c0.4-0.2,0.8-0.3,1.1-0.3c0.7,0,1.9,0.6,3.8,1.8c1.8,1.2,3.4,2.4,4.5,3.7c1.2,1.3,1.8,2.4,1.8,3.2c0,0.4-0.3,1-0.8,1.8
				c-0.7,1-2.3,3-4.9,6c-2.5,3-4.5,5.2-5.9,6.7l-2.7,2.9l2.5,2.9c1.6,1.7,3.4,3.9,5.5,6.5c2.1,2.6,3.3,4.1,3.5,4.4l0.2,0.6
				c0,0.7-1.7,1.3-5.2,1.8c-3.1,0.4-4.8,0.8-5.3,0.9c-0.9,0.2-1.6,0.3-2.2,0.3c-0.8,0-1.6-0.2-2.2-0.7c-0.4-0.3-1.7-1.9-3.9-4.8
				c-2-2.7-3.1-4-3.4-4c-0.2,0-0.5,0.3-0.9,0.8c-0.5,0.7-0.8,2.2-0.8,4.5c-0.1,2.5-0.3,3.9-0.8,4.4c-0.4,0.4-1.2,0.6-2.4,0.6
				c-1.6,0-2.7,0-3.3-0.1c-2.8-0.1-4.9-0.3-6.4-0.6c-1.1-0.2-1.8-0.6-2.2-1c-0.3-0.5-0.6-1.4-0.7-2.7c-0.1-1.3-0.1-4.9-0.3-10.8
				v-3.4c0-11.2,0.3-19.1,0.8-23.9c0.1-1.1,0.4-1.8,0.8-2.1c0.4-0.4,1.2-0.6,2.5-0.7C1018.5,401.9,1019.3,401.8,1019.3,401.8z"/>
			<path class="st33" d="M1067.5,434.1c2.6,0,4.6,0.7,6,2c1.4,1.3,2.1,3.2,2.1,5.4c0,2.5-0.9,4.5-2.6,6.2c-1.7,1.7-3.8,2.5-6.2,2.5
				c-0.9,0-1.6-0.1-2.3-0.3c-1.6-0.4-3-1.4-4.3-2.9c-1.3-1.5-1.9-2.9-1.9-4.3c0-1.7,0.6-3.4,1.8-4.9c1.2-1.5,2.7-2.6,4.5-3.3
				C1065.4,434.3,1066.3,434.1,1067.5,434.1z M1078,393.5c1,0,1.6,0.1,1.9,0.3c0.2,0.1,0.3,0.4,0.3,1c0,1.1-0.2,3.4-0.6,6.7
				c-1.4,14.5-2.9,24.2-4.4,29l-0.6,1.6h-4.9l-3.1,0.1c-1.1,0-1.8-0.1-2.2-0.4c-0.4-0.3-0.7-0.8-0.8-1.6c-0.1-0.8-0.2-2.2-0.2-4.1
				v-2.7c0-4.2,0.1-9.1,0.2-14.6c0.1-5.5,0.3-8.9,0.4-10.2c0.1-1.2,0.3-2,0.6-2.5c0.7-0.9,3-1.6,6.7-2.1
				C1074,393.6,1076.3,393.5,1078,393.5z"/>
		</g>
	</g>
</g>
</svg>
