<?xml version="1.0" encoding="utf-8"?>
<!-- Generator: Adobe Illustrator 21.0.0, SVG Export Plug-In . SVG Version: 6.00 Build 0)  -->
<svg version="1.1" id="Capa_1" xmlns="http://www.w3.org/2000/svg" xmlns:xlink="http://www.w3.org/1999/xlink" x="0px" y="0px"
	 viewBox="0 0 1319 1952" style="enable-background:new 0 0 1319 1952;" xml:space="preserve">
<style type="text/css">
	.st0{clip-path:url(#SVGID_2_);}
	.st1{fill:#D0D2F7;}
	.st2{fill:#D69583;stroke:#643527;stroke-miterlimit:10;}
	.st3{fill:#FFC6CE;stroke:#643527;stroke-miterlimit:10;}
	.st4{fill:none;}
	.st5{fill:#E1F78F;stroke:#643527;stroke-width:5;stroke-miterlimit:10;}
	.st6{fill:#CBABB6;stroke:#643527;stroke-miterlimit:10;}
	.st7{fill:#F9DFD0;stroke:#643527;stroke-miterlimit:10;}
	.st8{fill:#FFFFFF;stroke:#643527;stroke-miterlimit:10;}
	.st9{fill:#347976;stroke:#643527;stroke-miterlimit:10;}
	.st10{fill:none;stroke:#643527;stroke-miterlimit:10;}
	.st11{fill:#F9DFD0;stroke:#643527;stroke-width:5;stroke-miterlimit:10;}
	.st12{fill:none;stroke:#643527;stroke-width:5;stroke-miterlimit:10;}
	.st13{fill:#708A81;stroke:#643527;stroke-miterlimit:10;}
	.st14{fill:#867691;stroke:#643527;stroke-width:5;stroke-miterlimit:10;}
	.st15{fill:#FFFFFF;stroke:#643527;stroke-width:5;stroke-miterlimit:10;}
	.st16{clip-path:url(#SVGID_2_);fill:#FEDC72;}
	.st17{fill:#FEDC72;stroke:#643527;stroke-width:5;stroke-linecap:round;stroke-linejoin:round;stroke-miterlimit:10;}
	.st18{fill:#DAD96D;stroke:#643527;stroke-width:5;stroke-miterlimit:10;}
	.st19{fill:#4DA45F;}
	.st20{fill:#F7CA3D;}
	.st21{fill:#5FB2E6;stroke:#643527;stroke-width:5;stroke-miterlimit:10;}
	.st22{fill:#F6F5F0;}
	.st23{fill:#110E0E;stroke:#643527;stroke-width:5;stroke-miterlimit:10;}
	.st24{fill:#110E0E;stroke:#FFFFFF;stroke-miterlimit:10;}
	.st25{fill:#D4D2D3;}
	.st26{fill:#196F30;stroke:#643527;stroke-width:5;stroke-miterlimit:10;}
	.st27{fill:#F4E9E4;stroke:#643527;stroke-width:5;stroke-miterlimit:10;}
	.st28{fill:#FF952F;stroke:#643527;stroke-width:5;stroke-miterlimit:10;}
	.st29{fill:#F7CC43;stroke:#643527;stroke-width:5;stroke-miterlimit:10;}
	.st30{fill:#C9162C;stroke:#643527;stroke-width:5;stroke-miterlimit:10;}
	.st31{fill:#8D971C;stroke:#643527;stroke-width:5;stroke-miterlimit:10;}
	.st32{fill:#FAE0A5;stroke:#643527;stroke-width:5;stroke-miterlimit:10;}
	.st33{fill:#C02425;stroke:#643527;stroke-width:5;stroke-miterlimit:10;}
	.st34{fill:#429F4F;stroke:#643527;stroke-width:5;stroke-miterlimit:10;}
	
		.st35{clip-path:url(#SVGID_2_);fill:#EEFEFF;stroke:#643527;stroke-width:5;stroke-linecap:round;stroke-linejoin:round;stroke-miterlimit:10;}
	.st36{fill:#FFB8EB;stroke:#634527;stroke-width:5;stroke-miterlimit:10;}
	.st37{fill:#F7CC43;stroke:#643527;stroke-miterlimit:10;}
	.st38{fill:#C9162C;stroke:#643527;stroke-miterlimit:10;}
	.st39{fill:#8D971C;stroke:#643527;stroke-miterlimit:10;}
	.st40{fill:#FAE0A5;stroke:#643527;stroke-miterlimit:10;}
	.st41{fill:#F4DBA4;stroke:#643527;stroke-width:5;stroke-miterlimit:10;}
	.st42{fill:#C22126;stroke:#643527;stroke-width:5;stroke-miterlimit:10;}
	.st43{fill:#F4B831;stroke:#643527;stroke-width:5;stroke-linecap:round;stroke-linejoin:round;stroke-miterlimit:10;}
	.st44{fill:#F4DB5B;stroke:#643527;stroke-width:5;stroke-linecap:round;stroke-linejoin:round;stroke-miterlimit:10;}
	.st45{fill:#8E5F52;stroke:#643527;stroke-width:5;stroke-miterlimit:10;}
	.st46{fill:#643527;}
	.st47{fill:#FFBE9E;}
	.st48{fill:#8E5F52;}
	.st49{fill:#FFBF6C;stroke:#643527;stroke-width:5;stroke-miterlimit:10;}
	
		.st50{clip-path:url(#SVGID_2_);fill:#FFC25E;stroke:#643527;stroke-width:5;stroke-linecap:round;stroke-linejoin:round;stroke-miterlimit:10;}
	.st51{fill:#FFC25E;stroke:#643527;stroke-width:5;stroke-linecap:round;stroke-linejoin:round;stroke-miterlimit:10;}
	.st52{fill:#FFE7A8;}
	.st53{fill:none;stroke:#643527;stroke-width:5;stroke-linecap:round;stroke-linejoin:round;stroke-miterlimit:10;}
	.st54{fill:#643527;stroke:#FFF8CC;stroke-width:3;stroke-miterlimit:10;}
</style>
<g>
	<g>
		<defs>
			<polygon id="SVGID_1_" points="1172.3,1.8 1025.6,1.8 878.9,1.8 732.3,1.8 585.6,1.8 438.9,1.8 292.2,1.8 292.2,3.2 146.7,3.2 
				0,3.2 0,1950.2 146.7,1950.2 293.4,1950.2 293.4,1948.8 438.9,1948.8 585.6,1948.8 732.3,1948.8 878.9,1948.8 1025.6,1948.8 
				1172.3,1948.8 1319,1948.8 1319,1.8 			"/>
		</defs>
		<clipPath id="SVGID_2_">
			<use xlink:href="#SVGID_1_"  style="overflow:visible;"/>
		</clipPath>
		<g class="st0">
			<path class="st1" d="M-4413.5-3966.7v4.4h-1288.8c-127.2,352.5-271.9,698.4-403.5,1049.3c-161.2,429.9-301.6,870.7-360.7,1327.5
				c-31.5,243.2-30.4,486.8-34.9,731.6c-2.4,130.5-4.4,261.1-2.4,391.7c1.9,126.4,4.4,253.4,27.5,378.1
				c43.3,233.2,134.1,454.5,178.6,687.5c22.5,117.4,41,238.5,45.9,358c4.7,114.5-4.1,228.9-20.3,342.3
				c-32,223.8-102.2,442.6-116.5,668.5h1982.3v-4.4H1802v-5934.3H-4413.5z"/>
			<path class="st2" d="M-6195.1,130.7c-60.6,37.2-95.1,81.3-170.7,50.1c9.2-18.5,5.6-39.7-11.7-52.9c-29.3-22.3-25-2.3-37.8,14.6
				c-1.6,2.2-3.1,4.3-4.4,6.4c11.3,40,23.2,79.9,35,119.7c5.5-0.2,11-0.3,16.4-0.2c95.2,0.4,164.9-18,229.1-92.4
				C-6063.9,88.4-6121,85.3-6195.1,130.7z"/>
			<path class="st3" d="M-6454,189.6c5.4,1,10.7,1.5,16,1.7c-2.4-8.5-4.8-17-7.2-25.5C-6448.8,174.3-6453.1,182.7-6454,189.6z"/>
			<path class="st3" d="M-5467-791c4.8-11,32.5-30.6,40.4-45.4c18.4-34.2,21-49.2,1.4-83.7c-33.4-59.1-45.1-43.9-39.2-107.1
				c3.2-33.8-1.7-86.7-17.8-114.6c-4.7-8.1-22.3-1-27.6-12.3c-8.4-17.9,7.2-44.2,3.5-66.3c-7.7-46-28.8-47.9-67.4-25.5
				c-10.1-49.7-58.2-84.7-85.9-125.2c-28.8-42.2-45.6-79.9-87.6-111.4c-21.5-16.1-50.7-24.6-71.7-40.6
				c-25.3-19.2-80.5-57.1-96.1-84.8c29-13.7,26-48,8.5-66.6c-21.9-23.3-61.6-16.3-90.4-21.7c-47.2-8.9-53.2-22.4-95.7-51.5
				c-61-41.8-110-47.9-179-53.8c7.1-66.2-2.2-102.6-71.7-46.5c-29.4,23.8-54.1,38.3-89,44.8c-13.3,72.1-24.9,144.6-34.3,217.6
				c-31.5,243.2-30.4,486.8-34.9,731.6c-2.4,130.5-4.4,261.1-2.4,391.7c1.9,126.4,4.4,253.4,27.5,378.1
				c17.2,92.7,41.9,183.5,68.3,274c14.9-1.3,29.9-2.5,45.1,0.7c11.3,77.9,142.4-9.1,168.5-15.1c38.1-8.8,14.1,6,44.8,20.5
				c40.9,19.4,77.6,5.7,112.5-19.9c17.2,39.2,53.2,69.5,98.7,42.5c35.2-20.9,7.6-35.3,29.2-53.9c23.8-20.6,58.6,20.8,67.9-27.3
				c4.2-21.6-27.3-52.5-23.3-81.3c36.7-7.5,104.9-1.5,136.5-20.2c39.1-23.2,34.3-52.2,85.1-70.3c136.6-48.8,168.8-109.5,157.8-239.3
				c-22.3-7.4-1.8-91,2.5-113c12.2-63.3,58.2-131.1,53-213.4c-3.5-55.9-22.3-95.8-38-146.4C-5483.3-796-5482.4-755.9-5467-791z"/>
			<path class="st4" d="M-6392.2,499.6c-12.3,48.5,9.9,99.9,59.1,91.9c-9-46.1-19.2-91.8-30.7-137.6
				C-6377.5,466.9-6387.7,481.9-6392.2,499.6z"/>
			<path class="st4" d="M-6205.9,370c-3.2,1.7-6.4,3.4-9.7,5c-33.8,16.7-83.4,33.4-121.9,58.5c13.1,48.7,25.2,97.7,35.3,147.2
				c49.3-25.3,95.7-84.1,117.3-128.1C-6163.9,409.7-6178.7,385.8-6205.9,370z"/>
			<path class="st2" d="M-6399.5,219.1c46-30.5,93.3-57.6,141.5-83.1c-31-15.6-60.7-31.5-86.7-49.2c-49.7-33.7-90.6-72.6-67-135.9
				c13.9-37.5,43.5-69.7,52.4-106.2c9.2-37.9-4-61-37-82c-42.2,40.4-37.9,106.4-76.2,147.7c-1.3,1.4-2.7,2.8-4,4.1
				c0.1,0.4,0.1,0.9,0.2,1.3C-6457.2,18.6-6429,119-6399.5,219.1z"/>
			<path class="st2" d="M-5707.4-149.8c-14-3.3-35.7-8.1-55.8-8.3C-5852-87-5942.1-18.7-6045.5,31.4
				c-71.9,34.8-143.1,68-212.4,104.6c-48.2,25.4-95.5,52.6-141.5,83.1c20.9,71.1,42.5,142.1,61.8,213.6c25-16,54-27.6,78-38.1
				c20-8.8,37.9-20.4,54.9-33.2c26.5,16.1,40.6,48.9,19.9,91.2c-21.6,44-68,102.8-117.3,128.1c1.5,7.6,3.1,15.2,4.5,22.7
				c18.4,96.4,34.2,195.2,42,293.7c12.8-22.4,24.3-45.2,31.7-68.6c17.1-54.4,3.9-51.1,57.1-86.5c117.8-78.5,248.5-206.4,201.4-365.5
				c-14.2-47.9-47.4-94.5-84-126.3c30.7-19.5,59.9-39.6,90.6-63.3c92.4-71.3,189.9-126.5,276-205.2c43.4-39.7,82.1-88.5,132.6-119.2
				C-5612.7-131.3-5648.9-136.1-5707.4-149.8z M-6183.7,344.7c26.7-21.9,52.7-45.4,83.7-63.7c9-5.3,17.7-10.5,26.3-15.8
				L-6183.7,344.7z"/>
			<path class="st5" d="M1318.6,978.4L874.7,1057c0,0-83.2,46.2-74,18.5c9.2-27.7-78.6-32.4-78.6-32.4s-286.7,97.1-305.2,60.1
				c-26.7-53.4-104.3-219.4-138.7-185c-50.9,50.9,4.6,166.5,4.6,166.5H88.6V1020H-54.7l-138.7,78.6c0,0-97.1,69.4-411.5,41.6
				c-314.4-27.7-74-23.1-101.7-55.5c-27.7-32.4-83.2,0-83.2-41.6c0-41.6,185-249.7,185-249.7s9.2-97.1-268.2-106.3
				c-277.4-9.2-1146.7,365.3-1146.7,365.3h-1146.7l-55.5,87.9l-231.2-41.6l-78.6-9.2l-194.2,50.9l-212.7-27.7l-69.4-60.1
				c0,0-83.2-50.9-134.1-46.2c-50.9,4.6,0,83.2,0,83.2l-97.1-37v87.9h-263.6c0,0-13.9-194.2-83.2-175.7
				c-69.4,18.5-69.4,92.5-69.4,92.5H-5201c101.7-208.1-212.7-217.3-212.7-217.3c-138.7-27.7-476.3,138.7-476.3,138.7l-360.7,63.9
				c-1,87.4-9.1,174.7-21.5,261.3c-31.9,223.2-101.8,441.4-116.4,666.6h8183.4v-915.1C1656.1,1027.4,1318.6,978.4,1318.6,978.4z"/>
			<path class="st3" d="M-4795.1-616.9c29.8-44.7,34-96.7-3.4-133.9c120.7-41.4,132.3-341.7,75.6-424.1
				c-19,11.7-63.4,12.5-81.6,26.1c-4.9-78.5-11.3-176.4-87.5-218.2c31.5-15.7,55.2-40.8,67.1-72.5c-8-7.4-16.2-14.5-24.5-21.5
				c89.2-91.8-10.5-264.5-131-260.1c17.1-21.1,23.8-127.3,17.3-157.9c-33.7-159-106.5-76.5-192.4-119.7
				c22.3-170.1-102-332.7-265.2-395c-227.8-87-445.3-146.8-691.7-148.8c-40.9-0.3-81.5-4.4-121.9-8.7
				c-104.6,314.9-189.6,636.1-232.3,965.7c-31.5,243.2-30.4,486.8-34.9,731.6c-2.4,130.5-4.4,261.1-2.4,391.7
				c1.9,126.4,4.4,253.4,27.5,378.1c0.3,1.6,0.6,3.2,0.9,4.8c10.3,4.1,21.9,6.8,35.7,6.8c61,0,184.4-44.4,194.1-111.2
				c42.4,28.7,124,89.5,166,49.1c-16.8,14.3,87.1,18,131.5,13.1c34.5-3.8,56.7-11.6,89.7-11.3c98.4,0.8,200.5,22.9,300.7,24.1
				c192.8,2.2,320,95.1,424-141.2c198.7,32.2,229.6-25.3,332.1-178.4C-4748.8-507-4706.4-542.3-4795.1-616.9z"/>
			<path class="st6" d="M-6279.8,1352.9c-7.3,44.1-15.9,87.9-24.9,131.8h837.9v-131.8H-6279.8z"/>
			<path class="st7" d="M-6269.7,1285.9c-0.8,5.9-1.6,11.8-2.5,17.7c-2.2,15.7-4.7,31.4-7.3,47h812.6v-64.7H-6269.7z"/>
			<polygon class="st8" points="-4692.5,1781.8 -6001,1781.8 -6026.3,1824.6 -4675.5,1824.6 			"/>
			<g>
				<polygon class="st8" points="-1548.8,1499.8 -3960.4,1499.8 -4007.1,1542.5 -1517.5,1542.5 				"/>
				<polygon class="st8" points="-4120.8,1646.6 -1441.3,1646.6 -1483.1,1589.5 -4058.5,1589.5 				"/>
				<polygon class="st8" points="-4226.9,1743.7 -1370.2,1743.7 -1411.4,1687.4 -4165.5,1687.4 				"/>
				<polygon class="st8" points="-4379.4,1883.1 -1268.1,1883.1 -1336.4,1789.9 -4277.5,1789.9 				"/>
				<polygon class="st8" points="-1202.6,1972.6 -1231.4,1933.2 -4434.1,1933.2 -4477.1,1972.6 				"/>
			</g>
			<g>
				<path class="st9" d="M-3157.9,492.9c-3.1,0-10.8,0-13.9,0c-9.4,10.7-20.6,19.2-27.8,32.3c-23.2-10-76.4-7.5-82.6,21.4
					c-33,2.8-195.4,34.5-168.4,90.2c-96.3-64.8-61.8,91.5-145.6,101.5c-1.4,20-8.5,35.7-16.2,54.4c-7.2-1.5-16.6,1.6-24.2-0.5
					c-12.4,94.8,4.9,68.8,71,98.9c-25.5,21.4-51.7,56.4-45.2,91.2c5.2,0.1,10.3,0.6,15.5,1.6c-85.1,91.8,85.7,124.9,143.7,134.1
					c-15.4,15.7-8.1,16.6-11.2,34.5c132.3,31.7,277.5-1.5,396.5-20.9c15.5,42.7,64.6,3.9,74.8-24.5c8.8,17.7,24.1,31.2,42.2,22.7
					c-8,42.7,48.3-0.2,64.8-4.9c77.6-22.2,93.8,28.9,101.2-64.3c19.4,0.2,40.2,1,58.6-1.5c1.8-33.6-0.1-60.3,9.7-82.1
					c4.3-9.5,17.7-9.5,23.6-25.8c1.2-3.3-11.7-28.9-13.6-32.5c84.2-37.5,4.4-55.2-33.1-88.8c10.5-30.3,7.7-60.3-30.9-51.3
					c47.7-66.6-57.9-65.6-75.2-88c-9.1-11.7,6.9-31.4-10.4-44.9c-8.8-6.9-43.5-0.7-53.9-0.1c-37.1,2.1-67.7,15-69.2-37.2
					c-10.8,3.9-26.1,1.6-37.3,8.9c2.8-12.8-2.6-28.4-0.7-41.1c-9,3-21.4-0.5-31.2,3.9c6.4-48.5-33.4-78.2-60.5-27.4
					C-3090.4,494-3116.6,497.4-3157.9,492.9z"/>
				<path class="st9" d="M-2872.7,871.6c-10.1-10.7-24.9-13.4-41-8.7c-0.1,16.2,9.5,26.1,25.7,32c-44.6,24.9,8.8,18,17.8,27
					c18.8,19.1,26.5,63,62.1,32.7"/>
				<path class="st9" d="M-3214.5,987.1c-31.4,0-140.1,4.3-96-52.2c32.7,31.9-40,57-68.5,50.4c-3-20.6-6.3-44.8,8.1-59.4
					c-23.7-5.4-61.6-19.4-37.6-45.1"/>
			</g>
			<line class="st10" x1="-6403.2" y1="1350.6" x2="-6403.2" y2="1482.4"/>
			<rect x="-5466.9" y="1352.9" class="st6" width="7264" height="131.8"/>
			<rect x="-5466.9" y="1285.9" class="st11" width="7264" height="64.7"/>
			<line class="st10" x1="-4918.9" y1="1350.6" x2="-4918.9" y2="1482.4"/>
			<line class="st10" x1="-3485.6" y1="1350.6" x2="-3485.6" y2="1482.4"/>
			<line class="st10" x1="-2144.7" y1="1350.6" x2="-2144.7" y2="1482.4"/>
			<line class="st12" x1="-803.8" y1="1350.6" x2="-803.8" y2="1482.4"/>
			<line class="st12" x1="537.1" y1="1350.6" x2="537.1" y2="1482.4"/>
			<line class="st12" x1="1693.1" y1="1350.6" x2="1693.1" y2="1482.4"/>
			<path class="st10" d="M-5698.1,1022.3c-2.9,16.5-16.4,35.5-23.6,54.9c26.7,3.2,53.8-6.2,78.6-1.6c0.4,7.8,0.7,15.5,1.1,23.3
				c6.7,2,11,0.1,18-2.5"/>
			<path class="st10" d="M-3765.6,1189.9c-9.3,14.4-32.4,4.2-42-10c-9.6-14.1-17.3-32.9-34-36.3c-14.5-3-37,3.2-39.1-11.5
				c-0.8-5.6,2.9-10.7,4.4-16.2c5.5-20.3-19.2-34.3-38.3-43.2c-19.1-8.9-38.7-33.6-23.2-47.8c4-3.7,9.7-5.4,13.3-9.4
				c14.7-16.3-16.4-46.6-0.7-61.9c4.9-4.7,12.3-5.3,18.3-8.5c23.5-12.4,9.9-48.1,14.2-74.3c4.9-29.5,41.6-48.8,68.7-36"/>
			<path class="st13" d="M-4017.1,215.5c4.6,0,16.2,0,20.8,0c14.1,16,31,28.8,41.8,48.5c34.8-15,114.7-11.2,124,32.1
				c49.5,4.1,293.5,51.9,252.8,135.5c144.6-97.4,92.8,137.4,218.7,152.4c2.1,30,12.8,53.6,24.3,81.7c10.8-2.3,25,2.4,36.3-0.8
				c18.7,142.3-7.4,103.4-106.6,148.6c38.3,32.1,77.7,84.6,67.8,137c-7.8,0.1-15.5,0.9-23.2,2.4
				c127.8,137.8-128.6,187.5-215.8,201.4c23.2,23.6,12.1,24.9,16.8,51.8c-198.7,47.5-416.6-2.3-595.4-31.4
				c-23.3,64.2-97,5.8-112.3-36.7c-13.2,26.5-36.2,46.9-63.4,34.1c12,64.1-72.6-0.3-97.4-7.4c-116.5-33.3-140.9,43.3-152-96.6
				c-29.2,0.3-60.4,1.5-88-2.3c-2.6-50.5,0.2-90.6-14.6-123.3c-6.4-14.2-26.6-14.2-35.5-38.8c-1.8-4.9,17.6-43.4,20.4-48.8
				c-126.5-56.2-6.6-82.9,49.7-133.4c-15.8-45.5-11.5-90.5,46.4-77c-71.7-100,87-98.4,113-132.1c13.6-17.6-10.3-47.2,15.6-67.4
				c13.3-10.3,65.3-1,81-0.1c55.7,3.1,101.7,22.6,103.9-55.8c16.2,5.9,39.1,2.3,56,13.4c-4.3-19.2,3.9-42.6,1-61.7
				c13.6,4.5,32.1-0.7,46.8,5.9c-9.6-72.8,50.2-117.5,90.8-41.1C-4118.5,217.1-4079.1,222.2-4017.1,215.5z"/>
			<path class="st10" d="M-4072.5,416.6c-32,0-64.4-0.6-96.1,0.9c-2.4,35.9,35.5,44.3,65.3,43.7c-21.5,32.8-57.8,53.1-85.9,79.7
				c24.1,1,49.5,0.9,73.3,1.5c-29.3,36.9-94.1,98.9-25.1,110.1c40.2,6.5,70.8-24.8,94.2-53.2c34.1,29,171.1,88.7,189.3,32.2"/>
			<path class="st10" d="M-3600.9,784.2c-15.2-16.1-37.4-20.1-61.5-13c-0.2,24.4,14.2,39.2,38.6,48.1c-67,37.4,13.3,27,26.7,40.6
				c28.3,28.7,39.9,94.5,93.3,49.2"/>
			<path class="st10" d="M-4114.1,957.6c-47.1,0-210.4,6.4-144.1-78.3c49.1,47.9-60.1,85.5-102.9,75.7c-4.5-30.9-9.5-67.3,12.2-89.2
				c-35.5-8.1-92.4-29.1-56.4-67.7"/>
			<path class="st10" d="M-6035.6-2098.7c-14.7,41.3-39.8,80.2-35.6,128c54.6,4.9,76.3-50.4,83.4-100
				c51.5,47.8,282.4,210.7,268,18.9c60.6,51.5,160.5,124.1,183.6-10"/>
			<path class="st10" d="M-5961.6-1571.6c54.4,67.4,201.7,220.8,291.6,135.6c68.2-64.6-20.5-120.3-41.4-191.3
				c108.9,79.3,253.6,44.6,110.4-92.3"/>
			<path class="st10" d="M-5961.6-693.1c16.1,24.9,69.4,99,110.3,37.3c84.7,96,201.9,87.5,196.8-55
				c95.9,99.4,254.8-34.9,277.7-141.7c15.6-72.6,25.1-64.6-39.9-89.4c-39.7-15.2-117.5,0-156.5,8.4"/>
			<path class="st10" d="M-6466.1-974.2c32.1-47,77.7-80.5,125.3-107.3"/>
			<path class="st10" d="M-6266.8-896.5c-18.6,15.7-42.6,22.1-58.6-0.1c-14.2-19.6-17.9-47.4-17.4-71c-7.9,17.1-23.8,31.4-38.4,42.8
				c-25.4,16.3-58.8,37.6-84.3,12.3"/>
			<path class="st14" d="M-6304.7,1484.7c-33.3,161.2-73.2,321.5-83.8,485.5h8188v-485.5H-6304.7z"/>
			<polygon class="st15" points="532.4,1786.4 -776.1,1786.4 -801.5,1829.2 549.3,1829.2 			"/>
			<polygon class="st15" points="1789.4,1781.8 1443.3,1781.8 1418,1824.6 1789.4,1824.6 			"/>
		</g>
		<path class="st16" d="M-26,387.3"/>
		<g class="st0">
			<g>
				<path class="st17" d="M608.8,1874.6c0,0-29.3-9.5-33-52.5c-1.7-20.3-9.8-52.1-17.8-80c21.3,20.3,41.8,13.5,52.6,7.2
					c-9.2-4.7-20.2-37-20.2-37s7.6-28.6-0.5-54.3c-3.3-10.4-13.7-21.4-24.9-30.7c1.9-2.1,4-13-53.2-62
					c-67.3-57.8-151.5-1.1-151.5-1.1s-156.8-31.2-187,1.9c0,0-104-46.6-150.2,16.2s-85.5,50.5-85.5,50.5s5.9,23.2,21,25
					c0,0-23.7,32.7-12.7,55s-22.9,12.4-22.9,12.4s5.4,39,38.9,16.8l-9.6,9.4c17.4,15.3,34.5,21.1,50.7,20.9l-9.9,6.3
					c0,0-35.3,59.5-32.2,103.9s-39.4,32.3-39.4,32.3s33.3,33.5,49.6,21.5s-2.9,6.7-2.9,6.7s-26.9,10.7-2.3,42
					c18.5,23.5,29.5,25,33.8,24.3c3.1,5.8,7.6,11.3,14.2,15.6c0,0,21.9,9.9,55.9,24.7c26.1,4.7,52.1,2,67.5-19.1l-0.9-1.7
					c-14.6-14.2-15.3-30.8-15.3-30.8l15.3,30.8c11.6,11.3,32,21,67.8,19.6c-19.5-24.5,6.1-60.3,6.1-60.3l-6,60.3c0,0-0.1,0-0.1,0
					c11.7,14.7,39.6,25.3,99.1,21.6c-16.8-21-18.1-50.2-18.1-50.2l20.5,50.1c-0.8,0.1-1.6,0.1-2.4,0.1c9.1,11.5,22.8,20.5,43.4,20.9
					c0,0,10.1-32.8,58.3-18.4c17.9,0.8,70.5-4,163.3-67.2C685.6,1925.3,608.8,1874.6,608.8,1874.6z"/>
			</g>
		</g>
		<g class="st0">
			<path class="st18" d="M558.8,712.2c17.3-60.9,76.8-80.8,147.2-80.8h963.4c70.6,0,130.4,20.2,147.4,81.5l0.2,9.7l7,298.2
				c9.7,6.6,37.6,19.3,40.1,19.3c0,0,71.8,38.6,70.8,127.9v34.8v94.4c0.9,32.2-53.1,110.3-102.2,121H686.1
				c-74.4-9.2-132.3-69.2-132.3-141.2v-74.2V748.5C553.8,736,555.5,723.8,558.8,712.2z"/>
			<path class="st19" d="M558.8,1269.4v-74.2l1370.8,2.5v94.4c0.9,32.2-47.9,107.7-96.9,118.5H688.3
				C609.5,1404.2,558.8,1341.4,558.8,1269.4z"/>
			
				<rect x="558.8" y="1148.3" transform="matrix(-1 -4.489887e-11 4.489887e-11 -1 2488.4924 2344.741)" class="st20" width="1370.8" height="48.1"/>
			<path class="st12" d="M1314.9,1345.7h254.2c8.1,0,14.7-6.6,14.7-14.7V777.5c0-8.1-6.6-14.7-14.7-14.7h-254.2
				c-8.1,0-14.7,6.6-14.7,14.7V1331C1300.2,1339.1,1306.8,1345.7,1314.9,1345.7z"/>
			<path class="st21" d="M1694.2,753.1h10.7h114.3c2.1,9.3,3.3,19,3.3,29v89.5v147.8c0.5,0.5,1.1,0.9,1.6,1.4h-76h-53.9
				c-10.9,0-19.9-10.1-19.9-22.4V854.6v-79C1674.3,763.2,1683.3,753.1,1694.2,753.1z"/>
			<path class="st22" d="M1695.7,757.8h10.2l110.9,107.9V1015c0.5,0.4,2.5,0,2.5,0l-139.9-163.5v-73.1
				C1679.2,767.1,1685.3,757.8,1695.7,757.8z"/>
			<g>
				<circle class="st23" cx="1721.9" cy="1386.5" r="134.3"/>
				<circle class="st22" cx="1721.9" cy="1386.5" r="112.5"/>
				<circle class="st24" cx="1721.9" cy="1386.5" r="103.4"/>
				<circle class="st25" cx="1721.9" cy="1386.5" r="79.9"/>
			</g>
			<g>
				<circle class="st23" cx="784.3" cy="1386.5" r="134.3"/>
				<circle class="st22" cx="784.3" cy="1386.5" r="112.5"/>
				<circle class="st24" cx="784.3" cy="1386.5" r="103.4"/>
				<circle class="st25" cx="784.3" cy="1386.5" r="79.9"/>
			</g>
			<g>
				<path class="st26" d="M612.1,803.7V1053c0,25.1,17.7,45.6,39.3,45.6h573.8c21.6,0,39.3-20.5,39.3-45.6V803.7
					c0-2.7-0.2-5.4-0.6-8c-3.3-21.3-19.4-37.6-38.7-37.6H651.4c-17.5,0-32.5,13.5-37.5,32C612.7,794.4,612.1,798.9,612.1,803.7z"/>
				<g>
					<path class="st27" d="M1157.5,759.1h62.2c22.6,0,41.5,19.1,45.3,44.1c-6.5,29.2-28,50.7-53.5,50.7c-26.9,0-49.3-23.8-54.4-55.5
						c0-0.1,0-0.2,0-0.3C1157.3,797.5,1157.5,760.3,1157.5,759.1z"/>
					<path class="st28" d="M719.5,759.1h-62.2c-22.6,0-41.5,19.1-45.3,44.1c6.5,29.2,28,50.7,53.5,50.7c26.9,0,49.3-23.8,54.4-55.5
						c0-0.1,0-0.2,0-0.3C719.7,797.5,719.5,760.3,719.5,759.1z"/>
					<path class="st28" d="M1094.2,759h8.3h0h8.3h46.6c0,0,0,0,0,0c0,1.2-0.2,38.4-0.3,39c0,0.1,0,0.2,0,0.3
						c-4.4,26.9-21.3,48.2-42.8,53.9c0,0,0,0,0,0c-0.7,0.2-1.4,0.4-2.2,0.5c-0.1,0-0.1,0-0.2,0c-0.7,0.1-1.4,0.3-2.1,0.4
						c-0.1,0-0.3,0-0.4,0.1c-0.6,0.1-1.3,0.2-1.9,0.3c-0.2,0-0.5,0-0.7,0.1c-0.6,0.1-1.1,0.1-1.7,0.1c-0.5,0-1.1,0-1.6,0
						c-0.3,0-0.5,0-0.8,0c0,0,0,0,0,0l0,0c-0.1,0-0.1,0-0.2,0c-0.1,0-0.1,0-0.2,0c0,0,0,0,0,0l0,0c-0.3,0-0.5,0-0.8,0
						c-0.5,0-1.1,0-1.6,0c-0.6,0-1.1-0.1-1.7-0.1c-0.2,0-0.5,0-0.7-0.1c-0.6-0.1-1.3-0.2-1.9-0.3c-0.1,0-0.3,0-0.4-0.1
						c-0.7-0.1-1.4-0.2-2.1-0.4c-0.1,0-0.1,0-0.2,0c-0.7-0.2-1.5-0.3-2.2-0.5c0,0,0,0,0,0c-21.6-5.7-38.6-27.1-42.9-54.2
						c-0.1-0.6-0.3-39.1-0.3-39.1H1094.2z"/>
					<path class="st27" d="M984.8,759h8.3h0h8.3h46.6c0,0,0,0,0,0c0,1.2-0.2,38.4-0.3,39c0,0.1,0,0.2,0,0.3
						c-4.4,26.9-21.3,48.2-42.8,53.9c0,0,0,0,0,0c-0.7,0.2-1.4,0.4-2.2,0.5c-0.1,0-0.1,0-0.2,0c-0.7,0.1-1.4,0.3-2.1,0.4
						c-0.1,0-0.3,0-0.4,0.1c-0.6,0.1-1.3,0.2-1.9,0.3c-0.2,0-0.5,0-0.7,0.1c-0.6,0.1-1.1,0.1-1.7,0.1c-0.5,0-1.1,0-1.6,0
						c-0.3,0-0.5,0-0.8,0l0,0l0,0c-0.1,0-0.1,0-0.2,0c-0.1,0-0.1,0-0.2,0l0,0c0,0,0,0,0,0c-0.3,0-0.5,0-0.8,0c-0.5,0-1.1,0-1.6,0
						c-0.6,0-1.1-0.1-1.7-0.1c-0.2,0-0.5,0-0.7-0.1c-0.6-0.1-1.3-0.2-1.9-0.3c-0.1,0-0.3,0-0.4-0.1c-0.7-0.1-1.4-0.2-2.1-0.4
						c-0.1,0-0.1,0-0.2,0c-0.7-0.2-1.5-0.3-2.2-0.5c0,0,0,0,0,0c-21.6-5.7-38.6-27.1-42.9-54.2c-0.1-0.6-0.3-39.1-0.3-39.1H984.8z"
						/>
					<path class="st28" d="M875.4,759h8.3h0h8.3h46.6c0,0,0,0,0,0c0,1.2-0.2,38.4-0.3,39c0,0.1,0,0.2,0,0.3
						c-4.4,26.9-21.3,48.2-42.8,53.9c0,0,0,0,0,0c-0.7,0.2-1.4,0.4-2.2,0.5c-0.1,0-0.1,0-0.2,0c-0.7,0.1-1.4,0.3-2.1,0.4
						c-0.1,0-0.3,0-0.4,0.1c-0.6,0.1-1.3,0.2-1.9,0.3c-0.2,0-0.5,0-0.7,0.1c-0.6,0.1-1.1,0.1-1.7,0.1c-0.5,0-1.1,0-1.6,0
						c-0.3,0-0.5,0-0.8,0l0,0c0,0,0,0,0,0c-0.1,0-0.1,0-0.2,0c-0.1,0-0.1,0-0.2,0l0,0c0,0,0,0,0,0c-0.3,0-0.5,0-0.8,0
						c-0.5,0-1.1,0-1.6,0c-0.6,0-1.1-0.1-1.7-0.1c-0.2,0-0.5,0-0.7-0.1c-0.6-0.1-1.3-0.2-1.9-0.3c-0.1,0-0.3,0-0.4-0.1
						c-0.7-0.1-1.4-0.2-2.1-0.4c-0.1,0-0.1,0-0.2,0c-0.7-0.2-1.5-0.3-2.2-0.5c0,0,0,0,0,0c-21.6-5.7-38.6-27.1-42.9-54.2
						c-0.1-0.6-0.3-39.1-0.3-39.1H875.4z"/>
					<path class="st27" d="M766,759h8.3h0h8.3h46.6c0,0,0,0,0,0c0,1.2-0.2,38.4-0.3,39c0,0.1,0,0.2,0,0.3
						c-4.4,26.9-21.3,48.2-42.8,53.9c0,0,0,0,0,0c-0.7,0.2-1.4,0.4-2.2,0.5c-0.1,0-0.1,0-0.2,0c-0.7,0.1-1.4,0.3-2.1,0.4
						c-0.1,0-0.3,0-0.4,0.1c-0.6,0.1-1.3,0.2-1.9,0.3c-0.2,0-0.5,0-0.7,0.1c-0.6,0.1-1.1,0.1-1.7,0.1c-0.5,0-1.1,0-1.6,0
						c-0.3,0-0.5,0-0.8,0c0,0,0,0,0,0l0,0c-0.1,0-0.1,0-0.2,0c-0.1,0-0.1,0-0.2,0c0,0,0,0,0,0l0,0c-0.3,0-0.5,0-0.8,0
						c-0.5,0-1.1,0-1.6,0c-0.6,0-1.1-0.1-1.7-0.1c-0.2,0-0.5,0-0.7-0.1c-0.6-0.1-1.3-0.2-1.9-0.3c-0.1,0-0.3,0-0.4-0.1
						c-0.7-0.1-1.4-0.2-2.1-0.4c-0.1,0-0.1,0-0.2,0c-0.7-0.2-1.5-0.3-2.2-0.5c0,0,0,0,0,0c-21.6-5.7-38.6-27.1-42.9-54.2
						c-0.1-0.6-0.3-39.1-0.3-39.1H766z"/>
				</g>
			</g>
			<path class="st21" d="M1375.1,808h50.8h86.7c16.2,0,29.5,12.4,29.5,27.6v79.7v32.9c0,15.2-13.3,27.6-29.5,27.6h-34.8h-102.7
				c-16.2,0-29.5-12.4-29.5-27.6v-90.4v-22.1C1345.6,820.4,1358.9,808,1375.1,808z"/>
			<path class="st22" d="M1351.7,839.1c0-14.2,12.4-25.8,27.6-25.8h47.6l108.9,100.5v30.9c0,14.2-12.4,25.8-27.6,25.8h-32.6
				l-123.9-110.6V839.1z"/>
			<path class="st20" d="M563.9,714.7c17.2-60.9,76.4-80.8,146.4-80.8h958.5c70.2,0,124.6,20.2,141.6,81.5l0.2,9.7H563.9V714.7z"/>
			<g>
				<path class="st29" d="M1556.4,481.5c8.6-79.2-56.9-157.6-11.4-234.1c12.1,12.1,24.3,24.3,36.4,36.4
					c-25.7,14.8-50.9,31.2-77.4,44.5c-13.8,6.9-30.1,10.1-44.2,1.6c-12.4-7.5-18.2-19.8-23.5-32.6c-22.4-55.2-43.7-110.9-65.6-166.4
					c13,5.3-56.5,55.1-106.1,31.3c-29.7-14.3-58.2-50.2-90.5-50c8.6-11.2,17.1-22.5,25.7-33.7c7.9,20.7,15.7,41.4,23.6,62.1
					c6.1,16-9.6,34.3-25.7,33.7c-33.2-1.2-66.4-2.4-99.6-3.5c-15.5-0.5-30.9-1.1-46.4-1.6c-3.9-0.1-9.4,1.9-3.5-3
					c4.9-4,1-3.9,2.3,1.2c0.9,3.6-0.8,9.3-1.6,12.6c-8.9,34.3-46.1,36.1-75.5,35.7c-31.4-0.5-75.1-21.7-66.5-24
					c1.9-2.5-0.1,0.1,0.1,1.6c-0.3-2.8-0.3,5.6-0.3,6.8c0.1,6.7,1,12,1.8,18.1c2.2,15.8,4.2,31.7,0.1,47.4
					c-8.2,31.5-36.1,45.2-64.9,53.1c-11.5,3.2-22,5.1-30.6,11c-7,4.8-10.7,12.9-11.7,20.9c-3.2,25.8,7.8,53.6,19,76.9
					c6.2,12.9,3.5,28.7-9.5,36.4c-11.6,6.8-30.1,3.5-36.4-9.5c-14.8-30.8-28.4-65.7-26.5-100.5c2-36.4,21.3-64.6,55.3-78.2
					c12.8-5.1,26.3-7.9,39.3-12c8.9-2.8,14.1-5,15.4-15.2c1.7-12.1-3.3-29.3-4.3-43.4c-1.4-19.4,3.6-35.6,15.6-50.8
					c5.3-6.8,17.9-9.8,25.9-6.8c26.8,9.8,54.3,15.4,82.8,15.3c6.5,0,16.8-2.7,22.9-1.1c2.7,0.7,6-4.9-0.3,2.7
					c-5.3,6.4-2.5,3.6-3.1-0.5c-2-14.7,8.1-31.9,20.2-39.4c23.2-14.4,57.1-7.3,82.9-6.4c32.4,1.1,64.8,2.3,97.1,3.4
					c-8.6,11.2-17.1,22.5-25.7,33.7c-7.9-20.7-15.7-41.4-23.6-62.1c-6.3-16.6,9.7-33.5,25.7-33.7c40-0.3,67.9,26,99.2,46.7
					c14.9,9.9,29.2,16.6,47.5,15.4c21.7-1.4,42.6-11.3,62.1-20.3c16.8-7.8,32.4-1.1,39.1,15.9c12.1,30.8,24.3,61.6,36.4,92.4
					c5.8,14.6,11.5,29.3,17.3,43.9c3,7.7,6.1,15.4,9.1,23.1c0.8,2.1,2.3,5.2,2.9,7.1c0.6,1,1.1,2.1,1.7,3.1
					c-3.8-2.8-3.8-3.2,0.1-1.1c-4.5-1.2-9-2.4-13.4-3.6c8.6,1.1-1.6,1.8,2.6-0.2c3.6-1.7,7-4,10.4-5.9c7.3-4.2,14.5-8.4,21.8-12.5
					c14.5-8.4,29-16.7,43.5-25.1c22.9-13.2,50.1,13.3,36.4,36.4c-16.8,28.3-7.3,62,0.9,92.7c10,37.2,22,75.6,17.7,114.6
					c-1.6,14.3-11.1,26.6-26.6,26.6C1569.8,508.1,1554.8,495.9,1556.4,481.5L1556.4,481.5z"/>
				<path class="st30" d="M1671.8,441.1c-15.3,20.4-32.4,37.4-53.6,51.9c-13.2,9-34.3,2.9-41.6-10.9c-8.1-15.4-3.2-32,10.9-41.6
					c1.9-1.3,3.8-2.7,5.7-4c3.9-2.6-3,2.7,0.5-0.4c3.5-3.1,7.2-6.1,10.6-9.3c3.1-2.9,6-6,8.9-9.2c1.3-1.4,2.5-2.8,3.7-4.3
					c0.2-0.2,5.8-7.4,2.3-2.8c9.5-12.7,26.7-20.5,41.6-10.9C1673.4,407.6,1682,427.5,1671.8,441.1L1671.8,441.1z"/>
				<path class="st30" d="M1579.9,331.9c-3-2-6-4-9.2-5.7c-0.9-0.5-9.1-4.4-6-3.1c3.1,1.3-5.5-1.8-6.4-2.1c-3.4-1-6.9-1.8-10.3-2.5
					c-15.6-3.1-26-22.6-21.2-37.4c5.4-16.6,20.6-24.5,37.4-21.2c16.5,3.2,32.6,10.1,46.5,19.5c13.1,8.9,20.2,27.1,10.9,41.6
					C1613,334.1,1593.9,341.5,1579.9,331.9L1579.9,331.9z"/>
				<path class="st30" d="M1429.4,203.4c5.2-13.1,4.9-17.3-0.3-29.9c-6.1-14.8,6.6-34.1,21.2-37.4c17.7-4,30.9,5.4,37.4,21.2
					c7.9,19.2,7.9,43,0.3,62.3c-5.8,14.7-20.6,26.7-37.4,21.2C1436.3,236.2,1423.1,219.3,1429.4,203.4L1429.4,203.4z"/>
				<path class="st30" d="M1357.4,169.5c-1.8-0.9-7.4-3.1-2.5-1.3c-2.9-1.1-5.8-2-8.8-2.8c-0.9-0.2-9-2-5-1.3
					c2.3,0.2,1.9,0.2-1.2-0.1c-1.8-0.1-3.5-0.2-5.3-0.3c-15.9-0.6-31.2-13.6-30.4-30.4c0.7-16,13.4-31,30.4-30.4
					c19,0.7,36.5,5.5,53.5,14.1c14.2,7.2,19.4,28.4,10.9,41.6C1389.6,173.1,1372.6,177.2,1357.4,169.5L1357.4,169.5z"/>
				<path class="st30" d="M1274.2,93.4c-14.1,4.7-28.3,9.5-42.4,14.2c-15.1,5.1-33.9-5.8-37.4-21.2c-3.8-16.8,5.1-32,21.2-37.4
					c14.1-4.7,28.3-9.5,42.4-14.2c15.1-5.1,33.9,5.8,37.4,21.2C1299.3,72.8,1290.4,88,1274.2,93.4L1274.2,93.4z"/>
				<path class="st30" d="M1108.8,145.9c-10.5-8.9-23.5-14.8-38-18.3c-16-3.8-25.5-22-21.2-37.4c4.5-16.4,21.4-25,37.4-21.2
					c24.4,5.8,45.8,17.8,64.8,33.9c12.6,10.6,10.9,32.1,0,43C1139.3,158.3,1121.4,156.5,1108.8,145.9L1108.8,145.9z"/>
				<path class="st30" d="M916.4,211.2c-0.7-27.8,5.7-54,17.4-79.1c6.9-14.9,28.4-18.6,41.6-10.9c15.3,8.9,17.9,26.7,10.9,41.6
					c-7.1,15.3-9.5,31.7-9,48.4C978.2,250.4,917.4,250.4,916.4,211.2L916.4,211.2z"/>
				<path class="st30" d="M844.1,357.1c-31.5,5.6-61.5,17.8-86.6,38c-12.8,10.3-30.5,12.5-43,0c-10.6-10.6-12.9-32.7,0-43
					c33.3-26.7,71.2-46,113.5-53.6c16.1-2.9,32.8,4.4,37.4,21.2C869.4,334.4,860.3,354.1,844.1,357.1L844.1,357.1z"/>
				<path class="st30" d="M712.4,489.5c1,9.1-0.2-0.1-0.7-2.1c-0.3-1.2-1-5.4-1.9-5.9c1.7,3.8,2,4.6,1,2.6c-0.4-0.9-0.9-1.8-1.4-2.7
					c-0.9-1.7-6.4-9-1-2.2c-5.2-6.5-8.9-12.8-8.9-21.5c0-7.5,3.3-16.4,8.9-21.5c11-10.1,32.4-13.3,43,0
					c12.9,16.2,19.7,32.9,21.9,53.4c1.7,15.9-15.2,31.1-30.4,30.4C724.9,519.2,714.2,506.6,712.4,489.5L712.4,489.5z"/>
				<path class="st31" d="M1585.9,529.6c-15.6-25.1-16.1-54.3-13.1-82.8c1.2-11.5,2.7-22.9,2.3-34.5c-0.1-2.8-0.2-5.7-0.6-8.5
					c0.3,1.9,1.4,5.1-0.4-0.8c-0.6-2-1.2-4.3-1.7-6.3c-1.4-3.8-1.4-4,0-0.7c-0.5-0.9-0.9-1.8-1.4-2.7c-0.5-0.9-1-1.7-1.5-2.6
					c2.2,2.5,2.5,2.9,0.9,1.1c-2.4-4-5.1-1.4-0.9-1.1c-0.1,0-6.5-1.5-0.7-0.2c5,1.2-2.3-0.3-3.7-0.3c-13.4-0.5-26.8,0-39.6-4.7
					c-31-11.3-42.1-41.1-41.6-71.8c0.1-5.9,0.5-11.7,0.5-17.6c0-2.3-0.1-4.7-0.1-7c0-11,0.2,3.6-0.2-2.7c-0.1-1.8-2.9-8.2-0.1-2.1
					c-0.8-1.8-1.9-3.4-2.9-5.1c3.4,5.6,1.5,1.1,0,0.3c-6.9-3.3,4.4,1.7-1.9-1.7c-2.1-1.1-4.2-2.4-6.3-3.5c-4.7-2.3,7.3,1.7-1.5-0.4
					c-4.5-1.1-9-2.4-13.6-3.3c-1.7-0.3-8.6-1-2-0.3c-2.1-0.2-4.3-0.4-6.4-0.5c-5.3-0.4-10.7-0.5-16-0.5c-44.2,0-97.2-5.1-122.1-48
					c-6.5-11.2-10-24.7-9.9-37.6c0-5.4,1.1-10.7,1.6-16.1c-0.1,0.6,0.3-7.1,0.3-7.1c0.9,9.3,6.6,14.9,17,17c-1.2,0-2.4-0.1-3.7-0.1
					c-14.4,3.3-31.7,1.5-46.5,2.3c-16,0.8-31.9,1.6-47.9,2.4c-63.9,3.2-127.8,6.4-191.7,9.5c-7,0.4-14.1,0.7-21.1,1.2
					c7.1-0.5-5.5,1.1-7.8,1.7c-2.5,0.7-5,1.4-7.5,2.2c1.4-0.5,5.3-3.1-0.2,0.1c-1.7,1-3.4,1.9-5.1,3c3.1-2.6,3.2-2.6,0.4,0
					c0.6-0.9,1.3-1.8,1.9-2.7c-0.5,0.8-1,1.5-1.4,2.3c1.3-3.6,1.6-4.2,0.9-1.7c-0.3,3.5-2.5-6.9,0.4,2.1c-1.1-3.5,0.8,2.5,0.8,2.7
					c1.2,4.9,1.7,9.9,2.2,14.9c1.7,18.6-5.9,37.3-21.8,47.7c-24.5,16-58.3,8.7-85.9,9.2c-13.3,0.2-24.7,1.2-37.4,5.5
					c-6.8,2.3,5.3-3.6-3.9,1.6c-2.2,1.2-4.3,2.4-6.4,3.7c-3.1,2-6,4.4-10.1,9.1c-6.3,7.1-9,12.9-8.6,22.1c-0.2-5.1,3.8,11.5,1.9,7
					c2.8,6.8,6.8,13.2,10.2,19.6c14.6,27.1,25.2,58.5,5.5,86.3c-9.5,13.5-22.5,20.3-36.8,27.4c-11.1,5.4-16.6,9.9-21.4,19.2
					c2-3.9-1,2.9-1.3,4c-0.5,2.4-0.6,2.4-0.4,0.1c-0.2,1.9-0.2,3.8-0.1,5.7c0,0.6,0.1,1.3,0.1,1.9c-0.4-3.8-0.1-3.7,0.8,0.2
					c-0.3-0.8-0.5-1.6-0.8-2.4c2.2,3.3,2.2,3.6,0.2,0.8c0.1,0.5,5.3,5,0,0.9c1.6,1.2,3.4,2.2,5.2,3.1c-0.9-0.4-1.8-0.8-2.7-1.2
					c0.9,0.2,1.9,0.5,2.8,0.7c-1.8-0.7-3.5-0.8-5.2-0.2c-2.7,0.6-2.4,0.4,0.9-0.4c-3.8,1.5-4,1.2-0.6-0.9
					c14.9-11,38.2-2.5,46.8,12.3c10.2,17.4,2.6,35.8-12.3,46.8c-25.9,19.1-62.6,9.3-83.3-12.7c-24.1-25.6-25.5-63.1-9.1-93.3
					c7.7-14.2,18.9-25.7,31.8-35.1c5-3.7,10.1-6.7,15.7-9.4c2.1-1,4.2-1.9,6.3-2.9c1.5-0.7,11.3-7.1,7.5-3.7c-1.4,1.3-1,4.6,0.7-1.2
					c-0.5,0.8-0.9,1.6-1.4,2.3c-0.5,4.2-0.7,4.2-0.6,0.1c-1.3,0.1,3,8.4-0.6-0.1c-4.2-9.6,1.8,3.2-0.9-2.8
					c-5.3-11.6-12.3-22.4-17.4-34.1c-13.6-30.9-12.5-64.4,6.6-93c18-26.9,46.2-45.6,78.1-51.7c16.3-3.1,32.9-4.2,49.4-4.1
					c7.6,0,15.2,0.3,22.7,0.5c3,0.1,6.1,0.1,9.1,0.1c3,0,6,0,9,0c4.1-0.3,4.4-0.2,0.9,0.3c-0.3,0.2-0.7,0.4-1,0.6
					c-5.6,3-8.9,8.2-10.1,15.7c0,0-0.8-5.6-0.9-6.2c-1.8-7.7-2.9-16-2.5-23.9c0.9-15.4,7.2-30.4,18.2-41.4
					c19.7-19.6,47.8-25.8,74.5-27.5c35.3-2.3,70.6-3.5,105.9-5.3c35.3-1.8,70.6-3.5,105.9-5.3c16.8-0.8,33.6-1.7,50.4-2.5
					c16.6-0.8,34.2-3.4,50.7-0.8c20,3.2,36,16.6,41.4,36.4c1.8,6.9,2.2,14.1,1.6,21.2c-0.3,3.7-1,7.3-1.3,11
					c-0.1,1.2,0.4,11.5-0.9,3.5c0.3,2,3.6,9.3,0,2.4c0.8,1.6,1.8,3.1,2.7,4.7c-4.4-7.2,8.3,5.3,1.6,1.2c2.5,1.5,5.1,2.9,7.6,4.4
					c1.2,0.7,5.9,2.3,0.2,0.2c6,2.2,12,3.5,18.1,5.1c9.6,2.5-4-0.2,1.8,0.4c2.6,0.3,5.2,0.5,7.8,0.6c5.1,0.3,10.1,0.1,15.1,0
					c11.7-0.3,23.4-0.1,35,1.3c26.2,3.1,52.5,10.3,71.4,30c23,23.9,23.7,57.1,21.9,88.3c-0.1,1.3,0.7,6.8-0.3,0.6c0.3,2,0.8,4,1.5,6
					c-0.2-1.5-0.9-2.8-2-3.7c-1.4-0.9-3.1-1.7-4.5-2.5c4.1,0.9,4.5,1.1,1.4,0.6c1.2,0.1,2.4,0.1,3.7,0.2c17.9-0.2,36.1,1.1,52,10.1
					c28.7,16.2,38.7,51.6,39.6,82.3c0.4,15.1-2.4,30.1-3.5,45.2c-1.2,16.3-1.5,25.6,4.9,35.9c9.8,15.7,3.4,37.7-12.3,46.8
					C1616.4,551.4,1595.7,545.3,1585.9,529.6L1585.9,529.6z"/>
				<path class="st32" d="M1543.1,627.6H823.2c-51.3,0-93.3-42-93.3-93.3v-6.4c26.1-226.4,218.4-402.2,451.8-402.2
					c240.5,0,437.4,186.7,453.7,423C1628.3,593.2,1589.5,627.6,1543.1,627.6z"/>
			</g>
			<g>
				<path class="st33" d="M766.3,390.1c41.9,97.8,107.4,172.8,208,213c59.5,23.7,121.2,27.1,183.9,15.8
					c55-9.9,106.7-28.3,152.4-61.3c16.9-12.2,31.8-26.4,42.1-44.8c9.9-17.6,9.8-35.6,0-47.5c-11-13.4-29-17.9-48.5-11.7
					c-13.7,4.3-26.3,11.3-40.3,14.9c-50.3,13.1-99.2,7.6-147.9-8.6c-95.6-31.8-158.1-98.1-198.3-188.1c-11.7,3.2-23.6,6.1-35.1,9.9
					c-9.1,3-18,6-21.1,17.4c-8,29.8-14.8,34.8-45.1,33.3c-10-0.5-15.1,2.4-18.2,12.5C792.7,363.3,784,380.1,766.3,390.1z"/>
				<path class="st34" d="M882.7,281.8c11.5-3.8,23.4-6.6,35.1-9.9c16.8-10.8,18.4-20.2,3.7-33.8c-18-16.8-40.6-21.2-64.5-20.6
					c-17.6,0.5-34.4,4.5-49.5,13.4c-9.7,5.7-12.2,2.1-13.1-7.4c-1.8-19.3,4.6-36.5,12.9-53.3c2.7-5.4,8.5-11.4,4.4-17.4
					c-4.8-7-13.2-4-20-2.9c-25.1,4.2-38,20.8-36.7,46.4c0.9,17.5,5,34.2,11.9,50.2c2.7,6.3,2.3,10.2-3,15.3
					c-32.9,32.2-40.2,76.4-19.7,117.2c4.4,8.8,10.5,15.7,22.1,11.1c17.7-10,26.4-26.8,32-45c3.1-10.1,8.2-13,18.2-12.5
					c30.3,1.4,37.1-3.5,45.1-33.3C864.8,287.8,873.7,284.8,882.7,281.8"/>
			</g>
		</g>
		<path class="st35" d="M390.1,959.6c12.2-3.3,18.8-9.3,24.5-19.8c40.6-74,142.2-86,198.9-23.4c6.6,7.3,11.3,9.4,21.4,7.3
			c37.3-7.7,69.1,12.8,79.7,48.6c1.9,6.3,6,13,11.1,17c27.4,21.5,41.3,49.3,41.1,84c-0.5,66.9-61.8,114.6-126.6,96.9
			c-15.6-4.3-24.6-3.6-37.1,8.6c-42.4,41.4-116.5,38.2-155.2-5.9c-9.2-10.4-17.4-14.8-31.4-14.9c-52.4-0.2-93.1-37.5-99.7-89.6
			C310.9,1019.6,341.5,972.8,390.1,959.6z"/>
		<path class="st35" d="M642,1185.9c19-0.5,35,13.1,35.3,30c0.3,17.5-14.1,30.6-34,30.6c-20.6,0.1-33.9-11.9-33.8-30.5
			C609.5,1198.8,623,1186.3,642,1185.9z"/>
		<path class="st35" d="M690.2,1260.7c13.3,0.7,21.2,6.9,20.9,21c-0.4,14.2-9.1,19.9-22.1,19.8c-13.6-0.1-22.7-6.1-23.5-23.6
			C667.6,1266,676.2,1260,690.2,1260.7z"/>
		<g class="st0">
			<path class="st36" d="M641.4,1066.9c-19.9,33.7-46.8,61-76.6,85.8c-8.3,6.9-17.1,13.2-25.5,19.9c-2.5,2-4.3,2.5-7.1,0.4
				c-39.2-28.8-74.8-61-100.4-103c-9.7-16-17.1-32.7-16.9-52.1c0.4-35.1,25.7-65.1,60.1-70.7c2.5-0.4,5-0.3,8.1-0.5
				c19,0.8,34.5,9.7,47.4,23.8c5,5.4,4.8,5.3,9.9-0.2c12.3-13.2,27-22.5,45.4-23.3c28-1.2,53.6,16.4,64.1,42.6
				C661.1,1017,655.9,1042.3,641.4,1066.9z"/>
			<g>
				<path class="st37" d="M597.4,1056.9c-0.5-12.5-12.5-23.1-7.3-36c2.2,1.6,4.3,3.2,6.5,4.8c-3.6,2.9-7.2,6-10.9,8.7
					c-2,1.4-4.4,2.3-6.8,1.3c-2.1-0.9-3.3-2.6-4.4-4.5c-4.8-8-9.4-16.2-14.1-24.2c2.1,0.5-7.4,9.9-15.7,7.4
					c-4.9-1.5-10.2-6.4-15.2-5.6c1.1-1.9,2.1-3.9,3.2-5.8c1.7,3,3.4,6,5.1,9.1c1.3,2.3-0.7,5.5-3.2,5.8c-5.2,0.6-10.3,1.2-15.5,1.8
					c-2.4,0.3-4.8,0.6-7.2,0.8c-0.6,0.1-1.4,0.5-0.6-0.4c0.7-0.7,0.1-0.6,0.4,0.1c0.2,0.5,0.1,1.5,0,2c-0.6,5.5-6.3,6.7-10.9,7.3
					c-4.9,0.7-12.2-1.6-10.9-2.2c0.2-0.4,0,0,0,0.2c-0.1-0.4,0.1,0.9,0.1,1.1c0.2,1,0.4,1.8,0.7,2.8c0.7,2.4,1.4,4.8,1.1,7.3
					c-0.5,5.1-4.5,7.9-8.8,9.8c-1.7,0.8-3.3,1.3-4.5,2.4c-1,0.9-1.4,2.2-1.3,3.5c0.1,4.1,2.5,8.1,4.8,11.5c1.3,1.9,1.2,4.4-0.6,5.9
					c-1.6,1.3-4.6,1.2-5.9-0.6c-3-4.4-6-9.5-6.5-14.9c-0.6-5.7,1.8-10.5,6.7-13.4c1.9-1.1,3.9-1.8,5.8-2.8c1.3-0.6,2.1-1.1,2-2.7
					c0-1.9-1.2-4.5-1.7-6.6c-0.7-3-0.3-5.6,1.2-8.2c0.7-1.2,2.6-1.9,3.8-1.7c4.4,0.9,8.8,1.1,13.2,0.4c1-0.2,2.5-0.8,3.5-0.7
					c0.4,0,0.8-0.9,0,0.4c-0.7,1.1-0.3,0.6-0.5,0c-0.7-2.2,0.5-5.1,2.2-6.6c3.2-2.8,8.7-2.5,12.7-3c5-0.6,10.1-1.2,15.1-1.8
					c-1.1,1.9-2.1,3.9-3.2,5.8c-1.7-3-3.4-6-5.1-9.1c-1.4-2.4,0.7-5.4,3.2-5.8c6.2-1,11.1,2.4,16.5,4.9c2.5,1.2,4.9,1.9,7.7,1.3
					c3.3-0.7,6.3-2.8,9.1-4.6c2.4-1.6,5-0.9,6.4,1.5c2.6,4.5,5.2,9,7.8,13.5c1.2,2.1,2.5,4.3,3.7,6.4c0.7,1.1,1.3,2.2,2,3.4
					c0.2,0.3,0.5,0.7,0.6,1c0.1,0.1,0.2,0.3,0.3,0.4c-0.7-0.3-0.7-0.4,0-0.2c-0.7-0.1-1.4-0.2-2.2-0.2c1.4,0-0.2,0.3,0.4-0.1
					c0.5-0.3,1-0.8,1.5-1.2c1-0.8,2.1-1.6,3.1-2.5c2.1-1.6,4.1-3.3,6.2-4.9c3.2-2.6,8.1,0.9,6.5,4.8c-1.9,4.8,0.3,9.8,2.3,14.3
					c2.4,5.5,5.2,11.2,5.5,17.3c0.1,2.3-1.1,4.4-3.5,4.8C600.1,1060.7,597.5,1059.2,597.4,1056.9L597.4,1056.9z"/>
				<path class="st38" d="M614.4,1047.9c-1.9,3.5-4.1,6.6-7.1,9.3c-1.8,1.7-5.2,1.3-6.7-0.7c-1.6-2.2-1.2-4.9,0.7-6.7
					c0.3-0.2,0.5-0.5,0.8-0.8c0.5-0.5-0.4,0.5,0.1-0.1c0.5-0.6,1-1.1,1.4-1.7c0.4-0.5,0.8-1.1,1.2-1.6c0.2-0.2,0.3-0.5,0.5-0.8
					c0,0,0.7-1.3,0.3-0.5c1.2-2.2,3.7-3.8,6.2-2.7C613.8,1042.7,615.6,1045.5,614.4,1047.9L614.4,1047.9z"/>
				<path class="st38" d="M597.5,1033.2c-0.5-0.2-1-0.5-1.6-0.7c-0.1-0.1-1.5-0.5-1-0.3c0.5,0.1-0.9-0.2-1-0.2
					c-0.6-0.1-1.1-0.1-1.7-0.1c-2.5-0.1-4.6-2.9-4.2-5.3c0.4-2.7,2.6-4.3,5.3-4.2c2.6,0.1,5.3,0.8,7.7,1.9c2.2,1.1,3.8,3.7,2.7,6.2
					C602.7,1032.7,599.9,1034.3,597.5,1033.2L597.5,1033.2z"/>
				<path class="st38" d="M571.2,1016.8c0.5-2.2,0.4-2.8-0.8-4.6c-1.3-2.1,0.2-5.4,2.4-6.3c2.6-1,4.9,0.1,6.3,2.4
					c1.7,2.8,2.2,6.5,1.5,9.6c-0.6,2.4-2.6,4.6-5.3,4.2C573,1021.7,570.6,1019.4,571.2,1016.8L571.2,1016.8z"/>
				<path class="st38" d="M559.2,1013.2c-0.3-0.1-1.2-0.3-0.4-0.1c-0.5-0.1-1-0.2-1.4-0.2c-0.1,0-1.4-0.1-0.8-0.1c0.4,0,0.3,0-0.2,0
					c-0.3,0-0.5,0-0.8,0.1c-2.5,0.3-5.1-1.4-5.4-4c-0.3-2.5,1.3-5.1,4-5.4c3-0.3,5.8,0,8.6,0.9c2.4,0.8,3.7,3.9,2.7,6.2
					C564.3,1013,561.8,1014.1,559.2,1013.2L559.2,1013.2z"/>
				<path class="st38" d="M544.5,1003.4c-2.1,1.1-4.2,2.1-6.2,3.2c-2.2,1.1-5.4-0.1-6.3-2.4c-1-2.5,0-5.1,2.4-6.3
					c2.1-1.1,4.2-2.1,6.2-3.2c2.2-1.1,5.4,0.1,6.3,2.4C547.9,999.6,546.9,1002.2,544.5,1003.4L544.5,1003.4z"/>
				<path class="st38" d="M520.1,1015.5c-1.8-1.1-4-1.7-6.3-1.9c-2.6-0.2-4.5-2.8-4.2-5.3c0.3-2.6,2.7-4.4,5.3-4.2
					c3.9,0.3,7.5,1.7,10.9,3.7c2.2,1.3,2.5,4.7,1,6.7C525.2,1016.7,522.3,1016.8,520.1,1015.5L520.1,1015.5z"/>
				<path class="st38" d="M491.9,1030.1c-0.8-4.3-0.4-8.5,0.8-12.7c0.7-2.5,4-3.6,6.2-2.7c2.6,1,3.4,3.7,2.7,6.2
					c-0.7,2.5-0.7,5.1-0.3,7.7C502.4,1034.7,492.9,1036.2,491.9,1030.1L491.9,1030.1z"/>
				<path class="st38" d="M484.1,1054.4c-4.8,1.6-9.1,4.2-12.5,7.9c-1.7,1.9-4.4,2.7-6.7,1c-1.9-1.4-2.8-4.8-1-6.7
					c4.5-4.9,9.9-8.8,16.3-11c2.4-0.8,5.2-0.1,6.3,2.4C487.5,1050.3,486.6,1053.6,484.1,1054.4L484.1,1054.4z"/>
				<path class="st38" d="M466.8,1078.1c0.4,1.4,0,0-0.2-0.3c-0.1-0.2-0.3-0.8-0.4-0.9c0.3,0.5,0.4,0.7,0.2,0.4
					c-0.1-0.1-0.2-0.3-0.3-0.4c-0.2-0.2-1.2-1.3-0.2-0.3c-1-0.9-1.7-1.8-1.9-3.1c-0.2-1.2,0.1-2.6,0.9-3.5c1.5-1.8,4.7-2.8,6.7-1
					c2.4,2.2,3.8,4.6,4.7,7.8c0.6,2.4-1.6,5.2-4,5.4C469.5,1082.4,467.5,1080.7,466.8,1078.1L466.8,1078.1z"/>
				<path class="st39" d="M603.2,1063.6c-3-3.5-3.8-8-4-12.5c-0.1-1.8-0.1-3.6-0.5-5.4c-0.1-0.4-0.2-0.9-0.3-1.3
					c0.1,0.3,0.3,0.8-0.1-0.1c-0.1-0.3-0.3-0.6-0.4-0.9c-0.3-0.6-0.3-0.6,0-0.1c-0.1-0.1-0.2-0.3-0.3-0.4c-0.1-0.1-0.2-0.2-0.3-0.4
					c0.4,0.3,0.5,0.4,0.2,0.1c-0.5-0.6-0.8-0.1-0.2-0.1c0,0-1-0.1-0.1,0c0.8,0.1-0.4,0-0.6,0c-2.1,0.2-4.2,0.6-6.2,0.2
					c-5.1-1-7.5-5.4-8.1-10.1c-0.1-0.9-0.2-1.8-0.3-2.7c-0.1-0.4-0.1-0.7-0.2-1.1c-0.3-1.7,0.1,0.6-0.1-0.4
					c-0.1-0.3-0.6-1.2-0.1-0.3c-0.2-0.3-0.4-0.5-0.6-0.7c0.7,0.8,0.3,0.1,0,0.1c-1.1-0.3,0.7,0.2-0.3-0.2c-0.4-0.1-0.7-0.3-1.1-0.4
					c-0.8-0.2,1.2,0.1-0.2,0c-0.7-0.1-1.4-0.2-2.2-0.2c-0.3,0-1.3,0.1-0.3,0c-0.3,0-0.7,0-1,0.1c-0.8,0.1-1.7,0.2-2.5,0.3
					c-6.9,1.1-15.2,1.5-20.1-4.5c-1.3-1.6-2.1-3.6-2.4-5.6c-0.1-0.8-0.1-1.7-0.1-2.5c0,0.1-0.1-1.1-0.1-1.1c0.4,1.4,1.4,2.2,3,2.2
					c-0.2,0-0.4,0-0.6,0.1c-2.1,0.8-4.9,1-7.2,1.4c-2.5,0.5-4.9,1-7.4,1.5c-9.8,2-19.7,4-29.5,6c-1.1,0.2-2.2,0.4-3.2,0.7
					c1.1-0.3-0.8,0.3-1.2,0.4c-0.4,0.2-0.7,0.3-1.1,0.5c0.2-0.1,0.7-0.6,0,0c-0.2,0.2-0.5,0.4-0.7,0.6c0.4-0.5,0.4-0.5,0.1,0
					c0.1-0.2,0.2-0.3,0.2-0.5c-0.1,0.1-0.1,0.3-0.2,0.4c0.1-0.6,0.2-0.7,0.1-0.3c0,0.6-0.5-1,0.1,0.3c-0.3-0.5,0.2,0.4,0.2,0.4
					c0.3,0.7,0.5,1.5,0.7,2.3c0.7,2.8,0,5.9-2.3,7.9c-3.4,3.1-8.8,2.7-13.1,3.5c-2.1,0.4-3.8,0.8-5.7,1.7c-1,0.5,0.7-0.7-0.6,0.3
					c-0.3,0.2-0.6,0.5-0.9,0.7c-0.4,0.4-0.8,0.8-1.4,1.6c-0.8,1.2-1.1,2.2-0.8,3.6c-0.2-0.8,0.9,1.7,0.5,1c0.6,1,1.4,1.9,2,2.8
					c2.9,3.9,5.3,8.5,2.9,13.2c-1.2,2.3-3,3.7-5.1,5.1c-1.6,1.1-2.3,1.9-2.9,3.5c0.2-0.6-0.1,0.5-0.1,0.7c0,0.4,0,0.4-0.1,0
					c0,0.3,0.1,0.6,0.1,0.9c0,0.1,0,0.2,0.1,0.3c-0.2-0.6-0.1-0.6,0.1,0c-0.1-0.1-0.1-0.2-0.2-0.4c0.4,0.5,0.4,0.5,0,0.1
					c0,0.1,0.9,0.7,0,0.1c0.3,0.1,0.6,0.3,0.9,0.4c-0.1,0-0.3-0.1-0.4-0.1c0.2,0,0.3,0,0.5,0c-0.3-0.1-0.6,0-0.8,0.1
					c-0.4,0.2-0.4,0.1,0.1-0.1c-0.6,0.3-0.6,0.3-0.1-0.1c2-2.1,5.9-1.3,7.5,0.8c2,2.5,1.3,5.5-0.8,7.5c-3.6,3.6-9.5,2.9-13.2,0
					c-4.3-3.4-5.4-9.2-3.6-14.2c0.9-2.4,2.3-4.4,4.1-6.2c0.7-0.7,1.4-1.3,2.2-1.8c0.3-0.2,0.6-0.4,0.9-0.6c0.2-0.1,1.6-1.4,1.1-0.7
					c-0.2,0.2,0,0.7,0.1-0.2c-0.1,0.1-0.1,0.3-0.2,0.4c0,0.7,0,0.7-0.1,0c-0.2,0,0.7,1.2-0.1,0c-0.9-1.4,0.4,0.4-0.2-0.4
					c-1.1-1.7-2.4-3.2-3.5-4.9c-2.8-4.5-3.5-9.7-1.2-14.6c2.2-4.6,6.1-8.2,10.9-9.9c2.5-0.9,5-1.4,7.6-1.8c1.2-0.2,2.4-0.3,3.5-0.5
					c0.5-0.1,0.9-0.1,1.4-0.2c0.5-0.1,0.9-0.1,1.4-0.2c0.6-0.1,0.7-0.1,0.1,0c0,0-0.1,0.1-0.1,0.1c-0.8,0.6-1.2,1.5-1.2,2.7
					c0,0-0.3-0.8-0.3-0.9c-0.5-1.1-0.8-2.4-0.9-3.6c-0.2-2.4,0.4-4.9,1.8-6.8c2.6-3.5,6.8-5.1,10.9-6c5.4-1.2,10.9-2.2,16.3-3.3
					c5.4-1.1,10.9-2.2,16.3-3.3c2.6-0.5,5.2-1.1,7.8-1.6c2.6-0.5,5.2-1.3,7.8-1.3c3.2,0,6,1.7,7.3,4.7c0.4,1,0.7,2.1,0.7,3.2
					c0,0.6,0,1.2,0.1,1.7c0,0.2,0.3,1.8-0.1,0.6c0.1,0.3,0.8,1.4,0.1,0.4c0.2,0.2,0.3,0.4,0.5,0.7c-0.8-1,1.4,0.6,0.3,0.1
					c0.4,0.2,0.9,0.3,1.3,0.5c0.2,0.1,1,0.2,0,0c1,0.2,1.9,0.3,2.9,0.4c1.5,0.2-0.6,0.1,0.3,0c0.4,0,0.8,0,1.2-0.1
					c0.8-0.1,1.6-0.2,2.3-0.4c1.8-0.3,3.6-0.6,5.5-0.6c4.1-0.1,8.4,0.4,11.8,3c4.1,3.2,5,8.3,5.5,13.2c0,0.2,0.3,1,0,0.1
					c0.1,0.3,0.2,0.6,0.4,0.9c-0.1-0.2-0.2-0.4-0.4-0.5c-0.2-0.1-0.5-0.2-0.8-0.3c0.7,0,0.7,0.1,0.2,0.1c0.2,0,0.4,0,0.6-0.1
					c2.8-0.5,5.6-0.7,8.3,0.3c4.8,1.8,7.2,7.1,8.1,11.8c0.4,2.3,0.3,4.7,0.5,7.1c0.2,2.6,0.4,4,1.6,5.4c1.9,2.2,1.4,5.8-0.8,7.5
					C608.4,1066.3,605,1065.8,603.2,1063.6L603.2,1063.6z"/>
				<path class="st40" d="M598.8,1079.8l-111.6,17c-8,1.2-15.5-4.3-16.7-12.3l-0.2-1c-1.3-35.7,24.3-67.5,60.5-73
					c37.3-5.7,72.2,18.6,80.3,54.8C611.2,1072.5,606,1078.7,598.8,1079.8z"/>
			</g>
		</g>
		<g class="st0">
			<g>
				<g>
					<path class="st41" d="M822.9,1486.8c-11.5-3.2,18-6,43.3-23.4c35.3-24.2,58.4-3.8,58.4-3.8s16.5,52.2-3.5,60.7"/>
					<path class="st41" d="M823.8,1485.9c-7.1,21.1,69.8,35.7,69.8,35.7s9.2-1.3,24-4.4"/>
				</g>
				<path class="st41" d="M848.4,1543c4.1-8,25.5-6.1,34.7-14.7c-18.1-39.6-22.4-117.7-22.4-117.7l173.6-83l152.2,51.9
					c0,0,26.5,16.6,48.3,37.6l-0.3-0.7l0.5,0.8c1,0.9,1.2,2,1.2,2l52.3,71.8c0,0,10.4,12.3,2.6,15l0.5,0c0,0,14.2,30.9-80.9,15
					c-2-0.3,8.4,8.7-3.8,3.9c-12.2,9.8-142.9,90.4-257.3,37.2l-77.5,5.9c0,0-24.6-4.1-18.7-12.9
					C853.4,1555.3,842.4,1554.8,848.4,1543z"/>
				<path class="st42" d="M974.3,1478.7c12.3-1.5,24-3.9,35.1-7.2c27.8-8.1,52.1-21.6,72.1-40.1c34.3-31.6,44.3-66.7,44.7-68.2
					l-22-6.1c-0.1,0.3-9.1,31.2-39.1,58.3c-40,36.2-96.9,49.4-169.2,39c-4.8-1.7-34-12.6-30.8-31l-22.5-3.8
					c-2.9,17,5.1,32.9,22.6,44.9c11.8,8.1,24.3,11.9,24.8,12.1l0.8,0.2l0.8,0.1C921.4,1481.3,949,1481.8,974.3,1478.7z"/>
				<g>
					
						<ellipse transform="matrix(0.9925 -0.1226 0.1226 0.9925 -173.8577 121.8983)" class="st43" cx="903.4" cy="1473.4" rx="26.8" ry="26.8"/>
					
						<ellipse transform="matrix(0.9925 -0.1226 0.1226 0.9925 -174.0588 120.82)" class="st44" cx="894.5" cy="1474.5" rx="26.8" ry="26.8"/>
				</g>
				<path class="st41" d="M851.7,1245.3c0,0-63.8,71.9-80.9,109.6c-29.4,64.7-4.3,143.9,87.2,183.7c104.1,45.3,207.2-19,207.2-19
					s131.8-43.8,37.1-199C1102.2,1320.7,1036.4,1163.8,851.7,1245.3z"/>
				
					<ellipse transform="matrix(0.9987 -5.026029e-02 5.026029e-02 0.9987 -74.6728 48.6451)" class="st45" cx="929.9" cy="1509.1" rx="52.3" ry="41.8"/>
				<g>
					<path class="st45" d="M1192.2,1390.9c-23.6-25.4,2.1-40.8,14.4-46.3c12.3-5.5,68.4-11.9,65.2,43.6s-48.1,38.1-48.1,38.1
						s-11.7-0.9-9.8-7.1c1.3-4.4,5.2-10.1,8.9-14.7c0.6-0.7,1.2-1.4,1.7-2c4.4-5,1.3,0.2-2.9,0.5
						C1212.1,1403.6,1198.7,1397.8,1192.2,1390.9z"/>
				</g>
				<path class="st46" d="M946.9,1512.4l-0.1-7.6c-0.1-6.3-7.2-10.3-13.5-10.2l-27.5,1.4c-6.3,0.1-11.4,3.4-11.2,9.7l0.1,7.6
					C901.6,1533.1,945.3,1526.7,946.9,1512.4z"/>
				<g>
					
						<ellipse transform="matrix(0.8661 -0.4998 0.4998 0.8661 -594.379 723.3033)" class="st47" cx="1053.1" cy="1471.3" rx="27.4" ry="11.7"/>
					
						<ellipse transform="matrix(0.4053 -0.9142 0.9142 0.4053 -863.2513 1640.6838)" class="st47" cx="829.4" cy="1483.8" rx="11.7" ry="27.4"/>
				</g>
				<path class="st48" d="M976.3,1412.1c-1.2,10.1,6.1,18.1,16.7,21.4c1.6,0.5,40.2,5.2,41.9,5.4c2.9,0.3,5.5,1.6,8.2,1.1
					c9.6-1.8,17.1-8.8,18.1-17.8c1.1-9.4-5.3-16.9-14.8-20.7c-2.1-0.9-4.3-2.8-6.7-3.1c-3.1-0.4-43.2-3.2-46-2.6
					C984.3,1397.7,977.3,1403.2,976.3,1412.1z"/>
				<path class="st48" d="M797.1,1427.8c1.9,9.7,10.5,15,20.6,15c1.5,0,36.1-6.7,37.7-7c2.6-0.5,5.2-0.1,7.4-1.4
					c7.7-4.4,12.1-13,10.4-21.7c-1.8-9.1-9.5-14.2-18.8-15c-2.1-0.2-4.5-1.4-6.7-0.9c-2.8,0.5-38.1,9.4-40.4,10.8
					C799.9,1412.2,795.4,1419.3,797.1,1427.8z"/>
				<path class="st45" d="M1069.8,1242.6c5.2-0.6,10.4,0.6,15.5,1.5c9.2,1.5,18.6,1.9,27.9,1.2c14.2-1.1,30.7-4.1,40.6,6.2
					c8.5,8.9,7.1,23.2,3.5,35s-8.7,24-5.8,35.9c2.2,8.7,8.4,18.1,3.8,25.7c-4.4,7.3-15.1,6.6-23.5,5c-26.2-5.1-54.8-11.5-71.1-32.7
					c-13.9-18.1-13.9-41-14.7-63.8C1045.9,1256.5,1060.4,1243.6,1069.8,1242.6z"/>
				<path class="st45" d="M824.8,1236.9c-5.5-0.3-10.9,1.3-16.3,2.6c-9.6,2.2-19.5,3.2-29.3,3c-15-0.3-32.6-2.3-42.3,9.1
					c-8.4,9.9-5.9,24.9-1.4,37s10.7,24.7,8.4,37.5c-1.7,9.3-7.7,19.6-2.3,27.4c5.1,7.4,16.3,6,25.1,3.8c27.3-7,57-15.7,72.8-39
					c13.5-19.9,12-44.1,11.4-68.1C850.8,1250,834.8,1237.4,824.8,1236.9z"/>
				<path class="st46" d="M817.6,1446.9c0.1,3.7,5.1,6.2,11.6,6.8c1,0.1,24.3-0.5,25.4-0.5c1.7,0,3.4,0.2,4.9-0.1
					c5.5-1.2,9.4-4.2,9.3-7.6c-0.1-3.5-4.5-5.9-10.5-6.7c-1.3-0.2-2.8-0.8-4.3-0.7c-1.9,0.1-25.9,1.4-27.6,1.8
					C821.3,1441.2,817.5,1443.6,817.6,1446.9z"/>
				<path class="st46" d="M979.3,1438.5c-0.3,3.1,4.7,5.7,11.6,7c1,0.2,25.8,2.6,26.9,2.8c1.8,0.2,3.6,0.6,5.2,0.5
					c6-0.3,10.4-2.2,10.7-5c0.3-2.9-4.1-5.3-10.3-6.7c-1.4-0.3-2.9-1-4.4-1.1c-2-0.2-27.6-2.1-29.4-2
					C983.8,1434.3,979.6,1435.8,979.3,1438.5z"/>
			</g>
			<g>
				<g>
					<path class="st49" d="M1058.9,1177.6c1.5,0.2,2.5,0.9,3.2,1.9c0.6,0.9,1.1,2.6,1.4,5.1c0.3,2.5,0.4,4.6,0.2,6.3
						c-0.2,1.4-0.5,2.5-1.1,3.4c-0.6,0.9-1.3,1.4-2.2,1.5c-1,0.2-3.1,0.2-6.1-0.1c-4.1-0.3-6.2-0.3-6.3,0c-0.1,0.6,1.6,3.3,4.9,8
						c3.4,4.7,6.1,8.1,8.2,10.2c1.7,1.8,2.8,3.5,3.3,4.8c0.6,1.4,0.8,3.1,0.7,5.3c0,0.5,0,1.2-0.1,2.2c-0.1,0.9-0.5,1.6-1.2,2.1
						c-1.6,1.3-6.3,1.5-14,0.6l-3.2-0.4c-18.9-2.3-28.9-4-30.1-4.9c-0.9-0.7-1.4-1.8-1.6-3.3c-0.2-1.3-0.1-3.6,0.1-6.9
						c0.1-0.7,0.1-1.3,0.1-1.8l0.2-1.4c0.2-1.8,0.7-3,1.5-3.7c0.8-0.7,2.1-0.9,3.9-0.7c2.1,0.2,4.8,0.7,8.2,1.4l5.3,1l-9.2-11.6
						c-4.9-6.3-7.7-10.2-8.5-11.5c-0.8-1.4-1-3.4-0.7-5.9l0.1-0.7c0.3-2.8,1.8-4.4,4.3-4.7c3.2-0.4,13,0.3,29.3,2.2
						C1054.2,1176.8,1057.4,1177.3,1058.9,1177.6z"/>
				</g>
				<g>
					<path class="st49" d="M1135.8,1222.5c1.2,0.9,1.9,1.9,2,3.1c0.1,1.1-0.2,2.8-1.1,5.2c-0.8,2.4-1.7,4.3-2.7,5.7
						c-0.8,1.2-1.6,2-2.5,2.6c-0.9,0.5-1.8,0.7-2.6,0.4c-1-0.3-2.8-1.2-5.4-2.9c-3.6-2.1-5.4-3.1-5.6-2.8c-0.3,0.5-0.1,3.6,0.9,9.3
						c0.9,5.7,1.8,10,2.8,12.8c0.7,2.4,1,4.3,0.8,5.8c-0.1,1.5-0.7,3.2-1.8,5.1c-0.2,0.4-0.6,1.1-1.1,1.9c-0.5,0.7-1.1,1.2-2,1.4
						c-2.1,0.4-6.3-1.5-12.8-5.7l-2.7-1.7c-15.9-10.5-24.1-16.5-24.7-17.8c-0.4-1-0.4-2.3,0-3.7c0.4-1.2,1.5-3.3,3.1-6.1
						c0.4-0.6,0.7-1.1,0.9-1.5l0.8-1.2c1-1.5,2-2.4,3-2.7c1-0.3,2.3,0.1,3.8,1.1c1.8,1.2,4,2.8,6.7,5l4.3,3.3l-3-14.5
						c-1.5-7.8-2.3-12.5-2.4-14.1c-0.1-1.6,0.6-3.5,2-5.6l0.4-0.6c1.5-2.4,3.5-3.1,6-2.3c3.1,1.1,11.5,6.1,25.2,15.1
						C1132,1219.7,1134.6,1221.5,1135.8,1222.5z"/>
				</g>
			</g>
		</g>
		<path class="st50" d="M694.5,1595.5c0,0,117-14.3,233.2,103.8l127.3-33.7c0,0,109,43.7-57,199l13.6,22.1l-21.3,17.4
			c0,0,39.4,225.4-162.3,263.4c-201.7,38.1-360.3-107.9-360.3-107.9s-118.4-156.2-122.1-179.7l-1.4-34.3l45.7-17.3
			c0,0,28.1-71.6,83.3-134.4l-11.7-17.1l26.2-5.9c0,0,20.2-138.4,79.4-180C567.2,1490.9,553.2,1460.2,694.5,1595.5z"/>
		<g class="st0">
			<path class="st51" d="M744.5,2027.4c70.5-114.5-38.9-153.9-90-165.3s-269.4,6.5-215.2,215.2c54.2,208.7,212,108.7,212,108.7
				s43.9-12.3,32.1-34.5c-8.4-15.9-27.3-34.6-45-49.2c-2.8-2.3-5.5-4.4-8.1-6.5c-20.4-15.8-4.7,1.6,11.6-0.5
				C678.3,2090.8,725.1,2058.8,744.5,2027.4z"/>
			<path class="st52" d="M460,1929.9c0,0,13.7-11.7,18.7-2.6c5,9.1-14,40.3-6.4,86.5c7.6,46.2,47.5,113.5,47.5,113.5
				s72.5,64.7,124.3,51.7s5.4,5.3,5.4,5.3s-110.1,70.6-176.5-35.5c-11.7-18.7-20.8-43.2-30.1-73.8
				C415.6,1985.5,460,1929.9,460,1929.9z"/>
		</g>
		<g class="st0">
			<g>
				<path class="st17" d="M398.2,1975.4c3.2,2.2,5.2,4,5.2,4S403.8,1969.3,398.2,1975.4z"/>
				<path class="st17" d="M398.2,1975.4c-6-4.1-16.2-9.4-26.3-7.1c-0.1-2.7-0.3-5.2-0.7-7.8c10.8-18.2,19.8-49.1-22.9-70.5
					c-32.4-16.3-49-21.7-56.9-22.5c-11.3-8.5-26.3-16.1-46.3-21.5c-93-25.3-113.5-7.6-113.5-7.6s-29.5,4.5-39.9-9.5
					c0,0-0.1,24.7,24.5,34.3c0,0-27.1-5.4-49,26.8c-21.9,32.2-39.3,63.3-39.3,63.3s-3,25.9-29.2,15.3c-2.1-0.9-4.4-2-6.8-3.3
					c-25.2-14.2,8.2,34.5,47.4,21.3c-12,16.2-19.2,38.1-4.5,63.6l0,0c0,0-7.2,86.3,56.8,83.8c48,54.5,129,26.6,129,26.6
					s34.1-1.4,35.9-18.2c4.5-7.2,9.6-23.7-13.6-47.9c-5.7-5.9-10.4-11.3-14.3-16c0.9,0.2,1.7,0.4,2.6,0.5c0,0,113.5,16.8,143.5-56.1
					C387.1,1992.3,394.2,1979.8,398.2,1975.4z"/>
			</g>
			<path class="st17" d="M253.1,2146.3c0,0,21.8-18.7-10.3-52s-32.9-47.2-20.9-51.2c12-4-46.8,11-27.5,38.2"/>
			<path class="st17" d="M231.2,2078.7c0,0,113.5,16.8,143.5-56.1c30-72.9,28.7-43.2,28.7-43.2s-25.5-23.4-43.3-4
				c0,0,52.2-53.4-11.8-85.5c-26.4-13.3-42.4-19.3-51.6-21.6"/>
			<path class="st53" d="M324.2,1942.6c0,0,13.9-71.5-79.1-96.8s-113.5-7.6-113.5-7.6s-29.5,4.5-39.9-9.5c0,0-0.1,24.7,24.5,34.3
				c0,0-27.1-5.4-49,26.8c-21.9,32.2-39.3,63.3-39.3,63.3s-3,25.9-29.2,15.3c-2.1-0.9-4.4-2-6.8-3.3c-32.5-18.3,32.3,67.7,81.5-8.5
				c0,0-83.5,45.4-27.5,108.8"/>
			<path class="st17" d="M34.8,2050c0,0-9.2,109.5,84.7,78.2"/>
		</g>
	</g>
	<g>
		<g>
			<path class="st54" d="M183,315.6c0.6,0,1.2,0.3,1.8,0.9c0.5,0.6,1.9,2.6,4.3,6c2.4,3.4,3.6,5.4,3.7,5.7c0.1,0.2,0.2,0.3,0.3,0.3
				c0.3,0,1.1-1.2,2.3-3.6c2.1-3.8,3.6-6.3,4.5-7.5c0.9-1.2,1.8-1.8,2.6-1.8c0.6,0,2.1,0.3,4.7,0.8c2.6,0.5,4.3,0.9,5.1,1.2
				c1.3,0.4,1.9,1.2,1.9,2.3c0,1.3-0.9,3.8-2.8,7.6c-1.9,3.9-4.5,8.4-7.8,13.7c-1.5,2.3-2.2,6.5-2.3,12.7c-0.1,3.1-0.1,4.9-0.3,5.5
				c-0.1,0.6-0.2,1.1-0.5,1.3c-0.7,0.5-2.7,0.8-6,0.8c-4.2,0-7-0.3-8.5-1c-0.7-0.3-1.1-0.7-1.4-1.2c-0.3-0.7-0.5-3.5-0.5-8.5V343
				l-2.2-3.9c-2-3.5-4.2-7-6.6-10.3c-1.8-2.4-2.8-4.3-2.8-5.6c0-0.7,0.3-1.4,0.8-1.9c1-1.2,3.3-2.8,6.9-4.9
				C181.5,315.8,182.4,315.6,183,315.6z"/>
			<path class="st54" d="M244.8,321.9c3.1,0,5.6,0.2,7.3,0.6c1.2,0.3,2.1,0.7,2.7,1.3c0.6,0.6,1,1.6,1.3,2.9
				c0.2,0.7,0.3,3.2,0.3,7.5c0,9.6-0.2,16.1-0.6,19.5c-0.2,1.8-0.4,3.1-0.8,3.8c-0.3,0.7-1,1.1-2,1.3c-1,0.2-2.8,0.4-5.6,0.5
				c-0.7,0.1-1.9,0.1-3.6,0.1c-1.2,0-2-0.1-2.4-0.4c-0.4-0.3-0.8-0.8-1.2-1.7c-0.4-0.9-0.7-1.3-0.9-1.3c-0.2,0-1.1,0.4-2.6,1.1
				c-2.3,1.1-4.6,1.7-6.7,1.7c-2.2,0-4.6-0.8-7-2.5s-4.5-3.9-6.2-6.5c-1.6-2.7-2.5-5.4-2.5-8.2c0-1.2,0.1-2.2,0.3-2.9l0.3-1.3
				l0.2-0.9c0.2-1.3,1.1-3.3,2.9-6c2.7-4.2,6.2-6.9,10.5-7.9c0.8-0.2,1.7-0.3,2.6-0.3c3.1,0,5.7,0.8,7.8,2.3c0.6,0.4,1,0.6,1.3,0.6
				s0.4-0.2,0.4-0.6c0-0.3,0.2-0.7,0.7-1.3c0.5-0.6,0.9-1,1.3-1.1C242.8,322,243.5,321.9,244.8,321.9z M235.9,334.5
				c-1.3,0-2.5,0.4-3.6,1.2c-1.1,0.8-1.8,1.8-2.2,3.2c-0.2,0.5-0.3,1-0.3,1.6c0,1.5,0.6,2.6,1.8,3.5c1.2,0.9,2.8,1.3,4.8,1.3
				c1.1,0,1.8-0.1,2.1-0.2c0.4-0.1,0.6-0.4,0.7-0.8c0.1-0.4,0.3-1.2,0.4-2.5c0.2-1.5,0.3-3,0.3-4.4c0-0.8-0.1-1.4-0.2-1.6
				c-0.1-0.2-0.5-0.4-1.2-0.7C237.8,334.7,236.9,334.5,235.9,334.5z"/>
			<path class="st54" d="M262.2,321.1c2.3-0.6,4.3-1,6-1c1.2,0,2.1,0.2,2.8,0.6c0.7,0.4,1.4,1.2,2.1,2.4c0.8,1.7,2,4.9,3.7,9.7
				c1.3,3.7,2.1,5.6,2.2,5.6c0.2,0,1.7-2.8,4.4-8.3c2.5-4.9,4.1-7.7,4.8-8.4c0.7-0.8,1.9-1.2,3.8-1.2c2.7,0,5.5,0.6,8.2,1.9
				c0.9,0.4,1.3,1,1.3,1.8c0,1.1-1.6,4.8-4.8,11.3c-4.5,9.1-9.4,17.9-14.8,26.4c-1.7,2.7-3.2,4.9-4.4,6.5s-2.6,3.2-4.2,4.7
				c-3.3,3.2-7.4,4.9-12.4,4.9c-1.3,0-3-0.2-4.9-0.5c-1.9-0.4-3.5-0.9-4.8-1.6c-1.5-0.7-2.2-1.4-2.2-2.1c0-0.6,0.4-1.6,1.1-3.1
				c0.8-1.5,1.6-2.8,2.6-4.1c0.9-1.3,1.6-1.9,2.1-2.1h0.3c0.6,0,1.1,0.1,1.8,0.3c0.7,0.3,1.6,0.4,2.6,0.4c3.2,0,6-2,8.4-6
				c0.7-1.2,1.1-2.2,1.1-2.8c0-1.1-1.1-4.1-3.4-9.2c-2.1-4.7-4-9.4-5.7-14.2c-1.7-4.8-2.6-7.8-2.6-8.9c0-0.6,0.2-1.1,0.7-1.4
				C258.4,322.4,259.8,321.8,262.2,321.1z"/>
			<path class="st54" d="M313.3,347.4c2.6,0,4.6,0.7,6,2c1.4,1.3,2.1,3.2,2.1,5.4c0,2.5-0.9,4.5-2.6,6.2c-1.7,1.7-3.8,2.5-6.2,2.5
				c-0.9,0-1.6-0.1-2.3-0.3c-1.6-0.4-3-1.4-4.3-2.9c-1.3-1.5-1.9-2.9-1.9-4.3c0-1.7,0.6-3.4,1.8-4.9s2.7-2.6,4.5-3.3
				C311.2,347.6,312.1,347.4,313.3,347.4z M323.9,306.8c1,0,1.6,0.1,1.9,0.3c0.2,0.1,0.3,0.4,0.3,1c0,1.1-0.2,3.4-0.6,6.7
				c-1.4,14.5-2.8,24.2-4.4,29l-0.6,1.6h-4.9l-3.1,0.1c-1.1,0-1.8-0.1-2.2-0.4s-0.7-0.8-0.8-1.6c-0.1-0.8-0.2-2.2-0.2-4.1v-2.7
				c0-4.2,0.1-9.1,0.2-14.6c0.1-5.5,0.3-8.9,0.4-10.2c0.1-1.2,0.3-2,0.6-2.5c0.7-0.9,3-1.6,6.7-2.1
				C319.9,306.9,322.1,306.8,323.9,306.8z"/>
			<path class="st54" d="M351.1,315.7h1.9c2,0.1,3.5,0.2,4.4,0.3c0.9,0.1,1.7,0.4,2.2,0.9c0.6,0.4,1.3,1.2,2.1,2.3l10.6,14.1
				c0.2,0.3,0.4,0.4,0.5,0.3c0.1-0.1,0.3-1.9,0.5-5.4c0.1-0.4,0.1-1.1,0.1-1.9c0.3-3.7,0.5-6.2,0.8-7.5c0.2-1.3,0.7-2.2,1.3-2.6
				c0.7-0.4,1.8-0.7,3.5-0.7l4.1,0.1c2.3,0,3.9,0.1,4.5,0.3c0.7,0.2,1.2,0.8,1.3,1.6c0.2,1.5,0.4,6.7,0.4,15.7c0,1.7,0,3.2,0.1,4.4
				v3.9c0,6-0.2,10.1-0.5,12.3c-0.2,1.5-0.5,2.5-0.9,3.1c-0.4,0.6-0.9,1-1.5,1.1c-0.6,0.2-1.8,0.4-3.6,0.6c-2.4,0.3-4.3,0.4-5.8,0.4
				c-1.1,0-1.8-0.1-2.1-0.2c-0.3-0.1-0.7-0.4-1.1-0.9c-0.8-0.8-2-2.4-3.6-4.9c-5.6-8.4-8.5-12.6-8.8-12.7c-0.1,0-0.2,1.3-0.3,3.9
				c-0.3,8-0.7,12.3-1.2,12.8c-0.6,0.6-2.2,0.8-4.9,0.8c-0.4,0-0.8,0-1.1-0.1h-1.3c-0.6-0.1-1.6-0.1-3.3-0.2
				c-1.6-0.1-2.5-0.4-2.7-0.8c-0.2-0.5-0.3-1.4-0.5-2.8c-0.2-2-0.3-7.9-0.3-17.7c0-9.3,0.1-15.2,0.2-17.5c0.1-1.7,0.5-2.7,1.3-3
				C348.2,315.8,349.4,315.7,351.1,315.7z"/>
			<path class="st54" d="M412.6,320.3c1.9,0,3.7,0.1,5.5,0.4c4.2,0.8,7.8,2.4,10.7,4.9c3,2.5,4.8,5.4,5.4,8.8
				c0.2,0.7,0.3,1.7,0.3,2.8c0,3.4-0.5,6.4-1.6,9c-1,2.6-2.7,5-5.1,7.3c-2.2,2.1-4.4,3.6-6.7,4.4c-2.3,0.8-4.7,1.2-7.1,1.2
				c-4.3,0-8.2-1-11.7-3.1s-6.3-4.6-8.3-7.7c-2-3.1-3-6-3-8.8c0-0.9,0.1-2.2,0.4-4c1.8-9,7-14,15.4-15
				C409,320.5,410.8,320.3,412.6,320.3z M413.2,333.7c-0.8,0-1.5,0.2-2,0.6c-2,1.2-3,3-3,5.3c0,0.8,0.2,1.8,0.7,2.8
				c1,2.1,2.6,3.1,4.8,3.1c1.2,0,2.2-0.4,3-1.1c0.8-0.8,1.3-1.7,1.5-2.9c0.1-0.2,0.1-0.5,0.1-1c0-1.3-0.3-2.6-0.9-3.9
				c-0.6-1.2-1.4-2.1-2.3-2.5C414.4,333.8,413.8,333.7,413.2,333.7z"/>
			<path class="st54" d="M463.7,320.6l3.7,0.2l1.8,0.1c2.6,0.1,4.4,0.3,5.3,0.7c0.9,0.3,1.6,1.2,2,2.5c0.4,1.3,0.9,3.9,1.3,7.7
				c0.2,1.1,0.3,2.2,0.4,3.4c0.1,1.2,0.2,2.1,0.3,2.8c0.1,1.1,0.3,1.5,0.4,1.4c0.4-0.4,0.9-1.3,1.4-2.8c3.9-8.9,6.1-13.5,6.5-13.9
				c0.4-0.3,1.2-0.5,2.3-0.5c1.2,0,2.9,0.2,5.1,0.5c2.2,0.3,3.6,0.6,4.3,0.9c0.6,0.3,0.9,0.9,0.9,1.7l-0.2,1.6
				c-0.8,5-3.4,12.7-7.8,23.2l-0.8,2c-1.4,3.5-2.5,5.6-3.2,6.5c-0.7,0.9-2,1.3-3.7,1.3l-2-0.2c-0.6-0.1-1.3-0.1-2.2-0.1l-3.9-0.2
				c-1.1,0-1.8,0.1-2.2,0.2c-0.3,0.2-0.8,0.3-1.3,0.3c-1,0-1.8-0.1-2.5-0.4c-0.7-0.3-1.1-0.8-1.4-1.6c-0.3-0.8-0.8-3-1.3-6.5
				c-0.5-4-0.9-6.3-1.1-6.9l-0.3-0.9l-0.5,1.3c-0.8,2-2,4.6-3.5,8c-1.5,3.4-2.4,5.2-2.6,5.4c-0.5,0.5-1.4,0.8-2.7,0.8
				c-1.5,0-3.5-0.1-6-0.3c-2.5-0.2-4-0.4-4.5-0.7c-0.8-0.3-1.5-1.3-2.2-3.1c-0.6-1.4-1.7-4.9-3.2-10.6c-3-11.2-4.4-17.7-4.4-19.5
				c0-0.4,0.3-0.8,1-1c2.1-0.7,5.2-1,9.1-1c1.8,0,2.9,0.1,3.2,0.4c0.3,0.5,1,3.6,2.2,9.4c1.3,6,2,9,2.1,9c0.3,0,2.3-4.6,6-13.8
				c1.3-3.1,2.3-5.1,2.9-5.9L463.7,320.6z"/>
			<path class="st54" d="M530.8,310.5c0,0,1.5,0,4.6,0c3.1,0,5.1,0.1,5.9,0.2c1,0.2,1.5,0.4,1.7,0.6c0.2,0.2,0.3,0.6,0.3,1.3
				l-0.2,4.4l-0.2,2.7l-0.1,1l4,0.1c0.8,0,1.3,0,1.7,0.1c1.4,0,2.3,0.1,2.8,0.3c0.4,0.2,0.7,0.8,0.8,1.8c0.1,1,0.2,2.9,0.2,5.9v1.4
				c0,1.6-0.1,2.6-0.2,3.2c-0.1,0.6-0.4,0.9-0.9,1.1c-0.5,0.2-1.4,0.3-2.7,0.3h-5.4l-0.3,1.8c-0.1,1.3-0.2,2.2-0.2,2.5
				c0,5.8,1.5,8.7,4.4,8.7c0.6,0,1.4-0.3,2.4-0.9c1-0.6,1.6-1,1.8-1.3c0.2-0.2,0.4-0.3,0.6-0.3c0.5,0,1.1,0.4,1.9,1.2
				c0.9,0.9,1.7,2,2.6,3.2c0.8,1.3,1.2,2.1,1.2,2.6c0,0.7-0.8,1.6-2.3,2.9c-1.5,1.2-3.3,2.3-5.4,3.3c-2.7,1.2-5.6,1.8-8.7,1.8
				c-2,0-3.6-0.3-5.1-1c-1.4-0.7-2.9-1.8-4.6-3.5c-1.9-1.9-3.3-3.9-4.1-6.1c-0.8-2.2-1.3-5.5-1.3-9.9v-1.9v-1.2
				c-0.1-0.2-0.1-0.4-0.1-0.8c0-0.3-0.1-0.5-0.2-0.6l-0.3-0.3c-0.1-0.2-0.4-0.3-1.2-0.3l-1-0.1h-1.3c-1.2-0.1-1.9-0.2-2.3-0.3
				c-0.3-0.1-0.6-0.3-0.9-0.8c-0.2-0.4-0.3-1.1-0.3-2.2c0-1.5,0-2.5,0.1-3.1c0.1-1.7,0.2-2.7,0.2-3.2c0.1-0.7,0.1-1.3,0.1-1.8
				c0-0.5,0.1-0.8,0.1-1l0.3-1.2l3.4-0.2c1.7-0.1,2.7-0.1,3-0.3c0.3-0.1,0.4-0.3,0.5-0.5c0.1-1.2,0.2-2.9,0.4-5.1
				c0.2-2.2,0.4-3.4,0.5-3.5c0.3-0.3,0.9-0.6,1.9-0.8C530.3,310.5,530.8,310.5,530.8,310.5z"/>
			<path class="st54" d="M564.4,308.9c4.9,0,8,0.5,9.5,1.4c0.7,0.4,1.1,1.1,1.4,2.1c0.2,0.9,0.3,2.7,0.3,5.5c0,3.2,0.1,4.9,0.3,4.9
				l0.3-0.2c0.4-0.2,0.6-0.4,0.8-0.4l0.8-0.4c1.8-0.9,3.8-1.3,5.9-1.3c0.6,0,0.9,0,1.1,0.1c1.3,0.2,2.8,0.5,4.4,1.1
				c1.7,0.6,2.9,1.1,3.6,1.6c1.8,1.4,3.4,3.5,4.5,6.5c1.2,2.9,2,5.8,2.6,8.8c0.5,3,0.8,5.3,0.8,7.1v1.6c-0.1,0.6-0.1,1.3-0.1,2.1
				c-0.1,1.3-0.1,2.7-0.1,4.2c0,0.7-0.1,1.6-0.4,2.6c-0.3,1-0.5,1.6-0.8,1.8c-0.2,0.2-0.8,0.5-1.7,0.8s-1.7,0.4-2.4,0.4h-3.9
				c-3.7,0-5.9-0.2-6.5-0.6l-0.8-0.5v-5.8c0-6.8-0.4-11.2-1.1-13.4c-0.3-1-0.8-1.9-1.5-2.7c-0.7-0.8-1.2-1.2-1.7-1.2
				c-0.6,0-1.3,0.3-2.1,1c-0.8,0.6-1.4,1.4-1.8,2.4c-0.4,1-0.7,1.8-0.8,2.4c-0.2,1.3-0.3,3.9-0.3,7.8c-0.1,4.5-0.3,7.4-0.5,8.6
				c-0.2,1.2-0.5,1.9-0.9,2.2c-0.4,0.3-1.2,0.4-2.4,0.4c-3.2,0-5.7-0.2-7.5-0.6c-1.6-0.4-2.6-0.8-2.8-1.2c-0.6-0.7-0.9-2-1-4.1
				c-0.1-2.1-0.3-5.8-0.4-11.1l-0.1-5.7c-0.2-12.1-0.3-19.4-0.3-21.9c0-1.8,0.1-3.2,0.4-4.2c0.3-0.9,0.8-1.5,1.4-1.8
				C561.7,309.1,562.9,308.9,564.4,308.9z"/>
			<path class="st54" d="M631.3,321.9c3.1,0,5.6,0.2,7.3,0.6c1.2,0.3,2.1,0.7,2.7,1.3c0.6,0.6,1,1.6,1.3,2.9
				c0.2,0.7,0.3,3.2,0.3,7.5c0,9.6-0.2,16.1-0.6,19.5c-0.2,1.8-0.4,3.1-0.8,3.8c-0.3,0.7-1,1.1-2,1.3c-1,0.2-2.8,0.4-5.6,0.5
				c-0.7,0.1-1.9,0.1-3.6,0.1c-1.2,0-2-0.1-2.4-0.4c-0.4-0.3-0.8-0.8-1.2-1.7c-0.4-0.9-0.7-1.3-0.9-1.3c-0.2,0-1.1,0.4-2.6,1.1
				c-2.3,1.1-4.6,1.7-6.7,1.7c-2.2,0-4.6-0.8-7-2.5c-2.5-1.7-4.5-3.9-6.2-6.5c-1.6-2.7-2.5-5.4-2.5-8.2c0-1.2,0.1-2.2,0.3-2.9
				l0.3-1.3l0.2-0.9c0.2-1.3,1.1-3.3,2.9-6c2.7-4.2,6.2-6.9,10.5-7.9c0.8-0.2,1.7-0.3,2.6-0.3c3.1,0,5.7,0.8,7.8,2.3
				c0.6,0.4,1,0.6,1.3,0.6c0.3,0,0.4-0.2,0.4-0.6c0-0.3,0.2-0.7,0.7-1.3s0.9-1,1.3-1.1C629.3,322,630,321.9,631.3,321.9z
				 M622.4,334.5c-1.3,0-2.5,0.4-3.6,1.2c-1.1,0.8-1.8,1.8-2.2,3.2c-0.2,0.5-0.3,1-0.3,1.6c0,1.5,0.6,2.6,1.8,3.5
				c1.2,0.9,2.8,1.3,4.8,1.3c1.1,0,1.8-0.1,2.1-0.2c0.4-0.1,0.6-0.4,0.7-0.8c0.1-0.4,0.3-1.2,0.4-2.5c0.2-1.5,0.3-3,0.3-4.4
				c0-0.8-0.1-1.4-0.2-1.6c-0.1-0.2-0.5-0.4-1.2-0.7C624.4,334.7,623.4,334.5,622.4,334.5z"/>
			<path class="st54" d="M655.5,310.5c0,0,1.5,0,4.6,0c3.1,0,5.1,0.1,5.9,0.2c1,0.2,1.5,0.4,1.7,0.6c0.2,0.2,0.3,0.6,0.3,1.3
				l-0.2,4.4l-0.2,2.7l-0.1,1l4,0.1c0.8,0,1.3,0,1.7,0.1c1.4,0,2.3,0.1,2.8,0.3c0.4,0.2,0.7,0.8,0.8,1.8c0.1,1,0.2,2.9,0.2,5.9v1.4
				c0,1.6-0.1,2.6-0.2,3.2c-0.1,0.6-0.4,0.9-0.9,1.1c-0.5,0.2-1.4,0.3-2.7,0.3h-5.4l-0.3,1.8c-0.1,1.3-0.2,2.2-0.2,2.5
				c0,5.8,1.5,8.7,4.4,8.7c0.6,0,1.4-0.3,2.4-0.9c1-0.6,1.6-1,1.8-1.3c0.2-0.2,0.4-0.3,0.6-0.3c0.5,0,1.1,0.4,1.9,1.2
				c0.9,0.9,1.7,2,2.6,3.2c0.8,1.3,1.2,2.1,1.2,2.6c0,0.7-0.8,1.6-2.3,2.9c-1.5,1.2-3.3,2.3-5.4,3.3c-2.7,1.2-5.6,1.8-8.7,1.8
				c-2,0-3.6-0.3-5.1-1c-1.4-0.7-2.9-1.8-4.6-3.5c-1.9-1.9-3.3-3.9-4.1-6.1c-0.8-2.2-1.3-5.5-1.3-9.9v-1.9v-1.2
				c-0.1-0.2-0.1-0.4-0.1-0.8c0-0.3-0.1-0.5-0.2-0.6l-0.3-0.3c-0.1-0.2-0.4-0.3-1.2-0.3l-1-0.1h-1.3c-1.2-0.1-1.9-0.2-2.3-0.3
				c-0.3-0.1-0.6-0.3-0.9-0.8c-0.2-0.4-0.3-1.1-0.3-2.2c0-1.5,0-2.5,0.1-3.1c0.1-1.7,0.2-2.7,0.2-3.2c0.1-0.7,0.1-1.3,0.1-1.8
				c0-0.5,0.1-0.8,0.1-1l0.3-1.2l3.4-0.2c1.7-0.1,2.7-0.1,3-0.3c0.3-0.1,0.4-0.3,0.5-0.5c0.1-1.2,0.2-2.9,0.4-5.1
				c0.2-2.2,0.4-3.4,0.5-3.5c0.3-0.3,0.9-0.6,1.9-0.8C655,310.5,655.5,310.5,655.5,310.5z"/>
			<path class="st54" d="M730.6,321.9c3.1,0,5.6,0.2,7.3,0.6c1.2,0.3,2.1,0.7,2.7,1.3c0.6,0.6,1,1.6,1.3,2.9
				c0.2,0.7,0.3,3.2,0.3,7.5c0,9.6-0.2,16.1-0.6,19.5c-0.2,1.8-0.4,3.1-0.8,3.8c-0.3,0.7-1,1.1-2,1.3c-1,0.2-2.8,0.4-5.6,0.5
				c-0.7,0.1-1.9,0.1-3.6,0.1c-1.2,0-2-0.1-2.4-0.4c-0.4-0.3-0.8-0.8-1.2-1.7c-0.4-0.9-0.7-1.3-0.9-1.3c-0.2,0-1.1,0.4-2.6,1.1
				c-2.3,1.1-4.6,1.7-6.7,1.7c-2.2,0-4.6-0.8-7-2.5c-2.5-1.7-4.5-3.9-6.2-6.5c-1.6-2.7-2.5-5.4-2.5-8.2c0-1.2,0.1-2.2,0.3-2.9
				l0.3-1.3l0.2-0.9c0.2-1.3,1.1-3.3,2.9-6c2.7-4.2,6.2-6.9,10.5-7.9c0.8-0.2,1.7-0.3,2.6-0.3c3.1,0,5.7,0.8,7.8,2.3
				c0.6,0.4,1,0.6,1.3,0.6c0.3,0,0.4-0.2,0.4-0.6c0-0.3,0.2-0.7,0.7-1.3s0.9-1,1.3-1.1C728.6,322,729.4,321.9,730.6,321.9z
				 M721.7,334.5c-1.3,0-2.5,0.4-3.6,1.2c-1.1,0.8-1.8,1.8-2.2,3.2c-0.2,0.5-0.3,1-0.3,1.6c0,1.5,0.6,2.6,1.8,3.5
				c1.2,0.9,2.8,1.3,4.8,1.3c1.1,0,1.8-0.1,2.1-0.2c0.4-0.1,0.6-0.4,0.7-0.8c0.1-0.4,0.3-1.2,0.4-2.5c0.2-1.5,0.3-3,0.3-4.4
				c0-0.8-0.1-1.4-0.2-1.6c-0.1-0.2-0.5-0.4-1.2-0.7C723.7,334.7,722.8,334.5,721.7,334.5z"/>
			<path class="st54" d="M748.4,313.4h2c4.3,0.1,6.6,0.6,7,1.8c0.2,1,0.3,8,0.3,21v10.9c0,4.8-0.1,7.9-0.2,9.5
				c-0.1,1.2-0.4,1.9-0.9,2.1c-0.7,0.2-2.6,0.3-5.5,0.3c-0.6,0.1-1.6,0.1-3.1,0.1c-1.6,0-2.6-0.1-3.2-0.4s-0.9-0.6-1-1.1
				c-0.1-0.5-0.1-1.4-0.1-2.9l0.1-1.8v-2.2c0-0.8,0-1.5,0.1-2.1v-2.2c0-2.8-0.1-5.1-0.3-7c-0.4-4.7-0.6-9.3-0.6-13.7
				c0-3.1,0.2-5.8,0.5-8.1c0.3-2.3,0.9-3.7,1.6-3.9C745.7,313.4,746.8,313.4,748.4,313.4z"/>
			<path class="st54" d="M765,313.4h2c4.3,0.1,6.6,0.6,7,1.8c0.2,1,0.3,8,0.3,21v10.9c0,4.8-0.1,7.9-0.2,9.5
				c-0.1,1.2-0.4,1.9-0.9,2.1c-0.7,0.2-2.6,0.3-5.5,0.3c-0.6,0.1-1.6,0.1-3.1,0.1c-1.6,0-2.6-0.1-3.2-0.4s-0.9-0.6-1-1.1
				c-0.1-0.5-0.1-1.4-0.1-2.9l0.1-1.8v-2.2c0-0.8,0-1.5,0.1-2.1v-2.2c0-2.8-0.1-5.1-0.3-7c-0.4-4.7-0.6-9.3-0.6-13.7
				c0-3.1,0.2-5.8,0.5-8.1c0.3-2.3,0.9-3.7,1.6-3.9C762.3,313.4,763.4,313.4,765,313.4z"/>
			<path class="st54" d="M805.6,310.5c0,0,1.5,0,4.6,0c3.1,0,5.1,0.1,5.9,0.2c1,0.2,1.5,0.4,1.7,0.6c0.2,0.2,0.3,0.6,0.3,1.3
				l-0.2,4.4l-0.2,2.7l-0.1,1l4,0.1c0.8,0,1.3,0,1.7,0.1c1.4,0,2.3,0.1,2.8,0.3c0.4,0.2,0.7,0.8,0.8,1.8c0.1,1,0.2,2.9,0.2,5.9v1.4
				c0,1.6-0.1,2.6-0.2,3.2c-0.1,0.6-0.4,0.9-0.9,1.1c-0.5,0.2-1.4,0.3-2.7,0.3h-5.4l-0.3,1.8c-0.1,1.3-0.2,2.2-0.2,2.5
				c0,5.8,1.5,8.7,4.4,8.7c0.6,0,1.4-0.3,2.4-0.9c1-0.6,1.6-1,1.8-1.3c0.2-0.2,0.4-0.3,0.6-0.3c0.5,0,1.1,0.4,1.9,1.2
				c0.9,0.9,1.7,2,2.6,3.2c0.8,1.3,1.2,2.1,1.2,2.6c0,0.7-0.8,1.6-2.3,2.9c-1.5,1.2-3.3,2.3-5.4,3.3c-2.7,1.2-5.6,1.8-8.7,1.8
				c-2,0-3.6-0.3-5.1-1c-1.4-0.7-2.9-1.8-4.6-3.5c-1.9-1.9-3.3-3.9-4.1-6.1c-0.8-2.2-1.3-5.5-1.3-9.9v-1.9v-1.2
				c-0.1-0.2-0.1-0.4-0.1-0.8c0-0.3-0.1-0.5-0.2-0.6l-0.3-0.3c-0.1-0.2-0.4-0.3-1.2-0.3l-1-0.1H797c-1.2-0.1-1.9-0.2-2.3-0.3
				c-0.3-0.1-0.6-0.3-0.9-0.8c-0.2-0.4-0.3-1.1-0.3-2.2c0-1.5,0-2.5,0.1-3.1c0.1-1.7,0.2-2.7,0.2-3.2c0.1-0.7,0.1-1.3,0.1-1.8
				c0-0.5,0.1-0.8,0.1-1l0.3-1.2l3.4-0.2c1.7-0.1,2.7-0.1,3-0.3c0.3-0.1,0.4-0.3,0.5-0.5c0.1-1.2,0.2-2.9,0.4-5.1
				c0.2-2.2,0.4-3.4,0.5-3.5c0.3-0.3,0.9-0.6,1.9-0.8C805.1,310.5,805.6,310.5,805.6,310.5z"/>
			<path class="st54" d="M839.2,308.9c4.9,0,8,0.5,9.5,1.4c0.7,0.4,1.1,1.1,1.4,2.1c0.2,0.9,0.3,2.7,0.3,5.5c0,3.2,0.1,4.9,0.3,4.9
				l0.3-0.2c0.4-0.2,0.6-0.4,0.8-0.4l0.8-0.4c1.8-0.9,3.8-1.3,5.9-1.3c0.6,0,0.9,0,1.1,0.1c1.3,0.2,2.8,0.5,4.4,1.1
				c1.7,0.6,2.9,1.1,3.6,1.6c1.8,1.4,3.4,3.5,4.5,6.5c1.2,2.9,2,5.8,2.6,8.8c0.5,3,0.8,5.3,0.8,7.1v1.6c-0.1,0.6-0.1,1.3-0.1,2.1
				c-0.1,1.3-0.1,2.7-0.1,4.2c0,0.7-0.1,1.6-0.4,2.6c-0.3,1-0.5,1.6-0.8,1.8c-0.2,0.2-0.8,0.5-1.7,0.8s-1.7,0.4-2.4,0.4h-3.9
				c-3.7,0-5.9-0.2-6.5-0.6l-0.8-0.5v-5.8c0-6.8-0.4-11.2-1.1-13.4c-0.3-1-0.8-1.9-1.5-2.7c-0.7-0.8-1.2-1.2-1.7-1.2
				c-0.6,0-1.3,0.3-2.1,1c-0.8,0.6-1.4,1.4-1.8,2.4c-0.4,1-0.7,1.8-0.8,2.4c-0.2,1.3-0.3,3.9-0.3,7.8c-0.1,4.5-0.3,7.4-0.5,8.6
				c-0.2,1.2-0.5,1.9-0.9,2.2c-0.4,0.3-1.2,0.4-2.4,0.4c-3.2,0-5.7-0.2-7.5-0.6c-1.6-0.4-2.6-0.8-2.8-1.2c-0.6-0.7-0.9-2-1-4.1
				c-0.1-2.1-0.3-5.8-0.4-11.1l-0.1-5.7c-0.2-12.1-0.3-19.4-0.3-21.9c0-1.8,0.1-3.2,0.4-4.2c0.3-0.9,0.8-1.5,1.4-1.8
				C836.4,309.1,837.6,308.9,839.2,308.9z"/>
			<path class="st54" d="M897.3,318.7h1.1c2.3,0.1,4.1,0.5,5.4,1.2c1.3,0.7,3,2,4.9,3.9c3,3,4.9,6.3,5.8,9.7
				c0.3,1.4,0.4,2.6,0.4,3.5c0,3.4-0.6,5.3-1.7,5.8h-13.9c-4.4,0-6.6,0-6.6,0.1c0,0.7,0.6,1.4,1.9,2.1c1.3,0.8,2.8,1.3,4.5,1.7
				c0.9,0.2,1.8,0.3,2.6,0.3c1.3,0,3-0.3,5.1-1c1.6-0.4,2.7-0.7,3.1-0.7c0.6,0,1,0.2,1.3,0.5c0.4,0.6,1,1.6,1.8,3.1
				c0.8,1.5,1.2,2.6,1.2,3.2c0,1.2-1,2.4-3.1,3.6c-2,1.2-4.1,2.1-6.3,2.6c-2.2,0.5-4.8,0.8-7.8,0.8c-3.7,0-6.5-0.3-8.5-1
				s-4.2-2.1-6.5-4.4c-2.3-2.2-3.9-4.4-4.7-6.5c-0.8-2.1-1.3-4.6-1.3-7.5c0-3.1,0.5-6,1.4-8.6c0.9-2.6,2.7-4.9,5.2-7.1
				c2.7-2.3,6.1-4,10.2-4.9C894.3,318.8,895.8,318.7,897.3,318.7z M897,330.1c-1.2,0-2.3,0.4-3.2,1.1c-0.9,0.7-1.4,1.6-1.5,2.8
				l-0.1,1l4.1,0.3l3.4,0.2h0.4c0.2,0,0.4,0,0.4-0.1h0.2h0.2c0.2-0.1,0.3-0.4,0.3-1c0-0.7-0.2-1.4-0.5-2.1
				C900.1,330.8,898.8,330.1,897,330.1z"/>
			<path class="st54" d="M939.5,322.2h2.5c3.7,0.1,5.9,0.3,6.5,0.4c0.8,0.3,1.2,1,1.2,2.2c0,1,0.1,1.4,0.3,1.4l2.9-0.7
				c1.8-0.5,3.7-0.8,5.5-0.8c3.2,0,6.1,0.7,8.6,2.2c0.9,0.5,2,1.4,3.2,2.8c1.3,1.4,2.2,2.6,2.9,3.7c1.3,2.5,1.9,5,1.9,7.6
				c0,4.8-1.8,9.1-5.5,12.7c-1.8,1.8-3.6,3.1-5.2,3.9c-1.6,0.8-3.4,1.1-5.5,1.1c-1.8,0-4.6-0.6-8.3-1.8h-0.1c-0.3,0-0.5,2.2-0.6,6.5
				l-0.1,6.7l-0.9,0.8L948,372l-6.3-0.1c-3-0.1-4.8-0.2-5.4-0.3c-0.8-0.1-1.3-0.3-1.5-0.6c-0.2-0.3-0.4-1.7-0.5-4.2
				c-0.1-1.6-0.1-8.1-0.1-19.5c0-15.4,0.1-23.4,0.3-23.9c0.2-0.5,0.6-0.9,1.1-1.1C936.1,322.2,937.4,322.2,939.5,322.2z
				 M956.5,334.6c-0.6,0-1.2,0.1-1.7,0.3c-0.8,0.3-1.6,0.9-2.6,1.8l-1.6,1.5l0.3,3.1c0.3,2,0.5,3.2,0.7,3.5c0.2,0.5,0.6,0.9,1.2,1.1
				c0.6,0.2,1.4,0.3,2.2,0.3c1.7,0,3.2-0.6,4.4-1.7c1.2-1.1,1.8-2.6,1.8-4.4c0-2.1-0.6-3.7-1.9-4.7
				C958.6,334.8,957.7,334.6,956.5,334.6z"/>
			<path class="st54" d="M983.2,320.9c5.1,0,8,0.3,8.5,0.8c0.1,0.1,0.2,0.7,0.2,1.8c0,1.3-0.1,3-0.2,4.9c-0.1,1.9-0.2,3.9-0.2,6
				c0,4.4,0.3,7.5,1,9.3c0.6,1.9,1.9,2.8,3.7,2.8c1.6,0,2.8-0.8,3.6-2.4c1.1-2,1.6-6.3,1.7-13.2c0.2-5.6,0.4-8.6,0.6-8.8
				c0.3-0.3,1.4-0.6,3.4-0.8c2-0.3,4-0.4,5.9-0.4c1.5,0,2.6,0.1,3.5,0.2c0.9,0.1,1.5,0.4,1.8,0.9c0.6,0.9,0.9,5.2,0.9,13
				c0,14.3-0.2,22-0.7,23.1c-0.3,0.8-1.6,1.3-3.9,1.3c-1,0-2.8-0.1-5.5-0.3c-1,0-1.7,0-2.3-0.1c-0.6-0.1-1.1-0.2-1.6-0.4
				c-0.6-0.2-1-0.4-1.2-0.6c-0.3-0.3-0.5-0.7-0.7-1.2c-0.4-1.1-0.9-1.3-1.4-0.7c-0.3,0.4-1.4,1-3.2,1.7c-1.8,0.7-3.2,1.2-4.4,1.4
				c-0.8,0.1-1.6,0.2-2.5,0.2c-2.3,0-4.5-0.5-6.5-1.5c-2-1-3.5-2.3-4.5-4c-0.4-0.7-0.9-2-1.5-3.9c-0.4-1.9-0.7-4.3-0.7-7.3v-4.3
				c0.1-10.8,0.8-16.5,2.1-17.1C979.7,321,981.1,320.9,983.2,320.9z"/>
			<path class="st54" d="M1024.9,322.2h2.5c3.7,0.1,5.9,0.3,6.5,0.4c0.8,0.3,1.2,1,1.2,2.2c0,1,0.1,1.4,0.3,1.4l2.9-0.7
				c1.8-0.5,3.7-0.8,5.5-0.8c3.2,0,6.1,0.7,8.6,2.2c0.9,0.5,2,1.4,3.2,2.8c1.3,1.4,2.2,2.6,2.9,3.7c1.3,2.5,1.9,5,1.9,7.6
				c0,4.8-1.8,9.1-5.5,12.7c-1.8,1.8-3.6,3.1-5.2,3.9c-1.6,0.8-3.4,1.1-5.5,1.1c-1.8,0-4.6-0.6-8.3-1.8h-0.1c-0.3,0-0.5,2.2-0.6,6.5
				l-0.1,6.7l-0.9,0.8l-0.9,0.8l-6.3-0.1c-3-0.1-4.8-0.2-5.4-0.3c-0.8-0.1-1.3-0.3-1.5-0.6c-0.2-0.3-0.4-1.7-0.5-4.2
				c-0.1-1.6-0.1-8.1-0.1-19.5c0-15.4,0.1-23.4,0.3-23.9c0.2-0.5,0.6-0.9,1.1-1.1C1021.4,322.2,1022.8,322.2,1024.9,322.2z
				 M1041.8,334.6c-0.6,0-1.2,0.1-1.7,0.3c-0.8,0.3-1.6,0.9-2.6,1.8l-1.6,1.5l0.3,3.1c0.3,2,0.5,3.2,0.7,3.5
				c0.2,0.5,0.6,0.9,1.2,1.1c0.6,0.2,1.4,0.3,2.2,0.3c1.7,0,3.2-0.6,4.4-1.7c1.2-1.1,1.8-2.6,1.8-4.4c0-2.1-0.6-3.7-1.9-4.7
				C1043.9,334.8,1043,334.6,1041.8,334.6z"/>
			<path class="st54" d="M1067.7,322.2h2.5c3.7,0.1,5.9,0.3,6.5,0.4c0.8,0.3,1.2,1,1.2,2.2c0,1,0.1,1.4,0.3,1.4l2.9-0.7
				c1.8-0.5,3.7-0.8,5.5-0.8c3.2,0,6.1,0.7,8.6,2.2c0.9,0.5,2,1.4,3.2,2.8c1.3,1.4,2.2,2.6,2.9,3.7c1.3,2.5,1.9,5,1.9,7.6
				c0,4.8-1.8,9.1-5.5,12.7c-1.8,1.8-3.6,3.1-5.2,3.9c-1.6,0.8-3.4,1.1-5.5,1.1c-1.8,0-4.6-0.6-8.3-1.8h-0.1c-0.3,0-0.5,2.2-0.6,6.5
				l-0.1,6.7l-0.9,0.8l-0.9,0.8l-6.3-0.1c-3-0.1-4.8-0.2-5.4-0.3c-0.8-0.1-1.3-0.3-1.5-0.6c-0.2-0.3-0.4-1.7-0.5-4.2
				c-0.1-1.6-0.1-8.1-0.1-19.5c0-15.4,0.1-23.4,0.3-23.9c0.2-0.5,0.6-0.9,1.1-1.1C1064.2,322.2,1065.6,322.2,1067.7,322.2z
				 M1084.6,334.6c-0.6,0-1.2,0.1-1.7,0.3c-0.8,0.3-1.6,0.9-2.6,1.8l-1.6,1.5l0.3,3.1c0.3,2,0.5,3.2,0.7,3.5
				c0.2,0.5,0.6,0.9,1.2,1.1c0.6,0.2,1.4,0.3,2.2,0.3c1.7,0,3.2-0.6,4.4-1.7c1.2-1.1,1.8-2.6,1.8-4.4c0-2.1-0.6-3.7-1.9-4.7
				C1086.7,334.8,1085.8,334.6,1084.6,334.6z"/>
			<path class="st54" d="M1114.1,326.4h2.3h0.9c0.8,0,1.4,0.1,1.9,0.3c0.4,0.2,0.7,0.4,0.9,0.6c0.1,0.2,0.2,0.7,0.3,1.3
				c0.1,1.5,0.2,6.6,0.2,15.5c0,9.3-0.1,14.1-0.3,14.3c-0.4,0.4-2.2,0.7-5.3,0.7h-3l-2.3-0.1c-1.3,0-2.1,0-2.3-0.1
				c-0.6-0.1-1-0.3-1.3-0.6l-0.7-0.7l-0.1-11.3v-3.5c0-9.8,0.3-15,1-15.8c0.3-0.3,2.1-0.5,5.4-0.6
				C1112.7,326.5,1113.5,326.4,1114.1,326.4z M1113,310.9c1.8,0,3.4,0.6,4.8,1.9c1.3,1.3,2,2.7,2,4.3v1.1c-0.1,1.6-0.8,2.9-1.9,3.8
				c-1.2,0.9-2.7,1.4-4.7,1.4h-0.5c-2-0.1-3.5-0.7-4.7-1.7c-1.2-1-1.8-2.4-1.8-4c0-0.8,0.1-1.6,0.4-2.3c0.3-0.7,0.8-1.5,1.6-2.3
				C1109.5,311.6,1111.1,310.9,1113,310.9z"/>
			<path class="st54" d="M1143.8,318.7h1.1c2.3,0.1,4.1,0.5,5.4,1.2c1.3,0.7,3,2,4.9,3.9c3,3,4.9,6.3,5.8,9.7
				c0.3,1.4,0.4,2.6,0.4,3.5c0,3.4-0.6,5.3-1.7,5.8h-13.9c-4.4,0-6.6,0-6.6,0.1c0,0.7,0.6,1.4,1.9,2.1c1.3,0.8,2.8,1.3,4.5,1.7
				c0.9,0.2,1.8,0.3,2.6,0.3c1.3,0,3-0.3,5.1-1c1.6-0.4,2.7-0.7,3.1-0.7c0.6,0,1,0.2,1.3,0.5c0.4,0.6,1,1.6,1.8,3.1
				c0.8,1.5,1.2,2.6,1.2,3.2c0,1.2-1,2.4-3.1,3.6c-2,1.2-4.1,2.1-6.3,2.6c-2.2,0.5-4.8,0.8-7.8,0.8c-3.7,0-6.5-0.3-8.5-1
				s-4.2-2.1-6.5-4.4c-2.3-2.2-3.9-4.4-4.7-6.5c-0.8-2.1-1.3-4.6-1.3-7.5c0-3.1,0.5-6,1.4-8.6c0.9-2.6,2.7-4.9,5.2-7.1
				c2.7-2.3,6.1-4,10.2-4.9C1140.9,318.8,1142.3,318.7,1143.8,318.7z M1143.6,330.1c-1.2,0-2.3,0.4-3.2,1.1
				c-0.9,0.7-1.4,1.6-1.5,2.8l-0.1,1l4.1,0.3l3.4,0.2h0.4c0.2,0,0.4,0,0.4-0.1h0.2h0.2c0.2-0.1,0.3-0.4,0.3-1c0-0.7-0.2-1.4-0.5-2.1
				C1146.6,330.8,1145.4,330.1,1143.6,330.1z"/>
			<path class="st54" d="M1179.2,319.4h1.5c1.6,0,3.4,0.2,5.5,0.6c2,0.4,3.9,0.9,5.6,1.4c1.7,0.5,2.7,0.8,2.9,1
				c0.6,0.4,0.8,1,0.8,1.8c0,0.9-0.3,2.2-0.8,3.9c-0.5,1.7-0.9,3-1.3,3.8c-0.3,0.6-0.7,0.9-1.3,0.9c-0.6,0-1.4-0.3-2.6-0.8
				c-2.5-1-4.4-1.5-6-1.5c-0.4,0-0.9,0.1-1.3,0.3c-0.4,0.2-0.7,0.4-0.7,0.7c0,0.3,0.2,0.6,0.6,0.9c0.6,0.4,2.4,0.9,5.5,1.3
				c2.6,0.3,4.6,0.9,6.1,1.8c1.5,0.9,2.7,2.2,3.6,4.1c0.8,1.5,1.3,3.3,1.3,5.4c0,2.4-0.6,4.7-1.9,6.9c-1.3,2.2-3,4-5.2,5.3
				c-2.4,1.4-5.4,2.1-9.1,2.1c-3.6,0-7.1-0.7-10.6-2c-3.5-1.3-6.2-3-8.2-5.2c-0.8-0.9-1.3-1.6-1.3-2.1c0-0.4,0.5-1.3,1.5-2.5
				c1-1.2,2.1-2.4,3.2-3.5c1.1-1.1,1.8-1.7,2.1-1.7c0.2,0,0.9,0.5,2.1,1.4c2.5,1.8,5,2.9,7.6,3h1.1c0.9,0,1.6-0.2,2-0.5
				c0.4-0.4,0.7-0.8,0.7-1.4c0-0.7-0.5-1.4-1.4-1.9c-1-0.5-2.6-1-4.9-1.3c-5.9-1-9.7-3.2-11.4-6.8c-0.6-1.1-0.8-2.3-0.8-3.6
				c0-1.6,0.4-3.2,1.3-4.8c0.9-1.6,2.1-3.1,3.6-4.3c1.5-1.2,3.2-2.1,5.1-2.5C1175.8,319.5,1177.3,319.4,1179.2,319.4z"/>
			<path class="st54" d="M298.6,396.6c3.1,0,5.6,0.2,7.3,0.6c1.2,0.3,2.1,0.7,2.7,1.3c0.6,0.6,1,1.6,1.3,2.8
				c0.2,0.7,0.3,3.2,0.3,7.5c0,9.6-0.2,16.1-0.6,19.5c-0.2,1.8-0.4,3.1-0.8,3.8c-0.3,0.7-1,1.1-2,1.3c-1,0.2-2.8,0.4-5.6,0.5
				c-0.7,0.1-1.9,0.1-3.6,0.1c-1.2,0-2-0.1-2.4-0.4c-0.4-0.3-0.8-0.8-1.2-1.7c-0.4-0.9-0.7-1.3-0.9-1.3c-0.2,0-1.1,0.4-2.6,1.1
				c-2.3,1.1-4.6,1.7-6.7,1.7c-2.2,0-4.6-0.8-7-2.5c-2.5-1.7-4.5-3.9-6.2-6.5c-1.6-2.7-2.5-5.4-2.5-8.2c0-1.2,0.1-2.2,0.3-2.9
				l0.3-1.3l0.2-0.9c0.2-1.3,1.1-3.3,2.9-6c2.7-4.2,6.2-6.9,10.5-7.9c0.8-0.2,1.7-0.3,2.6-0.3c3.1,0,5.7,0.8,7.8,2.3
				c0.6,0.4,1,0.6,1.3,0.6c0.3,0,0.4-0.2,0.4-0.6c0-0.3,0.2-0.7,0.7-1.3c0.5-0.6,0.9-1,1.3-1.1C296.6,396.7,297.3,396.6,298.6,396.6
				z M289.7,409.2c-1.3,0-2.5,0.4-3.6,1.2c-1.1,0.8-1.8,1.8-2.2,3.2c-0.2,0.5-0.3,1-0.3,1.6c0,1.5,0.6,2.6,1.8,3.5
				c1.2,0.9,2.8,1.3,4.8,1.3c1.1,0,1.8-0.1,2.1-0.2s0.6-0.4,0.7-0.8c0.1-0.4,0.3-1.2,0.4-2.5c0.2-1.5,0.3-3,0.3-4.4
				c0-0.8-0.1-1.4-0.2-1.6c-0.1-0.2-0.5-0.4-1.2-0.7C291.7,409.4,290.7,409.2,289.7,409.2z"/>
			<path class="st54" d="M314.1,396.1c0.5-0.3,1.7-0.5,3.6-0.5c2,0,3.8,0.1,5.6,0.4c1.8,0.3,2.8,0.6,3.1,1.1
				c0.4,0.4,0.6,0.8,0.6,1.2c0,0.1,0.1,0.1,0.2,0.1c0.3,0,1.1-0.3,2.3-0.9c2.3-1.2,4.5-1.8,6.4-1.8c2,0,4,0.6,6,1.7
				c2.1,1.1,3.1,2.3,3.1,3.5c0,0.7-0.5,2-1.4,4.1c-1,2-1.8,3.6-2.5,4.7c-0.6,0.8-1.1,1.3-1.8,1.3c-0.2,0-0.8-0.1-1.8-0.4
				c-1-0.3-2-0.5-2.8-0.5c-1.9,0-3.4,0.8-4.6,2.3c-2,2.6-3,8.2-3,16.8v1.2c0,1.2-0.1,2.1-0.2,2.6c-0.1,0.5-0.5,0.8-1,1
				s-1.4,0.3-2.6,0.3l-1.4-0.1h-1.8c-3.9-0.1-6.1-0.4-6.7-0.8c-0.7-0.4-1-0.9-1.1-1.4c-0.2-0.6-0.3-2.7-0.3-6.3
				c0-5.4,0.1-11.3,0.4-17.6c0.3-6.3,0.5-9.8,0.8-10.5C313.3,396.8,313.6,396.3,314.1,396.1z"/>
			<path class="st54" d="M367.5,393.4h1.1c2.3,0.1,4.1,0.5,5.4,1.2c1.3,0.7,3,2,4.9,3.9c3,3,4.9,6.3,5.8,9.7
				c0.3,1.4,0.4,2.6,0.4,3.5c0,3.4-0.6,5.3-1.7,5.8h-13.9c-4.4,0-6.6,0-6.6,0.1c0,0.7,0.6,1.4,1.9,2.1c1.3,0.8,2.8,1.3,4.5,1.7
				c1,0.2,1.8,0.3,2.6,0.3c1.3,0,3-0.3,5.1-1c1.6-0.4,2.7-0.7,3.1-0.7c0.6,0,1,0.2,1.3,0.5c0.4,0.6,1,1.6,1.8,3.1
				c0.8,1.5,1.2,2.6,1.2,3.2c0,1.2-1,2.4-3.1,3.6c-2,1.2-4.1,2.1-6.3,2.6c-2.2,0.5-4.8,0.8-7.8,0.8c-3.7,0-6.5-0.3-8.5-1
				c-2-0.7-4.2-2.1-6.5-4.4c-2.3-2.2-3.9-4.4-4.7-6.5c-0.8-2.1-1.3-4.6-1.3-7.5c0-3.1,0.5-6,1.4-8.5c0.9-2.6,2.7-4.9,5.2-7.1
				c2.7-2.3,6.1-4,10.2-4.9C364.5,393.5,366,393.4,367.5,393.4z M367.2,404.8c-1.2,0-2.3,0.4-3.2,1.1c-0.9,0.7-1.4,1.6-1.5,2.8
				l-0.1,1l4.1,0.3l3.4,0.2h0.4c0.2,0,0.4,0,0.4-0.1h0.2h0.2c0.2-0.1,0.3-0.4,0.3-1c0-0.7-0.2-1.4-0.5-2.1
				C370.3,405.5,369,404.8,367.2,404.8z"/>
			<path class="st54" d="M425.6,390.2c2.7,0,5,0.3,7,1c2,0.6,3.6,1.6,4.8,2.7c1.2,1.2,1.8,2.2,1.8,2.9c0,1.2-1.1,3.1-3.3,5.5
				l-1.4,1.6L432,403c-1.5-0.5-2.6-0.8-3.5-0.8c-0.8,0-1.7,0.4-2.5,1.2c-0.8,0.8-1.3,1.6-1.3,2.5c0,0.1,0,0.2,0.1,0.3
				c0.1,0.1,0.8,0.2,2,0.5c1.7,0.2,2.8,0.6,3.2,1.2c0.5,0.6,0.7,1.8,0.7,3.7c0,3.9-0.4,6.1-1.1,6.7c-0.4,0.4-1.3,0.6-2.8,0.7
				l-2.3,0.2l-0.3,1.4c-0.2,1.5-0.3,3.4-0.3,5.5c0,3.1-0.1,6.4-0.4,9.9c-0.3,3.5-0.6,5.5-0.9,6c-0.3,0.6-1.5,0.9-3.5,0.9h-0.9
				c-2,0-4.2-0.2-6.5-0.6c-1.5-0.2-2.4-0.4-2.9-0.6c-0.4-0.2-0.7-0.7-0.9-1.5c-0.1-0.8-0.2-2.3-0.2-4.5V430l0.2-10.5l-1.3-0.3
				c-1.2-0.2-2-0.5-2.4-1c-0.4-0.4-0.5-1.4-0.5-2.8c0-1.3,0-2.2,0.1-2.7c0.1-3,0.4-4.9,0.9-5.9c0.5-0.8,1.5-1.3,3-1.3
				c0.9,0,1.5-0.3,1.5-0.8c0.5-2.6,1.1-4.6,1.8-6c0.7-1.5,1.5-2.7,2.5-3.7s2.5-2,4.4-2.9c1.9-0.9,3.8-1.6,5.5-1.9
				C424.5,390.2,425.2,390.2,425.6,390.2z"/>
			<path class="st54" d="M447.6,401.1h2.3h0.9c0.8,0,1.4,0.1,1.9,0.3c0.4,0.2,0.7,0.4,0.9,0.6c0.1,0.2,0.2,0.7,0.3,1.3
				c0.1,1.5,0.2,6.6,0.2,15.5c0,9.3-0.1,14.1-0.3,14.3c-0.4,0.4-2.2,0.7-5.3,0.7h-3l-2.3-0.1c-1.3,0-2.1,0-2.3-0.1
				c-0.6-0.1-1-0.3-1.3-0.6l-0.7-0.7l-0.1-11.3v-3.5c0-9.8,0.3-15,1-15.8c0.3-0.3,2.1-0.5,5.4-0.6
				C446.1,401.2,447,401.1,447.6,401.1z M446.4,385.6c1.8,0,3.4,0.6,4.8,1.9c1.3,1.3,2,2.7,2,4.3v1.1c-0.1,1.6-0.8,2.9-1.9,3.8
				s-2.7,1.4-4.7,1.4h-0.5c-2-0.1-3.5-0.7-4.7-1.7c-1.2-1-1.8-2.4-1.8-4c0-0.8,0.1-1.6,0.4-2.3s0.8-1.5,1.6-2.3
				C443,386.3,444.6,385.6,446.4,385.6z"/>
			<path class="st54" d="M483.9,395.1c3.9,0,6.9,1.1,9.1,3.2c2.2,2.1,3.7,4.8,4.7,8c0.4,1.5,0.7,6,0.8,13.4v5.3c0,3.9-0.2,6-0.5,6.3
				c-0.2,0.3-0.7,0.5-1.3,0.6c-0.7,0.1-2.7,0.2-6,0.3l-6.9,0.2l-0.3-0.8c-0.1-0.2-0.2-2.9-0.5-8.1c-0.1-4.2-0.3-7.4-0.6-9.6
				c-0.3-1.6-1-3-1.9-4c-0.5-0.5-1.2-0.8-2-0.8c-4.1,0-6.1,3.8-6.1,11.5c0,2.2,0,3.7,0.1,4.4c0.1,1.1,0.1,2.8,0.1,5.1
				c0,1.5-0.1,2.3-0.3,2.4s-1.7,0.3-4.7,0.4c-3,0.1-5.6,0.2-7.8,0.2c-0.9,0-1.5-0.1-1.8-0.2c-0.3-0.1-0.5-0.4-0.6-0.8
				c-0.1-0.4-0.2-1.1-0.3-2.1c-0.1-0.7-0.1-3.2-0.1-7.6l-0.1-7.5v-8.3l-0.1-6c0-1.6,0.1-2.7,0.3-3.3c0.2-0.6,0.6-1.1,1.2-1.3
				c0.6-0.2,1.6-0.3,3.1-0.3h4.2c3.1,0,4.9,0.1,5.6,0.4c0.6,0.2,0.8,1.1,0.8,2.7c0,1.3,0.1,2,0.3,2s0.8-0.5,1.9-1.6
				c2-1.8,4-3,6.1-3.6C481.3,395.3,482.6,395.1,483.9,395.1z"/>
			<path class="st54" d="M529.6,396.6c3.1,0,5.6,0.2,7.3,0.6c1.2,0.3,2.1,0.7,2.7,1.3s1,1.6,1.3,2.8c0.2,0.7,0.3,3.2,0.3,7.5
				c0,9.6-0.2,16.1-0.6,19.5c-0.2,1.8-0.4,3.1-0.8,3.8c-0.3,0.7-1,1.1-2,1.3c-1,0.2-2.8,0.4-5.6,0.5c-0.7,0.1-1.9,0.1-3.6,0.1
				c-1.2,0-2-0.1-2.4-0.4c-0.4-0.3-0.8-0.8-1.2-1.7c-0.4-0.9-0.7-1.3-0.9-1.3c-0.2,0-1.1,0.4-2.6,1.1c-2.3,1.1-4.6,1.7-6.7,1.7
				c-2.2,0-4.6-0.8-7-2.5c-2.5-1.7-4.5-3.9-6.2-6.5c-1.6-2.7-2.5-5.4-2.5-8.2c0-1.2,0.1-2.2,0.3-2.9l0.3-1.3l0.2-0.9
				c0.2-1.3,1.1-3.3,2.9-6c2.7-4.2,6.2-6.9,10.5-7.9c0.8-0.2,1.7-0.3,2.6-0.3c3.1,0,5.7,0.8,7.8,2.3c0.6,0.4,1,0.6,1.3,0.6
				s0.4-0.2,0.4-0.6c0-0.3,0.2-0.7,0.7-1.3c0.5-0.6,0.9-1,1.3-1.1C527.6,396.7,528.3,396.6,529.6,396.6z M520.7,409.2
				c-1.3,0-2.5,0.4-3.6,1.2c-1.1,0.8-1.8,1.8-2.2,3.2c-0.2,0.5-0.3,1-0.3,1.6c0,1.5,0.6,2.6,1.8,3.5c1.2,0.9,2.8,1.3,4.8,1.3
				c1.1,0,1.8-0.1,2.1-0.2s0.6-0.4,0.7-0.8c0.1-0.4,0.3-1.2,0.4-2.5c0.2-1.5,0.3-3,0.3-4.4c0-0.8-0.1-1.4-0.2-1.6
				c-0.1-0.2-0.5-0.4-1.2-0.7C522.7,409.4,521.8,409.2,520.7,409.2z"/>
			<path class="st54" d="M547.4,388.1h2c4.3,0.1,6.6,0.6,7,1.8c0.2,1,0.3,8,0.3,21v10.9c0,4.8-0.1,7.9-0.2,9.5
				c-0.1,1.2-0.4,1.9-0.9,2.1c-0.7,0.2-2.6,0.3-5.5,0.3c-0.6,0.1-1.6,0.1-3.1,0.1c-1.6,0-2.6-0.1-3.2-0.4c-0.6-0.3-0.9-0.6-1-1.1
				s-0.1-1.4-0.1-2.9l0.1-1.8v-2.2c0-0.8,0-1.5,0.1-2.1v-2.2c0-2.8-0.1-5.1-0.3-7c-0.4-4.7-0.6-9.3-0.6-13.7c0-3.1,0.2-5.8,0.5-8.1
				c0.3-2.3,0.9-3.7,1.6-3.9C544.7,388.2,545.8,388.1,547.4,388.1z"/>
			<path class="st54" d="M564,388.1h2c4.3,0.1,6.6,0.6,7,1.8c0.2,1,0.3,8,0.3,21v10.9c0,4.8-0.1,7.9-0.2,9.5
				c-0.1,1.2-0.4,1.9-0.9,2.1c-0.7,0.2-2.6,0.3-5.5,0.3c-0.6,0.1-1.6,0.1-3.1,0.1c-1.6,0-2.6-0.1-3.2-0.4c-0.6-0.3-0.9-0.6-1-1.1
				s-0.1-1.4-0.1-2.9l0.1-1.8v-2.2c0-0.8,0-1.5,0.1-2.1v-2.2c0-2.8-0.1-5.1-0.3-7c-0.4-4.7-0.6-9.3-0.6-13.7c0-3.1,0.2-5.8,0.5-8.1
				c0.3-2.3,0.9-3.7,1.6-3.9C561.3,388.2,562.4,388.1,564,388.1z"/>
			<path class="st54" d="M580.2,395.8c2.3-0.6,4.3-1,6-1c1.2,0,2.1,0.2,2.8,0.6c0.7,0.4,1.4,1.2,2.1,2.4c0.8,1.7,2,4.9,3.7,9.7
				c1.3,3.7,2.1,5.6,2.2,5.6c0.2,0,1.7-2.8,4.4-8.3c2.5-4.9,4.1-7.7,4.8-8.4c0.7-0.8,1.9-1.2,3.8-1.2c2.7,0,5.5,0.6,8.2,1.9
				c0.9,0.4,1.3,1,1.3,1.8c0,1.1-1.6,4.8-4.8,11.3c-4.5,9.1-9.4,17.9-14.8,26.4c-1.7,2.7-3.2,4.9-4.4,6.5c-1.2,1.6-2.6,3.2-4.2,4.7
				c-3.3,3.2-7.4,4.9-12.4,4.9c-1.3,0-3-0.2-4.9-0.5c-1.9-0.4-3.5-0.9-4.8-1.6c-1.5-0.7-2.2-1.4-2.2-2.1c0-0.6,0.4-1.6,1.1-3.1
				c0.8-1.5,1.6-2.8,2.6-4.1c0.9-1.3,1.6-1.9,2.1-2.1h0.3c0.6,0,1.1,0.1,1.8,0.3c0.7,0.3,1.6,0.4,2.6,0.4c3.2,0,6-2,8.4-6
				c0.7-1.2,1.1-2.2,1.1-2.9c0-1.1-1.1-4.1-3.4-9.2c-2.1-4.7-4-9.4-5.7-14.2c-1.7-4.8-2.6-7.8-2.6-8.9c0-0.6,0.2-1.1,0.7-1.4
				C576.4,397.1,577.9,396.5,580.2,395.8z"/>
			<path class="st54" d="M650.3,385.2c0,0,1.5,0,4.6,0c3.1,0,5.1,0.1,5.9,0.2c1,0.2,1.5,0.4,1.7,0.6c0.2,0.2,0.3,0.6,0.3,1.3
				l-0.2,4.4l-0.2,2.7l-0.1,1l4,0.1c0.8,0,1.3,0,1.7,0.1c1.4,0,2.3,0.1,2.8,0.3c0.4,0.2,0.7,0.8,0.8,1.8c0.1,1,0.2,2.9,0.2,5.9v1.4
				c0,1.6-0.1,2.6-0.2,3.2c-0.1,0.6-0.4,0.9-0.9,1.1c-0.5,0.2-1.4,0.3-2.7,0.3h-5.4l-0.3,1.8c-0.1,1.3-0.2,2.2-0.2,2.5
				c0,5.8,1.5,8.7,4.4,8.7c0.6,0,1.4-0.3,2.4-0.9s1.6-1,1.8-1.3c0.2-0.2,0.4-0.3,0.6-0.3c0.5,0,1.1,0.4,1.9,1.2
				c0.9,0.9,1.7,2,2.6,3.2c0.8,1.3,1.2,2.1,1.2,2.6c0,0.7-0.8,1.6-2.3,2.9c-1.5,1.2-3.3,2.3-5.4,3.3c-2.7,1.2-5.6,1.8-8.7,1.8
				c-2,0-3.6-0.3-5.1-1c-1.4-0.7-2.9-1.8-4.6-3.5c-1.9-1.9-3.3-3.9-4.1-6.1c-0.8-2.2-1.3-5.5-1.3-9.9v-1.9v-1.2
				c-0.1-0.2-0.1-0.4-0.1-0.8c0-0.3-0.1-0.5-0.2-0.6l-0.3-0.3c-0.1-0.2-0.4-0.3-1.2-0.3l-1-0.1h-1.3c-1.2-0.1-1.9-0.2-2.3-0.3
				c-0.3-0.1-0.6-0.3-0.9-0.8c-0.2-0.4-0.3-1.1-0.3-2.2c0-1.5,0-2.5,0.1-3.1c0.1-1.7,0.2-2.7,0.2-3.2c0.1-0.7,0.1-1.3,0.1-1.8
				s0.1-0.8,0.1-1l0.3-1.2l3.4-0.2c1.7-0.1,2.7-0.1,3-0.3c0.3-0.1,0.4-0.3,0.5-0.5c0.1-1.2,0.2-2.9,0.4-5.1c0.2-2.2,0.4-3.4,0.5-3.5
				c0.3-0.3,0.9-0.6,1.9-0.8C649.8,385.2,650.3,385.2,650.3,385.2z"/>
			<path class="st54" d="M699.3,395.1c1.9,0,3.7,0.1,5.5,0.4c4.2,0.8,7.8,2.4,10.7,4.9c3,2.5,4.8,5.4,5.4,8.8
				c0.2,0.7,0.3,1.7,0.3,2.8c0,3.4-0.5,6.4-1.6,9c-1,2.6-2.7,5-5.1,7.3c-2.2,2.1-4.4,3.6-6.7,4.4c-2.3,0.8-4.7,1.2-7.1,1.2
				c-4.3,0-8.2-1-11.7-3.1s-6.3-4.6-8.3-7.7c-2-3.1-3-6-3-8.8c0-0.9,0.1-2.2,0.4-4c1.8-9,7-14,15.4-15
				C695.7,395.2,697.6,395.1,699.3,395.1z M700,408.4c-0.8,0-1.5,0.2-2,0.6c-2,1.2-3,3-3,5.3c0,0.8,0.2,1.8,0.7,2.8
				c1,2.1,2.6,3.1,4.8,3.1c1.2,0,2.2-0.4,3-1.1s1.3-1.7,1.5-2.9c0.1-0.2,0.1-0.5,0.1-1c0-1.3-0.3-2.6-0.9-3.9
				c-0.6-1.2-1.4-2.1-2.3-2.5C701.2,408.5,700.5,408.4,700,408.4z"/>
			<path class="st54" d="M739.3,397.7c3,0,4.9,0.2,5.7,0.6c0.8,0.4,1.7,1,2.5,1.5l1.3,0.8c0.2,0.1,0.3-0.1,0.5-0.3
				c0.4-0.7,0.7-1.2,1-1.5c0.3-0.3,0.7-0.5,1.2-0.5c0.5-0.1,1.4-0.2,2.8-0.2h1.5c3.7,0,6.2,0.4,7.5,1.1c0.8,0.4,1.3,1.5,1.4,3.1
				c0.2,1.6,0.3,6.1,0.3,13.7c0,8.7-0.1,14.6-0.4,17.5c-0.3,2.7-1.3,5.5-2.8,8.6c-2.8,5.8-7,9.2-12.7,10.5c-1.8,0.4-4.2,0.6-7.4,0.6
				c-2.8,0-5-0.2-6.6-0.5c-1.6-0.4-3.3-1-5.1-1.9c-1.5-0.7-2.6-1.4-3.3-2.1c-0.6-0.6-0.8-1.1-0.8-1.7c0-0.4,0-0.6,0.1-0.8
				c0.2-1.1,0.9-2.8,2.1-5.1c1.2-2.3,2-3.4,2.5-3.4c0.4,0,1.5,0.4,3.3,1.1c2.5,1.1,4.7,1.6,6.7,1.6s3.6-0.7,4.9-2.1
				c1.3-1.4,2.1-3.3,2.6-5.8l0.2-1.2l-1.5,0.8c-2.6,1.2-5.5,1.8-8.6,1.8c-6.6,0-11.3-3.2-14.1-9.5c-1.4-3-2.1-6.3-2.1-9.8
				c0-6,2.1-10.5,6.3-13.5c1.9-1.3,4.1-2.3,6.7-2.9C735.7,397.8,737.2,397.7,739.3,397.7z M746.1,411.1c-2.2,0-3.9,0.5-5.1,1.6
				c-1.2,1-1.8,2.4-1.8,4c0,0.7,0.2,1.4,0.5,2c1,2,2.7,3,5.1,3c1,0,1.9-0.2,2.8-0.5l0.8-0.3v-3.3c0-3.7-0.3-5.8-0.9-6.3
				C747.2,411.2,746.7,411.1,746.1,411.1z"/>
			<path class="st54" d="M787.4,393.4h1.1c2.3,0.1,4.1,0.5,5.4,1.2c1.3,0.7,3,2,4.9,3.9c3,3,4.9,6.3,5.8,9.7
				c0.3,1.4,0.4,2.6,0.4,3.5c0,3.4-0.6,5.3-1.7,5.8h-13.9c-4.4,0-6.6,0-6.6,0.1c0,0.7,0.6,1.4,1.9,2.1c1.3,0.8,2.8,1.3,4.5,1.7
				c0.9,0.2,1.8,0.3,2.6,0.3c1.3,0,3-0.3,5.1-1c1.6-0.4,2.7-0.7,3.1-0.7c0.6,0,1,0.2,1.3,0.5c0.4,0.6,1,1.6,1.8,3.1
				c0.8,1.5,1.2,2.6,1.2,3.2c0,1.2-1,2.4-3.1,3.6c-2,1.2-4.1,2.1-6.3,2.6c-2.2,0.5-4.8,0.8-7.8,0.8c-3.7,0-6.5-0.3-8.5-1
				c-2-0.7-4.2-2.1-6.5-4.4c-2.3-2.2-3.9-4.4-4.7-6.5c-0.8-2.1-1.3-4.6-1.3-7.5c0-3.1,0.5-6,1.4-8.5c0.9-2.6,2.7-4.9,5.2-7.1
				c2.7-2.3,6.1-4,10.2-4.9C784.4,393.5,785.9,393.4,787.4,393.4z M787.2,404.8c-1.2,0-2.3,0.4-3.2,1.1c-0.9,0.7-1.4,1.6-1.5,2.8
				l-0.1,1l4.1,0.3l3.4,0.2h0.4c0.2,0,0.4,0,0.4-0.1h0.2h0.2c0.2-0.1,0.3-0.4,0.3-1c0-0.7-0.2-1.4-0.5-2.1
				C790.2,405.5,788.9,404.8,787.2,404.8z"/>
			<path class="st54" d="M818.1,385.2c0,0,1.5,0,4.6,0c3.1,0,5.1,0.1,5.9,0.2c1,0.2,1.5,0.4,1.7,0.6c0.2,0.2,0.3,0.6,0.3,1.3
				l-0.2,4.4l-0.2,2.7l-0.1,1l4,0.1c0.8,0,1.3,0,1.7,0.1c1.4,0,2.3,0.1,2.8,0.3c0.4,0.2,0.7,0.8,0.8,1.8c0.1,1,0.2,2.9,0.2,5.9v1.4
				c0,1.6-0.1,2.6-0.2,3.2c-0.1,0.6-0.4,0.9-0.9,1.1c-0.5,0.2-1.4,0.3-2.7,0.3h-5.4l-0.3,1.8c-0.1,1.3-0.2,2.2-0.2,2.5
				c0,5.8,1.5,8.7,4.4,8.7c0.6,0,1.4-0.3,2.4-0.9s1.6-1,1.8-1.3c0.2-0.2,0.4-0.3,0.6-0.3c0.5,0,1.1,0.4,1.9,1.2
				c0.9,0.9,1.7,2,2.6,3.2c0.8,1.3,1.2,2.1,1.2,2.6c0,0.7-0.8,1.6-2.3,2.9c-1.5,1.2-3.3,2.3-5.4,3.3c-2.7,1.2-5.6,1.8-8.7,1.8
				c-2,0-3.6-0.3-5.1-1c-1.4-0.7-2.9-1.8-4.6-3.5c-1.9-1.9-3.3-3.9-4.1-6.1c-0.8-2.2-1.3-5.5-1.3-9.9v-1.9v-1.2
				c-0.1-0.2-0.1-0.4-0.1-0.8c0-0.3-0.1-0.5-0.2-0.6l-0.3-0.3c-0.1-0.2-0.4-0.3-1.2-0.3l-1-0.1h-1.3c-1.2-0.1-1.9-0.2-2.3-0.3
				c-0.3-0.1-0.6-0.3-0.9-0.8c-0.2-0.4-0.3-1.1-0.3-2.2c0-1.5,0-2.5,0.1-3.1c0.1-1.7,0.2-2.7,0.2-3.2c0.1-0.7,0.1-1.3,0.1-1.8
				s0.1-0.8,0.1-1l0.3-1.2l3.4-0.2c1.7-0.1,2.7-0.1,3-0.3c0.3-0.1,0.4-0.3,0.5-0.5c0.1-1.2,0.2-2.9,0.4-5.1c0.2-2.2,0.4-3.4,0.5-3.5
				c0.3-0.3,0.9-0.6,1.9-0.8C817.6,385.2,818.1,385.2,818.1,385.2z"/>
			<path class="st54" d="M851.7,383.7c4.9,0,8,0.5,9.5,1.4c0.7,0.4,1.1,1.1,1.4,2.1c0.2,0.9,0.3,2.7,0.3,5.5c0,3.2,0.1,4.9,0.3,4.9
				l0.3-0.2c0.4-0.2,0.6-0.4,0.8-0.4l0.8-0.4c1.8-0.9,3.8-1.3,5.9-1.3c0.6,0,0.9,0,1.1,0.1c1.3,0.2,2.8,0.5,4.4,1.1
				c1.7,0.6,2.9,1.1,3.6,1.6c1.8,1.4,3.4,3.5,4.5,6.5c1.2,2.9,2,5.8,2.6,8.8c0.5,3,0.8,5.3,0.8,7.1v1.6c-0.1,0.6-0.1,1.3-0.1,2.1
				c-0.1,1.3-0.1,2.7-0.1,4.2c0,0.7-0.1,1.6-0.4,2.6c-0.3,1-0.5,1.6-0.8,1.8c-0.2,0.2-0.8,0.5-1.7,0.8c-0.9,0.3-1.7,0.4-2.4,0.4
				h-3.9c-3.7,0-5.9-0.2-6.5-0.6l-0.8-0.5v-5.8c0-6.8-0.4-11.2-1.1-13.4c-0.3-1-0.8-1.9-1.5-2.7c-0.7-0.8-1.2-1.2-1.7-1.2
				c-0.6,0-1.3,0.3-2.1,1c-0.8,0.6-1.4,1.4-1.8,2.4c-0.4,1-0.7,1.8-0.8,2.4c-0.2,1.3-0.3,3.9-0.3,7.8c-0.1,4.5-0.3,7.4-0.5,8.6
				c-0.2,1.2-0.5,1.9-0.9,2.2c-0.4,0.3-1.2,0.4-2.4,0.4c-3.2,0-5.7-0.2-7.5-0.6c-1.6-0.4-2.6-0.8-2.8-1.2c-0.6-0.7-0.9-2-1-4.1
				c-0.1-2.1-0.3-5.8-0.4-11.1l-0.1-5.7c-0.2-12.1-0.3-19.4-0.3-21.9c0-1.8,0.1-3.2,0.4-4.2c0.3-0.9,0.8-1.5,1.4-1.8
				C848.9,383.8,850.1,383.7,851.7,383.7z"/>
			<path class="st54" d="M909.8,393.4h1.1c2.3,0.1,4.1,0.5,5.4,1.2c1.3,0.7,3,2,4.9,3.9c3,3,4.9,6.3,5.8,9.7
				c0.3,1.4,0.4,2.6,0.4,3.5c0,3.4-0.6,5.3-1.7,5.8h-13.9c-4.4,0-6.6,0-6.6,0.1c0,0.7,0.6,1.4,1.9,2.1c1.3,0.8,2.8,1.3,4.5,1.7
				c0.9,0.2,1.8,0.3,2.6,0.3c1.3,0,3-0.3,5.1-1c1.6-0.4,2.7-0.7,3.1-0.7c0.6,0,1,0.2,1.3,0.5c0.4,0.6,1,1.6,1.8,3.1
				c0.8,1.5,1.2,2.6,1.2,3.2c0,1.2-1,2.4-3.1,3.6c-2,1.2-4.1,2.1-6.3,2.6c-2.2,0.5-4.8,0.8-7.8,0.8c-3.7,0-6.5-0.3-8.5-1
				c-2-0.7-4.2-2.1-6.5-4.4c-2.3-2.2-3.9-4.4-4.7-6.5c-0.8-2.1-1.3-4.6-1.3-7.5c0-3.1,0.5-6,1.4-8.5c0.9-2.6,2.7-4.9,5.2-7.1
				c2.7-2.3,6.1-4,10.2-4.9C906.8,393.5,908.3,393.4,909.8,393.4z M909.5,404.8c-1.2,0-2.3,0.4-3.2,1.1c-0.9,0.7-1.4,1.6-1.5,2.8
				l-0.1,1l4.1,0.3l3.4,0.2h0.4c0.2,0,0.4,0,0.4-0.1h0.2h0.2c0.2-0.1,0.3-0.4,0.3-1c0-0.7-0.2-1.4-0.5-2.1
				C912.6,405.5,911.3,404.8,909.5,404.8z"/>
			<path class="st54" d="M931.7,396.1c0.5-0.3,1.7-0.5,3.6-0.5c2,0,3.8,0.1,5.6,0.4c1.8,0.3,2.8,0.6,3.1,1.1
				c0.4,0.4,0.6,0.8,0.6,1.2c0,0.1,0.1,0.1,0.2,0.1c0.3,0,1.1-0.3,2.3-0.9c2.3-1.2,4.5-1.8,6.4-1.8c2,0,4,0.6,6,1.7
				c2.1,1.1,3.1,2.3,3.1,3.5c0,0.7-0.5,2-1.4,4.1c-1,2-1.8,3.6-2.5,4.7c-0.6,0.8-1.1,1.3-1.8,1.3c-0.2,0-0.8-0.1-1.8-0.4
				c-1-0.3-2-0.5-2.8-0.5c-1.9,0-3.4,0.8-4.6,2.3c-2,2.6-3,8.2-3,16.8v1.2c0,1.2-0.1,2.1-0.2,2.6c-0.1,0.5-0.5,0.8-1,1
				c-0.5,0.2-1.4,0.3-2.6,0.3l-1.4-0.1h-1.8c-3.9-0.1-6.1-0.4-6.7-0.8c-0.7-0.4-1-0.9-1.1-1.4c-0.2-0.6-0.3-2.7-0.3-6.3
				c0-5.4,0.1-11.3,0.4-17.6c0.3-6.3,0.5-9.8,0.8-10.5C930.9,396.8,931.3,396.3,931.7,396.1z"/>
			<path class="st54" d="M1009.6,395.3l3.7,0.2l1.8,0.1c2.6,0.1,4.4,0.3,5.3,0.7c0.9,0.3,1.6,1.2,2,2.5c0.4,1.3,0.9,3.9,1.3,7.7
				c0.2,1.1,0.3,2.2,0.4,3.4c0.1,1.2,0.2,2.1,0.3,2.8c0.1,1.1,0.3,1.5,0.4,1.4c0.4-0.4,0.9-1.3,1.4-2.8c3.9-8.9,6.1-13.5,6.5-13.9
				c0.4-0.3,1.2-0.5,2.3-0.5c1.2,0,2.9,0.2,5.1,0.5c2.2,0.3,3.6,0.6,4.3,0.9c0.6,0.3,0.9,0.9,0.9,1.7l-0.2,1.6
				c-0.8,5-3.4,12.7-7.8,23.2l-0.8,2c-1.4,3.5-2.5,5.6-3.2,6.5c-0.7,0.9-2,1.3-3.7,1.3l-2-0.2c-0.6-0.1-1.3-0.1-2.2-0.1l-3.9-0.2
				c-1.1,0-1.8,0.1-2.2,0.2c-0.3,0.2-0.8,0.3-1.3,0.3c-1,0-1.8-0.1-2.5-0.4c-0.7-0.3-1.1-0.8-1.4-1.6c-0.3-0.8-0.8-3-1.3-6.5
				c-0.5-4-0.9-6.3-1.1-6.9l-0.3-0.9l-0.5,1.3c-0.8,2-2,4.6-3.5,8c-1.5,3.4-2.4,5.2-2.6,5.4c-0.5,0.5-1.4,0.8-2.7,0.8
				c-1.5,0-3.5-0.1-6-0.3c-2.5-0.2-4-0.4-4.5-0.7c-0.8-0.3-1.5-1.3-2.2-3.1c-0.6-1.4-1.7-4.9-3.2-10.6c-3-11.2-4.4-17.7-4.4-19.5
				c0-0.4,0.3-0.8,1-1c2.1-0.7,5.2-1,9.1-1c1.8,0,2.9,0.1,3.2,0.4c0.3,0.5,1,3.6,2.2,9.4c1.3,6,2,9,2.1,9c0.3,0,2.3-4.6,6-13.8
				c1.3-3.1,2.3-5.1,2.9-5.9L1009.6,395.3z"/>
			<path class="st54" d="M1068.4,393.4h1.1c2.3,0.1,4.1,0.5,5.4,1.2c1.3,0.7,3,2,4.9,3.9c3,3,4.9,6.3,5.8,9.7
				c0.3,1.4,0.4,2.6,0.4,3.5c0,3.4-0.6,5.3-1.7,5.8h-13.9c-4.4,0-6.6,0-6.6,0.1c0,0.7,0.6,1.4,1.9,2.1c1.3,0.8,2.8,1.3,4.5,1.7
				c0.9,0.2,1.8,0.3,2.6,0.3c1.3,0,3-0.3,5.1-1c1.6-0.4,2.7-0.7,3.1-0.7c0.6,0,1,0.2,1.3,0.5c0.4,0.6,1,1.6,1.8,3.1
				c0.8,1.5,1.2,2.6,1.2,3.2c0,1.2-1,2.4-3.1,3.6c-2,1.2-4.1,2.1-6.3,2.6c-2.2,0.5-4.8,0.8-7.8,0.8c-3.7,0-6.5-0.3-8.5-1
				c-2-0.7-4.2-2.1-6.5-4.4c-2.3-2.2-3.9-4.4-4.7-6.5c-0.8-2.1-1.3-4.6-1.3-7.5c0-3.1,0.5-6,1.4-8.5c0.9-2.6,2.7-4.9,5.2-7.1
				c2.7-2.3,6.1-4,10.2-4.9C1065.4,393.5,1066.9,393.4,1068.4,393.4z M1068.1,404.8c-1.2,0-2.3,0.4-3.2,1.1
				c-0.9,0.7-1.4,1.6-1.5,2.8l-0.1,1l4.1,0.3l3.4,0.2h0.4c0.2,0,0.4,0,0.4-0.1h0.2h0.2c0.2-0.1,0.3-0.4,0.3-1c0-0.7-0.2-1.4-0.5-2.1
				C1071.2,405.5,1069.9,404.8,1068.1,404.8z"/>
			<path class="st54" d="M371.1,470c2.2,0,4.2,0.2,6.1,0.6c1.9,0.4,3.9,1.1,6.2,2.3c2.3,1.2,3.5,2.1,3.5,2.7c0,0.4-0.6,1.5-1.7,3.4
				c-1.1,1.8-2.2,3.4-3.2,4.5c-0.7,0.9-1.4,1.3-2,1.3c-0.5,0-1.2-0.3-2.2-0.9c-2.1-1.3-4.1-2-6-2c-1.2,0-2.2,0.2-2.9,0.5
				c-0.7,0.3-1.4,1-2.1,1.8c-1.6,2.1-2.4,4.3-2.4,6.6c0,0.6,0.1,1.2,0.3,1.8c1,2.3,2.9,3.5,5.9,3.5l0.5-0.1h0.5
				c1.7-0.2,3.8-1.1,6.4-2.8c1.1-0.7,1.7-1.1,2-1.1c0.2,0,0.4,0.1,0.7,0.3c0.6,0.3,1.4,1.3,2.6,2.8c1.1,1.5,2.1,3,2.7,4.4
				c0.7,1.4,1,2.3,1,2.8c0,0.8-0.6,1.6-1.9,2.3c-4.1,2.7-9.4,4.1-16,4.1c-1.4,0-3-0.1-4.8-0.4c-3.2-0.7-6.2-2-8.9-4.1
				s-4.4-4.4-5.2-7c-0.4-1.6-0.7-3.6-0.7-5.9c0-1.8,0.1-3.2,0.3-4.1c0.8-3.4,2.2-6.5,4.4-9.1c2.1-2.7,4.2-4.6,6.4-5.9
				c1.7-1,3.9-1.7,6.5-2.1C368.1,470.1,369.4,470,371.1,470z"/>
			<path class="st54" d="M418,471.4c3.1,0,5.6,0.2,7.3,0.6c1.2,0.3,2.1,0.7,2.7,1.3c0.6,0.6,1,1.6,1.3,2.8c0.2,0.7,0.3,3.2,0.3,7.5
				c0,9.6-0.2,16.1-0.6,19.5c-0.2,1.8-0.4,3.1-0.8,3.8s-1,1.1-2,1.3c-1,0.2-2.8,0.4-5.6,0.5c-0.7,0.1-1.9,0.1-3.6,0.1
				c-1.2,0-2-0.1-2.4-0.4c-0.4-0.3-0.8-0.8-1.2-1.7c-0.4-0.9-0.7-1.3-0.9-1.3c-0.2,0-1.1,0.4-2.6,1.1c-2.3,1.1-4.6,1.7-6.7,1.7
				c-2.2,0-4.6-0.8-7-2.5c-2.5-1.7-4.5-3.9-6.2-6.5c-1.6-2.7-2.5-5.4-2.5-8.2c0-1.2,0.1-2.2,0.3-2.9l0.3-1.3l0.2-0.9
				c0.2-1.3,1.1-3.3,2.9-6c2.7-4.2,6.2-6.9,10.5-7.9c0.8-0.2,1.7-0.3,2.6-0.3c3.1,0,5.7,0.8,7.8,2.3c0.6,0.4,1,0.6,1.3,0.6
				s0.4-0.2,0.4-0.6c0-0.3,0.2-0.7,0.7-1.3c0.5-0.6,0.9-1,1.3-1.1C416.1,471.4,416.8,471.4,418,471.4z M409.1,483.9
				c-1.3,0-2.5,0.4-3.6,1.2c-1.1,0.8-1.8,1.8-2.2,3.2c-0.2,0.5-0.3,1-0.3,1.6c0,1.5,0.6,2.6,1.8,3.5c1.2,0.9,2.8,1.3,4.8,1.3
				c1.1,0,1.8-0.1,2.1-0.2c0.4-0.1,0.6-0.4,0.7-0.8c0.1-0.4,0.3-1.2,0.4-2.5c0.2-1.5,0.3-3,0.3-4.4c0-0.8-0.1-1.4-0.2-1.6
				c-0.1-0.2-0.5-0.4-1.2-0.7C411.1,484.1,410.2,483.9,409.1,483.9z"/>
			<path class="st54" d="M458.1,469.8c3.9,0,6.9,1.1,9.1,3.2c2.2,2.1,3.7,4.8,4.7,8c0.4,1.5,0.7,6,0.8,13.4v5.3c0,3.9-0.2,6-0.5,6.3
				c-0.2,0.3-0.7,0.5-1.3,0.6c-0.7,0.1-2.7,0.2-6,0.3l-6.9,0.2l-0.3-0.8c-0.1-0.2-0.2-2.9-0.5-8.1c-0.1-4.2-0.3-7.4-0.6-9.6
				c-0.3-1.6-1-3-1.9-4c-0.5-0.5-1.2-0.8-2-0.8c-4.1,0-6.1,3.8-6.1,11.5c0,2.2,0,3.7,0.1,4.4c0.1,1.1,0.1,2.8,0.1,5.1
				c0,1.5-0.1,2.3-0.3,2.4s-1.7,0.3-4.7,0.4c-3,0.1-5.6,0.2-7.8,0.2c-0.9,0-1.5-0.1-1.8-0.2c-0.3-0.1-0.5-0.4-0.6-0.8
				c-0.1-0.4-0.2-1.1-0.3-2.1c-0.1-0.7-0.1-3.2-0.1-7.6l-0.1-7.5v-8.3l-0.1-6c0-1.6,0.1-2.7,0.3-3.3c0.2-0.6,0.6-1.1,1.2-1.3
				c0.6-0.2,1.6-0.3,3.1-0.3h4.2c3.1,0,4.9,0.1,5.6,0.4c0.6,0.2,0.8,1.1,0.8,2.7c0,1.3,0.1,2,0.3,2s0.8-0.5,1.9-1.6
				c2-1.8,4-3,6.1-3.6C455.5,470,456.8,469.8,458.1,469.8z"/>
			<path class="st54" d="M508.4,472.4c3,0,4.9,0.2,5.7,0.6c0.8,0.4,1.7,1,2.5,1.5l1.3,0.8c0.2,0.1,0.3-0.1,0.5-0.3
				c0.4-0.7,0.7-1.2,1-1.5c0.3-0.3,0.7-0.5,1.2-0.5c0.5-0.1,1.4-0.2,2.8-0.2h1.5c3.7,0,6.2,0.4,7.5,1.1c0.8,0.4,1.3,1.5,1.4,3.1
				c0.2,1.6,0.3,6.1,0.3,13.7c0,8.7-0.1,14.6-0.4,17.5c-0.3,2.7-1.3,5.5-2.8,8.6c-2.8,5.8-7,9.2-12.7,10.5c-1.8,0.4-4.2,0.6-7.4,0.6
				c-2.8,0-5-0.2-6.6-0.5c-1.6-0.4-3.3-1-5.1-1.9c-1.5-0.7-2.6-1.4-3.3-2.1c-0.6-0.6-0.8-1.1-0.8-1.7c0-0.4,0-0.6,0.1-0.8
				c0.2-1.1,0.9-2.8,2.1-5.1c1.2-2.3,2-3.4,2.5-3.4c0.4,0,1.5,0.4,3.3,1.1c2.5,1.1,4.7,1.6,6.7,1.6s3.6-0.7,4.9-2.1
				c1.3-1.4,2.1-3.3,2.6-5.8l0.2-1.2l-1.5,0.8c-2.6,1.2-5.5,1.8-8.6,1.8c-6.6,0-11.3-3.2-14.1-9.5c-1.4-3-2.1-6.3-2.1-9.8
				c0-6,2.1-10.5,6.3-13.5c1.9-1.3,4.1-2.3,6.7-2.9C504.8,472.5,506.2,472.4,508.4,472.4z M515.2,485.9c-2.2,0-3.9,0.5-5.1,1.6
				c-1.2,1-1.8,2.4-1.8,4c0,0.7,0.2,1.4,0.5,2c1,2,2.7,3,5.1,3c0.9,0,1.9-0.2,2.8-0.5l0.8-0.3v-3.3c0-3.7-0.3-5.8-0.9-6.3
				C516.2,485.9,515.8,485.9,515.2,485.9z"/>
			<path class="st54" d="M556.7,469.8c1.9,0,3.7,0.1,5.5,0.4c4.2,0.8,7.8,2.4,10.7,4.9c3,2.5,4.8,5.4,5.4,8.8
				c0.2,0.7,0.3,1.7,0.3,2.8c0,3.4-0.5,6.4-1.6,9c-1,2.6-2.7,5-5.1,7.3c-2.2,2.1-4.4,3.6-6.7,4.4c-2.3,0.8-4.7,1.2-7.1,1.2
				c-4.3,0-8.2-1-11.7-3.1s-6.3-4.6-8.3-7.7c-2-3.1-3-6-3-8.8c0-0.9,0.1-2.2,0.4-4c1.8-9,7-14,15.4-15
				C553.1,469.9,555,469.8,556.7,469.8z M557.4,483.1c-0.8,0-1.5,0.2-2,0.6c-2,1.2-3,3-3,5.3c0,0.8,0.2,1.8,0.7,2.8
				c1,2.1,2.6,3.1,4.8,3.1c1.2,0,2.2-0.4,3-1.1s1.3-1.7,1.5-2.9c0.1-0.2,0.1-0.5,0.1-1c0-1.3-0.3-2.6-0.9-3.9
				c-0.6-1.2-1.4-2.1-2.3-2.5C558.6,483.2,558,483.1,557.4,483.1z"/>
			<path class="st54" d="M609.4,459.9c0,0,1.5,0,4.6,0c3.1,0,5.1,0.1,5.9,0.2c1,0.2,1.5,0.4,1.7,0.6c0.2,0.2,0.3,0.6,0.3,1.3
				l-0.2,4.4l-0.2,2.7l-0.1,1l4,0.1c0.8,0,1.3,0,1.7,0.1c1.4,0,2.3,0.1,2.8,0.3c0.4,0.2,0.7,0.8,0.8,1.8c0.1,1,0.2,2.9,0.2,5.9v1.4
				c0,1.6-0.1,2.6-0.2,3.2c-0.1,0.6-0.4,0.9-0.9,1.1c-0.5,0.2-1.4,0.3-2.7,0.3h-5.4l-0.3,1.8c-0.1,1.3-0.2,2.2-0.2,2.5
				c0,5.8,1.5,8.7,4.4,8.7c0.6,0,1.4-0.3,2.4-0.9s1.6-1,1.8-1.3c0.2-0.2,0.4-0.3,0.6-0.3c0.5,0,1.1,0.4,1.9,1.2
				c0.9,0.9,1.7,2,2.6,3.2c0.8,1.3,1.2,2.1,1.2,2.6c0,0.7-0.8,1.6-2.3,2.9c-1.5,1.2-3.3,2.3-5.4,3.3c-2.7,1.2-5.6,1.8-8.7,1.8
				c-2,0-3.6-0.3-5.1-1c-1.4-0.7-2.9-1.8-4.6-3.5c-1.9-1.9-3.3-3.9-4.1-6.1c-0.8-2.2-1.3-5.5-1.3-9.9v-1.9v-1.2
				c-0.1-0.2-0.1-0.4-0.1-0.8c0-0.3-0.1-0.5-0.2-0.6l-0.3-0.3c-0.1-0.2-0.4-0.3-1.2-0.3l-1-0.1h-1.3c-1.2-0.1-1.9-0.2-2.3-0.3
				c-0.3-0.1-0.6-0.3-0.9-0.8c-0.2-0.4-0.3-1.1-0.3-2.2c0-1.5,0-2.5,0.1-3.1c0.1-1.7,0.2-2.7,0.2-3.2c0.1-0.7,0.1-1.3,0.1-1.8
				s0.1-0.8,0.1-1l0.3-1.2l3.4-0.2c1.7-0.1,2.7-0.1,3-0.3c0.3-0.1,0.4-0.3,0.5-0.5c0.1-1.2,0.2-2.9,0.4-5.1c0.2-2.2,0.4-3.4,0.5-3.5
				c0.3-0.3,0.9-0.6,1.9-0.8C608.9,459.9,609.4,459.9,609.4,459.9z"/>
			<path class="st54" d="M658.4,469.8c1.9,0,3.7,0.1,5.5,0.4c4.2,0.8,7.8,2.4,10.7,4.9c3,2.5,4.8,5.4,5.4,8.8
				c0.2,0.7,0.3,1.7,0.3,2.8c0,3.4-0.5,6.4-1.6,9c-1,2.6-2.7,5-5.1,7.3c-2.2,2.1-4.4,3.6-6.7,4.4c-2.3,0.8-4.7,1.2-7.1,1.2
				c-4.3,0-8.2-1-11.7-3.1s-6.3-4.6-8.3-7.7c-2-3.1-3-6-3-8.8c0-0.9,0.1-2.2,0.4-4c1.8-9,7-14,15.4-15
				C654.8,469.9,656.7,469.8,658.4,469.8z M659.1,483.1c-0.8,0-1.5,0.2-2,0.6c-2,1.2-3,3-3,5.3c0,0.8,0.2,1.8,0.7,2.8
				c1,2.1,2.6,3.1,4.8,3.1c1.2,0,2.2-0.4,3-1.1s1.3-1.7,1.5-2.9c0.1-0.2,0.1-0.5,0.1-1c0-1.3-0.3-2.6-0.9-3.9
				c-0.6-1.2-1.4-2.1-2.3-2.5C660.3,483.2,659.6,483.1,659.1,483.1z"/>
			<path class="st54" d="M711,459.9c0,0,1.5,0,4.6,0c3.1,0,5.1,0.1,5.9,0.2c1,0.2,1.5,0.4,1.7,0.6c0.2,0.2,0.3,0.6,0.3,1.3l-0.2,4.4
				l-0.2,2.7l-0.1,1l4,0.1c0.8,0,1.3,0,1.7,0.1c1.4,0,2.3,0.1,2.8,0.3c0.4,0.2,0.7,0.8,0.8,1.8c0.1,1,0.2,2.9,0.2,5.9v1.4
				c0,1.6-0.1,2.6-0.2,3.2c-0.1,0.6-0.4,0.9-0.9,1.1c-0.5,0.2-1.4,0.3-2.7,0.3h-5.4l-0.3,1.8c-0.1,1.3-0.2,2.2-0.2,2.5
				c0,5.8,1.5,8.7,4.4,8.7c0.6,0,1.4-0.3,2.4-0.9s1.6-1,1.8-1.3c0.2-0.2,0.4-0.3,0.6-0.3c0.5,0,1.1,0.4,1.9,1.2
				c0.9,0.9,1.7,2,2.6,3.2c0.8,1.3,1.2,2.1,1.2,2.6c0,0.7-0.8,1.6-2.3,2.9c-1.5,1.2-3.3,2.3-5.4,3.3c-2.7,1.2-5.6,1.8-8.7,1.8
				c-2,0-3.6-0.3-5.1-1c-1.4-0.7-2.9-1.8-4.6-3.5c-1.9-1.9-3.3-3.9-4.1-6.1c-0.8-2.2-1.3-5.5-1.3-9.9v-1.9v-1.2
				c-0.1-0.2-0.1-0.4-0.1-0.8c0-0.3-0.1-0.5-0.2-0.6l-0.3-0.3c-0.1-0.2-0.4-0.3-1.2-0.3l-1-0.1h-1.3c-1.2-0.1-1.9-0.2-2.3-0.3
				c-0.3-0.1-0.6-0.3-0.9-0.8c-0.2-0.4-0.3-1.1-0.3-2.2c0-1.5,0-2.5,0.1-3.1c0.1-1.7,0.2-2.7,0.2-3.2c0.1-0.7,0.1-1.3,0.1-1.8
				s0.1-0.8,0.1-1l0.3-1.2l3.4-0.2c1.7-0.1,2.7-0.1,3-0.3c0.3-0.1,0.4-0.3,0.5-0.5c0.1-1.2,0.2-2.9,0.4-5.1c0.2-2.2,0.4-3.4,0.5-3.5
				c0.3-0.3,0.9-0.6,1.9-0.8C710.5,459.9,711,459.9,711,459.9z"/>
			<path class="st54" d="M744.7,458.4c4.9,0,8,0.5,9.5,1.4c0.7,0.4,1.1,1.1,1.4,2.1c0.2,0.9,0.3,2.7,0.3,5.5c0,3.2,0.1,4.9,0.3,4.9
				l0.3-0.2c0.4-0.2,0.6-0.4,0.8-0.4l0.8-0.4c1.8-0.9,3.8-1.3,5.9-1.3c0.6,0,0.9,0,1.1,0.1c1.3,0.2,2.8,0.5,4.4,1.1
				c1.7,0.6,2.9,1.1,3.6,1.6c1.8,1.4,3.4,3.5,4.5,6.5c1.2,2.9,2,5.8,2.6,8.8c0.5,3,0.8,5.3,0.8,7.1v1.6c-0.1,0.6-0.1,1.3-0.1,2.1
				c-0.1,1.3-0.1,2.7-0.1,4.2c0,0.7-0.1,1.6-0.4,2.6c-0.3,1-0.5,1.6-0.8,1.8c-0.2,0.2-0.8,0.5-1.7,0.8c-0.9,0.3-1.7,0.4-2.4,0.4
				h-3.9c-3.7,0-5.9-0.2-6.5-0.6l-0.8-0.5v-5.8c0-6.8-0.4-11.2-1.1-13.4c-0.3-1-0.8-1.9-1.5-2.7c-0.7-0.8-1.2-1.2-1.7-1.2
				c-0.6,0-1.3,0.3-2.1,1c-0.8,0.6-1.4,1.4-1.8,2.4c-0.4,1-0.7,1.8-0.8,2.4c-0.2,1.3-0.3,3.9-0.3,7.8c-0.1,4.5-0.3,7.4-0.5,8.6
				c-0.2,1.2-0.5,1.9-0.9,2.2c-0.4,0.3-1.2,0.4-2.4,0.4c-3.2,0-5.7-0.2-7.5-0.6c-1.6-0.4-2.6-0.8-2.8-1.2c-0.6-0.7-0.9-2-1-4.1
				c-0.1-2.1-0.3-5.8-0.4-11.1l-0.1-5.7c-0.2-12.1-0.3-19.4-0.3-21.9c0-1.8,0.1-3.2,0.4-4.2c0.3-0.9,0.8-1.5,1.4-1.8
				C741.9,458.5,743.1,458.4,744.7,458.4z"/>
			<path class="st54" d="M802.7,468.1h1.1c2.3,0.1,4.1,0.5,5.4,1.2c1.3,0.7,3,2,4.9,3.9c3,3,4.9,6.3,5.8,9.7
				c0.3,1.4,0.4,2.6,0.4,3.5c0,3.4-0.6,5.3-1.7,5.8h-13.9c-4.4,0-6.6,0-6.6,0.1c0,0.7,0.6,1.4,1.9,2.1c1.3,0.8,2.8,1.3,4.5,1.7
				c0.9,0.2,1.8,0.3,2.6,0.3c1.3,0,3-0.3,5.1-1c1.6-0.4,2.7-0.7,3.1-0.7c0.6,0,1,0.2,1.3,0.5c0.4,0.6,1,1.6,1.8,3.1
				c0.8,1.5,1.2,2.6,1.2,3.2c0,1.2-1,2.4-3.1,3.6c-2,1.2-4.1,2.1-6.3,2.6c-2.2,0.5-4.8,0.8-7.8,0.8c-3.7,0-6.5-0.3-8.5-1
				c-2-0.7-4.2-2.1-6.5-4.4c-2.3-2.2-3.9-4.4-4.7-6.5c-0.8-2.1-1.3-4.6-1.3-7.5c0-3.1,0.5-6,1.4-8.5c0.9-2.6,2.7-4.9,5.2-7.1
				c2.7-2.3,6.1-4,10.2-4.9C799.8,468.2,801.2,468.1,802.7,468.1z M802.5,479.5c-1.2,0-2.3,0.4-3.2,1.1c-0.9,0.7-1.4,1.6-1.5,2.8
				l-0.1,1l4.1,0.3l3.4,0.2h0.4c0.2,0,0.4,0,0.4-0.1h0.2h0.2c0.2-0.1,0.3-0.4,0.3-1c0-0.7-0.2-1.4-0.5-2.1
				C805.5,480.2,804.3,479.5,802.5,479.5z"/>
			<path class="st54" d="M845,471.6h2.5c3.7,0.1,5.9,0.3,6.5,0.4c0.8,0.3,1.2,1,1.2,2.2c0,1,0.1,1.4,0.3,1.4l2.9-0.7
				c1.8-0.5,3.7-0.8,5.5-0.8c3.2,0,6.1,0.7,8.6,2.2c0.9,0.5,2,1.4,3.2,2.8c1.3,1.4,2.2,2.6,2.9,3.7c1.3,2.5,1.9,5,1.9,7.6
				c0,4.8-1.8,9.1-5.5,12.7c-1.8,1.8-3.6,3.1-5.2,3.9s-3.4,1.1-5.5,1.1c-1.8,0-4.6-0.6-8.3-1.8H856c-0.3,0-0.5,2.2-0.6,6.5l-0.1,6.7
				l-0.9,0.8l-0.9,0.8l-6.3-0.1c-3-0.1-4.8-0.2-5.4-0.3c-0.8-0.1-1.3-0.3-1.5-0.6c-0.2-0.3-0.4-1.7-0.5-4.2
				c-0.1-1.6-0.1-8.1-0.1-19.5c0-15.4,0.1-23.4,0.3-23.9c0.2-0.5,0.6-0.9,1.1-1.1C841.5,471.7,842.9,471.6,845,471.6z M861.9,484
				c-0.6,0-1.2,0.1-1.7,0.3c-0.8,0.3-1.6,0.9-2.6,1.8l-1.6,1.5l0.3,3.1c0.3,2,0.5,3.2,0.7,3.5c0.2,0.5,0.6,0.9,1.2,1.1
				c0.6,0.2,1.4,0.3,2.2,0.3c1.7,0,3.2-0.6,4.4-1.7c1.2-1.1,1.8-2.6,1.8-4.4c0-2.1-0.6-3.7-1.9-4.7C864,484.3,863.1,484,861.9,484z"
				/>
			<path class="st54" d="M911.8,471.4c3.1,0,5.6,0.2,7.3,0.6c1.2,0.3,2.1,0.7,2.7,1.3c0.6,0.6,1,1.6,1.3,2.8
				c0.2,0.7,0.3,3.2,0.3,7.5c0,9.6-0.2,16.1-0.6,19.5c-0.2,1.8-0.4,3.1-0.8,3.8c-0.3,0.7-1,1.1-2,1.3c-1,0.2-2.8,0.4-5.6,0.5
				c-0.7,0.1-1.9,0.1-3.6,0.1c-1.2,0-2-0.1-2.4-0.4c-0.4-0.3-0.8-0.8-1.2-1.7c-0.4-0.9-0.7-1.3-0.9-1.3c-0.2,0-1.1,0.4-2.6,1.1
				c-2.3,1.1-4.6,1.7-6.7,1.7c-2.2,0-4.6-0.8-7-2.5c-2.5-1.7-4.5-3.9-6.2-6.5c-1.6-2.7-2.5-5.4-2.5-8.2c0-1.2,0.1-2.2,0.3-2.9
				l0.3-1.3l0.2-0.9c0.2-1.3,1.1-3.3,2.9-6c2.7-4.2,6.2-6.9,10.5-7.9c0.8-0.2,1.7-0.3,2.6-0.3c3.1,0,5.7,0.8,7.8,2.3
				c0.6,0.4,1,0.6,1.3,0.6c0.3,0,0.4-0.2,0.4-0.6c0-0.3,0.2-0.7,0.7-1.3c0.5-0.6,0.9-1,1.3-1.1C909.8,471.4,910.6,471.4,911.8,471.4
				z M902.9,483.9c-1.3,0-2.5,0.4-3.6,1.2c-1.1,0.8-1.8,1.8-2.2,3.2c-0.2,0.5-0.3,1-0.3,1.6c0,1.5,0.6,2.6,1.8,3.5
				c1.2,0.9,2.8,1.3,4.8,1.3c1.1,0,1.8-0.1,2.1-0.2c0.4-0.1,0.6-0.4,0.7-0.8c0.1-0.4,0.3-1.2,0.4-2.5c0.2-1.5,0.3-3,0.3-4.4
				c0-0.8-0.1-1.4-0.2-1.6c-0.1-0.2-0.5-0.4-1.2-0.7C904.9,484.1,904,483.9,902.9,483.9z"/>
			<path class="st54" d="M927.3,470.8c0.5-0.3,1.7-0.5,3.6-0.5c2,0,3.8,0.1,5.6,0.4c1.8,0.3,2.8,0.6,3.1,1.1
				c0.4,0.4,0.6,0.8,0.6,1.2c0,0.1,0.1,0.1,0.2,0.1c0.3,0,1.1-0.3,2.3-0.9c2.3-1.2,4.5-1.8,6.4-1.8c2,0,4,0.6,6,1.7
				c2.1,1.1,3.1,2.3,3.1,3.5c0,0.7-0.5,2-1.4,4.1c-1,2-1.8,3.6-2.5,4.7c-0.6,0.8-1.1,1.3-1.8,1.3c-0.2,0-0.8-0.1-1.8-0.4
				c-1-0.3-2-0.5-2.8-0.5c-1.9,0-3.4,0.8-4.6,2.3c-2,2.6-3,8.2-3,16.8v1.2c0,1.2-0.1,2.1-0.2,2.6c-0.1,0.5-0.5,0.8-1,1
				c-0.5,0.2-1.4,0.3-2.6,0.3l-1.4-0.1h-1.8c-3.9-0.1-6.1-0.4-6.7-0.8c-0.7-0.4-1-0.9-1.1-1.4c-0.2-0.6-0.3-2.7-0.3-6.3
				c0-5.4,0.1-11.3,0.4-17.6c0.3-6.3,0.5-9.8,0.8-10.5C926.5,471.5,926.9,471,927.3,470.8z"/>
			<path class="st54" d="M966.4,464.5c0,0,1,0,2.9,0s3.4,0.1,4.4,0.3c0.9,0.2,1.6,0.7,1.9,1.3c0.3,0.6,0.5,2.3,0.6,5.1
				c0.1,2.8,0.2,5.4,0.2,8c0,2.5,0,3.7,0.1,3.7c0.2,0,1.3-1.5,3.5-4.4c1.6-2.2,3.7-4.7,6.2-7.6c2.5-2.9,4.1-4.5,4.7-4.8
				c0.4-0.2,0.8-0.3,1.1-0.3c0.7,0,1.9,0.6,3.8,1.8c1.8,1.2,3.4,2.4,4.5,3.7c1.2,1.3,1.8,2.4,1.8,3.2c0,0.4-0.3,1-0.8,1.8
				c-0.7,1-2.3,3-4.9,6c-2.5,3-4.5,5.2-5.9,6.7l-2.7,2.9l2.5,2.9c1.6,1.7,3.4,3.9,5.5,6.5c2.1,2.6,3.3,4.1,3.5,4.4l0.2,0.6
				c0,0.7-1.7,1.3-5.2,1.8c-3.1,0.4-4.8,0.8-5.3,0.9c-0.9,0.2-1.6,0.3-2.2,0.3c-0.8,0-1.6-0.2-2.2-0.7c-0.4-0.3-1.7-1.9-3.9-4.8
				c-2-2.7-3.1-4-3.4-4c-0.2,0-0.5,0.3-0.9,0.8c-0.5,0.7-0.8,2.2-0.8,4.5c-0.1,2.5-0.3,3.9-0.8,4.4c-0.4,0.4-1.2,0.6-2.4,0.6
				c-1.6,0-2.7,0-3.3-0.1c-2.8-0.1-4.9-0.3-6.4-0.6c-1.1-0.2-1.8-0.6-2.2-1c-0.3-0.5-0.6-1.4-0.7-2.7c-0.1-1.3-0.1-4.9-0.3-10.8
				v-3.4c0-11.2,0.3-19.1,0.8-23.9c0.1-1.1,0.4-1.8,0.8-2.1c0.4-0.4,1.2-0.6,2.5-0.7C965.6,464.6,966.4,464.5,966.4,464.5z"/>
			<path class="st54" d="M1013.1,496.8c1.8,0,3.3,0.7,4.4,2.1c1.2,1.4,1.8,2.9,1.8,4.5c0,1.7-0.6,3.2-1.7,4.4
				c-1.1,1.2-2.6,1.8-4.4,1.8c-1.6,0-3-0.6-4.2-1.8c-1.3-1.2-1.9-2.7-1.9-4.5c0-2.8,1.1-4.8,3.4-6
				C1011.3,497,1012.1,496.8,1013.1,496.8z"/>
		</g>
	</g>
</g>
</svg>
