<?xml version="1.0" encoding="utf-8"?>
<!-- Generator: Adobe Illustrator 21.0.0, SVG Export Plug-In . SVG Version: 6.00 Build 0)  -->
<svg version="1.1" id="Capa_1" xmlns="http://www.w3.org/2000/svg" xmlns:xlink="http://www.w3.org/1999/xlink" x="0px" y="0px"
	 viewBox="0 0 1319 1952" style="enable-background:new 0 0 1319 1952;" xml:space="preserve">
<style type="text/css">
	.st0{fill:#F0B693;}
	.st1{fill:#F9C2AA;}
	.st2{fill:#FCDFE0;stroke:#643527;stroke-miterlimit:10;}
	.st3{fill:#DCA291;stroke:#643527;stroke-miterlimit:10;}
	.st4{fill:#FCF5E3;stroke:#643527;stroke-miterlimit:10;}
	.st5{fill:#AF6857;stroke:#643527;stroke-miterlimit:10;}
	.st6{fill:#8498A4;stroke:#643527;stroke-miterlimit:10;}
	.st7{fill:#F6DCCB;}
	.st8{fill:#E0C1C1;stroke:#643527;stroke-miterlimit:10;}
	.st9{fill:#C8D9B0;stroke:#643527;stroke-miterlimit:10;}
	.st10{fill:#EFD5D5;stroke:#643527;stroke-miterlimit:10;}
	.st11{fill:#A2C6D9;}
	.st12{fill:#FCF2F3;stroke:#643527;stroke-miterlimit:10;}
	.st13{fill:#E7E4F7;stroke:#643527;stroke-miterlimit:10;}
	.st14{fill:#C06252;stroke:#643527;stroke-miterlimit:10;}
	.st15{fill:#EFD7D3;stroke:#643527;stroke-miterlimit:10;}
	.st16{fill:#796CA0;stroke:#643527;stroke-miterlimit:10;}
	.st17{fill:#537185;stroke:#643527;stroke-miterlimit:10;}
	.st18{fill:#BB5E84;stroke:#643527;stroke-miterlimit:10;}
	.st19{fill:#B35579;stroke:#643527;stroke-miterlimit:10;}
	.st20{fill:#D3B8FB;stroke:#643527;stroke-miterlimit:10;}
	.st21{fill:#D57CA1;stroke:#643527;stroke-miterlimit:10;}
	.st22{fill:#6E659D;stroke:#643527;stroke-miterlimit:10;}
	.st23{fill:#526EA9;stroke:#643527;stroke-miterlimit:10;}
	.st24{fill:#B86A53;stroke:#643527;stroke-miterlimit:10;}
	.st25{fill:#A86249;stroke:#643527;stroke-miterlimit:10;}
	.st26{fill:#BE7D58;stroke:#643527;stroke-miterlimit:10;}
</style>
<g>
	<g>
		<g>
			<rect x="-3751.1" y="0.5" class="st0" width="202.8" height="1950.9"/>
			<rect x="-3345.4" y="0.5" class="st0" width="202.8" height="1950.9"/>
			<rect x="-2939.8" y="0.5" class="st0" width="202.8" height="1950.9"/>
			<rect x="-2534.2" y="0.5" class="st0" width="202.8" height="1950.9"/>
			<rect x="-2128.6" y="0.5" class="st0" width="202.8" height="1950.9"/>
			<rect x="-1722.9" y="0.5" class="st0" width="202.8" height="1950.9"/>
			<rect x="-1317.3" y="0.5" class="st0" width="202.8" height="1950.9"/>
			<rect x="-911.7" y="0.5" class="st0" width="202.8" height="1950.9"/>
			<rect x="-506.1" y="0.5" class="st0" width="202.8" height="1950.9"/>
			<rect x="-100.4" y="0.5" class="st0" width="202.8" height="1950.9"/>
			<rect x="305.2" y="0.5" class="st0" width="202.8" height="1950.9"/>
		</g>
		<g>
			<rect x="-3953.9" y="0.5" class="st1" width="202.8" height="1950.9"/>
			<rect x="-3548.3" y="0.5" class="st1" width="202.8" height="1950.9"/>
			<rect x="-3142.6" y="0.5" class="st1" width="202.8" height="1950.9"/>
			<rect x="-2737" y="0.5" class="st1" width="202.8" height="1950.9"/>
			<rect x="-2331.4" y="0.5" class="st1" width="202.8" height="1950.9"/>
			<rect x="-1925.8" y="0.5" class="st1" width="202.8" height="1950.9"/>
			<rect x="-1520.1" y="0.5" class="st1" width="202.8" height="1950.9"/>
			<rect x="-1114.5" y="0.5" class="st1" width="202.8" height="1950.9"/>
			<rect x="-708.9" y="0.5" class="st1" width="202.8" height="1950.9"/>
			<rect x="-303.3" y="0.5" class="st1" width="202.8" height="1950.9"/>
			<rect x="102.4" y="0.5" class="st1" width="202.8" height="1950.9"/>
			<rect x="508" y="0.5" class="st1" width="202.8" height="1950.9"/>
		</g>
	</g>
	<rect x="-3957" y="1688.6" class="st2" width="4667" height="102.2"/>
	<rect x="-3957" y="1791.1" class="st3" width="4667.2" height="21.8"/>
	<rect x="-3957" y="1812.4" class="st3" width="4667" height="36.1"/>
	<rect x="-3957" y="1848.4" class="st3" width="4668.2" height="46.2"/>
	<rect x="-3956.8" y="1894.1" class="st3" width="4667" height="57"/>
	<rect x="-3637" y="1764.6" class="st4" width="2403.7" height="36.7"/>
	<g>
		<path class="st5" d="M38.5,1795.3c1.2-2,1.9-4.1,1.9-6.2c0-21.3-64.9-38.7-147-40.1v-478.7h-33v478.7
			c-83.6,1-135.7,18.6-135.7,40.2c0,2.1,0.6,4.2,1.9,6.2H38.5z"/>
	</g>
	<path class="st6" d="M-110.4,1130.8c-283.6,0-513.5,20.7-513.5,46.2v251c11.5,14.4,31.7,0,31.7,0c31.7,27.4,51.9-11.5,51.9-11.5
		c56.3-2.9,60.6-23.1,60.6-23.1c23.1,36.1,60.6,38.9,60.6,38.9c1.4,30.3,47.6,46.2,47.6,46.2c31.7,49,82.2,30.3,82.2,30.3
		c34.6,43.3,79.3,2.9,79.3,2.9c2.9,4.3,41.8,2.9,41.8,2.9c17.3,7.2,40.4,13,40.4,13c15.9,60.6,64.9,41.8,64.9,41.8
		c26,40.4,75,17.3,75,17.3c41.8,23.1,59.1,1.4,75,0s18.8-13,18.8-13c27.4,8.7,34.6-17.3,34.6-17.3c13,4.3,27.4-15.9,27.4-15.9
		c36.1,7.2,59.1-49,59.1-49c20.2-10.1,14.4-43.3,14.4-43.3l15.9-4.3c0,0,30.3,36.1,44.7,13s13-7.2,13-7.2
		c21.6,50.5,40.4,7.2,63.5,5.8c23.1-1.4,24.5-27.4,24.5-27.4v-251C403.1,1151.5,173.2,1130.8-110.4,1130.8z"/>
	<path class="st7" d="M-110.7,1131.2c-283.4,0-513.1,23.4-513.1,45.1v207.9c49.8,25.8,144.1-29.5,144.1-29.5
		c201.3,154.8,269.5,100.7,269.5,100.7c2.9,3.7,41.8,2.5,41.8,2.5c17.3,6.1,40.4,11.1,40.4,11.1c179.9,209.4,348.8-53.1,348.8-53.1
		l36-18.1c0,0,30.3,30.7,44.7,11.1c14.4-19.6,13-6.1,13-6.1c21.6,43,40.4,6.1,63.4,4.9c23.1-1.2,24.5-23.3,24.5-23.3v-207.9
		C402.4,1154.5,172.7,1131.2-110.7,1131.2z"/>
	<g>
		<ellipse class="st8" cx="-2598.3" cy="1454.1" rx="117" ry="26.5"/>
		<path class="st9" d="M-2611.4,1514.2c0,0-47.2,16.5-78-145.9c-0.2-0.8-0.4-1.6-0.7-2.3c-1.7-4-8.4-15.6-27.9-17.6
			c-23.7-2.4,0-49.8,30.8-30.8c24.9,15.3,1.8-8-7.9-17.6c-2.5-2.5-6-3.7-9.5-3.3c-8.9,0.9-26.5,3.6-36.5,10.6
			c-4.6,3.2-7.6,2.3-5.4-10.1c3.7-20.7,13.7-47.2,40.4-41.2c24.9,5.5,38.5,11.9,45.5,16.2c5.4,3.3,12.5,2,16-3.2
			c5.5-8.3,6.5-22.7-23.1-42.7c-3-2-6.8-2.5-10.3-1.4c-6.6,2.1-18.4,4.4-28.1-2c-14.2-9.5,11.8-47.4,49.8-40.3
			c34.8,6.5,55.7,33.1,58.8,37.3c0.2,0.3,0.7,0.4,1,0.2c7.1-4.5,74-45.9,94.2-25.7c21.3,21.3,52.1,35.5,9.5,45s-52.1,2.4-52.1,14.2
			c0,11.8-7.1,23.7,7.1,28.4c14.2,4.7,82.9-21.3,92.4,23.7c7.6,36.3-20.1,46.4-31.2,49c-2.6,0.6-5.3,0.3-7.7-0.9
			c-8.9-4.2-33.1-14.2-36.9-0.7c-1.7,5.8-2.7,13.4-3.4,20.8c-0.9,9.3,8.9,15.8,17.3,11.6c8.3-4.2,17.6-5.1,24.1,5.6
			c11.3,18.8-2.9,27.2-9.1,29.8c-1.9,0.8-3.6,2.1-4.8,3.7c-6.4,8.4-25.6,34.1-33.4,51.7c-9.5,21.3-7.1,37.9-73.4,37.9"/>
		<path class="st10" d="M-2715.7,1452.6l0.8,24.8l7.1,232.6l1.6,53c0,0,23.7,10.3,109,10.3c85.3,0,105.6-7.5,105.6-7.5l2-41
			l8.8-219.2l2.1-53C-2613.8,1495.2-2715.7,1452.6-2715.7,1452.6z"/>
		<path class="st11" d="M-2534.4,1507.1c-35.5,40.3-40.3-4.7-40.3-4.7s-33.2-40.3-61.6,0s-42.6-4.7-42.6-4.7s-19.8-29.6-36-20.2
			l7.1,232.6c12.2,11.4,30.6,17.4,52.6-11c40.3-52.1,26.1,11.8,26.1,11.8s35.5,56.9,64-9.5c28.4-66.3,40.3,21.3,40.3,21.3
			s19.9,19.8,35.3,2.1l8.8-219.2C-2489.9,1494.1-2509.2,1478.5-2534.4,1507.1z"/>
	</g>
	<g>
		<rect x="-2040.8" y="424.3" class="st12" width="293" height="400.6"/>
		<rect x="-2013.9" y="461.1" class="st13" width="239.2" height="327"/>
	</g>
	<g>
		<rect x="-2366.8" y="255.8" class="st12" width="247" height="337.7"/>
		<rect x="-2344.1" y="286.8" class="st13" width="201.6" height="275.7"/>
	</g>
	<g>
		<path class="st14" d="M309.6,989.5H97.9c-9.8,0-17.7-7.9-17.7-17.7V669.4c0-9.8,7.9-17.7,17.7-17.7h211.6
			c9.8,0,17.7,7.9,17.7,17.7v302.4C327.2,981.6,319.3,989.5,309.6,989.5z"/>
		<path class="st13" d="M290.7,958.5h-174c-7.6,0-13.8-6.2-13.8-13.8v-248c0-7.6,6.2-13.8,13.8-13.8h174c7.6,0,13.8,6.2,13.8,13.8
			v248C304.6,952.3,298.4,958.5,290.7,958.5z"/>
	</g>
	<g>
		
			<rect x="-992.9" y="756.9" transform="matrix(-1 -1.224647e-16 1.224647e-16 -1 -1103.6714 1553.562)" class="st15" width="882.2" height="39.8"/>
		
			<rect x="-678.6" y="471.9" transform="matrix(-1 -1.224647e-16 1.224647e-16 -1 -789.3964 983.6768)" class="st15" width="567.9" height="39.8"/>
		
			<rect x="-416.7" y="448.9" transform="matrix(-1 -1.224647e-16 1.224647e-16 -1 -602.3156 918.7266)" class="st16" width="231.2" height="21"/>
		
			<rect x="-382.5" y="400.7" transform="matrix(-1 -1.224647e-16 1.224647e-16 -1 -584.8558 849.5861)" class="st17" width="180.2" height="48.2"/>
		
			<rect x="-340.6" y="371.4" transform="matrix(-1 -1.224647e-16 1.224647e-16 -1 -563.9042 772.065)" class="st18" width="117.3" height="29.3"/>
		<rect x="-381" y="627" class="st19" width="30.5" height="132.2"/>
		<rect x="-350.5" y="651.7" class="st13" width="136.5" height="107.5"/>
		
			<rect x="-510.3" y="644.5" transform="matrix(0.805 0.5932 -0.5932 0.805 319.7553 432.3871)" class="st20" width="24.7" height="116.2"/>
		
			<rect x="-473.4" y="618.2" transform="matrix(0.8087 0.5883 -0.5883 0.8087 318.1675 406.2611)" class="st21" width="16" height="148.2"/>
		
			<rect x="-453.7" y="625.9" transform="matrix(0.8087 0.5883 -0.5883 0.8087 323.5232 393.7271)" class="st22" width="20.3" height="136.5"/>
		<rect x="-404.3" y="657.5" class="st23" width="24.7" height="101.7"/>
	</g>
	<g>
		<path class="st24" d="M-2706.9,1045.8h-732.8c-4.1,0-7.4-3.3-7.4-7.4v-29.9c0-4.1,3.3-7.4,7.4-7.4h732.8c4.1,0,7.4,3.3,7.4,7.4
			v29.9C-2699.5,1042.5-2702.8,1045.8-2706.9,1045.8z"/>
		<path class="st25" d="M-3421.2,1045.8v580.6v72.9v51.7c0,7.8,6.3,14.1,14.1,14.1h16.5c7.8,0,14.1-6.3,14.1-14.1v-51.7h606.5v51.7
			c0,7.8,6.3,14.1,14.1,14.1h16.5c7.8,0,14.1-6.3,14.1-14.1v-51.7v-72.9v-580.6H-3421.2z"/>
		<path class="st24" d="M-2799.4,1284.4h-540.7c-5.2,0-9.4-4.2-9.4-9.4v-169.3c0-5.2,4.2-9.4,9.4-9.4h540.7c5.2,0,9.4,4.2,9.4,9.4
			V1275C-2790,1280.2-2794.2,1284.4-2799.4,1284.4z"/>
		<path class="st24" d="M-2799.4,1543h-540.7c-5.2,0-9.4-4.2-9.4-9.4v-169.3c0-5.2,4.2-9.4,9.4-9.4h540.7c5.2,0,9.4,4.2,9.4,9.4
			v169.3C-2790,1538.8-2794.2,1543-2799.4,1543z"/>
		<path class="st26" d="M-3036.9,1175.1h-105.5c-3.3,0-6-2.7-6-6v-22.4c0-3.3,2.7-6,6-6h105.5c3.3,0,6,2.7,6,6v22.4
			C-3030.9,1172.4-3033.6,1175.1-3036.9,1175.1z"/>
		<path class="st26" d="M-3036.9,1419.6h-105.5c-3.3,0-6-2.7-6-6v-22.4c0-3.3,2.7-6,6-6h105.5c3.3,0,6,2.7,6,6v22.4
			C-3030.9,1416.9-3033.6,1419.6-3036.9,1419.6z"/>
	</g>
</g>
</svg>
