<?xml version="1.0" encoding="utf-8"?>
<!-- Generator: Adobe Illustrator 21.0.0, SVG Export Plug-In . SVG Version: 6.00 Build 0)  -->
<svg version="1.1" id="Capa_1" xmlns="http://www.w3.org/2000/svg" xmlns:xlink="http://www.w3.org/1999/xlink" x="0px" y="0px"
	 viewBox="0 0 1319 614" style="enable-background:new 0 0 1319 614;" xml:space="preserve">
<style type="text/css">
	.st0{fill:#F0B693;}
	.st1{fill:#F9C2AA;}
	.st2{fill:#FCDFE0;stroke:#643527;stroke-miterlimit:10;}
	.st3{fill:#DCA291;stroke:#643527;stroke-miterlimit:10;}
	.st4{fill:#FCF5E3;stroke:#643527;stroke-miterlimit:10;}
	.st5{fill:#AF6857;stroke:#643527;stroke-miterlimit:10;}
	.st6{fill:#8498A4;stroke:#643527;stroke-miterlimit:10;}
	.st7{fill:#F6DCCB;}
	.st8{fill:#E0C1C1;stroke:#643527;stroke-miterlimit:10;}
	.st9{fill:#C8D9B0;stroke:#643527;stroke-miterlimit:10;}
	.st10{fill:#EFD5D5;stroke:#643527;stroke-miterlimit:10;}
	.st11{fill:#A2C6D9;}
	.st12{fill:#FCF2F3;stroke:#643527;stroke-miterlimit:10;}
	.st13{fill:#E7E4F7;stroke:#643527;stroke-miterlimit:10;}
	.st14{fill:#C06252;stroke:#643527;stroke-miterlimit:10;}
	.st15{fill:#EFD7D3;stroke:#643527;stroke-miterlimit:10;}
	.st16{fill:#796CA0;stroke:#643527;stroke-miterlimit:10;}
	.st17{fill:#537185;stroke:#643527;stroke-miterlimit:10;}
	.st18{fill:#BB5E84;stroke:#643527;stroke-miterlimit:10;}
	.st19{fill:#B35579;stroke:#643527;stroke-miterlimit:10;}
	.st20{fill:#D3B8FB;stroke:#643527;stroke-miterlimit:10;}
	.st21{fill:#D57CA1;stroke:#643527;stroke-miterlimit:10;}
	.st22{fill:#6E659D;stroke:#643527;stroke-miterlimit:10;}
	.st23{fill:#526EA9;stroke:#643527;stroke-miterlimit:10;}
	.st24{fill:#B86A53;stroke:#643527;stroke-miterlimit:10;}
	.st25{fill:#A86249;stroke:#643527;stroke-miterlimit:10;}
	.st26{fill:#BE7D58;stroke:#643527;stroke-miterlimit:10;}
</style>
<g>
	<g>
		<g>
			<rect x="-14.8" class="st0" width="64.3" height="618.1"/>
			<rect x="113.7" class="st0" width="64.3" height="618.1"/>
			<rect x="242.2" class="st0" width="64.3" height="618.1"/>
			<rect x="370.8" class="st0" width="64.3" height="618.1"/>
			<rect x="499.3" class="st0" width="64.3" height="618.1"/>
			<rect x="627.8" class="st0" width="64.3" height="618.1"/>
			<rect x="756.3" class="st0" width="64.3" height="618.1"/>
			<rect x="884.8" class="st0" width="64.3" height="618.1"/>
			<rect x="1013.4" class="st0" width="64.3" height="618.1"/>
			<rect x="1141.9" class="st0" width="64.3" height="618.1"/>
			<rect x="1270.4" class="st0" width="64.3" height="618.1"/>
		</g>
		<g>
			<rect x="-79.1" class="st1" width="64.3" height="618.1"/>
			<rect x="49.4" class="st1" width="64.3" height="618.1"/>
			<rect x="178" class="st1" width="64.3" height="618.1"/>
			<rect x="306.5" class="st1" width="64.3" height="618.1"/>
			<rect x="435" class="st1" width="64.3" height="618.1"/>
			<rect x="563.5" class="st1" width="64.3" height="618.1"/>
			<rect x="692.1" class="st1" width="64.3" height="618.1"/>
			<rect x="820.6" class="st1" width="64.3" height="618.1"/>
			<rect x="949.1" class="st1" width="64.3" height="618.1"/>
			<rect x="1077.6" class="st1" width="64.3" height="618.1"/>
			<rect x="1206.2" class="st1" width="64.3" height="618.1"/>
			<rect x="1334.7" class="st1" width="64.3" height="618.1"/>
		</g>
	</g>
	<rect x="-80.1" y="534.9" class="st2" width="1478.7" height="32.4"/>
	<rect x="-80.1" y="567.3" class="st3" width="1478.8" height="6.9"/>
	<rect x="-80.1" y="574.1" class="st3" width="1478.7" height="11.4"/>
	<rect x="-80.1" y="585.5" class="st3" width="1479.1" height="14.6"/>
	<rect x="-80" y="600" class="st3" width="1478.7" height="18.1"/>
	<rect x="21.3" y="558.9" class="st4" width="761.6" height="11.6"/>
	<g>
		<path class="st5" d="M1185.9,568.7c0.4-0.6,0.6-1.3,0.6-2c0-6.7-20.6-12.3-46.6-12.7V402.3h-10.5V554c-26.5,0.3-43,5.9-43,12.7
			c0,0.7,0.2,1.3,0.6,2L1185.9,568.7L1185.9,568.7z"/>
	</g>
	<path class="st6" d="M1138.7,358.1c-89.9,0-162.7,6.6-162.7,14.6v79.5c3.6,4.6,10,0,10,0c10,8.7,16.4-3.6,16.4-3.6
		c17.8-0.9,19.2-7.3,19.2-7.3c7.3,11.4,19.2,12.3,19.2,12.3c0.4,9.6,15.1,14.6,15.1,14.6c10,15.5,26,9.6,26,9.6
		c11,13.7,25.1,0.9,25.1,0.9c0.9,1.4,13.2,0.9,13.2,0.9c5.5,2.3,12.8,4.1,12.8,4.1c5,19.2,20.6,13.2,20.6,13.2
		c8.2,12.8,23.8,5.5,23.8,5.5c13.2,7.3,18.7,0.4,23.8,0s6-4.1,6-4.1c8.7,2.8,11-5.5,11-5.5c4.1,1.4,8.7-5,8.7-5
		c11.4,2.3,18.7-15.5,18.7-15.5c6.4-3.2,4.6-13.7,4.6-13.7l5-1.4c0,0,9.6,11.4,14.2,4.1s4.1-2.3,4.1-2.3c6.8,16,12.8,2.3,20.1,1.8
		c7.3-0.4,7.8-8.7,7.8-8.7v-79.5C1301.4,364.7,1228.6,358.1,1138.7,358.1z"/>
	<path class="st7" d="M1138.6,358.3c-89.8,0-162.6,7.4-162.6,14.3v65.9c15.8,8.2,45.7-9.3,45.7-9.3c63.8,49,85.4,31.9,85.4,31.9
		c0.9,1.2,13.2,0.8,13.2,0.8c5.5,1.9,12.8,3.5,12.8,3.5c57,66.3,110.5-16.8,110.5-16.8l11.4-5.7c0,0,9.6,9.7,14.2,3.5
		c4.6-6.2,4.1-1.9,4.1-1.9c6.8,13.6,12.8,1.9,20.1,1.6c7.3-0.4,7.8-7.4,7.8-7.4v-65.9C1301.2,365.6,1228.4,358.3,1138.6,358.3z"/>
	<g>
		<ellipse class="st8" cx="350.4" cy="460.6" rx="37.1" ry="8.4"/>
		<path class="st9" d="M346.3,479.6c0,0-15,5.2-24.7-46.2c-0.1-0.3-0.1-0.5-0.2-0.7c-0.5-1.3-2.7-4.9-8.8-5.6
			c-7.5-0.8,0-15.8,9.8-9.8c7.9,4.8,0.6-2.5-2.5-5.6c-0.8-0.8-1.9-1.2-3-1c-2.8,0.3-8.4,1.1-11.6,3.4c-1.5,1-2.4,0.7-1.7-3.2
			c1.2-6.6,4.3-15,12.8-13.1c7.9,1.7,12.2,3.8,14.4,5.1c1.7,1,4,0.6,5.1-1c1.7-2.6,2.1-7.2-7.3-13.5c-1-0.6-2.2-0.8-3.3-0.4
			c-2.1,0.7-5.8,1.4-8.9-0.6c-4.5-3,3.7-15,15.8-12.8c11,2.1,17.6,10.5,18.6,11.8c0.1,0.1,0.2,0.1,0.3,0.1
			c2.2-1.4,23.4-14.5,29.8-8.1c6.7,6.7,16.5,11.2,3,14.3c-13.5,3-16.5,0.8-16.5,4.5c0,3.7-2.2,7.5,2.2,9c4.5,1.5,26.3-6.7,29.3,7.5
			c2.4,11.5-6.4,14.7-9.9,15.5c-0.8,0.2-1.7,0.1-2.4-0.3c-2.8-1.3-10.5-4.5-11.7-0.2c-0.5,1.8-0.9,4.2-1.1,6.6
			c-0.3,2.9,2.8,5,5.5,3.7c2.6-1.3,5.6-1.6,7.6,1.8c3.6,6-0.9,8.6-2.9,9.4c-0.6,0.3-1.1,0.7-1.5,1.2c-2,2.7-8.1,10.8-10.6,16.4
			c-3,6.7-2.2,12-23.3,12"/>
		<path class="st10" d="M313.3,460.1l0.3,7.9l2.2,73.7l0.5,16.8c0,0,7.5,3.3,34.5,3.3s33.5-2.4,33.5-2.4l0.6-13l2.8-69.5l0.7-16.8
			C345.5,473.6,313.3,460.1,313.3,460.1z"/>
		<path class="st11" d="M370.7,477.4c-11.2,12.8-12.8-1.5-12.8-1.5s-10.5-12.8-19.5,0c-9,12.8-13.5-1.5-13.5-1.5s-6.3-9.4-11.4-6.4
			l2.2,73.7c3.9,3.6,9.7,5.5,16.7-3.5c12.8-16.5,8.3,3.7,8.3,3.7s11.2,18,20.3-3c9-21,12.8,6.7,12.8,6.7s6.3,6.3,11.2,0.7l2.8-69.5
			C384.8,473.2,378.7,468.3,370.7,477.4z"/>
	</g>
	<g>
		<rect x="527.1" y="134.3" class="st12" width="92.8" height="126.9"/>
		<rect x="535.6" y="145.9" class="st13" width="75.8" height="103.6"/>
	</g>
	<g>
		<rect x="423.8" y="80.9" class="st12" width="78.3" height="107"/>
		<rect x="431" y="90.7" class="st13" width="63.9" height="87.4"/>
	</g>
	<g>
		<path class="st14" d="M1271.8,313.4h-67.1c-3.1,0-5.6-2.5-5.6-5.6v-95.8c0-3.1,2.5-5.6,5.6-5.6h67c3.1,0,5.6,2.5,5.6,5.6v95.8
			C1277.4,310.9,1274.9,313.4,1271.8,313.4z"/>
		<path class="st13" d="M1265.8,303.5h-55.1c-2.4,0-4.4-2-4.4-4.4v-78.6c0-2.4,2-4.4,4.4-4.4h55.1c2.4,0,4.4,2,4.4,4.4v78.6
			C1270.2,301.6,1268.3,303.5,1265.8,303.5z"/>
	</g>
	<g>
		<rect x="859.1" y="239.7" class="st15" width="279.5" height="12.6"/>
		<rect x="958.7" y="149.4" class="st15" width="179.9" height="12.6"/>
		<rect x="1041.6" y="142.1" class="st16" width="73.3" height="6.7"/>
		<rect x="1052.5" y="126.8" class="st17" width="57.1" height="15.3"/>
		<rect x="1065.8" y="117.5" class="st18" width="37.2" height="9.3"/>
		<rect x="1053" y="198.5" class="st19" width="9.7" height="41.9"/>
		<rect x="1062.7" y="206.3" class="st13" width="43.2" height="34.1"/>
		
			<rect x="997.6" y="218.5" transform="matrix(0.5932 -0.805 0.805 0.5932 234.18 908.3734)" class="st20" width="36.8" height="7.8"/>
		
			<rect x="1002.7" y="216.7" transform="matrix(0.5883 -0.8087 0.8087 0.5883 245.2625 920.1212)" class="st21" width="47" height="5.1"/>
		
			<rect x="1011.5" y="216.6" transform="matrix(0.5883 -0.8087 0.8087 0.5883 247.6589 925.9789)" class="st22" width="43.3" height="6.4"/>
		<rect x="1045.6" y="208.2" class="st23" width="7.8" height="32.2"/>
	</g>
	<g>
		<path class="st24" d="M316,331.2H83.9c-1.3,0-2.3-1-2.3-2.3v-9.5c0-1.3,1-2.3,2.3-2.3H316c1.3,0,2.3,1,2.3,2.3v9.5
			C318.4,330.2,317.3,331.2,316,331.2z"/>
		<path class="st25" d="M89.7,331.2v184v23.1v16.4c0,2.5,2,4.5,4.5,4.5h5.2c2.5,0,4.5-2,4.5-4.5v-16.4H296v16.4c0,2.5,2,4.5,4.5,4.5
			h5.2c2.5,0,4.5-2,4.5-4.5v-16.4v-23.1v-184H89.7z"/>
		<path class="st24" d="M286.7,406.8H115.4c-1.6,0-3-1.3-3-3v-53.6c0-1.6,1.3-3,3-3h171.3c1.6,0,3,1.3,3,3v53.6
			C289.7,405.5,288.4,406.8,286.7,406.8z"/>
		<path class="st24" d="M286.7,488.7H115.4c-1.6,0-3-1.3-3-3v-53.6c0-1.6,1.3-3,3-3h171.3c1.6,0,3,1.3,3,3v53.6
			C289.7,487.4,288.4,488.7,286.7,488.7z"/>
		<path class="st26" d="M211.5,372.2h-33.4c-1,0-1.9-0.9-1.9-1.9v-7.1c0-1,0.9-1.9,1.9-1.9h33.4c1,0,1.9,0.9,1.9,1.9v7.1
			C213.4,371.3,212.5,372.2,211.5,372.2z"/>
		<path class="st26" d="M211.5,449.6h-33.4c-1,0-1.9-0.9-1.9-1.9v-7.1c0-1,0.9-1.9,1.9-1.9h33.4c1,0,1.9,0.9,1.9,1.9v7.1
			C213.4,448.8,212.5,449.6,211.5,449.6z"/>
	</g>
</g>
</svg>
