<?xml version="1.0" encoding="utf-8"?>
<!-- Generator: Adobe Illustrator 21.0.0, SVG Export Plug-In . SVG Version: 6.00 Build 0)  -->
<svg version="1.1" id="Capa_1" xmlns="http://www.w3.org/2000/svg" xmlns:xlink="http://www.w3.org/1999/xlink" x="0px" y="0px"
	 viewBox="0 0 1319 614" style="enable-background:new 0 0 1319 614;" xml:space="preserve">
<style type="text/css">
	.st0{fill:#D0D2F7;}
	.st1{fill:#FFEBDF;stroke:#643527;stroke-miterlimit:10;}
	.st2{fill:#FFFFFF;stroke:#643527;stroke-miterlimit:10;}
	.st3{fill:#9DB1CC;}
	.st4{fill:#DDA0B0;}
	.st5{fill:#056D6D;stroke:#643627;stroke-miterlimit:10;}
	.st6{fill:none;stroke:#044747;stroke-width:6;stroke-miterlimit:10;}
	.st7{fill:none;stroke:#F46C6C;stroke-width:8;stroke-linecap:round;stroke-linejoin:round;stroke-miterlimit:10;}
	.st8{fill:#FFEBDF;stroke:#643627;stroke-miterlimit:10;}
	.st9{fill:#04757B;stroke:#643527;stroke-miterlimit:10;}
	.st10{fill:#DADCDB;}
	.st11{fill:#FF726E;}
	.st12{fill:none;stroke:#643627;stroke-miterlimit:10;}
	.st13{fill:#F7CC43;}
	.st14{fill:#BECDEC;}
	.st15{fill:#FF726E;stroke:#643627;stroke-miterlimit:10;}
	.st16{fill:none;stroke:#049BA2;stroke-width:8;stroke-miterlimit:10;}
	.st17{fill:#D69583;stroke:#643527;stroke-miterlimit:10;}
	.st18{fill:#DF90AD;stroke:#643527;stroke-miterlimit:10;}
	.st19{fill:#FFC6CE;stroke:#643527;stroke-miterlimit:10;}
	.st20{fill:none;}
	.st21{fill:#595975;stroke:#643527;stroke-miterlimit:10;}
	.st22{fill:#434351;stroke:#643527;stroke-miterlimit:10;}
	.st23{fill:#F0F5E6;stroke:#643527;stroke-miterlimit:10;}
	.st24{fill:#E2E2BA;stroke:#643527;stroke-miterlimit:10;}
	.st25{fill:none;stroke:#9B0404;stroke-width:8;stroke-linecap:round;stroke-linejoin:round;stroke-miterlimit:10;}
	.st26{fill:#E2E2BA;stroke:#643527;stroke-width:2;stroke-miterlimit:10;}
	.st27{fill:#F0F5E6;}
	.st28{fill:#E2E2BA;}
	.st29{fill:#F0B693;stroke:#643527;stroke-miterlimit:10;}
	.st30{fill:#FFE594;stroke:#643527;stroke-miterlimit:10;}
	.st31{fill:#DCA291;stroke:#643527;stroke-miterlimit:10;}
	.st32{fill:#BC2020;stroke:#643527;stroke-linecap:round;stroke-linejoin:round;stroke-miterlimit:10;}
	.st33{fill:#71A888;stroke:#643527;stroke-miterlimit:10;}
	.st34{fill:#E1F78F;stroke:#643527;stroke-miterlimit:10;}
	.st35{fill:#867691;stroke:#643527;stroke-miterlimit:10;}
	.st36{fill:#CBABB6;stroke:#643527;stroke-miterlimit:10;}
	.st37{fill:#F9DFD0;stroke:#643527;stroke-miterlimit:10;}
	.st38{fill:none;stroke:#643527;stroke-miterlimit:10;}
	.st39{fill:#347976;stroke:#643527;stroke-miterlimit:10;}
	.st40{fill:#708A81;stroke:#643527;stroke-miterlimit:10;}
</style>
<g>
	<polygon class="st0" points="1302.3,0 1210.5,0 1118.7,0 1026.9,0 935.1,0 843.3,0 751.5,0 751.5,0.4 660.5,0.4 568.7,0.4 
		476.9,0.4 385.1,0.4 293.3,0.4 201.5,0.4 109.7,0.4 17.9,0.4 -73.9,0.4 -73.9,614 17.9,614 109.7,614 201.5,614 293.3,614 
		385.1,614 476.9,614 568.7,614 660.5,614 752.3,614 752.3,613.5 843.3,613.5 935.1,613.5 1026.9,613.5 1118.7,613.5 1210.5,613.5 
		1302.3,613.5 1394.1,613.5 1394.1,0 	"/>
	<g>
		<path class="st1" d="M218.1,306c0.1-9.5,0.1-18.9,0-28.4h-2.3h-50.7h-2.1c-0.1,3.3-0.4,64.2-0.3,67.5c0.3,6.2-0.1,12.5,0.2,18.8
			c0,1,0,1.8-0.2,2.4h2.5l50.5-57.5h2.6C218.2,308,218.1,307.1,218.1,306z"/>
		<path class="st2" d="M193.9,247.4c-2.8-4.8-8.8-5.9-13.8-2.4c-1.7,1.2-2.7,1.3-4.6,0.3c-3.9-2.1-7.5-1.2-10.2,2.4
			c-2.4,3.3-2.1,7.5,1.3,10.4c1.4,1.2,2.1,2.3,2.1,3.8h2.9h12.8c0-0.3,0.1-0.7,0.1-1.1c0-0.2,0-0.3,0.1-0.5
			c-0.1,0.1-0.1,0.3-0.1,0.5c0,0.4,0,0.8-0.1,1.1h3.2c0.7-0.4,1.7-0.6,2.3-0.9C195.3,257.7,196.8,252.4,193.9,247.4z M184.8,260
			c0.2-0.2,0.5-0.3,0.8-0.4C185.3,259.7,185,259.8,184.8,260z"/>
		<path class="st2" d="M191.1,169.9c-1.1-1.4-1.1-2.2-0.1-3.7c4-6,3.9-12.4,0-17.3c-4.1-5.1-11.5-7.2-17.8-4.9c-1.7,0.6-3,2-4.6-0.7
			c-3.7-6.2-10-8.5-16.9-7c-6.5,1.4-10.7,6.4-11.7,14c0.1,1.9-0.1,3.3-3.1,3.8c-6.7,1.1-11,6.5-11.1,13.2
			c-0.2,7.2,4.4,13.9,10.9,15.2c3.1,0.6,4,1.3,3.6,4.8c-1.1,8.1,4,14.5,12.1,16.6c8.9,2.3,16-0.6,19.3-8.2c0.9-2.2,1.6-3.3,4.4-2.6
			c6.2,1.4,11.9,0.1,15.6-5.6C195.2,181.5,195.6,175.5,191.1,169.9z"/>
		<path class="st2" d="M158.3,226.2c-1.1-4.3-3.9-7.6-8.4-7.3c-4.3,0.2-5.2-1.5-6-5.1c-1.3-5.4-6.2-8.5-11.5-8.3
			c-7.5,0.3-11.3,3.8-12.2,11.5c-0.3,2.3-0.9,3.6-3.2,4.7c-5.3,2.6-7.8,9.9-5.9,15.8c1.9,6,8,9.9,14.2,9.1c1.9-0.3,3.6-1.6,4.6,1.8
			c2,6.4,7.4,8.6,14.3,6.5c6.2-1.8,9.7-7.1,8.1-13.2c-0.8-3-1.2-4.5,2.3-6C158.2,234,159.3,230.2,158.3,226.2z"/>
		<path class="st1" d="M190.1,258.9c-8.8,0-17.7,0.2-26.5-0.1c-3.3-0.1-4.5,1.3-4.5,5.5c0,13.9-0.2,13.9,11,13.9
			c15.5,0,31.1-0.1,46.6,0.1c3.9,0.1,5.4-1.5,5.3-6.4c-0.1-2.5-0.2-5.1,0.2-7.8c0.4-3.1-1-5.4-4.3-5.4
			C208.6,259.1,199.4,258.9,190.1,258.9L190.1,258.9z"/>
		<polygon class="st3" points="184.3,317.6 200,317.6 200.9,303.2 184.3,303.2 		"/>
		<rect x="168" y="320.2" class="st4" width="30.4" height="17.9"/>
		<polygon class="st1" points="350.6,282.9 441.9,288.5 450.7,352.7 401,352.7 		"/>
		<polygon class="st5" points="350.6,282.9 441.9,288.5 451.1,343.1 433.9,345.9 		"/>
		<line class="st6" x1="396.5" y1="307.5" x2="442.6" y2="306.4"/>
		<line class="st6" x1="402.1" y1="326.3" x2="448.2" y2="325.1"/>
		<polyline class="st7" points="441.2,288.2 450.8,343.2 443.5,344.3 		"/>
		<path class="st8" d="M447.5,382.6c-19.8-22.1-100.3-97.6-126.8-120.2c-10.4-8.9-25.5-15.4-36.3-6.6c-6,5-76.4,67.9-126.1,122.1
			l7.3,141.1c0,4.2,4.2,7.7,9.3,7.7h256.2c5.1,0,9.3-3.5,9.3-7.7L447.5,382.6z"/>
		<path class="st9" d="M494.8,378.3c-0.5,0-1-0.1-1.5-0.2l-47.4-8.9c-1.8-0.3-3.4-1.3-4.7-2.6c-0.9-1-88.7-99-122.9-123.5
			c-14-10-19.9-8.9-30.8-0.5c-6.2,4.8-77.4,77.4-123.8,125c-1.2,1.3-2.8,2.1-4.5,2.4l-46.6,8.3c-4.5,0.8-8.8-2.2-9.6-6.7
			c-0.8-4.5,2.2-8.8,6.7-9.6l44-7.8c18.3-18.8,115.1-118,123.7-124.6c9.1-7,16.6-10.1,24.6-10.1h0c8,0,16.1,3.2,26,10.3
			c33.2,23.8,110.2,109,123.7,123.8l44.6,8.4c4.5,0.8,7.5,5.2,6.6,9.7C502.2,375.6,498.7,378.3,494.8,378.3z"/>
		<path class="st1" d="M159.4,365.2c0.2-0.3,0.5-0.5,0.7-0.8C159.9,364.7,159.6,364.9,159.4,365.2z"/>
		<path class="st10" d="M433.3,361.9L314.7,244.7c-6.5-2.7-13-4.1-19.3-3.9L167.2,367.5c-2.8,0-5.4,1-7.1,2.7
			c-0.3,0.3-0.5,0.5-0.7,0.8c-1,1.2-0.7,4-0.7,5.6l1.1,21.3c49.7-54.3,118.6-131.2,124.6-136.2c10.8-8.7,25.8-2.3,36.3,6.6
			c26.5,22.6,105.4,111.6,125.3,133.6l1.1-23.3C444,374.9,439.7,369.1,433.3,361.9z"/>
		<path class="st11" d="M370.4,525.3c5.1-85-2.2-131.5-24.5-155.3c-10.7-11.5-24.6-17.3-41.2-17.3h-0.1c-16.8,0-31.5,6.7-42.6,19.4
			c-16.6,18.9-25.5,51.4-26.5,96.7c-0.6,25.8,1.6,48.2,2.5,56.6L370.4,525.3L370.4,525.3z"/>
		<path class="st12" d="M254.6,526.6c0,0-21.1-157.7,50-157.6c46.5,0.1,55.4,60.1,49.3,157.6"/>
		<ellipse class="st13" cx="272.6" cy="448.7" rx="7.8" ry="11.6"/>
		<rect x="197.5" y="471.3" class="st3" width="27.7" height="21.5"/>
		<rect x="191" y="497.5" class="st14" width="34.2" height="21.5"/>
		<rect x="386.6" y="501.1" class="st3" width="30.4" height="17.9"/>
		<rect x="406.1" y="492.4" class="st3" width="8.6" height="4.2"/>
		<rect x="197" y="463.7" class="st3" width="8.6" height="4.2"/>
		<rect x="386.6" y="437.2" class="st4" width="30.4" height="17.9"/>
		<rect x="406.1" y="428.5" class="st4" width="8.6" height="4.2"/>
		<rect x="376.7" y="404.2" class="st3" width="8.6" height="4.2"/>
		<path class="st15" d="M222,314.1c-11.1,11.3-22.6,23.1-33.7,34.5h229.7c-9.5-10.1-20.9-22.2-32.8-34.5L222,314.1L222,314.1z"/>
		<path class="st15" d="M504.5,370c-0.4-4-3.9-7-8-6.7l-46.1,4.2c-3.7-4-11-11.8-20.4-21.8c-7.2-7.6-15.5-16.5-24.4-25.8
			c-27.7-29-60.6-62.4-77.7-76.4c-17.4-14.2-31.9-14.4-49.9-0.5c-5.2,4-43.5,43-76.7,76.9c-8.8,9-17.2,17.6-24.5,25.1
			c-9.8,10-17.6,18.1-21.9,22.5l-46.2-4.2c-4-0.4-7.6,2.6-8,6.7c-0.4,4,2.6,7.6,6.7,8l49.7,4.5c0.2,0,0.4,0,0.7,0
			c2,0,3.9-0.8,5.3-2.2c7.8-8.1,16.3-16.8,25.1-25.9c11.1-11.4,22.6-23.2,33.7-34.5c32.4-33.2,61.3-62.3,65.1-65.3
			c12.5-9.6,19.5-9.6,31.6,0.2c14.5,11.9,41.5,39,66.6,65.1c11.9,12.4,23.4,24.5,32.8,34.5c14,14.9,23.7,25.4,24,25.7
			c1.5,1.7,3.8,2.5,6.1,2.3l49.7-4.5C501.9,377.6,504.9,374.1,504.5,370z"/>
		<ellipse class="st16" cx="303.8" cy="278.9" rx="13.8" ry="19.2"/>
		<polygon class="st3" points="423.6,493.3 439.3,493.3 440.3,475.4 423.6,475.4 		"/>
		<polygon class="st14" points="423.6,515 438.2,515 439.1,497.1 423.6,497.1 		"/>
		<polygon class="st4" points="183.7,497.5 167.8,497.5 168.9,519 183.7,519 		"/>
		<polygon class="st14" points="179.2,429.5 164.3,429.5 165.2,447.4 179.2,447.4 		"/>
		<rect x="207.3" y="403.6" class="st4" width="8.6" height="4.2"/>
		<rect x="197" y="392.1" class="st3" width="8.6" height="4.2"/>
		<polygon class="st14" points="177.6,284.7 165.5,284.7 165.8,302.6 177.6,302.6 		"/>
	</g>
	<g>
		<path class="st17" d="M496.9,409.8c0,0.5,0,1.1,0,1.6c0,0-0.1,0-0.1,0.1L496.9,409.8z"/>
		<path class="st17" d="M497.3,411.1c0,1.1,0,2.2-0.1,3.3c-0.2-1-0.3-2-0.3-3C497,411.3,497.1,411.2,497.3,411.1z"/>
		<path class="st17" d="M496.8,411.5C496.8,411.4,496.9,411.4,496.8,411.5c0.1,0.9,0.3,2,0.4,3c-0.1,1.8-0.4,3.7-0.8,5.4
			L496.8,411.5z"/>
		<path class="st17" d="M414.9,425.3c1.3,2.6,6.4,2.2,9.3,2.8c7.1,1.5,13.8,3.7,17.2,10.3c4.8,9.2,7.2,22.3,17.6,26.7
			c2.2,0.9,8,1,9.4,3.2c1.1,1.6-0.2,4.6-0.3,6.7c-0.4,9.3,3,12.9,11.9,12.4c8.1-0.4,9.3,0.4,13.2,9c2.9,6.4,0.3,11.3-1.7,17.7
			c-1.2,3.9-4,7.9-3.7,11.9c0.8,10.4,47.3,14.8,53.2,11.2c2.2-1.4,5.4-5.9,0.8-6.8c1.8-7.1-18.4-26.7-23.5-32.2
			c-4.3-4.6-18.1-8.2-19.2-14.2c-1.3-7.3,6.2-13.1-0.9-20.2c-4.8-4.7-15.1-1.3-15.9-8.8c-0.7-6.7,2.3-13.5,7.2-17.6
			c4-3.4,7.5-5.6,8.4-10.9c0.7-4.1-0.3-8.2-0.8-12.2c-0.1,1.8-0.4,3.7-0.8,5.4l0.4-8.4c-5.3,4.2-4.2,5.6-5.8,11.7
			c-1.2,4.6-8.2,13.9-12.7,14.7c0.2-4.5-0.5-10.3,1.2-14.4c2-4.8,9-8.1,6.9-14.1c-4.5,1.3-11.7,9.1-14.3,13.1
			c-3,4.7-5.9,15.4-4.2,21c1.1,3.6,6.8,8.2,2.9,11.7c-4.6-4.3-4.9-4.9-11.7-6.4c-3.4-0.7-6.5-1.5-8.8-4.3c-2.9-3.7-2.7-9-6.2-12.4
			C435.6,423.7,425.8,425.1,414.9,425.3z M478.9,466.6c1.7-2.1,7.1,0.1,9.7,1.3c4.7,2.3,3.8,5.1,3.3,9.7c0.1,0.9,0.2,1.8,0.2,2.7
			c-3,0-11,0.1-13-1.7C477.9,477.5,478,467.7,478.9,466.6z"/>
		<path class="st17" d="M491.6,472.2l0.1,3.9C491.5,474.8,491.4,473.5,491.6,472.2z"/>
		<path class="st17" d="M491.7,476.1c0.1,0.5,0.1,1,0.2,1.4c-0.1,0.6-0.1,1.2-0.1,1.8L491.7,476.1z"/>
	</g>
	<path class="st18" d="M438.5,283.2c-3.7-0.3-8.7,0.8-11.6,3.1c0.3-1-0.1-2.2,0.1-3.1c-1.8-0.1-3.7,0.6-5.2,1.6
		c0-3.6,0.8-8.1-4.1-7.8c-1.7,0.1-2.2,2.3-3.7,2.2c-2.1-0.1-3.7-3.2-6.2-3.6c0.2,1-0.4,2.4-0.3,3.3c-2.3-1.2-5.4-2.3-6.8,0.6
		c-2.2-2.1-7.7-7-11.3-5.1c-2.5,1.4-1.1,5.5-3,6.8c-1.1,0.8-7.6-0.8-9.6-0.7c-1.5,0.1-2.4,1.8-4.8,0.7c0.1-0.1-0.6,1.5-0.6,1.4
		c-0.7-0.8-1.4-0.9-2-1.4c-0.5,1.6-0.8,3.4-0.7,5.1c-5.7-1.1-3.3,1.7-5.4,4.8c-1.9,2.9-7.7,6.5-11.4,7.7c-4.6,1.5-11.8,0.2-15.5,5.1
		c-1.4,1.8-2.4,5.4,0.1,6.3c-1.5,0-2.6,0.9-4,1.6c0.4,0.2,1.4,1.6,1.9,1.9c-2.9,1.4-1.8,3.6-3,5.7c-1.2,2.2-7.5,8.4-1.5,9.6
		c-6.4,3.8-12.6,15.7-7.9,23.4c-5.7-0.3-14.2,11-5.7,12.3c-2.2,2-4.7,3.8-4.2,7.2c-1.8,0-4.3,0-5.4,1.6c-2.5,3.4,0.9,3.4,2.9,5.2
		c0.8,0.7,2.5,2,3,2.4c0.5,0.4,1.3,2.6,2.5,3.5c1.5,1.2,4,1.7,5.9,1.8c-0.3,0.8,0.3,2.4-0.1,3.3c4.3,1.6,3.9,2.1,5.5,6
		c2,5.2,3.6,4.7,7.8,7.6c5.8,3.8,8.1,6.9,16.3,7.3c2,0.1,11.1-0.7,12.1,0c1.4,0.9,1.4,4.5,2.4,5.9c1.4,2.1,3.7,0.1,4.7,4.4
		c3,0.1,5.5-2.8,7.9-3.7c-3.7,6.1,5,8.9,10,8.4c3.4-0.3,5-2.2,8.3-2.2c3.4,0,6.4,2.6,9.9,0.6c0.8,2.3,1.9,6.9,4.7,7.4
		c2.9,0.5,6.4-4.1,9.8-4.3c3.6-0.3,3.3,1.9,6,2.2c4.1,0.5,4.3-2.6,6.6-4.3c1-0.7-0.3-2,1.5-2.1c2-0.1,2.7,2.5,3.8,3.6
		c2.1,1.9,3.4,4,6.6,2.7c1.9,5.2,7.8,0.7,10.3-2c-1.4,4.7,14.6,4.8,9.2-5.8c4.1,1.3,9.8,7.7,9.1-1.9c3.2,6.6,7.2,1.9,10.1-0.6
		c0.2,0.5,0.4,0.9,0.7,1.3c0.5-1,1.8-1.8,2.4-2.6c7,8.8,9.9,3.1,12.6-3.8c0.2-0.4-0.8-1.4-0.4-2.3c1.7-3.7,8.1-4.2,10.7-7.7
		c8.4-11.2-8.6-16.3-17.2-17.8c3.2-5.9,6.1-17.4-3.4-19.5c8-8.1,11.2-16.8-2.7-23.4c0.9-2.6,8.6-17.7-1.2-10.7
		c-0.1-1.3-0.8-2.8-0.5-4.3c-0.9,0.7-2.3,0.9-3.2,2c-0.5-2.9-3.2-11-7.6-7.9c1.7-4.3,4.5-11.4-2.7-11.4c-0.3-3.6-2.8-6.2-6.5-5.1
		c0.3-3.1-3-4.9-5.2-2.4c1.5-8.2-5.5-18.2-11.9-8.8c-0.4-1.7-1.4-3.3-2.8-4.1c-0.3,0.3-0.5,0.7-0.8,1c-0.7-2.1-1.5-4.2-2.7-6
		c-0.7,0.2-1.2,0.6-1.4,1.3c-0.3-0.6-1.3-3.1-1.6-4"/>
	<path class="st17" d="M488.3,419.3c5.7,9.6,17,17.4,19.9,28.5l0-0.3c4.2,6.7-0.4,18.9,0.2,26.7c0.7,8.6,6.8,11.6,11.6,17.6
		c3.3,4.1,2.3,10.5,2.7,15.6c0.4,5.8,2.5,11.8,7,16c5.1,4.8,12.4,4.6,19,5.8c4.4,0.8,8.9,1.9,11.5-2.4c2-3.5,0.5-6.9-1.7-9.6
		c-4.8-6-9.9-12.1-14.9-18.1c-8.4-9.9,0.7-12,6.2-19.7c5.6-7.8,0.9-14.4-5.1-20.6c-4.2-4.2-12.1-7.1-9.7-14c2.2-6.1,8.8-7,14.4-7
		c9.9,0,17.1-1.9,23.7-9.6c7.8-9,1.9-9.4-5.8-4.7c-6.3,3.8-9.8,8.4-17.7,5.2c0.9-1.9,0.6-4.1-1.2-5.5c-3-2.3-2.6-0.3-3.9,1.5
		c-1.6,2.1-1.7,3.9-3.9,5.5c-3.4,2.5-8.5,2.4-11.7,5.2c-2,1.7-3,7.7-4.9,7.9c-1.7,0.1-3.5-4.1-4.3-5.4c-4.8-7.8,1.1-19.2-10.2-23.9
		c-2.6,3,0.4,13.1,1.2,16.4c-7.3,1.5-12.5-15.5-17.2-19.2C483.6,403.4,483.9,412,488.3,419.3z M525.7,459.2
		c3.7,2.1,10.7,6.1,12.1,10.1c0.7,1.9-0.1,10.7-2.5,11.6c-2.7,1-11.4-11.4-11.8-14.7C523.2,464.1,524.8,455.6,525.7,459.2z"/>
	<path class="st19" d="M536.5,421.9c1,1.3,4.6,1,5.4,2.4c0.8,1.4-1.2,3.7-1.4,5.4c3.2,0.6,6.2-0.6,9.4,0.1
		c1.2,8.1,14.7-0.9,17.4-1.6c3.9-0.9,1.4,0.6,4.6,2.1c4.2,2,8,0.6,11.6-2c1.8,4.1,5.5,7.2,10.2,4.4c3.7-2.2,0.8-3.7,3-5.6
		c2.5-2.1,6,2.1,7-2.8c0.4-2.2-2.8-5.4-2.4-8.4c3.8-0.8,10.9-0.2,14.1-2.1c4.1-2.4,3.6-5.4,8.8-7.3c14.1-5,17.4-11.3,16.3-24.7
		c-2.3-0.8-0.2-9.4,0.3-11.7c1.3-6.5,6-13.6,5.5-22.1c-0.4-5.8-2.3-9.9-3.9-15.1c-1.6-5.1-1.5-0.9,0.1-4.6c0.5-1.1,3.4-3.2,4.2-4.7
		c1.9-3.5,2.2-5.1,0.2-8.7c-3.5-6.1-4.7-4.5-4.1-11.1c0.3-3.5-0.2-9-1.8-11.8c-0.5-0.8-2.3-0.1-2.9-1.3c-0.9-1.9,0.8-4.6,0.4-6.9
		c-0.8-4.8-3-4.9-7-2.6c-1-5.1-6-8.7-8.9-12.9c-3-4.4-4.7-8.2-9.1-11.5c-2.2-1.7-5.3-2.5-7.4-4.2c-2.6-2-8.3-5.9-9.9-8.7
		c3-1.4,2.7-5,0.9-6.9c-2.3-2.4-6.4-1.7-9.3-2.2c-4.9-0.9-5.5-2.3-9.9-5.3c-6.3-4.3-11.4-4.9-18.5-5.6c0.7-6.8-0.2-10.6-7.4-4.8
		c-3.6,2.9-6.5,4.5-11.4,4.9c-3.7,0.3-6.8-1.1-10,1.5c-6.5-10.6-25.4-10.1-36-6.3c-5.1,1.9-9.6,4.9-14.3,7.5
		c-4.8,2.6-8.7,0.2-13.4,1.5c-0.2,3,2.2,4.8,2,7.9c-0.3,4-4.6,7.2-7.7,9.1c-4.3,2.6-10.2,3.6-13.1,8.3c-2.2,3.6-0.6,4.6-3.9,6.2
		c-3.2,1.6-8.4-0.3-9.2,4.4c-0.4,2.3,1.6,3,0.6,5.9c-0.9,2.6-4.9,6-6.5,8.3c-1.8,2.8-3.4,5.8-5.1,8.7c-3.1,5.2-6.6,10.8-10.1,15.7
		c-3.1,4.5-6,4.6-11.7,5c-3.3,0.2-11.2-2.2-13.4,0.4c-2,2.4,0.9,6.4,0.4,9c-0.9,5.4-2.6,5.3-1,11.5c0.6,2.3,1,7.6,3.1,9.1
		c1.3,0.9,3.7-0.3,5.2,0.8c1.9,1.5,1.1,1.4,1.6,3.7c0.6,2.5-0.4,5.2,0.7,8.2c1.4,3.7,4.1,6.9,6.9,9.6c-2.9-0.4-5.9,0.4-8.4,1.8
		c0.6,5.8,8.9,14.3,14.5,15.6c-8.7,2.8,1.1,9.8,6,9.5c-0.3,0.5-0.6,0.9-0.8,1.4c1.7,2.4,4.8,3,7.5,3.6c-6.5,12.4,8.8,18.3,17.8,18.6
		c-5.3,9.6,13.3,7.2,18.2,5.8c-0.4,6.4,9.4,13.9,15.1,11.1c2.5-1.2,3.4-4.1,5.5-5.7c1.7-1.2,4,0.1,5.1-3c2.9,2.6,7,2,9.1-1.2
		c-1.1,1.3-1.5,3-1,4.8c4.2,1.6,12.3,1.7,15.4-2.2c-4.7,9,16.8,3.3,19.5,0.3c-5.2,5.8,4.7,9.3,9.3,3.7c-0.5,2-1.4,3.8-2.6,5.5"/>
	<path class="st19" d="M475.6,375.8c3.4,3.5-1.9,3.4-3,5.2c-1.4,2.3,1.7,4.7-2.1,5.7c2.7,2.1,3.7,4.6,4.8,7.7
		c-0.6,0.4-1.2,0.5-1.9,0.6c0.1,4.4-6.5,2-7.2,0.5c-1.2,3.6-4.2,1-6.7,1.2c-3,0.2-8.7,3.6-8-3.3"/>
	<path class="st18" d="M466.6,339.4c9.6-4,8.8,13.7,1.4,5.3c-1.4,2.6-5.1,3-7,1c5.8,5.4-10.1,7.2-11.4,0.6"/>
	<path class="st18" d="M451.5,299.1c5.3,6.5,21.1,3.7,9.9,0c2.5-0.1,5.8,1.2,7-1.3c-3-2.1-6.9-1.9-10-3.5"/>
	<path class="st18" d="M373.5,320.9c-0.1,3.3-8.2,5.2-12.4,4.4c-0.6-4.6,3.9-10.2,8.1-11.2"/>
	<path class="st18" d="M399.7,380.5c0.4,5.6-7,12.2-7.8,4.3c-0.3,1.1-1.3,2.1-1.6,2.9c-2.9-4.8-9.9,2.5-14.5-0.4
		c-0.4-0.3-0.3-2-0.8-2.6c-1.2-1.4-3.5-2-4.7-3.6c-3.3-4.2-2.8-9,0.5-13.1c-4.6-1.9-2.7-8.5,1.6-9.2"/>
	<path class="st18" d="M351.5,379.6c1.3,0.8,2.1,1.8,1.8,3.6c-1.4-0.1-2.6,0.7-4,0.5c1.4,2.9,0.8,6.4,0.5,9.5
		c-0.7-0.8-1.9-1.2-2.4-2.9c0.4,4.6-5.9,7-6.2,2.1c-3,1.1-10.7,0.3-8.4-4.5"/>
	<path class="st20" d="M547,461.7c-1.3,5.3,1.3,10.9,6.9,9.3c5.9-1.6,12-8.9,14.5-14.2c2.2-4.4,0.7-6.9-2.2-8.5
		c-0.3,0.2-0.7,0.3-1,0.5C559.3,451.8,548.8,454.7,547,461.7z"/>
	<path class="st17" d="M560.8,424.1c-3.2-1.6-6.3-3.3-9-5.1c-5.1-3.5-9.4-7.5-6.9-14c1.4-3.9,4.5-7.2,5.4-11
		c0.9-3.9-0.4-6.3-3.8-8.5c-4.4,4.2-3.9,11-7.9,15.3c-2,2.1-4.3,3.1-6.1,5.5c-1.7,2.3-1.4,2.7-4.7,2.9c-9.4,0.5-9.2-6.6-14.5-12.1
		c-6-6.3-9.9-12.3-19.4-11.7c-2.5,4.8,7.1,13.7,9.5,17.1c2.7,3.9,3.7,8.3,5.7,12.5c2.4,4.9,6.5,9.3,10.9,12.4
		c6.2,4.4,12.8,7,19.7,10c0.5-0.4,0.9-0.7,1.4-1.1C547.6,431.6,554.1,427.7,560.8,424.1z"/>
	<path class="st17" d="M612,393.7"/>
	<path class="st17" d="M566.2,447.4c2.8,1.6,4.3,5.1,2.2,9.5c-2.6,5.3-8.6,12.6-14.5,14.2c-5.6,1.5-8.2-4.1-6.9-9.3
		c1.5-6,8.7-8.7,13.7-10.9c6.3-2.7,10.5-8.2,16.5-11.7c5.2-3.1,9.7-6,14.6-9.7c9.6-7.4,19.6-13.1,28.5-21.2
		c4.5-4.1,8.5-9.2,13.7-12.3c-6.5,0.6-10.2,0.2-16.2-1.3c-1.4-0.3-3.7-0.8-5.8-0.8c-9.2,7.4-18.5,14.4-29.2,19.6
		c-7.4,3.6-14.8,7-22,10.8c-6.7,3.6-13.3,7.4-19.6,12.1c-0.5,0.3-0.9,0.7-1.4,1.1c-14.1,11-28,30.8-11.1,45.5
		c4.8,4.2,8.2,5.3,4.4,11.5c-2.8,4.5-7.3,9.8-11,13.8c-5.2,5.8-12.7,9.6-17.2,16c-6.5,9.2,8.2,13.4,15.9,12.7
		c5.1-0.4,9.7-2.7,14.4-4.1c2.8-0.8,8.2-4.4,10.3-2.6c2.3-1.9,2.9-5,4.3-7.3c2.5-4.1,4.4-8.2,6.7-12.4c2.6-4.8,6.2-9.7,7.8-14.8
		c1.8-5.6,0.4-5.3,5.9-8.9c12.2-8.1,25.7-21.3,20.8-37.8c-1.5-5-5-9.9-8.8-13.2"/>
	<path class="st21" d="M-28.9,417.2c-1.4,1.2-2.9,2.5-4.3,3.8c5.6-3.7,7.6-5.8,11.8-8.4C-24,413.8-26.4,415.2-28.9,417.2z"/>
	<path class="st22" d="M78,462.8c-2.2-6.6-3.6-13-5.9-19c-0.1,0.1-0.1,0.3-0.2,0.3c-8,4.3-17.9,4.4-25.9,9.1c-3,1.7-4.1,3.6-7.5,2.7
		c-2-0.6-2.5-2.8-5.2-3.2c-1.5-0.3-2.9,0.7-4.4,0.9c-4.7,0.5-10.3,1.2-15,0.6c-3.8-0.5-4.4-1.5-7.6-3.9c-3.3-2.6-1.9-1.3-5.8-1.7
		c-4.5-0.4-8-1.1-6.7-6.7c-10.4-1.1,2.6-10.3,2.9-11.4c0.9-4.3-14.7-9.5-18.4-9.8c-4.3-0.3-3.6,2.4-6.5,3.8
		c-3.3,1.6-9.4,16.1-13.4,16.2c-5.2,0.1-17.9,20.2-18.5,12.4c0-0.3,0-0.6,0.1-0.9c-6.2,9.8-9.1,19.8-7.7,32.9
		c0.6,5.6,3.3,10.3,2.9,16.1c-0.4,6.5,2.5,18.8,5.6,19.9c5,1.8,10.4,4.2,15.5,5.5c9.9,2.5,21.4,3.1,31.5,2.5
		c15.5-0.9,30.9,2,46.5,1.4c13.9-0.5,22.9-5.3,34-13.1c6-4.2,6.5-3.7,6.8-11.3c0.4-10.4,1.4-20.5,3.6-30.7
		C79.9,469.4,79.9,468.4,78,462.8z"/>
	<g>
		<polygon class="st23" points="1025.1,322.8 1122.3,328.7 1131.7,397.1 1078.8,397 		"/>
		<polygon class="st24" points="1024.7,322.8 1121.4,328.7 1131.2,386.6 1112.9,389.5 		"/>
		<line class="st25" x1="1074.6" y1="349" x2="1123.8" y2="347.8"/>
		<line class="st25" x1="1080" y1="368.9" x2="1129.1" y2="367.7"/>
		<polyline class="st25" points="1121.6,328.4 1131.8,386.9 1124.1,388.2 		"/>
		<path class="st26" d="M1125,393.2c-2.8-3.2-6.8-7.5-11.6-12.6c-3.7-3.8-7.8-8.1-12.2-12.6c-3.9-4-8.1-8.3-12.5-12.6
			c-4.1-4.1-8.4-8.4-12.7-12.6c-4.2-4.2-8.6-8.5-12.8-12.6c-4.4-4.3-8.7-8.6-12.9-12.6c-4.6-4.5-9.1-8.7-13.1-12.6
			c-5.1-4.9-9.7-9.2-13.4-12.6c-1.3-1.2-2.5-2.3-3.6-3.2c-8.7-7.8-21.2-13.4-30.2-5.8c-1.1,0.9-4.5,4.1-9.7,9
			c-3.6,3.4-8.1,7.7-13.2,12.6c-4,3.8-8.3,8.1-13,12.6c-4.1,4-8.3,8.2-12.7,12.6c-4.1,4.1-8.2,8.3-12.5,12.6
			c-4,4.1-8.1,8.3-12.2,12.6c-4,4.2-8,8.4-11.9,12.6c-3.9,4.2-7.8,8.4-11.5,12.6c-2.8,3.1-5.5,6.1-8.1,9.1l0.2,3.5l0.6,12.6
			l0.6,12.6l0.6,12.6l0.6,12.6l0.6,12.6l0.6,12.6l0.6,12.6l0.6,12.6l0.6,12.6l0.3,5.9c0,3.7,3.5,6.7,7.7,6.7H1112
			c4.2,0,7.7-3,7.7-6.7l0.3-5.9l0.6-12.6l0.6-12.6l0.6-12.6l0.6-12.6l0.6-12.6l0.6-12.6l0.6-12.6l0.6-12.6l0.6-12
			C1125.3,393.6,1125.2,393.4,1125,393.2z"/>
		<polygon class="st23" points="982.2,322.8 884.9,328.8 875.5,397.2 928.5,397.1 		"/>
		<polygon class="st24" points="981.9,322.8 885,328.7 875.3,386.7 893.6,389.6 		"/>
		<g>
			<g>
				<path class="st27" d="M1037.2,304.9c-5.1-4.9-9.7-9.2-13.4-12.6h-43.4c-3.6,3.4-8.1,7.7-13.2,12.6H1037.2z"/>
				<path class="st27" d="M941.4,330.1h121.8c-4.4-4.3-8.7-8.6-12.9-12.6h-96.1C950.1,321.5,945.8,325.7,941.4,330.1z"/>
				<path class="st27" d="M916.7,355.3h172c-4.1-4.1-8.4-8.4-12.7-12.6H929C924.9,346.8,920.8,351.1,916.7,355.3z"/>
				<path class="st27" d="M893.3,380.6h220.1c-3.7-3.8-7.8-8.1-12.2-12.6H904.8C900.9,372.1,897,376.4,893.3,380.6z"/>
				<path class="st27" d="M885.3,393.2l0.6,12.6h238.9l0.6-12c-0.2-0.2-0.3-0.4-0.5-0.6H885.3z"/>
				<polygon class="st27" points="887.2,431 1123.7,431 1124.3,418.4 886.6,418.4 				"/>
				<polygon class="st27" points="888.5,456.3 1122.4,456.3 1123,443.6 887.8,443.6 				"/>
				<polygon class="st27" points="889.7,481.5 1121.2,481.5 1121.8,468.9 889.1,468.9 				"/>
				<polygon class="st27" points="890.9,506.7 1119.9,506.7 1120.6,494.1 890.3,494.1 				"/>
			</g>
			<g>
				<g>
					<path class="st28" d="M1020.2,289c-8.7-7.8-21.2-13.4-30.2-5.8c-1.1,0.9-4.5,4.1-9.7,9h43.4
						C1022.4,291.1,1021.2,290,1020.2,289z"/>
					<path class="st28" d="M954.1,317.5h96.1c-4.6-4.5-9.1-8.7-13.1-12.6h-70.1C963.1,308.7,958.8,312.9,954.1,317.5z"/>
					<path class="st28" d="M929,342.7h147.1c-4.2-4.2-8.6-8.5-12.8-12.6H941.4C937.4,334.2,933.2,338.4,929,342.7z"/>
					<path class="st28" d="M904.8,368h196.3c-3.9-4-8.1-8.3-12.5-12.6h-172C912.7,359.5,908.8,363.7,904.8,368z"/>
					<path class="st28" d="M1125,393.2c-2.8-3.2-6.8-7.5-11.6-12.6H893.3c-2.8,3.1-5.5,6.1-8.1,9.1l0.2,3.5H1125z"/>
					<polygon class="st28" points="1124.3,418.4 1124.9,405.8 886,405.8 886.6,418.4 					"/>
					<polygon class="st28" points="887.8,443.6 1123,443.6 1123.7,431 887.2,431 					"/>
					<polygon class="st28" points="889.1,468.9 1121.8,468.9 1122.4,456.3 888.5,456.3 					"/>
					<polygon class="st28" points="890.3,494.1 1120.6,494.1 1121.2,481.5 889.7,481.5 					"/>
					<path class="st28" d="M1119.6,512.7l0.3-5.9h-229l0.3,5.9c0,3.7,3.5,6.7,7.7,6.7h212.9C1116.1,519.3,1119.6,516.3,1119.6,512.7
						z"/>
				</g>
			</g>
		</g>
		<line class="st25" x1="932" y1="349.1" x2="882.9" y2="347.9"/>
		<line class="st25" x1="922.2" y1="369" x2="878.2" y2="367.8"/>
		<polyline class="st25" points="885.6,328.5 875.4,387 883.2,388.3 		"/>
		<path class="st29" d="M1072,519.1c5.1-84.1-2.2-130.1-24.3-153.6c-10.6-11.3-24.3-17.1-40.8-17.1h-0.1c-16.6,0-31.2,6.6-42.2,19.2
			c-16.4,18.7-25.2,50.9-26.2,95.6c-0.6,25.5,1.6,47.7,2.5,55.9L1072,519.1L1072,519.1z"/>
		<path class="st30" d="M957.5,519.4c0,0-20.9-156,49.5-155.9c46,0.1,54.8,59.4,48.8,155.9"/>
		<ellipse class="st31" cx="975.3" cy="445.5" rx="7.7" ry="9.2"/>
		<path class="st32" d="M1027.3,274.8c-15.8-20.1-28.8-20.3-45.1-0.7c-4.7,5.7-131.9,150.7-135.3,154.9c-9.6,12.2,5.7,17.3,6.5,16.9
			c2.8,0,5.2-1.4,6-2.7c7.1-11.4,127.5-142.2,130.9-146.3c11.3-13.6,17.7-13.6,28.5,0.3C1032,314,1149,443.3,1151.6,447.7
			c1.3,3.1,4.8,3.3,7.3,3.3c4,0,14.3-5.7,5.9-15.6C1161.6,431.5,1042.8,294.6,1027.3,274.8z"/>
	</g>
	<path class="st33" d="M-60.1,453.2c0.6,7.7,13.4-12.3,18.5-12.4c4-0.1,10.1-14.6,13.4-16.2c2.9-1.5,2.2-4.1,6.5-3.8
		c3.8,0.2,19.4,5.5,18.4,9.8c-0.3,1.1-13.3,10.2-2.9,11.4c-1.3,5.6,2.3,6.3,6.7,6.7c3.9,0.3,2.4-0.9,5.8,1.7
		c3.1,2.5,3.7,3.4,7.6,3.9c4.8,0.6,10.3,0,15-0.6c1.5-0.2,2.9-1.1,4.4-0.9c2.6,0.4,3.2,2.6,5.2,3.2c3.5,0.9,4.5-0.9,7.5-2.7
		c8-4.6,17.9-4.8,25.9-9.1c0.1-0.1,0.2-0.2,0.2-0.3c-1.6-4.2-3.6-8.2-6.6-12.1c-9-11.3-19.4-23.4-30.8-32.5
		c-13.1-10.4-33.8,2.5-46.8,9.1c-3.3,1.7-6.4,2.9-9.4,4.2c-4.2,2.6-6.2,4.7-11.8,8.4c-6.8,6.4-13.1,13.7-19,20.7
		c-3,3.6-5.6,7-7.8,10.5C-60.1,452.6-60.1,452.9-60.1,453.2z"/>
	<path class="st33" d="M60.6,447.2c11,3.3,4.3,7.2,4.3,7.2s-12.4,12-7.2,12.4c5.3,0.5,3.8,7.2,9.1,6.2c5.3-0.9,21.5-2.9,21.5-2.9
		s6.7-4.8,9.6-4.3c2.9,0.5,5.7-1.4,7.6,2.9c1.9,4.3,11.5,7.2,15.3,7.6c3.8,0.5,4.3-5.7,8.6-4.8c-6.9-12.8-30.1-29.6-30.1-29.6
		l-11-7.6l-35.4,6.2c0,0-2.9,2.2-7.3,5.5c-0.1,0.1-0.2,0.1-0.3,0.2C48.8,445.5,54.2,445.2,60.6,447.2z"/>
	<path class="st21" d="M129.9,472.5c-0.2-0.3-0.3-0.6-0.5-0.9c-4.3-0.9-4.8,5.3-8.6,4.8c-3.8-0.5-13.4-3.3-15.3-7.6
		c-1.9-4.3-4.8-2.4-7.6-2.9c-2.9-0.5-9.6,4.3-9.6,4.3s-16.2,1.9-21.5,2.9c-5.3,0.9-3.8-5.7-9.1-6.2c-5.3-0.5,7.2-12.4,7.2-12.4
		s6.7-3.8-4.3-7.2c-6.4-2-11.8-1.6-15.2-1c-12,9-34.7,25.7-40.2,29.2c-7.6,4.8-7.6,52.6-7.6,52.6c3.3,15.3,102.8,7.2,102.8,7.2
		s46.4-4.3,46.1-16.2C146.2,507,136.2,485.4,129.9,472.5z"/>
	<path class="st34" d="M1344.2,511.2l-45.9,8.1c0,0-8.6,4.8-7.6,1.9c0.9-2.9-8.1-3.3-8.1-3.3s-29.6,10-31.6,6.2
		c-2.8-5.5-10.8-22.7-14.4-19.1c-5.3,5.3,0.5,17.2,0.5,17.2h-4.3H1217v-6.7h-14.8l-14.4,8.1c0,0-10,7.2-42.5,4.3
		c-32.5-2.9-7.6-2.4-10.5-5.7c-2.9-3.3-8.6,0-8.6-4.3s19.1-25.8,19.1-25.8s0.9-10-27.7-11S999,518.9,999,518.9H880.5l-5.7,9.1
		l-23.9-4.3l-8.1-0.9l-20.1,5.3l-22-2.9l-7.2-6.2c0,0-8.6-5.3-13.8-4.8c-5.3,0.5,0,8.6,0,8.6l-10-3.8v9.1h-27.3
		c0,0-1.4-20.1-8.6-18.2s-7.2,9.6-7.2,9.6h-56.5c10.5-21.5-22-22.5-22-22.5c-14.4-2.9-49.3,14.4-49.3,14.4l-45.9,8.1
		c0,0-8.6,14.8-7.6,11c0.9-3.8-0.9-6.2,0-9.1c0.9-2.9-8.1-3.3-8.1-3.3l-5.7,10.5c0,0-25.3,3.8-27.3,0c-1.9-3.8,10-12.9,10-12.9
		s-14.4-15.8-19.6-10.5c-5.3,5.3,5.7,17.2,5.7,17.2h-12.9h-15.8v-6.7h-14.8l-14.4,8.1c0,0-10,7.2-42.5,4.3
		c-32.5-2.9-7.6-2.4-10.5-5.7c-2.9-3.3-8.6,0-8.6-4.3s-127.1,0.9-127.1,0.9H135.2l-5.7,9.1l-23.9-4.3l-8.1-0.9L77.4,528l-22-2.9
		l-7.2-6.2c0,0-8.6-5.3-13.8-4.8c-5.3,0.5,0,8.6,0,8.6l-10-3.8v9.1H-2.9c0,0-1.4-20.1-8.6-18.2s-7.2,9.6-7.2,9.6h-56.4v94.4h1468.5
		v-94.6C1379,516.3,1344.2,511.2,1344.2,511.2z"/>
	<rect x="-74.9" y="563.6" class="st35" width="1468.8" height="50.2"/>
	<path class="st19" d="M483.5,394.8c3.7,12.2-24.5,6.5-18.3-4.6c-7.5-0.6-15.7,0.8-22.7-1.3c0.2-5.4,6.7-5.9,9.4-10.2
		c-7.1-4.2-14.4-4.4-21-8.7c-4.9-3.2-9.2-13.4-13.6-15.2c-7.9-3.3-24,7.6-26.5-9.5c1.8-0.3,3.5-1.5,5.4-1.4
		c-4.9-1.2-11.9-2.4-12.1-8.2c13-1,7.5-6.3,5.7-13.6c-3.2-13,0.9-25.7,7.3-37c-3.7-0.6-7.7-0.7-11.1-2.3c5.4-5.4,15-8.9,20.1-14
		c-7.7-8.5-12.1-7.7-2.3-13.7c5.2-3.1,14.4-6.2,20.3-6.7c-1.3-8.3,6.6-12.9,13.3-7.8c0-6.1,6.1-9.7,10.6-13.3
		c-4.2-1.3-11.5-4-8.6-9.3c2.4-4.4,9.4-2.4,13.3-3.7c-0.5-1.1-0.3-3.6-0.8-4.7c12.4,1.1,13.6-7.9,19.1-18.3c5.1-9.7,6-9.5,15.3-14.4
		c2.5-1.3,5.7-1.7,7.7-3.7c-6.9-3.8-9.5-11.2-0.8-14.8c5.4-2.3,9.8,2,15.1,1.4c8.7-1,18.6-9.7,27.5-12.5c13.3-4.2,26.6-0.1,40.2,0
		c25.5,0.2,48,6.4,71.5,15.4c16.9,6.5,29.7,23.3,27.4,40.8c8.9,4.5,16.4-4.1,19.9,12.4c0.7,3.1,0,14.1-1.8,16.3
		c12.5-0.4,22.8,17.4,13.5,26.9c0.8,0.7,1.7,1.5,2.5,2.2c-1.2,3.3-3.7,5.9-7,7.5c7.9,4.3,8.5,14.4,9.1,22.6c1.9-1.4,6.5-1.5,8.4-2.7
		c5.9,8.5,4.7,39.6-7.8,43.8c3.9,3.8,3.4,9.2,0.3,13.8c9.2,7.7,4.8,11.4-0.7,19.5c-10.6,15.8-13.8,21.8-34.3,18.4
		c-10.8,24.4-23.9,14.8-43.8,14.6c-10.4-0.1-20.9-2.4-31.1-2.5c-3.4,0-5.7,0.8-9.3,1.2c-4.6,0.5-15.3,0.1-13.6-1.4
		c-4.3,4.2-12.8-2.1-17.2-5.1c-1,6.9-13.8,11.5-20.1,11.5c-5.5,0-7.6-4.2-12.3-4.8c-3.3-0.5-7.3,1.4-10.8,0.8
		c-4.2-0.7-6.1-5.3-9.7-5.6c-1.1-0.1-8.3,2.8-9.1,2.9c-7.5,1.6-13.8,0.7-20.7-2C482.2,394.2,484.8,394.8,483.5,394.8z"/>
	<polygon class="st2" points="-74.4,598.7 45.6,598.7 43.9,594.3 -74.4,594.3 	"/>
	<polygon class="st2" points="273.4,594.3 138.1,594.3 135.4,598.7 275.1,598.7 	"/>
	<polygon class="st2" points="493.2,594.3 357.9,594.3 355.3,598.7 495,598.7 	"/>
	<rect x="-74.9" y="550" class="st36" width="717.5" height="13.6"/>
	<rect x="-74.9" y="543" class="st37" width="717.5" height="6.7"/>
	<polygon class="st2" points="722.7,594.3 587.4,594.3 584.8,598.7 724.5,598.7 	"/>
	<polygon class="st2" points="1262.9,594.8 1127.6,594.8 1125,599.2 1264.6,599.2 	"/>
	<polygon class="st2" points="1392.8,594.3 1357,594.3 1354.4,598.7 1392.8,598.7 	"/>
	<g>
		<polygon class="st2" points="1047.7,565.1 798.4,565.1 793.5,569.6 1050.9,569.6 		"/>
		<polygon class="st2" points="781.8,580.3 1058.8,580.3 1054.5,574.4 788.2,574.4 		"/>
		<polygon class="st2" points="770.8,590.3 1066.2,590.3 1061.9,584.5 777.2,584.5 		"/>
		<polygon class="st2" points="755,604.8 1076.7,604.8 1069.7,595.1 765.6,595.1 		"/>
		<polygon class="st2" points="1083.5,614 1080.5,609.9 749.4,609.9 744.9,614 		"/>
	</g>
	<line class="st38" x1="-18.2" y1="549.7" x2="-18.2" y2="563.3"/>
	<line class="st38" x1="129.9" y1="549.7" x2="129.9" y2="563.3"/>
	<line class="st38" x1="268.6" y1="549.7" x2="268.6" y2="563.3"/>
	<g>
		<path class="st39" d="M881.3,461.1c-0.3,0-1.1,0-1.4,0c-1,1.1-2.1,2-2.9,3.3c-2.4-1-7.9-0.8-8.5,2.2c-3.4,0.3-20.2,3.6-17.4,9.3
			c-9.9-6.7-6.4,9.5-15,10.5c-0.2,2.1-0.9,3.7-1.7,5.6c-0.8-0.2-1.7,0.2-2.5-0.1c-1.3,9.8,0.5,7.1,7.3,10.2
			c-2.6,2.2-5.4,5.8-4.7,9.4c0.5,0,1.1,0.1,1.6,0.2c-8.8,9.5,8.8,12.9,14.9,13.9c-1.6,1.6-0.8,1.7-1.2,3.6c13.7,3.3,28.7-0.2,41-2.2
			c1.6,4.4,6.7,0.4,7.7-2.5c0.9,1.8,2.5,3.2,4.4,2.4c-0.8,4.4,5,0,6.7-0.5c8-2.3,9.7,3,10.5-6.6c2,0,4.2,0.1,6.1-0.2
			c0.2-3.5,0-6.2,1-8.5c0.4-1,1.8-1,2.5-2.7c0.1-0.3-1.2-3-1.4-3.4c8.7-3.9,0.4-5.7-3.4-9.2c1.1-3.1,0.8-6.2-3.2-5.3
			c4.9-6.9-6-6.8-7.8-9.1c-0.9-1.2,0.7-3.2-1.1-4.6c-0.9-0.7-4.5-0.1-5.6,0c-3.8,0.2-7,1.5-7.1-3.8c-1.1,0.4-2.7,0.2-3.8,0.9
			c0.3-1.3-0.3-2.9-0.1-4.2c-0.9,0.3-2.2-0.1-3.2,0.4c0.7-5-3.5-8.1-6.3-2.8C888.3,461.1,885.6,461.5,881.3,461.1z"/>
		<path class="st39" d="M910.8,500.2c-1-1.1-2.6-1.4-4.2-0.9c0,1.7,1,2.7,2.7,3.3c-4.6,2.6,0.9,1.9,1.8,2.8c2,2,2.7,6.5,6.4,3.4"/>
		<path class="st39" d="M875.5,512.1c-3.2,0-14.5,0.4-9.9-5.4c3.4,3.3-4.1,5.9-7.1,5.2c-0.3-2.1-0.7-4.6,0.8-6.1
			c-2.5-0.6-6.4-2-3.9-4.7"/>
	</g>
	<line class="st38" x1="407.2" y1="549.7" x2="407.2" y2="563.3"/>
	<line class="st38" x1="545.8" y1="549.7" x2="545.8" y2="563.3"/>
	<rect x="642.6" y="550" class="st36" width="751" height="13.6"/>
	<rect x="642.6" y="543" class="st37" width="751" height="6.7"/>
	<line class="st38" x1="699.3" y1="549.7" x2="699.3" y2="563.3"/>
	<line class="st38" x1="847.5" y1="549.7" x2="847.5" y2="563.3"/>
	<line class="st38" x1="986.1" y1="549.7" x2="986.1" y2="563.3"/>
	<line class="st38" x1="1124.7" y1="549.7" x2="1124.7" y2="563.3"/>
	<line class="st38" x1="1263.4" y1="549.7" x2="1263.4" y2="563.3"/>
	<line class="st38" x1="1382.9" y1="549.7" x2="1382.9" y2="563.3"/>
	<path class="st38" d="M618.7,515.8c-0.3,1.7-1.7,3.7-2.5,5.7c2.8,0.3,5.6-0.6,8.1-0.2c0,0.8,0.1,1.6,0.1,2.4c0.7,0.2,1.1,0,1.9-0.3
		"/>
	<path class="st38" d="M818.5,533.1c-0.9,1.5-3.3,0.4-4.3-1c-1-1.5-1.8-3.4-3.5-3.7c-1.5-0.3-3.8,0.3-4.1-1.2
		c-0.1-0.6,0.3-1.1,0.4-1.7c0.6-2.1-2-3.6-4-4.5c-2-0.9-4-3.5-2.4-4.9c0.4-0.4,1-0.6,1.4-1c1.5-1.7-1.7-4.8-0.1-6.4
		c0.5-0.5,1.3-0.5,1.9-0.9c2.4-1.3,1-5,1.5-7.7c0.5-3.1,4.3-5,7.1-3.7"/>
	<path class="st40" d="M792.5,432.3c0.5,0,1.7,0,2.1,0c1.4,1.7,3.2,3,4.3,5c3.6-1.5,11.9-1.2,12.8,3.3c5.1,0.4,30.3,5.4,26.2,14
		c14.9-10.1,9.6,14.2,22.6,15.8c0.2,3.1,1.3,5.5,2.5,8.4c1.1-0.3,2.6,0.3,3.7-0.1c1.9,14.7-0.8,10.7-11,15.4c4,3.3,8,8.7,7,14.2
		c-0.8,0-1.6,0.1-2.4,0.3c13.2,14.3-13.3,19.4-22.3,20.8c2.4,2.5,1.3,2.6,1.7,5.4c-20.6,4.9-43.1-0.3-61.6-3.2
		c-2.4,6.6-10,0.6-11.6-3.8c-1.4,2.7-3.7,4.8-6.5,3.5c1.2,6.6-7.5,0-10.1-0.8c-12.1-3.4-14.6,4.5-15.7-10c-3,0-6.2,0.2-9.1-0.3
		c-0.3-5.2,0-9.4-1.5-12.7c-0.7-1.5-2.7-1.5-3.7-4c-0.2-0.5,1.8-4.5,2.1-5c-13.1-5.8-0.7-8.6,5.1-13.8c-1.6-4.7-1.2-9.3,4.8-8
		c-7.4-10.4,9-10.2,11.7-13.7c1.4-1.8-1.1-4.9,1.6-7c1.4-1.1,6.8-0.1,8.4,0c5.8,0.3,10.5,2.3,10.7-5.8c1.7,0.6,4.1,0.3,5.8,1.4
		c-0.4-2,0.4-4.4,0.1-6.4c1.4,0.5,3.3-0.1,4.8,0.6c-1-7.5,5.2-12.1,9.4-4.2C782,432.5,786.1,433,792.5,432.3z"/>
	<path class="st38" d="M786.8,453.2c-3.3,0-6.7-0.1-9.9,0.1c-0.3,3.7,3.7,4.6,6.8,4.5c-2.2,3.4-6,5.5-8.9,8.2
		c2.5,0.1,5.1,0.1,7.6,0.2c-3,3.8-9.7,10.2-2.6,11.4c4.2,0.7,7.3-2.5,9.7-5.5c3.5,3,17.7,9.2,19.6,3.3"/>
	<path class="st38" d="M835.5,491.1c-1.6-1.7-3.9-2.1-6.4-1.4c0,2.5,1.5,4.1,4,5c-6.9,3.9,1.4,2.8,2.8,4.2c2.9,3,4.1,9.8,9.6,5.1"/>
	<path class="st38" d="M782.5,509.1c-4.9,0-21.7,0.7-14.9-8.1c5.1,4.9-6.2,8.8-10.6,7.8c-0.5-3.2-1-7,1.3-9.2c-3.7-0.8-9.6-3-5.8-7"
		/>
	<g>
		<path class="st33" d="M560.4,491.5c-4.2,1.6-1.7,3.5-1.7,3.5s4.8,5.8,2.8,6c-2,0.2-1.5,3.5-3.5,3c-2-0.5-8.3-1.4-8.3-1.4
			s-2.6-2.3-3.7-2.1c-1.1,0.2-2.2-0.7-3,1.4c-0.8,2.1-4.4,3.5-5.9,3.7c-1.5,0.2-1.7-2.8-3.3-2.3c2.7-6.2,11.6-14.3,11.6-14.3
			l4.2-3.7l13.7,3c0,0,1.1,1.1,2.8,2.6c0,0,0.1,0.1,0.1,0.1C565,490.7,562.9,490.6,560.4,491.5z"/>
		<path class="st21" d="M533.6,503.8c0.1-0.2,0.1-0.3,0.2-0.5c1.7-0.4,1.9,2.5,3.3,2.3c1.5-0.2,5.2-1.6,5.9-3.7
			c0.8-2.1,1.9-1.2,3-1.4c1.1-0.2,3.7,2.1,3.7,2.1s6.3,0.9,8.3,1.4c2,0.5,1.5-2.8,3.5-3c2-0.2-2.8-6-2.8-6s-2.6-1.9,1.7-3.5
			c2.5-0.9,4.6-0.8,5.9-0.5c4.7,4.3,13.4,12.4,15.6,14.1c2.3,1.8,2.8,16,2.9,22.3c0,1.9-1.4,3.1-1.4,3.1c-0.6,3.2-4.5,3.9-10.5,3.8
			c-6.1-0.2-13-1.2-16.7-1.5c-1.1-0.1-11.1,1.2-11.1,1.2s-14.5-5.5-14.4-11.3C530.8,516.9,531.2,510,533.6,503.8z"/>
	</g>
	<path class="st38" d="M531.3,190.2c-3.3,6.5-29.3,17.2-34.6,10c-5.4-7.5,7.3-20.5,12.2-25c-9,0.9-14.9,0-18.6-5.3"/>
	<path class="st38" d="M497.8,225.6c-13.4,16.9,4.8,18.4,15.4,7c0.6,7.5,12.2,2.8,15.2-1.3"/>
	<path class="st38" d="M583.8,193.1c-1.5,4.3-4.1,8.3-3.7,13.2c5.6,0.5,7.9-5.2,8.6-10.3c5.3,4.9,29.2,21.8,27.7,2
		c6.3,5.3,16.6,12.8,19-1"/>
	<path class="st38" d="M591.5,247.6c5.6,7,20.9,22.8,30.1,14c7-6.7-2.1-12.4-4.3-19.8c11.3,8.2,26.2,4.6,11.4-9.5"/>
	<path class="st38" d="M591.5,338.4c1.7,2.6,7.2,10.2,11.4,3.8c8.7,9.9,20.9,9,20.3-5.7c9.9,10.3,26.3-3.6,28.7-14.6
		c1.6-7.5,2.6-6.7-4.1-9.3c-4.1-1.6-12.1,0-16.2,0.9"/>
	<path class="st38" d="M559.9,317.4c-5.6,4.7-8-2.3-7.9-7.4c-1.3,2.8-8.4,9.1-12,6.3c-7.2-5.7,8.8-16.3,12.2-18.1"/>
	<path class="st38" d="M450.9,283c-4.5,2.1-9.7,5.6-8.5,11.3c4.5,1.4,9.1,0.1,13.1,1c4.6,1.1,6.6,8.1,13.5,1"/>
	<path class="st38" d="M466.2,328.9c-10.7,8.3,10,16.3,18,9.7c-0.3,9.9,13.7,20.2,20,9.5c6.4,13.7,16.4,3.5,20.3-5.8"/>
	<path class="st38" d="M461.5,355.6c0.1-0.1-2,0.8-3.7,0.8c-1.8-9.1-13.2,4-18.5-3.6c1-1.7,2.2-2,4-2.9"/>
	<g>
		<path class="st38" d="M514.8,536.1c-0.6,1-2.2,0.3-2.9-0.7c-0.7-1-1.2-2.3-2.4-2.5c-1-0.2-2.5,0.2-2.7-0.8
			c-0.1-0.4,0.2-0.8,0.3-1.1c0.4-1.4-1.3-2.4-2.6-3c-1.3-0.6-2.7-2.3-1.6-3.3c0.3-0.3,0.7-0.4,0.9-0.7c1-1.1-1.1-3.2-0.1-4.3
			c0.3-0.3,0.8-0.4,1.3-0.6c1.6-0.8,0.7-3.3,1-5.1c0.3-2,2.9-3.4,4.8-2.5"/>
		<path class="st40" d="M497.4,468.7c0.3,0,1.1,0,1.4,0c1,1.1,2.1,2,2.9,3.4c2.4-1,7.9-0.8,8.6,2.2c3.4,0.3,20.3,3.6,17.5,9.4
			c10-6.7,6.4,9.5,15.1,10.5c0.2,2.1,0.9,3.7,1.7,5.7c0.8-0.2,1.7,0.2,2.5-0.1c1.3,9.9-0.5,7.1-7.4,10.3c2.6,2.2,5.4,5.9,4.7,9.5
			c-0.5,0-1.1,0.1-1.6,0.2c8.8,9.5-8.9,13-14.9,13.9c1.6,1.6,0.8,1.7,1.2,3.6c-13.8,3.3-28.8-0.2-41.2-2.2c-1.6,4.4-6.7,0.4-7.8-2.5
			c-0.9,1.8-2.5,3.2-4.4,2.4c0.8,4.4-5,0-6.7-0.5c-8.1-2.3-9.8,3-10.5-6.7c-2,0-4.2,0.1-6.1-0.2c-0.2-3.5,0-6.3-1-8.5
			c-0.4-1-1.8-1-2.5-2.7c-0.1-0.3,1.2-3,1.4-3.4c-8.7-3.9-0.4-5.7,3.4-9.2c-1.1-3.1-0.8-6.3,3.2-5.3c-5-6.9,6-6.8,7.8-9.2
			c0.9-1.2-0.7-3.3,1.1-4.7c0.9-0.7,4.5-0.1,5.6,0c3.8,0.2,7,1.6,7.2-3.9c1.1,0.4,2.7,0.2,3.9,0.9c-0.3-1.3,0.3-3,0.1-4.3
			c0.9,0.3,2.2-0.1,3.2,0.4c-0.7-5,3.5-8.1,6.3-2.8C490.3,468.8,493.1,469.1,497.4,468.7z"/>
		<path class="st38" d="M493.5,482.6c-2.2,0-4.5,0-6.6,0.1c-0.2,2.5,2.5,3.1,4.5,3c-1.5,2.3-4,3.7-5.9,5.5c1.7,0.1,3.4,0.1,5.1,0.1
			c-2,2.5-6.5,6.9-1.7,7.6c2.8,0.4,4.9-1.7,6.5-3.7c2.4,2,11.8,6.1,13.1,2.2"/>
		<path class="st38" d="M526.2,508.1c-1-1.1-2.6-1.4-4.2-0.9c0,1.7,1,2.7,2.7,3.3c-4.6,2.6,0.9,1.9,1.9,2.8c2,2,2.8,6.5,6.5,3.4"/>
		<path class="st38" d="M490.7,520.1c-3.3,0-14.6,0.4-10-5.4c3.4,3.3-4.2,5.9-7.1,5.3c-0.3-2.1-0.7-4.7,0.8-6.2
			c-2.5-0.6-6.4-2-3.9-4.7"/>
	</g>
</g>
</svg>
