<?xml version="1.0" encoding="utf-8"?>
<!-- Generator: Adobe Illustrator 21.0.0, SVG Export Plug-In . SVG Version: 6.00 Build 0)  -->
<svg version="1.1" id="Capa_1" xmlns="http://www.w3.org/2000/svg" xmlns:xlink="http://www.w3.org/1999/xlink" x="0px" y="0px"
	 viewBox="0 0 1319 1952" style="enable-background:new 0 0 1319 1952;" xml:space="preserve">
<style type="text/css">
	.st0{clip-path:url(#SVGID_2_);}
	.st1{fill:#FFB8EB;}
	.st2{fill:#FFC25E;}
	.st3{fill:#FEDC72;}
	.st4{fill:#FFB38A;stroke:#643527;stroke-width:5;stroke-miterlimit:10;}
	.st5{fill:none;stroke:#643527;stroke-width:5;stroke-linecap:round;stroke-linejoin:round;stroke-miterlimit:10;}
	.st6{fill:#F4C551;}
	.st7{fill:#FEBDC5;}
	.st8{fill:#643527;}
	.st9{fill:#FFE7A8;stroke:#643527;stroke-width:5;stroke-miterlimit:10;}
	.st10{fill:#FFF297;stroke:#FE8737;stroke-width:5;stroke-linecap:round;stroke-linejoin:round;stroke-miterlimit:10;}
	.st11{fill:#BDB3DE;}
	.st12{fill:#F4DBA4;stroke:#643527;stroke-width:5;stroke-linecap:round;stroke-linejoin:round;stroke-miterlimit:10;}
	.st13{fill:#8E5F52;}
	.st14{fill:#FFBE9E;}
	.st15{fill:#8E5F52;stroke:#643527;stroke-width:5;stroke-miterlimit:10;}
	.st16{fill:#C22126;stroke:#643527;stroke-width:5;stroke-miterlimit:10;}
	.st17{fill:#F4DBA4;stroke:#643527;stroke-width:5;stroke-miterlimit:10;}
	.st18{fill:#FFBF6C;}
	.st19{fill:#F4B831;stroke:#643527;stroke-width:5;stroke-linecap:round;stroke-linejoin:round;stroke-miterlimit:10;}
	.st20{fill:#F4DB5B;stroke:#643527;stroke-width:5;stroke-linecap:round;stroke-linejoin:round;stroke-miterlimit:10;}
	.st21{clip-path:url(#SVGID_2_);fill:#643527;}
	.st22{fill:#BCF7B7;}
	.st23{fill:#FFE7A8;}
	.st24{fill:#FFFFFF;stroke:#643527;stroke-width:5;stroke-miterlimit:10;}
	.st25{fill:#FFC25E;stroke:#643527;stroke-width:5;stroke-linecap:round;stroke-linejoin:round;stroke-miterlimit:10;}
	.st26{fill:none;stroke:#643527;stroke-width:23;stroke-linecap:round;stroke-linejoin:round;stroke-miterlimit:10;}
	.st27{fill:#FFD1AE;}
	.st28{clip-path:url(#SVGID_2_);fill:none;}
</style>
<g>
	<defs>
		<polygon id="SVGID_1_" points="1172.3,1.8 1025.6,1.8 878.9,1.8 732.3,1.8 585.6,1.8 438.9,1.8 292.2,1.8 292.2,3.2 146.7,3.2 
			0,3.2 0,1950.2 146.7,1950.2 293.4,1950.2 293.4,1948.8 438.9,1948.8 585.6,1948.8 732.3,1948.8 878.9,1948.8 1025.6,1948.8 
			1172.3,1948.8 1319,1948.8 1319,1.8 		"/>
	</defs>
	<clipPath id="SVGID_2_">
		<use xlink:href="#SVGID_1_"  style="overflow:visible;"/>
	</clipPath>
	<g class="st0">
		<polygon class="st1" points="-441.9,679.9 -441.9,1829.8 660,2227.3 660,2227.1 1761.9,2974.6 1761.9,2174.6 		"/>
		<g>
			<g>
				<path class="st2" d="M84.3,2093.5c-0.2-0.5-0.5-1-0.9-1.5L84.3,2093.5z"/>
				<g>
					<path class="st3" d="M722,1467.1c0,0-1.7,4.1-5.4,9.2C720.2,1476.5,722.4,1474,722,1467.1z"/>
					<path class="st3" d="M785.1,1751.4c83.1-131-16-148.6-16-148.6s-33.5,3.2-55.9-38.3c-10.5-19.6-32.4-48-52.6-72.6
						c30.2,11.1,47.8-4.6,55.9-15.7c-11.3-0.7-36.3-28.3-36.3-28.3s-4.8-31.9-24.1-54.3c-7.8-9.1-23-15.5-38.3-20
						c1-3-1.6-14.7-80.3-39.2c-92.6-28.8-152.6,64.7-152.6,64.7s-170.9,36.7-186.9,83.1c0,0-124.6-1.6-143.8,81.5
						s-63.9,87.9-63.9,87.9s16,20.8,31.9,16c0,0-9.6,43.1,11.2,60.7S16,1750.6,16,1750.6s22.4,36.7,46.3,0l-5.6,13.6
						c76.5,24.8,109.4-45,122.7-92.9l-70,102.5c0,0-9.6,75.1,12.8,118.2c22.4,43.1-25.6,49.5-25.6,49.5s47.9,19.2,59.1,0
						c11.2-19.2,0,8,0,8s-22.4,22.4,16,43.1c28.7,15.6,40.4,12.3,44.5,9.7c5.6,4.4,12.5,8.1,21,9.5l498.4,31.9c0,0,24-24-1.6-67.1
						c-21.4-36.1-52.8-42-62.5-42.9c43.6,1.5,49.4-66.7,35.3-41.7c-14.4,25.6-63.9,0-63.9,0S702.1,1882.4,785.1,1751.4z"/>
				</g>
				<path class="st4" d="M537.1,1761.9c-15.2,28.4-8,61.9,16.1,74.8c53.5,28.7,79.2-89.9,55.1-102.8
					C584.2,1721,552.3,1733.5,537.1,1761.9z"/>
				<path class="st5" d="M565.1,1796.5c-0.5-24.7,14.9-45,34.3-45.4"/>
				<path class="st6" d="M361.4,1628.7c4.7,10.9-1.6,22.7-13.5,30.5c-1.8,1.2-47.7,21.4-49.7,22.3c-3.4,1.5-6.3,3.9-9.7,4.4
					c-12.4,1.6-23.8-3.3-28.1-13.2c-4.5-10.2,0.9-21.1,11.4-29.1c2.4-1.8,4.4-4.8,7.3-6.1c3.7-1.6,52-20.3,55.7-20.7
					C346.8,1615.7,357.3,1619.1,361.4,1628.7z"/>
				<g>
					
						<ellipse transform="matrix(5.695644e-02 -0.9984 0.9984 5.695644e-02 -986.6451 2214.5283)" class="st7" cx="678.9" cy="1629.5" rx="19.7" ry="46"/>
					
						<ellipse transform="matrix(0.6343 -0.7731 0.7731 0.6343 -1253.9098 908.6714)" class="st7" cx="333.6" cy="1779.8" rx="46" ry="19.7"/>
				</g>
				<path class="st8" d="M349,1676.3c0,0-55.9,47.9-63.9,63.9c-8,16-6.4,22.4-6.4,22.4s4.8,9.6,28.8-16c24-25.6,51.1-47.9,51.1-47.9
					s14.4-9.6,8-19.2C360.2,1670,349,1676.3,349,1676.3z"/>
				
					<ellipse transform="matrix(0.8367 -0.5477 0.5477 0.8367 -834.2084 606.5513)" class="st9" cx="599.8" cy="1701.9" rx="87.9" ry="70.3"/>
				<path class="st8" d="M563,1684l-5.6-11.5c-4.6-9.5,2.9-21,12.4-25.6l42.3-18.9c9.5-4.6,19.6-3.5,24.2,5.9l5.6,11.5
					C646.7,1680.5,576.4,1704.1,563,1684z"/>
				<path class="st8" d="M615.4,1569.8c0,0,45.6,8.4,55.3,15.1c9.7,6.7,10.5,14.1,10.5,14.1s-0.5,7.1-23.5-0.1
					c-23-7.2-47.2-11.5-47.2-11.5s-12.2-1-10.6-8.6C601.4,1571.3,615.4,1569.8,615.4,1569.8z"/>
				<path class="st6" d="M638.5,1512.2c5,10.8,0.8,21.9-8.6,28.9c-1.4,1.1-38.3,18.4-39.9,19.2c-2.8,1.3-4.9,3.5-7.8,3.7
					c-10.3,1-20.4-4.4-24.9-14.1c-4.7-10.1-1.2-20.4,6.9-27.6c1.8-1.6,3.2-4.4,5.6-5.5c3-1.4,42-17.1,45.1-17.3
					C624.9,1498.9,634,1502.7,638.5,1512.2z"/>
				<g>
					<g>
						<path class="st8" d="M549.5,2138.7c1.9,0,1.9-3,0-3C547.6,2135.7,547.6,2138.7,549.5,2138.7L549.5,2138.7z"/>
					</g>
				</g>
				<path class="st5" d="M62.3,1750.6c-24,36.7-46.3,0-46.3,0s38.3-4.8,17.6-22.4s-11.2-60.7-11.2-60.7c-16,4.8-31.9-16-31.9-16
					s44.7-4.8,63.9-87.9s143.8-81.5,143.8-81.5c16-46.3,186.9-83.1,186.9-83.1s59.9-93.4,152.6-64.7c92.6,28.8,79.9,39.9,79.9,39.9"
					/>
				<path class="st5" d="M187.7,1630c0,0-17.6,170.9-131,134.2"/>
				<path class="st5" d="M572.7,1364.8c0,0,64.2,6.4,83.5,28.8s24.1,54.3,24.1,54.3s43.3,47.9,41.7,19.2c0,0-24.1,57.5-88.3,9.6"/>
				<path class="st5" d="M449.7,1962.3c0,0,62.3-78.3,79.9-63.9c0,0,27.2-14.4,35.1-1.6s35.1,14.4,17.6,59.1"/>
				<path class="st5" d="M109.4,1773.8c0,0-9.6,75.1,12.8,118.2c22.4,43.1-25.6,49.5-25.6,49.5s47.9,19.2,59.1,0c11.2-19.2,0,8,0,8
					s-22.4,22.4,16,43.1c38.3,20.8,46.3,8,46.3,8"/>
				<path class="st5" d="M197.3,1976.7c0,0,11.2,30.4,39.9,35.1l498.4,31.9c0,0,24-24-1.6-67.1c-25.6-43.1-65.5-43.1-65.5-43.1
					c46.3,4.8,52.7-67.1,38.3-41.5c-14.4,25.6-63.9,0-63.9,0s59.1-9.6,142.2-140.6s-16-148.6-16-148.6s-33.5,3.2-55.9-38.3
					c-10.5-19.6-32.4-48-52.6-72.6"/>
			</g>
			<path class="st10" d="M873.3,1731.8c0,0,3.2,52.2,39.2,50.3c0,0-40.6,38.1-42.6,60.3c0,0-4.1-43.7-23.6-48.1
				C826.7,1789.9,871.7,1802.1,873.3,1731.8z"/>
			<path class="st10" d="M211.7,1780.2c0,0-3.2,76.7-25.6,86.3c0,0,46.3,11.2,60.7,46.3c0,0,3.2-83.1,19.2-87.9
				S232.4,1834.5,211.7,1780.2z"/>
			<path class="st10" d="M756.2,1912c0,0,34.1-48.1,43.3-74.8c9.2-26.8-18.6,58.3,26.9,77.9l-36.7,35.1L756.2,1912z"/>
		</g>
	</g>
	<g class="st0">
		<polygon class="st11" points="-441.9,-134.9 -441.9,672.4 660,1419.9 660,1419.6 1761.9,2167.1 1761.9,1359.9 		"/>
		<path class="st12" d="M757.9,573.5C414.3,485.1,371.7,722,371.7,722c-98.4,141.3-87.3,226.3-53.1,275.6
			c-38,17.2-103.4,56.4-142.8,134l488.6,335.2c6.4-54.8,87.1-114.5,87.1-114.5l139.5-29.8c0,0,43.6-29.9,12.1-89.5
			c-14.5-27.4-50-19.3-50-19.3s-43.7-1.4-33.7-5c19.9-1,39.8-14.9,59.2-19.3c163.1-37,108.2-201.7,108.2-201.7
			S1090.1,658.9,757.9,573.5z"/>
		<g>
			<path class="st4" d="M687.5,1018.9c3.6,32.3-15.6,61-43.1,64.1c-60.9,6.9-40.7-113.9-13.2-117S683.9,986.6,687.5,1018.9z"/>
			<path class="st5" d="M648.3,1040.9c9.7-23,2.9-47.8-15.2-55.4"/>
		</g>
		<path class="st13" d="M648.7,782.5c-7.2,14.8-24.1,19.4-41.5,14.7c-2.6-0.7-59.6-28-62.2-29.3c-4.2-2.1-9-2.7-12.1-5.7
			c-11.5-10.9-15.7-27-9.2-40.3c6.7-13.9,22-18.6,38.4-15.4c3.7,0.7,8.3-0.1,11.9,1.7c4.6,2.2,62,33.4,65.3,36.7
			C650.1,755.8,655,769.5,648.7,782.5z"/>
		<g>
			
				<ellipse transform="matrix(0.2736 -0.9618 0.9618 0.2736 -517.449 1067.5104)" class="st14" cx="448.1" cy="876.4" rx="24.1" ry="46.4"/>
			
				<ellipse transform="matrix(0.4186 -0.9082 0.9082 0.4186 -443.1736 1378.0508)" class="st14" cx="854.7" cy="1035.2" rx="25.1" ry="46.4"/>
		</g>
		
			<ellipse transform="matrix(0.2178 -0.976 0.976 0.2178 -397.4721 1384.8344)" class="st15" cx="665.3" cy="940.4" rx="90.5" ry="113.1"/>
		<path class="st8" d="M623.8,916.5l3.7-12.4c3-10.2,16.5-13.6,26.7-10.6l44.4,14.9c10.2,3,17,10.8,14,21l-3.7,12.4
			C688.3,971,620,940.6,623.8,916.5z"/>
		<path class="st13" d="M923.5,901.8c-7.8,14-23.8,17.9-39.4,13c-2.4-0.8-52.5-28.4-54.8-29.7c-3.7-2.1-8-2.8-10.7-5.8
			c-9.7-10.7-12.2-26.2-5.2-38.8c7.3-13.1,21.7-17.2,36.5-13.7c3.3,0.8,7.7,0.2,10.8,1.9c4,2.2,54.3,33.6,57.1,36.9
			C927,876.3,930.4,889.5,923.5,901.8z"/>
		<path class="st16" d="M815.8,1210.8c6.8,1.2,13.6,2.6,20.6,2.6c7.9,0,35.3-0.9,40.9,1.9c5.5,2.8,10.2,6.3,16.6,6.4
			c3.9-5.6,5.5-13.2,3.8-19.3c-3.4-12.5-15.1-16.9-26.8-15.2c-1.1,0.2-1.8,0.3-2.2,0.3c-0.3,0-0.7,0.1-1.1,0.1
			c-2.3,0.3-4.6,0.5-6.9,0.8c-4.7,0.5-9.4,0.8-14.2,1.1c-10.6,0.6-21.2,0.7-31.8,0.4c-20.7-0.6-42-2.6-60.8-5.5
			c-42.9-6.7-85.1-17.5-126.2-31.4c-39.8-13.4-72.9-29.5-111.7-45.9c-37.9-16-71.8-28.3-108-47.2c-39.6-20.7-72.9-46.2-98.4-82.5
			c-6.7-9.6-19-14.1-29.8-7.8c-9.5,5.6-14.6,20.1-7.8,29.8c25.6,36.5,58.2,66,96.6,88.5c36.3,21.3,75.8,36.3,114.6,52.3
			c37.3,15.4,77.1,34.9,117,49.3c42.7,15.4,70.7,22.6,115.4,30.4C721.4,1220.7,763.6,1201.6,815.8,1210.8z"/>
		<path class="st12" d="M787,1208l65.6,6.4c0,0,43.7-5.6,53.8,27.2c20.2,65.7-23.5,83.3-23.5,83.3L750,1352.2
			c0,0-84,65.7-90.8,120.2"/>
		<path class="st15" d="M480.8,534.1c-10.5-3-21.7-2.3-32.6-2.3c-19.6,0-39.1-2.4-58.1-7.2c-28.9-7.2-62.1-19-86-1.2
			c-20.6,15.4-22.6,45.5-19.2,71.1c3.3,25.6,9.8,52.6-0.4,76.3c-7.5,17.3-23.7,34.4-16.7,51.9c6.7,16.7,29,18.9,46.9,18.4
			c55.9-1.5,117.2-5.1,158.2-43.2c35-32.6,42.7-80,52.4-126.8C525.3,571.2,499.9,539.5,480.8,534.1z"/>
		<path class="st15" d="M1034.2,733.1c9.7,5.1,17.3,13.3,25.2,20.9c14.2,13.5,30,25.3,47,34.9c25.9,14.7,58.1,29.2,63,58.5
			c4.3,25.4-15.1,48.5-35.2,64.7c-20.1,16.2-43.4,31.3-52.4,55.4c-6.5,17.6-6.7,41.3-23.8,49.1c-16.3,7.5-34-6.3-46.7-19.1
			c-39.4-39.7-81.3-84.6-84.6-140.5c-2.8-47.7,24.3-87.3,49.7-127.8C976.5,729.2,1016.7,723.9,1034.2,733.1z"/>
		<path class="st17" d="M301.8,1111.7c0,0,107.7-135.3,138.1-110.5c0,0,46.9-24.9,60.8-2.8c13.8,22.1,63.8,32.9-34.1,166.7"/>
		<g>
			<path class="st18" d="M195.8,638.1c2.7-1.8,4.6-2.8,5.6-2.8c0.6-0.2,1.4,0.6,2.5,2.2c2,3,5.6,9.3,10.6,19
				c22.7,41.4,36.3,69.8,41,85.4l1.3,5.3l-13.2,9l-8.1,5.9c-2.8,1.9-5,2.9-6.6,3c-1.6,0.1-3.2-0.8-4.9-2.7
				c-1.7-1.9-4.4-5.4-7.9-10.7l-4.9-7.2c-7.6-11.2-16.3-24.3-25.9-39.4c-9.7-15-15.5-24.4-17.6-28c-2-3.2-3-5.8-3-7.8
				c0.2-3.9,4.9-9.8,14.1-17.8C185.3,645.9,191,641.4,195.8,638.1z M241.4,766c6.9-4.7,13.4-6.5,19.6-5.4c6.2,1,11.3,4.6,15.5,10.8
				c4.5,6.6,5.9,13.6,4.4,21.2c-1.5,7.6-5.5,13.5-11.9,17.9c-2.4,1.6-4.6,2.7-6.7,3.2c-5,1.6-10.6,1.7-16.7,0
				c-6.1-1.6-10.5-4.3-13-8c-3.1-4.6-4.5-10.1-4.2-16.3c0.3-6.2,2.4-11.9,6.1-17.1C236,770.2,238.3,768.1,241.4,766z"/>
		</g>
		<g>
			<path class="st18" d="M49.5,808.9c1.6-2.8,2.8-4.5,3.7-5c0.4-0.4,1.5-0.1,3.2,0.9c3.2,1.8,9.1,5.8,18,12.2
				c38.8,26.9,63.7,46.2,74.9,58l3.6,4.2l-7.8,13.9l-4.7,8.9c-1.7,3-3.2,4.9-4.6,5.7c-1.4,0.8-3.2,0.7-5.6-0.2
				c-2.4-0.9-6.3-2.9-11.8-6l-7.6-4.2c-11.8-6.6-25.4-14.5-40.8-23.6c-15.4-9.1-24.8-14.8-28.2-17.2c-3.2-2-5.3-3.9-6.2-5.6
				c-1.5-3.5,0-10.9,4.7-22.2C43.6,820.5,46.7,813.9,49.5,808.9z M147.5,902.8c4.1-7.2,9.1-11.8,15.1-13.6c6-1.8,12.2-0.9,18.7,2.7
				c6.9,3.9,11.4,9.5,13.5,17c2,7.5,1.2,14.6-2.6,21.3c-1.4,2.5-2.9,4.5-4.5,5.9c-3.7,3.7-8.7,6.2-14.9,7.5
				c-6.2,1.3-11.3,0.8-15.2-1.4c-4.9-2.7-8.6-7-11.1-12.7c-2.5-5.7-3.2-11.7-2.2-18C144.5,909,145.6,906.1,147.5,902.8z"/>
		</g>
		<g>
			<g>
				<path class="st8" d="M435.4,1012.8c1.1,7.9,0.6,15.9-1.5,23.6c-0.8,2.9-2.1,6.1-5,7.1c-1.3,0.4-2.8,0.3-4.1,0
					c-8.6-1.8-15.9-10.5-14.5-19.2c1.4-8.7,13-14.6,20.1-9.3"/>
			</g>
			<g>
				<path class="st8" d="M482.1,1018.4c-6.7-8.3-22.3-5.4-25.8,4.7s6.5,21.9,17,20.5c10.6-1.4,17.2-15,12-24.3"/>
			</g>
			<g>
				<path class="st8" d="M488.3,1045.6c0.6,4.5-6.3,5.4-9.8,8.3c-4.3,3.5-3,10.8,1.1,14.5c4.1,3.7,9.9,4.7,15.3,5.6
					c2.6,0.4,5.6,0.7,7.6-1c1.8-1.5,2.3-4,2.7-6.3c0.8-5,1.6-10.5-0.8-15c-2.4-4.5-9.4-6.7-12.7-2.7"/>
			</g>
			<g>
				<path class="st8" d="M456.7,1051.3c4.6,5.9,9.2,11.9,11.4,19c2.2,7.1,1.6,15.6-3.6,20.9c-4.5,4.8-11.5,6.2-17.9,7.3
					c-7.6,1.4-15.7,2.7-22.6-0.8c-11-5.5-13.2-20-14.1-32.4c-0.2-2.8-0.3-5.7,1-8.1c1.9-3.4,6.1-4.6,9.9-5.5
					c5.9-1.4,11.8-2.7,17.6-4.1c4.5-1.1,9.3-2.1,13.8-0.7c4.4,1.4,8,6.4,6.3,10.7"/>
			</g>
		</g>
		<g>
			<g>
				<path class="st8" d="M871.2,1229.5c-3.1,5.5-7.3,10.4-12.2,14.3c-1.9,1.5-4.3,2.9-6.6,2.1c-1.1-0.4-1.9-1.1-2.6-2
					c-4.6-5.3-5.1-14.2,0-19.1s15.2-3,17.2,3.7"/>
			</g>
			<g>
				<path class="st8" d="M887.5,1256.9c-0.3-8.5-11.6-14.1-18.6-9.4c-7,4.7-6.4,17,1,21.2s18.1-1.3,19.3-9.7"/>
			</g>
			<g>
				<path class="st8" d="M878.3,1277.1c-1.8,3.1-6.6,0.4-10.2,0.6c-4.4,0.2-7.1,5.5-6.3,9.8s4,7.7,7.1,10.9c1.5,1.5,3.2,3.1,5.3,3
					c1.9-0.1,3.4-1.4,4.7-2.7c2.9-2.8,6-5.9,6.6-9.9s-2.8-8.8-6.7-7.8"/>
			</g>
			<g>
				<path class="st8" d="M855.5,1265.6c0.1,5.9,0.2,12-1.8,17.5s-6.4,10.6-12.3,11.6c-5.2,0.8-10.2-1.6-14.9-3.9
					c-5.5-2.7-11.3-5.8-14-11.3c-4.4-8.8,1.2-19.1,6.5-27.3c1.2-1.8,2.5-3.8,4.5-4.7c2.8-1.2,6.1,0,8.9,1.3
					c4.4,1.9,8.8,3.9,13.2,5.8c3.4,1.5,6.9,3.1,9.1,6.2c2.1,3,2.1,7.9-1.1,9.8"/>
			</g>
		</g>
		<path class="st8" d="M861.3,942.2c-5,8.2-14.4,10.3-23.3,7.1c-1.3-0.5-29.4-17.6-30.6-18.3c-2.1-1.3-4.5-1.8-6-3.6
			c-5.2-6.5-6.1-15.7-1.6-23c4.7-7.7,13.2-9.9,21.7-7.6c1.9,0.5,4.4,0.2,6.2,1.3c2.2,1.4,30.2,20.7,31.7,22.7
			C864.3,927.1,865.8,935,861.3,942.2z"/>
		<path class="st8" d="M603.8,834.7c-2.5,9.2-12.5,13.5-23.9,12.4c-1.7-0.2-40.8-10.7-42.5-11.1c-2.9-0.8-5.9-0.7-8.3-2.2
			c-8.6-5.2-13.3-14.1-11-22.5c2.4-8.7,11.3-12.8,21.9-12.5c2.4,0.1,5.2-0.8,7.6-0.1c3.1,0.9,42.9,13.6,45.5,15.2
			C601.2,819.1,606,826.6,603.8,834.7z"/>
		<circle class="st19" cx="588.6" cy="1197.5" r="43.5"/>
		<circle class="st20" cx="603.1" cy="1197.5" r="43.5"/>
	</g>
	<polygon class="st21" points="30,971.8 0.7,953.9 0.7,1063.9 1319.1,1957.3 1319.1,1847.4 	"/>
	<g class="st0">
		<polygon class="st22" points="660,-308.2 660,-308 -441.9,-1114.3 -441.9,-160.1 660,646.3 660,646.1 1761.9,1452.5 1761.9,168.2 
					"/>
		<g>
			<g>
				<g>
					<path class="st2" d="M614.8,110.2c106.9-85.9-31.6-192.8-31.6-192.8S322.1-168.6,302.8,50.6c-19.3,219.1,166.5,177,166.5,177
						S507.9,196.1,614.8,110.2z"/>
					<path class="st23" d="M379.7-76.1c0,0,17.7-6.6,19.5,3.9s-38.6,26.3-47.3,73.6c-8.8,47.3,7,126.2,7,126.2s49.1,87.6,105.2,92.9
						c56.1,5.3,3.5,7,3.5,7S333.2,258,304.9,132.4c-5-22.1-6.7-49.1-3.8-81.8c5.7-64.9,43-106.4,79.8-127.1L379.7-76.1z"/>
					<path class="st2" d="M424.1,364.4c1.5,6.5,3.6,12.8,5.9,19.1c4.4,12.3,8.3,24.8,13.1,36.9c10.3,26,24.2,50.6,39.1,74.3
						c2.6,4.2,5.3,8.3,8,12.4l368.1,249.7c29.8,5.7,48.4,8.1,48.4,8.1s136.7,3.5,94.7-26.3l8.8,5.3c0,0,38.2,8.3,27.3-12.3l5.1-9.7
						l-15.8-28l132,14.2c30.4,1.5,52.9,0.1,49.9-7.8l-1-1.7c0.4,0.6,0.8,1.2,1,1.7l0.3,0.5c0,0,27.9,6.3,26.9-7.7l0.4-0.1
						c0,0,54.3,0-52.6-142S804.4,67.7,804.4,67.7s-130.8-28.6-171.1,17S493,156.6,493,156.6l12.3,28c0,0-112.7,77.3-80.4,278.2
						l6.4,4.3C419.4,411.2,423.3,368.3,424.1,364.4z"/>
					<g>
						<path class="st24" d="M483.7,257.6c24.1,0,38.4,0.6,43,1.7c3.7,0.9,5.5,3.4,5.5,7.6v1c0,3.7-0.7,6.5-2.1,8.4
							c-1.4,1.8-6.1,6.9-14.3,15.3L500.6,307l7.9-0.5c5-0.5,9.1-0.7,12.2-0.7c2.6,0,4.5,0.6,5.5,1.7c1,1.1,1.5,3,1.5,5.7v2.1
							c-0.1,0.7-0.2,1.5-0.2,2.6c-0.2,4.8-0.6,8.1-1,10c-0.6,2.1-1.5,3.6-2.9,4.5c-1.8,1.1-16.7,1.8-44.5,2.1h-4.6
							c-11.4,0-18.1-1.1-20.3-3.3c-0.9-0.9-1.4-2-1.4-3.3c0-1.5,0.1-2.6,0.2-3.3c0.2-3.2,0.9-5.8,1.9-7.7c1-1.9,2.9-4,5.7-6.4
							c3.4-2.8,8-7.2,13.7-13.5c5.7-6.2,8.5-9.8,8.5-10.7c0-0.5-3-0.8-9.1-1c-4.5-0.1-7.5-0.4-8.9-0.9c-1.3-0.3-2.2-1.2-2.9-2.6
							c-0.7-1.4-1-3.1-1-5.2c0-2.5,0.4-5.6,1.3-9.1c0.9-3.6,1.8-6,2.8-7.2c1.1-1.4,2.8-2.1,5-2.2
							C472.1,257.7,476.7,257.6,483.7,257.6z"/>
					</g>
					<path class="st5" d="M919,629.5c0,0,163,88.1,115.7,102.1"/>
					<path class="st5" d="M1020.8,694.7c0,0,233,35.1,180.4,0.1"/>
					<path class="st5" d="M1208.9,702.5c0,0,43.1,9.8,20.3-21.8"/>
					<path class="st2" d="M1208.6,700.3c-0.2-0.5-0.5-1.1-1-1.7L1208.6,700.3z"/>
					<path class="st23" d="M482.3,494.8c-14.9-23.7-28.8-48.3-39.1-74.3c-4.8-12.1-8.7-24.6-13.1-36.9c-2.3-6.3-4.4-12.6-5.9-19.1
						c-0.8,3.9-4.7,46.8,7.1,102.7l59,40C487.5,503.1,484.9,498.9,482.3,494.8z"/>
					<path class="st23" d="M927,630c47.2,23.6,91.1,56.9,95.3,61.4c57.1,6.1,96.8,11.7,96.8,11.7l-121.5-87.8
						C984.7,618.5,963.7,625.5,927,630z"/>
					<path class="st5" d="M467.6,227.6c0,0-134.4,30.4-162.7-95.2c-5-22.1-6.7-49.1-3.8-81.8C313.7-93.2,436.9-99.3,518.1-97.2
						C610.9-94.9,723,28.2,608.7,104c-109.6,72.7-151.6,7.9-151.6,7.9"/>
					<g>
						<path class="st24" d="M376.3,158c33.9,0,54.1,0.8,60.5,2.4c5.2,1.3,7.7,4.8,7.7,10.7v1.5c0,5.2-1,9.1-2.9,11.9
							c-1.9,2.6-8.6,9.8-20.1,21.5L400,227.5l11.1-0.7c7.1-0.6,12.8-1,17.2-1c3.7,0,6.3,0.8,7.7,2.4c1.5,1.6,2.2,4.3,2.2,8v2.9
							c-0.2,1-0.2,2.2-0.2,3.6c-0.3,6.8-0.8,11.5-1.5,14c-0.8,2.9-2.2,5-4.1,6.3c-2.6,1.6-23.5,2.6-62.7,2.9h-6.5
							c-16,0-25.5-1.5-28.6-4.6c-1.3-1.3-1.9-2.8-1.9-4.6c0-2.1,0.1-3.6,0.2-4.6c0.3-4.5,1.2-8.1,2.7-10.8c1.5-2.7,4.1-5.7,8-9.1
							c4.8-3.9,11.3-10.2,19.2-19c8-8.8,12-13.8,12-15.1c0-0.6-4.3-1.1-12.8-1.5c-6.3-0.2-10.5-0.6-12.6-1.2
							c-1.8-0.5-3.1-1.7-4.1-3.6c-1-1.9-1.5-4.4-1.5-7.3c0-3.5,0.6-7.8,1.8-12.8c1.2-5,2.5-8.4,4-10.2c1.6-1.9,4-3,7-3.1
							C359.9,158.2,366.5,158,376.3,158z"/>
					</g>
					<path class="st5" d="M796.2,745c5.8,1,12.8,3,18.8,5c31,8,61,11,91,17c29,0,57,1,86-6c5-1,11-2,15-6c4-5-1-12-5.6-14.7"/>
					<path class="st5" d="M1236.3,694.8C1248,694,1252,681,1250,671c-11-49-42-83-70-124c-5-7-10-12-15-18C1045,370,933,232,810,76
						c-2-3-5-6-8-6c-47-10-93-16-139-2c-9,3-18,7-25,14c-40,41-92,61-145,76.4c1.8,4.2,3.1-0.8,0,0c4,8.6,8,16.6,12,25.6
						c1,1,0,3-1,4c-17,13-29,27-41,45c-7,11-12,21-18,32c-6,14-11,27-15,42c-11,40-13,80-10,120c2,21,4,42,10,63c1,5,2,9,3,13.7"/>
					<path class="st25" d="M713,139c0,0,69.9-97.8,238.8-103.9L1014.2-84c0,0,108-51.9,110.4,180l26,5l-1.6,28
						c0,0,196.7,125.7,86.4,303.6c-110.4,178-329.5,196.8-329.5,196.8s-199.1-18.5-219.4-32l-26.8-22.6l18.5-46.3
						c0,0-34.6-70.5-43.7-155.3l-20.9-3l13.7-23.8c0,0-90.2-110.6-80.7-183.8C546.6,162.7,513.8,152.1,713,139z"/>
					<line class="st26" x1="841.9" y1="473.9" x2="926" y2="472.1"/>
					<line class="st26" x1="1162.9" y1="280.7" x2="1144.8" y2="337.6"/>
					<ellipse class="st23" cx="884.8" cy="401.2" rx="34.2" ry="27.2"/>
					<path class="st23" d="M899.7,626.4c0,0-62.2,2.6-82.4-35.1c-24.1-45.1,66.6-66.6,66.6-66.6s28-1.8,103.4-33.3
						s158.6-78.8,158.6-78.8s49.1-59.6,64.9-85.1c11.4-18.4,28.9-32.6,36.7-30.8c6.6,1.5,17.6,1,17.6,43.1
						c0,0-17.5,112.2-117.4,191.1C1043.6,613.1,899.7,626.4,899.7,626.4z"/>
					
						<ellipse transform="matrix(9.996426e-02 -0.995 0.995 9.996426e-02 715.1846 1320.0856)" class="st23" cx="1087.3" cy="264.7" rx="30.9" ry="27.2"/>
					<path class="st23" d="M697.3,274.8c-3.7,6.7-6.3,16.4-15.4,16.9c-4.8,0.2,0.7,51-4,50.8c-80.2-2.7-149.1-184.9-94.7-167.9
						c48.3,4.7,93.3,31.6,121.5,47.6c-6.4,3.9-15,5.4-22.5,4.1c-2.3,2.7,1,6,4.5,7.4c3.5,1.4,7.9,2.4,9.2,5.3
						c1.7,3.9-3.2,7.7-6.1,11.3C683.1,258.5,686.5,271.1,697.3,274.8z"/>
					
						<ellipse transform="matrix(0.8367 -0.5477 0.5477 0.8367 -76.6959 676.5969)" class="st9" cx="1096" cy="466.9" rx="96.4" ry="77.1"/>
					<path class="st8" d="M1074.2,490.3l-8.1-11.5c-6.7-9.5-0.5-23.2,9-29.9l42.6-27.8c9.5-6.7,20.6-7.2,27.3,2.2l8.1,11.5
						C1164.2,471.9,1092.2,509.7,1074.2,490.3z"/>
				</g>
				<path class="st5" d="M1006.6,743.9c0,0,40.3,8.8,26.3-14"/>
			</g>
			<g>
				
					<ellipse transform="matrix(0.9943 -0.1064 0.1064 0.9943 -52.9472 95.7546)" class="st27" cx="871.3" cy="544.3" rx="50.5" ry="21.6"/>
				
					<ellipse transform="matrix(0.5 -0.866 0.866 0.5 332.1307 1215.1417)" class="st27" cx="1218.4" cy="319.9" rx="50.5" ry="21.6"/>
			</g>
		</g>
	</g>
	<polygon class="st28" points="1085.2,2.5 963.6,2.5 842,2.5 720.3,2.5 598.7,2.5 477.1,2.5 355.4,2.5 355.4,4 234.8,4 113.2,4 
		113.2,1951 234.8,1951 356.4,1951 356.4,1949.5 477.1,1949.5 598.7,1949.5 720.3,1949.5 842,1949.5 963.6,1949.5 1085.2,1949.5 
		1206.8,1949.5 1206.8,2.5 	"/>
	<polygon class="st21" points="30.9,156.3 1.6,138.5 1.6,248.4 1320,1141.9 1320,1031.9 	"/>
</g>
</svg>
