<?xml version="1.0" encoding="utf-8"?>
<!-- Generator: Adobe Illustrator 21.0.0, SVG Export Plug-In . SVG Version: 6.00 Build 0)  -->
<svg version="1.1" id="Capa_1" xmlns="http://www.w3.org/2000/svg" xmlns:xlink="http://www.w3.org/1999/xlink" x="0px" y="0px"
	 viewBox="0 0 1319 1952" style="enable-background:new 0 0 1319 1952;" xml:space="preserve">
<style type="text/css">
	.st0{fill:#BCF7B7;}
	.st1{fill:#FFEBDF;stroke:#643527;stroke-width:5;stroke-miterlimit:10;}
	.st2{fill:#FFFFFF;stroke:#643527;stroke-width:5;stroke-miterlimit:10;}
	.st3{fill:#9DB1CC;}
	.st4{fill:#DDA0B0;}
	.st5{fill:#056D6D;stroke:#643627;stroke-width:5;stroke-miterlimit:10;}
	.st6{fill:none;stroke:#044747;stroke-width:6;stroke-miterlimit:10;}
	.st7{fill:none;stroke:#F46C6C;stroke-width:8;stroke-linecap:round;stroke-linejoin:round;stroke-miterlimit:10;}
	.st8{fill:#FFEBDF;stroke:#643627;stroke-width:5;stroke-miterlimit:10;}
	.st9{fill:#04757B;stroke:#643527;stroke-width:5;stroke-miterlimit:10;}
	.st10{fill:#FFEBDF;stroke:#643527;stroke-miterlimit:10;}
	.st11{fill:#DADCDB;}
	.st12{fill:#FF726E;}
	.st13{fill:none;stroke:#643627;stroke-width:5;stroke-miterlimit:10;}
	.st14{fill:#F7CC43;}
	.st15{fill:#BECDEC;}
	.st16{fill:#FF726E;stroke:#643627;stroke-width:5;stroke-miterlimit:10;}
	.st17{fill:none;stroke:#049BA2;stroke-width:8;stroke-miterlimit:10;}
	.st18{fill:#DAD96D;stroke:#643527;stroke-width:5;stroke-miterlimit:10;}
	.st19{fill:#4DA45F;}
	.st20{fill:#F7CA3D;}
	.st21{fill:none;stroke:#643527;stroke-width:5;stroke-miterlimit:10;}
	.st22{fill:#5FB2E6;stroke:#643527;stroke-width:5;stroke-miterlimit:10;}
	.st23{fill:#F6F5F0;}
	.st24{fill:#110E0E;stroke:#643527;stroke-width:5;stroke-miterlimit:10;}
	.st25{fill:#110E0E;stroke:#FFFFFF;stroke-miterlimit:10;}
	.st26{fill:#D4D2D3;}
	.st27{fill:#196F30;stroke:#643527;stroke-width:5;stroke-miterlimit:10;}
	.st28{fill:#F4E9E4;stroke:#643527;stroke-width:5;stroke-miterlimit:10;}
	.st29{fill:#FF952F;stroke:#643527;stroke-width:5;stroke-miterlimit:10;}
	.st30{fill:#F7CC43;stroke:#643527;stroke-width:5;stroke-miterlimit:10;}
	.st31{fill:#C9162C;stroke:#643527;stroke-width:5;stroke-miterlimit:10;}
	.st32{fill:#8D971C;stroke:#643527;stroke-width:5;stroke-miterlimit:10;}
	.st33{fill:#FAE0A5;stroke:#643527;stroke-width:5;stroke-miterlimit:10;}
	.st34{fill:#C02425;stroke:#643527;stroke-width:5;stroke-miterlimit:10;}
	.st35{fill:#429F4F;stroke:#643527;stroke-width:5;stroke-miterlimit:10;}
	.st36{fill:#AEC539;stroke:#643527;stroke-width:5;stroke-miterlimit:10;}
	.st37{fill:#6E9D01;}
	.st38{fill:#FFFFFF;stroke:#643527;stroke-width:13;stroke-miterlimit:10;}
	.st39{fill:#132144;stroke:#FFFFFF;stroke-width:3;stroke-miterlimit:10;}
	.st40{fill:#E9D000;stroke:#643527;stroke-width:5;stroke-miterlimit:10;}
	.st41{fill:#FFFFFF;}
	.st42{fill:#643527;stroke:#FFF8CC;stroke-width:5;stroke-linecap:round;stroke-linejoin:round;stroke-miterlimit:10;}
	.st43{fill:#AFAFAF;stroke:#424242;stroke-width:5;stroke-miterlimit:10;}
	.st44{fill:#7E7E7E;}
	.st45{fill:#FFFFFF;stroke:#424242;stroke-width:13;stroke-miterlimit:10;}
	.st46{fill:#FFFFFF;stroke:#424242;stroke-width:5;stroke-miterlimit:10;}
	.st47{fill:#212121;stroke:#FFFFFF;stroke-width:3;stroke-miterlimit:10;}
	.st48{fill:#C1C1C1;stroke:#424242;stroke-width:5;stroke-miterlimit:10;}
	.st49{fill:#CDCDCD;stroke:#424242;stroke-width:5;stroke-miterlimit:10;}
	.st50{fill:#828282;}
	.st51{fill:#C8C8C8;}
	.st52{fill:none;stroke:#424242;stroke-width:5;stroke-miterlimit:10;}
	.st53{fill:#9F9F9F;stroke:#424242;stroke-width:5;stroke-miterlimit:10;}
	.st54{fill:#F5F5F5;}
	.st55{fill:#0F0F0F;stroke:#424242;stroke-width:5;stroke-miterlimit:10;}
	.st56{fill:#0F0F0F;stroke:#FFFFFF;stroke-miterlimit:10;}
	.st57{fill:#D3D3D3;}
	.st58{fill:#4E4E4E;stroke:#424242;stroke-width:5;stroke-miterlimit:10;}
	.st59{fill:#ECECEC;stroke:#424242;stroke-width:5;stroke-miterlimit:10;}
	.st60{fill:#AAAAAA;stroke:#424242;stroke-width:5;stroke-miterlimit:10;}
	.st61{fill:#CACACA;stroke:#424242;stroke-width:5;stroke-miterlimit:10;}
	.st62{fill:#868686;stroke:#424242;stroke-width:5;stroke-miterlimit:10;}
	.st63{fill:#E1E1E1;stroke:#424242;stroke-width:5;stroke-miterlimit:10;}
	.st64{fill:#535353;stroke:#424242;stroke-width:5;stroke-miterlimit:10;}
	.st65{fill:#7A7A7A;stroke:#424242;stroke-width:5;stroke-miterlimit:10;}
</style>
<path class="st0" d="M1109.2,161.8H209.8c-25.1,0-45.5,20.4-45.5,45.5v54.9c0,25.1,20.4,45.5,45.5,45.5h899.4
	c25.1,0,45.5-20.4,45.5-45.5v-54.9C1154.7,182.2,1134.3,161.8,1109.2,161.8z"/>
<g>
	<path class="st1" d="M-783.8,396.9c0.2-13.9,0.1-27.8,0.1-41.8h-3.3h-74.6h-3.1c-0.2,4.9-0.7,94.4-0.4,99.2
		c0.5,9.2-0.1,18.4,0.2,27.6c0,1.4,0,2.6-0.3,3.5h3.6l74.3-84.6h3.8C-783.7,399.8-783.8,398.5-783.8,396.9z"/>
	<path class="st2" d="M-819.4,310.7c-4.2-7-13-8.7-20.3-3.5c-2.5,1.8-4,2-6.7,0.5c-5.7-3.1-11-1.8-14.9,3.6
		c-3.6,4.9-3.1,11,1.9,15.2c2,1.7,3.1,3.3,3.1,5.5h4.2h18.9c0.1-0.5,0.1-1,0.1-1.6c0-0.3,0-0.5,0.1-0.7c-0.1,0.2-0.1,0.4-0.1,0.7
		c0,0.6,0,1.1-0.1,1.6h4.7c1-0.6,2.5-0.8,3.4-1.4C-817.4,325.9-815,318-819.4,310.7z M-832.7,329.2c0.3-0.3,0.7-0.5,1.2-0.6
		C-832,328.7-832.4,328.9-832.7,329.2z"/>
	<path class="st2" d="M-823.6,196.8c-1.6-2-1.6-3.3-0.1-5.4c5.9-8.8,5.7-18.3-0.1-25.5c-6-7.5-16.9-10.5-26.2-7.3
		c-2.5,0.9-4.4,3-6.8-1c-5.4-9.1-14.7-12.5-24.9-10.2c-9.6,2.1-15.8,9.3-17.2,20.5c0.1,2.7-0.1,4.9-4.6,5.6
		c-9.8,1.6-16.1,9.6-16.4,19.3c-0.3,10.5,6.4,20.4,16,22.3c4.6,0.9,5.9,1.9,5.2,7.1c-1.6,11.8,5.8,21.3,17.8,24.4
		c13.1,3.3,23.5-0.9,28.3-12.1c1.4-3.3,2.3-4.8,6.5-3.9c9.2,2,17.5,0.1,23-8.3C-817.4,213.9-816.9,205.1-823.6,196.8z"/>
	<path class="st2" d="M-871.7,279.5c-1.6-6.3-5.8-11.1-12.3-10.8c-6.3,0.3-7.6-2.2-8.9-7.4c-1.9-7.9-9.1-12.5-16.9-12.2
		c-11,0.4-16.7,5.6-17.9,16.9c-0.4,3.4-1.4,5.3-4.7,6.9c-7.8,3.8-11.5,14.5-8.7,23.2c2.8,8.8,11.7,14.5,20.8,13.3
		c2.8-0.4,5.3-2.3,6.8,2.7c2.9,9.4,10.8,12.6,21,9.6c9.1-2.7,14.2-10.5,11.8-19.5c-1.2-4.4-1.8-6.6,3.4-8.8
		C-871.8,291.1-870.2,285.4-871.7,279.5z"/>
	<path class="st1" d="M-824.9,327.7c-13,0-26,0.2-38.9-0.1c-4.9-0.1-6.6,1.8-6.6,8.1c0,20.4-0.2,20.4,16.2,20.5
		c22.8,0,45.7-0.2,68.5,0.1c5.7,0.1,8-2.3,7.8-9.4c-0.1-3.8-0.3-7.5,0.2-11.5c0.6-4.5-1.4-8-6.4-7.9
		C-797.7,327.9-811.3,327.6-824.9,327.7C-824.9,327.6-824.9,327.6-824.9,327.7z"/>
	<polygon class="st3" points="-833.5,413.9 -810.4,413.9 -809.1,392.8 -833.5,392.8 	"/>
	<rect x="-857.5" y="417.7" class="st4" width="44.6" height="26.3"/>
	<polygon class="st1" points="-589.1,362.9 -454.9,371.1 -442,465.5 -515,465.5 	"/>
	<polygon class="st5" points="-589.1,362.9 -454.9,371.1 -441.4,451.4 -466.7,455.4 	"/>
	<line class="st6" x1="-521.6" y1="399.1" x2="-453.8" y2="397.4"/>
	<line class="st6" x1="-513.3" y1="426.6" x2="-445.6" y2="425"/>
	<polyline class="st7" points="-455.9,370.7 -441.8,451.5 -452.5,453.2 	"/>
	<path class="st8" d="M-446.6,509.4C-475.7,477-594,366-632.9,332.8c-15.4-13.1-37.5-22.6-53.4-9.7c-8.8,7.4-112.3,99.7-185.4,179.5
		l10.7,207.4c0,6.2,6.2,11.3,13.7,11.3h376.6c7.5,0,13.7-5.1,13.7-11.3L-446.6,509.4z"/>
	<path class="st9" d="M-377.1,503.2c-0.8,0-1.5-0.1-2.3-0.2l-69.6-13.2c-2.6-0.5-5-1.9-6.8-3.9c-1.3-1.5-130.4-145.5-180.6-181.6
		c-20.5-14.7-29.3-13.1-45.2-0.8c-9.1,7-113.8,113.7-182,183.7c-1.8,1.8-4.1,3.1-6.6,3.5l-68.5,12.2c-6.6,1.2-13-3.2-14.2-9.9
		c-1.2-6.6,3.2-13,9.9-14.2l64.6-11.5c26.9-27.6,169.2-173.4,181.8-183.1c13.3-10.3,24.5-14.9,36.1-14.9c0,0,0,0,0.1,0
		c11.8,0,23.6,4.7,38.2,15.2c48.8,35,162.1,160.1,181.8,182l65.5,12.4c6.6,1.3,11,7.6,9.7,14.3
		C-366.2,499.1-371.3,503.2-377.1,503.2z"/>
	<path class="st10" d="M-870.1,483.8c0.3-0.4,0.7-0.8,1-1.1C-869.4,483.1-869.7,483.5-870.1,483.8z"/>
	<path class="st11" d="M-467.5,479l-174.4-172.3c-9.6-4-19.2-6-28.3-5.7l-188.4,186.2c-4.1,0-7.9,1.5-10.4,4c-0.3,0.4-0.7,0.8-1,1.1
		c-1.4,1.8,2,3.9,2,6.2l1.6,31.3c73.1-79.8,171.3-190.9,180.2-198.3c15.9-12.9,38-3.4,53.4,9.7c38.9,33.2,151.9,164,181.1,196.4
		l2.7-34.2C-453.9,498.1-458.1,489.6-467.5,479z"/>
	<path class="st12" d="M-560,719.3c7.5-125-3.3-193.3-36-228.2c-15.8-16.8-36.2-25.4-60.6-25.4h-0.2c-24.7,0-46.3,9.8-62.7,28.5
		c-24.3,27.8-37.4,75.6-38.9,142.1c-0.8,37.9,2.4,70.8,3.8,83.1H-560z"/>
	<path class="st13" d="M-730.2,721.1c0,0-31-231.8,73.6-231.6c68.3,0.1,81.5,88.3,72.5,231.6"/>
	<ellipse class="st14" cx="-703.7" cy="606.6" rx="11.5" ry="17.1"/>
	<rect x="-814.1" y="639.9" class="st3" width="40.6" height="31.6"/>
	<rect x="-823.7" y="678.3" class="st15" width="50.3" height="31.6"/>
	<rect x="-536.2" y="683.6" class="st3" width="44.6" height="26.3"/>
	<rect x="-507.5" y="670.9" class="st3" width="12.7" height="6.1"/>
	<rect x="-814.8" y="628.6" class="st3" width="12.7" height="6.1"/>
	<rect x="-536.2" y="589.6" class="st4" width="44.6" height="26.3"/>
	<rect x="-507.5" y="576.9" class="st4" width="12.7" height="6.1"/>
	<rect x="-550.8" y="541.2" class="st3" width="12.7" height="6.1"/>
	<path class="st16" d="M-778.1,408.8c-16.3,16.7-33.2,34-49.5,50.7H-490c-13.9-14.8-30.8-32.6-48.3-50.7H-778.1z"/>
	<path class="st16" d="M-362.9,490.9c-0.5-5.9-5.8-10.3-11.7-9.8l-67.7,6.1c-5.4-5.8-16.1-17.4-29.9-32.1
		c-10.5-11.2-22.8-24.2-35.9-37.9c-40.8-42.7-89-91.8-114.2-112.3c-25.6-20.9-46.8-21.1-73.3-0.7c-7.7,5.9-64,63.2-112.6,113
		c-12.9,13.2-25.2,25.9-36,37c-14.3,14.7-25.8,26.6-32.1,33.1l-67.9-6.1c-5.9-0.5-11.2,3.8-11.7,9.8c-0.5,5.9,3.8,11.2,9.8,11.7
		l73,6.6c0.3,0,0.6,0,1,0c2.9,0,5.7-1.2,7.8-3.3c11.5-11.9,24-24.8,37-38.1c16.3-16.7,33.2-34.1,49.5-50.7
		c47.7-48.8,90.1-91.7,95.7-95.9c18.3-14.2,28.7-14.1,46.4,0.3c21.4,17.4,61,57.4,97.9,95.6c17.5,18.2,34.3,35.9,48.3,50.7
		c20.6,21.9,34.9,37.4,35.3,37.9c2.3,2.5,5.6,3.7,8.9,3.4l73-6.6C-366.7,502.1-362.4,496.9-362.9,490.9z"/>
	<ellipse class="st17" cx="-657.9" cy="357.1" rx="20.2" ry="28.2"/>
	<polygon class="st3" points="-481.8,672.1 -458.6,672.1 -457.3,645.8 -481.8,645.8 	"/>
	<polygon class="st15" points="-481.8,704 -460.3,704 -458.9,677.7 -481.8,677.7 	"/>
	<polygon class="st4" points="-834.4,678.3 -857.7,678.3 -856.1,709.9 -834.4,709.9 	"/>
	<polygon class="st15" points="-841,578.3 -862.9,578.3 -861.6,604.6 -841,604.6 	"/>
	<rect x="-799.7" y="540.3" class="st4" width="12.7" height="6.1"/>
	<rect x="-814.8" y="523.4" class="st3" width="12.7" height="6.1"/>
	<polygon class="st15" points="-843.4,365.5 -861.1,365.5 -860.7,391.8 -843.4,391.8 	"/>
</g>
<g>
	<path class="st18" d="M-905.8,1045.2c6.2-21.9,27.6-29,52.9-29h346.1c25.4,0,46.8,7.3,52.9,29.3l0.1,3.5l2.5,107.1
		c3.5,2.4,13.5,6.9,14.4,6.9c0,0,25.8,13.9,25.4,45.9v12.5v33.9c0.3,11.6-19.1,39.6-36.7,43.5h-412c-26.7-3.3-47.5-24.8-47.5-50.7
		v-26.7v-163.2C-907.6,1053.7-907,1049.3-905.8,1045.2z"/>
	<path class="st19" d="M-905.8,1245.3v-26.7l492.5,0.9v33.9c0.3,11.6-17.2,38.7-34.8,42.6h-411.1
		C-887.6,1293.8-905.8,1271.2-905.8,1245.3z"/>
	
		<rect x="-905.8" y="1201.9" transform="matrix(-1 -4.489354e-11 4.489354e-11 -1 -1319.0952 2420.9971)" class="st20" width="492.5" height="17.3"/>
	<path class="st21" d="M-624.8,1272.8h72.5c8.1,0,14.7-6.6,14.7-14.7v-180c0-8.1-6.6-14.7-14.7-14.7h-72.5
		c-8.1,0-14.7,6.6-14.7,14.7v180C-639.5,1266.2-632.8,1272.8-624.8,1272.8z"/>
	<path class="st22" d="M-497.9,1059.9h3.8h41.1c0.8,3.3,1.2,6.8,1.2,10.4v32.2v53.1c0.2,0.2,0.4,0.3,0.6,0.5h-27.3h-19.3
		c-3.9,0-7.1-3.6-7.1-8.1v-51.6v-28.4C-505,1063.5-501.8,1059.9-497.9,1059.9z"/>
	<path class="st23" d="M-497.4,1061.5h3.6l39.8,38.8v53.7c0.2,0.2,0.9,0,0.9,0l-50.3-58.7V1069
		C-503.3,1064.9-501.1,1061.5-497.4,1061.5z"/>
	<g>
		<circle class="st24" cx="-487.9" cy="1287.4" r="48.2"/>
		<circle class="st23" cx="-487.9" cy="1287.4" r="40.4"/>
		<circle class="st25" cx="-487.9" cy="1287.4" r="37.2"/>
		<circle class="st26" cx="-487.9" cy="1287.4" r="28.7"/>
	</g>
	<g>
		<circle class="st24" cx="-824.8" cy="1287.4" r="48.2"/>
		<circle class="st23" cx="-824.8" cy="1287.4" r="40.4"/>
		<circle class="st25" cx="-824.8" cy="1287.4" r="37.2"/>
		<circle class="st26" cx="-824.8" cy="1287.4" r="28.7"/>
	</g>
	<g>
		<path class="st27" d="M-886.7,1078v89.6c0,9,6.4,16.4,14.1,16.4h206.1c7.8,0,14.1-7.4,14.1-16.4V1078c0-1-0.1-1.9-0.2-2.9
			c-1.2-7.7-7-13.5-13.9-13.5h-206.1c-6.3,0-11.7,4.8-13.5,11.5C-886.4,1074.7-886.7,1076.3-886.7,1078z"/>
		<g>
			<path class="st28" d="M-690.7,1062h22.4c8.1,0,14.9,6.9,16.3,15.8c-2.3,10.5-10,18.2-19.2,18.2c-9.7,0-17.7-8.6-19.5-19.9
				c0,0,0-0.1,0-0.1C-690.8,1075.8-690.7,1062.5-690.7,1062z"/>
			<path class="st29" d="M-848.1,1062h-22.4c-8.1,0-14.9,6.9-16.3,15.8c2.3,10.5,10,18.2,19.2,18.2c9.7,0,17.7-8.6,19.5-19.9
				c0,0,0-0.1,0-0.1C-848,1075.8-848.1,1062.5-848.1,1062z"/>
			<path class="st29" d="M-713.5,1062h3h0h3h16.7c0,0,0,0,0,0c0,0.4-0.1,13.8-0.1,14c0,0,0,0.1,0,0.1c-1.6,9.7-7.6,17.3-15.4,19.4
				c0,0,0,0,0,0c-0.3,0.1-0.5,0.1-0.8,0.2c0,0-0.1,0-0.1,0c-0.2,0.1-0.5,0.1-0.7,0.1c0,0-0.1,0-0.1,0c-0.2,0-0.5,0.1-0.7,0.1
				c-0.1,0-0.2,0-0.2,0c-0.2,0-0.4,0-0.6,0c-0.2,0-0.4,0-0.6,0c-0.1,0-0.2,0-0.3,0c0,0,0,0,0,0l0,0c0,0,0,0-0.1,0c0,0,0,0-0.1,0
				c0,0,0,0,0,0l0,0c-0.1,0-0.2,0-0.3,0c-0.2,0-0.4,0-0.6,0c-0.2,0-0.4,0-0.6,0c-0.1,0-0.2,0-0.2,0c-0.2,0-0.5-0.1-0.7-0.1
				c0,0-0.1,0-0.1,0c-0.2,0-0.5-0.1-0.7-0.1c0,0-0.1,0-0.1,0c-0.3-0.1-0.5-0.1-0.8-0.2c0,0,0,0,0,0c-7.8-2.1-13.9-9.7-15.4-19.5
				c0-0.2-0.1-14-0.1-14H-713.5z"/>
			<path class="st28" d="M-752.8,1062h3h0h3h16.7c0,0,0,0,0,0c0,0.4-0.1,13.8-0.1,14c0,0,0,0.1,0,0.1c-1.6,9.7-7.6,17.3-15.4,19.4
				c0,0,0,0,0,0c-0.3,0.1-0.5,0.1-0.8,0.2c0,0-0.1,0-0.1,0c-0.2,0.1-0.5,0.1-0.7,0.1c0,0-0.1,0-0.1,0c-0.2,0-0.5,0.1-0.7,0.1
				c-0.1,0-0.2,0-0.2,0c-0.2,0-0.4,0-0.6,0c-0.2,0-0.4,0-0.6,0c-0.1,0-0.2,0-0.3,0l0,0l0,0c0,0,0,0-0.1,0c0,0,0,0-0.1,0l0,0
				c0,0,0,0,0,0c-0.1,0-0.2,0-0.3,0c-0.2,0-0.4,0-0.6,0c-0.2,0-0.4,0-0.6,0c-0.1,0-0.2,0-0.2,0c-0.2,0-0.5-0.1-0.7-0.1
				c0,0-0.1,0-0.1,0c-0.2,0-0.5-0.1-0.7-0.1c0,0-0.1,0-0.1,0c-0.3-0.1-0.5-0.1-0.8-0.2c0,0,0,0,0,0c-7.8-2.1-13.9-9.7-15.4-19.5
				c0-0.2-0.1-14-0.1-14H-752.8z"/>
			<path class="st29" d="M-792.1,1062h3h0h3h16.7c0,0,0,0,0,0c0,0.4-0.1,13.8-0.1,14c0,0,0,0.1,0,0.1c-1.6,9.7-7.6,17.3-15.4,19.4
				c0,0,0,0,0,0c-0.3,0.1-0.5,0.1-0.8,0.2c0,0-0.1,0-0.1,0c-0.2,0.1-0.5,0.1-0.7,0.1c0,0-0.1,0-0.1,0c-0.2,0-0.5,0.1-0.7,0.1
				c-0.1,0-0.2,0-0.2,0c-0.2,0-0.4,0-0.6,0c-0.2,0-0.4,0-0.6,0c-0.1,0-0.2,0-0.3,0l0,0c0,0,0,0,0,0c0,0,0,0-0.1,0c0,0,0,0-0.1,0l0,0
				c0,0,0,0,0,0c-0.1,0-0.2,0-0.3,0c-0.2,0-0.4,0-0.6,0c-0.2,0-0.4,0-0.6,0c-0.1,0-0.2,0-0.2,0c-0.2,0-0.5-0.1-0.7-0.1
				c0,0-0.1,0-0.1,0c-0.2,0-0.5-0.1-0.7-0.1c0,0-0.1,0-0.1,0c-0.3-0.1-0.5-0.1-0.8-0.2c0,0,0,0,0,0c-7.8-2.1-13.9-9.7-15.4-19.5
				c0-0.2-0.1-14-0.1-14H-792.1z"/>
			<path class="st28" d="M-831.4,1062h3h0h3h16.7c0,0,0,0,0,0c0,0.4-0.1,13.8-0.1,14c0,0,0,0.1,0,0.1c-1.6,9.7-7.6,17.3-15.4,19.4
				c0,0,0,0,0,0c-0.3,0.1-0.5,0.1-0.8,0.2c0,0-0.1,0-0.1,0c-0.2,0.1-0.5,0.1-0.7,0.1c0,0-0.1,0-0.1,0c-0.2,0-0.5,0.1-0.7,0.1
				c-0.1,0-0.2,0-0.2,0c-0.2,0-0.4,0-0.6,0c-0.2,0-0.4,0-0.6,0c-0.1,0-0.2,0-0.3,0c0,0,0,0,0,0l0,0c0,0,0,0-0.1,0c0,0,0,0-0.1,0
				c0,0,0,0,0,0l0,0c-0.1,0-0.2,0-0.3,0c-0.2,0-0.4,0-0.6,0c-0.2,0-0.4,0-0.6,0c-0.1,0-0.2,0-0.2,0c-0.2,0-0.5-0.1-0.7-0.1
				c0,0-0.1,0-0.1,0c-0.2,0-0.5-0.1-0.7-0.1c0,0-0.1,0-0.1,0c-0.3-0.1-0.5-0.1-0.8-0.2c0,0,0,0,0,0c-7.8-2.1-13.9-9.7-15.4-19.5
				c0-0.2-0.1-14-0.1-14H-831.4z"/>
		</g>
	</g>
	<path class="st22" d="M-612.5,1079.6h18.2h31.2c5.8,0,10.6,4.5,10.6,9.9v28.6v11.8c0,5.4-4.8,9.9-10.6,9.9h-12.5h-36.9
		c-5.8,0-10.6-4.5-10.6-9.9v-32.5v-8C-623.1,1084.1-618.4,1079.6-612.5,1079.6z"/>
	<path class="st23" d="M-620.9,1090.8c0-5.1,4.5-9.3,9.9-9.3h17.1l39.1,36.1v11.1c0,5.1-4.5,9.3-9.9,9.3h-11.7l-44.5-39.7V1090.8z"
		/>
	<path class="st20" d="M-904,1046.1c6.2-21.9,27.5-29,52.6-29H-507c25.2,0,44.8,7.3,50.9,29.3l0.1,3.5H-904V1046.1z"/>
	<g>
		<path class="st30" d="M-547.4,962.3c3.1-28.5-20.4-56.6-4.1-84.1c4.4,4.4,8.7,8.7,13.1,13.1c-9.2,5.3-18.3,11.2-27.8,16
			c-5,2.5-10.8,3.6-15.9,0.6c-4.5-2.7-6.6-7.1-8.4-11.7c-8-19.8-15.7-39.9-23.6-59.8c4.7,1.9-20.3,19.8-38.1,11.2
			c-10.7-5.1-20.9-18-32.5-18c3.1-4,6.1-8.1,9.2-12.1c2.8,7.4,5.6,14.9,8.5,22.3c2.2,5.8-3.4,12.3-9.2,12.1
			c-11.9-0.4-23.9-0.8-35.8-1.3c-5.6-0.2-11.1-0.4-16.7-0.6c-1.4,0-3.4,0.7-1.3-1.1c1.8-1.4,0.4-1.4,0.8,0.4
			c0.3,1.3-0.3,3.3-0.6,4.5c-3.2,12.3-16.5,13-27.1,12.8c-11.3-0.2-27-7.8-23.9-8.6c0.7-0.9,0,0,0,0.6c-0.1-1-0.1,2-0.1,2.4
			c0,2.4,0.4,4.3,0.7,6.5c0.8,5.7,1.5,11.4,0,17c-2.9,11.3-13,16.2-23.3,19.1c-4.1,1.1-7.9,1.8-11,3.9c-2.5,1.7-3.8,4.6-4.2,7.5
			c-1.2,9.3,2.8,19.3,6.8,27.6c2.2,4.6,1.3,10.3-3.4,13.1c-4.2,2.4-10.8,1.2-13.1-3.4c-5.3-11.1-10.2-23.6-9.5-36.1
			c0.7-13.1,7.7-23.2,19.9-28.1c4.6-1.8,9.4-2.8,14.1-4.3c3.2-1,5-1.8,5.5-5.5c0.6-4.3-1.2-10.5-1.5-15.6c-0.5-7,1.3-12.8,5.6-18.3
			c1.9-2.4,6.4-3.5,9.3-2.5c9.6,3.5,19.5,5.5,29.8,5.5c2.3,0,6-1,8.2-0.4c1,0.2,2.2-1.8-0.1,1c-1.9,2.3-0.9,1.3-1.1-0.2
			c-0.7-5.3,2.9-11.5,7.3-14.2c8.3-5.2,20.5-2.6,29.8-2.3c11.6,0.4,23.3,0.8,34.9,1.2c-3.1,4-6.1,8.1-9.2,12.1
			c-2.8-7.4-5.6-14.9-8.5-22.3c-2.3-6,3.5-12.1,9.2-12.1c14.4-0.1,24.4,9.3,35.6,16.8c5.4,3.6,10.5,6,17.1,5.5
			c7.8-0.5,15.3-4.1,22.3-7.3c6-2.8,11.6-0.4,14,5.7c4.4,11.1,8.7,22.1,13.1,33.2c2.1,5.3,4.1,10.5,6.2,15.8
			c1.1,2.8,2.2,5.5,3.3,8.3c0.3,0.8,0.8,1.9,1,2.5c0.2,0.4,0.4,0.7,0.6,1.1c-1.4-1-1.4-1.1,0-0.4c-1.6-0.4-3.2-0.9-4.8-1.3
			c3.1,0.4-0.6,0.7,0.9-0.1c1.3-0.6,2.5-1.4,3.7-2.1c2.6-1.5,5.2-3,7.8-4.5c5.2-3,10.4-6,15.6-9c8.2-4.7,18,4.8,13.1,13.1
			c-6,10.2-2.6,22.3,0.3,33.3c3.6,13.4,7.9,27.2,6.4,41.2c-0.6,5.1-4,9.6-9.6,9.6C-542.6,971.9-548,967.5-547.4,962.3L-547.4,962.3z
			"/>
		<path class="st31" d="M-505.9,947.8c-5.5,7.3-11.7,13.4-19.3,18.6c-4.7,3.2-12.3,1-14.9-3.9c-2.9-5.5-1.1-11.5,3.9-14.9
			c0.7-0.5,1.4-1,2.1-1.4c1.4-0.9-1.1,1,0.2-0.1c1.3-1.1,2.6-2.2,3.8-3.4c1.1-1.1,2.2-2.2,3.2-3.3c0.5-0.5,0.9-1,1.3-1.5
			c0.1-0.1,2.1-2.7,0.8-1c3.4-4.6,9.6-7.4,14.9-3.9C-505.4,935.7-502.3,942.9-505.9,947.8L-505.9,947.8z"/>
		<path class="st31" d="M-539,908.6c-1.1-0.7-2.2-1.4-3.3-2.1c-0.3-0.2-3.3-1.6-2.2-1.1c1.1,0.5-2-0.7-2.3-0.8
			c-1.2-0.4-2.5-0.6-3.7-0.9c-5.6-1.1-9.4-8.1-7.6-13.4c1.9-6,7.4-8.8,13.4-7.6c5.9,1.2,11.7,3.6,16.7,7c4.7,3.2,7.3,9.8,3.9,14.9
			C-527.1,909.3-533.9,912-539,908.6L-539,908.6z"/>
		<path class="st31" d="M-593,862.4c1.9-4.7,1.8-6.2-0.1-10.7c-2.2-5.3,2.4-12.2,7.6-13.4c6.4-1.4,11.1,2,13.4,7.6
			c2.8,6.9,2.9,15.4,0.1,22.4c-2.1,5.3-7.4,9.6-13.4,7.6C-590.5,874.2-595.3,868.1-593,862.4L-593,862.4z"/>
		<path class="st31" d="M-618.9,850.2c-0.6-0.3-2.7-1.1-0.9-0.5c-1-0.4-2.1-0.7-3.2-1c-0.3-0.1-3.2-0.7-1.8-0.5
			c0.8,0.1,0.7,0.1-0.4,0c-0.6-0.1-1.3-0.1-1.9-0.1c-5.7-0.2-11.2-4.9-10.9-10.9c0.3-5.7,4.8-11.2,10.9-10.9
			c6.8,0.3,13.1,2,19.2,5.1c5.1,2.6,7,10.2,3.9,14.9C-607.3,851.5-613.4,853-618.9,850.2L-618.9,850.2z"/>
		<path class="st31" d="M-648.8,822.9c-5.1,1.7-10.2,3.4-15.2,5.1c-5.4,1.8-12.2-2.1-13.4-7.6c-1.4-6,1.8-11.5,7.6-13.4
			c5.1-1.7,10.2-3.4,15.2-5.1c5.4-1.8,12.2,2.1,13.4,7.6C-639.8,815.5-643,820.9-648.8,822.9L-648.8,822.9z"/>
		<path class="st31" d="M-708.2,841.7c-3.8-3.2-8.4-5.3-13.7-6.6c-5.7-1.4-9.2-7.9-7.6-13.4c1.6-5.9,7.7-9,13.4-7.6
			c8.8,2.1,16.4,6.4,23.3,12.2c4.5,3.8,3.9,11.5,0,15.4C-697.2,846.2-703.7,845.5-708.2,841.7L-708.2,841.7z"/>
		<path class="st31" d="M-777.3,865.2c-0.2-10,2-19.4,6.2-28.4c2.5-5.3,10.2-6.7,14.9-3.9c5.5,3.2,6.4,9.6,3.9,14.9
			c-2.6,5.5-3.4,11.4-3.3,17.4C-755.1,879.3-777,879.3-777.3,865.2L-777.3,865.2z"/>
		<path class="st31" d="M-803.3,917.6c-11.3,2-22.1,6.4-31.1,13.6c-4.6,3.7-11,4.5-15.4,0c-3.8-3.8-4.6-11.7,0-15.4
			c12-9.6,25.6-16.5,40.8-19.3c5.8-1,11.8,1.6,13.4,7.6C-794.2,909.4-797.5,916.5-803.3,917.6L-803.3,917.6z"/>
		<path class="st31" d="M-850.6,965.2c0.3,3.3-0.1,0-0.3-0.8c-0.1-0.4-0.4-1.9-0.7-2.1c0.6,1.4,0.7,1.7,0.4,0.9
			c-0.2-0.3-0.3-0.7-0.5-1c-0.3-0.6-2.3-3.2-0.3-0.8c-1.9-2.4-3.2-4.6-3.2-7.7c0-2.7,1.2-5.9,3.2-7.7c4-3.6,11.6-4.8,15.4,0
			c4.6,5.8,7.1,11.8,7.9,19.2c0.6,5.7-5.5,11.2-10.9,10.9C-846.1,975.8-850,971.3-850.6,965.2L-850.6,965.2z"/>
		<path class="st32" d="M-536.8,979.6c-5.6-9-5.8-19.5-4.7-29.7c0.4-4.1,1-8.2,0.8-12.4c0-1-0.1-2-0.2-3c0.1,0.7,0.5,1.8-0.1-0.3
			c-0.2-0.7-0.4-1.5-0.6-2.3c-0.5-1.4-0.5-1.5,0-0.2c-0.2-0.3-0.3-0.7-0.5-1c-0.2-0.3-0.4-0.6-0.6-0.9c0.8,0.9,0.9,1,0.3,0.4
			c-0.8-1.4-1.8-0.5-0.3-0.4c0,0-2.3-0.6-0.2-0.1c1.8,0.4-0.8-0.1-1.3-0.1c-4.8-0.2-9.6,0-14.2-1.7c-11.1-4-15.1-14.8-15-25.8
			c0-2.1,0.2-4.2,0.2-6.3c0-0.8,0-1.7,0-2.5c0-3.9,0.1,1.3-0.1-1c0-0.6-1.1-2.9,0-0.8c-0.3-0.6-0.7-1.2-1-1.8c1.2,2,0.5,0.4,0,0.1
			c-2.5-1.2,1.6,0.6-0.7-0.6c-0.8-0.4-1.5-0.9-2.3-1.2c-1.7-0.8,2.6,0.6-0.5-0.1c-1.6-0.4-3.2-0.9-4.9-1.2c-0.6-0.1-3.1-0.3-0.7-0.1
			c-0.8-0.1-1.5-0.1-2.3-0.2c-1.9-0.1-3.8-0.2-5.8-0.2c-15.9,0-34.9-1.8-43.9-17.2c-2.3-4-3.6-8.9-3.6-13.5c0-2,0.4-3.9,0.6-5.8
			c0,0.2,0.1-2.6,0.1-2.6c0.3,3.3,2.4,5.4,6.1,6.1c-0.4,0-0.9,0-1.3,0c-5.2,1.2-11.4,0.5-16.7,0.8c-5.7,0.3-11.5,0.6-17.2,0.9
			c-23,1.1-45.9,2.3-68.9,3.4c-2.5,0.1-5.1,0.2-7.6,0.4c2.5-0.2-2,0.4-2.8,0.6c-0.9,0.2-1.8,0.5-2.7,0.8c0.5-0.2,1.9-1.1-0.1,0
			c-0.6,0.4-1.2,0.7-1.8,1.1c1.1-0.9,1.2-0.9,0.1,0c0.2-0.3,0.5-0.6,0.7-1c-0.2,0.3-0.3,0.6-0.5,0.8c0.5-1.3,0.6-1.5,0.3-0.6
			c-0.1,1.3-0.9-2.5,0.2,0.8c-0.4-1.2,0.3,0.9,0.3,1c0.4,1.7,0.6,3.6,0.8,5.3c0.6,6.7-2.1,13.4-7.8,17.1c-8.8,5.8-20.9,3.1-30.9,3.3
			c-4.8,0.1-8.9,0.4-13.4,2c-2.4,0.8,1.9-1.3-1.4,0.6c-0.8,0.4-1.5,0.9-2.3,1.3c-1.1,0.7-2.1,1.6-3.6,3.3c-2.2,2.5-3.2,4.6-3.1,7.9
			c-0.1-1.8,1.3,4.1,0.7,2.5c1,2.4,2.4,4.7,3.7,7c5.2,9.7,9.1,21,2,31c-3.4,4.8-8.1,7.3-13.2,9.8c-4,2-6,3.5-7.7,6.9
			c0.7-1.4-0.4,1-0.5,1.4c-0.2,0.9-0.2,0.9-0.1,0c-0.1,0.7-0.1,1.4,0,2.1c0,0.2,0,0.5,0,0.7c-0.1-1.4,0-1.3,0.3,0.1
			c-0.1-0.3-0.2-0.6-0.3-0.9c0.8,1.2,0.8,1.3,0.1,0.3c0,0.2,1.9,1.8,0,0.3c0.6,0.4,1.2,0.8,1.9,1.1c-0.3-0.1-0.6-0.3-1-0.4
			c0.3,0.1,0.7,0.2,1,0.3c-0.6-0.3-1.3-0.3-1.9-0.1c-1,0.2-0.9,0.2,0.3-0.1c-1.4,0.6-1.4,0.4-0.2-0.3c5.3-3.9,13.7-0.9,16.8,4.4
			c3.7,6.3,0.9,12.9-4.4,16.8c-9.3,6.9-22.5,3.3-29.9-4.6c-8.6-9.2-9.2-22.7-3.3-33.5c2.8-5.1,6.8-9.2,11.4-12.6
			c1.8-1.3,3.6-2.4,5.6-3.4c0.7-0.4,1.5-0.7,2.3-1c0.5-0.3,4-2.5,2.7-1.3c-0.5,0.5-0.4,1.7,0.2-0.4c-0.2,0.3-0.3,0.6-0.5,0.8
			c-0.2,1.5-0.2,1.5-0.2,0.1c-0.5,0,1.1,3-0.2,0c-1.5-3.5,0.6,1.1-0.3-1c-1.9-4.2-4.4-8-6.3-12.3c-4.9-11.1-4.5-23.1,2.4-33.4
			c6.5-9.7,16.6-16.4,28.1-18.6c5.9-1.1,11.8-1.5,17.8-1.5c2.7,0,5.4,0.1,8.2,0.2c1.1,0,2.2,0,3.3,0.1c1.1,0,2.2,0,3.2,0
			c1.5-0.1,1.6-0.1,0.3,0.1c-0.1,0.1-0.2,0.1-0.4,0.2c-2,1.1-3.2,3-3.6,5.6c0,0-0.3-2-0.3-2.2c-0.6-2.8-1.1-5.7-0.9-8.6
			c0.3-5.5,2.6-10.9,6.6-14.9c7.1-7,17.2-9.3,26.8-9.9c12.7-0.8,25.4-1.3,38.1-1.9c12.7-0.6,25.4-1.3,38.1-1.9
			c6-0.3,12.1-0.6,18.1-0.9c6-0.3,12.3-1.2,18.2-0.3c7.2,1.1,12.9,5.9,14.9,13.1c0.7,2.5,0.8,5.1,0.6,7.6c-0.1,1.3-0.4,2.6-0.5,4
			c0,0.4,0.1,4.1-0.3,1.2c0.1,0.7,1.3,3.4,0,0.9c0.3,0.6,0.6,1.1,1,1.7c-1.6-2.6,3,1.9,0.6,0.4c0.9,0.6,1.8,1.1,2.7,1.6
			c0.4,0.2,2.1,0.8,0.1,0.1c2.1,0.8,4.3,1.3,6.5,1.8c3.4,0.9-1.4-0.1,0.7,0.2c0.9,0.1,1.9,0.2,2.8,0.2c1.8,0.1,3.6,0,5.4,0
			c4.2-0.1,8.4,0,12.6,0.5c9.4,1.1,18.9,3.7,25.7,10.8c8.3,8.6,8.5,20.5,7.9,31.7c0,0.5,0.3,2.5-0.1,0.2c0.1,0.7,0.3,1.4,0.5,2.1
			c-0.1-0.5-0.3-1-0.7-1.3c-0.5-0.3-1.1-0.6-1.6-0.9c1.5,0.3,1.6,0.4,0.5,0.2c0.4,0,0.9,0,1.3,0.1c6.4-0.1,13,0.4,18.7,3.6
			c10.3,5.8,13.9,18.5,14.2,29.6c0.2,5.4-0.9,10.8-1.2,16.2c-0.4,5.8-0.5,9.2,1.8,12.9c3.5,5.6,1.2,13.5-4.4,16.8
			C-525.9,987.4-533.3,985.2-536.8,979.6L-536.8,979.6z"/>
		<path class="st33" d="M-552.2,1014.8h-258.6c-18.4,0-33.5-15.1-33.5-33.5v-2.3c9.4-81.3,78.5-144.5,162.3-144.5
			c86.4,0,157.1,67.1,163,152C-521.6,1002.4-535.5,1014.8-552.2,1014.8z"/>
	</g>
	<g>
		<path class="st34" d="M-831.2,929.5c15,35.1,38.6,62.1,74.7,76.5c21.4,8.5,43.6,9.7,66.1,5.7c19.8-3.6,38.3-10.2,54.8-22
			c6.1-4.4,11.4-9.5,15.1-16.1c3.6-6.3,3.5-12.8,0-17.1c-3.9-4.8-10.4-6.4-17.4-4.2c-4.9,1.6-9.4,4.1-14.5,5.4
			c-18.1,4.7-35.7,2.7-53.1-3.1c-34.3-11.4-56.8-35.3-71.2-67.6c-4.2,1.2-8.5,2.2-12.6,3.5c-3.3,1.1-6.5,2.1-7.6,6.3
			c-2.9,10.7-5.3,12.5-16.2,12c-3.6-0.2-5.4,0.9-6.5,4.5C-821.8,919.8-824.9,925.9-831.2,929.5z"/>
		<path class="st35" d="M-789.4,890.5c4.1-1.4,8.4-2.4,12.6-3.5c6-3.9,6.6-7.2,1.3-12.1c-6.5-6-14.6-7.6-23.2-7.4
			c-6.3,0.2-12.3,1.6-17.8,4.8c-3.5,2.1-4.4,0.8-4.7-2.7c-0.6-6.9,1.6-13.1,4.6-19.2c1-1.9,3.1-4.1,1.6-6.3c-1.7-2.5-4.7-1.4-7.2-1
			c-9,1.5-13.7,7.5-13.2,16.7c0.3,6.3,1.8,12.3,4.3,18c1,2.3,0.8,3.6-1.1,5.5c-11.8,11.6-14.4,27.4-7.1,42.1c1.6,3.2,3.8,5.6,7.9,4
			c6.4-3.6,9.5-9.6,11.5-16.2c1.1-3.6,3-4.7,6.5-4.5c10.9,0.5,13.3-1.3,16.2-12C-795.9,892.7-792.7,891.6-789.4,890.5"/>
	</g>
</g>
<g>
	<path class="st36" d="M-414.3,1702.7c0-62.5-135.2-137.6-243.2-137.1c-0.6,0-1.3,0-1.9,0c-0.6,0-1.3,0-1.9,0
		c-108-0.6-243.3,74.5-243.3,137c0,62.5,109.7,93.9,245,94l0,0c0,0,0,0,0,0c0,0,0.1,0,0.1,0h0h0c0,0,0.1,0,0.1,0c0,0,0,0,0,0l0,0
		C-524,1796.5-414.3,1765.1-414.3,1702.7z"/>
	<g>
		<g>
			<g>
				<path class="st37" d="M-538.2,1719.1c0.1-6.4,0.1-12.7,0.2-19.1c-1.3,1-2.5,1.9-3.8,2.9c4.3,1.4,7.8,3.5,11,6.7
					c2,1.9,4.9,0.4,5.1-2.1c0.6-6.6,1.7-13,3.3-19.4c-1.8,0.2-3.7,0.5-5.5,0.7c3.7,5.5,3.9,15.3,12.4,16.2c3.5,0.4,5.9-1.7,8-4.1
					c3.7-4.4,7.2-9.1,10.8-13.6c-1.2,0.2-2.4,0.3-3.6,0.5c2.5,1.5,0.9,6,0.7,8.2c-0.2,2-0.2,4,0.4,5.9c0.6,2.1,4.2,7.8,7.4,5.9
					c0.3,0,0.5-0.1,0.8-0.1c-0.6-1.5-0.9-1.5-0.9,0c-0.2,0.8-0.1,1.7,0,2.5c0.3,1.7,1.4,3.2,2.7,4.3c4.3,3.5,9.6,1.6,14.1-0.6
					c3.5-1.7,0.4-6.9-3-5.2c-2.8,1.4-7.2,3.2-7.8-1.1c-0.2-1.2,0.4-2.3-0.2-3.5c-1.6-3.7-5.8-1.2-7.4-3.6c-1.7-2.6,0.5-7.8,0.3-10.7
					c-0.3-3.1-1.5-5.5-4.2-7.1c-1-0.6-2.8-0.5-3.6,0.5c-2,2.5-4,5-6,7.6c-1.5,1.9-3.6,6-5.8,7.3c-5.9,3.5-7.7-8.7-9.9-12
					c-1.4-2-4.9-1.9-5.5,0.7c-1.7,6.9-2.8,13.9-3.5,21c1.7-0.7,3.4-1.4,5.1-2.1c-4-3.8-8.4-6.5-13.7-8.2c-1.9-0.6-3.8,1-3.8,2.9
					c-0.1,6.4-0.1,12.7-0.2,19.1C-544.2,1722.9-538.2,1722.9-538.2,1719.1L-538.2,1719.1z"/>
			</g>
		</g>
		<g>
			<g>
				<path class="st37" d="M-765.9,1735.4c-2.2-6.8-3.3-13.6-3.3-20.7c-1.5,0.9-3,1.7-4.5,2.6c3.9,1.9,7.8,3.9,11.7,5.7
					c2.3,1.1,4.7,1.9,7.1,0.9c1.8-0.7,2.9-2.3,3.7-4c0.3-0.8,1-6.3,1.8-6.5c1.5-0.4,4,7.8,4.9,8.9c1.6,2.1,3.8,3.3,6.5,3.2
					c6.5-0.3,8.9-6.7,10-12.1c0.8-3.7-4.8-5.4-5.8-1.6c-1.6,6.4,3.5,11.2,9.5,12.4c8.6,1.7,15.1-5.5,23.1-7c-1.3-1-2.5-1.9-3.8-2.9
					c-0.4,4.7-1.8,8.8-4.2,12.8c-2,3.3,3.2,6.3,5.2,3c3-4.9,4.6-10.1,5.1-15.8c0.2-2.1-2-3.2-3.8-2.9c-4.9,0.9-8.8,3.6-13.3,5.6
					c-2.9,1.3-13.5,2.7-11.9-3.6c-1.9-0.5-3.9-1.1-5.8-1.6c-0.3,1.7-0.6,3.9-1.5,5.3c-1.4,2.4-3.6,2-5.3-0.2
					c-1.3-1.7-1.3-4.5-2.6-6.3c-2.1-2.8-5.8-4.5-9.1-2.5c-2.7,1.6-3.1,4.7-3.8,7.5c-0.1,0.5-0.4,2.5-0.8,2.8
					c-0.8,0.5-3.7-1.4-4.4-1.7c-3.1-1.5-6.1-3-9.2-4.5c-2-1-4.5,0.2-4.5,2.6c0,7.6,1.2,15.1,3.5,22.3
					C-770.5,1740.6-764.7,1739.1-765.9,1735.4L-765.9,1735.4z"/>
			</g>
		</g>
		<g>
			<g>
				<path class="st37" d="M-858.6,1658.1c-2-3.4-4.1-6.8-6-10.3c-0.6-1.1-2.5-3.1-1.1-3.7c1.3-0.6,3.1,0.8,4,1.5
					c3.7,2.9,6.2,6.7,11.5,6.4c1.8-0.1,2.8-1.3,3-3c0.6-4.4,1.1-8.7,1.7-13.1c-2,0-4,0-6,0c0.4,5.4,1.8,10.2,4.4,14.9
					c0.8,1.5,2.7,1.8,4.1,1.1c2.5-1.2,4.1-3.2,5.3-5.7c1.3-2.8,1.5-7.4,3.9-9.5c3.6-3.1,4.7,2.1,6.1,4.4c1.1,1.8,2.5,3.4,4.6,4.1
					c2.8,0.9,4.9-1.3,7.5-1c2.7,0.3,3.4,4.6,5.3,6.5c3.1,3.2,8.5,4.2,11-0.2c1.9-3.4-3.3-6.4-5.2-3c-0.4,0.8-4.7-6.3-5.1-6.7
					c-1.3-1.5-2.7-2.6-4.7-2.9c-2.8-0.4-6.1,2.5-8.2,0.2c-1.4-1.5-1.9-3.9-3.3-5.5c-2.9-3.4-7.3-4-11-1.2c-4.9,3.8-4,12.8-9.3,15.4
					c1.4,0.4,2.7,0.7,4.1,1.1c-2.1-3.8-3.3-7.6-3.6-11.9c-0.3-3.9-5.5-3.8-6,0c-0.6,4.4-1.1,8.7-1.7,13.1c1-1,2-2,3-3
					c-4.2,0.3-6.8-5.1-10.4-6.8c-2.6-1.2-6.2-1.7-8.9-0.1c-2.4,1.4-3.4,4.3-2.7,6.9c1.3,5.2,5.7,10.5,8.4,15.1
					C-861.8,1664.4-856.6,1661.4-858.6,1658.1L-858.6,1658.1z"/>
			</g>
		</g>
		<g>
			<g>
				<path class="st37" d="M-635.5,1612.4c-2.2,0-4.5-0.1-6.7-0.1c-3.4,0-4,4.9-0.8,5.9c8.1,2.5,16.4,4.2,24.8,5.3
					c1.1,0.1,2.7-1,2.9-2.2c0.6-4.5,0.1-8.4-1.7-12.5c-1.4,1.4-2.7,2.7-4.1,4.1c2.7,1.4,5.5,2.8,8.2,4.2c1.7,0.9,3.8,0.1,4.4-1.8
					c1.2-4,3-7.5,5.4-10.8c-1.7,0-3.5,0-5.2,0c3.8,6.9,12.7,8.2,18.6,3.4c-1.7-0.7-3.4-1.4-5.1-2.1c-0.4,6.4,1.9,12.3,6.6,16.7
					c2.8,2.6,7.1-1.6,4.2-4.2c-3.6-3.4-5.2-7.5-4.9-12.4c0.2-2.9-3.3-3.6-5.1-2.1c-3.1,2.5-7.4,1.1-9.2-2.2c-1.2-2.1-3.9-1.7-5.2,0
					c-2.7,3.8-4.6,7.8-6,12.3c1.5-0.6,2.9-1.2,4.4-1.8c-2.7-1.4-5.5-2.8-8.2-4.2c-2.8-1.4-5.3,1.4-4.1,4.1c1.1,2.6,1.5,5.1,1.1,7.9
					c1-0.7,1.9-1.5,2.9-2.2c-7.9-1-15.6-2.8-23.2-5.1c-0.3,2-0.5,3.9-0.8,5.9c2.2,0,4.5,0.1,6.7,0.1
					C-631.7,1618.4-631.7,1612.4-635.5,1612.4L-635.5,1612.4z"/>
			</g>
		</g>
		<g>
			<g>
				<path class="st37" d="M-638,1670.9c2.2,0,4.5-0.1,6.7-0.1c-0.3-2-0.5-3.9-0.8-5.9c-7.6,2.3-15.3,4.1-23.2,5.1
					c1,0.7,1.9,1.5,2.9,2.2c-0.4-2.8,0-5.4,1.1-7.9c1.2-2.7-1.3-5.5-4.1-4.1c-2.7,1.4-5.5,2.8-8.2,4.2c1.5,0.6,2.9,1.2,4.4,1.8
					c-1.3-4.4-3.3-8.5-6-12.3c-1.2-1.7-4-2.1-5.2,0c-1.8,3.2-6.1,4.7-9.2,2.2c-1.8-1.5-5.3-0.7-5.1,2.1c0.3,5-1.2,9-4.9,12.4
					c-2.8,2.6,1.4,6.9,4.2,4.2c4.7-4.4,7.1-10.2,6.6-16.7c-1.7,0.7-3.4,1.4-5.1,2.1c6,4.8,14.8,3.5,18.6-3.4c-1.7,0-3.5,0-5.2,0
					c2.4,3.4,4.2,6.8,5.4,10.8c0.6,1.9,2.7,2.7,4.4,1.8c2.7-1.4,5.5-2.8,8.2-4.2c-1.4-1.4-2.7-2.7-4.1-4.1c-1.8,4.2-2.3,8-1.7,12.5
					c0.2,1.2,1.7,2.4,2.9,2.2c8.4-1.1,16.7-2.8,24.8-5.3c3.2-1,2.7-5.9-0.8-5.9c-2.2,0-4.5,0.1-6.7,0.1
					C-641.9,1665-641.9,1671-638,1670.9L-638,1670.9z"/>
			</g>
		</g>
	</g>
	<g>
		<path class="st38" d="M-761.5,1437.2l6,69.4c0,0,9.7-4,33.4,10.3c34.9,21,90.4,19.5,118.4,14.5c0,0,35.5-3,49.4,10l-3.6-79
			c0,0-53.7,0.3-68.1-28.3l-8.1,7.9c0,0-8.3-16.8-23.4-17.1c-12.2-0.2-22.2,9.3-23.7,17.8l-8-10.9
			C-689.3,1431.8-701.9,1442.9-761.5,1437.2z"/>
		<path class="st2" d="M-764,1395.7c0,0-2.2,24.6-16.6,27.5c-14.4,2.9,32.5,0,32.5,0S-761.8,1423.2-764,1395.7z"/>
		<path class="st39" d="M-761.5,1437.2l6,69.4c0,0,9.7-4,33.4,10.3c34.9,21,90.4,19.5,118.4,14.5c0,0,34.6-2.1,49.4,10l-3.6-79
			c0,0-53.7,0.3-68.1-28.3l-8.1,7.9c0,0-8.3-16.8-23.4-17.1c-12.2-0.2-22.2,9.3-23.7,17.8l-8-10.9
			C-689.3,1431.8-701.9,1442.9-761.5,1437.2z"/>
		<path class="st2" d="M-555,1418.3c0,0-2.2,24.6-16.6,27.5s32.5,0,32.5,0S-552.9,1445.8-555,1418.3z"/>
		<path class="st2" d="M-756.7,1608.1H-769c-4.8,0-8.7-3.9-8.7-8.7l1.4-167.6c0-4.8,3.9-8.7,8.7-8.7h9.4c4.8,0,8.7,3.9,8.7,8.7
			l1.4,167.6C-748.1,1604.2-752,1608.1-756.7,1608.1z"/>
		<path class="st2" d="M-548.5,1630.7h-12.3c-4.8,0-8.7-3.9-8.7-8.7l1.4-167.6c0-4.8,3.9-8.7,8.7-8.7h9.4c4.8,0,8.7,3.9,8.7,8.7
			l1.4,167.6C-539.9,1626.8-543.8,1630.7-548.5,1630.7z"/>
		<path class="st2" d="M-746.5,1429.7h-34.2c-1.9,0-3.5-1.6-3.5-3.5v-3.2c0-1.9,1.6-3.5,3.5-3.5h34.2c1.9,0,3.5,1.6,3.5,3.5v3.2
			C-743,1428.1-744.6,1429.7-746.5,1429.7z"/>
		<path class="st2" d="M-538.3,1452.3h-34.2c-1.9,0-3.5-1.6-3.5-3.5v-3.2c0-1.9,1.6-3.5,3.5-3.5h34.2c1.9,0,3.5,1.6,3.5,3.5v3.2
			C-534.8,1450.7-536.4,1452.3-538.3,1452.3z"/>
		<path class="st40" d="M-760.7,1408.7h-6.5c-2.2,0-4-1.8-4-4v-3.6c0-2.2,1.8-4,4-4h6.5c2.2,0,4,1.8,4,4v3.6
			C-756.7,1407-758.5,1408.7-760.7,1408.7z"/>
		<path class="st40" d="M-551.8,1431.3h-6.5c-2.2,0-4-1.8-4-4v-3.6c0-2.2,1.8-4,4-4h6.5c2.2,0,4,1.8,4,4v3.6
			C-547.8,1429.5-549.6,1431.3-551.8,1431.3z"/>
		<g>
			<path class="st41" d="M-727.2,1467.2c2.3,0.2,4.1,0.5,5.4,0.8c1.3,0.3,2.4,0.7,3.4,1.3c1,0.5,1.9,1.3,2.7,2.3
				c0.8,1,1.4,1.8,1.6,2.4c0.4,1.2,0.6,2.5,0.4,3.8c-0.2,1.9-0.9,3.7-2.1,5.3c-1.2,1.6-2.7,2.8-4.4,3.5c-1.5,0.6-2.9,0.9-4.3,1.1
				c-1.4,0.2-3.1,0.1-5,0c-2-0.2-3.3-0.4-3.9-0.7c-0.5-0.2-0.8-0.3-1-0.4c-0.2-0.1-0.3-0.3-0.3-0.6c-0.1-0.3-0.1-0.8,0-1.7l0.3-2.1
				c0.1-0.7,0.2-1.6,0.3-2.7l1.4-11.4c0.1-0.5,0.2-0.8,0.3-1c0.1-0.1,0.4-0.2,0.8-0.2C-731,1466.8-729.5,1466.9-727.2,1467.2z
				 M-725.3,1473.4c-0.2,0-0.4,0-0.5,0.1c-0.1,0.1-0.1,0.3-0.2,0.7c-0.2,1-0.4,2.4-0.6,4.2c-0.2,2-0.2,3-0.2,3.1
				c0,0.1,0.2,0.1,0.4,0.1c0.8,0.1,1.7,0,2.6-0.4c0.9-0.3,1.6-0.8,2.2-1.5c0.6-0.7,0.9-1.4,1-2.2c0-0.4,0-0.8-0.1-1.1
				c-0.3-1.1-1.3-2-3.1-2.7C-724.6,1473.5-725.1,1473.4-725.3,1473.4z"/>
			<path class="st41" d="M-701.6,1469.7c2.5,0.2,4.7,1,6.7,2.2c1.9,1.2,3.2,2.8,3.9,4.6c0.5,1.4,0.6,3,0.4,5
				c-0.1,1.2-0.4,2.3-0.9,3.3c-0.5,0.9-1.3,1.9-2.5,2.9c-1.2,1-2.6,1.7-4,2.1c-1.4,0.4-2.8,0.6-4.2,0.4c-0.2,0-0.3,0-0.4-0.1l-0.5,0
				c-2-0.3-3.7-1-5.2-2.1c-1.5-1.1-2.6-2.4-3.4-4c-0.8-1.6-1.1-3.3-1-5.2l0.1-0.6c0.4-3.8,2.5-6.4,6.3-7.9c0.9-0.3,1.7-0.5,2.4-0.6
				C-703.2,1469.7-702.4,1469.7-701.6,1469.7z M-701.6,1475.6c-0.1,0-0.4,0-0.7,0c-1.3,0.3-2.4,1.1-3.1,2.3
				c-0.3,0.4-0.4,0.8-0.5,1.2c0,0.3,0,0.5,0,0.7c0,0.8,0.1,1.4,0.3,1.8c0.7,1.5,1.9,2.4,3.5,2.6l0.3,0c0.7,0.1,1.4-0.1,2-0.4
				c0.6-0.4,1.1-0.8,1.5-1.3c0.4-0.5,0.6-1,0.6-1.5c0-0.3,0-0.5,0-0.6c0-2-0.6-3.4-2-4.2C-700.1,1475.9-700.7,1475.7-701.6,1475.6z"
				/>
			<path class="st41" d="M-677.4,1470.9c3.4,0.3,5.8,1.2,7.2,2.7c0.2,0.2,0.3,0.4,0.4,0.5c0,0.1,0,0.3,0,0.5c-0.1,0.3-0.4,0.9-1,1.9
				c-0.6,1-1,1.6-1.3,1.8l-0.4,0.2c-0.1,0-0.3-0.1-0.7-0.3c-1.5-0.8-2.8-1.3-3.9-1.4c-0.9-0.1-1.8,0.1-2.7,0.5
				c-0.9,0.4-1.6,1.1-2,1.9c-0.3,0.6-0.5,1.1-0.6,1.5c0,0.4-0.1,0.7,0,0.9c0,1,0.1,1.7,0.3,2.2c0.7,1.5,2.2,2.3,4.3,2.5
				c0.8,0.1,1.7,0,2.7-0.2c0.3,0,0.5-0.2,0.5-0.6c0-0.3,0-0.5-0.1-0.6c-0.1-0.1-0.6-0.2-1.5-0.4c-0.9-0.1-1.5-0.3-1.8-0.6
				c-0.3-0.2-0.4-0.7-0.3-1.4c0-0.4,0.1-0.7,0.1-0.9c0.2-1,0.5-1.5,0.9-1.7c0.3-0.1,1.7,0,4.2,0.3c2.4,0.2,3.8,0.4,4.1,0.6
				c0.1,0,0.3,0.2,0.5,0.5c0.1,0.2,0.1,1.2,0,3.2c0,2-0.1,3.5-0.2,4.3c0,0.3-0.1,0.5-0.1,0.5c-0.1,0.5-0.7,0.9-1.6,1.3
				c-0.9,0.4-2.1,0.8-3.4,1c-1.3,0.3-2.6,0.4-3.9,0.3l-0.8-0.1c-2.3-0.2-4.3-0.9-6.1-2c-1.8-1.1-3.1-2.6-4.1-4.5
				c-0.5-0.8-0.7-1.6-0.9-2.2c-0.1-0.6-0.1-1.4,0-2.4c0.3-3.1,1.4-5.4,3.3-7.1c1.9-1.7,4.2-2.6,7.1-2.8
				C-678.7,1470.8-678.2,1470.8-677.4,1470.9z"/>
			<path class="st41" d="M-656.7,1474.1l2.3,0.2c2.9,0.3,5.2,0.6,6.8,1c1.6,0.4,2.9,0.9,3.9,1.6c1,0.7,1.7,1.6,2.1,2.8
				c0.2,0.6,0.3,1,0.3,1.3c0,0.2,0,0.8-0.1,1.6c-0.1,1.1-0.3,2-0.5,2.5c-1.2,2.7-3.3,4.3-6.2,4.8c-0.7,0.2-1.7,0.2-2.8,0.1l-1.6-0.2
				l-0.1,0.5c0,0-0.1,0.3-0.2,0.8l-0.2,1.1c-0.2,0.9-0.4,1.5-0.6,1.8c-0.2,0.2-0.5,0.3-0.8,0.3l-1.3-0.2c-2.5-0.4-3.9-0.7-4.2-1.1
				c-0.1-0.2-0.2-0.5-0.1-0.9c0.1-0.8,0.2-2,0.5-3.4c0.4-2.4,0.8-5.1,1.1-7.9c0.2-2.4,0.4-3.9,0.6-4.6c0.2-0.8,0.4-1.3,0.7-1.6
				L-656.7,1474.1z M-650.9,1480.3c-0.3,0-0.5,0-0.6,0.1c-0.1,0.1-0.3,0.8-0.4,2c-0.1,0.8-0.1,1.4-0.1,1.7c0,0.2,0.2,0.4,0.4,0.4
				l0.5,0c0.6,0,1.2-0.3,1.6-0.6c0.5-0.4,0.7-0.9,0.8-1.4c0-0.4,0-0.7,0-0.9c-0.1-0.2-0.2-0.4-0.5-0.6
				C-649.6,1480.6-650.2,1480.4-650.9,1480.3z"/>
			<path class="st41" d="M-634.5,1476.1c1,0.1,2,0.2,3,0.4c1,0.2,1.7,0.3,2,0.5c0.2,0.1,0.5,0.5,0.7,1.2c0.2,0.7,0.6,2.2,1.2,4.4
				c0.8,2.7,1.4,4.9,2,6.6c1.3,4.1,1.9,6.5,1.8,7.1c0,0.3-0.2,0.5-0.5,0.6c-0.6,0.3-1.8,0.4-3.6,0.2c-0.1,0-0.2,0-0.3-0.1l-0.3,0
				c-0.5-0.1-0.9-0.3-1.1-0.6c-0.2-0.3-0.4-0.8-0.5-1.5l-0.2-1l-0.9-0.2c-0.9-0.2-2.2-0.4-3.9-0.5c-0.8-0.1-1.4-0.1-1.5-0.1l-1.2,0
				l-0.5,1c-0.3,0.6-0.5,1-0.7,1.2c-0.2,0.2-0.5,0.3-0.9,0.3c-0.5,0-1.2,0-2.2-0.1c-1-0.1-1.6-0.2-2-0.4c-0.4-0.1-0.5-0.4-0.5-0.8
				c0-0.5,0.5-1.8,1.5-3.8c1.2-2.5,2.3-5,3.3-7.2c1.9-4.4,3.3-6.8,4.2-7.1C-635.5,1476.1-635.1,1476.1-634.5,1476.1z M-633.2,1483.1
				c-0.1,0-0.4,0.6-1.1,1.9c-0.7,1.3-1,2.1-1,2.3c0,0.2,0.6,0.4,2,0.5c0.5,0,0.8,0.1,1,0c0.2,0,0.4-0.1,0.4-0.4
				c0-0.4-0.2-1.4-0.7-3.1C-633,1483.6-633.2,1483.1-633.2,1483.1z"/>
			<path class="st41" d="M-615.4,1478.5c2.7,0.3,4.6,0.5,5.8,0.7c1.2,0.2,2.1,0.6,2.8,1.1c0.7,0.5,1.3,1.2,1.9,2.3
				c0.9,1.4,1.2,2.8,1.1,4.1c0,0.4-0.1,0.8-0.2,1.2c-0.4,1.6-1.3,2.8-2.7,3.7l-0.5,0.4l0.8,2.6c0.6,2,0.9,3.2,0.8,3.5
				c0,0,0,0.1-0.1,0.3c-0.1,0.1-0.8,0.2-2.2,0.2c-1.4,0.1-2.4,0.1-3.1,0c-0.6-0.1-1-0.2-1.2-0.4c-0.2-0.2-0.4-0.8-0.7-1.6
				c-0.5-1.8-0.9-2.8-1.1-2.8l-0.6-0.1c-0.2,0-0.4,0-0.4,0.1c-0.1,0.1-0.2,0.8-0.5,2.1c-0.1,0.7-0.3,1.3-0.4,1.7
				c-0.1,0.2-0.3,0.4-0.5,0.6c-0.3,0.2-0.8,0.2-1.6,0.2l-1.7-0.2l-1.2-0.2c-0.7-0.1-1.1-0.1-1.3-0.2c-0.3-0.1-0.5-0.2-0.6-0.4
				c-0.2-0.2-0.2-0.7-0.1-1.5c0.1-0.8,0.2-1.6,0.4-2.4c0.4-1.8,0.9-5.5,1.7-11.2c0.3-2.2,0.5-3.4,0.7-3.5c0.2-0.1,0.7-0.2,1.5-0.2
				C-617.9,1478.3-616.9,1478.3-615.4,1478.5z M-613.4,1484.5c-0.4-0.1-0.6-0.1-0.7-0.1c-0.1,0-0.2,0.1-0.3,0.3
				c-0.1,0.2-0.2,0.7-0.3,1.5c-0.1,1-0.1,1.6,0,1.7c0.1,0.1,0.3,0.1,0.7,0.2c0.5,0,0.8,0,1.1,0c0.3-0.1,0.6-0.3,0.9-0.5
				c0.4-0.3,0.6-0.5,0.6-0.7c0,0,0-0.1,0.1-0.2c0.1-0.7-0.2-1.2-0.9-1.6C-612.4,1484.7-612.9,1484.5-613.4,1484.5z"/>
			<path class="st41" d="M-601.5,1479.2c0.4-0.1,1.3,0,2.9,0.1c1.4,0.1,2.3,0.3,2.7,0.4c0.4,0.2,0.6,0.4,0.6,0.7l-0.1,0.5l-0.1,1.2
				c-0.1,0.3-0.1,0.8-0.2,1.4c-0.2,1.7-0.2,2.6-0.1,2.6c0.2,0,1.3-1,3.2-3c0.5-0.5,1-1,1.8-1.6l0.8-0.7l1.5,0.2
				c1.1,0.1,2.1,0.3,3,0.5c1,0.1,1.5,0.3,1.7,0.4c0.1,0.1,0.2,0.2,0.2,0.4c0,0.3-0.5,0.9-1.5,1.8c-3.1,2.9-4.6,4.5-4.6,4.7
				c0,0.1-0.1,0.2-0.3,0.4c-0.2,0.2-0.4,0.3-0.4,0.5c0,0.4,1.8,3.5,5.5,9.5c0.5,0.9,0.8,1.4,0.7,1.7c0,0.2-0.1,0.3-0.2,0.3
				c-0.1,0.1-1.5,0-4.2-0.2l-1.3-0.1l-1.1-0.1c-0.7-0.1-1.1-0.1-1.4-0.2c-0.3-0.1-0.5-0.2-0.7-0.5c-0.2-0.2-0.4-0.6-0.6-1.2
				c-0.1-0.2-0.2-0.3-0.2-0.4c-0.4-0.8-0.9-1.9-1.5-3.2c-0.6-1.1-0.9-1.7-1-1.7c-0.6-0.1-1.1,1.5-1.4,4.6l0,0.4
				c-0.1,0.5-0.2,0.9-0.3,1c-0.2,0.2-0.5,0.2-1.1,0.1c-0.5,0-1.3-0.2-2.3-0.3c-1.1-0.2-1.7-0.3-2-0.4c-0.3-0.1-0.5-0.2-0.7-0.4
				l-0.4-0.4l0.3-2.1c0.2-1.1,0.5-4.3,1-9.4c0.5-4.8,0.8-7.3,0.9-7.4C-602.2,1479.4-601.9,1479.3-601.5,1479.2z"/>
		</g>
	</g>
</g>
<g>
	<g>
		<path class="st42" d="M766.4,1724.9c0-21.8,0-43.6,0-65.4c0-6.3,2-8.2,8.3-8.2c15,0,29.9,0,44.9,0c6.2,0,8.3,2.1,8.3,8.3
			c0,43.8,0,87.6,0,131.4c0,6.2-2.1,8.2-8.4,8.2c-15,0-29.9,0-44.9,0c-6.2,0-8.2-2-8.2-8.3C766.4,1768.9,766.4,1746.9,766.4,1724.9z
			"/>
		<path class="st42" d="M741.5,1725.3c0,21.9,0,43.8,0,65.7c0,6.3-2,8.3-8.3,8.3c-15.1,0-30.2,0-45.2,0c-5.8,0-8-2.2-8-7.9
			c0-44,0-88.1,0-132.1c0-5.8,2.2-7.9,8-8c15.2,0,30.4,0,45.6,0c5.8,0,7.9,2.1,7.9,7.9C741.6,1681.2,741.5,1703.3,741.5,1725.3z"/>
	</g>
</g>
<g>
	<path class="st42" d="M472.5,1656.2c29.1,0,57.9,0,87,0c0,18.3,0,36.5,0,54.9c-4,0-7.8,0-11.9,0c0-13.9,0-27.6,0-41.8
		c-1.3-0.1-2.4-0.3-3.6-0.3c-19,0-38,0-56.9-0.1c-2.7,0-3.4,0.8-3.4,3.4c0.1,36.4,0.1,72.7,0,109.1c0,1.9-0.1,3.4,2.7,3.4
		c19.5-0.1,39-0.1,58.5-0.1c0.7,0,1.4-0.2,2.5-0.3c0-6,0-12,0-18.3c3.7,0,7.1-0.1,10.4,0.1c0.6,0,1.7,1.2,1.8,1.9
		c0.1,9.7,0.1,19.4,0.1,29.3c-29.2,0-58.1,0-87.2,0C472.5,1750.5,472.5,1703.5,472.5,1656.2z"/>
	<path class="st42" d="M573.5,1773.8c0-5.2,0-10.4,0-16c-1.7,0-2.9,0-4.1,0c-18.2,0-36.5,0-54.7,0c-3.9,0-4.2-0.3-4.2-4.1
		c0-9.9,0.1-19.8-0.1-29.7c0-3,1-4,4.1-4c17.9,0.1,35.8,0.1,53.7,0.1c1.2,0,2.5,0,4.2,0c0-4.2-0.1-8.2,0.1-12.1
		c0-1.2,0.8-2.4,1.2-3.7c1.1,0.6,2.3,1,3.1,1.8c10.2,9.8,20.3,19.7,30.4,29.5c2.6,2.5,2.6,3.4,0,6c-9.8,10.1-19.7,20.2-29.6,30.3
		c-0.9,0.9-2.1,1.6-3.1,2.4C574.1,1774.1,573.8,1773.9,573.5,1773.8z"/>
</g>
<g>
	<path class="st43" d="M904.7,736.8c0-62.5-135.2-137.6-243.2-137.1c-0.6,0-1.3,0-1.9,0c-0.6,0-1.3,0-1.9,0
		c-108-0.6-243.3,74.5-243.3,137c0,62.5,109.7,93.9,245,94l0,0c0,0,0,0,0,0c0,0,0.1,0,0.1,0h0h0c0,0,0.1,0,0.1,0c0,0,0,0,0,0l0,0
		C795,830.7,904.7,799.2,904.7,736.8z"/>
	<g>
		<g>
			<g>
				<path class="st44" d="M780.8,753.2c0.1-6.4,0.1-12.7,0.2-19.1c-1.3,1-2.5,1.9-3.8,2.9c4.3,1.4,7.8,3.5,11,6.7
					c2,1.9,4.9,0.4,5.1-2.1c0.6-6.6,1.7-13,3.3-19.4c-1.8,0.2-3.7,0.5-5.5,0.7c3.7,5.5,3.9,15.3,12.4,16.2c3.5,0.4,5.9-1.7,8-4.1
					c3.7-4.4,7.2-9.1,10.8-13.6c-1.2,0.2-2.4,0.3-3.6,0.5c2.5,1.5,0.9,6,0.7,8.2c-0.2,2-0.2,4,0.4,5.9c0.6,2.1,4.2,7.8,7.4,5.9
					c0.3,0,0.5-0.1,0.8-0.1c-0.6-1.5-0.9-1.5-0.9,0c-0.2,0.8-0.1,1.7,0,2.5c0.3,1.7,1.4,3.2,2.7,4.3c4.3,3.5,9.6,1.6,14.1-0.6
					c3.5-1.7,0.4-6.9-3-5.2c-2.8,1.4-7.2,3.2-7.8-1.1c-0.2-1.2,0.4-2.3-0.2-3.5c-1.6-3.7-5.8-1.2-7.4-3.6c-1.7-2.6,0.5-7.8,0.3-10.7
					c-0.3-3.1-1.5-5.5-4.2-7.1c-1-0.6-2.8-0.5-3.6,0.5c-2,2.5-4,5-6,7.6c-1.5,1.9-3.6,6-5.8,7.3c-5.9,3.5-7.7-8.7-9.9-12
					c-1.4-2-4.9-1.9-5.5,0.7c-1.7,6.9-2.8,13.9-3.5,21c1.7-0.7,3.4-1.4,5.1-2.1c-4-3.8-8.4-6.5-13.7-8.2c-1.9-0.6-3.8,1-3.8,2.9
					c-0.1,6.4-0.1,12.7-0.2,19.1C774.8,757,780.8,757,780.8,753.2L780.8,753.2z"/>
			</g>
		</g>
		<g>
			<g>
				<path class="st44" d="M553.1,769.5c-2.2-6.8-3.3-13.6-3.3-20.7c-1.5,0.9-3,1.7-4.5,2.6c3.9,1.9,7.8,3.9,11.7,5.7
					c2.3,1.1,4.7,1.9,7.1,0.9c1.8-0.7,2.9-2.3,3.7-4c0.3-0.8,1-6.3,1.8-6.5c1.5-0.4,4,7.8,4.9,8.9c1.6,2.1,3.8,3.3,6.5,3.2
					c6.5-0.3,8.9-6.7,10-12.1c0.8-3.7-4.8-5.4-5.8-1.6c-1.6,6.4,3.5,11.2,9.5,12.4c8.6,1.7,15.1-5.5,23.1-7c-1.3-1-2.5-1.9-3.8-2.9
					c-0.4,4.7-1.8,8.8-4.2,12.8c-2,3.3,3.2,6.3,5.2,3c3-4.9,4.6-10.1,5.1-15.8c0.2-2.1-2-3.2-3.8-2.9c-4.9,0.9-8.8,3.6-13.3,5.6
					c-2.9,1.3-13.5,2.7-11.9-3.6c-1.9-0.5-3.9-1.1-5.8-1.6c-0.3,1.7-0.6,3.9-1.5,5.3c-1.4,2.4-3.6,2-5.3-0.2
					c-1.3-1.7-1.3-4.5-2.6-6.3c-2.1-2.8-5.8-4.5-9.1-2.5c-2.7,1.6-3.1,4.7-3.8,7.5c-0.1,0.5-0.4,2.5-0.8,2.8
					c-0.8,0.5-3.7-1.4-4.4-1.7c-3.1-1.5-6.1-3-9.2-4.5c-2-1-4.5,0.2-4.5,2.6c0,7.6,1.2,15.1,3.5,22.3
					C548.5,774.7,554.3,773.2,553.1,769.5L553.1,769.5z"/>
			</g>
		</g>
		<g>
			<g>
				<path class="st44" d="M460.4,692.2c-2-3.4-4.1-6.8-6-10.3c-0.6-1.1-2.5-3.1-1.1-3.7c1.3-0.6,3.1,0.8,4,1.5
					c3.7,2.9,6.2,6.7,11.5,6.4c1.8-0.1,2.8-1.3,3-3c0.6-4.4,1.1-8.7,1.7-13.1c-2,0-4,0-6,0c0.4,5.4,1.8,10.2,4.4,14.9
					c0.8,1.5,2.7,1.8,4.1,1.1c2.5-1.2,4.1-3.2,5.3-5.7c1.3-2.8,1.5-7.4,3.9-9.5c3.6-3.1,4.7,2.1,6.1,4.4c1.1,1.8,2.5,3.4,4.6,4.1
					c2.8,0.9,4.9-1.3,7.5-1c2.7,0.3,3.4,4.6,5.3,6.5c3.1,3.2,8.5,4.2,11-0.2c1.9-3.4-3.3-6.4-5.2-3c-0.4,0.8-4.7-6.3-5.1-6.7
					c-1.3-1.5-2.7-2.6-4.7-2.9c-2.8-0.4-6.1,2.5-8.2,0.2c-1.4-1.5-1.9-3.9-3.3-5.5c-2.9-3.4-7.3-4-11-1.2c-4.9,3.8-4,12.8-9.3,15.4
					c1.4,0.4,2.7,0.7,4.1,1.1c-2.1-3.8-3.3-7.6-3.6-11.9c-0.3-3.9-5.5-3.8-6,0c-0.6,4.4-1.1,8.7-1.7,13.1c1-1,2-2,3-3
					c-4.2,0.3-6.8-5.1-10.4-6.8c-2.6-1.2-6.2-1.7-8.9-0.1c-2.4,1.4-3.4,4.3-2.7,6.9c1.3,5.2,5.7,10.5,8.4,15.1
					C457.2,698.5,462.4,695.5,460.4,692.2L460.4,692.2z"/>
			</g>
		</g>
		<g>
			<g>
				<path class="st44" d="M683.5,646.5c-2.2,0-4.5-0.1-6.7-0.1c-3.4,0-4,4.9-0.8,5.9c8.1,2.5,16.4,4.2,24.8,5.3
					c1.1,0.1,2.7-1,2.9-2.2c0.6-4.5,0.1-8.4-1.7-12.5c-1.4,1.4-2.7,2.7-4.1,4.1c2.7,1.4,5.5,2.8,8.2,4.2c1.7,0.9,3.8,0.1,4.4-1.8
					c1.2-4,3-7.5,5.4-10.8c-1.7,0-3.5,0-5.2,0c3.8,6.9,12.7,8.2,18.6,3.4c-1.7-0.7-3.4-1.4-5.1-2.1c-0.4,6.4,1.9,12.3,6.6,16.7
					c2.8,2.6,7.1-1.6,4.2-4.2c-3.6-3.4-5.2-7.5-4.9-12.4c0.2-2.9-3.3-3.6-5.1-2.1c-3.1,2.5-7.4,1.1-9.2-2.2c-1.2-2.1-3.9-1.7-5.2,0
					c-2.7,3.8-4.6,7.8-6,12.3c1.5-0.6,2.9-1.2,4.4-1.8c-2.7-1.4-5.5-2.8-8.2-4.2c-2.8-1.4-5.3,1.4-4.1,4.1c1.1,2.6,1.5,5.1,1.1,7.9
					c1-0.7,1.9-1.5,2.9-2.2c-7.9-1-15.6-2.8-23.2-5.1c-0.3,2-0.5,3.9-0.8,5.9c2.2,0,4.5,0.1,6.7,0.1
					C687.3,652.5,687.3,646.5,683.5,646.5L683.5,646.5z"/>
			</g>
		</g>
		<g>
			<g>
				<path class="st44" d="M681,705c2.2,0,4.5-0.1,6.7-0.1c-0.3-2-0.5-3.9-0.8-5.9c-7.6,2.3-15.3,4.1-23.2,5.1c1,0.7,1.9,1.5,2.9,2.2
					c-0.4-2.8,0-5.4,1.1-7.9c1.2-2.7-1.3-5.5-4.1-4.1c-2.7,1.4-5.5,2.8-8.2,4.2c1.5,0.6,2.9,1.2,4.4,1.8c-1.3-4.4-3.3-8.5-6-12.3
					c-1.2-1.7-4-2.1-5.2,0c-1.8,3.2-6.1,4.7-9.2,2.2c-1.8-1.5-5.3-0.7-5.1,2.1c0.3,5-1.2,9-4.9,12.4c-2.8,2.6,1.4,6.9,4.2,4.2
					c4.7-4.4,7.1-10.2,6.6-16.7c-1.7,0.7-3.4,1.4-5.1,2.1c6,4.8,14.8,3.5,18.6-3.4c-1.7,0-3.5,0-5.2,0c2.4,3.4,4.2,6.8,5.4,10.8
					c0.6,1.9,2.7,2.7,4.4,1.8c2.7-1.4,5.5-2.8,8.2-4.2c-1.4-1.4-2.7-2.7-4.1-4.1c-1.8,4.2-2.3,8-1.7,12.5c0.2,1.2,1.7,2.4,2.9,2.2
					c8.4-1.1,16.7-2.8,24.8-5.3c3.2-1,2.7-5.9-0.8-5.9c-2.2,0-4.5,0.1-6.7,0.1C677.1,699.1,677.1,705.1,681,705L681,705z"/>
			</g>
		</g>
	</g>
	<g>
		<path class="st45" d="M557.5,471.3l6,69.4c0,0,9.7-4,33.4,10.3c34.9,21,90.4,19.5,118.4,14.5c0,0,35.5-3,49.4,10l-3.6-79
			c0,0-53.7,0.3-68.1-28.3l-8.1,7.9c0,0-8.3-16.8-23.4-17.1c-12.2-0.2-22.2,9.3-23.7,17.8l-8-10.9
			C629.7,465.9,617.1,477,557.5,471.3z"/>
		<path class="st46" d="M555,429.8c0,0-2.2,24.6-16.6,27.5c-14.4,2.9,32.5,0,32.5,0S557.2,457.3,555,429.8z"/>
		<path class="st47" d="M557.5,471.3l6,69.4c0,0,9.7-4,33.4,10.3c34.9,21,90.4,19.5,118.4,14.5c0,0,34.6-2.1,49.4,10l-3.6-79
			c0,0-53.7,0.3-68.1-28.3l-8.1,7.9c0,0-8.3-16.8-23.4-17.1c-12.2-0.2-22.2,9.3-23.7,17.8l-8-10.9
			C629.7,465.9,617.1,477,557.5,471.3z"/>
		<path class="st46" d="M764,452.4c0,0-2.2,24.6-16.6,27.5s32.5,0,32.5,0S766.1,479.9,764,452.4z"/>
		<path class="st46" d="M562.3,642.2H550c-4.8,0-8.7-3.9-8.7-8.7l1.4-167.6c0-4.8,3.9-8.7,8.7-8.7h9.4c4.8,0,8.7,3.9,8.7,8.7
			l1.4,167.6C570.9,638.3,567,642.2,562.3,642.2z"/>
		<path class="st46" d="M770.5,664.8h-12.3c-4.8,0-8.7-3.9-8.7-8.7l1.4-167.6c0-4.8,3.9-8.7,8.7-8.7h9.4c4.8,0,8.7,3.9,8.7,8.7
			l1.4,167.6C779.1,660.9,775.2,664.8,770.5,664.8z"/>
		<path class="st46" d="M572.5,463.8h-34.2c-1.9,0-3.5-1.6-3.5-3.5v-3.2c0-1.9,1.6-3.5,3.5-3.5h34.2c1.9,0,3.5,1.6,3.5,3.5v3.2
			C576,462.2,574.4,463.8,572.5,463.8z"/>
		<path class="st46" d="M780.7,486.4h-34.2c-1.9,0-3.5-1.6-3.5-3.5v-3.2c0-1.9,1.6-3.5,3.5-3.5h34.2c1.9,0,3.5,1.6,3.5,3.5v3.2
			C784.2,484.8,782.6,486.4,780.7,486.4z"/>
		<path class="st48" d="M558.3,442.8h-6.5c-2.2,0-4-1.8-4-4v-3.6c0-2.2,1.8-4,4-4h6.5c2.2,0,4,1.8,4,4v3.6
			C562.3,441.1,560.5,442.8,558.3,442.8z"/>
		<path class="st48" d="M767.2,465.4h-6.5c-2.2,0-4-1.8-4-4v-3.6c0-2.2,1.8-4,4-4h6.5c2.2,0,4,1.8,4,4v3.6
			C771.2,463.7,769.4,465.4,767.2,465.4z"/>
		<g>
			<path class="st41" d="M591.8,501.3c2.3,0.2,4.1,0.5,5.4,0.8c1.3,0.3,2.4,0.7,3.4,1.3c1,0.5,1.9,1.3,2.7,2.3
				c0.8,1,1.4,1.8,1.6,2.4c0.4,1.2,0.6,2.5,0.4,3.8c-0.2,1.9-0.9,3.7-2.1,5.3c-1.2,1.6-2.7,2.8-4.4,3.5c-1.5,0.6-2.9,0.9-4.3,1.1
				c-1.4,0.2-3.1,0.1-5,0c-2-0.2-3.3-0.4-3.9-0.7c-0.5-0.1-0.8-0.3-1-0.4c-0.2-0.1-0.3-0.3-0.3-0.6c-0.1-0.3-0.1-0.8,0-1.7l0.3-2.1
				c0.1-0.7,0.2-1.6,0.3-2.7l1.4-11.4c0.1-0.5,0.2-0.8,0.3-1c0.1-0.1,0.4-0.2,0.8-0.2C588,500.9,589.5,501,591.8,501.3z
				 M593.7,507.5c-0.2,0-0.4,0-0.5,0.1c-0.1,0.1-0.1,0.3-0.2,0.7c-0.2,1-0.4,2.4-0.6,4.2c-0.2,2-0.2,3-0.2,3.1
				c0,0.1,0.2,0.1,0.4,0.1c0.8,0.1,1.7,0,2.6-0.4c0.9-0.3,1.6-0.8,2.2-1.5c0.6-0.7,0.9-1.4,1-2.2c0-0.4,0-0.8-0.1-1.1
				c-0.3-1.1-1.3-2-3.1-2.7C594.4,507.6,593.9,507.5,593.7,507.5z"/>
			<path class="st41" d="M617.4,503.8c2.5,0.2,4.7,1,6.7,2.2c1.9,1.2,3.2,2.8,3.9,4.6c0.5,1.4,0.6,3,0.4,5c-0.1,1.2-0.4,2.3-0.9,3.3
				s-1.3,1.9-2.5,2.9c-1.2,1-2.6,1.7-4,2.1s-2.8,0.6-4.2,0.4c-0.2,0-0.3,0-0.4-0.1l-0.5,0c-2-0.3-3.7-1-5.2-2.1
				c-1.5-1.1-2.6-2.4-3.4-4c-0.8-1.6-1.1-3.3-1-5.2l0.1-0.6c0.4-3.8,2.5-6.5,6.3-7.9c0.9-0.3,1.7-0.5,2.4-0.6
				C615.8,503.8,616.6,503.8,617.4,503.8z M617.4,509.8c-0.1,0-0.4,0-0.7,0c-1.3,0.3-2.4,1.1-3.1,2.3c-0.3,0.4-0.4,0.8-0.5,1.2
				c0,0.3,0,0.5,0,0.7c0,0.8,0.1,1.4,0.3,1.8c0.7,1.5,1.9,2.4,3.5,2.6l0.3,0c0.7,0.1,1.4-0.1,2-0.4c0.6-0.4,1.1-0.8,1.5-1.3
				c0.4-0.5,0.6-1,0.6-1.5c0-0.3,0-0.5,0-0.6c0-2-0.6-3.4-2-4.2C618.9,510,618.3,509.8,617.4,509.8z"/>
			<path class="st41" d="M641.6,505c3.4,0.3,5.8,1.2,7.2,2.7c0.2,0.2,0.3,0.4,0.4,0.5c0,0.1,0,0.3,0,0.5c-0.1,0.3-0.4,0.9-1,1.9
				c-0.6,1-1,1.6-1.3,1.8l-0.4,0.2c-0.1,0-0.3-0.1-0.7-0.3c-1.5-0.8-2.8-1.3-3.9-1.4c-0.9-0.1-1.8,0.1-2.7,0.5c-0.9,0.4-1.6,1-2,1.9
				c-0.3,0.6-0.5,1.1-0.6,1.5c0,0.4-0.1,0.7,0,0.8c0,1,0.1,1.7,0.3,2.2c0.7,1.5,2.2,2.3,4.3,2.5c0.8,0.1,1.7,0,2.7-0.2
				c0.3,0,0.5-0.2,0.5-0.6c0-0.3,0-0.5-0.1-0.6c-0.1-0.1-0.6-0.2-1.5-0.4c-0.9-0.1-1.5-0.3-1.8-0.6s-0.4-0.7-0.3-1.4
				c0-0.4,0.1-0.7,0.1-0.9c0.2-1,0.5-1.5,0.9-1.7c0.3-0.1,1.7,0,4.2,0.3c2.4,0.2,3.8,0.4,4.1,0.6c0.1,0,0.3,0.2,0.5,0.5
				c0.1,0.2,0.1,1.2,0,3.2c0,2-0.1,3.5-0.2,4.3c0,0.3-0.1,0.5-0.1,0.5c-0.1,0.5-0.7,0.9-1.6,1.3c-0.9,0.4-2.1,0.8-3.4,1
				c-1.3,0.3-2.6,0.3-3.9,0.3l-0.8-0.1c-2.3-0.2-4.3-0.9-6.1-2c-1.8-1.1-3.1-2.6-4.1-4.5c-0.5-0.8-0.7-1.6-0.9-2.2
				c-0.1-0.6-0.1-1.4,0-2.4c0.3-3.1,1.4-5.4,3.3-7.1c1.9-1.7,4.2-2.6,7.1-2.8C640.3,504.9,640.8,505,641.6,505z"/>
			<path class="st41" d="M662.3,508.2l2.3,0.2c2.9,0.3,5.2,0.6,6.8,1c1.6,0.4,2.9,0.9,3.9,1.6c1,0.7,1.7,1.6,2.1,2.8
				c0.2,0.6,0.3,1,0.3,1.3c0,0.2,0,0.8-0.1,1.6c-0.1,1.1-0.3,2-0.5,2.5c-1.2,2.7-3.3,4.3-6.2,4.8c-0.7,0.2-1.7,0.2-2.8,0.1l-1.6-0.2
				l-0.1,0.5c0,0-0.1,0.3-0.2,0.8l-0.2,1.1c-0.2,0.9-0.4,1.5-0.6,1.8c-0.2,0.2-0.5,0.3-0.8,0.3l-1.3-0.2c-2.5-0.4-3.9-0.7-4.2-1.1
				c-0.1-0.2-0.2-0.5-0.1-0.9c0.1-0.8,0.2-2,0.5-3.4c0.4-2.4,0.8-5.1,1.1-7.9c0.2-2.4,0.4-3.9,0.6-4.6c0.2-0.8,0.4-1.3,0.7-1.6
				L662.3,508.2z M668.1,514.4c-0.3,0-0.5,0-0.6,0.1c-0.1,0.1-0.3,0.8-0.4,2c-0.1,0.8-0.1,1.4-0.1,1.7c0,0.2,0.2,0.4,0.4,0.4l0.5,0
				c0.6,0,1.2-0.3,1.6-0.6c0.5-0.4,0.7-0.9,0.8-1.4c0-0.4,0-0.7,0-0.9c-0.1-0.2-0.2-0.4-0.5-0.6
				C669.4,514.7,668.8,514.5,668.1,514.4z"/>
			<path class="st41" d="M684.5,510.3c1,0.1,2,0.2,3,0.4c1,0.2,1.7,0.3,2,0.5c0.2,0.1,0.5,0.5,0.7,1.2c0.2,0.7,0.6,2.2,1.2,4.3
				c0.8,2.7,1.4,4.9,2,6.6c1.3,4.1,1.9,6.5,1.8,7.1c0,0.3-0.2,0.5-0.5,0.6c-0.6,0.3-1.8,0.4-3.6,0.2c-0.1,0-0.2,0-0.3-0.1l-0.3,0
				c-0.5-0.1-0.9-0.3-1.1-0.6c-0.2-0.3-0.4-0.8-0.5-1.5l-0.2-1l-0.9-0.2c-0.9-0.2-2.2-0.4-3.9-0.5c-0.8-0.1-1.4-0.1-1.5-0.1l-1.2,0
				l-0.5,1c-0.3,0.6-0.5,1-0.7,1.2c-0.2,0.2-0.5,0.3-0.9,0.3c-0.5,0-1.2,0-2.2-0.1s-1.6-0.2-2-0.4c-0.4-0.1-0.5-0.4-0.5-0.8
				c0.1-0.5,0.5-1.8,1.5-3.8c1.2-2.5,2.3-5,3.3-7.2c1.9-4.4,3.3-6.8,4.2-7.1C683.5,510.2,683.9,510.2,684.5,510.3z M685.8,517.2
				c-0.1,0-0.4,0.6-1.1,1.9c-0.7,1.3-1,2.1-1,2.3c0,0.2,0.6,0.4,2,0.5c0.5,0,0.8,0.1,1,0c0.2,0,0.4-0.1,0.4-0.4
				c0-0.4-0.2-1.4-0.7-3.1C686,517.7,685.8,517.2,685.8,517.2z"/>
			<path class="st41" d="M703.6,512.6c2.7,0.3,4.6,0.5,5.8,0.7c1.2,0.2,2.1,0.6,2.8,1.1c0.7,0.5,1.3,1.2,1.9,2.3
				c0.9,1.4,1.2,2.8,1.1,4.1c0,0.4-0.1,0.8-0.2,1.2c-0.4,1.6-1.3,2.8-2.7,3.7l-0.5,0.4l0.8,2.6c0.6,2,0.9,3.2,0.8,3.5
				c0,0,0,0.1-0.1,0.3c-0.1,0.1-0.8,0.2-2.2,0.2c-1.4,0.1-2.4,0.1-3.1,0c-0.6-0.1-1-0.2-1.2-0.4c-0.2-0.2-0.4-0.8-0.7-1.6
				c-0.5-1.8-0.9-2.8-1.1-2.8l-0.6-0.1c-0.2,0-0.4,0-0.4,0.1c-0.1,0.1-0.2,0.8-0.5,2.1c-0.2,0.7-0.3,1.3-0.4,1.7
				c-0.1,0.2-0.3,0.4-0.5,0.6c-0.3,0.2-0.8,0.2-1.6,0.2l-1.7-0.2l-1.2-0.2c-0.7-0.1-1.1-0.1-1.3-0.2c-0.3-0.1-0.5-0.2-0.6-0.4
				c-0.2-0.2-0.2-0.7-0.1-1.5c0.1-0.8,0.2-1.6,0.4-2.4c0.4-1.8,0.9-5.5,1.7-11.2c0.3-2.2,0.5-3.4,0.7-3.5c0.2-0.1,0.7-0.2,1.5-0.2
				C701.1,512.4,702.1,512.4,703.6,512.6z M705.6,518.6c-0.4-0.1-0.6-0.1-0.7-0.1c-0.1,0-0.2,0.1-0.3,0.3c-0.1,0.2-0.2,0.7-0.3,1.5
				c-0.1,1-0.1,1.6,0,1.7c0.1,0.1,0.3,0.1,0.7,0.2c0.5,0,0.8,0,1.1,0c0.3-0.1,0.6-0.3,0.9-0.5c0.4-0.3,0.6-0.5,0.6-0.7
				c0,0,0-0.1,0.1-0.2c0.1-0.7-0.2-1.2-0.9-1.6C706.6,518.8,706.1,518.7,705.6,518.6z"/>
			<path class="st41" d="M717.5,513.3c0.4-0.1,1.3,0,2.9,0.1c1.4,0.1,2.3,0.3,2.7,0.4c0.4,0.2,0.6,0.4,0.6,0.7l-0.1,0.5l-0.1,1.2
				c-0.1,0.3-0.1,0.8-0.2,1.4c-0.2,1.7-0.2,2.6-0.1,2.6c0.2,0,1.3-1,3.2-3c0.5-0.5,1-1,1.8-1.6l0.8-0.7l1.5,0.2
				c1.1,0.1,2.1,0.3,3,0.5c1,0.1,1.5,0.3,1.7,0.4c0.1,0.1,0.2,0.2,0.2,0.4c0,0.3-0.5,0.9-1.5,1.8c-3.1,2.9-4.6,4.5-4.6,4.7
				c0,0.1-0.1,0.2-0.3,0.4c-0.2,0.2-0.4,0.3-0.4,0.5c0,0.4,1.8,3.5,5.5,9.5c0.5,0.9,0.8,1.4,0.7,1.7c0,0.2-0.1,0.3-0.2,0.3
				c-0.1,0.1-1.5,0-4.2-0.2l-1.3-0.1l-1.1-0.1c-0.7-0.1-1.1-0.1-1.4-0.2c-0.3-0.1-0.5-0.2-0.7-0.5c-0.2-0.2-0.4-0.6-0.6-1.2
				c-0.1-0.2-0.2-0.3-0.2-0.4c-0.4-0.8-0.9-1.9-1.5-3.2c-0.6-1.1-0.9-1.7-1-1.7c-0.6-0.1-1.1,1.5-1.4,4.6l0,0.4
				c-0.1,0.5-0.2,0.9-0.3,1c-0.2,0.2-0.5,0.2-1.1,0.1c-0.5,0-1.3-0.2-2.3-0.3c-1.1-0.2-1.7-0.3-2-0.3c-0.3-0.1-0.5-0.2-0.7-0.4
				l-0.4-0.4l0.3-2.1c0.2-1.1,0.5-4.3,1-9.4c0.5-4.8,0.8-7.3,0.9-7.4C716.8,513.5,717.1,513.4,717.5,513.3z"/>
		</g>
	</g>
</g>
<g>
	<path class="st49" d="M413.2,1222.3c6.2-21.9,27.6-29,52.9-29h346.1c25.4,0,46.8,7.3,52.9,29.3l0.1,3.5l2.5,107.1
		c3.5,2.4,13.5,6.9,14.4,6.9c0,0,25.8,13.9,25.4,45.9v12.5v33.9c0.3,11.6-19.1,39.6-36.7,43.5h-412c-26.7-3.3-47.5-24.8-47.5-50.7
		v-26.7v-163.2C411.4,1230.9,412,1226.5,413.2,1222.3z"/>
	<path class="st50" d="M413.2,1422.5v-26.7l492.5,0.9v33.9c0.3,11.6-17.2,38.7-34.8,42.6H459.7
		C431.4,1470.9,413.2,1448.4,413.2,1422.5z"/>
	
		<rect x="413.2" y="1379" transform="matrix(-1 -4.489354e-11 4.489354e-11 -1 1318.9048 2775.2791)" class="st51" width="492.5" height="17.3"/>
	<path class="st52" d="M694.2,1449.9h72.5c8.1,0,14.7-6.6,14.7-14.7v-180c0-8.1-6.6-14.7-14.7-14.7h-72.5c-8.1,0-14.7,6.6-14.7,14.7
		v180C679.5,1443.3,686.2,1449.9,694.2,1449.9z"/>
	<path class="st53" d="M821.1,1237h3.8H866c0.8,3.3,1.2,6.8,1.2,10.4v32.2v53.1c0.2,0.2,0.4,0.3,0.6,0.5h-27.3h-19.3
		c-3.9,0-7.1-3.6-7.1-8.1v-51.6v-28.4C814,1240.6,817.2,1237,821.1,1237z"/>
	<path class="st54" d="M821.6,1238.7h3.6l39.8,38.8v53.7c0.2,0.2,0.9,0,0.9,0l-50.3-58.7v-26.2
		C815.7,1242,817.9,1238.7,821.6,1238.7z"/>
	<g>
		<circle class="st55" cx="831.1" cy="1464.6" r="48.2"/>
		<circle class="st54" cx="831.1" cy="1464.6" r="40.4"/>
		<circle class="st56" cx="831.1" cy="1464.6" r="37.2"/>
		<circle class="st57" cx="831.1" cy="1464.6" r="28.7"/>
	</g>
	<g>
		<circle class="st55" cx="494.2" cy="1464.6" r="48.2"/>
		<circle class="st54" cx="494.2" cy="1464.6" r="40.4"/>
		<circle class="st56" cx="494.2" cy="1464.6" r="37.2"/>
		<circle class="st57" cx="494.2" cy="1464.6" r="28.7"/>
	</g>
	<g>
		<path class="st58" d="M432.3,1255.2v89.6c0,9,6.4,16.4,14.1,16.4h206.1c7.8,0,14.1-7.4,14.1-16.4v-89.6c0-1-0.1-1.9-0.2-2.9
			c-1.2-7.7-7-13.5-13.9-13.5H446.5c-6.3,0-11.7,4.8-13.5,11.5C432.6,1251.8,432.3,1253.5,432.3,1255.2z"/>
		<g>
			<path class="st59" d="M628.3,1239.2h22.4c8.1,0,14.9,6.9,16.3,15.8c-2.3,10.5-10,18.2-19.2,18.2c-9.7,0-17.7-8.6-19.5-19.9
				c0,0,0-0.1,0-0.1C628.2,1253,628.3,1239.6,628.3,1239.2z"/>
			<path class="st60" d="M470.9,1239.2h-22.4c-8.1,0-14.9,6.9-16.3,15.8c2.3,10.5,10,18.2,19.2,18.2c9.7,0,17.7-8.6,19.5-19.9
				c0,0,0-0.1,0-0.1C471,1253,470.9,1239.6,470.9,1239.2z"/>
			<path class="st60" d="M605.5,1239.1h3h0h3h16.7c0,0,0,0,0,0c0,0.4-0.1,13.8-0.1,14c0,0,0,0.1,0,0.1c-1.6,9.7-7.6,17.3-15.4,19.4
				c0,0,0,0,0,0c-0.3,0.1-0.5,0.1-0.8,0.2c0,0-0.1,0-0.1,0c-0.2,0.1-0.5,0.1-0.7,0.1c0,0-0.1,0-0.1,0c-0.2,0-0.5,0.1-0.7,0.1
				c-0.1,0-0.2,0-0.2,0c-0.2,0-0.4,0-0.6,0c-0.2,0-0.4,0-0.6,0c-0.1,0-0.2,0-0.3,0c0,0,0,0,0,0l0,0c0,0,0,0-0.1,0c0,0,0,0-0.1,0
				c0,0,0,0,0,0l0,0c-0.1,0-0.2,0-0.3,0c-0.2,0-0.4,0-0.6,0c-0.2,0-0.4,0-0.6,0c-0.1,0-0.2,0-0.2,0c-0.2,0-0.5-0.1-0.7-0.1
				c0,0-0.1,0-0.1,0c-0.2,0-0.5-0.1-0.7-0.1c0,0-0.1,0-0.1,0c-0.3-0.1-0.5-0.1-0.8-0.2c0,0,0,0,0,0c-7.8-2.1-13.9-9.7-15.4-19.5
				c0-0.2-0.1-14-0.1-14H605.5z"/>
			<path class="st59" d="M566.2,1239.1h3h0h3H589c0,0,0,0,0,0c0,0.4-0.1,13.8-0.1,14c0,0,0,0.1,0,0.1c-1.6,9.7-7.6,17.3-15.4,19.4
				c0,0,0,0,0,0c-0.3,0.1-0.5,0.1-0.8,0.2c0,0-0.1,0-0.1,0c-0.2,0.1-0.5,0.1-0.7,0.1c0,0-0.1,0-0.1,0c-0.2,0-0.5,0.1-0.7,0.1
				c-0.1,0-0.2,0-0.2,0c-0.2,0-0.4,0-0.6,0c-0.2,0-0.4,0-0.6,0c-0.1,0-0.2,0-0.3,0l0,0l0,0c0,0,0,0-0.1,0c0,0,0,0-0.1,0l0,0
				c0,0,0,0,0,0c-0.1,0-0.2,0-0.3,0c-0.2,0-0.4,0-0.6,0c-0.2,0-0.4,0-0.6,0c-0.1,0-0.2,0-0.2,0c-0.2,0-0.5-0.1-0.7-0.1
				c0,0-0.1,0-0.1,0c-0.2,0-0.5-0.1-0.7-0.1c0,0-0.1,0-0.1,0c-0.3-0.1-0.5-0.1-0.8-0.2c0,0,0,0,0,0c-7.8-2.1-13.9-9.7-15.4-19.5
				c0-0.2-0.1-14-0.1-14H566.2z"/>
			<path class="st60" d="M526.9,1239.1h3h0h3h16.7c0,0,0,0,0,0c0,0.4-0.1,13.8-0.1,14c0,0,0,0.1,0,0.1c-1.6,9.7-7.6,17.3-15.4,19.4
				c0,0,0,0,0,0c-0.3,0.1-0.5,0.1-0.8,0.2c0,0-0.1,0-0.1,0c-0.2,0.1-0.5,0.1-0.7,0.1c0,0-0.1,0-0.1,0c-0.2,0-0.5,0.1-0.7,0.1
				c-0.1,0-0.2,0-0.2,0c-0.2,0-0.4,0-0.6,0c-0.2,0-0.4,0-0.6,0c-0.1,0-0.2,0-0.3,0l0,0c0,0,0,0,0,0c0,0,0,0-0.1,0c0,0,0,0-0.1,0l0,0
				c0,0,0,0,0,0c-0.1,0-0.2,0-0.3,0c-0.2,0-0.4,0-0.6,0c-0.2,0-0.4,0-0.6,0c-0.1,0-0.2,0-0.2,0c-0.2,0-0.5-0.1-0.7-0.1
				c0,0-0.1,0-0.1,0c-0.2,0-0.5-0.1-0.7-0.1c0,0-0.1,0-0.1,0c-0.3-0.1-0.5-0.1-0.8-0.2c0,0,0,0,0,0c-7.8-2.1-13.9-9.7-15.4-19.5
				c0-0.2-0.1-14-0.1-14H526.9z"/>
			<path class="st59" d="M487.6,1239.1h3h0h3h16.7c0,0,0,0,0,0c0,0.4-0.1,13.8-0.1,14c0,0,0,0.1,0,0.1c-1.6,9.7-7.6,17.3-15.4,19.4
				c0,0,0,0,0,0c-0.3,0.1-0.5,0.1-0.8,0.2c0,0-0.1,0-0.1,0c-0.2,0.1-0.5,0.1-0.7,0.1c0,0-0.1,0-0.1,0c-0.2,0-0.5,0.1-0.7,0.1
				c-0.1,0-0.2,0-0.2,0c-0.2,0-0.4,0-0.6,0c-0.2,0-0.4,0-0.6,0c-0.1,0-0.2,0-0.3,0c0,0,0,0,0,0l0,0c0,0,0,0-0.1,0c0,0,0,0-0.1,0
				c0,0,0,0,0,0l0,0c-0.1,0-0.2,0-0.3,0c-0.2,0-0.4,0-0.6,0c-0.2,0-0.4,0-0.6,0c-0.1,0-0.2,0-0.2,0c-0.2,0-0.5-0.1-0.7-0.1
				c0,0-0.1,0-0.1,0c-0.2,0-0.5-0.1-0.7-0.1c0,0-0.1,0-0.1,0c-0.3-0.1-0.5-0.1-0.8-0.2c0,0,0,0,0,0c-7.8-2.1-13.9-9.7-15.4-19.5
				c0-0.2-0.1-14-0.1-14H487.6z"/>
		</g>
	</g>
	<path class="st53" d="M706.5,1256.7h18.2h31.2c5.8,0,10.6,4.5,10.6,9.9v28.6v11.8c0,5.4-4.8,9.9-10.6,9.9h-12.5h-36.9
		c-5.8,0-10.6-4.5-10.6-9.9v-32.5v-8C695.9,1261.2,700.6,1256.7,706.5,1256.7z"/>
	<path class="st54" d="M698.1,1267.9c0-5.1,4.5-9.3,9.9-9.3h17.1l39.1,36.1v11.1c0,5.1-4.5,9.3-9.9,9.3h-11.7l-44.5-39.7V1267.9z"/>
	<path class="st51" d="M415,1223.2c6.2-21.9,27.5-29,52.6-29H812c25.2,0,44.8,7.3,50.9,29.3l0.1,3.5H415V1223.2z"/>
	<g>
		<path class="st61" d="M771.6,1139.4c3.1-28.5-20.4-56.6-4.1-84.1c4.4,4.4,8.7,8.7,13.1,13.1c-9.2,5.3-18.3,11.2-27.8,16
			c-5,2.5-10.8,3.6-15.9,0.6c-4.5-2.7-6.6-7.1-8.4-11.7c-8-19.8-15.7-39.9-23.6-59.8c4.7,1.9-20.3,19.8-38.1,11.2
			c-10.7-5.1-20.9-18-32.5-18c3.1-4,6.1-8.1,9.2-12.1c2.8,7.4,5.6,14.9,8.5,22.3c2.2,5.8-3.4,12.3-9.2,12.1
			c-11.9-0.4-23.9-0.8-35.8-1.3c-5.6-0.2-11.1-0.4-16.7-0.6c-1.4,0-3.4,0.7-1.3-1.1c1.8-1.4,0.4-1.4,0.8,0.4
			c0.3,1.3-0.3,3.3-0.6,4.5c-3.2,12.3-16.5,13-27.1,12.8c-11.3-0.2-27-7.8-23.9-8.6c0.7-0.9,0,0,0,0.6c-0.1-1-0.1,2-0.1,2.4
			c0,2.4,0.4,4.3,0.7,6.5c0.8,5.7,1.5,11.4,0,17c-2.9,11.3-13,16.2-23.3,19.1c-4.1,1.1-7.9,1.8-11,3.9c-2.5,1.7-3.8,4.6-4.2,7.5
			c-1.2,9.3,2.8,19.3,6.8,27.6c2.2,4.6,1.3,10.3-3.4,13.1c-4.2,2.4-10.8,1.2-13.1-3.4c-5.3-11.1-10.2-23.6-9.5-36.1
			c0.7-13.1,7.7-23.2,19.9-28.1c4.6-1.8,9.4-2.8,14.1-4.3c3.2-1,5-1.8,5.5-5.5c0.6-4.3-1.2-10.5-1.5-15.6c-0.5-7,1.3-12.8,5.6-18.3
			c1.9-2.4,6.4-3.5,9.3-2.5c9.6,3.5,19.5,5.5,29.8,5.5c2.3,0,6-1,8.2-0.4c1,0.2,2.2-1.8-0.1,1c-1.9,2.3-0.9,1.3-1.1-0.2
			c-0.7-5.3,2.9-11.5,7.3-14.2c8.3-5.2,20.5-2.6,29.8-2.3c11.6,0.4,23.3,0.8,34.9,1.2c-3.1,4-6.1,8.1-9.2,12.1
			c-2.8-7.4-5.6-14.9-8.5-22.3c-2.3-6,3.5-12.1,9.2-12.1c14.4-0.1,24.4,9.3,35.6,16.8c5.4,3.6,10.5,6,17.1,5.5
			c7.8-0.5,15.3-4.1,22.3-7.3c6-2.8,11.6-0.4,14,5.7c4.4,11.1,8.7,22.1,13.1,33.2c2.1,5.3,4.1,10.5,6.2,15.8
			c1.1,2.8,2.2,5.5,3.3,8.3c0.3,0.8,0.8,1.9,1,2.5c0.2,0.4,0.4,0.7,0.6,1.1c-1.4-1-1.4-1.1,0-0.4c-1.6-0.4-3.2-0.9-4.8-1.3
			c3.1,0.4-0.6,0.7,0.9-0.1c1.3-0.6,2.5-1.4,3.7-2.1c2.6-1.5,5.2-3,7.8-4.5c5.2-3,10.4-6,15.6-9c8.2-4.7,18,4.8,13.1,13.1
			c-6,10.2-2.6,22.3,0.3,33.3c3.6,13.4,7.9,27.2,6.4,41.2c-0.6,5.1-4,9.6-9.6,9.6C776.4,1149,771,1144.6,771.6,1139.4L771.6,1139.4z
			"/>
		<path class="st58" d="M813.1,1124.9c-5.5,7.3-11.7,13.4-19.3,18.6c-4.7,3.2-12.3,1-14.9-3.9c-2.9-5.5-1.1-11.5,3.9-14.9
			c0.7-0.5,1.4-1,2.1-1.4c1.4-0.9-1.1,1,0.2-0.1c1.3-1.1,2.6-2.2,3.8-3.4c1.1-1.1,2.2-2.2,3.2-3.3c0.5-0.5,0.9-1,1.3-1.5
			c0.1-0.1,2.1-2.7,0.8-1c3.4-4.6,9.6-7.4,14.9-3.9C813.6,1112.9,816.7,1120,813.1,1124.9L813.1,1124.9z"/>
		<path class="st58" d="M780,1085.7c-1.1-0.7-2.2-1.4-3.3-2.1c-0.3-0.2-3.3-1.6-2.2-1.1c1.1,0.5-2-0.7-2.3-0.8
			c-1.2-0.4-2.5-0.6-3.7-0.9c-5.6-1.1-9.4-8.1-7.6-13.4c1.9-6,7.4-8.8,13.4-7.6c5.9,1.2,11.7,3.6,16.7,7c4.7,3.2,7.3,9.8,3.9,14.9
			C791.9,1086.5,785.1,1089.1,780,1085.7L780,1085.7z"/>
		<path class="st58" d="M726,1039.5c1.9-4.7,1.8-6.2-0.1-10.7c-2.2-5.3,2.4-12.2,7.6-13.4c6.4-1.4,11.1,2,13.4,7.6
			c2.8,6.9,2.9,15.4,0.1,22.4c-2.1,5.3-7.4,9.6-13.4,7.6C728.5,1051.3,723.7,1045.2,726,1039.5L726,1039.5z"/>
		<path class="st58" d="M700.1,1027.3c-0.6-0.3-2.7-1.1-0.9-0.5c-1-0.4-2.1-0.7-3.2-1c-0.3-0.1-3.2-0.7-1.8-0.5
			c0.8,0.1,0.7,0.1-0.4,0c-0.6-0.1-1.3-0.1-1.9-0.1c-5.7-0.2-11.2-4.9-10.9-10.9c0.3-5.7,4.8-11.2,10.9-10.9
			c6.8,0.3,13.1,2,19.2,5.1c5.1,2.6,7,10.2,3.9,14.9C711.7,1028.6,705.6,1030.1,700.1,1027.3L700.1,1027.3z"/>
		<path class="st58" d="M670.2,1000c-5.1,1.7-10.2,3.4-15.2,5.1c-5.4,1.8-12.2-2.1-13.4-7.6c-1.4-6,1.8-11.5,7.6-13.4
			c5.1-1.7,10.2-3.4,15.2-5.1c5.4-1.8,12.2,2.1,13.4,7.6C679.2,992.6,676,998.1,670.2,1000L670.2,1000z"/>
		<path class="st58" d="M610.8,1018.9c-3.8-3.2-8.4-5.3-13.7-6.6c-5.7-1.4-9.2-7.9-7.6-13.4c1.6-5.9,7.7-9,13.4-7.6
			c8.8,2.1,16.4,6.4,23.3,12.2c4.5,3.8,3.9,11.5,0,15.4C621.8,1023.3,615.3,1022.7,610.8,1018.9L610.8,1018.9z"/>
		<path class="st58" d="M541.7,1042.3c-0.2-10,2-19.4,6.2-28.4c2.5-5.3,10.2-6.7,14.9-3.9c5.5,3.2,6.4,9.6,3.9,14.9
			c-2.6,5.5-3.4,11.4-3.3,17.4C563.9,1056.4,542,1056.4,541.7,1042.3L541.7,1042.3z"/>
		<path class="st58" d="M515.7,1094.7c-11.3,2-22.1,6.4-31.1,13.6c-4.6,3.7-11,4.5-15.4,0c-3.8-3.8-4.6-11.7,0-15.4
			c12-9.6,25.6-16.5,40.8-19.3c5.8-1,11.8,1.6,13.4,7.6C524.8,1086.6,521.5,1093.7,515.7,1094.7L515.7,1094.7z"/>
		<path class="st58" d="M468.4,1142.3c0.3,3.3-0.1,0-0.3-0.8c-0.1-0.4-0.4-1.9-0.7-2.1c0.6,1.4,0.7,1.7,0.4,0.9
			c-0.2-0.3-0.3-0.7-0.5-1c-0.3-0.6-2.3-3.2-0.3-0.8c-1.9-2.4-3.2-4.6-3.2-7.7c0-2.7,1.2-5.9,3.2-7.7c4-3.6,11.6-4.8,15.4,0
			c4.6,5.8,7.1,11.8,7.9,19.2c0.6,5.7-5.5,11.2-10.9,10.9C472.9,1153,469,1148.4,468.4,1142.3L468.4,1142.3z"/>
		<path class="st62" d="M782.2,1156.7c-5.6-9-5.8-19.5-4.7-29.7c0.4-4.1,1-8.2,0.8-12.4c0-1-0.1-2-0.2-3c0.1,0.7,0.5,1.8-0.1-0.3
			c-0.2-0.7-0.4-1.5-0.6-2.3c-0.5-1.4-0.5-1.5,0-0.2c-0.2-0.3-0.3-0.7-0.5-1c-0.2-0.3-0.4-0.6-0.6-0.9c0.8,0.9,0.9,1,0.3,0.4
			c-0.8-1.4-1.8-0.5-0.3-0.4c0,0-2.3-0.6-0.2-0.1c1.8,0.4-0.8-0.1-1.3-0.1c-4.8-0.2-9.6,0-14.2-1.7c-11.1-4-15.1-14.8-15-25.8
			c0-2.1,0.2-4.2,0.2-6.3c0-0.8,0-1.7,0-2.5c0-3.9,0.1,1.3-0.1-1c0-0.6-1.1-2.9,0-0.8c-0.3-0.6-0.7-1.2-1-1.8c1.2,2,0.5,0.4,0,0.1
			c-2.5-1.2,1.6,0.6-0.7-0.6c-0.8-0.4-1.5-0.9-2.3-1.2c-1.7-0.8,2.6,0.6-0.5-0.1c-1.6-0.4-3.2-0.9-4.9-1.2c-0.6-0.1-3.1-0.3-0.7-0.1
			c-0.8-0.1-1.5-0.1-2.3-0.2c-1.9-0.1-3.8-0.2-5.8-0.2c-15.9,0-34.9-1.8-43.9-17.2c-2.3-4-3.6-8.9-3.6-13.5c0-2,0.4-3.9,0.6-5.8
			c0,0.2,0.1-2.6,0.1-2.6c0.3,3.3,2.4,5.4,6.1,6.1c-0.4,0-0.9,0-1.3,0c-5.2,1.2-11.4,0.5-16.7,0.8c-5.7,0.3-11.5,0.6-17.2,0.9
			c-23,1.1-45.9,2.3-68.9,3.4c-2.5,0.1-5.1,0.2-7.6,0.4c2.5-0.2-2,0.4-2.8,0.6c-0.9,0.2-1.8,0.5-2.7,0.8c0.5-0.2,1.9-1.1-0.1,0
			c-0.6,0.4-1.2,0.7-1.8,1.1c1.1-0.9,1.2-0.9,0.1,0c0.2-0.3,0.5-0.6,0.7-1c-0.2,0.3-0.3,0.6-0.5,0.8c0.5-1.3,0.6-1.5,0.3-0.6
			c-0.1,1.3-0.9-2.5,0.2,0.8c-0.4-1.2,0.3,0.9,0.3,1c0.4,1.7,0.6,3.6,0.8,5.3c0.6,6.7-2.1,13.4-7.8,17.1c-8.8,5.8-20.9,3.1-30.9,3.3
			c-4.8,0.1-8.9,0.4-13.4,2c-2.4,0.8,1.9-1.3-1.4,0.6c-0.8,0.4-1.5,0.9-2.3,1.3c-1.1,0.7-2.1,1.6-3.6,3.3c-2.2,2.5-3.2,4.6-3.1,7.9
			c-0.1-1.8,1.3,4.1,0.7,2.5c1,2.4,2.4,4.7,3.7,7c5.2,9.7,9.1,21,2,31c-3.4,4.8-8.1,7.3-13.2,9.8c-4,2-6,3.5-7.7,6.9
			c0.7-1.4-0.4,1-0.5,1.4c-0.2,0.9-0.2,0.9-0.1,0c-0.1,0.7-0.1,1.4,0,2.1c0,0.2,0,0.5,0,0.7c-0.1-1.4,0-1.3,0.3,0.1
			c-0.1-0.3-0.2-0.6-0.3-0.9c0.8,1.2,0.8,1.3,0.1,0.3c0,0.2,1.9,1.8,0,0.3c0.6,0.4,1.2,0.8,1.9,1.1c-0.3-0.1-0.6-0.3-1-0.4
			c0.3,0.1,0.7,0.2,1,0.3c-0.6-0.3-1.3-0.3-1.9-0.1c-1,0.2-0.9,0.2,0.3-0.1c-1.4,0.6-1.4,0.4-0.2-0.3c5.3-3.9,13.7-0.9,16.8,4.4
			c3.7,6.2,0.9,12.9-4.4,16.8c-9.3,6.9-22.5,3.3-29.9-4.6c-8.6-9.2-9.2-22.7-3.3-33.5c2.8-5.1,6.8-9.2,11.4-12.6
			c1.8-1.3,3.6-2.4,5.6-3.4c0.7-0.4,1.5-0.7,2.3-1c0.5-0.3,4-2.5,2.7-1.3c-0.5,0.5-0.4,1.7,0.2-0.4c-0.2,0.3-0.3,0.6-0.5,0.8
			c-0.2,1.5-0.2,1.5-0.2,0.1c-0.5,0,1.1,3-0.2,0c-1.5-3.5,0.6,1.1-0.3-1c-1.9-4.2-4.4-8-6.3-12.3c-4.9-11.1-4.5-23.1,2.4-33.4
			c6.5-9.7,16.6-16.4,28.1-18.6c5.9-1.1,11.8-1.5,17.8-1.5c2.7,0,5.4,0.1,8.2,0.2c1.1,0,2.2,0,3.3,0.1c1.1,0,2.2,0,3.2,0
			c1.5-0.1,1.6-0.1,0.3,0.1c-0.1,0.1-0.2,0.1-0.4,0.2c-2,1.1-3.2,3-3.6,5.6c0,0-0.3-2-0.3-2.2c-0.6-2.8-1.1-5.7-0.9-8.6
			c0.3-5.5,2.6-10.9,6.6-14.9c7.1-7,17.2-9.3,26.8-9.9c12.7-0.8,25.4-1.3,38.1-1.9c12.7-0.6,25.4-1.3,38.1-1.9
			c6-0.3,12.1-0.6,18.1-0.9c6-0.3,12.3-1.2,18.2-0.3c7.2,1.1,12.9,5.9,14.9,13.1c0.7,2.5,0.8,5.1,0.6,7.6c-0.1,1.3-0.4,2.6-0.5,4
			c0,0.4,0.1,4.1-0.3,1.2c0.1,0.7,1.3,3.4,0,0.9c0.3,0.6,0.6,1.1,1,1.7c-1.6-2.6,3,1.9,0.6,0.4c0.9,0.6,1.8,1.1,2.7,1.6
			c0.4,0.2,2.1,0.8,0.1,0.1c2.1,0.8,4.3,1.3,6.5,1.8c3.4,0.9-1.4-0.1,0.7,0.2c0.9,0.1,1.9,0.2,2.8,0.2c1.8,0.1,3.6,0,5.4,0
			c4.2-0.1,8.4,0,12.6,0.5c9.4,1.1,18.9,3.7,25.7,10.8c8.3,8.6,8.5,20.5,7.9,31.7c0,0.5,0.3,2.5-0.1,0.2c0.1,0.7,0.3,1.4,0.5,2.1
			c-0.1-0.5-0.3-1-0.7-1.3c-0.5-0.3-1.1-0.6-1.6-0.9c1.5,0.3,1.6,0.4,0.5,0.2c0.4,0,0.9,0,1.3,0.1c6.4-0.1,13,0.4,18.7,3.6
			c10.3,5.8,13.9,18.5,14.2,29.6c0.2,5.4-0.9,10.8-1.2,16.2c-0.4,5.8-0.5,9.2,1.8,12.9c3.5,5.6,1.2,13.5-4.4,16.8
			C793.1,1164.6,785.7,1162.4,782.2,1156.7L782.2,1156.7z"/>
		<path class="st63" d="M766.8,1191.9H508.2c-18.4,0-33.5-15.1-33.5-33.5v-2.3c9.4-81.3,78.5-144.5,162.3-144.5
			c86.4,0,157.1,67.1,163,152C797.4,1179.6,783.5,1191.9,766.8,1191.9z"/>
	</g>
	<g>
		<path class="st64" d="M487.8,1106.6c15,35.1,38.6,62.1,74.7,76.5c21.4,8.5,43.6,9.7,66.1,5.7c19.8-3.6,38.3-10.2,54.8-22
			c6.1-4.4,11.4-9.5,15.1-16.1c3.6-6.3,3.5-12.8,0-17.1c-3.9-4.8-10.4-6.4-17.4-4.2c-4.9,1.6-9.4,4.1-14.5,5.4
			c-18.1,4.7-35.7,2.7-53.1-3.1c-34.3-11.4-56.8-35.3-71.2-67.6c-4.2,1.2-8.5,2.2-12.6,3.5c-3.3,1.1-6.5,2.1-7.6,6.3
			c-2.9,10.7-5.3,12.5-16.2,12c-3.6-0.2-5.4,0.9-6.5,4.5C497.2,1097,494.1,1103,487.8,1106.6z"/>
		<path class="st65" d="M529.6,1067.7c4.1-1.4,8.4-2.4,12.6-3.5c6-3.9,6.6-7.2,1.3-12.1c-6.5-6-14.6-7.6-23.2-7.4
			c-6.3,0.2-12.3,1.6-17.8,4.8c-3.5,2.1-4.4,0.8-4.7-2.7c-0.6-6.9,1.6-13.1,4.6-19.2c1-1.9,3.1-4.1,1.6-6.3c-1.7-2.5-4.7-1.4-7.2-1
			c-9,1.5-13.7,7.5-13.2,16.7c0.3,6.3,1.8,12.3,4.3,18c1,2.3,0.8,3.6-1.1,5.5c-11.8,11.6-14.4,27.4-7.1,42.1c1.6,3.2,3.8,5.6,7.9,4
			c6.4-3.6,9.5-9.6,11.5-16.2c1.1-3.6,3-4.7,6.5-4.5c10.9,0.5,13.3-1.3,16.2-12C523.1,1069.8,526.3,1068.7,529.6,1067.7"/>
	</g>
</g>
</svg>
