<svg width="342" height="114" xmlns="http://www.w3.org/2000/svg">
 <style type="text/css">.st0{fill:#BCF7B7;stroke:#FFF8CC;stroke-width:5;stroke-miterlimit:10;}
	.st1{fill:#643527;stroke:#FFF8CC;stroke-width:5;stroke-miterlimit:10;}</style>

 <g>
  <title>background</title>
  <rect fill="none" id="canvas_background" height="116" width="344" y="-1" x="-1"/>
 </g>
 <g>
  <title>Layer 1</title>
  <g stroke="null" id="svg_44">
   <path stroke="null" id="svg_45" d="m295.744342,5.9l-247.488634,0c-24.265608,0 -43.955709,16.203848 -43.955709,36.173082l0,33.25385c0,19.969233 19.690101,36.173082 43.955709,36.173082l247.488634,0c24.265608,0 43.955709,-16.203848 43.955709,-36.173082l0,-33.25385c0,-19.969233 -19.690101,-36.173082 -43.955709,-36.173082z" class="st0"/>
   <g stroke="null" id="svg_46">
    <g stroke="null" id="svg_47">
     <path stroke="null" id="svg_48" d="m38.384952,42.961543l1.593716,0c1.645126,0.042308 2.82756,0.084615 3.598713,0.211538c0.771153,0.084615 1.336665,0.296154 1.799356,0.592308c0.462692,0.296154 1.028204,0.846154 1.696536,1.565385l8.636911,9.476924c0.205641,0.211538 0.308461,0.296154 0.411281,0.211538c0.10282,-0.084615 0.205641,-1.269231 0.411281,-3.596154c0.05141,-0.296154 0.05141,-0.719231 0.05141,-1.311539c0.205641,-2.496154 0.411281,-4.146154 0.616922,-5.034616c0.205641,-0.888462 0.565512,-1.480769 1.079614,-1.776923c0.565512,-0.296154 1.490895,-0.465385 2.87897,-0.465385l3.341662,0.042308c1.902177,0 3.136021,0.084615 3.701533,0.211538c0.616922,0.169231 0.976794,0.507692 1.079614,1.057692c0.205641,0.973077 0.308461,4.484616 0.359871,10.534617c0,1.184616 0,2.157693 0.05141,3.003847l0,2.665385c0,4.061539 -0.154231,6.811539 -0.411281,8.292309c-0.205641,0.973077 -0.411281,1.65 -0.719743,2.073077c-0.308461,0.380769 -0.719743,0.634615 -1.233844,0.761539c-0.514102,0.126923 -1.490895,0.253846 -2.930381,0.380769c-1.953587,0.169231 -3.547303,0.296154 -4.729737,0.296154c-0.925383,0 -1.490895,-0.042308 -1.747946,-0.126923c-0.257051,-0.084615 -0.565512,-0.296154 -0.925383,-0.634615c-0.616922,-0.507692 -1.645126,-1.65 -2.930381,-3.342308c-4.575507,-5.626924 -6.991785,-8.46154 -7.197426,-8.503847c-0.10282,0 -0.205641,0.888462 -0.257051,2.665385c-0.205641,5.415385 -0.565512,8.292309 -0.976794,8.63077c-0.462692,0.380769 -1.799356,0.55 -3.958584,0.55c-0.308461,0 -0.616922,0 -0.873973,-0.042308l-1.028204,0c-0.462692,-0.042308 -1.336665,-0.084615 -2.67333,-0.126923c-1.336665,-0.042308 -2.056407,-0.253846 -2.210638,-0.55c-0.154231,-0.338462 -0.308461,-0.930769 -0.359871,-1.903846c-0.154231,-1.311539 -0.205641,-5.288462 -0.205641,-11.888463c0,-6.261539 0.05141,-10.196155 0.154231,-11.803848c0.05141,-1.142308 0.411281,-1.819231 1.079614,-2.030769c0.462692,-0.042308 1.439485,-0.084615 2.82756,-0.084615z" class="st1"/>
     <path stroke="null" id="svg_49" d="m88.407063,44.950005l0.873973,0c1.850767,0.084615 3.341662,0.338462 4.472686,0.803846c1.079614,0.465385 2.467689,1.353846 4.061405,2.665385c2.467689,2.030769 4.061405,4.23077 4.729737,6.557693c0.205641,0.930769 0.359871,1.734616 0.359871,2.369231c0,2.284616 -0.462692,3.596154 -1.388075,3.892308l-11.361651,0c-3.598713,0 -5.398069,0 -5.398069,0.042308c0,0.465385 0.514102,0.930769 1.593716,1.438462c1.028204,0.507692 2.262048,0.888462 3.701533,1.142308c0.771153,0.126923 1.490895,0.169231 2.107818,0.169231c1.028204,0 2.467689,-0.211538 4.164225,-0.676923c1.336665,-0.296154 2.159228,-0.465385 2.519099,-0.465385c0.462692,0 0.822563,0.126923 1.079614,0.338462c0.308461,0.380769 0.822563,1.057692 1.439485,2.073077c0.616922,1.015385 0.976794,1.734616 0.976794,2.157693c0,0.846154 -0.822563,1.65 -2.519099,2.411539c-1.645126,0.846154 -3.393072,1.396154 -5.192429,1.734616c-1.799356,0.338462 -3.958584,0.507692 -6.426273,0.507692c-3.033201,0 -5.346659,-0.211538 -6.991785,-0.676923s-3.393072,-1.438462 -5.295249,-2.919231c-1.850767,-1.523077 -3.136021,-2.961539 -3.855764,-4.400001c-0.668332,-1.438462 -1.028204,-3.088462 -1.028204,-5.034616c0,-2.115385 0.359871,-4.019231 1.131024,-5.753847c0.771153,-1.734616 2.159228,-3.342308 4.267045,-4.78077c2.210638,-1.565385 4.986788,-2.707693 8.37986,-3.342308c1.182434,-0.169231 2.364869,-0.253846 3.598713,-0.253846zm-0.205641,7.657693c-1.028204,0 -1.902177,0.253846 -2.621919,0.719231c-0.771153,0.507692 -1.131024,1.1 -1.182434,1.861539l-0.05141,0.676923l3.341662,0.169231l2.82756,0.126923l0.359871,0c0.205641,0 0.308461,0 0.359871,-0.042308l0.154231,0l0.154231,0c0.205641,-0.042308 0.257051,-0.253846 0.257051,-0.676923c0,-0.507692 -0.154231,-0.973077 -0.411281,-1.396154c-0.668332,-0.973077 -1.696536,-1.438462 -3.187432,-1.438462z" class="st1"/>
     <path stroke="null" id="svg_50" d="m130.820466,46.938467c0.514102,0 1.388075,0.211538 2.67333,0.634615c1.285255,0.423077 2.416279,0.930769 3.444482,1.523077c1.028204,0.592308 1.542306,1.1 1.542306,1.607693c0,0.761539 -1.645126,2.665385 -4.883968,5.753847l-3.907174,3.68077l1.079614,1.015385c2.416279,2.2 4.575507,4.526924 6.529094,6.938462c0.771153,0.973077 1.182434,1.819231 1.182434,2.496154c0,0.888462 -0.565512,1.353846 -1.645126,1.353846l-5.60371,0.126923l-1.645126,0c-1.439485,0 -2.416279,-0.042308 -2.930381,-0.084615c-0.565512,-0.042308 -0.976794,-0.211538 -1.336665,-0.423077c-0.359871,-0.211538 -0.822563,-0.676923 -1.388075,-1.311539c-0.668332,-0.719231 -1.336665,-1.523077 -1.902177,-2.411539c-0.462692,-0.846154 -0.771153,-1.226923 -0.873973,-1.226923c-0.154231,0 -0.719743,0.507692 -1.799356,1.523077c-1.953587,1.861539 -3.393072,3.046154 -4.267045,3.426924c-0.462692,0.211538 -1.131024,0.338462 -2.056407,0.338462c-0.771153,0 -1.953587,-0.126923 -3.547303,-0.423077c-1.593716,-0.296154 -2.981791,-0.634615 -4.164225,-1.057692c-1.233844,-0.423077 -1.799356,-0.846154 -1.799356,-1.269231c0,-0.338462 1.747946,-1.946154 5.192429,-4.865385c3.547303,-3.003847 5.346659,-4.696154 5.346659,-5.034616c0,-0.296154 -0.565512,-1.269231 -1.696536,-2.876923c-2.262048,-3.088462 -3.393072,-5.203847 -3.495893,-6.388462l0,-1.057692l1.285255,-0.338462c2.467689,-0.676923 5.141019,-1.015385 7.968579,-1.057692l1.799356,-0.042308l1.079614,1.015385c0.616922,0.507692 1.388075,1.353846 2.210638,2.496154c0.771153,1.015385 1.182434,1.523077 1.233844,1.523077l0.359871,-0.296154c0.05141,-0.042308 0.359871,-0.338462 0.873973,-0.973077l1.079614,-1.142308c1.388075,-1.396154 2.364869,-2.326923 2.930381,-2.834616c0.359871,-0.253846 0.719743,-0.338462 1.131024,-0.338462z" class="st1"/>
     <path stroke="null" id="svg_51" d="m149.482363,39.407697c0,0 1.233844,0 3.752944,0c2.570509,0 4.164225,0.042308 4.781147,0.126923c0.771153,0.169231 1.233844,0.296154 1.388075,0.423077c0.154231,0.126923 0.257051,0.423077 0.257051,0.888462l-0.154231,3.003847l-0.154231,1.819231l-0.05141,0.676923l3.290252,0.042308c0.616922,0 1.079614,0 1.388075,0.042308c1.131024,0 1.902177,0.084615 2.262048,0.211538c0.359871,0.169231 0.616922,0.55 0.668332,1.184616c0.10282,0.634615 0.154231,1.946154 0.154231,3.934616l0,0.973077c0,1.057692 -0.05141,1.776923 -0.154231,2.157693c-0.10282,0.380769 -0.359871,0.634615 -0.771153,0.719231c-0.411281,0.126923 -1.131024,0.169231 -2.210638,0.169231l-4.369866,0l-0.205641,1.184616c-0.10282,0.888462 -0.154231,1.480769 -0.154231,1.692308c0,3.892308 1.233844,5.88077 3.650123,5.88077c0.514102,0 1.182434,-0.211538 2.004997,-0.592308s1.336665,-0.676923 1.490895,-0.888462c0.154231,-0.169231 0.308461,-0.211538 0.462692,-0.211538c0.411281,0 0.925383,0.253846 1.593716,0.803846c0.719743,0.592308 1.439485,1.311539 2.107818,2.157693c0.668332,0.846154 0.976794,1.438462 0.976794,1.734616c0,0.465385 -0.616922,1.1 -1.902177,1.903846c-1.233844,0.846154 -2.72474,1.565385 -4.421276,2.2c-2.210638,0.846154 -4.575507,1.226923 -7.146016,1.226923c-1.593716,0 -2.981791,-0.211538 -4.164225,-0.676923s-2.416279,-1.226923 -3.752944,-2.369231c-1.542306,-1.269231 -2.67333,-2.665385 -3.341662,-4.103847c-0.668332,-1.480769 -1.028204,-3.68077 -1.028204,-6.642309l0,-1.311539l0,-0.803846c-0.05141,-0.126923 -0.05141,-0.296154 -0.05141,-0.55c0,-0.169231 -0.05141,-0.338462 -0.154231,-0.380769l-0.257051,-0.211538c-0.05141,-0.126923 -0.359871,-0.169231 -0.976794,-0.169231l-0.822563,-0.042308l-1.028204,0c-0.976794,-0.084615 -1.593716,-0.126923 -1.850767,-0.169231c-0.257051,-0.042308 -0.514102,-0.211538 -0.771153,-0.507692c-0.205641,-0.253846 -0.257051,-0.761539 -0.257051,-1.480769c0,-1.015385 0,-1.692308 0.05141,-2.073077c0.10282,-1.142308 0.154231,-1.861539 0.154231,-2.157693c0.05141,-0.507692 0.10282,-0.888462 0.10282,-1.226923c0,-0.338462 0.05141,-0.55 0.10282,-0.676923l0.257051,-0.803846l2.82756,-0.126923c1.388075,-0.042308 2.210638,-0.084615 2.467689,-0.169231c0.205641,-0.084615 0.359871,-0.169231 0.411281,-0.338462c0.05141,-0.846154 0.154231,-1.988462 0.308461,-3.426924c0.154231,-1.480769 0.308461,-2.242308 0.462692,-2.369231c0.205641,-0.211538 0.771153,-0.380769 1.593716,-0.507692c0.771153,-0.126923 1.182434,-0.169231 1.182434,-0.169231z" class="st1"/>
     <path stroke="null" id="svg_52" d="m191.021793,41.396158l1.645126,0c3.495893,0.042308 5.44948,0.423077 5.757941,1.184616c0.154231,0.676923 0.205641,5.415385 0.257051,14.173079l0,7.319232c0,3.215385 -0.05141,5.33077 -0.154231,6.388462c-0.05141,0.846154 -0.308461,1.311539 -0.771153,1.396154c-0.616922,0.126923 -2.107818,0.169231 -4.524096,0.211538c-0.462692,0.042308 -1.285255,0.042308 -2.519099,0.042308c-1.285255,0 -2.159228,-0.084615 -2.621919,-0.253846c-0.462692,-0.169231 -0.771153,-0.423077 -0.822563,-0.719231c-0.05141,-0.338462 -0.10282,-0.973077 -0.10282,-1.946154l0.05141,-1.226923l0,-1.480769c0,-0.507692 0,-1.015385 0.05141,-1.396154l0,-1.480769c0,-1.861539 -0.05141,-3.469231 -0.205641,-4.738462c-0.308461,-3.173077 -0.462692,-6.261539 -0.462692,-9.265386c0,-2.073077 0.10282,-3.892308 0.359871,-5.457693c0.257051,-1.565385 0.719743,-2.453846 1.336665,-2.665385c0.514102,-0.042308 1.388075,-0.084615 2.72474,-0.084615z" class="st1"/>
     <path stroke="null" id="svg_53" d="m217.343808,44.950005l0.873973,0c1.850767,0.084615 3.341662,0.338462 4.472686,0.803846c1.079614,0.465385 2.467689,1.353846 4.061405,2.665385c2.467689,2.030769 4.061405,4.23077 4.729737,6.557693c0.205641,0.930769 0.359871,1.734616 0.359871,2.369231c0,2.284616 -0.462692,3.596154 -1.388075,3.892308l-11.413061,0c-3.598713,0 -5.398069,0 -5.398069,0.042308c0,0.465385 0.514102,0.930769 1.593716,1.438462c1.028204,0.507692 2.262048,0.888462 3.701533,1.142308c0.771153,0.126923 1.490895,0.169231 2.107818,0.169231c1.028204,0 2.467689,-0.211538 4.164225,-0.676923c1.336665,-0.296154 2.159228,-0.465385 2.519099,-0.465385c0.462692,0 0.822563,0.126923 1.079614,0.338462c0.308461,0.380769 0.822563,1.057692 1.439485,2.073077c0.616922,1.015385 0.976794,1.734616 0.976794,2.157693c0,0.846154 -0.822563,1.65 -2.519099,2.411539c-1.645126,0.846154 -3.393072,1.396154 -5.192429,1.734616c-1.799356,0.338462 -3.958584,0.507692 -6.426273,0.507692c-3.033201,0 -5.346659,-0.211538 -6.991785,-0.676923s-3.393072,-1.438462 -5.295249,-2.919231c-1.850767,-1.523077 -3.136021,-2.961539 -3.855764,-4.400001c-0.668332,-1.438462 -1.028204,-3.088462 -1.028204,-5.034616c0,-2.115385 0.359871,-4.019231 1.131024,-5.753847c0.771153,-1.734616 2.159228,-3.342308 4.267045,-4.78077c2.210638,-1.565385 4.986788,-2.707693 8.37986,-3.342308c1.233844,-0.169231 2.416279,-0.253846 3.650123,-0.253846zm-0.205641,7.657693c-1.028204,0 -1.902177,0.253846 -2.621919,0.719231c-0.771153,0.507692 -1.131024,1.1 -1.182434,1.861539l-0.05141,0.676923l3.341662,0.169231l2.82756,0.126923l0.359871,0c0.205641,0 0.308461,0 0.359871,-0.042308l0.154231,0l0.154231,0c0.205641,-0.042308 0.257051,-0.253846 0.257051,-0.676923c0,-0.507692 -0.154231,-0.973077 -0.411281,-1.396154c-0.719743,-0.973077 -1.747946,-1.438462 -3.187432,-1.438462z" class="st1"/>
     <path stroke="null" id="svg_54" d="m258.317726,46.684621c0.565512,0 1.799356,0.253846 3.701533,0.719231c1.902177,0.465385 3.187432,0.846154 3.855764,1.142308c0.616922,0.338462 0.976794,0.803846 0.976794,1.396154c0,0.592308 -0.514102,1.819231 -1.490895,3.596154l-0.873973,1.692308c-0.976794,1.734616 -1.593716,2.919231 -1.850767,3.553847c-1.079614,2.2 -2.519099,4.823078 -4.267045,7.784616c-1.747946,2.961539 -2.77615,4.611539 -3.136021,4.950001c-0.359871,0.253846 -0.719743,0.423077 -1.028204,0.507692c-0.359871,0.084615 -1.233844,0.126923 -2.519099,0.169231l-1.028204,0c-4.164225,0 -6.786145,-0.338462 -7.814348,-0.973077c-0.359871,-0.211538 -1.388075,-1.946154 -3.033201,-5.119231c-1.645126,-3.173077 -3.238842,-6.388462 -4.678327,-9.646155c-1.439485,-3.257693 -2.159228,-5.373078 -2.159228,-6.346155c0,-0.55 0.565512,-1.1 1.645126,-1.565385c1.079614,-0.465385 2.364869,-0.846154 3.804354,-1.142308c1.439485,-0.296154 2.570509,-0.465385 3.393072,-0.465385c0.411281,0 0.771153,0.042308 1.028204,0.126923c0.616922,0.169231 1.131024,0.676923 1.645126,1.65c0.359871,0.719231 1.233844,2.876923 2.621919,6.557693c1.079614,2.961539 1.696536,4.484616 1.799356,4.569231l0.205641,-0.211538c0.308461,-0.338462 0.668332,-0.846154 1.028204,-1.565385c0.616922,-1.184616 1.953587,-3.257693 3.958584,-6.261539c2.004997,-3.003847 3.136021,-4.611539 3.444482,-4.865385c0.10282,-0.126923 0.411281,-0.253846 0.771153,-0.253846z" class="st1"/>
     <path stroke="null" id="svg_55" d="m284.17705,44.950005l0.873973,0c1.850767,0.084615 3.341662,0.338462 4.472686,0.803846c1.079614,0.465385 2.467689,1.353846 4.061405,2.665385c2.467689,2.030769 4.061405,4.23077 4.729737,6.557693c0.205641,0.930769 0.359871,1.734616 0.359871,2.369231c0,2.284616 -0.462692,3.596154 -1.388075,3.892308l-11.413061,0c-3.598713,0 -5.398069,0 -5.398069,0.042308c0,0.465385 0.514102,0.930769 1.593716,1.438462c1.028204,0.507692 2.262048,0.888462 3.701533,1.142308c0.771153,0.126923 1.490895,0.169231 2.107818,0.169231c1.028204,0 2.467689,-0.211538 4.164225,-0.676923c1.336665,-0.296154 2.159228,-0.465385 2.519099,-0.465385c0.462692,0 0.822563,0.126923 1.079614,0.338462c0.308461,0.380769 0.822563,1.057692 1.439485,2.073077c0.616922,1.015385 0.976794,1.734616 0.976794,2.157693c0,0.846154 -0.822563,1.65 -2.519099,2.411539c-1.645126,0.846154 -3.393072,1.396154 -5.192429,1.734616c-1.799356,0.338462 -3.958584,0.507692 -6.426273,0.507692c-3.033201,0 -5.346659,-0.211538 -6.991785,-0.676923s-3.393072,-1.438462 -5.295249,-2.919231c-1.850767,-1.523077 -3.136021,-2.961539 -3.855764,-4.400001c-0.668332,-1.438462 -1.028204,-3.088462 -1.028204,-5.034616c0,-2.115385 0.359871,-4.019231 1.131024,-5.753847c0.771153,-1.734616 2.159228,-3.342308 4.267045,-4.78077c2.210638,-1.565385 4.986788,-2.707693 8.37986,-3.342308c1.233844,-0.169231 2.416279,-0.253846 3.650123,-0.253846zm-0.205641,7.657693c-1.028204,0 -1.902177,0.253846 -2.621919,0.719231c-0.771153,0.507692 -1.131024,1.1 -1.182434,1.861539l-0.05141,0.676923l3.341662,0.169231l2.82756,0.126923l0.359871,0c0.205641,0 0.308461,0 0.359871,-0.042308l0.154231,0l0.154231,0c0.205641,-0.042308 0.257051,-0.253846 0.257051,-0.676923c0,-0.507692 -0.154231,-0.973077 -0.411281,-1.396154c-0.719743,-0.973077 -1.747946,-1.438462 -3.187432,-1.438462z" class="st1"/>
     <path stroke="null" id="svg_56" d="m304.021381,41.396158l1.645126,0c3.495893,0.042308 5.44948,0.423077 5.757941,1.184616c0.154231,0.676923 0.205641,5.415385 0.257051,14.173079l0,7.319232c0,3.215385 -0.05141,5.33077 -0.154231,6.388462c-0.05141,0.846154 -0.308461,1.311539 -0.771153,1.396154c-0.616922,0.126923 -2.107818,0.169231 -4.524096,0.211538c-0.462692,0.042308 -1.285255,0.042308 -2.519099,0.042308c-1.285255,0 -2.159228,-0.084615 -2.621919,-0.253846c-0.462692,-0.169231 -0.771153,-0.423077 -0.822563,-0.719231c-0.05141,-0.338462 -0.10282,-0.973077 -0.10282,-1.946154l0.05141,-1.226923l0,-1.480769c0,-0.507692 0,-1.015385 0.05141,-1.396154l0,-1.480769c0,-1.861539 -0.05141,-3.469231 -0.205641,-4.738462c-0.308461,-3.173077 -0.462692,-6.261539 -0.462692,-9.265386c0,-2.073077 0.10282,-3.892308 0.359871,-5.457693c0.257051,-1.565385 0.719743,-2.453846 1.336665,-2.665385c0.514102,-0.042308 1.388075,-0.084615 2.72474,-0.084615z" class="st1"/>
    </g>
   </g>
  </g>
 </g>
</svg>