<?xml version="1.0" encoding="utf-8"?>
<!-- Generator: Adobe Illustrator 21.0.0, SVG Export Plug-In . SVG Version: 6.00 Build 0)  -->
<svg version="1.1" id="Capa_1" xmlns="http://www.w3.org/2000/svg" xmlns:xlink="http://www.w3.org/1999/xlink" x="0px" y="0px"
	 viewBox="0 0 1319 1952" style="enable-background:new 0 0 1319 1952;" xml:space="preserve">
<style type="text/css">
	.st0{fill:#FFFFFF;stroke:#EFF9F9;stroke-width:16;stroke-miterlimit:10;}
	.st1{fill:#9B0404;stroke:#BC2020;stroke-width:8;stroke-linecap:round;stroke-linejoin:round;stroke-miterlimit:10;}
</style>
<g>
	<path class="st0" d="M927.2,214.1c-10,0.1-18.9,0.8-25.2-8.6c-2.6-3.9-8.5-5-13.2-6.7c-11.5-4.2-23.8-5.1-35.7-7.6
		c-22.9-4.7-43.2,1.4-61.9,12.5c-1.8,1.1-3.4,1.9-5,2.5c-5-0.9-9.9-1.7-14.9-1.8c-14.7-7.7-29.5-9.7-44.3-4.8
		c-0.1-0.1-0.2-0.2-0.4-0.2c-34.7-25-86-19-115.3,9.7c-3.6-1.5-7.2-3.6-11-6.1c-42.3-26.6-102.6-12.2-126.8,30.1
		c-5.1,8.9-11,10.5-19.7,10.7c-22.1,0.6-34.4,13-41.2,33.3c-1,2.9-1.6,5.8-2.1,8.7c-11.8,33.1,6.5,80.3,43.2,79.9
		c10-0.1,18.9-0.8,25.2,8.6c2.6,3.9,8.5,5,13.2,6.7c11.5,4.2,23.8,5.1,35.7,7.6c22.9,4.7,43.2-1.4,61.9-12.5
		c7.1-4.3,11.9-5,19.1-1.1c13.5,7.3,27.3,9.7,41,6.4c0.6,0.3,1.1,0.6,1.7,1c30.8,18.1,68.6,21.9,97.9-2.4c5.5-4.5,10.9-8,16.3-10.6
		c4.9,1.5,9.6,4.2,14.9,7.5c42.3,26.6,102.6,12.2,126.8-30.1c5.1-8.9,11-10.5,19.7-10.7c22.1-0.6,34.4-13,41.2-33.3
		c1-2.9,1.6-5.8,2.1-8.7C982.2,260.9,963.9,213.7,927.2,214.1z"/>
	<path class="st0" d="M233.6,1634.1c0.1-1.4,0.1-2.8,0-4.3c-0.7-19.1-2.8-38.5-10.7-55.9c-12.2-26.9-29.9-49.8-60.9-55.6
		c-13.7-2.6-19.9-9-23.7-21.4c-4.6-15.1-11.8-29.7-24.4-39.5c-48.4-37.6-102.6-45.4-159.9-26.1c-15,5-27.4,7.2-42.9,2.8
		c-65-18.3-118.9,13.6-135.7,79.3c-2.4,9.4-7.6,11.5-16,11.9c-20.3,1-39.3,6.5-54.1,21.1c-8.4,8.3-14.6,7.6-24.7,1.8
		c-42.6-24.3-93.4-2.2-104.3,45c-2.2,9.5-6.1,14.1-14.7,16.9c-1.6,0.5-3.2,1.2-4.7,1.8c-21.1,1.1-33.1,13.4-39.7,33.2
		c-1,2.9-1.6,5.8-2.1,8.7c-11.8,33.1,6.5,80.3,43.2,79.9c10-0.1,18.9-0.8,25.2,8.6c2.6,3.9,8.5,5,13.2,6.7
		c11.5,4.2,23.8,5.1,35.7,7.6c4.4,0.9,8.6,1.4,12.8,1.6c24.3,28.5,70.5,40.1,101.5,29.4c8.3-2.9,11.8-2.7,16.1,5.1
		c9.4,17.2,24.4,29,41.2,38.8c26.3,15.4,55.5,20.8,85.2,23.6c37.8,3.6,74.1-1.5,107.9-19.8c14.9-8.1,28-18.2,31.5-35.8
		c2.3-11.4,8-13.8,18.9-13.4c44.3,1.6,62.7-11,77.8-52.6c2.9-8,4.8-10.5,14.2-7.2c30.6,10.7,70.6-3.8,85.5-29.6
		C237.1,1675.8,239.2,1653.6,233.6,1634.1z"/>
	<path class="st0" d="M774.6,1639.8c-20.5-9.2-11.6-21.3-34.9-39.3c-14-10.8-29.8-8.5-35-7.8c-25.8,3.7-33.8-15.5-48.4-30.3
		c-24-24.4-57.2-25.5-89.9-19.2c-21.9,4.3-39.7,15.2-47.5,37.2c-3.7,10.4-9.6,10.7-18.8,9.3c-24.6-3.7-47.4,1.6-67.5,16.8
		c-13.5,10.2-17.5,13.2-11.5,18.9c-0.7,0-1.5,0-2.2,0c-36.7-0.4-55,46.7-43.2,79.9c0.4,2.9,1.1,5.7,2.1,8.7
		c6.8,20.3,19.1,32.7,41.2,33.3c8.6,0.2,14.6,1.9,19.7,10.7c24.2,42.3,84.5,56.7,126.8,30.2c12.8-8.1,22.7-12.4,38.8-5.6
		c28.7,12,54.7,3.1,75-20.5c4-4.6,8-8.4,14-10c5.6,0.4,11.5,0,17.4-1.1c0.3,0.1,0.5,0.1,0.8,0.2c29.6,6.2,55.6-5.1,76.3-25.5
		C814.8,1698.9,808.6,1655.1,774.6,1639.8z"/>
	<path class="st0" d="M-224.3,817.5c-18.8-6.7-36.8,4.8-57.1,18.2c-34.8,23-74.2,30.3-114.8,13.1c-8.2-3.5-15.4-4.1-23.2,0.8
		c-37.9,23.6-76.3,22-114,0.1c-14.3-8.3-23.9-6.8-38.2,2.4c-37.4,24-78.2,37.1-124,26.9c-23.9-5.3-48.5-7.3-71.6-16.3
		c-9.6-3.7-21.4-6.2-26.5-14.5c-12.6-20.4-30.4-18.8-50.5-18.6c-81.4,1-128.5-80.9-87.9-151.3c19.1-33.1,70.6-51.8,109.8-38
		c12.1,4.2,14.5,0.9,18.2-9.3c19.4-53.5,43-69.6,99.8-67.6c14,0.5,21.3-2.6,24.2-17.3c4.5-22.6,21.3-35.6,40.5-46
		c43.5-23.5,90.1-30,138.6-25.5c38.2,3.6,75.6,10.6,109.4,30.3c21.5,12.5,40.8,27.7,52.9,49.8c5.5,10.1,10,10.3,20.7,6.6
		c53.1-18.3,141.3,14.3,150.5,81.8c0.3,2,1.7,4.2,1.3,5.9c-4.7,19.9,2.3,30.4,21.5,40.4c23.9,12.5,25.3,68.8,5.5,93.4
		C-159.5,807.9-186.3,819.2-224.3,817.5z"/>
	<path class="st0" d="M-175.7,1252.1c-19.3-0.6-38.7-5.2-53.9-16.1c-15.3-10.9-30.3-12.6-47.6-12.1c-24.9,0.7-47.2-6.7-62.7-27.7
		c-26.4-35.8-10.3-80.7,33.2-90.4c13.3-2.9,22.1-7.7,27.8-20.3c22.8-50.5,94.9-56,130.5-30c9,6.6,16.7,9.9,27.9,6.5
		c34.3-10.2,80,10.8,85.8,48.3c0.9,5.9,4.8,9,9.8,12c26.9,16.2,30.4,47,8.3,70c-18.7,19.4-42.2,27.1-68.3,26.2
		c-13.9-0.4-24.4,3-34.4,13.3C-134.2,1247.8-154.6,1251.2-175.7,1252.1z"/>
	<path class="st0" d="M201.1,204.1c-4.9-2.9-17.7-9.9-27.3-17c-4.4-8.1-8-16.8-11.8-25.5c-3.7-8.5-9.9-16.4-16.2-23.4
		C102.9,91,0.3,80.7-50.8,119.6c-15.1,11.5-25.6,12.4-42.6,3c-53.3-29.2-143.2-8.5-156.4,68c-1.4,8-5.6,11.2-12.6,14
		c-9.7,3.9-18.2,9.1-25.1,15.4c-50.6,24.5-65.7,85.1-29.1,134.8c24.5,33.2,59.7,44.9,99.1,43.7c27.4-0.8,51,1.9,75.2,19.1
		c24,17.1,54.6,24.4,85.2,25.4c33.3-1.4,65.5-6.9,89.2-31.6c15.7-16.4,32.4-21.7,54.3-21.1c41.3,1.3,78.5-10.8,108-41.5
		C229.4,312.5,243.6,229.8,201.1,204.1z"/>
	<path class="st0" d="M-492.8,235.8c-9.6-4.6-13-9.5-10.7-18.7c0.2-0.8-0.5-1.8-0.7-2.8c-4-27-37.3-41.9-63.4-40.1
		c-6-1.7-10-5.4-14-10c-20.4-23.7-46.3-32.6-75-20.6c-16.1,6.7-25.9,2.4-38.8-5.7c-42.3-26.6-102.6-12.2-126.8,30.1
		c-5.1,8.9-11,10.5-19.7,10.7c-22.1,0.6-34.4,13-41.2,33.3c-1,2.9-1.6,5.8-2.1,8.7c-11.8,33.1,6.5,80.3,43.2,79.9
		c10-0.1,18.9-0.8,25.2,8.6c2.6,3.9,8.5,5,13.2,6.7c11.5,4.2,23.8,5.1,35.7,7.6c22.9,4.7,43.2-1.4,61.9-12.5
		c7.1-4.3,11.9-5,19.1-1.1c18.8,10.2,38,10.9,56.9,0c3.9-2.2,7.5-2,11.6-0.4c20.3,8,39.9,4.6,57.3-6.1c10.1-6.2,19.1-11.5,28.5-8.4
		c19,0.8,32.3-4.4,42.4-16.1C-480.2,267.7-480.9,241.6-492.8,235.8z"/>
	<path class="st0" d="M922.7,753.3c-18.4-9-51.9,0.6-65.8,4.4c-3.4-2.2-6.8-4.6-10-7.2c-1.2-0.9-2.4-1.9-3.6-2.9
		c1-14.9,4.9-42.4-41.4-72.4c-28.2-18.3-55.3-25.5-87.3-20.8c-23.8,3.5-42.2,15.1-51.5,38c-1,2.4-2.1,4.2-3.5,5.5
		c-25.8-28.7-64.7-39.4-108.7-26.9c-15.6,4.4-28,2.3-42.9-2.8c-57.3-19.3-111.6-11.5-160,26c-12.6,9.8-19.8,24.3-24.4,39.4
		c-3.8,12.4-10,18.8-23.7,21.3c-31.1,5.8-48.7,28.7-61,55.6c-5.6,12.4-8.3,25.7-9.6,39.3c-3,12.7-2.7,26.4,1.6,38.3
		c0.4,2.9,1.1,5.7,2.1,8.7c6.8,20.3,19.1,32.7,41.2,33.3c8.6,0.2,14.6,1.9,19.7,10.7c24.2,42.3,84.5,56.7,126.8,30.2
		c12.8-8.1,22.7-12.4,38.8-5.6c19.9,8.3,38.5,6.6,54.8-3.1c25.7,30.6,65.6,42.3,111,29.5c15.6-4.4,28-2.3,42.9,2.8
		c57.3,19.3,111.6,11.5,160-26c12.6-9.8,19.8-24.3,24.4-39.4c3.8-12.4,10-18.8,23.7-21.3c31.1-5.8,48.7-28.7,61-55.6
		c5.3-11.6,8-24.1,9.4-36.8C955.3,791.8,947.2,765.3,922.7,753.3z"/>
	<path class="st0" d="M479.8,1396.5c10-0.1,18.9-0.8,25.2,8.6c2.6,3.9,8.5,5,13.2,6.7c11.5,4.2,23.8,5.1,35.7,7.6
		c19.4,4,36.9,0.2,53.2-7.8c6.5,6.1,12,14,18.8,21c24,24.4,57.2,25.5,89.9,19.2c21.9-4.3,39.7-15.2,47.5-37.2c0-0.1,0.1-0.2,0.1-0.4
		c9.8-4.6,16.8-1.1,26.1,5.3c43.9,30.7,118.5,17.8,146-26.4c2.1-3.3,4.2-6.1,6.4-8.5c3.2-0.7,6.6-1,10.4-1.2
		c44.5-1.8,68.3-43.1,48.7-83c-11.5-23.4-32.2-34.6-56.8-38.3c-4.5-0.7-8.9-1.5-13.1-2.6c-1.7-8.9-5.5-17.9-11.8-26.4
		c-15.5-21-37.8-28.4-62.7-27.7c-17.3,0.5-32.3-1.2-47.6-12.1c-15.2-10.8-34.6-15.5-53.9-16.1c-21,0.9-41.4,4.4-56.4,20
		c-9.9,10.4-20.5,13.8-34.4,13.3c-20.3-0.6-39,3.8-55.1,15c-40.1-14.2-88.6,1.5-109.7,38.3c-0.5,0.9-1,1.7-1.5,2.4
		c-1.1,1-2.3,2.1-3.4,3.2c-0.7,0.7-1.4,1.4-2.1,2.2c-3.6,2.2-7.7,2.8-12.7,3c-22.1,0.6-34.4,13-41.2,33.3c-1,2.9-1.6,5.8-2.1,8.7
		C424.8,1349.8,443.1,1396.9,479.8,1396.5z"/>
	<g>
		<path class="st1" d="M-897.8,1612.6h-6c-3.6,0-6.6-3-6.6-6.6v-63c0-3.6,3-6.6,6.6-6.6h6c3.6,0,6.6,3,6.6,6.6v63
			C-891.2,1609.7-894.1,1612.6-897.8,1612.6z"/>
		<path class="st1" d="M-891.7,1462.6h166.1c-5-33.5-30.5-60.5-63.9-68.9c1,1.9,1.6,4,1.6,6.2c0,9.9-11.6,18-25.9,18
			c-14.3,0-25.9-8-25.9-18c0-1.5,0.3-3,0.8-4.5c-31.7,10.3-55.1,37.7-58.5,70.8C-896.5,1464.1-894.3,1462.6-891.7,1462.6z"/>
		<path class="st1" d="M-789.6,1393.8c-3.6-6.9-13.2-11.8-24.4-11.8c-12.1,0-22.2,5.7-25.1,13.5c-0.5,1.4-0.8,2.9-0.8,4.5
			c0,9.9,11.6,18,25.9,18c14.3,0,25.9-8,25.9-18C-788.1,1397.8-788.6,1395.7-789.6,1393.8z M-791.2,1394.9c0.6,0.6,1.2,1.3,1.8,1.9
			C-790.4,1396.6-791,1396-791.2,1394.9z"/>
		<path class="st1" d="M-721.5,1532.2h6c3.6,0,6.6,3,6.6,6.6v63c0,3.6-3,6.6-6.6,6.6h-6c-3.6,0-6.6-3-6.6-6.6v-63
			C-728.1,1535.1-725.1,1532.2-721.5,1532.2z"/>
		<path class="st1" d="M-689.9,1557.9h8.4c5.1,0,9.2,4.1,9.2,9.2v11.7c0,5.1-4.1,9.2-9.2,9.2h-8.4c-5.1,0-9.2-4.1-9.2-9.2v-11.7
			C-699.1,1562-694.9,1557.9-689.9,1557.9z"/>
		<path class="st1" d="M-707.2,1522.3h8c4.8,0,8.8,3.9,8.8,8.8v82.7c0,4.8-3.9,8.8-8.8,8.8h-8c-4.8,0-8.8-3.9-8.8-8.8v-82.7
			C-716,1526.2-712,1522.3-707.2,1522.3z"/>
		<path class="st1" d="M-875.3,1676.1h-8.7c-5.2,0-9.4-4.3-9.4-9.4v-175.4c0-5.2,4.3-9.4,9.4-9.4h8.7c5.2,0,9.4,4.3,9.4,9.4v175.4
			C-865.8,1671.9-870.1,1676.1-875.3,1676.1z"/>
		<path class="st1" d="M-847.2,1676.1h-8.7c-5.2,0-9.4-4.3-9.4-9.4v-175.4c0-5.2,4.3-9.4,9.4-9.4h8.7c5.2,0,9.4,4.3,9.4,9.4v175.4
			C-837.8,1671.9-842,1676.1-847.2,1676.1z"/>
		<path class="st1" d="M-819.2,1676.1h-8.7c-5.2,0-9.4-4.3-9.4-9.4v-175.4c0-5.2,4.3-9.4,9.4-9.4h8.7c5.2,0,9.4,4.3,9.4,9.4v175.4
			C-809.7,1671.9-814,1676.1-819.2,1676.1z"/>
		<path class="st1" d="M-791.1,1676.1h-8.7c-5.2,0-9.4-4.3-9.4-9.4v-175.4c0-5.2,4.3-9.4,9.4-9.4h8.7c5.2,0,9.4,4.3,9.4,9.4v175.4
			C-781.7,1671.9-785.9,1676.1-791.1,1676.1z"/>
		<path class="st1" d="M-763.1,1676.1h-8.7c-5.2,0-9.4-4.3-9.4-9.4v-175.4c0-5.2,4.3-9.4,9.4-9.4h8.7c5.2,0,9.4,4.3,9.4,9.4v175.4
			C-753.7,1671.9-757.9,1676.1-763.1,1676.1z"/>
		<path class="st1" d="M-735.1,1676.1h-8.7c-5.2,0-9.4-4.3-9.4-9.4v-175.4c0-5.2,4.3-9.4,9.4-9.4h8.7c5.2,0,9.4,4.3,9.4,9.4v175.4
			C-725.6,1671.9-729.9,1676.1-735.1,1676.1z"/>
		<path class="st1" d="M-727,1462.6h-0.3h-166.1c-2.6,0-4.8,1.5-5.9,3.6c-0.4,0.9-0.7,1.9-0.7,2.9v11.5c0,1.1,0.3,2.2,0.8,3.1
			c1.1,2,3.3,3.4,5.8,3.4h165.9h0.4c3.6,0,6.6-3,6.6-6.6v-11.5C-720.4,1465.6-723.4,1462.6-727,1462.6z"/>
		<path class="st1" d="M-724,1670.6h-0.4h-172.9c-2.7,0-5,1.5-6.1,3.6c-0.5,0.9-0.7,1.9-0.7,2.9v11.5c0,1.1,0.3,2.2,0.8,3.1
			c1.2,2,3.4,3.4,6,3.4h172.8h0.5c3.8,0,6.8-3,6.8-6.6v-11.5C-717.1,1673.6-720.2,1670.6-724,1670.6z"/>
		<path class="st1" d="M-929.4,1586.9h-8.4c-5.1,0-9.2-4.1-9.2-9.2V1566c0-5.1,4.1-9.2,9.2-9.2h8.4c5.1,0,9.2,4.1,9.2,9.2v11.7
			C-920.2,1582.8-924.3,1586.9-929.4,1586.9z"/>
		<path class="st1" d="M-912,1622.5h-8c-4.8,0-8.8-3.9-8.8-8.8v-82.7c0-4.8,3.9-8.8,8.8-8.8h8c4.8,0,8.8,3.9,8.8,8.8v82.7
			C-903.3,1618.5-907.2,1622.5-912,1622.5z"/>
		<circle class="st1" cx="-809.6" cy="1569.4" r="39.4"/>
		<circle class="st1" cx="-809.6" cy="1569.4" r="23.5"/>
	</g>
</g>
</svg>
